<?xml version="1.0" encoding="UTF-8"?>
<svg xmlns="http://www.w3.org/2000/svg" version="1.1" viewBox="0 0 600 600">
  <defs>
    <style>
      .cls-1 {
        fill: #fff;
      }

      .cls-2 {
        fill: #dfc44a;
      }

      .cls-3 {
        fill: #43a047;
      }
    </style>
  </defs>
  <!-- Generator: Adobe Illustrator 28.7.10, SVG Export Plug-In . SVG Version: 1.2.0 Build 236)  -->
  <g>
    <g id="_圖層_1" data-name="圖層_1">
      <g>
        <path class="cls-3" d="M535.5,260.1v180.6c0,46.6-37.7,84.4-84.4,84.4s-84.4-37.7-84.4-84.4v-37.5c0-25.9,2.4-46.9-10.5-46.9h-40.8,40.8v189.1c10.9,3.9,18.8,14.3,18.8,26.5s-12.5,28.1-28.1,28.1H28.1c-15.6,0-28.1-12.5-28.1-28.1s7.9-22.6,18.8-26.5V75C18.8,33.6,52.4,0,93.8,0h187.5c41.4,0,75,33.6,75,75v225h-41.4,41.3c57,0,66.9,46.2,66.9,103.1v37.5c0,15.6,12.5,28.1,28.1,28.1s28.1-12.5,28.1-28.1v-180.5"/>
        <path class="cls-3" d="M465.2,102c7.5,0,13.5,6,13.5,13.5v40.4h53.9v-40.4c0-7.5,6-13.5,13.5-13.5s13.5,6,13.5,13.5v40.4h27c7.5,0,13.5,6,13.5,13.5s-6,13.5-13.5,13.5v27c0,40.1-29.1,73.3-67.4,79.7v28.1c0,7.5-6,13.5-13.5,13.5s-13.5-6-13.5-13.5v-28.1c-38.2-6.4-67.4-39.7-67.4-79.7v-27c-7.5,0-13.5-6-13.5-13.5s6-13.5,13.5-13.5h27v-40.4c0-7.5,6-13.5,13.5-13.5Z"/>
      </g>
      <path class="cls-2" d="M239.7,396.8c-1.6-2.6-4.4-4.1-7.4-4.1h-35.6l5.6-91.1c.3-4.1-2.4-7.8-6.4-8.9-4-1.1-8.1.8-10,4.4l-50.9,100.3c-1.4,2.7-1.2,5.9.3,8.5,1.6,2.6,4.4,4.1,7.4,4.1h35.6l-5.6,91.1c-.3,4.1,2.4,7.8,6.4,8.9.8.2,1.5.3,2.3.3,3.2,0,6.2-1.8,7.7-4.7l50.9-100.3c1.4-2.7,1.2-5.9-.3-8.5Z"/>
      <rect class="cls-1" x="93.8" y="75" width="187.5" height="150" rx="18.8" ry="18.8"/>
    </g>
  </g>
</svg>