<?xml version="1.0" encoding="utf-8"?>
<!-- Generator: Adobe Illustrator 26.5.3, SVG Export Plug-In . SVG Version: 6.00 Build 0)  -->
<svg version="1.1" id="圖層_1" xmlns="http://www.w3.org/2000/svg" xmlns:xlink="http://www.w3.org/1999/xlink" x="0px" y="0px"
	 viewBox="0 0 75 75" style="enable-background:new 0 0 75 75;" xml:space="preserve">
<style type="text/css">
	.st0{fill:#808080;}
</style>
<path class="st0" d="M30.6,47c5.2,5.2,13.8,5.2,19,0c1.6-1.6,4.1-1.6,5.7,0s1.6,4.1,0,5.7c-8.4,8.4-22,8.4-30.4,0s-8.4-22,0-30.4
	s22-8.4,30.4,0c1.6,1.6,1.6,4.1,0,5.7c-1.6,1.6-4.1,1.6-5.7,0c-5.2-5.2-13.8-5.2-19,0S25.3,41.8,30.6,47L30.6,47z"/>
<path class="st0" d="M37.5,75C16.8,75,0,58.2,0,37.5S16.8,0,37.5,0S75,16.8,75,37.5S58.2,75,37.5,75z M37.5,4C19,4,4,19,4,37.5
	S19,71,37.5,71S71,56,71,37.5S56,4,37.5,4z"/>
</svg>
