<?xml version="1.0" encoding="utf-8"?>
<!-- Generator: Adobe Illustrator 26.5.2, SVG Export Plug-In . SVG Version: 6.00 Build 0)  -->
<svg version="1.1" id="圖層_1" xmlns="http://www.w3.org/2000/svg" xmlns:xlink="http://www.w3.org/1999/xlink" x="0px" y="0px"
	 viewBox="0 0 75 75" style="enable-background:new 0 0 75 75;" xml:space="preserve">
<style type="text/css">
	.st0{fill:#EC6C00;}
	.st1{fill:#FFFFFF;}
</style>
<circle class="st0" cx="37.5" cy="37.5" r="37.5"/>
<path class="st1" d="M58.7,22.7c1.8-1.8,1.8-4.6,0-6.4c-1.8-1.8-4.6-1.8-6.4,0L37.5,31.1L22.7,16.3c-1.8-1.8-4.6-1.8-6.4,0
	s-1.8,4.6,0,6.4l14.8,14.8L16.3,52.3c-1.8,1.8-1.8,4.6,0,6.4s4.6,1.8,6.4,0l14.8-14.8l14.8,14.8c1.8,1.8,4.6,1.8,6.4,0
	s1.8-4.6,0-6.4L43.9,37.5L58.7,22.7z"/>
</svg>
