<?xml version="1.0" encoding="utf-8"?>
<!-- Generator: Adobe Illustrator 26.2.1, SVG Export Plug-In . SVG Version: 6.00 Build 0)  -->
<svg version="1.1" id="圖層_1" xmlns="http://www.w3.org/2000/svg" xmlns:xlink="http://www.w3.org/1999/xlink" x="0px" y="0px"
	 viewBox="0 0 75 75" style="enable-background:new 0 0 75 75;" xml:space="preserve">
<style type="text/css">
	.st0{fill:#EC6C00;}
</style>
<g>
	<path class="st0" d="M48.3,44h24.2c1.4,0,2.5,1.1,2.5,2.5c0,1.4-1.1,2.5-2.5,2.5H50.8v22.2c0,1.4-1.1,2.5-2.5,2.5s-2.5-1.1-2.5-2.5
		V46.5C45.8,45.1,46.9,44,48.3,44z"/>
	<path class="st0" d="M2.5,44h24.2c1.4,0,2.5,1.1,2.5,2.5v24.7c0,1.4-1.1,2.5-2.5,2.5s-2.5-1.1-2.5-2.5V49H2.5C1.1,49,0,47.9,0,46.5
		S1.1,44,2.5,44z"/>
	<path class="st0" d="M26.7,1.2c1.4,0,2.5,1.1,2.5,2.5v24.7c0,1.4-1.1,2.5-2.5,2.5H2.5C1.1,31,0,29.9,0,28.5S1.1,26,2.5,26h21.7V3.7
		C24.2,2.4,25.3,1.2,26.7,1.2z"/>
	<path class="st0" d="M48.3,1.2c1.4,0,2.5,1.1,2.5,2.5V26h21.7c1.4,0,2.5,1.1,2.5,2.5S73.9,31,72.5,31H48.3c-1.4,0-2.5-1.1-2.5-2.5
		V3.7C45.8,2.4,46.9,1.2,48.3,1.2z"/>
</g>
</svg>
