<?xml version="1.0" encoding="utf-8"?>
<!-- Generator: Adobe Illustrator 26.2.1, SVG Export Plug-In . SVG Version: 6.00 Build 0)  -->
<svg version="1.1" id="圖層_1" xmlns="http://www.w3.org/2000/svg" xmlns:xlink="http://www.w3.org/1999/xlink" x="0px" y="0px"
	 viewBox="0 0 75 75" style="enable-background:new 0 0 75 75;" xml:space="preserve">
<style type="text/css">
	.st0{fill:#EC6C00;}
</style>
<g>
	<path class="st0" d="M28.1,52.8c-1.4,0-2.5-1.1-2.5-2.5v-24c0-1.4,1.1-2.5,2.5-2.5s2.5,1.1,2.5,2.5v24
		C30.6,51.7,29.5,52.8,28.1,52.8z"/>
	<path class="st0" d="M46.6,52.8c-1.4,0-2.5-1.1-2.5-2.5v-24c0-1.4,1.1-2.5,2.5-2.5s2.5,1.1,2.5,2.5v24C49.1,51.7,48,52.8,46.6,52.8
		z"/>
	<path class="st0" d="M37.5,73.7C16.8,73.7,0,57.4,0,37.5C0,17.6,16.8,1.3,37.5,1.3S75,17.6,75,37.5c0,7.6-2.4,14.8-6.9,20.9
		c-0.8,1.1-2.4,1.3-3.5,0.5s-1.3-2.4-0.5-3.5c3.9-5.3,5.9-11.5,5.9-18C70,20.3,55.4,6.3,37.5,6.3S5,20.3,5,37.5s14.6,31.2,32.5,31.2
		c4.6,0,9.1-0.9,13.2-2.7c1.3-0.5,2.7,0,3.3,1.3c0.5,1.3,0,2.7-1.3,3.3C47.9,72.6,42.8,73.7,37.5,73.7z"/>
</g>
</svg>
