<?xml version="1.0" encoding="utf-8"?>
<!-- Generator: Adobe Illustrator 26.5.3, SVG Export Plug-In . SVG Version: 6.00 Build 0)  -->
<svg version="1.1" id="圖層_1" xmlns="http://www.w3.org/2000/svg" xmlns:xlink="http://www.w3.org/1999/xlink" x="0px" y="0px"
	 viewBox="0 0 75 75" style="enable-background:new 0 0 75 75;" xml:space="preserve">
<style type="text/css">
	.st0{opacity:0.7;}
	.st1{fill:#EC6C00;}
</style>
<g class="st0">
	<path class="st1" d="M27.3,52c-0.5,0-0.9-0.1-1.3-0.4c-0.7-0.5-1.2-1.3-1.2-2.1v-24c0-0.9,0.4-1.7,1.2-2.1c0.7-0.5,1.6-0.5,2.4-0.2
		l25.4,11.9c0.9,0.4,1.4,1.3,1.4,2.3s-0.6,1.8-1.4,2.3L28.3,51.8C28,51.9,27.6,52,27.3,52z M29.8,29.4v16.1l17-8.1L29.8,29.4z"/>
	<path class="st1" d="M37.5,73.7C16.8,73.7,0,57.4,0,37.5S16.8,1.3,37.5,1.3S75,17.6,75,37.5c0,7.6-2.4,14.8-6.9,20.9
		c-0.8,1.1-2.4,1.3-3.5,0.5s-1.3-2.4-0.5-3.5c3.9-5.3,5.9-11.5,5.9-18C70,20.3,55.4,6.3,37.5,6.3S5,20.3,5,37.5s14.6,31.2,32.5,31.2
		c4.6,0,9.1-0.9,13.2-2.7c1.3-0.5,2.7,0,3.3,1.3c0.5,1.3,0,2.7-1.3,3.3C47.9,72.6,42.8,73.7,37.5,73.7z"/>
</g>
</svg>
