<?xml version="1.0" encoding="utf-8"?>
<!-- Generator: Adobe Illustrator 17.0.0, SVG Export Plug-In . SVG Version: 6.00 Build 0)  -->
<!DOCTYPE svg PUBLIC "-//W3C//DTD SVG 1.1//EN" "http://www.w3.org/Graphics/SVG/1.1/DTD/svg11.dtd">
<svg version="1.1" id="圖層_1" xmlns="http://www.w3.org/2000/svg" xmlns:xlink="http://www.w3.org/1999/xlink" x="0px" y="0px"
	 width="150px" height="150px" viewBox="0 0 150 150" enable-background="new 0 0 150 150" xml:space="preserve">
<g>
	<g>
		<polygon fill="#808081" points="74.376,20.27 34.081,54.752 34.081,54.552 5.212,54.552 5.212,67.181 5.212,82.819 5.212,95.448 
			34.081,95.448 34.081,95.248 74.376,129.73 84.801,129.73 84.801,82.819 84.801,67.181 84.801,20.27 		"/>
		<path fill="#808081" d="M84.801,134.942H74.376c-1.203,0-2.406-0.401-3.408-1.203l-38.692-33.078H5.212
			C2.406,100.661,0,98.255,0,95.448V54.552c0-2.807,2.406-5.212,5.212-5.212h27.064l38.692-33.078
			c1.002-0.802,2.205-1.203,3.408-1.203h10.425c2.807,0,5.212,2.406,5.212,5.212V129.73
			C90.013,132.536,87.607,134.942,84.801,134.942z M76.18,124.517h3.408V25.483H76.18L37.489,58.762
			c-1.203,1.203-3.007,1.403-4.611,1.002H10.425v30.472h22.654c1.604-0.2,3.208,0,4.41,1.002L76.18,124.517z"/>
	</g>
	<path fill="#808081" d="M106.051,103.066c-1.203,0-2.606-0.401-3.609-1.403c-2.005-2.005-2.205-5.212-0.2-7.418
		c18.243-19.246,0.802-37.89,0-38.692c-2.005-2.005-2.005-5.413,0.2-7.418c2.005-2.005,5.413-2.005,7.418,0.2
		c8.821,9.222,20.047,31.875,0,52.925C108.858,102.666,107.454,103.066,106.051,103.066z"/>
	<path fill="#808081" d="M126.5,123.314c-1.203,0-2.606-0.401-3.609-1.403c-2.005-2.005-2.205-5.212-0.2-7.418
		c37.288-39.093,1.604-77.383,0-78.987c-2.005-2.005-2.005-5.413,0.2-7.418c2.005-2.005,5.413-2.005,7.418,0.2
		c0.401,0.401,44.104,46.911,0,93.221C129.106,122.713,127.702,123.314,126.5,123.314z"/>
</g>
</svg>
