<?xml version="1.0" encoding="utf-8"?>
<!-- Generator: Adobe Illustrator 26.5.1, SVG Export Plug-In . SVG Version: 6.00 Build 0)  -->
<svg version="1.1" id="圖層_1" xmlns="http://www.w3.org/2000/svg" xmlns:xlink="http://www.w3.org/1999/xlink" x="0px" y="0px"
	 viewBox="0 0 75 75" style="enable-background:new 0 0 75 75;" xml:space="preserve">
<style type="text/css">
	.st0{fill:#808080;}
	.st1{fill:none;}
</style>
<g>
	<g>
		<path class="st0" d="M71.9,28.1l-5.6-15.7c-1.1-3-4.4-4.6-7.5-3.5L7,27.5c-1.5,0.5-2.6,1.6-3.3,3S3,33.5,3.5,35l5.6,15.7
			c0.5,1.5,1.6,2.6,3,3.3c0.8,0.4,1.6,0.6,2.5,0.6c0.7,0,1.3-0.1,2-0.3l51.8-18.6C71.4,34.5,73,31.1,71.9,28.1z M69.3,31.4
			c-0.4,0.8-1,1.4-1.8,1.6L15.7,51.7c-0.8,0.3-1.7,0.2-2.4-0.1c-0.8-0.4-1.4-1-1.6-1.8L6,34c-0.3-0.8-0.2-1.7,0.1-2.4
			c0.4-0.8,1-1.4,1.8-1.6l51.8-18.6c0.4-0.1,0.7-0.2,1.1-0.2c1.3,0,2.5,0.8,3,2.1L69.4,29C69.7,29.8,69.7,30.6,69.3,31.4z"/>
	</g>
	<g>
		<path class="st0" d="M14.3,34.5c-2.6,0-4.8,2.1-4.8,4.8c0,2.6,2.1,4.8,4.8,4.8s4.8-2.1,4.8-4.8C19.1,36.7,17,34.5,14.3,34.5z
			 M14.3,41.4c-1.2,0-2.1-0.9-2.1-2.1c0-1.2,0.9-2.1,2.1-2.1s2.1,0.9,2.1,2.1C16.5,40.5,15.5,41.4,14.3,41.4z"/>
	</g>
	<path class="st0" d="M9.5,53.6c-4.4,0-8.1-2-9.1-5c-1-3.1-0.6-7.2,7-9.9c3.8-1.3,7.7-0.6,10.3,0.2l-0.8,2.5
		c-2.2-0.7-5.5-1.3-8.6-0.2c-6.7,2.3-5.7,5.4-5.3,6.6c0.7,2.2,4.3,3.6,8,3.1l0.3,2.6C10.7,53.6,10.1,53.6,9.5,53.6z"/>
	<g>
		<g>
			<line class="st1" x1="19.6" y1="30.7" x2="53.1" y2="18.3"/>
			<path class="st0" d="M19.6,32.3c-0.6,0-1.3-0.4-1.5-1c-0.3-0.8,0.1-1.7,0.9-2l33.5-12.4c0.8-0.3,1.7,0.1,2,0.9s-0.1,1.7-0.9,2
				L20.2,32.2C20,32.2,19.8,32.3,19.6,32.3z"/>
		</g>
		<g>
			<line class="st1" x1="24.8" y1="43.1" x2="48.9" y2="34.2"/>
			<path class="st0" d="M24.8,44.7c-0.6,0-1.3-0.4-1.5-1c-0.3-0.8,0.1-1.7,0.9-2l24.2-8.9c0.8-0.3,1.7,0.1,2,0.9s-0.1,1.7-0.9,2
				l-24.2,8.9C25.1,44.7,24.9,44.7,24.8,44.7z"/>
		</g>
		<g>
			<line class="st1" x1="21.9" y1="37" x2="38.7" y2="30.8"/>
			<path class="st0" d="M21.9,38.6c-0.6,0-1.3-0.4-1.5-1c-0.3-0.8,0.1-1.7,0.9-2l16.8-6.2c0.8-0.3,1.7,0.1,2,0.9s-0.1,1.7-0.9,2
				l-16.8,6.2C22.3,38.6,22.1,38.6,21.9,38.6z"/>
		</g>
	</g>
	<g>
		<path class="st0" d="M6,34L6,34c-0.2,0.6-0.2,1.5,0.2,2.4l2.3,5.8c0.3,0.7,0.7,1.3,1.2,1.9L6,34z"/>
		<path class="st0" d="M73.6,49.4c1.1-0.7,1.5-2,0.9-3.6l-4.3-9.4c-0.5-1.3-1.6-2.5-2.8-3.3l-4.1,1.5c2,0.4,4.1,2,4.8,4l2,5.2
			c0.9,2.2-0.2,4.1-2.5,4.1H26.4l-7.7,2.8h49.8c0.8,0,1.5,0.5,1.5,1.1s-0.7,1.1-1.5,1.1H16.6c-0.8,0-1.4-0.4-1.5-1
			c-0.6,0.1-1.2,0-1.8-0.3c-0.7-0.3-1.2-0.9-1.5-1.6c-0.6,0.8-0.9,1.8-0.9,2.9v8.5c0,2.8,2.3,5.1,5.1,5.1h54c2.8,0,5.1-2.3,5.1-5.1
			v-8.5C75,51.5,74.5,50.3,73.6,49.4z M68.5,62.7H16.6c-0.8,0-1.5-0.5-1.5-1.1s0.7-1.1,1.5-1.1h51.9c0.8,0,1.5,0.5,1.5,1.1
			S69.3,62.7,68.5,62.7z M68.5,57.7H16.6c-0.8,0-1.5-0.5-1.5-1.1s0.7-1.1,1.5-1.1h51.9c0.8,0,1.5,0.5,1.5,1.1S69.3,57.7,68.5,57.7z"
			/>
	</g>
</g>
</svg>
