<?xml version="1.0" encoding="UTF-8"?><svg id="_圖層_2" xmlns="http://www.w3.org/2000/svg" viewBox="0 0 415.59 172.5"><defs><style>.cls-1{fill:#3b5192;}</style></defs><g id="_圖層_1-2"><g><g><path class="cls-1" d="m142.97,171.77L0,142.96,28.81,0l142.98,28.79-28.82,142.99Zm-125.03-40.73l113.11,22.78,22.78-113.11L40.73,17.94l-22.79,113.1Z"/><path class="cls-1" d="m55.04,101.81h-12.44v-63.9h24.67c4.11,0,7.2.21,9.43.61,3.21.53,5.98,1.58,8.22,3.14,2.29,1.59,4.15,3.81,5.51,6.61,1.35,2.76,2.04,5.82,2.04,9.09,0,5.61-1.83,10.44-5.42,14.36-3.71,4.03-9.96,5.99-19.1,5.99h-12.91v24.1Zm0-35.7h13.03c4.41,0,7.62-.77,9.29-2.26,1.61-1.44,2.41-3.49,2.41-6.24,0-2.01-.47-3.66-1.45-5.05-.95-1.32-2.16-2.18-3.7-2.61-.75-.19-2.55-.44-6.71-.44h-12.88v16.6Z"/><path class="cls-1" d="m105.96,140.55c-5.65,0-10.5-.84-14.41-2.52-4.01-1.74-7.22-4.4-9.54-7.91-2.28-3.5-3.5-7.47-3.63-11.86l-.07-2.16,11.78-1.03.27,2.21c.3,2.59,1,4.71,2.08,6.28,1.02,1.53,2.69,2.8,4.97,3.79,4.51,1.97,10.99,2.06,15.27.39,1.87-.71,3.25-1.68,4.09-2.87.84-1.13,1.24-2.35,1.24-3.72s-.36-2.48-1.13-3.47c-.81-1.04-2.28-1.97-4.35-2.77-1.49-.58-4.94-1.52-10.26-2.8-5.7-1.37-9.62-2.65-12-3.9-3.18-1.67-5.59-3.79-7.21-6.33-1.61-2.56-2.43-5.45-2.43-8.6,0-3.44.98-6.68,2.91-9.65,1.95-2.99,4.83-5.28,8.5-6.81,3.52-1.46,7.47-2.19,11.75-2.19,4.68,0,8.89.77,12.52,2.3,3.77,1.59,6.72,3.99,8.79,7.1,2.02,3.1,3.13,6.64,3.29,10.52l.08,2.22-11.96.9-.24-2.2c-.34-3.17-1.42-5.45-3.29-6.97-1.91-1.56-4.88-2.35-8.87-2.35-4.19,0-7.2.7-8.93,2.1-1.65,1.31-2.4,2.74-2.4,4.49,0,1.48.5,2.61,1.54,3.55.56.51,2.71,1.86,10.81,3.7,6.58,1.48,11.03,2.78,13.59,3.93,3.82,1.76,6.71,4.07,8.58,6.86,1.9,2.82,2.86,6.1,2.86,9.73s-1.02,7-3.07,10.16c-2.04,3.16-4.99,5.62-8.76,7.35-3.65,1.68-7.81,2.52-12.38,2.52Z"/></g><g><path class="cls-1" d="m191.67,41.39c4.71,2.21,8.99,4.84,12.83,7.92l-4.69,7.15c-3.94-3.79-8.02-6.79-12.22-8.99l4.08-6.07Zm8.76,18.75l5.91,4.38c-3.68,10.72-7.89,20.02-12.61,27.91l-5.53-6.15c3.89-6.1,7.96-14.81,12.22-26.14Zm-4.92-37.89c4.61,2.36,8.84,5.12,12.68,8.3l-4.92,7.46c-3.89-3.94-7.9-7.07-11.99-9.38l4.23-6.38Zm57.35-.23l3.6,6.15c-6.14,2-13.32,3.46-21.52,4.38,1.03,3.38,2,7.15,2.93,11.29h17.75v6.53c-4.51,6.67-8.96,11.95-13.37,15.84-4.2,3.84-9.97,8.04-17.3,12.6.52.72.97,1.3,1.39,1.77,1.89,2.1,7.74,3.15,17.52,3.15,6.97,0,12.41-.28,16.3-.84l-1.68,7.99c-19.23,0-30.61-1.02-34.14-3.08-3.02-1.89-5.46-6.5-7.3-13.83-2.3,7.79-5.1,14.05-8.38,18.76l-6.61-4.76c4.81-6.46,8.31-14.41,10.45-23.84h7.39c.61,2.67,1.23,4.98,1.84,6.92,5.49-2.87,9.72-5.48,12.69-7.84,3.84-2.46,7.94-6.67,12.29-12.61h-37.98v-6.77h21.37c-.97-3.74-2.07-7.27-3.31-10.61-4.86.31-10.02.47-15.45.47l-2.23-6.53c17.17,0,31.74-1.72,43.75-5.15Z"/><path class="cls-1" d="m294.28,21.7l2.46,6.54c-2.82.97-5.99,1.77-9.53,2.38v11.22h11.39v6.46h-11.39v2c3.74,4.05,7.54,8.51,11.39,13.37l-4.01,6c-2.92-4.71-5.38-8.53-7.38-11.45v34.2h-6.76v-33.28c-.31.72-.62,1.41-.92,2.08-2.97,6.3-6.59,11.79-10.84,16.45l-3-7.68c5.85-6.31,10.59-13.53,14.23-21.68h-12.99v-6.46h13.52v-10.22c-3.29.52-6.82.9-10.61,1.15l-1.38-6.53c9.68-.71,18.29-2.23,25.82-4.54Zm43.51,41.21l1.08,6.77-7.54,1.08v21.99h-7.07v-20.91l-25.53,3.69-1.08-6.76,26.6-3.92V20.48h7.07v43.35l6.46-.92Zm-31.51-18.14c5.59,3.23,10.3,6.43,14.14,9.61l-5.76,5.76c-3.13-3.17-7.67-6.61-13.61-10.3l5.23-5.07Zm1.54-18.45c5.48,3.13,10.09,6.23,13.83,9.3l-5.76,5.76c-3.07-3.07-7.51-6.41-13.3-9.99l5.23-5.08Z"/><path class="cls-1" d="m366.85,21.09l2.46,5.91c-2.66.57-7.02,1.13-13.07,1.69l.31,3.61h11.84v5.23h-11.53l.23,4.15h11.3v5.53h-10.91l.31,4.69h45.9l.39-4.69h-10.15v-5.53h10.53l.3-3.85h-10.83v-5.23h11.3l.3-4.16h-12.22v-6.22h19.22l-2.08,29.67h5.16v15.3h-7.08v-9.23h-55.35v9.23h-7.07v-15.3h4.92l-1.69-28.6c5.54-.26,11.38-1,17.53-2.23Zm-7.68,41.2h44.73v5.77c-5.28,2.41-11.33,4.59-18.14,6.54h29.37v6.15h-29.83v6.61c-.1,1.63-.56,2.89-1.38,3.77-1.28,1.28-2.76,1.92-4.46,1.92h-11.14l-1.46-6.15c2.71.1,5.61.15,8.69.15,1.59,0,2.38-.56,2.38-1.69v-4.61h-30.44v-6.15h30.44v-2.77c4.46-.97,9.15-2.3,14.07-3.99h-32.82v-5.54Zm27.9-41.2l4.68,2.92c-1.64,1.69-3.23,3.1-4.76,4.23,1.23,1.02,2.41,2,3.53,2.92l-4.08,4.08c-1.22-1.23-2.67-2.51-4.3-3.84-2.67,1.54-5.81,3.03-9.45,4.45l-3.08-5.07c2.72-.77,5.28-1.74,7.7-2.92-1.65-1.13-3.39-2.28-5.24-3.46l3.69-3.61c2.31,1.38,4.48,2.77,6.54,4.15,1.64-1.13,3.22-2.41,4.76-3.84Zm.93,14.45l4.69,2.92c-1.95,2.05-3.82,3.77-5.62,5.15,1.59,1.23,3.05,2.41,4.38,3.53l-4.07,4.08c-1.43-1.43-3.13-2.92-5.07-4.46-2.52,1.43-5.42,2.81-8.69,4.15l-3.07-5.07c2.45-.72,4.76-1.62,6.92-2.69-1.53-1.02-3.12-2.05-4.77-3.07l3.69-3.61c2.15,1.28,4.12,2.56,5.92,3.84,1.99-1.38,3.89-2.97,5.69-4.77Z"/></g><g><path class="cls-1" d="m211.48,112.32c3.09,0,5.69.52,7.8,1.56,2.1,1.05,3.8,2.4,5.09,4.09,1.29,1.69,2.22,3.61,2.77,5.78.57,2.16.85,4.37.85,6.61,0,3.09-.46,5.79-1.39,8.1-.93,2.31-2.23,4.19-3.87,5.65-1.66,1.47-3.68,2.56-6.03,3.29-2.36.73-4.97,1.1-7.85,1.1h-6.48v24.02h-12.14v-60.18h21.25Zm-3.71,27.22c2.41,0,4.36-.73,5.85-2.19,1.49-1.45,2.23-3.73,2.23-6.83s-.65-5.34-1.94-6.91c-1.29-1.57-3.45-2.36-6.48-2.36h-5.06v18.29h5.4Z"/><path class="cls-1" d="m234.72,146.11c0-2.08.33-3.82,1-5.22.67-1.39,1.56-2.53,2.69-3.39,1.13-.86,2.45-1.48,3.99-1.86,1.52-.38,3.15-.57,4.88-.57,2.75,0,4.96.27,6.65.8,1.69.53,2.99,1.29,3.92,2.27.93.97,1.56,2.13,1.89,3.48.33,1.36.5,2.83.5,4.43v18.82c0,1.68.09,2.99.24,3.92.15.93.46,1.93.9,3h-8.77c-.32-.58-.55-1.19-.71-1.83-.15-.64-.29-1.27-.42-1.89h-.14c-1.07,1.86-2.3,3.07-3.7,3.62-1.39.55-3.2.83-5.41.83-1.59,0-2.94-.28-4.06-.83-1.1-.55-1.99-1.32-2.66-2.3-.66-.97-1.15-2.07-1.46-3.29-.31-1.22-.46-2.42-.46-3.62,0-1.69.17-3.13.53-4.35.35-1.22.89-2.27,1.63-3.13.72-.86,1.66-1.59,2.79-2.16,1.13-.58,2.5-1.09,4.09-1.53l5.19-1.4c1.37-.35,2.32-.84,2.86-1.46.53-.62.8-1.54.8-2.73,0-1.37-.33-2.45-.96-3.22-.65-.78-1.74-1.16-3.3-1.16-1.42,0-2.48.42-3.19,1.26-.71.84-1.07,1.98-1.07,3.39v.99h-8.24v-.86Zm14.76,8.94c-.7.29-1.35.5-1.92.63-1.87.4-3.19,1.06-3.99,1.99-.8.93-1.2,2.2-1.2,3.79,0,1.38.27,2.55.8,3.53.53.98,1.42,1.46,2.66,1.46.63,0,1.27-.1,1.93-.3.66-.2,1.27-.52,1.83-.97.55-.44,1.01-1.02,1.36-1.72.35-.72.54-1.55.54-2.53v-7.05c-.62.49-1.29.87-2,1.16Z"/><path class="cls-1" d="m281.02,136.73v4.19h.14c.97-1.77,2.24-3.07,3.79-3.88,1.55-.83,3.33-1.24,5.32-1.24,2.93,0,5.18.8,6.75,2.4,1.57,1.59,2.36,4.19,2.36,7.78v26.53h-9.17v-24.67c0-1.86-.32-3.16-.94-3.89-.62-.73-1.62-1.1-2.99-1.1-3.24,0-4.86,1.98-4.86,5.91v23.74h-9.18v-35.77h8.78Z"/><path class="cls-1" d="m325.25,155.08c0,1.36.12,2.61.33,3.73.22,1.11.63,2.06,1.23,2.82.6.76,1.4,1.36,2.42,1.79,1.01.44,2.27.66,3.81.66,1.79,0,3.42-.58,4.86-1.76,1.44-1.17,2.17-2.99,2.17-5.43,0-1.32-.18-2.45-.53-3.4-.36-.95-.95-1.82-1.77-2.58-.81-.76-1.89-1.46-3.22-2.08-1.34-.63-2.99-1.27-4.96-1.92-2.61-.87-4.87-1.83-6.78-2.86-1.91-1.04-3.51-2.25-4.79-3.64-1.28-1.39-2.22-3-2.82-4.83-.6-1.83-.89-3.94-.89-6.34,0-5.78,1.6-10.09,4.82-12.93,3.21-2.83,7.63-4.25,13.26-4.25,2.61,0,5.02.28,7.25.85,2.2.57,4.11,1.5,5.72,2.78,1.61,1.28,2.87,2.92,3.76,4.9.9,1.99,1.36,4.39,1.36,7.16v1.64h-11.3c0-2.78-.49-4.92-1.48-6.42-.97-1.5-2.61-2.25-4.9-2.25-1.31,0-2.4.19-3.28.57-.87.38-1.57.88-2.09,1.52-.51.62-.87,1.35-1.07,2.17-.18.81-.28,1.66-.28,2.53,0,1.8.38,3.31,1.15,4.54.76,1.23,2.4,2.36,4.91,3.39l9.08,3.93c2.23.98,4.06,2,5.47,3.07,1.42,1.06,2.56,2.21,3.4,3.44.84,1.22,1.42,2.57,1.76,4.04.32,1.47.49,3.11.49,4.91,0,6.16-1.78,10.65-5.36,13.46-3.57,2.81-8.56,4.21-14.93,4.21s-11.42-1.44-14.29-4.34c-2.86-2.89-4.29-7.03-4.29-12.43v-2.38h11.78v1.72Z"/><path class="cls-1" d="m381.31,146.3c-.12-.84-.31-1.61-.6-2.29-.28-.69-.69-1.24-1.23-1.66-.53-.42-1.25-.63-2.14-.63-1.1,0-2.02.25-2.72.76-.7.51-1.23,1.27-1.59,2.26-.36.99-.6,2.26-.73,3.79-.13,1.54-.2,3.34-.2,5.42,0,2.22.07,4.11.2,5.69.13,1.58.37,2.88.73,3.89.35,1.02.85,1.76,1.5,2.23.63.46,1.46.69,2.48.69,1.55,0,2.69-.66,3.4-1.99.71-1.33,1.06-3.46,1.06-6.38h8.78c0,4.7-1.06,8.28-3.17,10.74-2.11,2.46-5.59,3.69-10.46,3.69-2.32,0-4.32-.28-6.02-.83-1.71-.55-3.12-1.56-4.25-2.99-1.14-1.44-1.99-3.37-2.56-5.79-.58-2.42-.87-5.42-.87-9.01s.35-6.73,1.07-9.14c.7-2.42,1.71-4.35,2.99-5.79,1.29-1.44,2.82-2.45,4.59-3.03,1.77-.57,3.73-.86,5.85-.86,4.26,0,7.46,1.24,9.61,3.72,2.15,2.48,3.23,5.85,3.23,10.11h-8.78c0-.88-.06-1.75-.16-2.6Z"/><path class="cls-1" d="m412.95,124.5v7.85h-9.18v-7.85h9.18Zm0,12.23v35.77h-9.18v-35.77h9.18Z"/></g></g></g></svg>