<?xml version="1.0" encoding="utf-8"?>
<!-- Generator: Adobe Illustrator 26.5.3, SVG Export Plug-In . SVG Version: 6.00 Build 0)  -->
<svg version="1.1" id="Layer_1" xmlns="http://www.w3.org/2000/svg" xmlns:xlink="http://www.w3.org/1999/xlink" x="0px" y="0px"
	 viewBox="0 0 30 29.6" style="enable-background:new 0 0 30 29.6;" xml:space="preserve">
<style type="text/css">
	.st0{fill:#6A3906;}
</style>
<g id="New_Symbol_6">
</g>
<g>
	<g>
		<ellipse transform="matrix(0.1208 -0.9927 0.9927 0.1208 -10.5776 21.0483)" class="st0" cx="6.6" cy="16.5" rx="2.8" ry="1.7"/>
		<ellipse transform="matrix(0.4364 -0.8998 0.8998 0.4364 -9.8073 20.0156)" class="st0" cx="11.1" cy="17.8" rx="2.8" ry="1.7"/>
		<ellipse transform="matrix(0.8659 -0.5002 0.5002 0.8659 -8.9848 9.3055)" class="st0" cx="12.9" cy="21.4" rx="1.7" ry="1.1"/>
		<ellipse transform="matrix(0.9201 -0.3917 0.3917 0.9201 -6.8993 2.6553)" class="st0" cx="3.1" cy="18.2" rx="1.1" ry="1.7"/>
		<path class="st0" d="M7.3,20.1c-1.8-0.5-4.5,0.4-6,2.3c-1.6,1.9-1.5,3.4-0.6,4.3c0.9,0.9,3-0.1,4.2,0.7c1.2,0.7,1.7,2.1,3.4,2.3
			c1.7,0.1,2.9-3.8,2.6-5.9C10.4,21.4,9.5,20.7,7.3,20.1z"/>
	</g>
	<g>
		<ellipse transform="matrix(0.1208 -0.9927 0.9927 0.1208 16.7148 24.4986)" class="st0" cx="22.2" cy="2.8" rx="2.8" ry="1.7"/>
		<ellipse transform="matrix(0.4364 -0.8998 0.8998 0.4364 11.2937 26.3345)" class="st0" cx="26.7" cy="4.2" rx="2.8" ry="1.7"/>
		
			<ellipse transform="matrix(0.8659 -0.5002 0.5002 0.8659 -5.048958e-02 15.2707)" class="st0" cx="28.5" cy="7.7" rx="1.7" ry="1.1"/>
		<ellipse transform="matrix(0.9201 -0.3917 0.3917 0.9201 -0.2937 7.6702)" class="st0" cx="18.7" cy="4.6" rx="1.1" ry="1.7"/>
		<path class="st0" d="M22.9,6.4c-1.8-0.5-4.5,0.4-6,2.3c-1.6,1.9-1.5,3.4-0.6,4.3c0.9,0.9,3-0.1,4.2,0.7c1.2,0.7,1.7,2.1,3.4,2.3
			c1.7,0.1,2.9-3.8,2.6-5.9C26,7.7,25.1,7,22.9,6.4z"/>
	</g>
</g>
</svg>
