<?xml version="1.0" encoding="UTF-8"?>
<svg xmlns="http://www.w3.org/2000/svg" version="1.1" viewBox="0 0 30 29.6">
  <defs>
    <style>
      .cls-1 {
        fill: #6a3906;
      }
    </style>
  </defs>
  <!-- Generator: Adobe Illustrator 28.7.5, SVG Export Plug-In . SVG Version: 1.2.0 Build 176)  -->
  <g>
    <g id="Layer_1">
      <g>
        <g>
          <ellipse class="cls-1" cx="6.6" cy="16.5" rx="2.8" ry="1.7" transform="translate(-10.6 21) rotate(-83.1)"/>
          <ellipse class="cls-1" cx="11.1" cy="17.8" rx="2.8" ry="1.7" transform="translate(-9.8 20) rotate(-64.1)"/>
          <ellipse class="cls-1" cx="12.9" cy="21.4" rx="1.7" ry="1.1" transform="translate(-9 9.3) rotate(-30)"/>
          <ellipse class="cls-1" cx="3.1" cy="18.2" rx="1.1" ry="1.7" transform="translate(-6.9 2.7) rotate(-23.1)"/>
          <path class="cls-1" d="M7.3,20.1c-1.8-.5-4.5.4-6,2.3-1.6,1.9-1.5,3.4-.6,4.3.9.9,3-.1,4.2.7,1.2.7,1.7,2.1,3.4,2.3,1.7.1,2.9-3.8,2.6-5.9-.5-2.4-1.4-3.1-3.6-3.7Z"/>
        </g>
        <g>
          <ellipse class="cls-1" cx="22.2" cy="2.8" rx="2.8" ry="1.7" transform="translate(16.7 24.5) rotate(-83.1)"/>
          <ellipse class="cls-1" cx="26.7" cy="4.1" rx="2.8" ry="1.7" transform="translate(11.3 26.4) rotate(-64.1)"/>
          <ellipse class="cls-1" cx="28.5" cy="7.7" rx="1.7" ry="1.1" transform="translate(0 15.3) rotate(-30)"/>
          <ellipse class="cls-1" cx="18.7" cy="4.6" rx="1.1" ry="1.7" transform="translate(-.3 7.7) rotate(-23.1)"/>
          <path class="cls-1" d="M22.9,6.4c-1.8-.5-4.5.4-6,2.3-1.6,1.9-1.5,3.4-.6,4.3s3-.1,4.2.7c1.2.7,1.7,2.1,3.4,2.3,1.7.1,2.9-3.8,2.6-5.9-.5-2.4-1.4-3.1-3.6-3.7Z"/>
        </g>
      </g>
      <g>
        <path class="cls-1" d="M47.3,9.9c.1-.3.4-.7.7-.9.3-.2.7-.4,1.1-.5.2,0,.4,0,.6-.1.2,0,.3,0,.5,0,.3,0,.5-.1.7-.3.2-.1.4-.2.6-.3,0,0,.1,0,.2-.1.4-.2.8-.3,1.2-.3.2,0,.3,0,.5,0,0,0,.2,0,.3,0,0,0,0,0,0,0,.2.1.4.2.5.3.4.3.7.6.8,1.1,0,.2.2.5.2.7,0,0,0,.2,0,.3,0,.2.2.4.3.6.2.2.3.4.5.6,0,0,.1.2.2.2.1.2.2.3.3.5.2.3.2.6.3,1,0,.4,0,.7-.2,1-.1.2-.2.4-.4.6-.2.2-.4.3-.6.4-.2,0-.4,0-.6,0-.4,0-.7-.1-1-.3-.3-.2-.6-.3-.9-.6-.1-.1-.3-.2-.4-.3-.2-.2-.5-.4-.7-.6,0,0-.2-.1-.3-.2,0,0,0,0-.1,0,0,0,0,0,0,0-.2-.1-.5-.1-.7-.1-.3,0-.7,0-1,0-.2,0-.4,0-.6,0-.4,0-.7-.1-1-.2-.3-.1-.5-.3-.7-.5-.1-.1-.2-.3-.3-.5,0-.2-.1-.5-.1-.7,0-.3,0-.5.2-.8Z"/>
        <path class="cls-1" d="M62.2,10c-.2.5-.6,1-1,1.3-.4.2-.8.4-1.2.5-.2,0-.5,0-.7,0-.2,0-.3,0-.5,0-.1,0-.3-.1-.4-.2-.2-.2-.4-.4-.5-.7-.1-.3-.2-.6,0-.9,0-.3.2-.6.4-.8.4-.4.9-.8,1.4-1,.4-.2.8-.2,1.3-.2.1,0,.2,0,.3,0,.1,0,.2,0,.3,0,.1,0,.3.1.4.2,0,0,.2.2.3.3,0,0,0,.1,0,.2,0,.2.1.4,0,.7,0,.2,0,.4-.1.6Z"/>
        <path class="cls-1" d="M49.1,6.6c-.2.4-.5.7-1.1.9-.2,0-.4,0-.6,0-.2,0-.4,0-.6-.2-.2-.1-.4-.3-.6-.5-.3-.3-.5-.6-.7-1-.2-.5-.3-1-.2-1.5,0-.4.2-.8.5-1.1.1-.2.3-.3.5-.4,0,0,0,0,0,0,.2,0,.4,0,.5,0,.2,0,.3.1.5.2,0,0,.1,0,.2.1.3.2.5.3.7.6.4.4.6.9.7,1.5,0,.2,0,.5,0,.8,0,.2,0,.5-.1.7Z"/>
        <path class="cls-1" d="M53.9,4.3c-.1.4-.3.7-.6,1-.1.2-.3.3-.5.4-.1,0-.2,0-.4,0-.2,0-.4,0-.5-.1-.2-.1-.3-.3-.4-.5,0-.2-.1-.4-.2-.5-.1-.5-.1-1,0-1.6,0-.3.1-.7.3-1,.2-.4.4-.7.7-1,.2-.2.4-.3.6-.4.2,0,.3,0,.5,0,.2,0,.4.1.5.3.2.1.3.3.3.5,0,0,0,0,0,0,0,.3,0,.6,0,.9,0,.2,0,.5-.1.7,0,.1,0,.2,0,.4,0,.3-.1.5-.2.8Z"/>
        <path class="cls-1" d="M58.8,4.9c-.1.3-.2.5-.4.8-.3.4-.6.8-1,1.1-.1.1-.3.2-.5.3-.2,0-.4.1-.6,0-.2,0-.4-.1-.6-.3-.1-.2-.2-.4-.2-.6,0-.2,0-.4,0-.6,0-.3.1-.7.3-1,.1-.3.3-.6.4-.8.1-.2.2-.3.3-.5.2-.2.3-.4.5-.6,0,0,0,0,.1-.1,0,0,.1-.1.2-.1.2,0,.4-.1.5-.1.2,0,.4,0,.6.2.2.2.3.4.4.6,0,.3.1.5.1.8,0,.3,0,.6-.2,1Z"/>
      </g>
      <g>
        <path class="cls-1" d="M36.6,23.6c.1-.3.4-.7.7-.9.3-.2.7-.4,1.1-.5.2,0,.4,0,.6-.1.2,0,.3,0,.5,0,.3,0,.5-.1.7-.3.2-.1.4-.2.6-.3,0,0,.1,0,.2-.1.4-.2.8-.3,1.2-.3.2,0,.3,0,.5,0,0,0,.2,0,.3,0,0,0,0,0,0,0,.2.1.4.2.5.3.4.3.7.6.8,1.1,0,.2.2.5.2.7,0,0,0,.2,0,.3,0,.2.2.4.3.6.2.2.3.4.5.6,0,0,.1.2.2.2.1.2.2.3.3.5.2.3.2.6.3,1,0,.4,0,.7-.2,1-.1.2-.2.4-.4.6-.2.2-.4.3-.6.4-.2,0-.4,0-.6,0-.4,0-.7-.1-1-.3-.3-.2-.6-.3-.9-.6-.1-.1-.3-.2-.4-.3-.2-.2-.5-.4-.7-.6,0,0-.2-.1-.3-.2,0,0,0,0-.1,0,0,0,0,0,0,0-.2-.1-.5-.1-.7-.1-.3,0-.7,0-1,0-.2,0-.4,0-.6,0-.4,0-.7-.1-1-.2-.3-.1-.5-.3-.7-.5-.1-.1-.2-.3-.3-.5,0-.2-.1-.5-.1-.7,0-.3,0-.5.2-.8Z"/>
        <path class="cls-1" d="M51.5,23.7c-.2.5-.6,1-1,1.3-.4.2-.8.4-1.2.5-.2,0-.5,0-.7,0-.2,0-.3,0-.5,0-.1,0-.3-.1-.4-.2-.2-.2-.4-.4-.5-.7-.1-.3-.2-.6,0-.9,0-.3.2-.6.4-.8.4-.4.9-.8,1.4-1,.4-.2.8-.2,1.3-.2.1,0,.2,0,.3,0,.1,0,.2,0,.3,0,.1,0,.3.1.4.2,0,0,.2.2.3.3,0,0,0,.1,0,.2,0,.2.1.4,0,.7,0,.2,0,.4-.1.6Z"/>
        <path class="cls-1" d="M38.3,20.3c-.2.4-.5.7-1.1.9-.2,0-.4,0-.6,0-.2,0-.4,0-.6-.2-.2-.1-.4-.3-.6-.5-.3-.3-.5-.6-.7-1-.2-.5-.3-1-.2-1.5,0-.4.2-.8.5-1.1.1-.2.3-.3.5-.4,0,0,0,0,0,0,.2,0,.4,0,.5,0,.2,0,.3.1.5.2,0,0,.1,0,.2.1.3.2.5.3.7.6.4.4.6.9.7,1.5,0,.2,0,.5,0,.8,0,.2,0,.5-.1.7Z"/>
        <path class="cls-1" d="M43.1,18c-.1.4-.3.7-.6,1-.1.2-.3.3-.5.4-.1,0-.2,0-.4,0-.2,0-.4,0-.5-.1-.2-.1-.3-.3-.4-.5,0-.2-.1-.4-.2-.5-.1-.5-.1-1,0-1.6,0-.3.1-.7.3-1,.2-.4.4-.7.7-1,.2-.2.4-.3.6-.4.2,0,.3,0,.5,0,.2,0,.4.1.5.3.2.1.3.3.3.5,0,0,0,0,0,0,0,.3,0,.6,0,.9,0,.2,0,.5-.1.7,0,.1,0,.2,0,.4,0,.3-.1.5-.2.8Z"/>
        <path class="cls-1" d="M48,18.6c-.1.3-.2.5-.4.8-.3.4-.6.8-1,1.1-.1.1-.3.2-.5.3-.2,0-.4.1-.6,0-.2,0-.4-.1-.6-.3-.1-.2-.2-.4-.2-.6,0-.2,0-.4,0-.6,0-.3.1-.7.3-1,.1-.3.3-.6.4-.8.1-.2.2-.3.3-.5.2-.2.3-.4.5-.6,0,0,0,0,.1-.1,0,0,.1-.1.2-.1.2,0,.4-.1.5-.1.2,0,.4,0,.6.2.2.2.3.4.4.6,0,.3.1.5.1.8,0,.3,0,.6-.2,1Z"/>
      </g>
    </g>
  </g>
</svg>