<?xml version="1.0" encoding="utf-8"?>
<!-- Generator: Adobe Illustrator 26.5.3, SVG Export Plug-In . SVG Version: 6.00 Build 0)  -->
<svg version="1.1" id="圖層_1" xmlns="http://www.w3.org/2000/svg" xmlns:xlink="http://www.w3.org/1999/xlink" x="0px" y="0px"
	 viewBox="0 0 282.5 135.7" style="enable-background:new 0 0 282.5 135.7;" xml:space="preserve">
<style type="text/css">
	.st0{fill:#FCC900;}
	.st1{fill:#673A1B;}
</style>
<g>
	<path class="st0" d="M6,116V6h104.3c91.8,0,166.2,27.7,166.2,61.9c0,34.1-74.4,61.8-166.2,61.8c-39.5,0-75.9-5.1-104.4-13.7"/>
	<path class="st1" d="M125.4,130.8c-2.4-2.3-2.6-6.1-0.3-8.5c10.7-11.4,15.1-22,13.1-31.5c-3.4-16.1-24-25.2-24.3-25.3
		c-3.1-1.3-4.5-4.9-3.2-7.9c1.3-3.1,4.8-4.5,7.9-3.2c1.1,0.5,26.7,11.5,31.4,33.8c2.9,13.6-2.5,27.8-16,42.3
		c-1.2,1.3-2.8,1.9-4.4,1.9C128.1,132.4,126.7,131.8,125.4,130.8z"/>
	<path class="st1" d="M192,124.3c-2.4-2.3-2.6-6.1-0.3-8.5c10.7-11.4,15.1-22,13.1-31.5c-3.4-16.1-24-25.2-24.3-25.3
		c-3.1-1.3-4.5-4.9-3.2-7.9c1.3-3.1,4.8-4.5,7.9-3.2c1.1,0.5,26.7,11.5,31.4,33.8c2.9,13.6-2.5,27.8-16,42.3
		c-1.2,1.3-2.8,1.9-4.4,1.9C194.7,125.9,193.2,125.3,192,124.3z"/>
	<path class="st0" d="M0,6c0-3.3,2.7-6,6-6l104.3,0v12H12v104H0L0,6z"/>
	<path class="st1" d="M65.1,132.8c-3.1-1-4.9-4.3-4-7.5c1-3.1,4.3-4.9,7.5-4c5.7,1.7,28.6,2.4,41.7,2.4c43.7,0,84.7-6.3,115.4-17.7
		c28.5-10.6,44.8-24.5,44.8-38.1c0-13.7-16.3-27.6-44.8-38.2C195,18.3,154,12,110.3,12c-3.3,0-6-2.7-6-6s2.7-6,6-6
		c45.1,0,87.6,6.6,119.6,18.5c33.9,12.7,52.6,30.2,52.6,49.4s-18.7,36.7-52.6,49.3c-32,11.9-74.5,18.5-119.6,18.5
		C106.7,135.7,74.4,135.6,65.1,132.8z"/>
</g>
</svg>
