<?xml version="1.0" encoding="utf-8"?>
<!-- Generator: Adobe Illustrator 26.5.3, SVG Export Plug-In . SVG Version: 6.00 Build 0)  -->
<svg version="1.1" id="圖層_1" xmlns="http://www.w3.org/2000/svg" xmlns:xlink="http://www.w3.org/1999/xlink" x="0px" y="0px"
	 viewBox="0 0 282.5 135.7" style="enable-background:new 0 0 282.5 135.7;" xml:space="preserve">
<style type="text/css">
	.st0{fill:none;stroke:#673A1B;stroke-width:12;stroke-linecap:round;stroke-linejoin:round;stroke-miterlimit:10;}
	.st1{fill:none;stroke:#F1C11C;stroke-width:12;stroke-linecap:round;stroke-linejoin:round;stroke-miterlimit:10;}
	.st2{fill:#F1C11C;}
	.st3{fill:#673A1B;}
</style>
<path class="st0" d="M276.5-6.3"/>
<path class="st1" d="M276.6-6.3"/>
<g>
	<path class="st2" d="M276.6,116c-28.5,8.6-64.9,13.7-104.4,13.7C80.4,129.7,6,102,6,67.9C6,33.7,80.4,6,172.2,6h104.3v110"/>
	<path class="st3" d="M152.9,132.4c-1.6,0-3.2-0.6-4.4-1.9c-13.5-14.5-18.9-28.7-16-42.3c4.7-22.3,30.3-33.3,31.4-33.8
		c3.1-1.3,6.6,0.1,7.9,3.2c1.3,3-0.1,6.6-3.2,7.9c-0.3,0.1-20.9,9.2-24.3,25.3c-2,9.5,2.4,20.1,13.1,31.5c2.3,2.4,2.1,6.2-0.3,8.5
		C155.8,131.8,154.4,132.4,152.9,132.4z"/>
	<path class="st3" d="M86.3,125.9c-1.6,0-3.2-0.6-4.4-1.9c-13.5-14.5-18.9-28.7-16-42.3c4.7-22.3,30.3-33.3,31.4-33.8
		c3.1-1.3,6.6,0.1,7.9,3.2c1.3,3-0.1,6.6-3.2,7.9c-0.3,0.1-20.9,9.2-24.3,25.3c-2,9.5,2.4,20.1,13.1,31.5c2.3,2.4,2.1,6.2-0.3,8.5
		C89.3,125.3,87.8,125.9,86.3,125.9z"/>
	<path class="st2" d="M282.5,116h-12V12h-98.3V0h104.3c3.3,0,6,2.7,6,6V116z"/>
	<path class="st3" d="M172.2,135.7c-45.1,0-87.6-6.6-119.6-18.5C18.7,104.6,0,87.1,0,67.9c0-19.2,18.7-36.7,52.6-49.4
		C84.6,6.6,127.1,0,172.2,0c3.3,0,6,2.7,6,6s-2.7,6-6,6c-43.7,0-84.7,6.3-115.4,17.7C28.3,40.3,12,54.2,12,67.9
		c0,13.6,16.3,27.5,44.8,38.1c30.7,11.4,71.7,17.7,115.4,17.7c13.1,0,36-0.7,41.7-2.4c3.2-0.9,6.5,0.9,7.5,4c0.9,3.2-0.9,6.5-4,7.5
		C208.1,135.6,175.8,135.7,172.2,135.7z"/>
</g>
</svg>
