<?xml version="1.0" encoding="utf-8"?>
<!-- Generator: Adobe Illustrator 26.5.3, SVG Export Plug-In . SVG Version: 6.00 Build 0)  -->
<svg version="1.1" id="圖層_1" xmlns="http://www.w3.org/2000/svg" xmlns:xlink="http://www.w3.org/1999/xlink" x="0px" y="0px"
	 viewBox="0 0 1920 652.2" style="enable-background:new 0 0 1920 652.2;" xml:space="preserve">
<style type="text/css">
	.st0{fill:#FCC900;}
	.st1{fill:#E66C22;}
	.st2{fill:#FFFFFF;}
	.st3{fill:#036EB8;}
	.st4{fill:#6A3906;}
	.st5{fill:url(#SVGID_1_);}
	.st6{opacity:0.31;fill:#FFFFFF;}
</style>
<g>
	<g>
		<g>
			<path class="st0" d="M397.4,347.4c-45.1,33.6-77.4,21.4-72.4-35.6c9.3-77.8,29.8-156.8,61.7-234.5C408.5,19.9,503.5-17.1,581.6,8
				c105.6,32.6,200.1,82.8,280,145.1c57.9,47.4,38,76.8-30,71.5C663.3,215.8,511.4,265.4,397.4,347.4z"/>
			<path class="st1" d="M448.4,311.9c-36,21.5-58.4,9.6-49.9-30.7c13-55,31.9-110,56.6-164c17.3-39.8,81.1-62.3,133.2-44.1
				c70.8,24.1,135.7,56.6,193.7,95.6c42.1,29.4,31.1,52.2-17,53.3C646.7,226.5,538.4,259.8,448.4,311.9z"/>
		</g>
		<g>
			<path class="st0" d="M1546.7,347.4c45.1,33.6,77.4,21.4,72.4-35.6c-9.3-77.8-29.8-156.8-61.7-234.5
				c-21.7-57.4-116.8-94.5-194.8-69.4c-105.6,32.6-200.1,82.8-280,145.1c-57.9,47.4-38,76.8,30,71.5
				C1280.8,215.8,1432.7,265.4,1546.7,347.4z"/>
			<path class="st1" d="M1495.7,311.9c36,21.5,58.4,9.6,49.9-30.7c-13-55-31.9-110-56.6-164c-17.3-39.8-81.1-62.3-133.2-44.1
				c-70.7,24.1-135.7,56.6-193.7,95.6c-42.1,29.4-31.1,52.2,17,53.3C1297.4,226.5,1405.7,259.8,1495.7,311.9z"/>
		</g>
	</g>
	<path class="st0" d="M1920,652.2c-188.3-306.8-545.1-532.8-954.4-532.8C548.1,119.4,185.1,335,0,652.2"/>
	<g>
		<path class="st2" d="M1190,375.4c0-101.1,82-183.1,183.1-183.1c101.1,0,183,82,183,183.1c0,101.1-81.9,183.1-183,183.1
			C1272,558.5,1190,476.6,1190,375.4"/>
		<path class="st3" d="M1243.3,375.4c0-68.9,55.9-124.8,124.8-124.8c68.9,0,124.8,55.9,124.8,124.8c0,68.9-55.9,124.8-124.8,124.8
			C1299.2,500.2,1243.3,444.4,1243.3,375.4"/>
		<path class="st2" d="M1258.7,435.2c0-25.5,20.7-46.2,46.2-46.2c25.5,0,46.2,20.7,46.2,46.2c0,25.5-20.7,46.2-46.2,46.2
			C1279.4,481.4,1258.7,460.7,1258.7,435.2"/>
		<path class="st2" d="M1237.3,353.6c0-16.5,13.4-29.8,29.8-29.8c16.5,0,29.8,13.4,29.8,29.8c0,16.5-13.4,29.8-29.8,29.8
			C1250.7,383.4,1237.3,370.1,1237.3,353.6"/>
		<path class="st2" d="M370.3,383.5c0-101.1,82-183.1,183.1-183.1c101.1,0,183,82,183,183.1c0,101.1-81.9,183-183,183
			C452.2,566.5,370.3,484.6,370.3,383.5"/>
		<path class="st3" d="M423.5,383.4c0-68.9,55.9-124.8,124.8-124.8c68.9,0,124.8,55.9,124.8,124.8c0,69-55.9,124.8-124.8,124.8
			C479.4,508.3,423.5,452.4,423.5,383.4"/>
		<path class="st2" d="M439,443.2c0-25.5,20.7-46.2,46.2-46.2c25.5,0,46.2,20.7,46.2,46.2c0,25.5-20.7,46.2-46.2,46.2
			C459.6,489.4,439,468.7,439,443.2"/>
		<path class="st2" d="M417.6,361.6c0-16.5,13.4-29.8,29.8-29.8c16.5,0,29.8,13.4,29.8,29.8c0,16.5-13.4,29.8-29.8,29.8
			C430.9,391.4,417.6,378.1,417.6,361.6"/>
	</g>
	<g>
		<path class="st2" d="M1523.1,446.9c0,0,301.1-58.2,396.9,70.9C1920,517.8,1755.8,406.4,1523.1,446.9z"/>
		<path class="st2" d="M1524.4,465.6c0,0,255.1-39.7,334.9,72.4C1859.3,538,1721.5,438.7,1524.4,465.6z"/>
	</g>
	<g>
		<path class="st2" d="M396.9,446.9c0,0-301.1-58.2-396.9,70.9C0,517.8,164.2,406.4,396.9,446.9z"/>
		<path class="st2" d="M395.6,465.6c0,0-255.1-39.7-334.9,72.4C60.7,538,198.5,438.7,395.6,465.6z"/>
	</g>
	<g>
		<g>
			<path class="st4" d="M901.6,584.7c-2.7,0-5.5-0.1-8.4-0.2c-66.9-3.5-88.8-63.4-89.7-66c-1.9-5.3,0.9-11.1,6.2-12.9
				c5.3-1.9,11,0.9,12.9,6.1c0.8,2.1,18.6,49.7,71.7,52.5c23,1.2,39.1-3.1,50.7-13.5c14.9-13.3,23.6-37.4,26.8-73.4
				c0.5-5.6,5.4-9.7,11-9.2c5.6,0.5,9.7,5.4,9.2,11c-3.6,41.4-14.5,69.8-33.4,86.8C944.2,578.6,926,584.7,901.6,584.7z"/>
			<path class="st4" d="M1050.6,584.7c-24.4,0-42.6-6.1-56.9-18.9c-18.9-16.9-29.8-45.3-33.4-86.8c-0.5-5.6,3.6-10.5,9.2-11
				c5.6-0.5,10.5,3.6,11,9.2c3.1,36.1,11.9,60.1,26.8,73.4c11.6,10.4,27.7,14.7,50.7,13.5c53.1-2.8,71-50.5,71.7-52.5
				c1.9-5.2,7.7-8,12.9-6.1c5.3,1.9,8,7.6,6.1,12.9c-0.9,2.5-22.8,62.5-89.7,66C1056.1,584.6,1053.3,584.7,1050.6,584.7z"/>
		</g>
		
			<linearGradient id="SVGID_1_" gradientUnits="userSpaceOnUse" x1="3986.2266" y1="133.0698" x2="3895.9417" y2="41.2646" gradientTransform="matrix(-0.7071 -0.7071 0.7071 -0.7071 3700.9695 3301.9856)">
			<stop  offset="0" style="stop-color:#C9A063"/>
			<stop  offset="0.2213" style="stop-color:#A6783D"/>
			<stop  offset="0.5221" style="stop-color:#7B4A16"/>
			<stop  offset="0.6667" style="stop-color:#6A3906"/>
			<stop  offset="1" style="stop-color:#40220F"/>
		</linearGradient>
		<path class="st5" d="M1027.8,389.7c71.5,0,89,40.9,39.1,90.8c-50,50-131.7,50-181.7,0c-50-50-32.4-90.8,39.1-90.8H1027.8z"/>
	</g>
	<g>
		<path class="st6" d="M1175.8,205.8c-2.2,8.1-10.7,12.8-19,10.7c-122.8-30.9-251.4-30.9-374.2,0c-8.2,2.1-16.7-2.6-19-10.7
			c-2.1-7.7-4.2-15.4-6.3-23c-2.2-8.1,3.1-16.6,12-18.9c131.5-33.1,269.2-33.1,400.7,0c8.9,2.2,14.2,10.8,12,18.9
			C1180,190.5,1177.9,198.2,1175.8,205.8z"/>
	</g>
</g>
</svg>
