<?xml version="1.0" encoding="UTF-8"?>
<svg xmlns="http://www.w3.org/2000/svg" version="1.1" xmlns:xlink="http://www.w3.org/1999/xlink" viewBox="0 0 800 337.3">
  <defs>
    <style>
      .cls-1 {
        fill: #673a1b;
      }

      .cls-2 {
        isolation: isolate;
        opacity: .3;
      }

      .cls-2, .cls-3 {
        fill: #fff;
      }

      .cls-4 {
        fill: url(#_未命名漸層_2);
      }

      .cls-5 {
        fill: #623a1b;
      }

      .cls-6 {
        fill: #d64c35;
      }

      .cls-7 {
        fill: #eeeeb5;
      }

      .cls-8, .cls-9 {
        fill: #f2c21e;
      }

      .cls-8, .cls-10 {
        stroke: #60391a;
        stroke-miterlimit: 10;
        stroke-width: 2px;
      }

      .cls-11 {
        fill: #0c68ac;
      }

      .cls-12 {
        fill: #db6927;
      }

      .cls-10 {
        fill: none;
      }
    </style>
    <linearGradient id="_未命名漸層_2" data-name="未命名漸層 2" x1="4537.1" y1="670.5" x2="4506.2" y2="701.9" gradientTransform="translate(4088.3 2867.1) rotate(-135) scale(1 -1)" gradientUnits="userSpaceOnUse">
      <stop offset="0" stop-color="#c59d62"/>
      <stop offset=".2" stop-color="#a3763d"/>
      <stop offset=".5" stop-color="#784a21"/>
      <stop offset=".7" stop-color="#673a1b"/>
      <stop offset="1" stop-color="#40220f"/>
    </linearGradient>
  </defs>
  <!-- Generator: Adobe Illustrator 28.7.5, SVG Export Plug-In . SVG Version: 1.2.0 Build 176)  -->
  <g>
    <g id="_圖層_1" data-name="圖層_1">
      <path class="cls-9" d="M0,337.3C0,160.3,179.1,105.8,400,105.8s400,54.5,400,231.5"/>
      <path class="cls-7" d="M25,337.3c0-166,167.9-211.8,375-211.8s375,45.8,375,211.8"/>
      <g>
        <ellipse class="cls-9" cx="400.4" cy="161.3" rx="287.2" ry="119.9"/>
        <path class="cls-6" d="M687.5,175.1c0,66.2-128.6,119.9-287.2,119.9S113.2,241.3,113.2,175.1v-14.6c0,66.2,128.6,119.9,287.2,119.9s287.2-53.7,287.2-119.9v14.6Z"/>
        <g>
          <g>
            <g>
              <path class="cls-9" d="M208,118.8c-15.4,11.5-26.5,7.3-24.8-12.2,3.2-26.6,10.2-53.6,21.1-80.2,7.5-19.6,39.9-32.3,66.6-23.7,36.1,11.1,68.4,28.3,95.7,49.6,19.8,16.2,13,26.3-10.3,24.4-57.5-3-109.5,13.9-148.4,42Z"/>
              <path class="cls-12" d="M225.5,106.7c-12.3,7.4-20,3.3-17.1-10.5,4.4-18.8,10.9-37.6,19.3-56.1,5.9-13.6,27.7-21.3,45.5-15.1,24.2,8.2,46.4,19.3,66.2,32.7,14.4,10.1,10.6,17.8-5.8,18.2-40.4,1.5-77.5,12.9-108.2,30.7Z"/>
            </g>
            <g>
              <path class="cls-9" d="M601,118.8c15.4,11.5,26.5,7.3,24.8-12.2-3.2-26.6-10.2-53.6-21.1-80.2-7.4-19.6-39.9-32.3-66.6-23.7-36.1,11.1-68.4,28.3-95.7,49.6-19.8,16.2-13,26.3,10.3,24.4,57.5-3,109.4,14,148.4,42Z"/>
              <path class="cls-12" d="M583.5,106.7c12.3,7.4,20,3.3,17.1-10.5-4.4-18.8-10.9-37.6-19.3-56.1-5.9-13.6-27.7-21.3-45.5-15.1-24.2,8.2-46.4,19.3-66.2,32.7-14.4,10.1-10.6,17.8,5.8,18.2,40.4,1.5,77.5,12.9,108.2,30.7Z"/>
            </g>
          </g>
          <g>
            <path class="cls-3" d="M479,128.4c0-34.6,28-62.6,62.6-62.6s62.6,28,62.6,62.6-28,62.6-62.6,62.6-62.6-28-62.6-62.6"/>
            <path class="cls-11" d="M497.2,128.4c0-23.6,19.1-42.7,42.7-42.7s42.7,19.1,42.7,42.7-19.1,42.7-42.7,42.7-42.7-19.1-42.7-42.7"/>
            <path class="cls-3" d="M502.5,148.8c0-8.7,7.1-15.8,15.8-15.8s15.8,7.1,15.8,15.8-7.1,15.8-15.8,15.8c-8.7,0-15.8-7.1-15.8-15.8"/>
            <path class="cls-3" d="M495.2,120.9c0-5.6,4.6-10.2,10.2-10.2s10.2,4.6,10.2,10.2-4.6,10.2-10.2,10.2-10.2-4.5-10.2-10.2"/>
            <path class="cls-3" d="M198.8,131.1c0-34.6,28-62.6,62.6-62.6s62.6,28,62.6,62.6-28,62.6-62.6,62.6-62.6-28-62.6-62.6"/>
            <path class="cls-11" d="M217,131.1c0-23.6,19.1-42.7,42.7-42.7s42.7,19.1,42.7,42.7-19.1,42.7-42.7,42.7c-23.6,0-42.7-19.1-42.7-42.7"/>
            <path class="cls-3" d="M222.3,151.5c0-8.7,7.1-15.8,15.8-15.8s15.8,7.1,15.8,15.8-7.1,15.8-15.8,15.8c-8.8,0-15.8-7.1-15.8-15.8"/>
            <path class="cls-3" d="M215,123.6c0-5.6,4.6-10.2,10.2-10.2s10.2,4.6,10.2,10.2-4.6,10.2-10.2,10.2-10.2-4.5-10.2-10.2"/>
          </g>
          <g>
            <path class="cls-3" d="M592.9,152.8s102.9-19.9,135.7,24.2c0,0-56.1-38.1-135.7-24.2Z"/>
            <path class="cls-3" d="M593.3,159.2s87.2-13.6,114.5,24.8c0,0-47.1-33.9-114.5-24.8Z"/>
          </g>
          <g>
            <path class="cls-3" d="M207.9,152.8s-102.9-19.9-135.7,24.2c0,0,56.1-38.1,135.7-24.2Z"/>
            <path class="cls-3" d="M207.4,159.2s-87.2-13.6-114.5,24.8c0,0,47.1-33.9,114.5-24.8Z"/>
          </g>
          <g>
            <g>
              <path class="cls-1" d="M380.4,199.9c-.9,0-1.9,0-2.9,0-22.9-1.2-30.4-21.7-30.7-22.6-.6-1.8.3-3.8,2.1-4.4,1.8-.6,3.8.3,4.4,2.1.3.7,6.4,17,24.5,17.9,7.9.4,13.4-1.1,17.3-4.6,5.1-4.5,8.1-12.8,9.2-25.1.2-1.9,1.8-3.3,3.8-3.1s3.3,1.8,3.1,3.8c-1.2,14.2-5,23.9-11.4,29.7-4.9,4.3-11.1,6.4-19.5,6.4Z"/>
              <path class="cls-1" d="M431.4,199.9c-8.3,0-14.6-2.1-19.5-6.5-6.5-5.8-10.2-15.5-11.4-29.7-.2-1.9,1.2-3.6,3.1-3.8,1.9-.2,3.6,1.2,3.8,3.1,1.1,12.3,4.1,20.5,9.2,25.1,4,3.6,9.5,5,17.3,4.6,18.2-1,24.3-17.3,24.5-17.9.6-1.8,2.6-2.7,4.4-2.1,1.8.6,2.7,2.6,2.1,4.4-.3.9-7.8,21.4-30.7,22.6-1,0-1.9.1-2.9.1Z"/>
            </g>
            <path class="cls-4" d="M423.6,133.3c24.4,0,30.4,14,13.4,31-17.1,17.1-45,17.1-62.1,0s-11.1-31,13.4-31h35.4Z"/>
          </g>
          <path class="cls-2" d="M474.2,70.4c-.8,2.8-3.7,4.4-6.5,3.7-42-10.6-85.9-10.6-127.9,0-2.8.7-5.7-.9-6.5-3.7-.7-2.6-1.4-5.3-2.2-7.9-.8-2.8,1.1-5.7,4.1-6.5,45-11.3,92-11.3,137,0,3,.8,4.9,3.7,4.1,6.5-.7,2.6-1.4,5.3-2.1,7.9Z"/>
        </g>
        <circle class="cls-8" cx="405.9" cy="299.1" r="27"/>
        <circle class="cls-5" cx="405.9" cy="313.5" r="5.2"/>
        <rect class="cls-5" x="405.2" y="317.7" width="1.4" height="8.1"/>
        <path class="cls-10" d="M430.9,289.6c0,3.9-8.5,12-25,12s-25-8.1-25-12"/>
      </g>
    </g>
  </g>
</svg>