<?xml version="1.0" encoding="utf-8"?>
<!-- Generator: Adobe Illustrator 26.2.1, SVG Export Plug-In . SVG Version: 6.00 Build 0)  -->
<svg version="1.1" id="圖層_1" xmlns="http://www.w3.org/2000/svg" xmlns:xlink="http://www.w3.org/1999/xlink" x="0px" y="0px"
	 viewBox="0 0 150 150" style="enable-background:new 0 0 150 150;" xml:space="preserve">
<style type="text/css">
	.st0{fill:#FFFFFF;}
	.st1{fill:#FFFFFF;stroke:#E80000;stroke-width:6;stroke-miterlimit:10;}
</style>
<g>
	<g>
		<path class="st0" d="M136.8,125.9H13.2c-7.3,0-13.2-5.9-13.2-13.2V37.4c0-7.3,5.9-13.2,13.2-13.2h123.5c7.3,0,13.2,5.9,13.2,13.2
			v75.3C150,119.9,144.1,125.9,136.8,125.9z M13.2,30.4c-3.9,0-7,3.1-7,7v75.3c0,3.9,3.1,7,7,7h123.5c3.9,0,7-3.1,7-7V37.4
			c0-3.9-3.1-7-7-7H13.2z"/>
	</g>
	<g>
		<path class="st0" d="M75,98.9c-6.5,0-13-2.5-18-7.4l-55-55l4.4-4.4l55,55c7.5,7.5,19.7,7.5,27.2,0l54.3-54.3l4.4,4.4L93,91.5
			C88,96.4,81.5,98.9,75,98.9z"/>
	</g>
	<g>
		<path class="st1" d="M145.1,121"/>
	</g>
	<g>
		
			<rect x="0.1" y="101.6" transform="matrix(0.8662 -0.4997 0.4997 0.8662 -48.1199 29.7008)" class="st0" width="62.7" height="6.2"/>
	</g>
	<g>
		
			<rect x="114.5" y="73.2" transform="matrix(0.503 -0.8643 0.8643 0.503 -32.3439 153.8395)" class="st0" width="6.2" height="63.6"/>
	</g>
	<g>
		<path class="st1" d="M4.3,120.4"/>
	</g>
</g>
</svg>
