<?xml version="1.0" encoding="utf-8"?>
<!-- Generator: Adobe Illustrator 26.2.1, SVG Export Plug-In . SVG Version: 6.00 Build 0)  -->
<svg version="1.1" xmlns="http://www.w3.org/2000/svg" xmlns:xlink="http://www.w3.org/1999/xlink" x="0px" y="0px"
	 viewBox="0 0 150 150" style="enable-background:new 0 0 150 150;" xml:space="preserve">
<style type="text/css">
	.st0{enable-background:new    ;}
	.st1{clip-path:url(#SVGID_00000013157222101452224000000000588049357261845682_);fill:#415AAB;}
	.st2{fill:#54D680;}
	.st3{fill:#F4F8FB;}
	.st4{clip-path:url(#SVGID_00000000906916026289474970000008640159540832668347_);}
	.st5{fill:#FEDECE;}
	.st6{fill:#FEC8C1;}
	.st7{fill:#FEFEFE;}
	.st8{fill:#FEECE4;}
	.st9{fill:#FEC8BF;}
	.st10{fill:#FECAC2;}
	.st11{fill:#FEC9C2;}
	.st12{fill:#FEEDE4;}
	.st13{fill:#FEEBE3;}
	.st14{fill:#FF2D35;}
	.st15{fill:#FF6466;}
	.st16{clip-path:url(#SVGID_00000055665942470223596830000004192618915173640854_);fill:#FD2D35;}
	.st17{clip-path:url(#SVGID_00000055665942470223596830000004192618915173640854_);fill:#FE6365;}
</style>
<g id="圖層_8">
</g>
<g id="報名成功_00000032645841101224679750000002614416141885091239_">
	<g id="報名成功_00000060738403145142588310000002134319845556478091_">
		<g id="组_23_00000089541355049521451870000013590973212592346007_">
			<g id="椭圆_24__x2B__矩形_54__x2B__矩形_54_拷贝_00000124155943258053593820000009353818087726140546_" class="st0">
			</g>
			<g id="圖層_7">
			</g>
			<g>
				<g>
					<defs>
						<circle id="SVGID_1_" cx="68.3" cy="75" r="68.3"/>
					</defs>
					<clipPath id="SVGID_00000102541365065767071150000006963462612231432582_">
						<use xlink:href="#SVGID_1_"  style="overflow:visible;"/>
					</clipPath>
					
						<rect x="-0.1" y="1.6" style="clip-path:url(#SVGID_00000102541365065767071150000006963462612231432582_);fill:#415AAB;" width="150.5" height="150.5"/>
				</g>
				<g id="椭圆_25">
					<g>
						<ellipse class="st2" cx="124.9" cy="102.4" rx="25.1" ry="25.3"/>
					</g>
				</g>
				<g id="圆角矩形_29_拷贝">
					<g>
						<path class="st3" d="M141.9,89.6c-1.4-1.2-3.4-1-4.6,0.4l-16.1,19.3l-7.6-7.2c-1.2-1.4-3.3-1.5-4.6-0.3
							c-1.3,1.2-1.5,3.3-0.3,4.7l9.3,8.8c0.5,0.5,1,0.9,1.7,1c1.4,1.1,3.4,0.9,4.5-0.5l18-21.7C143.4,92.9,143.2,90.8,141.9,89.6z"
							/>
					</g>
				</g>
			</g>
			
				<g id="形状_164__x2B__形状_170__x2B__形状_171__x2B__形状_172__x2B__形状_173__x2B__形状_174__x2B__形状_175__x2B__形状_165__x2B__形状_166__x2B__形状_167__x2B__形状_168__x2B__形状_169_00000134227476661697141460000013879104255307267491_" class="st0">
				<defs>
					<path id="SVGID_00000036253139770991919460000000156679909385599886_" class="st0" d="M96,26.7c-3.4-0.8-8.6-1.5-10.5,5.9
						c-1.9,7.3-1.1,16.2-2.3,16.5c-1.3,0.2-2-15.2-2.3-20c-0.3-4.8-0.7-15-7-11.8c-6.3,3.3-4.9,9-4.7,12.9c0.2,4,1.2,16.5,1.2,16.5
						S68,37,66.8,32.5C65.6,28,64,9.2,56.3,14.9c-7.7,5.7-4,13.2-3.5,16.5c0.5,3.3,4.8,19.8,3.5,20c-1.3,0.2-5.7-7.6-18.7-5.9
						c-7.8,1-12.9,6.5-14,9.4c-1.2,2.9,0.9,9,7,7.1c6.1-2,11.1-6.9,15.2-2.4c3.6,4,4.8,22.7-3.5,21.2c-8.3-1.5-9.6-7.7-9.4-10.6
						c0.2-2.9-5.1-7.6-9.4-3.5c0,0-4.7,5.3-1.2,14.1c3.5,8.8,12.9,11.5,15.2,12.9c2.3,1.4,9.4,2.4,9.4,16.5H82V94.9
						c0,0,0.5-9.1,3.5-12.9c3.4-4.3,8.4-20.2,9.4-23.5C95.8,55.1,98.5,27.2,96,26.7z"/>
				</defs>
				<clipPath id="SVGID_00000145031128822646485900000010815407731118686398_">
					<use xlink:href="#SVGID_00000036253139770991919460000000156679909385599886_"  style="overflow:visible;"/>
				</clipPath>
				<g style="clip-path:url(#SVGID_00000145031128822646485900000010815407731118686398_);">
					<path class="st5" d="M97.8,34.5c0,24.9,0,49.7,0,74.6c-11.6,1.4-23.2,0.3-34.9,0.6c-2.2,0.1-4.5,0-6.7,0c-3.4-0.1-3.8-3-4-5.3
						c-0.7-8.8-5.5-13.9-13.6-16.9c-6-2.2-11.1-6.3-11.6-13.7c1.4-4.7,0.4-8-5.1-8.6c-0.2-1.7-0.1-3.5-0.1-5.2
						c2.9-2.5,7.5-3.1,8.5-7.7c3.3-4.3,7.2-7.5,10.9-7.8c-4.8-0.3-10.8,1.7-15.3,7.2c-1.6,0.5-3.4,1.5-4.1-1.2
						c0.3-12.4-0.8-24.9,0.6-37.2c9.9,0,19.8,0,29.7,0c-1.4,11.9,2.1,23,5.8,34.1c1.3-5.8-0.4-11.4-0.9-17.1
						c-0.3-3.1-1.1-6.1,0.4-9.1c4.2-0.9,4.7-4.7,5.8-7.9c10,0,20,0.3,29.9-0.1c4.5-0.2,5.4,1.3,4.8,5.2c-0.3,2-0.1,4.1-0.1,6.1
						c-1.2,1.2-2.7,1.5-4.3,1.3c-2.3-0.9-3.7-0.3-4.8,2.1c-2.8,6.3-4.8,12.7-3.5,19.1c0-5.9,1.3-12.2,3.8-18.2
						c0.5-1.2,1.2-2.2,2.7-2C93.8,29.3,94.9,32.6,97.8,34.5z"/>
					<path class="st6" d="M58.3,20.8c-0.5,8.9,3,17.4,2.4,26.3c-0.1,1.8,0.7,4.3-1.5,4.9c-2.5,0.7-3.5-2-4-3.8
						c-2.3-9.3-5.6-18.5-5.8-28.3c-0.1-2.6,0.4-4.9,2.5-6.6c1.7,0,3.3,0,5,0C58.9,15.5,60.2,17.9,58.3,20.8z"/>
					<path class="st7" d="M22.4,59.4c0,2,0,4.1,0,6.1c2.4,2.1,2.1,4.8,1.9,7.5c0.2,3.7,0.7,7.4,0.3,11.2c-0.5,6,0.4,11.9,0.2,17.9
						c-0.1,3.1,1.4,4.6,4.5,4.5c5.5-0.1,11.1,0.4,16.6,0.3c3.1-0.2,6.1-0.3,8.6,2c14.5,0,28.9,0.1,43.4,0.1c0.4,2-1.1,1.2-1.9,1.2
						c-23.9,0-47.9,0-71.8,0c-1.6,0-3.2,0.6-3.2-2.5c0.2-31.1,0.1-62.2,0.1-93.2c0-1.1,0.2-1.5,1.3-1.2c0,12.8,0,25.7,0.1,38.5
						C24.7,54.3,24.7,56.9,22.4,59.4z"/>
					<path class="st8" d="M92.9,24.5c1.6,0,3.3,0,4.9,0c0,3.3,0,6.6,0,9.9c-5.9,0.8-6.6-3-6.2-7.5C91.1,25.6,91.8,25,92.9,24.5z"/>
					<path class="st8" d="M58.3,20.8c-0.5-2.5-1.6-4.8-1.3-7.4c2.1,0,4.1,0,6.2,0c0.2,2.7,2.7,5.5,0.2,8.1
						C61.9,22.8,59.9,21.6,58.3,20.8z"/>
					<path class="st9" d="M22.4,84.2c0-3.7,0-7.4,0-11.2c2.1-1.7,4.1-1.3,6.2,0c0.5,7.4,5.6,11.4,11.6,13
						c12.2,3.4,14.1,12.4,14.4,22.9c-2.9,0-5.7,0-8.6,0C36.4,102.2,27.5,95,22.4,84.2z"/>
					<path class="st6" d="M42.2,68.6c0-1.6-0.1-3.3,0-4.9c0.1-2.4-0.7-5.3,2.3-6.4c3.3-1.2,5.8,1,7.3,3.3c3.4,5,3.7,10.9,2.2,16.6
						c-0.7,2.9-3.7,4.6-6.8,4.2c-3.1-0.4-5.2-2.3-5-5.9C42.3,73.2,42.2,70.9,42.2,68.6z"/>
					<path class="st10" d="M73.1,25.7c0,7.5,0,14.9,0,22.4c-0.6,0-1.3,0-1.9,0c-1.3-7.9-3.7-15.7-2.9-23.8c0.3-3.4,0-8.3,6.1-7.3
						C75.3,20.1,75.7,23.1,73.1,25.7z"/>
					<path class="st10" d="M92.9,24.5c-0.4,0.8-0.9,1.6-1.3,2.5c-4.1,7.7-3.4,16.7-6.5,25.1c-3.9-9.8-2-18.4,3-26.6
						C90,22.5,90.4,22.4,92.9,24.5z"/>
					<path class="st11" d="M26.1,50.6c3.3-7.2,7-8.6,19-6.7c-5.3,2.8-10.1,5.4-14.1,9.2C28.4,54,26.9,53,26.1,50.6z"/>
					<path class="st8" d="M73.1,25.7c0.4-2.9-1.1-6,1.2-8.7c2.8-1.6,5-1.5,6.4,1.8c1.1,2.5,2.1,5.4-0.1,7.5
						C78.4,28.6,75.5,27.9,73.1,25.7z"/>
					<path class="st12" d="M26.1,50.6c1.6,0.9,3.3,1.7,4.9,2.6c-0.7,5.1-2.6,8.5-8.6,6.3c0-2.5,0-5.1,0-7.6
						C23.6,51.4,24.9,51,26.1,50.6z"/>
					<path class="st13" d="M28.5,73c-2.1,1.5-4.1,0.2-6.2,0c0-2.5,0-5,0-7.5c1.9-0.6,3.4-3.8,5.7-1.4C30.6,66.7,30.1,69.9,28.5,73z"
						/>
					<path class="st5" d="M22.4,84.2c7.8,8.3,15.6,16.5,23.5,24.8c-6.4,0-12.8,0-19.2,0.1c-3.2,0.1-4.5-1.2-4.4-4.4
						C22.5,97.9,22.4,91,22.4,84.2z"/>
				</g>
			</g>
			<g id="圆角矩形_28_00000164483649363311269750000013418083977819446963_">
				<g>
					<path class="st14" d="M80.2,106.7H49.9c-6.2,0-11.2,5-11.2,11.2c0,6.2,5,11.2,11.2,11.2h30.3c6.2,0,11.2-5,11.2-11.2
						C91.4,111.7,86.4,106.7,80.2,106.7z"/>
				</g>
			</g>
			<g id="圆角矩形_28_拷贝_00000143595509445584814210000014945752047714228893_">
				<g>
					<path class="st15" d="M80.2,106.7H58.1c-6.2,0-11.2,5-11.2,11.2c0,6.2,5,11.2,11.2,11.2h22.1c6.2,0,11.2-5,11.2-11.2
						C91.4,111.7,86.4,106.7,80.2,106.7z"/>
				</g>
			</g>
		</g>
	</g>
</g>
<g id="圖層_9">
	<g>
		<defs>
			<circle id="SVGID_00000161627089136438356820000009921066332641611164_" cx="68.2" cy="75.1" r="68.3"/>
		</defs>
		<clipPath id="SVGID_00000028319119396891554470000006146084695242420905_">
			<use xlink:href="#SVGID_00000161627089136438356820000009921066332641611164_"  style="overflow:visible;"/>
		</clipPath>
		<path style="clip-path:url(#SVGID_00000028319119396891554470000006146084695242420905_);fill:#FD2D35;" d="M43.8,152
			c-0.1-9,0-18-0.3-26.9c-0.1-3.7,1.5-4.6,4.8-4.5c10.6,0.2,21.3,0.4,31.9-0.1c5.3-0.2,7.2,1.6,6.4,6.7c-0.3,2.1-0.2,4.2-0.2,6.2
			c-1.9,2.4-4.5,2.7-7.3,2.8c-4.2,0.1-8.4-0.1-12.6,0.1c-6.6,0.4-8.6,2.1-9.5,8.5c-0.4,2.8-0.8,5.4-3.2,7.2
			C50.5,152,47.1,152,43.8,152z"/>
		<path style="clip-path:url(#SVGID_00000028319119396891554470000006146084695242420905_);fill:#FE6365;" d="M53.9,152
			c0-4.2,0.2-8.3,0-12.5c-0.2-4.7,2-6.3,6.4-6.2c8.7,0.1,17.5,0.1,26.2,0.1c0.1,6.2,0.1,12.4,0.2,18.6C75.7,152,64.8,152,53.9,152z"
			/>
	</g>
</g>
<g id="圖層_6">
	<defs>
		<ellipse id="SVGID_00000114067850908852698930000017397999312585689523_" cx="237.9" cy="27.3" rx="57.9" ry="58.2"/>
	</defs>
	<clipPath id="SVGID_00000129905341575471077470000009416206803037535162_">
		<use xlink:href="#SVGID_00000114067850908852698930000017397999312585689523_"  style="overflow:visible;"/>
	</clipPath>
</g>
</svg>
