<?xml version="1.0" encoding="utf-8"?>
<!-- Generator: Adobe Illustrator 26.3.1, SVG Export Plug-In . SVG Version: 6.00 Build 0)  -->
<svg version="1.1" id="圖層_1" xmlns="http://www.w3.org/2000/svg" xmlns:xlink="http://www.w3.org/1999/xlink" x="0px" y="0px"
	 viewBox="0 0 80 69" style="enable-background:new 0 0 80 69;" xml:space="preserve">
<style type="text/css">
	.st0{fill:#446EF6;}
	.st1{fill:#E88382;}
	.st2{fill:#E85D5B;}
	.st3{fill:#CE4F4E;}
	.st4{fill:#5B5959;}
	.st5{fill:#252321;}
	.st6{fill:#EABE2C;}
	.st7{fill:#E4E67D;}
	.st8{fill:#E99821;}
	.st9{fill:#F2D775;}
</style>
<g>
	<g>
		<g id="椭圆_35">
			<g>
				<ellipse class="st0" cx="40.1" cy="34.5" rx="34.5" ry="34.5"/>
			</g>
		</g>
		<g id="椭圆_23_拷贝">
			<g>
				<ellipse class="st1" cx="39.9" cy="34.7" rx="26.8" ry="26.8"/>
			</g>
		</g>
		<g id="椭圆_23">
			<g>
				<ellipse class="st2" cx="40.1" cy="34.6" rx="24.6" ry="24.6"/>
			</g>
		</g>
		<g id="椭圆_23_拷贝_3">
			<g>
				<ellipse class="st3" cx="40.1" cy="34.5" rx="17.5" ry="17.5"/>
			</g>
		</g>
		<g id="矩形_36">
			<g>
				<rect x="32.3" y="46.4" class="st4" width="14.7" height="2"/>
			</g>
		</g>
		<g id="矩形_36_拷贝">
			<g>
				<rect x="33.6" y="46" class="st5" width="11.7" height="0.3"/>
			</g>
		</g>
		<g id="椭圆_25">
			<g>
				<path class="st3" d="M44.6,35c-0.4,0-0.8-0.1-1-0.3c-0.9-0.9-0.2-3.7,2.1-6.2c1.6-1.7,3.6-2.8,5-2.8c0.4,0,0.8,0.1,1,0.3
					c0.9,0.9,0.2,3.7-2.1,6.2C48.1,33.9,46.1,35,44.6,35L44.6,35z"/>
			</g>
			<g>
				<path class="st6" d="M50.8,26.7c0.2,0,0.3,0,0.3,0.1c0.2,0.2,0.1,2.4-2.2,4.8c-1.6,1.7-3.4,2.5-4.3,2.5c-0.2,0-0.3,0-0.3-0.1
					c-0.2-0.2-0.1-2.4,2.2-4.8C48.1,27.5,49.8,26.7,50.8,26.7 M50.8,24.7c-1.7,0-3.9,1.1-5.8,3.1c-2.6,2.8-3.6,6.2-2.1,7.6
					c0.4,0.4,1,0.6,1.7,0.6c1.7,0,3.9-1.1,5.8-3.1c2.6-2.8,3.6-6.2,2.1-7.6C52,24.9,51.5,24.7,50.8,24.7L50.8,24.7z"/>
			</g>
		</g>
		<g id="椭圆_25_拷贝">
			<g>
				<path class="st3" d="M34.9,35c-1.4,0-3.4-1.1-5-2.8c-2.3-2.5-3-5.3-2.1-6.2c0.2-0.2,0.6-0.3,1-0.3c1.4,0,3.4,1.1,5,2.8
					c2.3,2.5,3,5.3,2.1,6.2C35.6,34.9,35.3,35,34.9,35L34.9,35z"/>
			</g>
			<g>
				<path class="st6" d="M28.7,26.7c0.9,0,2.7,0.8,4.3,2.5c2.3,2.4,2.4,4.6,2.2,4.8c0,0-0.1,0.1-0.3,0.1c-0.9,0-2.7-0.8-4.3-2.5
					c-2.3-2.4-2.4-4.6-2.2-4.8C28.4,26.7,28.5,26.7,28.7,26.7 M28.7,24.7c-0.7,0-1.3,0.2-1.7,0.6c-1.5,1.4-0.6,4.8,2.1,7.6
					c1.9,2,4.1,3.1,5.8,3.1c0.7,0,1.3-0.2,1.7-0.6c1.5-1.4,0.6-4.8-2.1-7.6C32.6,25.8,30.4,24.7,28.7,24.7L28.7,24.7z"/>
			</g>
		</g>
		<g id="椭圆_24">
			<g>
				<path class="st7" d="M31.3,24c-0.3,5.9,3,16.3,8.7,16c6.2,0.2,8.7-10.1,8.7-16C42.1,24,37.6,23.9,31.3,24z"/>
			</g>
		</g>
		<g id="椭圆_24_拷贝_2">
			<g>
				<path class="st8" d="M38.6,24c6.2,6.4-4.4,16.3,1.3,16c6.2,0.2,8.7-10.1,8.7-16C42.1,24,44.9,23.9,38.6,24z"/>
			</g>
		</g>
		<g id="形状_148">
			<g>
				<path class="st6" d="M40.3,39.7H39c0,3.4-5.3,6.3-5.3,6.3h12C41.2,44.2,40.3,39.7,40.3,39.7z"/>
			</g>
		</g>
		<g id="椭圆_24_拷贝">
			<g>
				<path class="st6" d="M33.3,24.1C33,29.9,35.6,40.3,39.9,40c4.8,0.2,6.7-10.1,6.7-15.9C41.6,24,38.1,24,33.3,24.1z"/>
			</g>
		</g>
	</g>
	<g>
		<g id="星">
			<g>
				<polygon class="st9" points="27.3,22.8 24.1,22.3 22.2,19.2 20.6,22.6 17.3,22.8 19.7,25 19.5,28.6 22.3,26.8 25.4,28.6 
					25,25.2 				"/>
			</g>
		</g>
		<g id="多边形_3_拷贝">
			<g>
				<polygon class="st9" points="47,14.6 46.6,11.5 44.2,13.6 41.5,12.7 42.7,15.3 41.3,18 44.1,17.5 46,19.9 46.8,17.1 49.4,16 
									"/>
			</g>
		</g>
		<g id="多边形_3_拷贝_2">
			<g>
				<polygon class="st9" points="72.3,42.7 73.1,39.7 70.1,40.8 67.9,38.9 68,41.7 65.7,43.8 68.6,44.4 69.3,47.3 71.1,45 74,45 
									"/>
			</g>
		</g>
		<g id="多边形_3_拷贝_3">
			<g>
				<polygon class="st9" points="72.5,27.9 73.2,25.3 70.6,26.2 68.8,24.7 68.9,27 67,28.7 69.4,29.2 70,31.7 71.6,29.8 74,29.7 
									"/>
			</g>
		</g>
		<g id="多边形_3_拷贝_11">
			<g>
				<polygon class="st9" points="66,10.9 66.4,9.1 64.6,9.8 63.3,8.7 63.4,10.3 62,11.6 63.7,11.9 64.2,13.7 65.3,12.3 67,12.3 				
					"/>
			</g>
		</g>
		<g id="多边形_3_拷贝_12">
			<g>
				<polygon class="st9" points="7.6,21.2 8.1,19.4 6.3,20 5,18.9 5.1,20.6 3.7,21.8 5.4,22.2 5.8,23.9 6.9,22.5 8.7,22.5 				"/>
			</g>
		</g>
		<g id="多边形_3_拷贝_13">
			<g>
				<polygon class="st9" points="19.2,18.8 19.4,18.1 18.7,18.3 18.2,17.9 18.2,18.6 17.7,19.1 18.3,19.2 18.5,19.9 19,19.4 
					19.7,19.3 				"/>
			</g>
		</g>
		<g id="多边形_3_拷贝_14">
			<g>
				<polygon class="st9" points="11.2,16.1 11.4,15.4 10.7,15.7 10.2,15.2 10.2,15.9 9.7,16.4 10.3,16.5 10.5,17.2 11,16.7 
					11.7,16.7 				"/>
			</g>
		</g>
		<g id="多边形_3_拷贝_15">
			<g>
				<polygon class="st9" points="40.3,20.5 40.4,19.8 39.7,20 39.2,19.6 39.2,20.2 38.7,20.7 39.3,20.9 39.5,21.6 40,21 40.7,21 
									"/>
			</g>
		</g>
		<g id="多边形_3_拷贝_16">
			<g>
				<polygon class="st9" points="31.9,18.5 32.1,17.8 31.4,18 30.9,17.6 30.9,18.2 30.3,18.7 31,18.9 31.2,19.6 31.6,19 32.3,19 
									"/>
			</g>
		</g>
		<g id="多边形_3_拷贝_17">
			<g>
				<polygon class="st9" points="51.3,8.2 51.4,7.5 50.7,7.8 50.2,7.3 50.2,8 49.7,8.5 50.3,8.6 50.5,9.3 51,8.8 51.7,8.8 				"/>
			</g>
		</g>
		<g id="多边形_3_拷贝_18">
			<g>
				<polygon class="st9" points="65.6,39.3 65.8,38.5 65,38.8 64.5,38.4 64.6,39 64,39.5 64.7,39.7 64.9,40.4 65.3,39.8 66,39.8 
									"/>
			</g>
		</g>
		<g id="多边形_3_拷贝_19">
			<g>
				<polygon class="st9" points="1.6,43.5 1.8,42.8 1,43 0.5,42.6 0.6,43.2 0,43.7 0.7,43.9 0.9,44.6 1.3,44 2,44 				"/>
			</g>
		</g>
		<g id="多边形_3_拷贝_4">
			<g>
				<polygon class="st9" points="14.8,43.8 15.3,41.8 13.3,42.5 11.8,41.2 11.9,43.1 10.3,44.5 12.3,44.9 12.8,46.9 14,45.4 
					16,45.3 				"/>
			</g>
		</g>
		<g id="多边形_3_拷贝_5">
			<g>
				<polygon class="st9" points="15.8,28.1 16.3,26.1 14.3,26.8 12.8,25.6 12.9,27.5 11.3,28.8 13.3,29.3 13.8,31.2 15,29.7 
					17,29.7 				"/>
			</g>
		</g>
		<g id="多边形_3_拷贝_6">
			<g>
				<polygon class="st9" points="27.4,11.7 27.8,10 26.1,10.6 24.9,9.6 25,11.1 23.7,12.3 25.3,12.6 25.7,14.2 26.7,13 28.3,12.9 
									"/>
			</g>
		</g>
		<g id="多边形_3_拷贝_7">
			<g>
				<polygon class="st9" points="38.4,11.7 38.8,10 37.1,10.6 35.9,9.6 36,11.1 34.7,12.3 36.3,12.6 36.7,14.2 37.7,13 39.3,12.9 
									"/>
			</g>
		</g>
		<g id="多边形_3_拷贝_8">
			<g>
				<polygon class="st9" points="44.8,3.1 43,2.8 42.4,1.3 41.8,2.7 40.1,3.1 41.3,4.2 41,5.8 42.5,5.2 43.9,5.9 43.6,4.3 				"/>
			</g>
		</g>
		<g id="多边形_3_拷贝_9">
			<g>
				<polygon class="st9" points="63.8,25.5 62,25.2 61.4,23.8 60.8,25.2 59.1,25.6 60.3,26.6 60,28.3 61.5,27.6 62.9,28.3 
					62.6,26.8 				"/>
			</g>
		</g>
		<g id="多边形_3_拷贝_10">
			<g>
				<polygon class="st9" points="76.7,13.4 75.2,13.2 74.7,12 74.1,13.1 72.7,13.5 73.7,14.3 73.4,15.6 74.7,15.1 75.9,15.7 
					75.7,14.4 				"/>
			</g>
		</g>
		<g id="多边形_3_拷贝_20">
			<g>
				<polygon class="st9" points="80,37.1 78.5,36.9 78,35.7 77.4,36.8 76,37.1 77.1,38 76.7,39.3 78,38.8 79.2,39.4 79,38.1 				"/>
			</g>
		</g>
	</g>
</g>
</svg>
