<?xml version="1.0" encoding="UTF-8"?>
<svg xmlns="http://www.w3.org/2000/svg" version="1.1" xmlns:xlink="http://www.w3.org/1999/xlink" viewBox="0 0 300 300">
  <defs>
    <style>
      .cls-1 {
        fill: #00a63c;
      }

      .cls-2 {
        fill: #fff;
      }

      .cls-3 {
        fill: url(#New_Gradient_Swatch_3);
      }

      .cls-4 {
        fill: #d5e9cd;
      }

      .cls-5 {
        clip-path: url(#clippath);
      }
    </style>
    <linearGradient id="New_Gradient_Swatch_3" data-name="New Gradient Swatch 3" x1="20.6" y1="150.4" x2="280.4" y2="150.4" gradientUnits="userSpaceOnUse">
      <stop offset="0" stop-color="#9cc527"/>
      <stop offset="1" stop-color="#009a46"/>
    </linearGradient>
    <clipPath id="clippath">
      <polygon class="cls-3" points="280.4 225.4 280.4 75.4 150.5 .4 20.6 75.4 20.6 225.4 150.5 300.4 280.4 225.4"/>
    </clipPath>
  </defs>
  <!-- Generator: Adobe Illustrator 28.7.10, SVG Export Plug-In . SVG Version: 1.2.0 Build 236)  -->
  <g>
    <g id="_圖層_1" data-name="圖層_1">
      <g>
        <g>
          <polygon class="cls-3" points="280.4 225.4 280.4 75.4 150.5 .4 20.6 75.4 20.6 225.4 150.5 300.4 280.4 225.4"/>
          <g class="cls-5">
            <rect class="cls-3" x="20.6" y=".4" width="259.8" height="300"/>
          </g>
        </g>
        <polygon class="cls-4" points="243.3 204 243.3 96.8 150.5 43.2 57.7 96.8 57.7 204 150.5 257.5 243.3 204"/>
        <path class="cls-1" d="M167.1,130.5v-35.2h-12.3v-10.7s-40.3,6.2-54.3,11.2v76h66.6v-41.4Z"/>
        <rect class="cls-2" x="105.7" y="100.2" width="56" height="66.6"/>
        <path class="cls-1" d="M185.3,148.8v-35.2h-12.3v-10.7s-40.3,6.2-54.3,11.2v76h66.6v-41.4Z"/>
        <rect class="cls-4" x="123.9" y="118.4" width="56" height="66.6"/>
        <path class="cls-1" d="M204.8,168.3v-35.2h-12.3v-10.7s-40.3,6.2-54.3,11.2v76h66.6v-41.4Z"/>
        <rect class="cls-2" x="143.4" y="137.9" width="56" height="66.6"/>
      </g>
    </g>
  </g>
</svg>