<?xml version="1.0" encoding="UTF-8"?>
<svg xmlns="http://www.w3.org/2000/svg" version="1.1" xmlns:xlink="http://www.w3.org/1999/xlink" viewBox="0 0 300 300">
  <defs>
    <style>
      .cls-1 {
        fill: #fff;
      }

      .cls-2 {
        fill: url(#_未命名漸層);
      }

      .cls-3 {
        fill: url(#_未命名漸層_2);
      }

      .cls-4 {
        fill: none;
      }

      .cls-5 {
        fill: #f29600;
      }

      .cls-6 {
        fill: #fce6c5;
      }

      .cls-7 {
        fill: #fffbd0;
      }

      .cls-8 {
        clip-path: url(#clippath);
      }
    </style>
    <linearGradient id="_未命名漸層" data-name="未命名漸層" x1="20.1" y1="149.9" x2="279.9" y2="149.9" gradientTransform="translate(0 299.9) scale(1 -1)" gradientUnits="userSpaceOnUse">
      <stop offset="0" stop-color="#fad500"/>
      <stop offset="1" stop-color="#e77423"/>
    </linearGradient>
    <clipPath id="clippath">
      <polygon class="cls-4" points="279.9 225 279.9 75 150 0 20.1 75 20.1 225 150 300 279.9 225"/>
    </clipPath>
    <linearGradient id="_未命名漸層_2" data-name="未命名漸層 2" x1="-243.7" y1="173.5" x2="-240.3" y2="173.5" gradientTransform="translate(18350.3 -12899.7) scale(75.2)" gradientUnits="userSpaceOnUse">
      <stop offset="0" stop-color="#fad500"/>
      <stop offset="1" stop-color="#e77423"/>
    </linearGradient>
  </defs>
  <!-- Generator: Adobe Illustrator 28.7.10, SVG Export Plug-In . SVG Version: 1.2.0 Build 236)  -->
  <g>
    <g id="_圖層_1" data-name="圖層_1">
      <g id="_圖層_1-2" data-name="_圖層_1">
        <g>
          <g>
            <polygon class="cls-2" points="279.9 225 279.9 75 150 0 20.1 75 20.1 225 150 300 279.9 225"/>
            <g class="cls-8">
              <rect class="cls-3" x="20.1" y="0" width="259.8" height="300"/>
            </g>
          </g>
          <polygon class="cls-7" points="242.8 203.6 242.8 96.4 150 42.9 57.2 96.4 57.2 203.6 150 257.1 242.8 203.6"/>
          <path class="cls-5" d="M92.5,106.3s29.5-3.6,52.1,10.1h7.5s27.6-11.1,53.1-10v79.1s-34.7-2.3-55.6,14.4c0,0-22.6-14.7-56.4-14.4l-.7-79.1h0Z"/>
          <path class="cls-1" d="M99.1,113.5s29.9-1.1,44.4,12l.2,62.9s-32.5-13.4-44.6-8.3c0,0,0-66.6,0-66.6Z"/>
          <path class="cls-6" d="M199.6,114.3s-31.1-1.1-46.1,12v60.9s33.6-14.9,46.1-9.8v-63.1Z"/>
          <g>
            <path class="cls-1" d="M189,188.5c-10.3,0-18.6-8.3-18.6-18.6s8.3-18.6,18.6-18.6,18.6,8.3,18.6,18.6-8.3,18.6-18.6,18.6"/>
            <g>
              <path class="cls-5" d="M214.3,190l-8.8-8.8c-1.3,2-3,3.8-5.1,5.1l8.8,8.8c1.4,1.4,3.7,1.4,5.1,0,1.4-1.4,1.4-3.7,0-5.1"/>
              <path class="cls-5" d="M213.9,169.9c0-13.7-11.1-24.8-24.8-24.8s-24.8,11.1-24.8,24.8,11.1,24.8,24.8,24.8,24.8-11.1,24.8-24.8M189.1,188.5c-10.3,0-18.6-8.3-18.6-18.6s8.3-18.6,18.6-18.6,18.6,8.3,18.6,18.6-8.3,18.6-18.6,18.6"/>
              <path class="cls-5" d="M174.2,166.2h3.2c0-4.4,3.6-8,8-8v-3.2c-6.1,0-11.2,5-11.2,11.2"/>
            </g>
          </g>
          <polygon class="cls-5" points="179.8 174.5 187 181.7 199.5 169.1 199.5 162.7 186.4 175.8 180.1 169.5 179.8 174.5"/>
        </g>
      </g>
    </g>
  </g>
</svg>