<?xml version="1.0" encoding="UTF-8"?>
<svg xmlns="http://www.w3.org/2000/svg" version="1.1" xmlns:xlink="http://www.w3.org/1999/xlink" viewBox="0 0 300 300">
  <defs>
    <style>
      .cls-1 {
        fill: #00748c;
      }

      .cls-2 {
        fill: #fff;
      }

      .cls-3 {
        fill: none;
      }

      .cls-4 {
        isolation: isolate;
      }

      .cls-5 {
        fill: #00aacd;
      }

      .cls-6 {
        opacity: .8;
      }

      .cls-6, .cls-7 {
        mix-blend-mode: multiply;
      }

      .cls-7 {
        opacity: .3;
      }

      .cls-8 {
        fill: #c6e6eb;
      }
    </style>
  </defs>
  <!-- Generator: Adobe Illustrator 28.7.10, SVG Export Plug-In . SVG Version: 1.2.0 Build 236)  -->
  <g class="cls-4">
    <g id="_圖層_1" data-name="圖層_1">
      <g>
        <g class="cls-6">
          <g>
            <g>
              <image width="337" height="337" transform="translate(0 0) scale(.9)" xlink:href="chart_icon_one-1.png"/>
              <rect class="cls-3" y="0" width="300" height="300"/>
            </g>
            <rect class="cls-3" y="0" width="300" height="300"/>
          </g>
        </g>
        <path class="cls-8" d="M284.3,145.9c0,76.2-61.7,137.9-137.9,137.9S8.5,222.1,8.5,145.9,70.2,8,146.4,8s137.9,61.7,137.9,137.9"/>
        <path class="cls-5" d="M263.9,145.9c0,64.9-52.6,117.6-117.5,117.6S28.8,210.8,28.8,145.9,81.5,28.4,146.4,28.4s117.5,52.6,117.5,117.6"/>
        <g class="cls-7">
          <g>
            <path class="cls-1" d="M146.4,246.3c-62,0-112.7-48.1-117.1-109-.2,2.8-.4,5.7-.4,8.6,0,64.9,52.6,117.6,117.6,117.6s117.6-52.6,117.6-117.6-.2-5.7-.4-8.6c-4.4,60.9-55.1,109-117.1,109"/>
            <rect class="cls-3" x="28.8" y="137.3" width="235.1" height="126.1"/>
          </g>
        </g>
        <g>
          <g>
            <path class="cls-2" d="M174.3,100.3h-58.3c-3.9,0-7.1,3.2-7.1,7.1v75.8c0,3.9,3.2,7.1,7.1,7.1h58.3c3.9,0,7.1-3.2,7.1-7.1v-75.8c0-3.9-3.2-7.1-7.1-7.1ZM116,105.7h58.3c.9,0,1.7.8,1.7,1.7v13.7h-61.8v-13.7c0-.9.8-1.7,1.7-1.7ZM174.3,185h-58.3c-1,0-1.7-.8-1.7-1.7v-58.6h61.8v58.6c0,1-.8,1.7-1.7,1.7Z"/>
            <path class="cls-2" d="M127.9,133.4h-6.8c-1,0-1.8.8-1.8,1.8v5.6c0,1,.8,1.8,1.8,1.8h6.8c1,0,1.8-.8,1.8-1.8v-5.6c0-1-.8-1.8-1.8-1.8Z"/>
            <path class="cls-2" d="M127.9,150.1h-6.8c-1,0-1.8.8-1.8,1.8v5.6c0,1,.8,1.8,1.8,1.8h6.8c1,0,1.8-.8,1.8-1.8v-5.6c0-1-.8-1.8-1.8-1.8Z"/>
            <path class="cls-2" d="M127.9,166.9h-6.8c-1,0-1.8.8-1.8,1.8v5.6c0,1,.8,1.8,1.8,1.8h6.8c1,0,1.8-.8,1.8-1.8v-5.6c0-1-.8-1.8-1.8-1.8Z"/>
            <path class="cls-2" d="M170.8,139.1h-36.1c-1,0-1.8.8-1.8,1.8s.8,1.8,1.8,1.8h36.1c1,0,1.8-.8,1.8-1.8s-.8-1.8-1.8-1.8Z"/>
            <path class="cls-2" d="M170.8,154.7h-36.1c-1,0-1.8.8-1.8,1.8s.8,1.8,1.8,1.8h36.1c1,0,1.8-.8,1.8-1.8s-.8-1.8-1.8-1.8Z"/>
            <path class="cls-2" d="M170.8,172h-36.1c-1,0-1.8.8-1.8,1.8s.8,1.8,1.8,1.8h36.1c1,0,1.8-.8,1.8-1.8s-.8-1.8-1.8-1.8Z"/>
          </g>
          <g>
            <polygon class="cls-2" points="189.4 140.9 199.9 149.3 195.3 154.2 185.7 146.5 189.4 140.9"/>
            <polygon class="cls-2" points="191.2 138.7 201.7 147.1 218.8 122.9 211 116.7 191.2 138.7"/>
            <path class="cls-2" d="M169.9,173.5c-.2.5,2,2.3,2.5,2,7.5-5.3,13.5-6.9,13.5-6.9l7.6-12.2-4.3-3.4-1-.8-4.3-3.4-10.2,10.1s-.2,6.2-3.8,14.7"/>
          </g>
        </g>
        <path class="cls-2" d="M144.6,247.1c-2,0-4.1,0-6.1-.2l.3-4.7c4.7.3,9.5.2,14.2-.2l.4,4.7c-2.9.3-5.9.4-8.8.4ZM128.6,245.9c-4.9-.8-9.8-1.9-14.5-3.4l1.4-4.5c4.5,1.4,9.2,2.5,13.8,3.3l-.7,4.7ZM163.3,245.4l-.9-4.7c4.7-.9,9.3-2.1,13.7-3.7l1.6,4.5c-4.7,1.6-9.5,2.9-14.4,3.8ZM104.8,239c-4.6-2-9-4.3-13.2-6.9l2.5-4c4,2.5,8.3,4.7,12.6,6.6l-1.9,4.4ZM186.9,237.8l-2-4.3c4.3-2,8.5-4.3,12.4-6.9l2.6,4c-4.1,2.7-8.5,5.2-13,7.3ZM83.4,226.4c-3.9-3-7.7-6.4-11.1-9.9l3.4-3.3c3.3,3.4,6.9,6.6,10.6,9.5l-2.9,3.8ZM208,224.7l-3-3.7c3.7-3,7.2-6.3,10.3-9.7l3.5,3.2c-3.4,3.7-7,7.1-10.9,10.2ZM65.7,209c-3.1-3.9-5.9-8-8.4-12.3l4.1-2.4c2.4,4.1,5,8.1,8,11.8l-3.7,2.9ZM225.2,206.8l-3.8-2.8c2.8-3.8,5.4-7.8,7.7-12l4.2,2.3c-2.4,4.4-5.1,8.6-8,12.6ZM52.8,187.8c-2-4.5-3.7-9.2-5.1-14l4.6-1.3c1.3,4.6,2.9,9.1,4.9,13.4l-4.3,1.9ZM237.5,185.3l-4.4-1.8c1.8-4.4,3.3-8.9,4.5-13.5l4.6,1.2c-1.2,4.8-2.8,9.6-4.7,14.2ZM45.5,164.1c-.9-4.9-1.4-9.9-1.5-14.8h4.7c.1,4.6.6,9.4,1.4,14l-4.7.8ZM244.2,161.4l-4.7-.7c.7-4.6,1-9.4,1-14.2s-.2-6.7-.5-10l4.7-.5c.4,3.4.5,7,.5,10.5,0,5-.4,10-1.1,14.9ZM48.9,139.6l-4.7-.3c.4-5,1.1-9.9,2.2-14.8l4.6,1c-1,4.6-1.7,9.3-2.1,14.1ZM238.6,127.1c-.9-4.6-2.2-9.2-3.9-13.7l4.5-1.6c1.7,4.7,3.1,9.5,4.1,14.4l-4.7.9ZM53.5,116.4l-4.5-1.5c1.5-4.7,3.5-9.3,5.7-13.8l4.2,2.1c-2.1,4.2-4,8.7-5.4,13.1ZM231,104.8c-2.1-4.3-4.5-8.4-7.1-12.3l3.9-2.7c2.8,4.1,5.3,8.4,7.5,12.9l-4.3,2.1ZM63.7,95l-4-2.5c2.7-4.2,5.7-8.2,8.9-12l3.6,3.1c-3.1,3.6-6,7.4-8.5,11.4ZM218.2,84.9c-3-3.6-6.4-7.1-9.9-10.2l3.2-3.5c3.7,3.3,7.2,6.9,10.4,10.7l-3.6,3.1ZM78.7,76.8l-3.3-3.4c3.6-3.4,7.5-6.6,11.6-9.4l2.7,3.9c-3.9,2.7-7.6,5.7-11,9ZM200.9,68.8c-3.8-2.8-7.9-5.3-12.1-7.5l2.2-4.2c4.4,2.3,8.7,4.9,12.7,7.8l-2.8,3.8ZM97.8,62.8l-2.3-4.1c4.3-2.4,8.9-4.6,13.5-6.3l1.7,4.4c-4.4,1.7-8.7,3.7-12.9,6ZM180.1,57.4c-4.4-1.8-9-3.2-13.6-4.3l1.1-4.6c4.8,1.1,9.6,2.6,14.2,4.5l-1.8,4.4ZM119.6,53.9l-1.2-4.6c4.8-1.3,9.7-2.2,14.6-2.8l.5,4.7c-4.7.5-9.4,1.4-14,2.7ZM157.2,51.4c-4.2-.5-8.4-.8-12.6-.8h-1.6s0-4.7,0-4.7h1.6c4.4,0,8.9.3,13.2.9l-.6,4.7Z"/>
      </g>
    </g>
  </g>
</svg>