<?xml version="1.0" encoding="UTF-8"?>
<svg xmlns="http://www.w3.org/2000/svg" version="1.1" xmlns:xlink="http://www.w3.org/1999/xlink" viewBox="0 0 300 300">
  <defs>
    <style>
      .cls-1 {
        fill: #fff;
      }

      .cls-2 {
        fill: none;
      }

      .cls-3 {
        isolation: isolate;
      }

      .cls-4 {
        opacity: .8;
      }

      .cls-4, .cls-5 {
        mix-blend-mode: multiply;
      }

      .cls-6 {
        fill: #ed8819;
      }

      .cls-7 {
        fill: #e50012;
      }

      .cls-8 {
        fill: #f9cb87;
      }

      .cls-5 {
        opacity: .3;
      }
    </style>
  </defs>
  <!-- Generator: Adobe Illustrator 28.7.10, SVG Export Plug-In . SVG Version: 1.2.0 Build 236)  -->
  <g class="cls-3">
    <g id="_圖層_1" data-name="圖層_1">
      <g>
        <g class="cls-4">
          <g>
            <g>
              <image width="337" height="337" transform="translate(.5 .4) scale(.9)" xlink:href="chart_icon_two-1.png"/>
              <rect class="cls-2" x=".5" y=".4" width="300" height="300"/>
            </g>
            <rect class="cls-2" x=".5" y=".4" width="300" height="300"/>
          </g>
        </g>
        <path class="cls-8" d="M284.8,146.7c0,76.2-61.7,137.9-137.9,137.9S9,222.8,9,146.7,70.7,8.8,146.9,8.8s137.9,61.7,137.9,137.9"/>
        <path class="cls-6" d="M264.4,146.7c0,64.9-52.6,117.6-117.5,117.6S29.3,211.6,29.3,146.7,82,29.1,146.9,29.1s117.5,52.6,117.5,117.6"/>
        <g class="cls-5">
          <g>
            <path class="cls-7" d="M146.9,247.1c-62,0-112.7-48.1-117.1-109-.2,2.8-.4,5.7-.4,8.6,0,64.9,52.6,117.6,117.6,117.6s117.6-52.6,117.6-117.6-.2-5.7-.4-8.6c-4.4,60.9-55.1,109-117.1,109"/>
            <rect class="cls-2" x="29.3" y="138.1" width="235.1" height="126.1"/>
          </g>
        </g>
        <g>
          <path class="cls-1" d="M147.4,105.2c22.3,0,40.4,18.1,40.4,40.4s-18.1,40.4-40.4,40.4-40.4-18.1-40.4-40.4,18.1-40.4,40.4-40.4M147.4,95.2c-27.9,0-50.4,22.6-50.4,50.4s22.6,50.4,50.4,50.4,50.4-22.6,50.4-50.4-22.6-50.4-50.4-50.4"/>
          <path class="cls-1" d="M160.4,165.3c-1.3,0-2.6-.5-3.5-1.5l-14.5-14.5v-39.6c0-2.8,2.3-5,5-5s5,2.2,5,5v35.4l11.6,11.6c2,2,2,5.1,0,7.1-1,1-2.3,1.5-3.5,1.5"/>
        </g>
        <path class="cls-1" d="M145.1,248.9c-2,0-4.1,0-6.1-.2l.3-4.7c4.7.3,9.5.2,14.2-.2l.4,4.7c-2.9.3-5.9.4-8.8.4ZM129.1,247.6c-4.9-.8-9.8-1.9-14.5-3.4l1.4-4.5c4.5,1.4,9.1,2.5,13.8,3.3l-.7,4.7ZM163.8,247.1l-.9-4.7c4.7-.9,9.3-2.1,13.7-3.7l1.6,4.5c-4.7,1.6-9.5,2.9-14.4,3.8ZM105.3,240.7c-4.6-2-9-4.3-13.2-6.9l2.5-4c4,2.5,8.3,4.7,12.6,6.6l-1.9,4.4ZM187.4,239.6l-2-4.3c4.3-2,8.5-4.3,12.4-6.9l2.6,4c-4.1,2.7-8.5,5.2-13,7.3ZM83.9,228.1c-3.9-3-7.7-6.4-11.1-9.9l3.4-3.3c3.3,3.4,6.9,6.6,10.6,9.5l-2.9,3.8ZM208.5,226.4l-3-3.7c3.7-3,7.2-6.3,10.3-9.7l3.5,3.2c-3.4,3.7-7,7.1-10.9,10.2ZM66.2,210.7c-3.1-3.9-5.9-8-8.4-12.3l4.1-2.4c2.4,4.1,5,8.1,8,11.8l-3.7,2.9ZM225.7,208.5l-3.8-2.8c2.8-3.8,5.4-7.8,7.7-12l4.2,2.3c-2.4,4.4-5.1,8.6-8,12.6ZM53.3,189.5c-2-4.5-3.7-9.2-5.1-14l4.6-1.3c1.3,4.6,2.9,9.1,4.9,13.4l-4.3,1.9ZM238,187l-4.4-1.8c1.8-4.4,3.3-8.9,4.5-13.5l4.6,1.2c-1.2,4.8-2.8,9.6-4.7,14.2ZM46,165.8c-.9-4.9-1.4-9.9-1.5-14.8h4.7c.1,4.6.6,9.4,1.4,14l-4.7.8ZM244.7,163.1l-4.7-.7c.7-4.6,1-9.4,1-14.2s-.2-6.7-.5-10l4.7-.5c.4,3.4.5,7,.5,10.5,0,5-.4,10-1.1,14.9ZM49.4,141.3l-4.7-.3c.4-5,1.1-9.9,2.2-14.8l4.6,1c-1,4.6-1.7,9.3-2,14.1ZM239.1,128.9c-.9-4.6-2.2-9.2-3.9-13.7l4.5-1.6c1.7,4.7,3.1,9.5,4.1,14.4l-4.7.9ZM54,118.1l-4.5-1.5c1.6-4.7,3.5-9.3,5.7-13.8l4.2,2.1c-2.1,4.2-4,8.7-5.4,13.1ZM231.5,106.5c-2.1-4.3-4.5-8.4-7.1-12.3l3.9-2.7c2.8,4.1,5.3,8.4,7.5,12.9l-4.3,2.1ZM64.2,96.8l-4-2.5c2.7-4.2,5.7-8.2,8.9-12l3.6,3.1c-3.1,3.6-6,7.4-8.5,11.4ZM218.7,86.6c-3-3.6-6.4-7.1-9.9-10.2l3.2-3.5c3.7,3.3,7.2,6.9,10.4,10.7l-3.6,3ZM79.2,78.5l-3.3-3.4c3.6-3.4,7.5-6.6,11.6-9.4l2.7,3.9c-3.9,2.7-7.6,5.7-11,9ZM201.4,70.5c-3.8-2.8-7.9-5.3-12.1-7.5l2.2-4.2c4.4,2.3,8.7,4.9,12.7,7.8l-2.8,3.8ZM98.3,64.5l-2.3-4.1c4.3-2.4,8.9-4.6,13.5-6.3l1.7,4.4c-4.4,1.7-8.7,3.7-12.9,6ZM180.6,59.1c-4.4-1.8-9-3.2-13.6-4.3l1.1-4.6c4.8,1.1,9.6,2.6,14.2,4.5l-1.8,4.4ZM120.1,55.6l-1.2-4.6c4.8-1.3,9.7-2.2,14.6-2.8l.5,4.7c-4.7.5-9.4,1.4-14,2.7ZM157.7,53.1c-4.2-.5-8.4-.8-12.6-.8h-1.6s0-4.7,0-4.7h1.6c4.4,0,8.9.3,13.2.9l-.6,4.7Z"/>
      </g>
    </g>
  </g>
</svg>