<?xml version="1.0" encoding="UTF-8"?>
<svg xmlns="http://www.w3.org/2000/svg" version="1.1" xmlns:xlink="http://www.w3.org/1999/xlink" viewBox="0 0 300 300">
  <defs>
    <style>
      .cls-1 {
        fill: #fff;
      }

      .cls-2 {
        fill: none;
      }

      .cls-3 {
        fill: #91308c;
      }

      .cls-4 {
        isolation: isolate;
      }

      .cls-5 {
        fill: #f3d0e0;
      }

      .cls-6 {
        opacity: .8;
      }

      .cls-6, .cls-7 {
        mix-blend-mode: multiply;
      }

      .cls-8 {
        fill: #e46286;
      }

      .cls-7 {
        opacity: .3;
      }
    </style>
  </defs>
  <!-- Generator: Adobe Illustrator 28.7.10, SVG Export Plug-In . SVG Version: 1.2.0 Build 236)  -->
  <g class="cls-4">
    <g id="_圖層_1" data-name="圖層_1">
      <g>
        <g class="cls-6">
          <g>
            <g>
              <image width="337" height="337" transform="translate(.5 .4) scale(.9)" xlink:href="chart_icon_five-1.png"/>
              <rect class="cls-2" x=".5" y=".4" width="300" height="300"/>
            </g>
            <rect class="cls-2" x=".5" y=".4" width="300" height="300"/>
          </g>
        </g>
        <path class="cls-5" d="M284.8,146.7c0,76.2-61.7,137.9-137.9,137.9S9,222.8,9,146.7,70.7,8.8,146.9,8.8s137.9,61.7,137.9,137.9"/>
        <path class="cls-8" d="M264.4,146.7c0,64.9-52.6,117.5-117.5,117.5S29.3,211.6,29.3,146.7,82,29.1,146.9,29.1s117.5,52.6,117.5,117.6"/>
        <g class="cls-7">
          <g>
            <path class="cls-3" d="M146.9,247.1c-62,0-112.7-48.1-117.1-109-.2,2.8-.4,5.7-.4,8.6,0,64.9,52.6,117.5,117.6,117.5s117.6-52.6,117.6-117.5-.2-5.7-.4-8.6c-4.4,60.9-55.1,109-117.1,109"/>
            <rect class="cls-2" x="29.3" y="138.1" width="235.1" height="126.1"/>
          </g>
        </g>
        <g>
          <g>
            <path class="cls-1" d="M114.3,145.9h15.5c1.2,0,2.2,1,2.2,2.2v44.2c0,1.2-1,2.2-2.2,2.2h-15.5c-1.2,0-2.2-1-2.2-2.2v-44.2c0-1.2,1-2.2,2.2-2.2Z"/>
            <path class="cls-1" d="M154.6,133h-15.5c-1.2,0-2.2,1-2.2,2.2v57.1c0,1.2,1,2.2,2.2,2.2h15.5c1.2,0,2.2-1,2.2-2.2v-57.1c0-1.2-1-2.2-2.2-2.2Z"/>
            <path class="cls-1" d="M179.3,123.4h-15.5c-1.2,0-2.2,1-2.2,2.2v66.6c0,1.2,1,2.2,2.2,2.2h15.5c1.2,0,2.2-1,2.2-2.2v-66.6c0-1.2-1-2.2-2.2-2.2Z"/>
          </g>
          <path class="cls-1" d="M189.5,87.5l-20,3.9,4.5,5.6-24.5,20.1-33.9,9.8-35.7,44.8c-1,1.2-.8,3,.4,3.9.5.4,1.1.6,1.7.6s1.6-.4,2.2-1.1l34.6-43.4,33.3-9.7,25.3-20.8,4,4.9,8-18.8Z"/>
        </g>
        <path class="cls-1" d="M145.2,247.5c-2,0-4.2,0-6.2-.2l.3-4.7c2,.1,4.1.2,5.9.2,2.7,0,5.5-.1,8.3-.4l.4,4.7c-2.9.3-5.8.4-8.7.4ZM129.1,246.3c-4.9-.8-9.8-1.9-14.5-3.4l1.4-4.5c4.5,1.4,9.2,2.5,13.8,3.3l-.7,4.7ZM163.8,245.8l-.9-4.7c4.6-.9,9.3-2.1,13.7-3.6l1.6,4.5c-4.7,1.6-9.5,2.9-14.4,3.8ZM105.3,239.3c-4.5-2-9-4.3-13.2-6.9l2.5-4c4,2.5,8.3,4.7,12.6,6.6l-1.9,4.4ZM187.4,238.2l-2-4.3c4.3-2,8.5-4.3,12.4-6.9l2.6,4c-4.1,2.7-8.5,5.2-13,7.3ZM83.9,226.8c-3.9-3-7.7-6.4-11.1-9.9l3.4-3.3c3.3,3.4,6.9,6.6,10.6,9.5l-2.9,3.8ZM208.5,225.1l-3-3.7c3.7-3,7.2-6.3,10.4-9.7l3.5,3.2c-3.3,3.7-7,7.1-10.9,10.2ZM66.2,209.4c-3.1-3.9-5.9-8-8.4-12.3l4.1-2.4c2.4,4.1,5,8.1,8,11.8l-3.7,2.9ZM225.7,207.2l-3.8-2.8c2.8-3.8,5.4-7.8,7.7-12l4.2,2.3c-2.4,4.4-5.1,8.6-8,12.6ZM53.3,188.2c-2-4.5-3.7-9.2-5.1-14l4.6-1.3c1.3,4.6,2.9,9.1,4.9,13.4l-4.3,1.9ZM238,185.7l-4.4-1.8c1.8-4.4,3.3-8.9,4.5-13.5l4.6,1.2c-1.2,4.8-2.8,9.6-4.7,14.2ZM46,164.5c-.9-4.9-1.4-9.9-1.5-14.8h4.7c.1,4.6.6,9.4,1.4,14l-4.7.8ZM244.7,161.8l-4.7-.7c.7-4.7,1-9.4,1-14.2s-.2-6.7-.5-10l4.7-.5c.4,3.4.5,7,.5,10.5,0,5-.4,10-1.1,14.9ZM49.4,140l-4.7-.3c.4-5,1.1-9.9,2.2-14.8l4.6,1c-1,4.6-1.7,9.3-2,14.1ZM239.1,127.5c-1-4.6-2.3-9.2-3.9-13.7l4.5-1.6c1.7,4.6,3.1,9.5,4.1,14.3l-4.6,1ZM54,116.8l-4.5-1.5c1.6-4.7,3.5-9.3,5.7-13.8l4.2,2.1c-2.1,4.2-4,8.7-5.4,13.1ZM231.5,105.1c-2.1-4.3-4.5-8.4-7.1-12.3l3.9-2.7c2.8,4.1,5.3,8.4,7.5,12.9l-4.3,2.1ZM64.2,95.4l-4-2.5c2.7-4.2,5.7-8.2,8.9-12l3.6,3.1c-3.1,3.6-6,7.4-8.5,11.4ZM218.7,85.3c-3-3.6-6.4-7.1-9.9-10.2l3.1-3.5c3.7,3.3,7.2,6.9,10.4,10.7l-3.6,3ZM79.2,77.2l-3.3-3.4c3.6-3.4,7.5-6.6,11.6-9.4l2.7,3.9c-3.9,2.7-7.6,5.7-11,9ZM201.4,69.2c-3.8-2.8-7.9-5.3-12.1-7.5l2.2-4.2c4.4,2.3,8.7,4.9,12.7,7.8l-2.8,3.8ZM98.3,63.2l-2.3-4.1c4.3-2.4,8.9-4.5,13.5-6.3l1.7,4.4c-4.4,1.7-8.7,3.7-12.9,6ZM180.6,57.7c-4.4-1.7-9-3.2-13.6-4.3l1.1-4.6c4.8,1.1,9.6,2.6,14.2,4.5l-1.8,4.4ZM120.1,54.2l-1.2-4.6c4.8-1.3,9.7-2.2,14.6-2.8l.5,4.7c-4.7.5-9.4,1.4-14,2.7ZM157.7,51.8c-4.1-.5-8.4-.8-12.6-.8h-1.6s0-4.7,0-4.7h1.6c4.4,0,8.9.3,13.3.9l-.6,4.7Z"/>
      </g>
    </g>
  </g>
</svg>