<?xml version="1.0" encoding="UTF-8"?>
<svg xmlns="http://www.w3.org/2000/svg" version="1.1" xmlns:xlink="http://www.w3.org/1999/xlink" viewBox="0 0 300 300">
  <defs>
    <style>
      .cls-1 {
        fill: #00a63c;
      }

      .cls-2 {
        fill: #fff;
      }

      .cls-3 {
        fill: #d1e177;
      }

      .cls-4 {
        fill: none;
      }

      .cls-5 {
        fill: #95ba1e;
      }

      .cls-6 {
        isolation: isolate;
      }

      .cls-7 {
        opacity: .8;
      }

      .cls-7, .cls-8 {
        mix-blend-mode: multiply;
      }

      .cls-8 {
        opacity: .3;
      }
    </style>
  </defs>
  <!-- Generator: Adobe Illustrator 28.7.10, SVG Export Plug-In . SVG Version: 1.2.0 Build 236)  -->
  <g class="cls-6">
    <g id="_圖層_1" data-name="圖層_1">
      <g>
        <g class="cls-7">
          <g>
            <g>
              <image width="337" height="337" transform="translate(.5 .4) scale(.9)" xlink:href="chart_icon_four-1.png"/>
              <rect class="cls-4" x=".5" y=".4" width="300" height="300"/>
            </g>
            <rect class="cls-4" x=".5" y=".4" width="300" height="300"/>
          </g>
        </g>
        <path class="cls-3" d="M284.8,146.3c0,76.2-61.7,137.9-137.9,137.9S9,222.5,9,146.3,70.7,8.4,146.9,8.4s137.9,61.7,137.9,137.9"/>
        <path class="cls-5" d="M264.4,146.3c0,64.9-52.6,117.5-117.5,117.5S29.3,211.2,29.3,146.3,82,28.8,146.9,28.8s117.5,52.6,117.5,117.6"/>
        <g class="cls-8">
          <g>
            <path class="cls-1" d="M146.9,246.7c-62,0-112.7-48.1-117.1-109-.2,2.8-.4,5.7-.4,8.6,0,64.9,52.6,117.5,117.6,117.5s117.6-52.6,117.6-117.5-.2-5.7-.4-8.6c-4.4,60.9-55.1,109-117.1,109"/>
            <rect class="cls-4" x="29.3" y="137.7" width="235.1" height="126.1"/>
          </g>
        </g>
        <g>
          <polygon class="cls-2" points="159.2 194.2 143.1 194.2 138.2 188.4 164.1 188.4 159.2 194.2"/>
          <path class="cls-2" d="M148.6,172h3.3c0,0-3.3,0-3.3,0h0ZM150.3,129.4c-3.2,0-5.8,2.6-5.8,5.8s3,7.7,5.6,11.9h.3c2.6-4.2,5.6-9.8,5.6-11.9,0-3.2-2.6-5.8-5.8-5.8ZM177.9,123.9c-7-17.7-26.8-16.3-26.8-16.3,0,0-19.8-1.4-26.8,16.3-6.3,16,12.8,31.7,13.7,37.1.9,5.3.3,11,.3,11h10.3v-21c-1.7-2.7-7.4-11.6-7.4-15.8s4.1-9.1,9.1-9.1,9.1,4.1,9.1,9.1-5.7,13.1-7.4,15.8v21h12s-.6-5.6.3-11c.9-5.3,20.1-21.1,13.7-37.1Z"/>
          <rect class="cls-2" x="138.3" y="177" width="25.6" height="6.2"/>
          <path class="cls-2" d="M151.1,102.6c-1.2,0-2.2-.9-2.2-2v-13.8c0-1.1,1-2,2.2-2s2.2.9,2.2,2v13.8c0,1.1-1,2-2.2,2"/>
          <path class="cls-2" d="M136.4,106.7c-.7,0-1.3-.3-1.8-.8l-7.5-9.1c-.7-.9-.5-2.2.4-2.8,1-.7,2.3-.5,3.1.4l7.5,9.1c.7.9.5,2.2-.4,2.8-.4.3-.9.4-1.3.4"/>
          <path class="cls-2" d="M167.4,106.7c-.4,0-.8,0-1.1-.3-1-.6-1.4-1.8-.7-2.8l5.9-9.1c.6-1,2-1.3,3-.7,1,.6,1.4,1.8.8,2.8l-5.9,9.1c-.4.6-1.1,1-1.9,1"/>
          <path class="cls-2" d="M181.5,117.8c-.8,0-1.5-.4-1.9-1-.6-1-.2-2.2.9-2.7l10.1-5.2c1.1-.5,2.4-.2,3,.8.6,1,.2,2.2-.9,2.7l-10.1,5.2c-.3.2-.7.3-1.1.3"/>
          <path class="cls-2" d="M120.7,117.8c-.4,0-.7,0-1.1-.3l-10.1-5.2c-1.1-.5-1.4-1.8-.8-2.7.6-1,1.9-1.3,3-.8l10.1,5.2c1.1.5,1.4,1.8.9,2.7-.4.7-1.1,1-1.9,1"/>
        </g>
        <path class="cls-2" d="M145.2,246.2c-2,0-4.2,0-6.2-.2l.3-4.7c2,.1,4.1.2,5.9.2,2.7,0,5.5-.1,8.3-.4l.4,4.7c-2.9.3-5.8.4-8.7.4ZM129.1,244.9c-4.9-.8-9.8-1.9-14.5-3.4l1.4-4.5c4.5,1.4,9.2,2.5,13.8,3.3l-.7,4.7ZM163.8,244.5l-.9-4.7c4.6-.9,9.3-2.1,13.7-3.6l1.6,4.5c-4.7,1.6-9.5,2.9-14.4,3.8ZM105.3,238c-4.5-2-9-4.3-13.2-6.9l2.5-4c4,2.5,8.3,4.7,12.6,6.6l-1.9,4.4ZM187.4,236.9l-2-4.3c4.3-2,8.5-4.3,12.4-6.9l2.6,4c-4.1,2.7-8.5,5.2-13,7.3ZM83.9,225.4c-3.9-3-7.7-6.4-11.1-9.9l3.4-3.3c3.3,3.4,6.9,6.6,10.6,9.5l-2.9,3.8ZM208.5,223.8l-3-3.7c3.7-3,7.2-6.3,10.4-9.7l3.5,3.2c-3.3,3.7-7,7.1-10.9,10.2ZM66.2,208c-3.1-3.9-5.9-8-8.4-12.3l4.1-2.4c2.4,4.1,5,8.1,8,11.8l-3.7,2.9ZM225.7,205.9l-3.8-2.8c2.8-3.8,5.4-7.8,7.7-12l4.2,2.3c-2.4,4.4-5.1,8.6-8,12.6ZM53.3,186.8c-2-4.5-3.7-9.2-5.1-14l4.6-1.3c1.3,4.6,2.9,9.1,4.9,13.4l-4.3,1.9ZM238,184.3l-4.4-1.8c1.8-4.4,3.3-8.9,4.5-13.5l4.6,1.2c-1.2,4.8-2.8,9.6-4.7,14.2ZM46,163.1c-.9-4.9-1.4-9.9-1.5-14.8h4.7c.1,4.6.6,9.4,1.4,14l-4.7.8ZM244.7,160.4l-4.7-.7c.7-4.7,1-9.4,1-14.2s-.2-6.7-.5-10l4.7-.5c.4,3.4.5,7,.5,10.5,0,5-.4,10-1.1,14.9ZM49.4,138.7l-4.7-.3c.4-5,1.1-9.9,2.2-14.8l4.6,1c-1,4.6-1.7,9.3-2,14.1ZM239.1,126.2c-1-4.6-2.3-9.2-3.9-13.7l4.5-1.6c1.7,4.6,3.1,9.5,4.1,14.3l-4.6,1ZM54,115.5l-4.5-1.5c1.6-4.7,3.5-9.3,5.7-13.8l4.2,2.1c-2.1,4.2-4,8.7-5.4,13.1ZM231.5,103.8c-2.1-4.3-4.5-8.4-7.1-12.3l3.9-2.7c2.8,4.1,5.3,8.4,7.5,12.9l-4.3,2.1ZM64.2,94.1l-4-2.5c2.7-4.2,5.7-8.2,8.9-12l3.6,3.1c-3.1,3.6-6,7.4-8.5,11.4ZM218.7,84c-3-3.6-6.4-7.1-9.9-10.2l3.1-3.6c3.7,3.3,7.2,6.9,10.4,10.7l-3.6,3ZM79.2,75.9l-3.3-3.4c3.6-3.4,7.5-6.6,11.6-9.4l2.7,3.9c-3.9,2.7-7.6,5.7-11,9ZM201.4,67.8c-3.8-2.8-7.9-5.3-12.1-7.5l2.2-4.2c4.4,2.3,8.7,4.9,12.7,7.8l-2.8,3.8ZM98.3,61.8l-2.3-4.1c4.3-2.4,8.9-4.5,13.5-6.3l1.7,4.4c-4.4,1.7-8.7,3.7-12.9,6ZM180.6,56.4c-4.4-1.7-9-3.2-13.6-4.3l1.1-4.6c4.8,1.1,9.6,2.6,14.2,4.5l-1.8,4.4ZM120.1,52.9l-1.2-4.6c4.8-1.3,9.7-2.2,14.6-2.8l.5,4.7c-4.7.5-9.4,1.4-14,2.7ZM157.7,50.4c-4.1-.5-8.4-.8-12.6-.8h-1.6s0-4.7,0-4.7h1.6c4.4,0,8.9.3,13.3.9l-.6,4.7Z"/>
      </g>
    </g>
  </g>
</svg>