<?xml version="1.0" encoding="UTF-8"?>
<svg xmlns="http://www.w3.org/2000/svg" version="1.1" xmlns:xlink="http://www.w3.org/1999/xlink" viewBox="0 0 300 300">
  <defs>
    <style>
      .cls-1 {
        fill: #87aad9;
      }

      .cls-2 {
        fill: #fff;
      }

      .cls-3 {
        fill: #0079ba;
      }

      .cls-4 {
        fill: none;
      }

      .cls-5 {
        isolation: isolate;
      }

      .cls-6 {
        mix-blend-mode: overlay;
        opacity: .8;
      }

      .cls-7 {
        opacity: .8;
      }

      .cls-7, .cls-8 {
        mix-blend-mode: multiply;
      }

      .cls-8 {
        opacity: .3;
      }

      .cls-9 {
        fill: #6c2f8c;
      }
    </style>
  </defs>
  <!-- Generator: Adobe Illustrator 28.7.10, SVG Export Plug-In . SVG Version: 1.2.0 Build 236)  -->
  <g class="cls-5">
    <g id="_圖層_1" data-name="圖層_1">
      <g>
        <g class="cls-8">
          <g>
            <path class="cls-9" d="M146.4,246.4c-62,0-112.7-48.1-117.1-109-.2,2.8-.4,5.7-.4,8.6,0,64.9,52.6,117.6,117.6,117.6s117.6-52.6,117.6-117.6-.2-5.7-.4-8.6c-4.4,60.9-55.1,109-117.1,109"/>
            <rect class="cls-4" x="28.8" y="137.4" width="235.1" height="126.1"/>
          </g>
        </g>
        <g class="cls-7">
          <g>
            <g>
              <image width="337" height="336" transform="translate(0 .4) scale(.9)" xlink:href="chart_icon_three-1.png"/>
              <rect class="cls-4" y=".4" width="300" height="299.1"/>
            </g>
            <rect class="cls-4" y=".4" width="300" height="299.1"/>
          </g>
        </g>
        <path class="cls-1" d="M284.3,146c0,76.2-61.7,137.9-137.9,137.9S8.5,222.2,8.5,146,70.2,8.1,146.4,8.1s137.9,61.7,137.9,137.9"/>
        <path class="cls-3" d="M263.9,146c0,64.9-52.6,117.6-117.5,117.6S28.8,210.9,28.8,146,81.5,28.5,146.4,28.5s117.5,52.6,117.5,117.5"/>
        <g class="cls-8">
          <g>
            <path class="cls-9" d="M146.4,246.4c-62,0-112.7-48.1-117.1-109-.2,2.8-.4,5.7-.4,8.6,0,64.9,52.6,117.6,117.6,117.6s117.6-52.6,117.6-117.6-.2-5.7-.4-8.6c-4.4,60.9-55.1,109-117.1,109"/>
            <rect class="cls-4" x="28.8" y="137.4" width="235.1" height="126.1"/>
          </g>
        </g>
        <g>
          <path class="cls-2" d="M147.7,187.4c24.5,0,44.3-19.8,44.3-44.3s-1.9-14.6-5.2-20.8c-.4,0-.7,0-1.1,0s-.4,0-.6,0l-5.6-.4-4.1,4.1c3.1,5,4.9,10.9,4.9,17.1,0,18-14.6,32.6-32.6,32.6s-32.6-14.6-32.6-32.6,14.6-32.6,32.6-32.6,12.2,1.8,17.1,4.9l3.7-3.7-.5-6.5c0-.5,0-1,0-1.5-6.1-3.2-13-4.9-20.3-4.9-24.4,0-44.3,19.8-44.3,44.3s19.8,44.3,44.3,44.3"/>
          <path class="cls-2" d="M147.7,131.6c.3,0,.6,0,.9,0l8.2-8.2.2-.2c-2.8-1.3-5.9-2-9.2-2-12,0-21.8,9.8-21.8,21.8s9.8,21.8,21.8,21.8,21.8-9.8,21.8-21.8-.7-6.4-2-9.2l-.2.2-8.2,8.2c0,.3,0,.6,0,.9,0,6.3-5.1,11.4-11.4,11.4s-11.4-5.1-11.4-11.4,5.1-11.4,11.4-11.4"/>
          <path class="cls-2" d="M193.4,102.9l2.4-2.4c1.1-1.1,1.1-2.9,0-4l-1.7-1.7c-.5-.6-1.3-.8-2-.8s-1.4.3-2,.8l-2.7,2.7-.6-7.3c0-.5-.5-.9-.9-.9s-.5,0-.7.3l-10.8,10.8c-1,1-1.5,2.3-1.4,3.7v.4s.5,6.8.5,6.8l-3.9,3.9-7,7-.2.2-6.8,6.8-3,3c-.4.4-.6.9-.7,1.5l-.2,2.4c-.1,1.4,1,2.5,2.4,2.5h2.6c.6-.1,1.1-.4,1.5-.8l21.2-21.2,6.2.5h.3c.1,0,.2,0,.4,0,1.2,0,2.4-.5,3.3-1.4l10.8-10.8c.6-.6.2-1.5-.6-1.6l-6.5-.5Z"/>
          <g class="cls-6">
            <path class="cls-2" d="M193.4,102.9l2.4-2.4c1.1-1.1,1.1-2.9,0-4l-1.7-1.7c-.5-.6-1.3-.8-2-.8s-1.4.3-2,.8l-2.7,2.7-.6-7.3c0-.5-.5-.9-.9-.9s-.5,0-.7.3l-10.8,10.8c-1,1-1.5,2.3-1.4,3.7v.4s.5,6.8.5,6.8l-3.9,3.9-7,7-.2.2-6.8,6.8-3,3c-.4.4-.6.9-.7,1.5l-.2,2.4c-.1,1.4,1,2.5,2.4,2.5h2.6c.6-.1,1.1-.4,1.5-.8l21.2-21.2,6.2.5h.3c.1,0,.2,0,.4,0,1.2,0,2.4-.5,3.3-1.4l10.8-10.8c.6-.6.2-1.5-.6-1.6l-6.5-.5Z"/>
          </g>
        </g>
        <path class="cls-2" d="M144.7,243.8c-2,0-4.2,0-6.2-.2l.3-4.7c2,.1,3.9.2,5.9.2,2.7,0,5.5-.1,8.3-.4l.4,4.7c-2.9.3-5.8.4-8.7.4ZM128.6,242.5c-4.9-.8-9.8-1.9-14.5-3.4l1.4-4.5c4.5,1.4,9.2,2.5,13.8,3.3l-.7,4.7ZM163.3,242.1l-.9-4.7c4.6-.9,9.3-2.1,13.7-3.6l1.6,4.5c-4.7,1.6-9.5,2.9-14.4,3.8ZM104.8,235.6c-4.5-2-9-4.3-13.2-6.9l2.5-4c4,2.5,8.3,4.7,12.6,6.6l-1.9,4.4ZM186.9,234.5l-2-4.3c4.3-2,8.5-4.3,12.4-6.9l2.6,4c-4.1,2.7-8.5,5.2-13,7.3ZM83.4,223c-3.9-3-7.7-6.4-11.1-9.9l3.4-3.3c3.3,3.4,6.9,6.6,10.6,9.5l-2.9,3.8ZM208,221.4l-3-3.7c3.7-3,7.2-6.3,10.4-9.7l3.5,3.2c-3.3,3.7-7,7.1-10.9,10.2ZM65.7,205.6c-3.1-3.9-5.9-8-8.4-12.3l4.1-2.4c2.4,4.1,5,8.1,8,11.8l-3.7,2.9ZM225.2,203.5l-3.8-2.8c2.8-3.8,5.4-7.8,7.7-12l4.2,2.3c-2.4,4.4-5.1,8.6-8,12.6ZM52.8,184.4c-2-4.5-3.7-9.2-5.1-14l4.6-1.3c1.3,4.6,2.9,9.1,4.9,13.4l-4.3,1.9ZM237.5,181.9l-4.4-1.8c1.8-4.4,3.3-8.9,4.5-13.5l4.6,1.2c-1.2,4.8-2.8,9.6-4.7,14.2ZM45.5,160.7c-.9-4.9-1.4-9.9-1.5-14.8h4.7c.1,4.6.6,9.4,1.4,14l-4.7.8ZM244.2,158l-4.7-.7c.7-4.7,1-9.4,1-14.2,0-3.3-.2-6.7-.5-10l4.7-.5c.4,3.5.5,7,.5,10.5,0,5-.4,10-1.1,14.9ZM48.9,136.3l-4.7-.3c.4-5,1.1-9.9,2.2-14.8l4.6,1c-1,4.6-1.7,9.3-2.1,14.1ZM238.6,123.8c-.9-4.6-2.2-9.2-3.9-13.7l4.5-1.6c1.7,4.7,3.1,9.5,4.1,14.4l-4.7.9ZM53.5,113.1l-4.5-1.5c1.6-4.7,3.5-9.4,5.7-13.8l4.2,2.1c-2.1,4.2-4,8.6-5.4,13.1ZM231,101.4c-2.1-4.3-4.5-8.4-7.1-12.3l3.9-2.7c2.8,4.1,5.3,8.4,7.5,12.9l-4.3,2.1ZM63.7,91.7l-4-2.5c2.7-4.2,5.7-8.2,8.9-12l3.6,3.1c-3.1,3.6-6,7.4-8.5,11.4ZM218.2,81.6c-3-3.6-6.4-7.1-9.9-10.2l3.2-3.5c3.7,3.3,7.2,6.9,10.4,10.7l-3.6,3ZM78.7,73.5l-3.3-3.4c3.6-3.4,7.5-6.6,11.6-9.4l2.7,3.9c-3.9,2.7-7.6,5.7-11,9ZM200.9,65.4c-3.8-2.8-7.9-5.3-12.1-7.5l2.2-4.2c4.4,2.3,8.7,4.9,12.7,7.8l-2.8,3.8ZM97.8,59.4l-2.3-4.1c4.3-2.4,8.9-4.6,13.5-6.3l1.7,4.4c-4.4,1.7-8.7,3.7-12.9,6ZM180.1,54c-4.4-1.8-9-3.2-13.6-4.3l1.1-4.6c4.8,1.1,9.6,2.6,14.2,4.5l-1.8,4.4ZM119.6,50.5l-1.2-4.6c4.8-1.3,9.7-2.2,14.7-2.8l.5,4.7c-4.7.5-9.4,1.4-14,2.7ZM157.2,48.1c-4.2-.5-8.4-.8-12.6-.8h-1.6s0-4.7,0-4.7h1.6c4.4,0,8.9.3,13.2.9l-.6,4.7Z"/>
      </g>
    </g>
  </g>
</svg>