<?xml version="1.0" encoding="UTF-8"?>
<svg xmlns="http://www.w3.org/2000/svg" version="1.1" xmlns:xlink="http://www.w3.org/1999/xlink" viewBox="0 0 300 357.1">
  <defs>
    <style>
      .cls-1 {
        clip-path: url(#clippath-6);
      }

      .cls-2 {
        clip-path: url(#clippath-4);
      }

      .cls-3 {
        fill: url(#linear-gradient-2);
      }

      .cls-4 {
        mask: url(#mask-1);
      }

      .cls-5 {
        fill: #fff;
      }

      .cls-6 {
        mask: url(#mask);
      }

      .cls-7 {
        fill: none;
      }

      .cls-8 {
        fill: url(#linear-gradient-4);
      }

      .cls-9 {
        fill: url(#radial-gradient);
      }

      .cls-10 {
        fill: url(#radial-gradient-3);
      }

      .cls-11 {
        mask: url(#mask-2);
      }

      .cls-12 {
        fill: url(#linear-gradient-3);
      }

      .cls-13 {
        clip-path: url(#clippath-1);
      }

      .cls-14 {
        fill: url(#linear-gradient-5);
      }

      .cls-15 {
        isolation: isolate;
      }

      .cls-16 {
        clip-path: url(#clippath-5);
      }

      .cls-17 {
        fill: url(#radial-gradient-5);
        mix-blend-mode: multiply;
      }

      .cls-18 {
        clip-path: url(#clippath-3);
      }

      .cls-19 {
        fill: url(#radial-gradient-2);
      }

      .cls-20 {
        fill: url(#radial-gradient-4);
      }

      .cls-21 {
        fill: url(#linear-gradient-7);
      }

      .cls-22 {
        fill: url(#linear-gradient-6);
      }

      .cls-23 {
        clip-path: url(#clippath-2);
      }

      .cls-24 {
        mask: url(#mask-4);
      }

      .cls-25 {
        fill: url(#linear-gradient);
      }

      .cls-26 {
        clip-path: url(#clippath);
      }

      .cls-27 {
        mask: url(#mask-3);
      }
    </style>
    <clipPath id="clippath">
      <path class="cls-7" d="M-.4,149.6c0,82.8,67.1,150,150,150s150-67.2,150-150S232.4-.4,149.6-.4-.4,66.7-.4,149.6"/>
    </clipPath>
    <linearGradient id="linear-gradient" x1="-249.4" y1="578" x2="-248.4" y2="578" gradientTransform="translate(-182847.1 78954.3) rotate(90) scale(316.6 -316.6)" gradientUnits="userSpaceOnUse">
      <stop offset="0" stop-color="#008fce"/>
      <stop offset=".6" stop-color="#0086bd"/>
      <stop offset="1" stop-color="#007298"/>
      <stop offset="1" stop-color="#007298"/>
    </linearGradient>
    <clipPath id="clippath-1">
      <path class="cls-7" d="M10,149.6c0,77.1,62.5,139.6,139.6,139.6s139.6-62.5,139.6-139.6S226.7,10,149.6,10,10,72.5,10,149.6"/>
    </clipPath>
    <radialGradient id="radial-gradient" cx="-249.6" cy="579" fx="-249.6" fy="579" r=".9" gradientTransform="translate(70903.9 164307.6) scale(283.5 -283.5)" gradientUnits="userSpaceOnUse">
      <stop offset="0" stop-color="#d7e0ea"/>
      <stop offset=".3" stop-color="#87caf0"/>
      <stop offset=".5" stop-color="#00a1e2"/>
      <stop offset="1" stop-color="#008dcd"/>
      <stop offset="1" stop-color="#008dcd"/>
    </radialGradient>
    <clipPath id="clippath-2">
      <path class="cls-7" d="M10,149.6c0,77.1,62.5,139.6,139.6,139.6s139.6-62.5,139.6-139.6S226.7,10,149.6,10,10,72.5,10,149.6"/>
    </clipPath>
    <radialGradient id="radial-gradient-2" cx="-249.9" cy="577.4" fx="-249.9" fy="577.4" r=".9" gradientTransform="translate(-84905.9 36961.4) rotate(90) scale(147.3 -147.3)" gradientUnits="userSpaceOnUse">
      <stop offset="0" stop-color="#000"/>
      <stop offset=".9" stop-color="#000"/>
      <stop offset="1" stop-color="#fff"/>
    </radialGradient>
    <mask id="mask" x="10" y="10" width="279.2" height="279.2" maskUnits="userSpaceOnUse">
      <rect class="cls-19" x="10" y="10" width="279.2" height="279.2"/>
    </mask>
    <radialGradient id="radial-gradient-3" cx="-249.9" cy="577.4" fx="-249.9" fy="577.4" r=".9" gradientTransform="translate(-84905.9 36961.3) rotate(90) scale(147.3 -147.3)" gradientUnits="userSpaceOnUse">
      <stop offset="0" stop-color="#00a1e2"/>
      <stop offset=".9" stop-color="#00a1e2"/>
      <stop offset="1" stop-color="#0098dd"/>
    </radialGradient>
    <clipPath id="clippath-3">
      <path class="cls-7" d="M10,149.6c0,77.1,62.5,139.6,139.6,139.6s139.6-62.5,139.6-139.6S226.7,10,149.6,10,10,72.5,10,149.6"/>
    </clipPath>
    <linearGradient id="linear-gradient-2" x1="-250" y1="577.4" x2="-249" y2="577.4" gradientTransform="translate(-79668.6 34729.5) rotate(90) scale(138.2 -138.2)" gradientUnits="userSpaceOnUse">
      <stop offset="0" stop-color="#000"/>
      <stop offset=".5" stop-color="#000"/>
      <stop offset="1" stop-color="gray"/>
      <stop offset="1" stop-color="gray"/>
    </linearGradient>
    <mask id="mask-1" x="10" y="10" width="279.2" height="279.2" maskUnits="userSpaceOnUse">
      <rect class="cls-3" x="10" y="10" width="279.2" height="279.2"/>
    </mask>
    <linearGradient id="linear-gradient-3" x1="-250" y1="577.4" x2="-249" y2="577.4" gradientTransform="translate(-79668.6 34729.5) rotate(90) scale(138.2 -138.2)" gradientUnits="userSpaceOnUse">
      <stop offset="0" stop-color="#00749d"/>
      <stop offset=".5" stop-color="#00749d"/>
      <stop offset="1" stop-color="#00749d"/>
      <stop offset="1" stop-color="#00749d"/>
    </linearGradient>
    <clipPath id="clippath-4">
      <path class="cls-7" d="M149.6,247.7c-70.1,0-128.1-51.6-138.1-118.8-1,6.8-1.5,13.7-1.5,20.8,0,77.1,62.5,139.6,139.6,139.6s139.6-62.5,139.6-139.6-.5-14-1.5-20.8c-10,67.3-68,118.8-138,118.8"/>
    </clipPath>
    <linearGradient id="linear-gradient-4" x1="-249.8" y1="577.6" x2="-248.8" y2="577.6" gradientTransform="translate(-100581.9 43698) rotate(90) scale(174.4 -174.4)" xlink:href="#linear-gradient-2"/>
    <mask id="mask-2" x="10" y="128.8" width="279.2" height="160.3" maskUnits="userSpaceOnUse">
      <rect class="cls-8" x="10" y="128.8" width="279.2" height="160.3"/>
    </mask>
    <linearGradient id="linear-gradient-5" x1="-249.8" y1="577.6" x2="-248.8" y2="577.6" gradientTransform="translate(-100581.9 43698) rotate(90) scale(174.4 -174.4)" xlink:href="#linear-gradient-3"/>
    <clipPath id="clippath-5">
      <path class="cls-7" d="M56.2,83.2c0,45.2,41.8,76.7,93.3,76.7s93.3-31.5,93.3-76.7S201.1,10,149.6,10,56.2,38,56.2,83.2"/>
    </clipPath>
    <linearGradient id="linear-gradient-6" x1="-249.6" y1="577.7" x2="-248.7" y2="577.7" gradientTransform="translate(-111352.1 48114.4) rotate(90) scale(193 -193)" gradientUnits="userSpaceOnUse">
      <stop offset="0" stop-color="#fff"/>
      <stop offset=".2" stop-color="#fff"/>
      <stop offset="1" stop-color="#000"/>
    </linearGradient>
    <mask id="mask-3" x="56.2" y="10" width="186.7" height="149.9" maskUnits="userSpaceOnUse">
      <rect class="cls-22" x="56.2" y="10" width="186.7" height="149.9"/>
    </mask>
    <linearGradient id="linear-gradient-7" x1="-249.6" y1="577.7" x2="-248.7" y2="577.7" gradientTransform="translate(-111352.1 48114.4) rotate(90) scale(193 -193)" gradientUnits="userSpaceOnUse">
      <stop offset="0" stop-color="#fff"/>
      <stop offset=".2" stop-color="#fff"/>
      <stop offset="1" stop-color="#fff"/>
    </linearGradient>
    <clipPath id="clippath-6">
      <path class="cls-7" d="M44,336.9c0,11,47.3,19.8,105.6,19.8s105.5-8.9,105.5-19.8-47.2-19.8-105.5-19.8-105.6,8.9-105.6,19.8"/>
    </clipPath>
    <radialGradient id="radial-gradient-4" cx="-250.6" cy="586.2" fx="-250.6" fy="586.2" r=".9" gradientTransform="translate(26773.1 11416.2) scale(106.2 -18.9)" gradientUnits="userSpaceOnUse">
      <stop offset="0" stop-color="#b3b3b3"/>
      <stop offset=".2" stop-color="#999"/>
      <stop offset=".5" stop-color="#999"/>
      <stop offset=".8" stop-color="#141414"/>
      <stop offset="1" stop-color="#000"/>
    </radialGradient>
    <mask id="mask-4" x="44" y="317" width="211.1" height="39.7" maskUnits="userSpaceOnUse">
      <rect class="cls-20" x="44" y="317" width="211.1" height="39.7"/>
    </mask>
    <radialGradient id="radial-gradient-5" cx="-250.6" cy="586.2" fx="-250.6" fy="586.2" r=".9" gradientTransform="translate(26773 11416.2) scale(106.2 -18.9)" gradientUnits="userSpaceOnUse">
      <stop offset="0" stop-color="#a3a8ac"/>
      <stop offset=".2" stop-color="#a3a8ac"/>
      <stop offset=".5" stop-color="#c0c4c9"/>
      <stop offset=".8" stop-color="#c8cbd0"/>
      <stop offset="1" stop-color="#c8cbd0"/>
    </radialGradient>
  </defs>
  <!-- Generator: Adobe Illustrator 28.7.10, SVG Export Plug-In . SVG Version: 1.2.0 Build 236)  -->
  <g class="cls-15">
    <g id="_圖層_1" data-name="圖層_1">
      <g>
        <g class="cls-26">
          <rect class="cls-25" x="-.4" y="-.4" width="300" height="300"/>
        </g>
        <g class="cls-13">
          <rect class="cls-9" x="10" y="10" width="279.2" height="279.2"/>
        </g>
        <g class="cls-23">
          <g class="cls-6">
            <rect class="cls-10" x="10" y="10" width="279.2" height="279.2"/>
          </g>
        </g>
        <g class="cls-18">
          <g class="cls-4">
            <rect class="cls-12" x="10" y="10" width="279.2" height="279.2"/>
          </g>
        </g>
        <g class="cls-2">
          <g class="cls-11">
            <rect class="cls-14" x="10" y="128.8" width="279.2" height="160.3"/>
          </g>
        </g>
        <polygon class="cls-5" points="75.3 175.6 130.9 231.2 228.6 133.5 228.6 83.2 126.4 185.4 77.4 136.4 75.3 175.6"/>
        <g class="cls-16">
          <g class="cls-27">
            <rect class="cls-21" x="56.2" y="10" width="186.7" height="149.9"/>
          </g>
        </g>
        <g class="cls-1">
          <g class="cls-24">
            <rect class="cls-17" x="44" y="317" width="211.1" height="39.7"/>
          </g>
        </g>
      </g>
    </g>
  </g>
</svg>