<?xml version="1.0" encoding="UTF-8"?>
<svg xmlns="http://www.w3.org/2000/svg" version="1.1" xmlns:xlink="http://www.w3.org/1999/xlink" viewBox="0 0 300 300">
  <defs>
    <style>
      .cls-1 {
        fill: #ee8919;
      }

      .cls-2 {
        fill: #00afec;
      }

      .cls-3 {
        fill: #fff;
      }

      .cls-4 {
        fill: #d3edfb;
      }

      .cls-5 {
        fill: url(#_新增漸層色票_4-2);
      }

      .cls-6 {
        fill: #209bd8;
      }

      .cls-7 {
        isolation: isolate;
      }

      .cls-8 {
        fill: #df007c;
      }

      .cls-9 {
        mix-blend-mode: overlay;
        opacity: .8;
      }

      .cls-10 {
        fill: url(#_新增漸層色票_4);
      }

      .cls-11 {
        fill: #84b526;
      }

      .cls-12 {
        fill: #0078bb;
      }

      .cls-13 {
        clip-path: url(#clippath);
      }
    </style>
    <linearGradient id="_新增漸層色票_4" data-name="新增漸層色票 4" x1="417.8" y1="257.8" x2="435.4" y2="257.8" gradientUnits="userSpaceOnUse">
      <stop offset="0" stop-color="#0068b7"/>
      <stop offset=".2" stop-color="#0077c3"/>
      <stop offset=".5" stop-color="#0092d9"/>
      <stop offset=".8" stop-color="#00a3e6"/>
      <stop offset="1" stop-color="#00a9eb"/>
    </linearGradient>
    <clipPath id="clippath">
      <polygon class="cls-10" points="435.4 262.9 435.4 252.7 426.6 247.6 417.8 252.7 417.8 262.9 426.6 268 435.4 262.9"/>
    </clipPath>
    <linearGradient id="_新增漸層色票_4-2" data-name="新增漸層色票 4" x1="-96.2" y1="403.2" x2="-95.9" y2="403.2" gradientTransform="translate(-34574.8 8596.3) rotate(90) scale(86.8 -86.8)" xlink:href="#_新增漸層色票_4"/>
  </defs>
  <!-- Generator: Adobe Illustrator 28.7.10, SVG Export Plug-In . SVG Version: 1.2.0 Build 236)  -->
  <g class="cls-7">
    <g id="_圖層_1" data-name="圖層_1">
      <circle class="cls-1" cx="150" cy="150" r="150"/>
      <g>
        <g>
          <path class="cls-8" d="M390,371.1c4.2-6.4,12.9-8.2,19.4-4,6.4,4.2,8.2,12.9,4,19.4-4.2,6.4-12.9,8.2-19.4,4-6.4-4.2-8.2-12.9-4-19.4"/>
          <path class="cls-3" d="M401.6,390.4h0s0-.5,0-.5h0c.4,0,.9,0,1.3,0v.5c-.4,0-.9,0-1.3,0ZM400.6,390.3c-.5,0-1-.1-1.4-.2v-.4c.5,0,1,.2,1.5.2v.5ZM404,390.2v-.4c.4,0,.8-.2,1.2-.4v.4c-.3.2-.8.3-1.2.4ZM398.3,389.9c-.5-.1-.9-.3-1.3-.5l.2-.4c.4.2.9.3,1.3.5v.4ZM406.3,389.4l-.2-.4c.4-.2.8-.4,1.2-.6l.2.4c-.4.2-.8.5-1.3.7ZM396.1,389c-.4-.2-.8-.5-1.2-.8l.3-.4c.4.3.8.5,1.2.7l-.2.4ZM408.3,388.3l-.3-.4c.4-.3.7-.6,1.1-.9l.3.3c-.4.3-.7.6-1.1.9ZM394.1,387.6c-.4-.3-.7-.6-1-1l.3-.3c.3.3.6.7,1,1l-.3.3ZM410.1,386.7l-.3-.3c.3-.3.6-.7.9-1.1l.4.3c-.3.4-.6.8-.9,1.1ZM392.5,385.9c-.3-.4-.6-.8-.8-1.2l.4-.2c.2.4.5.8.8,1.1l-.4.3ZM411.6,384.8l-.4-.2c.2-.4.4-.8.6-1.2l.4.2c-.2.4-.4.9-.7,1.3ZM391.2,383.8c-.2-.4-.4-.9-.5-1.3h.4c.1.3.3.7.5,1.1l-.4.2ZM412.6,382.6l-.4-.2c.1-.4.3-.9.4-1.3h.4c0,.6-.2,1-.4,1.5ZM390.4,381.6c-.1-.5-.2-.9-.3-1.4h.5c0,.4.1.9.2,1.3h-.4ZM413.1,380.2h-.5c0-.5,0-1,0-1.4s0-.5,0-.7h.5c0,.2,0,.5,0,.7,0,.5,0,1,0,1.4ZM390.1,379.2c0-.1,0-.2,0-.4,0-.4,0-.7,0-1.1h.5c0,.4,0,.7,0,1.1s0,.2,0,.4h-.5ZM412.6,377.2c0-.5-.2-.9-.3-1.4h.4c.1.3.2.8.3,1.3h-.5ZM390.7,376.9h-.5c0-.6.2-1,.3-1.5h.4c-.1.6-.2,1-.3,1.5ZM412.1,374.9c-.2-.4-.3-.9-.6-1.3l.4-.2c.2.4.4.9.6,1.3l-.4.2ZM391.3,374.7l-.4-.2c.2-.4.4-.9.6-1.3l.4.2c-.2.4-.4.8-.6,1.2ZM411.1,372.9c-.2-.4-.5-.8-.8-1.1l.4-.3c.3.4.6.8.8,1.2l-.4.2ZM392.4,372.6l-.4-.3c.3-.4.6-.8.9-1.1l.3.3c-.3.3-.6.7-.8,1.1ZM409.6,371.1c-.3-.3-.7-.6-1-.9l.3-.4c.4.3.7.6,1.1,1l-.3.3ZM393.9,370.9l-.3-.3c.3-.3.7-.6,1.1-.9l.3.4c-.4.3-.7.6-1,.9ZM407.9,369.6c-.4-.3-.8-.5-1.2-.7l.2-.4c.4.2.8.5,1.2.7l-.3.4ZM395.7,369.4l-.2-.4c.4-.3.8-.5,1.3-.7l.2.4c-.4.2-.8.4-1.2.7ZM405.8,368.5c-.4-.2-.9-.3-1.3-.4v-.4c.6.1,1,.3,1.5.5l-.2.4ZM397.7,368.4l-.2-.4c.4-.2.9-.3,1.4-.4v.4c-.3.1-.8.2-1.2.4ZM403.6,367.9c-.5,0-.9-.1-1.4-.2v-.5c.5,0,1,0,1.5.2v.5ZM400,367.8v-.5c.4,0,.9-.1,1.4-.1v.5c-.4,0-.9,0-1.4.1Z"/>
        </g>
        <g>
          <path class="cls-3" d="M397.7,379h2.1c.2,0,.3.1.3.3v6.1c0,.2-.1.3-.3.3h-2.1c-.2,0-.3-.1-.3-.3v-6.1c0-.2.1-.3.3-.3Z"/>
          <path class="cls-3" d="M401.2,377.2h2.1c.2,0,.3.1.3.3v7.9c0,.2-.1.3-.3.3h-2.1c-.2,0-.3-.1-.3-.3v-7.9c0-.2.1-.3.3-.3Z"/>
          <path class="cls-3" d="M404.6,375.9h2.1c.2,0,.3.1.3.3v9.2c0,.2-.1.3-.3.3h-2.1c-.2,0-.3-.1-.3-.3v-9.2c0-.2.1-.3.3-.3Z"/>
        </g>
        <path class="cls-3" d="M408.1,370.9l-2.8.5.6.8-3.4,2.8-4.7,1.4-4.9,6.2c-.1.2-.1.4,0,.5,0,0,.2,0,.2,0s.2,0,.3-.1l4.8-6,4.6-1.3,3.5-2.9.5.7,1.1-2.6Z"/>
      </g>
      <path class="cls-1" d="M-79.9,570c-78.4,26.8-163.6-15-190.4-93.4-26.8-78.4,15-163.6,93.4-190.4,78.4-26.8,163.6,15,190.4,93.4,26.8,78.4-15,163.6-93.4,190.4"/>
      <path class="cls-3" d="M150,274.2h-.6s0-4.9,0-4.9h.5c4.8,0,9.6-.3,14.3-.8l.6,4.9c-4.9.6-9.9.9-14.8.9ZM139.1,273.7c-5.1-.4-10.3-1.2-15.3-2.3l1-4.8c4.8,1,9.7,1.8,14.7,2.2l-.4,4.9ZM175,271.7l-1-4.8c4.8-1,9.6-2.3,14.3-3.9l1.6,4.7c-4.9,1.6-9.9,3-14.9,4ZM113.9,268.9c-4.9-1.5-9.8-3.3-14.5-5.4l2-4.5c4.5,2,9.2,3.8,13.9,5.2l-1.4,4.7ZM199.5,263.9l-2-4.5c4.5-2,9-4.2,13.2-6.7l2.5,4.2c-4.4,2.6-9,5-13.7,7ZM90.2,258.9c-4.5-2.5-8.9-5.2-13-8.3l2.9-4c4,2.9,8.2,5.6,12.5,7.9l-2.4,4.3ZM221.9,251.3l-2.9-4c4-2.9,7.9-6,11.5-9.3l3.3,3.6c-3.8,3.5-7.8,6.7-12,9.7ZM69.1,244.2c-3.9-3.4-7.6-7-11.1-10.8l3.6-3.3c3.3,3.6,6.9,7.1,10.6,10.3l-3.2,3.7ZM241.2,234.3l-3.6-3.3c3.3-3.6,6.5-7.5,9.4-11.5l4,2.9c-3,4.2-6.3,8.2-9.8,12ZM51.4,225.5c-3.1-4.1-6-8.4-8.6-12.8l4.3-2.5c2.5,4.3,5.3,8.4,8.3,12.3l-3.9,3ZM256.6,213.8l-4.2-2.5c2.5-4.2,4.8-8.7,6.8-13.2l4.5,2c-2.1,4.7-4.5,9.3-7.1,13.7ZM38,203.6c-2.2-4.6-4.2-9.4-5.8-14.3l4.7-1.6c1.6,4.7,3.4,9.3,5.6,13.7l-4.4,2.1ZM267.5,190.4l-4.7-1.6c1.6-4.7,2.9-9.5,3.9-14.3l4.8,1c-1.1,5-2.4,10-4.1,14.9ZM29.3,179.4c-1.2-5-2.1-10.1-2.7-15.2l4.9-.6c.6,4.9,1.4,9.8,2.6,14.6l-4.8,1.2ZM273.3,165.4l-4.9-.6c.6-4.9.9-9.9.9-14.8,0-2.6,0-5.1-.2-7.7l4.9-.3c.2,2.7.3,5.3.2,8,0,5.1-.3,10.3-.9,15.4ZM25.9,154c0-1.3,0-2.7,0-4,0-3.8.2-7.6.5-11.4l4.9.4c-.3,3.6-.5,7.3-.5,11,0,1.3,0,2.6,0,3.8l-4.9.2ZM268,132.5c-.7-4.9-1.7-9.8-3.1-14.5l4.7-1.3c1.4,4.9,2.4,10,3.2,15.1l-4.9.7ZM32.5,129.2l-4.9-.8c.9-5.1,2.1-10.1,3.6-15l4.7,1.5c-1.5,4.7-2.6,9.5-3.5,14.4ZM261.9,108.6c-1.7-4.6-3.7-9.2-6-13.6l4.4-2.3c2.4,4.6,4.5,9.3,6.3,14.1l-4.6,1.7ZM39.3,105.5l-4.6-1.8c1.9-4.8,4.2-9.4,6.7-13.9l4.3,2.4c-2.4,4.3-4.5,8.8-6.4,13.4ZM251,86.4c-2.6-4.2-5.5-8.2-8.7-12l3.8-3.1c3.3,4,6.3,8.2,9,12.5l-4.2,2.6ZM50.9,83.6l-4.1-2.7c2.9-4.3,6-8.4,9.4-12.3l3.7,3.2c-3.2,3.7-6.3,7.7-9,11.8ZM235.7,67c-3.4-3.5-7.1-6.9-11-10l3.1-3.8c4,3.2,7.8,6.7,11.4,10.4l-3.5,3.4ZM66.7,64.7l-3.4-3.5c3.7-3.6,7.6-7,11.7-10.1l3,3.9c-3.9,3-7.7,6.2-11.2,9.7ZM216.8,51.1c-4.1-2.8-8.4-5.3-12.8-7.5l2.2-4.4c4.6,2.3,9,5,13.3,7.8l-2.8,4.1ZM86,49.3l-2.6-4.2c4.3-2.8,8.9-5.3,13.5-7.5l2.1,4.5c-4.4,2.1-8.8,4.5-13,7.2ZM195,39.5c-4.5-1.9-9.3-3.5-14.1-4.7l1.3-4.8c5,1.3,9.9,3,14.6,4.9l-1.9,4.6ZM108.1,38.3l-1.7-4.6c4.8-1.8,9.8-3.3,14.8-4.5l1.1,4.8c-4.8,1.1-9.6,2.6-14.2,4.3ZM171.3,32.6c-4.8-.9-9.8-1.5-14.7-1.7l.3-4.9c5.1.3,10.3.9,15.3,1.8l-.9,4.8ZM131.9,32.1l-.7-4.9c5.1-.8,10.2-1.2,15.4-1.4v4.9c-4.8.1-9.8.6-14.6,1.3Z"/>
      <g>
        <path class="cls-3" d="M150,90.2c33,0,59.8,26.8,59.8,59.8s-26.8,59.8-59.8,59.8-59.8-26.8-59.8-59.8,26.8-59.8,59.8-59.8M150,75.3c-41.2,0-74.7,33.4-74.7,74.7s33.4,74.7,74.7,74.7,74.7-33.4,74.7-74.7-33.4-74.7-74.7-74.7"/>
        <path class="cls-3" d="M169.3,179.2c-1.9,0-3.8-.7-5.2-2.2l-21.5-21.5v-58.6c0-4.1,3.3-7.4,7.4-7.4s7.4,3.3,7.4,7.4v52.4l17.1,17.1c2.9,2.9,2.9,7.6,0,10.5-1.5,1.4-3.4,2.2-5.3,2.2"/>
      </g>
      <g>
        <g>
          <g>
            <g>
              <path class="cls-6" d="M156.7,387.4c-4.7-6.1-3.6-14.9,2.5-19.6,6.1-4.7,14.9-3.6,19.6,2.5,4.7,6.1,3.6,14.9-2.5,19.6-6.1,4.7-14.9,3.6-19.6-2.5"/>
              <path class="cls-6" d="M156.7,387.4c-4.7-6.1-3.6-14.9,2.5-19.6,6.1-4.7,14.9-3.6,19.6,2.5,4.7,6.1,3.6,14.9-2.5,19.6-6.1,4.7-14.9,3.6-19.6-2.5Z"/>
            </g>
            <path class="cls-12" d="M156.7,387.4c-4.7-6.1-3.6-14.9,2.5-19.6,6.1-4.7,14.9-3.6,19.6,2.5,4.7,6.1,3.6,14.9-2.5,19.6-6.1,4.7-14.9,3.6-19.6-2.5Z"/>
          </g>
          <path class="cls-3" d="M167.7,390.4h0v-.5h0c.4,0,.9,0,1.3,0v.5c-.4,0-.9,0-1.3,0ZM166.7,390.3c-.5,0-1-.1-1.4-.2v-.4c.5,0,1,.2,1.5.2v.5ZM170.1,390.2v-.5c.4,0,.8-.2,1.2-.4v.4c-.3.2-.8.3-1.2.4ZM164.4,389.9c-.5-.1-.9-.3-1.3-.5l.2-.4c.4.2.9.3,1.3.5v.4ZM172.3,389.4l-.2-.4c.4-.2.8-.4,1.2-.6l.2.4c-.4.2-.8.5-1.3.7ZM162.1,389c-.4-.2-.8-.5-1.2-.8l.3-.4c.4.3.8.5,1.2.7l-.2.4ZM174.4,388.3l-.3-.4c.4-.3.7-.6,1.1-.9l.3.3c-.4.3-.7.6-1.1.9ZM160.2,387.6c-.4-.3-.7-.7-1-1l.3-.3c.3.3.6.7,1,1l-.3.3ZM176.2,386.7l-.3-.3c.3-.3.6-.7.9-1.1l.4.3c-.3.4-.6.8-.9,1.1ZM158.5,385.9c-.3-.4-.6-.8-.8-1.2l.4-.2c.2.4.5.8.8,1.1l-.4.3ZM177.7,384.8l-.4-.2c.2-.4.5-.8.6-1.2l.4.2c-.2.4-.4.9-.7,1.3ZM157.3,383.8c-.2-.4-.4-.9-.5-1.3h.4c.1.3.3.7.5,1.1l-.4.2ZM178.7,382.6h-.4c.1-.6.3-1,.4-1.5h.4c0,.6-.2,1-.4,1.5ZM156.5,381.6c-.1-.5-.2-.9-.3-1.4h.5c0,.4.1.9.2,1.3h-.4ZM179.2,380.2h-.5c0-.5,0-1,0-1.4,0-.2,0-.5,0-.7h.5c0,.2,0,.5,0,.7,0,.5,0,1,0,1.4ZM156.1,379.2c0-.1,0-.2,0-.4,0-.4,0-.7,0-1.1h.5c0,.4,0,.7,0,1.1s0,.2,0,.4h-.5ZM178.7,377.2c0-.5-.2-.9-.3-1.4h.4c.1.3.2.8.3,1.3h-.5ZM156.8,376.9h-.5c0-.6.2-1,.3-1.5h.4c-.1.6-.2,1-.3,1.5ZM178.2,374.9c-.2-.4-.3-.9-.6-1.3l.4-.2c.2.4.4.9.6,1.3l-.4.2ZM157.4,374.7l-.4-.2c.2-.4.4-.9.6-1.3l.4.2c-.2.4-.4.8-.6,1.2ZM177.1,372.9c-.2-.4-.5-.8-.8-1.1l.4-.3c.3.4.6.8.8,1.2l-.4.2ZM158.5,372.6l-.4-.3c.3-.4.6-.8.9-1.1l.3.3c-.3.3-.6.7-.8,1.1ZM175.7,371.1c-.3-.3-.7-.6-1-.9l.3-.4c.4.3.7.6,1.1,1l-.3.3ZM159.9,370.9l-.3-.3c.3-.3.7-.7,1.1-.9l.3.4c-.4.3-.7.6-1,.9ZM173.9,369.6c-.4-.3-.8-.5-1.2-.7l.2-.4c.4.2.8.5,1.2.7l-.3.4ZM161.8,369.4l-.2-.4c.4-.3.8-.5,1.3-.7l.2.4c-.4.2-.8.4-1.2.7ZM171.9,368.5c-.4-.2-.9-.3-1.3-.4v-.4c.6.1,1,.3,1.5.5l-.2.4ZM163.8,368.4l-.2-.4c.4-.2.9-.3,1.4-.4v.4c-.3.1-.8.2-1.2.4ZM169.7,367.9c-.5,0-.9-.1-1.4-.2v-.5c.5,0,1,0,1.5.2v.5ZM166,367.8v-.5c.4,0,.9-.1,1.4-.1v.5c-.4,0-.9,0-1.4.1Z"/>
        </g>
        <g>
          <path class="cls-3" d="M167.3,385.1c3.4,0,6.1-2.7,6.1-6.1s-.3-2-.7-2.9c0,0-.1,0-.2,0s0,0,0,0h-.8c0,0-.6.5-.6.5.4.7.7,1.5.7,2.4,0,2.5-2,4.5-4.5,4.5s-4.5-2-4.5-4.5,2-4.5,4.5-4.5,1.7.2,2.4.7l.5-.5v-.9c0,0,0-.1,0-.2-.8-.4-1.8-.7-2.8-.7-3.4,0-6.1,2.7-6.1,6.1s2.7,6.1,6.1,6.1"/>
          <path class="cls-3" d="M167.3,377.5s0,0,.1,0l1.1-1.1h0c-.4-.2-.8-.3-1.3-.3-1.7,0-3,1.3-3,3s1.3,3,3,3,3-1.3,3-3-.1-.9-.3-1.3h0s-1.1,1.2-1.1,1.2c0,0,0,0,0,.1,0,.9-.7,1.6-1.6,1.6s-1.6-.7-1.6-1.6.7-1.6,1.6-1.6"/>
          <path class="cls-3" d="M173.6,373.5l.3-.3c.2-.2.2-.4,0-.5l-.2-.2c0,0-.2-.1-.3-.1s-.2,0-.3.1l-.4.4v-1c0,0-.1-.1-.2-.1s0,0,0,0l-1.5,1.5c-.1.1-.2.3-.2.5h0c0,0,0,1,0,1l-.5.5-1,1h0s-.9,1-.9,1l-.4.4c0,0,0,.1,0,.2v.3c0,.2.1.4.3.4h.4c0,0,.2,0,.2-.1l2.9-2.9h.9c0,0,0,0,0,0,0,0,0,0,0,0,.2,0,.3,0,.5-.2l1.5-1.5c0,0,0-.2,0-.2h-.9Z"/>
          <g class="cls-9">
            <path class="cls-3" d="M173.6,373.5l.3-.3c.2-.2.2-.4,0-.5l-.2-.2c0,0-.2-.1-.3-.1s-.2,0-.3.1l-.4.4v-1c0,0-.1-.1-.2-.1s0,0,0,0l-1.5,1.5c-.1.1-.2.3-.2.5h0c0,0,0,1,0,1l-.5.5-1,1h0s-.9,1-.9,1l-.4.4c0,0,0,.1,0,.2v.3c0,.2.1.4.3.4h.4c0,0,.2,0,.2-.1l2.9-2.9h.9c0,0,0,0,0,0,0,0,0,0,0,0,.2,0,.3,0,.5-.2l1.5-1.5c0,0,0-.2,0-.2h-.9Z"/>
          </g>
        </g>
      </g>
      <g>
        <path class="cls-11" d="M288.2,365.3c7.5,1.9,12,9.6,10,17-1.9,7.5-9.6,12-17,10-7.5-1.9-12-9.6-10-17,1.9-7.5,9.6-12,17-10"/>
        <path class="cls-3" d="M284.7,390.4h0v-.5h0c.4,0,.9,0,1.3,0v.5c-.4,0-.9,0-1.3,0ZM283.7,390.3c-.5,0-1-.1-1.4-.2v-.4c.5,0,1,.2,1.5.2v.5ZM287,390.2v-.5c.4,0,.8-.2,1.2-.4v.4c-.3.2-.8.3-1.2.4ZM281.3,389.9c-.5-.1-.9-.3-1.3-.5l.2-.4c.4.2.9.3,1.3.5v.4ZM289.3,389.4l-.2-.4c.4-.2.8-.4,1.2-.6l.2.4c-.4.2-.8.5-1.3.7ZM279.1,389c-.4-.2-.8-.5-1.2-.8l.3-.4c.4.3.8.5,1.2.7l-.2.4ZM291.4,388.3l-.3-.4c.4-.3.7-.6,1.1-.9l.3.3c-.4.3-.7.6-1.1.9ZM277.1,387.6c-.4-.3-.7-.7-1-1l.3-.3c.3.3.6.7,1,1l-.3.3ZM293.2,386.7l-.3-.3c.3-.3.6-.7.9-1.1l.4.3c-.3.4-.6.8-.9,1.1ZM275.5,385.9c-.3-.4-.6-.8-.8-1.2l.4-.2c.2.4.5.8.8,1.1l-.4.3ZM294.6,384.8l-.4-.2c.2-.4.4-.8.6-1.2l.4.2c-.2.4-.4.9-.7,1.3ZM274.2,383.8c-.2-.4-.4-.9-.5-1.3h.4c.1.3.3.7.5,1.1l-.4.2ZM295.6,382.6l-.4-.2c.1-.4.3-.9.4-1.3h.4c0,.6-.2,1-.4,1.5ZM273.4,381.6c-.1-.5-.2-.9-.3-1.4h.5c0,.4.1.9.2,1.3h-.4ZM296.2,380.2h-.5c0-.5,0-1,0-1.4,0-.2,0-.5,0-.7h.5c0,.2,0,.5,0,.7,0,.5,0,1,0,1.4ZM273.1,379.2c0-.1,0-.2,0-.4,0-.4,0-.7,0-1.1h.5c0,.4,0,.7,0,1.1,0,.1,0,.2,0,.4h-.5ZM295.7,377.2c0-.5-.2-.9-.3-1.4h.4c.1.3.2.8.3,1.3h-.5ZM273.7,376.9h-.5c0-.6.2-1,.3-1.5h.4c-.1.6-.2,1-.3,1.5ZM295.1,374.9c-.2-.4-.3-.9-.6-1.3l.4-.2c.2.4.4.9.6,1.3l-.4.2ZM274.4,374.7l-.4-.2c.2-.4.4-.9.6-1.3l.4.2c-.2.4-.4.8-.6,1.2ZM294.1,372.9c-.2-.4-.5-.8-.8-1.1l.4-.3c.3.4.6.8.8,1.2l-.4.2ZM275.4,372.6l-.4-.3c.3-.4.6-.8.9-1.1l.3.3c-.3.3-.6.7-.8,1.1ZM292.7,371.1c-.3-.3-.7-.6-1-.9l.3-.4c.4.3.7.6,1.1,1l-.3.3ZM276.9,370.9l-.3-.3c.3-.3.7-.6,1.1-.9l.3.4c-.4.3-.7.6-1,.9ZM290.9,369.6c-.4-.3-.8-.5-1.2-.7l.2-.4c.4.2.8.5,1.2.7l-.3.4ZM278.7,369.4l-.2-.4c.4-.3.8-.5,1.3-.7l.2.4c-.4.2-.8.4-1.2.7ZM288.9,368.5c-.4-.2-.9-.3-1.3-.4v-.4c.6.1,1,.3,1.5.5l-.2.4ZM280.8,368.4l-.2-.4c.4-.2.9-.3,1.4-.4v.4c-.3.1-.8.2-1.2.4ZM286.7,367.9c-.5,0-.9-.1-1.4-.2v-.5c.5,0,1,0,1.5.2v.5ZM283,367.8v-.5c.4,0,.9-.1,1.4-.1v.5c-.4,0-.9,0-1.4.1Z"/>
        <g>
          <polygon class="cls-3" points="285.8 385.9 283.6 385.9 282.9 385.1 286.5 385.1 285.8 385.9"/>
          <path class="cls-3" d="M284.3,382.8h.5s-.5,0-.5,0h0ZM284.6,376.9c-.4,0-.8.4-.8.8s.4,1.1.8,1.6h0c.4-.6.8-1.3.8-1.6,0-.4-.4-.8-.8-.8ZM288.4,376.2c-1-2.4-3.7-2.2-3.7-2.2,0,0-2.7-.2-3.7,2.2-.9,2.2,1.8,4.4,1.9,5.1.1.7,0,1.5,0,1.5h1.4v-2.9c-.2-.4-1-1.6-1-2.2s.6-1.3,1.3-1.3,1.3.6,1.3,1.3-.8,1.8-1,2.2v2.9h1.7s0-.8,0-1.5c.1-.7,2.8-2.9,1.9-5.1Z"/>
          <rect class="cls-3" x="282.9" y="383.5" width="3.5" height=".9"/>
          <path class="cls-3" d="M284.7,373.2c-.2,0-.3-.1-.3-.3v-1.9c0-.2.1-.3.3-.3s.3.1.3.3v1.9c0,.2-.1.3-.3.3"/>
          <path class="cls-3" d="M282.6,373.8c0,0-.2,0-.2-.1l-1-1.3c-.1-.1,0-.3,0-.4.1,0,.3,0,.4,0l1,1.3c.1.1,0,.3,0,.4,0,0-.1,0-.2,0"/>
          <path class="cls-3" d="M286.9,373.8c0,0-.1,0-.2,0-.1,0-.2-.3-.1-.4l.8-1.3c0-.1.3-.2.4,0,.1,0,.2.3.1.4l-.8,1.3c0,0-.2.1-.3.1"/>
          <path class="cls-3" d="M288.9,375.3c-.1,0-.2,0-.3-.1,0-.1,0-.3.1-.4l1.4-.7c.1,0,.3,0,.4.1,0,.1,0,.3-.1.4l-1.4.7s0,0-.1,0"/>
          <path class="cls-3" d="M280.5,375.3s0,0-.1,0l-1.4-.7c-.1,0-.2-.2-.1-.4,0-.1.3-.2.4-.1l1.4.7c.1,0,.2.2.1.4,0,0-.2.1-.3.1"/>
        </g>
      </g>
      <g>
        <g>
          <polygon class="cls-10" points="435.4 262.9 435.4 252.7 426.6 247.6 417.8 252.7 417.8 262.9 426.6 268 435.4 262.9"/>
          <g class="cls-13">
            <rect class="cls-5" x="417.8" y="247.6" width="17.7" height="20.4"/>
          </g>
        </g>
        <polygon class="cls-4" points="432.9 261.4 432.9 254.2 426.6 250.5 420.3 254.2 420.3 261.4 426.6 265.1 432.9 261.4"/>
        <g>
          <path class="cls-2" d="M428.8,257.4v-2.8h-1v-.9s-3.2.5-4.4.9v6.1h5.3v-3.3Z"/>
          <rect class="cls-4" x="423.9" y="255" width="4.5" height="5.3"/>
          <path class="cls-3" d="M426,257.3s1-.1,1.7.4h.3s.9-.5,1.8-.4v3.4s-1.2-.1-1.9.6c0,0-.8-.6-1.9-.6v-3.4Z"/>
          <path class="cls-2" d="M426.3,257.8s.9,0,1.3.5v2.5s-1-.6-1.3-.4v-2.6Z"/>
          <path class="cls-2" d="M429.3,257.8s-.9,0-1.3.5v2.5s1-.6,1.3-.4v-2.6Z"/>
        </g>
      </g>
    </g>
  </g>
</svg>