<?xml version="1.0" encoding="UTF-8"?>
<svg xmlns="http://www.w3.org/2000/svg" version="1.1" xmlns:xlink="http://www.w3.org/1999/xlink" viewBox="0 0 300 346.4">
  <defs>
    <style>
      .cls-1 {
        fill: #ee8919;
      }

      .cls-2 {
        fill: #00afec;
      }

      .cls-3 {
        fill: #fff;
      }

      .cls-4 {
        fill: #d3edfb;
      }

      .cls-5 {
        fill: url(#_新增漸層色票_4-2);
      }

      .cls-6 {
        fill: #209bd8;
      }

      .cls-7 {
        isolation: isolate;
      }

      .cls-8 {
        fill: #df007c;
      }

      .cls-9 {
        mix-blend-mode: overlay;
        opacity: .8;
      }

      .cls-10 {
        fill: url(#_新增漸層色票_4);
      }

      .cls-11 {
        fill: #84b526;
      }

      .cls-12 {
        fill: #0078bb;
      }

      .cls-13 {
        clip-path: url(#clippath);
      }
    </style>
    <linearGradient id="_新增漸層色票_4" data-name="新增漸層色票 4" x1="0" y1="173.2" x2="300" y2="173.2" gradientUnits="userSpaceOnUse">
      <stop offset="0" stop-color="#0068b7"/>
      <stop offset=".2" stop-color="#0077c3"/>
      <stop offset=".5" stop-color="#0092d9"/>
      <stop offset=".8" stop-color="#00a3e6"/>
      <stop offset="1" stop-color="#00a9eb"/>
    </linearGradient>
    <clipPath id="clippath">
      <polygon class="cls-10" points="300 259.8 300 86.6 150 0 0 86.6 0 259.8 150 346.4 300 259.8"/>
    </clipPath>
    <linearGradient id="_新增漸層色票_4-2" data-name="新增漸層色票 4" x1="-99.3" y1="423.2" x2="-95.3" y2="423.2" gradientTransform="translate(-36589.3 8619.5) rotate(90) scale(86.8 -86.8)" xlink:href="#_新增漸層色票_4"/>
  </defs>
  <!-- Generator: Adobe Illustrator 28.7.10, SVG Export Plug-In . SVG Version: 1.2.0 Build 236)  -->
  <g class="cls-7">
    <g id="_圖層_1" data-name="圖層_1">
      <circle class="cls-8" cx="150" cy="173.2" r="150"/>
      <path class="cls-8" d="M571.7,471.4c45.6-69.2,138.6-88.3,207.7-42.8,69.2,45.5,88.3,138.6,42.8,207.7-45.6,69.2-138.6,88.3-207.7,42.8-69.2-45.5-88.3-138.6-42.8-207.7"/>
      <g>
        <path class="cls-3" d="M150,297.4h-.6s0-4.9,0-4.9h.5c4.8,0,9.6-.3,14.3-.8l.6,4.9c-4.9.6-9.9.9-14.8.9ZM139.1,296.9c-5.1-.4-10.3-1.2-15.3-2.3l1-4.8c4.8,1,9.8,1.8,14.7,2.2l-.4,4.9ZM175,294.9l-1-4.8c4.8-1,9.6-2.3,14.3-3.9l1.6,4.7c-4.9,1.6-9.9,3-14.9,4ZM113.9,292.1c-4.9-1.5-9.8-3.3-14.5-5.4l2-4.5c4.5,2,9.2,3.8,13.9,5.2l-1.4,4.7ZM199.5,287.1l-2-4.5c4.5-2,9-4.2,13.2-6.8l2.5,4.2c-4.4,2.6-9,5-13.7,7ZM90.2,282.1c-4.5-2.5-8.9-5.3-13-8.3l2.9-4c4,2.9,8.2,5.6,12.5,7.9l-2.4,4.3ZM221.9,274.5l-2.9-4c4-2.9,7.9-6,11.5-9.3l3.3,3.6c-3.8,3.5-7.8,6.7-12,9.7ZM69.1,267.4c-3.9-3.3-7.6-7-11.1-10.8l3.7-3.3c3.3,3.6,6.9,7.1,10.6,10.3l-3.2,3.7ZM241.2,257.5l-3.6-3.3c3.3-3.6,6.5-7.5,9.4-11.5l4,2.9c-3,4.2-6.3,8.2-9.8,12ZM51.4,248.8c-3.1-4.1-6-8.4-8.6-12.8l4.3-2.5c2.5,4.2,5.3,8.4,8.3,12.3l-3.9,3ZM256.6,237l-4.2-2.5c2.5-4.2,4.8-8.7,6.8-13.2l4.5,2c-2.1,4.7-4.5,9.3-7.1,13.7ZM37.9,226.9c-2.2-4.6-4.2-9.4-5.8-14.3l4.7-1.6c1.6,4.7,3.4,9.3,5.6,13.7l-4.4,2.1ZM267.5,213.6l-4.7-1.6c1.6-4.6,2.9-9.5,3.9-14.3l4.8,1c-1.1,5-2.4,10.1-4.1,14.9ZM29.3,202.7c-1.2-5-2.1-10.1-2.7-15.2l4.9-.6c.6,4.9,1.4,9.8,2.6,14.6l-4.8,1.2ZM273.3,188.6l-4.9-.6c.6-4.9.9-9.9.9-14.8s0-5.1-.2-7.7l4.9-.3c.2,2.6.3,5.3.3,8,0,5.1-.3,10.3-.9,15.4ZM25.8,177.2c0-1.3,0-2.7,0-4,0-3.8.2-7.6.5-11.4l4.9.4c-.3,3.6-.5,7.3-.5,11s0,2.6,0,3.8l-4.9.2ZM268,155.7c-.7-4.9-1.8-9.8-3.1-14.5l4.8-1.3c1.4,4.9,2.4,10,3.2,15.1l-4.9.7ZM32.5,152.4l-4.9-.8c.9-5.1,2.1-10.1,3.6-15l4.7,1.5c-1.5,4.7-2.6,9.6-3.5,14.4ZM261.9,131.7c-1.7-4.6-3.7-9.2-6-13.6l4.4-2.3c2.4,4.6,4.5,9.3,6.3,14.1l-4.6,1.7ZM39.3,128.7l-4.6-1.8c1.9-4.8,4.2-9.5,6.7-13.9l4.3,2.4c-2.4,4.3-4.5,8.8-6.4,13.4ZM251,109.6c-2.6-4.2-5.5-8.2-8.7-12l3.8-3.1c3.3,4,6.3,8.2,9,12.5l-4.2,2.6ZM50.8,106.8l-4.1-2.7c2.9-4.3,6-8.4,9.4-12.3l3.7,3.2c-3.2,3.7-6.3,7.7-9,11.8ZM235.7,90.2c-3.4-3.5-7.1-6.9-11-10l3.1-3.8c4,3.2,7.8,6.7,11.4,10.4l-3.5,3.4ZM66.6,87.8l-3.4-3.5c3.7-3.6,7.6-7,11.7-10.1l3,3.9c-3.9,3-7.7,6.2-11.2,9.7ZM216.8,74.3c-4.1-2.8-8.4-5.3-12.8-7.5l2.2-4.4c4.6,2.3,9,5,13.3,7.8l-2.8,4.1ZM86,72.5l-2.7-4.2c4.3-2.8,8.9-5.3,13.5-7.5l2.1,4.5c-4.4,2.1-8.8,4.5-13,7.2ZM195,62.7c-4.6-1.9-9.3-3.5-14.1-4.7l1.3-4.8c5,1.3,9.9,3,14.6,4.9l-1.9,4.6ZM108,61.5l-1.7-4.6c4.8-1.8,9.8-3.3,14.8-4.5l1.1,4.8c-4.8,1.1-9.6,2.6-14.2,4.3ZM171.3,55.8c-4.8-.9-9.8-1.5-14.7-1.7l.3-4.9c5.1.3,10.3.9,15.3,1.8l-.9,4.9ZM131.9,55.2l-.7-4.9c5.1-.8,10.2-1.2,15.4-1.4v4.9c-4.8.1-9.8.6-14.6,1.3Z"/>
        <g>
          <path class="cls-3" d="M108,175.1h23c1.8,0,3.3,1.5,3.3,3.3v65.4c0,1.8-1.5,3.3-3.3,3.3h-23c-1.8,0-3.3-1.5-3.3-3.3v-65.4c0-1.8,1.5-3.3,3.3-3.3Z"/>
          <path class="cls-3" d="M144.7,156.1h23c1.8,0,3.3,1.5,3.3,3.3v84.5c0,1.8-1.5,3.3-3.3,3.3h-23c-1.8,0-3.3-1.5-3.3-3.3v-84.5c0-1.8,1.5-3.3,3.3-3.3Z"/>
          <path class="cls-3" d="M204.3,141.9h-23c-1.8,0-3.3,1.5-3.3,3.3v98.7c0,1.8,1.5,3.3,3.3,3.3h23c1.8,0,3.3-1.5,3.3-3.3v-98.7c0-1.8-1.5-3.3-3.3-3.3Z"/>
        </g>
        <path class="cls-3" d="M219.4,88.8l-29.7,5.8,6.7,8.3-36.3,29.7-50.2,14.6-52.9,66.4c-1.4,1.8-1.1,4.4.7,5.8.8.6,1.7.9,2.6.9s2.4-.5,3.2-1.6l51.2-64.3,49.3-14.3,37.5-30.8,5.9,7.2,11.9-27.8Z"/>
      </g>
      <path class="cls-1" d="M-79.9,593.2c-78.4,26.8-163.6-15-190.4-93.4-26.8-78.4,15-163.6,93.4-190.4,78.4-26.8,163.6,15,190.4,93.4,26.8,78.4-15,163.6-93.4,190.4"/>
      <path class="cls-3" d="M558.2,271.9h-.6s0-4.9,0-4.9h.5c4.8,0,9.6-.3,14.3-.8l.6,4.9c-4.9.6-9.9.9-14.8.9ZM547.4,271.5c-5.1-.4-10.3-1.2-15.3-2.3l1-4.8c4.8,1,9.7,1.8,14.7,2.2l-.4,4.9ZM583.2,269.4l-1-4.8c4.8-1,9.6-2.3,14.3-3.9l1.6,4.7c-4.9,1.6-9.9,3-14.9,4ZM522.1,266.6c-4.9-1.5-9.8-3.3-14.5-5.4l2-4.5c4.5,2,9.2,3.8,13.9,5.2l-1.4,4.7ZM607.8,261.7l-2-4.5c4.5-2,9-4.2,13.2-6.7l2.5,4.2c-4.4,2.6-9,5-13.7,7ZM498.4,256.6c-4.5-2.5-8.9-5.2-13-8.3l2.9-4c4,2.9,8.2,5.6,12.5,7.9l-2.4,4.3ZM630.1,249l-2.9-4c4-2.9,7.9-6,11.5-9.3l3.3,3.6c-3.8,3.5-7.8,6.7-12,9.7ZM477.3,242c-3.9-3.4-7.6-7-11.1-10.8l3.6-3.3c3.3,3.6,6.9,7.1,10.6,10.3l-3.2,3.7ZM649.4,232.1l-3.6-3.3c3.3-3.6,6.5-7.5,9.4-11.5l4,2.9c-3,4.2-6.3,8.2-9.8,12ZM459.7,223.3c-3.1-4.1-6-8.4-8.6-12.8l4.3-2.5c2.5,4.3,5.3,8.4,8.3,12.3l-3.9,3ZM664.8,211.5l-4.2-2.5c2.5-4.2,4.8-8.7,6.8-13.2l4.5,2c-2.1,4.7-4.5,9.3-7.1,13.7ZM446.2,201.4c-2.2-4.6-4.2-9.4-5.8-14.3l4.7-1.6c1.6,4.7,3.4,9.3,5.6,13.7l-4.4,2.1ZM675.7,188.2l-4.7-1.6c1.6-4.7,2.9-9.5,3.9-14.3l4.8,1c-1.1,5-2.4,10-4.1,14.9ZM437.5,177.2c-1.2-5-2.1-10.1-2.7-15.2l4.9-.6c.6,4.9,1.4,9.8,2.6,14.6l-4.8,1.2ZM681.5,163.1l-4.9-.6c.6-4.9.9-9.9.9-14.8,0-2.6,0-5.1-.2-7.7l4.9-.3c.2,2.7.3,5.3.2,8,0,5.1-.3,10.3-.9,15.4ZM434.1,151.7c0-1.3,0-2.7,0-4,0-3.8.2-7.6.5-11.4l4.9.4c-.3,3.6-.5,7.3-.5,11,0,1.3,0,2.6,0,3.8l-4.9.2ZM676.2,130.2c-.7-4.9-1.7-9.8-3.1-14.5l4.7-1.3c1.4,4.9,2.4,10,3.2,15.1l-4.9.7ZM440.8,127l-4.9-.8c.9-5.1,2.1-10.1,3.6-15l4.7,1.5c-1.5,4.7-2.6,9.5-3.5,14.4ZM670.1,106.3c-1.7-4.6-3.7-9.2-6-13.6l4.4-2.3c2.4,4.6,4.5,9.3,6.3,14.1l-4.6,1.7ZM447.5,103.2l-4.6-1.8c1.9-4.8,4.2-9.4,6.7-13.9l4.3,2.4c-2.4,4.3-4.5,8.8-6.4,13.4ZM659.2,84.2c-2.6-4.2-5.5-8.2-8.7-12l3.8-3.1c3.3,4,6.3,8.2,9,12.5l-4.2,2.6ZM459.1,81.4l-4.1-2.7c2.9-4.3,6-8.4,9.4-12.3l3.7,3.2c-3.2,3.7-6.3,7.7-9,11.8ZM643.9,64.8c-3.4-3.5-7.1-6.9-11-10l3.1-3.8c4,3.2,7.8,6.7,11.4,10.4l-3.5,3.4ZM474.9,62.4l-3.4-3.5c3.7-3.6,7.6-7,11.7-10.1l3,3.9c-3.9,3-7.7,6.2-11.2,9.7ZM625,48.9c-4.1-2.8-8.4-5.3-12.8-7.5l2.2-4.4c4.6,2.3,9,5,13.3,7.8l-2.8,4.1ZM494.2,47.1l-2.6-4.2c4.3-2.8,8.9-5.3,13.5-7.5l2.1,4.5c-4.4,2.1-8.8,4.5-13,7.2ZM603.3,37.2c-4.5-1.9-9.3-3.5-14.1-4.7l1.3-4.8c5,1.3,9.9,3,14.6,4.9l-1.9,4.6ZM516.3,36l-1.7-4.6c4.8-1.8,9.8-3.3,14.8-4.5l1.1,4.8c-4.8,1.1-9.6,2.6-14.2,4.3ZM579.6,30.4c-4.8-.9-9.8-1.5-14.7-1.7l.3-4.9c5.1.3,10.3.9,15.3,1.8l-.9,4.8ZM540.2,29.8l-.7-4.9c5.1-.8,10.2-1.2,15.4-1.4v4.9c-4.8.1-9.8.6-14.6,1.3Z"/>
      <g>
        <path class="cls-3" d="M558.2,87.9c33,0,59.8,26.8,59.8,59.8s-26.8,59.8-59.8,59.8-59.8-26.8-59.8-59.8,26.8-59.8,59.8-59.8M558.2,73.1c-41.2,0-74.7,33.4-74.7,74.7s33.4,74.7,74.7,74.7,74.7-33.4,74.7-74.7-33.4-74.7-74.7-74.7"/>
        <path class="cls-3" d="M577.5,177c-1.9,0-3.8-.7-5.2-2.2l-21.5-21.5v-58.6c0-4.1,3.3-7.4,7.4-7.4s7.4,3.3,7.4,7.4v52.4l17.1,17.1c2.9,2.9,2.9,7.6,0,10.5-1.5,1.4-3.4,2.2-5.3,2.2"/>
      </g>
      <g>
        <g>
          <path class="cls-6" d="M8.7,654.9c-50.7-65.5-38.8-159.7,26.7-210.4,65.5-50.7,159.7-38.8,210.4,26.7,50.7,65.5,38.8,159.7-26.7,210.4-65.5,50.7-159.7,38.8-210.4-26.7"/>
          <path class="cls-6" d="M8.7,654.9c-50.7-65.5-38.8-159.7,26.7-210.4,65.5-50.7,159.7-38.8,210.4,26.7,50.7,65.5,38.8,159.7-26.7,210.4-65.5,50.7-159.7,38.8-210.4-26.7Z"/>
        </g>
        <path class="cls-12" d="M8.7,654.9c-50.7-65.5-38.8-159.7,26.7-210.4,65.5-50.7,159.7-38.8,210.4,26.7,50.7,65.5,38.8,159.7-26.7,210.4-65.5,50.7-159.7,38.8-210.4-26.7Z"/>
      </g>
      <g>
        <path class="cls-3" d="M-172.2,268.7h-.6v-4.9h.6c4.8,0,9.6-.3,14.3-.8l.6,4.9c-4.9.6-9.9.9-14.8.9ZM-183.1,268.2c-5.1-.4-10.3-1.2-15.3-2.3l1-4.8c4.8,1,9.8,1.8,14.7,2.2l-.4,4.9ZM-147.2,266.2l-1-4.8c4.8-1,9.7-2.3,14.3-3.9l1.6,4.7c-4.9,1.6-9.9,3-14.9,4ZM-208.3,263.4c-4.9-1.5-9.8-3.3-14.5-5.4l2-4.5c4.5,2,9.2,3.8,13.9,5.2l-1.4,4.7ZM-122.7,258.4l-2-4.5c4.5-2,9-4.2,13.2-6.7l2.5,4.2c-4.4,2.6-9,5-13.7,7ZM-232,253.4c-4.5-2.5-8.9-5.3-13-8.3l2.9-4c4,2.9,8.2,5.6,12.5,7.9l-2.4,4.3ZM-100.3,245.8l-2.9-4c4-2.8,7.9-6,11.5-9.3l3.3,3.6c-3.8,3.5-7.8,6.7-12,9.7ZM-253.2,238.7c-3.9-3.4-7.6-7-11.1-10.8l3.7-3.3c3.3,3.6,6.9,7.1,10.6,10.3l-3.2,3.7ZM-81,228.8l-3.6-3.3c3.4-3.6,6.5-7.5,9.4-11.5l4,2.9c-3,4.2-6.3,8.2-9.8,12ZM-270.8,220c-3.1-4.1-6-8.4-8.6-12.8l4.3-2.5c2.5,4.2,5.3,8.4,8.3,12.3l-3.9,3ZM-65.6,208.2l-4.2-2.5c2.5-4.2,4.8-8.7,6.8-13.2l4.5,2c-2.1,4.7-4.5,9.3-7.1,13.7ZM-284.3,198.1c-2.2-4.6-4.2-9.4-5.8-14.3l4.7-1.6c1.6,4.7,3.4,9.3,5.6,13.7l-4.4,2.1ZM-54.7,184.9l-4.7-1.6c1.6-4.7,2.9-9.5,3.9-14.3l4.8,1c-1.1,5-2.4,10.1-4.1,14.9ZM-292.9,173.9c-1.2-5-2.1-10.1-2.7-15.2l4.9-.6c.6,4.9,1.4,9.8,2.6,14.6l-4.8,1.2ZM-48.9,159.8l-4.9-.6c.6-4.9.9-9.9.9-14.8,0-2.6,0-5.2-.2-7.7l4.9-.3c.2,2.6.3,5.3.3,8,0,5.1-.3,10.3-.9,15.4ZM-296.4,148.5c0-1.3,0-2.7,0-4,0-3.8.2-7.6.5-11.4l4.9.4c-.3,3.6-.5,7.3-.5,11s0,2.6,0,3.9l-4.9.2ZM-54.2,126.9c-.7-4.9-1.7-9.7-3.1-14.5l4.8-1.3c1.4,5,2.5,10,3.2,15.1l-4.9.7ZM-289.7,123.7l-4.9-.9c.9-5.1,2.1-10.1,3.6-15l4.7,1.5c-1.5,4.7-2.6,9.6-3.5,14.4ZM-60.3,103c-1.7-4.6-3.7-9.2-6-13.6l4.4-2.3c2.4,4.5,4.5,9.3,6.3,14.1l-4.6,1.7ZM-282.9,99.9l-4.6-1.8c1.9-4.8,4.2-9.5,6.7-13.9l4.3,2.4c-2.4,4.3-4.5,8.8-6.4,13.4ZM-71.3,80.9c-2.6-4.2-5.5-8.2-8.7-12l3.8-3.1c3.3,4,6.3,8.2,9,12.5l-4.2,2.6ZM-271.4,78.1l-4.1-2.7c2.9-4.3,6-8.4,9.4-12.3l3.7,3.2c-3.2,3.7-6.3,7.7-9,11.8ZM-86.5,61.5c-3.4-3.6-7.1-6.9-11-10l3.1-3.8c4,3.2,7.8,6.7,11.4,10.4l-3.5,3.4ZM-255.6,59.1l-3.4-3.5c3.7-3.6,7.6-7,11.7-10.1l3,3.9c-3.9,3-7.7,6.2-11.2,9.7ZM-105.4,45.6c-4.1-2.8-8.4-5.3-12.8-7.5l2.2-4.4c4.6,2.3,9.1,5,13.3,7.8l-2.8,4.1ZM-236.3,43.8l-2.7-4.2c4.3-2.8,8.9-5.3,13.5-7.5l2.1,4.5c-4.4,2.1-8.8,4.5-13,7.2ZM-127.2,33.9c-4.6-1.9-9.3-3.5-14.1-4.7l1.3-4.8c5,1.3,9.9,3,14.6,4.9l-1.9,4.6ZM-214.2,32.7l-1.7-4.6c4.8-1.8,9.8-3.3,14.8-4.5l1.1,4.8c-4.8,1.1-9.6,2.6-14.2,4.3ZM-150.9,27c-4.8-.9-9.8-1.5-14.7-1.7l.3-4.9c5.1.3,10.3.9,15.3,1.8l-.9,4.9ZM-190.3,26.5l-.7-4.9c5.1-.8,10.2-1.2,15.4-1.4v4.9c-4.8.1-9.8.6-14.6,1.3Z"/>
        <g>
          <path class="cls-3" d="M-176.6,212.5c36.2,0,65.6-29.4,65.6-65.6s-2.8-21.6-7.7-30.8c-.5,0-1.1.1-1.6.1s-.6,0-.9,0l-8.4-.6-6,6c4.6,7.4,7.2,16.1,7.2,25.4,0,26.6-21.6,48.2-48.2,48.2s-48.2-21.6-48.2-48.2,21.6-48.2,48.2-48.2,18,2.7,25.4,7.2l5.4-5.4-.7-9.6c0-.8,0-1.5,0-2.3-9-4.7-19.3-7.3-30.1-7.3-36.2,0-65.6,29.4-65.6,65.6s29.4,65.6,65.6,65.6"/>
          <path class="cls-3" d="M-176.6,129.9c.4,0,.9,0,1.3,0l12.1-12.1.3-.3c-4.1-1.9-8.8-3-13.7-3-17.8,0-32.3,14.5-32.3,32.3s14.5,32.3,32.3,32.3,32.3-14.5,32.3-32.3-1.1-9.5-3-13.7l-.3.3-12.1,12.1c0,.4,0,.9,0,1.3,0,9.4-7.6,17-17,17s-16.9-7.6-16.9-17,7.6-16.9,17-16.9"/>
          <path class="cls-3" d="M-108.8,87.3l3.5-3.5c1.6-1.6,1.6-4.2,0-5.9l-2.5-2.5c-.8-.8-1.9-1.2-2.9-1.2s-2.1.4-2.9,1.2l-4.1,4.1-.8-10.8c0-.8-.7-1.3-1.4-1.3s-.7.1-1,.4l-16,16c-1.4,1.4-2.2,3.4-2,5.5v.6s.8,10,.8,10l-5.8,5.8-10.4,10.4-.2.2-10.1,10.1-4.5,4.5c-.6.6-.9,1.4-1,2.2l-.3,3.5c-.2,2,1.5,3.8,3.5,3.8h.2l3.7-.2c.9,0,1.7-.4,2.3-1l31.4-31.4,9.1.7h.4c.2,0,.4,0,.5,0,1.8,0,3.6-.7,4.9-2l16-16c.8-.8.3-2.3-.9-2.4l-9.7-.8Z"/>
          <g class="cls-9">
            <path class="cls-3" d="M-108.8,87.3l3.5-3.5c1.6-1.6,1.6-4.2,0-5.9l-2.5-2.5c-.8-.8-1.9-1.2-2.9-1.2s-2.1.4-2.9,1.2l-4.1,4.1-.8-10.8c0-.8-.7-1.3-1.4-1.3s-.7.1-1,.4l-16,16c-1.4,1.4-2.2,3.4-2,5.5v.6s.8,10,.8,10l-5.8,5.8-10.4,10.4-.2.2-10.1,10.1-4.5,4.5c-.6.6-.9,1.4-1,2.2l-.3,3.5c-.2,2,1.5,3.8,3.5,3.8h.2l3.7-.2c.9,0,1.7-.4,2.3-1l31.4-31.4,9.1.7h.4c.2,0,.4,0,.5,0,1.8,0,3.6-.7,4.9-2l16-16c.8-.8.3-2.3-.9-2.4l-9.7-.8Z"/>
          </g>
        </g>
      </g>
      <path class="cls-11" d="M479.4,466c80.2,20.7,128.4,102.5,107.7,182.7-20.7,80.2-102.5,128.4-182.7,107.7-80.2-20.7-128.4-102.5-107.7-182.7,20.7-80.2,102.5-128.4,182.7-107.7"/>
      <g>
        <path class="cls-3" d="M358.1,20.5h-.6v-4.9h.6c4.8,0,9.6-.3,14.3-.8l.6,4.9c-4.9.6-9.9.9-14.8.9ZM347.2,20.1c-5.1-.4-10.3-1.2-15.3-2.3l1-4.8c4.8,1,9.7,1.8,14.7,2.2l-.4,4.9ZM383.1,18l-1-4.8c4.8-1,9.7-2.3,14.3-3.9l1.6,4.7c-4.9,1.6-9.9,3-14.9,4ZM322,15.2c-4.9-1.5-9.8-3.3-14.5-5.4l2-4.5c4.5,2,9.2,3.8,13.9,5.2l-1.4,4.7ZM407.6,10.3l-2-4.5c4.5-2,9-4.2,13.2-6.7l2.5,4.2c-4.4,2.6-9,5-13.7,7ZM298.3,5.2c-4.5-2.5-8.9-5.3-13-8.3l2.9-4c4,2.9,8.2,5.6,12.5,7.9l-2.4,4.3ZM430-2.4l-2.9-4c4-2.8,7.9-6,11.5-9.3l3.3,3.6c-3.8,3.5-7.8,6.7-12,9.7ZM277.2-9.4c-3.9-3.4-7.6-7-11.1-10.8l3.6-3.3c3.3,3.6,6.9,7.1,10.6,10.3l-3.2,3.7ZM449.3-19.3l-3.6-3.3c3.4-3.6,6.5-7.5,9.4-11.5l4,2.9c-3,4.2-6.3,8.2-9.8,12ZM259.5-28.1c-3.1-4.1-6-8.4-8.6-12.8l4.3-2.5c2.5,4.2,5.3,8.4,8.3,12.3l-3.9,3ZM464.7-39.9l-4.2-2.5c2.5-4.2,4.8-8.7,6.8-13.2l4.5,2c-2.1,4.7-4.5,9.3-7.1,13.7ZM246.1-50c-2.2-4.6-4.2-9.4-5.8-14.3l4.7-1.6c1.6,4.7,3.4,9.3,5.6,13.7l-4.4,2.1ZM475.6-63.2l-4.7-1.6c1.6-4.7,2.9-9.5,3.9-14.3l4.8,1c-1.1,5-2.4,10.1-4.1,14.9ZM237.4-74.2c-1.2-5-2.1-10.1-2.7-15.2l4.9-.6c.6,4.9,1.4,9.8,2.6,14.6l-4.8,1.2ZM481.4-88.3l-4.9-.6c.6-4.9.9-9.9.9-14.8,0-2.6,0-5.2-.2-7.7l4.9-.3c.2,2.7.3,5.4.2,8,0,5.1-.3,10.3-.9,15.4ZM233.9-99.7c0-1.3,0-2.7,0-4,0-3.8.2-7.6.5-11.4l4.9.4c-.3,3.6-.5,7.3-.5,11,0,1.3,0,2.6,0,3.8l-4.9.2ZM476.1-121.2c-.7-4.9-1.8-9.8-3.1-14.5l4.7-1.3c1.4,4.9,2.4,10,3.2,15.1l-4.9.7ZM240.6-124.5l-4.9-.8c.9-5.1,2.1-10.1,3.6-15l4.7,1.5c-1.5,4.7-2.6,9.6-3.5,14.4ZM470-145.1c-1.7-4.6-3.7-9.2-6-13.6l4.4-2.3c2.4,4.6,4.5,9.3,6.3,14.1l-4.6,1.7ZM247.4-148.2l-4.6-1.8c1.9-4.8,4.2-9.4,6.7-13.9l4.3,2.4c-2.4,4.3-4.5,8.8-6.4,13.4ZM459.1-167.2c-2.6-4.2-5.5-8.2-8.7-12l3.8-3.1c3.3,4,6.3,8.2,9,12.5l-4.2,2.6ZM259-170l-4.1-2.7c2.9-4.3,6-8.4,9.4-12.3l3.7,3.2c-3.2,3.7-6.3,7.7-9,11.8ZM443.8-186.7c-3.4-3.5-7.1-6.9-11-10l3.1-3.8c4,3.2,7.8,6.7,11.4,10.4l-3.5,3.4ZM274.7-189l-3.4-3.5c3.7-3.6,7.6-7,11.7-10.1l3,3.9c-3.9,3-7.7,6.3-11.2,9.7ZM424.9-202.5c-4.1-2.8-8.4-5.3-12.8-7.5l2.2-4.4c4.6,2.3,9,5,13.3,7.8l-2.8,4.1ZM294.1-204.3l-2.6-4.2c4.3-2.8,8.9-5.3,13.5-7.5l2.1,4.5c-4.4,2.1-8.8,4.5-13,7.2ZM403.1-214.2c-4.6-1.9-9.3-3.5-14.1-4.7l1.3-4.8c5,1.3,9.9,3,14.6,4.9l-1.9,4.6ZM316.1-215.4l-1.7-4.6c4.8-1.8,9.8-3.3,14.8-4.5l1.1,4.8c-4.8,1.1-9.6,2.6-14.2,4.3ZM379.4-221.1c-4.8-.9-9.8-1.5-14.7-1.7l.3-4.9c5.1.3,10.3.9,15.3,1.8l-.9,4.9ZM340-221.6l-.7-4.9c5.1-.8,10.2-1.2,15.4-1.4v4.9c-4.8.1-9.8.6-14.6,1.3Z"/>
        <g>
          <polygon class="cls-3" points="370 -27.9 346.1 -27.9 338.9 -36.5 377.3 -36.5 370 -27.9"/>
          <path class="cls-3" d="M354.3-60.8h4.9c0-.1-4.9-.1-4.9-.1h0ZM356.8-124c-4.7,0-8.5,3.8-8.5,8.5s4.4,11.4,8.3,17.7h.5c3.9-6.2,8.3-14.4,8.3-17.7,0-4.7-3.8-8.5-8.5-8.5ZM397.7-132.1c-10.4-26.2-39.7-24.1-39.7-24.1,0,0-29.3-2.1-39.7,24.1-9.4,23.7,19,47,20.3,54.9,1.4,7.9.5,16.2.5,16.2h15.2v-31.1c-2.6-3.9-11-17.2-11-23.4s6-13.5,13.5-13.5,13.5,6,13.5,13.5-8.4,19.4-11,23.3v31.1h17.7s-.9-8.3.5-16.2c1.4-7.9,29.7-31.2,20.3-54.9Z"/>
          <rect class="cls-3" x="339.1" y="-53.4" width="37.9" height="9.2"/>
          <path class="cls-3" d="M358-163.6c-1.8,0-3.2-1.3-3.2-3v-20.4c0-1.7,1.5-3,3.2-3s3.2,1.3,3.2,3v20.4c0,1.7-1.4,3-3.2,3"/>
          <path class="cls-3" d="M336.2-157.5c-1,0-2-.4-2.6-1.2l-11-13.5c-1.1-1.3-.8-3.2.6-4.2,1.4-1,3.5-.7,4.5.6l11.1,13.5c1.1,1.3.8,3.2-.6,4.2-.6.4-1.3.6-2,.6"/>
          <path class="cls-3" d="M382.1-157.5c-.6,0-1.1-.1-1.7-.4-1.5-.8-2-2.7-1.1-4.1l8.8-13.5c.9-1.4,2.9-1.9,4.5-1,1.5.9,2,2.7,1.1,4.1l-8.8,13.5c-.6.9-1.7,1.5-2.8,1.5"/>
          <path class="cls-3" d="M403.1-141c-1.1,0-2.3-.6-2.8-1.5-.9-1.4-.3-3.3,1.3-4.1l14.9-7.6c1.6-.8,3.5-.3,4.4,1.2.9,1.5.3,3.3-1.3,4.1l-14.9,7.6c-.5.3-1,.4-1.6.4"/>
          <path class="cls-3" d="M313-141c-.5,0-1.1-.1-1.6-.4l-14.9-7.6c-1.6-.8-2.1-2.6-1.3-4.1.9-1.4,2.8-2,4.4-1.2l14.9,7.6c1.6.8,2.1,2.6,1.3,4.1-.6,1-1.7,1.5-2.8,1.5"/>
        </g>
      </g>
      <g>
        <g>
          <polygon class="cls-10" points="300 259.8 300 86.6 150 0 0 86.6 0 259.8 150 346.4 300 259.8"/>
          <g class="cls-13">
            <rect class="cls-5" x="0" width="300" height="346.4"/>
          </g>
        </g>
        <polygon class="cls-4" points="257.1 235.1 257.1 111.4 150 49.5 42.9 111.4 42.9 235.1 150 296.9 257.1 235.1"/>
        <g>
          <path class="cls-2" d="M187.7,166.7v-48h-16.8v-14.6s-55.1,8.5-74.1,15.4v103.8h90.9v-56.5Z"/>
          <rect class="cls-4" x="103.9" y="125.3" width="76.5" height="90.9"/>
          <path class="cls-3" d="M139.3,165.3s16.6-2.4,29.7,7.6h4.4s16.1-8.1,30.9-7.3v57.5s-20.2-1.7-32.4,10.5c0,0-13.2-10.7-32.9-10.5l.2-57.7Z"/>
          <path class="cls-2" d="M145.8,172.6s15.1-.7,22.4,8v43.1s-16.3-10-22.4-6.6v-44.6Z"/>
          <path class="cls-2" d="M196.8,172.8s-15.1-.7-22.4,8v43.1s16.3-10,22.4-6.6v-44.6Z"/>
        </g>
      </g>
    </g>
  </g>
</svg>