<?xml version="1.0" encoding="UTF-8"?>
<svg xmlns="http://www.w3.org/2000/svg" version="1.1" xmlns:xlink="http://www.w3.org/1999/xlink" viewBox="0 0 300 300">
  <defs>
    <style>
      .cls-1 {
        fill: #ee8919;
      }

      .cls-2 {
        fill: #00afec;
      }

      .cls-3 {
        fill: #fff;
      }

      .cls-4 {
        fill: #d3edfb;
      }

      .cls-5 {
        fill: url(#_新增漸層色票_4-2);
      }

      .cls-6 {
        fill: #209bd8;
      }

      .cls-7 {
        isolation: isolate;
      }

      .cls-8 {
        fill: #df007c;
      }

      .cls-9 {
        mix-blend-mode: overlay;
        opacity: .8;
      }

      .cls-10 {
        fill: url(#_新增漸層色票_4);
      }

      .cls-11 {
        fill: #84b526;
      }

      .cls-12 {
        fill: #0078bb;
      }

      .cls-13 {
        clip-path: url(#clippath);
      }
    </style>
    <linearGradient id="_新增漸層色票_4" data-name="新增漸層色票 4" x1="779" y1="440.8" x2="1079" y2="440.8" gradientUnits="userSpaceOnUse">
      <stop offset="0" stop-color="#0068b7"/>
      <stop offset=".2" stop-color="#0077c3"/>
      <stop offset=".5" stop-color="#0092d9"/>
      <stop offset=".8" stop-color="#00a3e6"/>
      <stop offset="1" stop-color="#00a9eb"/>
    </linearGradient>
    <clipPath id="clippath">
      <polygon class="cls-10" points="1079 527.4 1079 354.2 929 267.6 779 354.2 779 527.4 929 614 1079 527.4"/>
    </clipPath>
    <linearGradient id="_新增漸層色票_4-2" data-name="新增漸層色票 4" x1="-95.9" y1="409" x2="-92" y2="409" gradientTransform="translate(-34574.8 8596.3) rotate(90) scale(86.8 -86.8)" xlink:href="#_新增漸層色票_4"/>
  </defs>
  <!-- Generator: Adobe Illustrator 28.7.10, SVG Export Plug-In . SVG Version: 1.2.0 Build 236)  -->
  <g class="cls-7">
    <g id="_圖層_1" data-name="圖層_1">
      <circle class="cls-12" cx="150" cy="150" r="150"/>
      <g>
        <g>
          <path class="cls-8" d="M571.7,448.2c45.6-69.2,138.6-88.3,207.7-42.8,69.2,45.5,88.3,138.6,42.8,207.7-45.6,69.2-138.6,88.3-207.7,42.8-69.2-45.5-88.3-138.6-42.8-207.7"/>
          <path class="cls-3" d="M697,654.9h-.6s0-4.9,0-4.9h.5c4.8,0,9.6-.3,14.3-.8l.6,4.9c-4.9.6-9.9.9-14.8.9ZM686.2,654.5c-5.1-.4-10.3-1.2-15.3-2.3l1-4.8c4.8,1,9.8,1.8,14.7,2.2l-.4,4.9ZM722,652.4l-1-4.8c4.8-1,9.6-2.3,14.3-3.9l1.6,4.7c-4.9,1.6-9.9,3-14.9,4ZM660.9,649.6c-4.9-1.5-9.8-3.3-14.5-5.4l2-4.5c4.5,2,9.2,3.8,13.9,5.2l-1.4,4.7ZM746.5,644.7l-2-4.5c4.5-2,9-4.2,13.2-6.8l2.5,4.2c-4.4,2.6-9,5-13.7,7ZM637.2,639.6c-4.5-2.5-8.9-5.3-13-8.3l2.9-4c4,2.9,8.2,5.6,12.5,7.9l-2.4,4.3ZM768.9,632l-2.9-4c4-2.9,7.9-6,11.5-9.3l3.3,3.6c-3.8,3.5-7.8,6.7-12,9.7ZM616.1,625c-3.9-3.3-7.6-7-11.1-10.8l3.7-3.3c3.3,3.6,6.9,7.1,10.6,10.3l-3.2,3.7ZM788.2,615.1l-3.6-3.3c3.3-3.6,6.5-7.5,9.4-11.5l4,2.9c-3,4.2-6.3,8.2-9.8,12ZM598.4,606.3c-3.1-4.1-6-8.4-8.6-12.8l4.3-2.5c2.5,4.2,5.3,8.4,8.3,12.3l-3.9,3ZM803.6,594.5l-4.2-2.5c2.5-4.2,4.8-8.7,6.8-13.2l4.5,2c-2.1,4.7-4.5,9.3-7.1,13.7ZM585,584.4c-2.2-4.6-4.2-9.4-5.8-14.3l4.7-1.6c1.6,4.7,3.4,9.3,5.6,13.7l-4.4,2.1ZM814.5,571.2l-4.7-1.6c1.6-4.6,2.9-9.5,3.9-14.3l4.8,1c-1.1,5-2.4,10.1-4.1,14.9ZM576.3,560.2c-1.2-5-2.1-10.1-2.7-15.2l4.9-.6c.6,4.9,1.4,9.8,2.6,14.6l-4.8,1.2ZM820.3,546.1l-4.9-.6c.6-4.9.9-9.9.9-14.8s0-5.1-.2-7.7l4.9-.3c.2,2.6.3,5.3.3,8,0,5.1-.3,10.3-.9,15.4ZM572.9,534.7c0-1.3,0-2.7,0-4,0-3.8.2-7.6.5-11.4l4.9.4c-.3,3.6-.5,7.3-.5,11s0,2.6,0,3.8l-4.9.2ZM815,513.2c-.7-4.9-1.8-9.8-3.1-14.5l4.8-1.3c1.4,4.9,2.4,10,3.2,15.1l-4.9.7ZM579.5,509.9l-4.9-.8c.9-5.1,2.1-10.1,3.6-15l4.7,1.5c-1.5,4.7-2.6,9.6-3.5,14.4ZM808.9,489.3c-1.7-4.6-3.7-9.2-6-13.6l4.4-2.3c2.4,4.6,4.5,9.3,6.3,14.1l-4.6,1.7ZM586.3,486.2l-4.6-1.8c1.9-4.8,4.2-9.5,6.7-13.9l4.3,2.4c-2.4,4.3-4.5,8.8-6.4,13.4ZM798,467.1c-2.6-4.2-5.5-8.2-8.7-12l3.8-3.1c3.3,4,6.3,8.2,9,12.5l-4.2,2.6ZM597.9,464.4l-4.1-2.7c2.9-4.3,6-8.4,9.4-12.3l3.7,3.2c-3.2,3.7-6.3,7.7-9,11.8ZM782.7,447.7c-3.4-3.5-7.1-6.9-11-10l3.1-3.8c4,3.2,7.8,6.7,11.4,10.4l-3.5,3.4ZM613.6,445.4l-3.4-3.5c3.7-3.6,7.6-7,11.7-10.1l3,3.9c-3.9,3-7.7,6.2-11.2,9.7ZM763.8,431.8c-4.1-2.8-8.4-5.3-12.8-7.5l2.2-4.4c4.6,2.3,9,5,13.3,7.8l-2.8,4.1ZM633,430l-2.7-4.2c4.3-2.8,8.9-5.3,13.5-7.5l2.1,4.5c-4.4,2.1-8.8,4.5-13,7.2ZM742,420.2c-4.6-1.9-9.3-3.5-14.1-4.7l1.3-4.8c5,1.3,9.9,3,14.6,4.9l-1.9,4.6ZM655.1,419l-1.7-4.6c4.8-1.8,9.8-3.3,14.8-4.5l1.1,4.8c-4.8,1.1-9.6,2.6-14.2,4.3ZM718.3,413.3c-4.8-.9-9.8-1.5-14.7-1.7l.3-4.9c5.1.3,10.3.9,15.3,1.8l-.9,4.9ZM678.9,412.8l-.7-4.9c5.1-.8,10.2-1.2,15.4-1.4v4.9c-4.8.1-9.8.6-14.6,1.3Z"/>
        </g>
        <g>
          <path class="cls-3" d="M655,532.7h23c1.8,0,3.3,1.5,3.3,3.3v65.4c0,1.8-1.5,3.3-3.3,3.3h-23c-1.8,0-3.3-1.5-3.3-3.3v-65.4c0-1.8,1.5-3.3,3.3-3.3Z"/>
          <path class="cls-3" d="M691.7,513.6h23c1.8,0,3.3,1.5,3.3,3.3v84.5c0,1.8-1.5,3.3-3.3,3.3h-23c-1.8,0-3.3-1.5-3.3-3.3v-84.5c0-1.8,1.5-3.3,3.3-3.3Z"/>
          <path class="cls-3" d="M751.3,499.4h-23c-1.8,0-3.3,1.5-3.3,3.3v98.7c0,1.8,1.5,3.3,3.3,3.3h23c1.8,0,3.3-1.5,3.3-3.3v-98.7c0-1.8-1.5-3.3-3.3-3.3Z"/>
        </g>
        <path class="cls-3" d="M766.4,446.3l-29.7,5.8,6.7,8.3-36.3,29.7-50.2,14.6-52.9,66.4c-1.4,1.8-1.1,4.4.7,5.8.8.6,1.7.9,2.6.9s2.4-.5,3.2-1.6l51.2-64.3,49.3-14.3,37.5-30.8,5.9,7.2,11.9-27.8Z"/>
      </g>
      <path class="cls-1" d="M-79.9,570c-78.4,26.8-163.6-15-190.4-93.4-26.8-78.4,15-163.6,93.4-190.4,78.4-26.8,163.6,15,190.4,93.4,26.8,78.4-15,163.6-93.4,190.4"/>
      <path class="cls-3" d="M558.2,248.7h-.6s0-4.9,0-4.9h.5c4.8,0,9.6-.3,14.3-.8l.6,4.9c-4.9.6-9.9.9-14.8.9ZM547.4,248.3c-5.1-.4-10.3-1.2-15.3-2.3l1-4.8c4.8,1,9.7,1.8,14.7,2.2l-.4,4.9ZM583.2,246.2l-1-4.8c4.8-1,9.6-2.3,14.3-3.9l1.6,4.7c-4.9,1.6-9.9,3-14.9,4ZM522.1,243.4c-4.9-1.5-9.8-3.3-14.5-5.4l2-4.5c4.5,2,9.2,3.8,13.9,5.2l-1.4,4.7ZM607.8,238.5l-2-4.5c4.5-2,9-4.2,13.2-6.7l2.5,4.2c-4.4,2.6-9,5-13.7,7ZM498.4,233.4c-4.5-2.5-8.9-5.2-13-8.3l2.9-4c4,2.9,8.2,5.6,12.5,7.9l-2.4,4.3ZM630.1,225.8l-2.9-4c4-2.9,7.9-6,11.5-9.3l3.3,3.6c-3.8,3.5-7.8,6.7-12,9.7ZM477.3,218.8c-3.9-3.4-7.6-7-11.1-10.8l3.6-3.3c3.3,3.6,6.9,7.1,10.6,10.3l-3.2,3.7ZM649.4,208.9l-3.6-3.3c3.3-3.6,6.5-7.5,9.4-11.5l4,2.9c-3,4.2-6.3,8.2-9.8,12ZM459.7,200.1c-3.1-4.1-6-8.4-8.6-12.8l4.3-2.5c2.5,4.3,5.3,8.4,8.3,12.3l-3.9,3ZM664.8,188.3l-4.2-2.5c2.5-4.2,4.8-8.7,6.8-13.2l4.5,2c-2.1,4.7-4.5,9.3-7.1,13.7ZM446.2,178.2c-2.2-4.6-4.2-9.4-5.8-14.3l4.7-1.6c1.6,4.7,3.4,9.3,5.6,13.7l-4.4,2.1ZM675.7,165l-4.7-1.6c1.6-4.7,2.9-9.5,3.9-14.3l4.8,1c-1.1,5-2.4,10-4.1,14.9ZM437.5,154c-1.2-5-2.1-10.1-2.7-15.2l4.9-.6c.6,4.9,1.4,9.8,2.6,14.6l-4.8,1.2ZM681.5,139.9l-4.9-.6c.6-4.9.9-9.9.9-14.8,0-2.6,0-5.1-.2-7.7l4.9-.3c.2,2.7.3,5.3.2,8,0,5.1-.3,10.3-.9,15.4ZM434.1,128.5c0-1.3,0-2.7,0-4,0-3.8.2-7.6.5-11.4l4.9.4c-.3,3.6-.5,7.3-.5,11,0,1.3,0,2.6,0,3.8l-4.9.2ZM676.2,107c-.7-4.9-1.7-9.8-3.1-14.5l4.7-1.3c1.4,4.9,2.4,10,3.2,15.1l-4.9.7ZM440.8,103.7l-4.9-.8c.9-5.1,2.1-10.1,3.6-15l4.7,1.5c-1.5,4.7-2.6,9.5-3.5,14.4ZM670.1,83.1c-1.7-4.6-3.7-9.2-6-13.6l4.4-2.3c2.4,4.6,4.5,9.3,6.3,14.1l-4.6,1.7ZM447.5,80l-4.6-1.8c1.9-4.8,4.2-9.4,6.7-13.9l4.3,2.4c-2.4,4.3-4.5,8.8-6.4,13.4ZM659.2,61c-2.6-4.2-5.5-8.2-8.7-12l3.8-3.1c3.3,4,6.3,8.2,9,12.5l-4.2,2.6ZM459.1,58.2l-4.1-2.7c2.9-4.3,6-8.4,9.4-12.3l3.7,3.2c-3.2,3.7-6.3,7.7-9,11.8ZM643.9,41.6c-3.4-3.5-7.1-6.9-11-10l3.1-3.8c4,3.2,7.8,6.7,11.4,10.4l-3.5,3.4ZM474.9,39.2l-3.4-3.5c3.7-3.6,7.6-7,11.7-10.1l3,3.9c-3.9,3-7.7,6.2-11.2,9.7ZM625,25.7c-4.1-2.8-8.4-5.3-12.8-7.5l2.2-4.4c4.6,2.3,9,5,13.3,7.8l-2.8,4.1ZM494.2,23.9l-2.6-4.2c4.3-2.8,8.9-5.3,13.5-7.5l2.1,4.5c-4.4,2.1-8.8,4.5-13,7.2ZM603.3,14c-4.5-1.9-9.3-3.5-14.1-4.7l1.3-4.8c5,1.3,9.9,3,14.6,4.9l-1.9,4.6ZM516.3,12.8l-1.7-4.6c4.8-1.8,9.8-3.3,14.8-4.5l1.1,4.8c-4.8,1.1-9.6,2.6-14.2,4.3ZM579.6,7.1c-4.8-.9-9.8-1.5-14.7-1.7l.3-4.9c5.1.3,10.3.9,15.3,1.8l-.9,4.8ZM540.2,6.6l-.7-4.9c5.1-.8,10.2-1.2,15.4-1.4v4.9c-4.8.1-9.8.6-14.6,1.3Z"/>
      <g>
        <path class="cls-3" d="M558.2,64.7c33,0,59.8,26.8,59.8,59.8s-26.8,59.8-59.8,59.8-59.8-26.8-59.8-59.8,26.8-59.8,59.8-59.8M558.2,49.9c-41.2,0-74.7,33.4-74.7,74.7s33.4,74.7,74.7,74.7,74.7-33.4,74.7-74.7-33.4-74.7-74.7-74.7"/>
        <path class="cls-3" d="M577.5,153.8c-1.9,0-3.8-.7-5.2-2.2l-21.5-21.5v-58.6c0-4.1,3.3-7.4,7.4-7.4s7.4,3.3,7.4,7.4v52.4l17.1,17.1c2.9,2.9,2.9,7.6,0,10.5-1.5,1.4-3.4,2.2-5.3,2.2"/>
      </g>
      <g>
        <g>
          <path class="cls-6" d="M8.7,631.7c-50.7-65.5-38.8-159.7,26.7-210.4,65.5-50.7,159.7-38.8,210.4,26.7,50.7,65.5,38.8,159.7-26.7,210.4-65.5,50.7-159.7,38.8-210.4-26.7"/>
          <path class="cls-6" d="M8.7,631.7c-50.7-65.5-38.8-159.7,26.7-210.4,65.5-50.7,159.7-38.8,210.4,26.7,50.7,65.5,38.8,159.7-26.7,210.4-65.5,50.7-159.7,38.8-210.4-26.7Z"/>
        </g>
        <path class="cls-12" d="M8.7,631.7c-50.7-65.5-38.8-159.7,26.7-210.4,65.5-50.7,159.7-38.8,210.4,26.7,50.7,65.5,38.8,159.7-26.7,210.4-65.5,50.7-159.7,38.8-210.4-26.7Z"/>
      </g>
      <g>
        <path class="cls-3" d="M150,274.2h-.6v-4.9h.6c4.8,0,9.6-.3,14.3-.8l.6,4.9c-4.9.6-9.9.9-14.8.9ZM139.2,273.7c-5.1-.4-10.3-1.2-15.3-2.3l1-4.8c4.8,1,9.8,1.8,14.7,2.2l-.4,4.9ZM175,271.7l-1-4.8c4.8-1,9.7-2.3,14.3-3.9l1.6,4.7c-4.9,1.6-9.9,3-14.9,4ZM113.9,268.9c-4.9-1.5-9.8-3.3-14.5-5.4l2-4.5c4.5,2,9.2,3.8,13.9,5.2l-1.4,4.7ZM199.5,263.9l-2-4.5c4.5-2,9-4.2,13.2-6.7l2.5,4.2c-4.4,2.6-9,5-13.7,7ZM90.2,258.9c-4.5-2.5-8.9-5.3-13-8.3l2.9-4c4,2.9,8.2,5.6,12.5,7.9l-2.4,4.3ZM221.9,251.3l-2.9-4c4-2.8,7.9-6,11.5-9.3l3.3,3.6c-3.8,3.5-7.8,6.7-12,9.7ZM69.1,244.2c-3.9-3.4-7.6-7-11.1-10.8l3.7-3.3c3.3,3.6,6.9,7.1,10.6,10.3l-3.2,3.7ZM241.2,234.3l-3.6-3.3c3.4-3.6,6.5-7.5,9.4-11.5l4,2.9c-3,4.2-6.3,8.2-9.8,12ZM51.4,225.6c-3.1-4.1-6-8.4-8.6-12.8l4.3-2.5c2.5,4.2,5.3,8.4,8.3,12.3l-3.9,3ZM256.6,213.8l-4.2-2.5c2.5-4.2,4.8-8.7,6.8-13.2l4.5,2c-2.1,4.7-4.5,9.3-7.1,13.7ZM37.9,203.7c-2.2-4.6-4.2-9.4-5.8-14.3l4.7-1.6c1.6,4.7,3.4,9.3,5.6,13.7l-4.4,2.1ZM267.5,190.4l-4.7-1.6c1.6-4.7,2.9-9.5,3.9-14.3l4.8,1c-1.1,5-2.4,10.1-4.1,14.9ZM29.3,179.5c-1.2-5-2.1-10.1-2.7-15.2l4.9-.6c.6,4.9,1.4,9.8,2.6,14.6l-4.8,1.2ZM273.3,165.4l-4.9-.6c.6-4.9.9-9.9.9-14.8,0-2.6,0-5.2-.2-7.7l4.9-.3c.2,2.6.3,5.3.3,8,0,5.1-.3,10.3-.9,15.4ZM25.8,154c0-1.3,0-2.7,0-4,0-3.8.2-7.6.5-11.4l4.9.4c-.3,3.6-.5,7.3-.5,11s0,2.6,0,3.9l-4.9.2ZM268,132.4c-.7-4.9-1.7-9.7-3.1-14.5l4.8-1.3c1.4,5,2.5,10,3.2,15.1l-4.9.7ZM32.5,129.2l-4.9-.9c.9-5.1,2.1-10.1,3.6-15l4.7,1.5c-1.5,4.7-2.6,9.6-3.5,14.4ZM261.9,108.5c-1.7-4.6-3.7-9.2-6-13.6l4.4-2.3c2.4,4.5,4.5,9.3,6.3,14.1l-4.6,1.7ZM39.3,105.5l-4.6-1.8c1.9-4.8,4.2-9.5,6.7-13.9l4.3,2.4c-2.4,4.3-4.5,8.8-6.4,13.4ZM251,86.4c-2.6-4.2-5.5-8.2-8.7-12l3.8-3.1c3.3,4,6.3,8.2,9,12.5l-4.2,2.6ZM50.8,83.6l-4.1-2.7c2.9-4.3,6-8.4,9.4-12.3l3.7,3.2c-3.2,3.7-6.3,7.7-9,11.8ZM235.7,67c-3.4-3.6-7.1-6.9-11-10l3.1-3.8c4,3.2,7.8,6.7,11.4,10.4l-3.5,3.4ZM66.6,64.6l-3.4-3.5c3.7-3.6,7.6-7,11.7-10.1l3,3.9c-3.9,3-7.7,6.2-11.2,9.7ZM216.8,51.1c-4.1-2.8-8.4-5.3-12.8-7.5l2.2-4.4c4.6,2.3,9.1,5,13.3,7.8l-2.8,4.1ZM86,49.3l-2.7-4.2c4.3-2.8,8.9-5.3,13.5-7.5l2.1,4.5c-4.4,2.1-8.8,4.5-13,7.2ZM195,39.5c-4.6-1.9-9.3-3.5-14.1-4.7l1.3-4.8c5,1.3,9.9,3,14.6,4.9l-1.9,4.6ZM108,38.3l-1.7-4.6c4.8-1.8,9.8-3.3,14.8-4.5l1.1,4.8c-4.8,1.1-9.6,2.6-14.2,4.3ZM171.3,32.6c-4.8-.9-9.8-1.5-14.7-1.7l.3-4.9c5.1.3,10.3.9,15.3,1.8l-.9,4.9ZM131.9,32l-.7-4.9c5.1-.8,10.2-1.2,15.4-1.4v4.9c-4.8.1-9.8.6-14.6,1.3Z"/>
        <g>
          <path class="cls-3" d="M145.7,218c36.2,0,65.6-29.4,65.6-65.6s-2.8-21.6-7.7-30.8c-.5,0-1.1.1-1.6.1s-.6,0-.9,0l-8.4-.6-6,6c4.6,7.4,7.2,16.1,7.2,25.4,0,26.6-21.6,48.2-48.2,48.2s-48.2-21.6-48.2-48.2,21.6-48.2,48.2-48.2,18,2.7,25.4,7.2l5.4-5.4-.7-9.6c0-.8,0-1.5,0-2.3-9-4.7-19.3-7.3-30.1-7.3-36.2,0-65.6,29.4-65.6,65.6s29.4,65.6,65.6,65.6"/>
          <path class="cls-3" d="M145.7,135.4c.4,0,.9,0,1.3,0l12.1-12.1.3-.3c-4.1-1.9-8.8-3-13.7-3-17.8,0-32.3,14.5-32.3,32.3s14.5,32.3,32.3,32.3,32.3-14.5,32.3-32.3-1.1-9.5-3-13.7l-.3.3-12.1,12.1c0,.4,0,.9,0,1.3,0,9.4-7.6,17-17,17s-16.9-7.6-16.9-17,7.6-16.9,17-16.9"/>
          <path class="cls-3" d="M213.5,92.9l3.5-3.5c1.6-1.6,1.6-4.2,0-5.9l-2.5-2.5c-.8-.8-1.9-1.2-2.9-1.2s-2.1.4-2.9,1.2l-4.1,4.1-.8-10.8c0-.8-.7-1.3-1.4-1.3s-.7.1-1,.4l-16,16c-1.4,1.4-2.2,3.4-2,5.5v.6s.8,10,.8,10l-5.8,5.8-10.4,10.4-.2.2-10.1,10.1-4.5,4.5c-.6.6-.9,1.4-1,2.2l-.3,3.5c-.2,2,1.5,3.8,3.5,3.8h.2l3.7-.2c.9,0,1.7-.4,2.3-1l31.4-31.4,9.1.7h.4c.2,0,.4,0,.5,0,1.8,0,3.6-.7,4.9-2l16-16c.8-.8.3-2.3-.9-2.4l-9.7-.8Z"/>
          <g class="cls-9">
            <path class="cls-3" d="M213.5,92.9l3.5-3.5c1.6-1.6,1.6-4.2,0-5.9l-2.5-2.5c-.8-.8-1.9-1.2-2.9-1.2s-2.1.4-2.9,1.2l-4.1,4.1-.8-10.8c0-.8-.7-1.3-1.4-1.3s-.7.1-1,.4l-16,16c-1.4,1.4-2.2,3.4-2,5.5v.6s.8,10,.8,10l-5.8,5.8-10.4,10.4-.2.2-10.1,10.1-4.5,4.5c-.6.6-.9,1.4-1,2.2l-.3,3.5c-.2,2,1.5,3.8,3.5,3.8h.2l3.7-.2c.9,0,1.7-.4,2.3-1l31.4-31.4,9.1.7h.4c.2,0,.4,0,.5,0,1.8,0,3.6-.7,4.9-2l16-16c.8-.8.3-2.3-.9-2.4l-9.7-.8Z"/>
          </g>
        </g>
      </g>
      <g>
        <path class="cls-11" d="M479.4,442.8c80.2,20.7,128.4,102.5,107.7,182.7-20.7,80.2-102.5,128.4-182.7,107.7-80.2-20.7-128.4-102.5-107.7-182.7,20.7-80.2,102.5-128.4,182.7-107.7"/>
        <path class="cls-3" d="M441.9,712.2h-.6v-4.9h.6c4.8,0,9.6-.3,14.3-.8l.6,4.9c-4.9.6-9.9.9-14.8.9ZM431,711.7c-5.1-.4-10.3-1.2-15.3-2.3l1-4.8c4.8,1,9.7,1.8,14.7,2.2l-.4,4.9ZM466.9,709.7l-1-4.8c4.8-1,9.7-2.3,14.3-3.9l1.6,4.7c-4.9,1.6-9.9,3-14.9,4ZM405.8,706.9c-4.9-1.5-9.8-3.3-14.5-5.4l2-4.5c4.5,2,9.2,3.8,13.9,5.2l-1.4,4.7ZM491.4,701.9l-2-4.5c4.5-2,9-4.2,13.2-6.7l2.5,4.2c-4.4,2.6-9,5-13.7,7ZM382.1,696.9c-4.5-2.5-8.9-5.3-13-8.3l2.9-4c4,2.9,8.2,5.6,12.5,7.9l-2.4,4.3ZM513.8,689.3l-2.9-4c4-2.8,7.9-6,11.5-9.3l3.3,3.6c-3.8,3.5-7.8,6.7-12,9.7ZM361,682.2c-3.9-3.4-7.6-7-11.1-10.8l3.6-3.3c3.3,3.6,6.9,7.1,10.6,10.3l-3.2,3.7ZM533.1,672.3l-3.6-3.3c3.4-3.6,6.5-7.5,9.4-11.5l4,2.9c-3,4.2-6.3,8.2-9.8,12ZM343.3,663.5c-3.1-4.1-6-8.4-8.6-12.8l4.3-2.5c2.5,4.2,5.3,8.4,8.3,12.3l-3.9,3ZM548.5,651.7l-4.2-2.5c2.5-4.2,4.8-8.7,6.8-13.2l4.5,2c-2.1,4.7-4.5,9.3-7.1,13.7ZM329.8,641.7c-2.2-4.6-4.2-9.4-5.8-14.3l4.7-1.6c1.6,4.7,3.4,9.3,5.6,13.7l-4.4,2.1ZM559.4,628.4l-4.7-1.6c1.6-4.7,2.9-9.5,3.9-14.3l4.8,1c-1.1,5-2.4,10.1-4.1,14.9ZM321.2,617.4c-1.2-5-2.1-10.1-2.7-15.2l4.9-.6c.6,4.9,1.4,9.8,2.6,14.6l-4.8,1.2ZM565.2,603.4l-4.9-.6c.6-4.9.9-9.9.9-14.8,0-2.6,0-5.2-.2-7.7l4.9-.3c.2,2.7.3,5.4.2,8,0,5.1-.3,10.3-.9,15.4ZM317.7,592c0-1.3,0-2.7,0-4,0-3.8.2-7.6.5-11.4l4.9.4c-.3,3.6-.5,7.3-.5,11,0,1.3,0,2.6,0,3.8l-4.9.2ZM559.9,570.4c-.7-4.9-1.8-9.8-3.1-14.5l4.7-1.3c1.4,4.9,2.4,10,3.2,15.1l-4.9.7ZM324.4,567.2l-4.9-.8c.9-5.1,2.1-10.1,3.6-15l4.7,1.5c-1.5,4.7-2.6,9.6-3.5,14.4ZM553.8,546.5c-1.7-4.6-3.7-9.2-6-13.6l4.4-2.3c2.4,4.6,4.5,9.3,6.3,14.1l-4.6,1.7ZM331.2,543.5l-4.6-1.8c1.9-4.8,4.2-9.4,6.7-13.9l4.3,2.4c-2.4,4.3-4.5,8.8-6.4,13.4ZM542.8,524.4c-2.6-4.2-5.5-8.2-8.7-12l3.8-3.1c3.3,4,6.3,8.2,9,12.5l-4.2,2.6ZM342.7,521.6l-4.1-2.7c2.9-4.3,6-8.4,9.4-12.3l3.7,3.2c-3.2,3.7-6.3,7.7-9,11.8ZM527.6,505c-3.4-3.5-7.1-6.9-11-10l3.1-3.8c4,3.2,7.8,6.7,11.4,10.4l-3.5,3.4ZM358.5,502.6l-3.4-3.5c3.7-3.6,7.6-7,11.7-10.1l3,3.9c-3.9,3-7.7,6.3-11.2,9.7ZM508.7,489.1c-4.1-2.8-8.4-5.3-12.8-7.5l2.2-4.4c4.6,2.3,9,5,13.3,7.8l-2.8,4.1ZM377.9,487.3l-2.6-4.2c4.3-2.8,8.9-5.3,13.5-7.5l2.1,4.5c-4.4,2.1-8.8,4.5-13,7.2ZM486.9,477.5c-4.6-1.9-9.3-3.5-14.1-4.7l1.3-4.8c5,1.3,9.9,3,14.6,4.9l-1.9,4.6ZM399.9,476.3l-1.7-4.6c4.8-1.8,9.8-3.3,14.8-4.5l1.1,4.8c-4.8,1.1-9.6,2.6-14.2,4.3ZM463.2,470.6c-4.8-.9-9.8-1.5-14.7-1.7l.3-4.9c5.1.3,10.3.9,15.3,1.8l-.9,4.9ZM423.8,470l-.7-4.9c5.1-.8,10.2-1.2,15.4-1.4v4.9c-4.8.1-9.8.6-14.6,1.3Z"/>
        <g>
          <polygon class="cls-3" points="453.8 663.8 429.9 663.8 422.6 655.1 461.1 655.1 453.8 663.8"/>
          <path class="cls-3" d="M438.1,630.8h4.9c0-.1-4.9-.1-4.9-.1h0ZM440.6,567.7c-4.7,0-8.5,3.8-8.5,8.5s4.4,11.4,8.3,17.7h.5c3.9-6.2,8.3-14.4,8.3-17.7,0-4.7-3.8-8.5-8.5-8.5ZM481.5,559.6c-10.4-26.2-39.7-24.1-39.7-24.1,0,0-29.3-2.1-39.7,24.1-9.4,23.7,19,47,20.3,54.9,1.4,7.9.5,16.2.5,16.2h15.2v-31.1c-2.6-3.9-11-17.2-11-23.4s6-13.5,13.5-13.5,13.5,6,13.5,13.5-8.4,19.4-11,23.3v31.1h17.7s-.9-8.3.5-16.2c1.4-7.9,29.7-31.2,20.3-54.9Z"/>
          <rect class="cls-3" x="422.9" y="638.2" width="37.9" height="9.2"/>
          <path class="cls-3" d="M441.8,528c-1.8,0-3.2-1.3-3.2-3v-20.4c0-1.7,1.5-3,3.2-3s3.2,1.3,3.2,3v20.4c0,1.7-1.4,3-3.2,3"/>
          <path class="cls-3" d="M420,534.1c-1,0-2-.4-2.6-1.2l-11-13.5c-1.1-1.3-.8-3.2.6-4.2,1.4-1,3.5-.7,4.5.6l11.1,13.5c1.1,1.3.8,3.2-.6,4.2-.6.4-1.3.6-2,.6"/>
          <path class="cls-3" d="M465.9,534.1c-.6,0-1.1-.1-1.7-.4-1.5-.8-2-2.7-1.1-4.1l8.8-13.5c.9-1.4,2.9-1.9,4.5-1,1.5.9,2,2.7,1.1,4.1l-8.8,13.5c-.6.9-1.7,1.5-2.8,1.5"/>
          <path class="cls-3" d="M486.9,550.6c-1.1,0-2.3-.6-2.8-1.5-.9-1.4-.3-3.3,1.3-4.1l14.9-7.6c1.6-.8,3.5-.3,4.4,1.2.9,1.5.3,3.3-1.3,4.1l-14.9,7.6c-.5.3-1,.4-1.6.4"/>
          <path class="cls-3" d="M396.8,550.6c-.5,0-1.1-.1-1.6-.4l-14.9-7.6c-1.6-.8-2.1-2.6-1.3-4.1.9-1.4,2.8-2,4.4-1.2l14.9,7.6c1.6.8,2.1,2.6,1.3,4.1-.6,1-1.7,1.5-2.8,1.5"/>
        </g>
      </g>
      <g>
        <g>
          <polygon class="cls-10" points="1079 527.4 1079 354.2 929 267.6 779 354.2 779 527.4 929 614 1079 527.4"/>
          <g class="cls-13">
            <rect class="cls-5" x="779" y="267.6" width="300" height="346.4"/>
          </g>
        </g>
        <polygon class="cls-4" points="1036.2 502.7 1036.2 379 929 317.1 821.9 379 821.9 502.7 929 564.5 1036.2 502.7"/>
        <g>
          <path class="cls-2" d="M966.8,434.3v-48h-16.8v-14.6s-55.1,8.5-74.1,15.4v103.8h90.9v-56.5Z"/>
          <rect class="cls-4" x="882.9" y="392.9" width="76.5" height="90.9"/>
          <path class="cls-3" d="M918.3,432.9s16.6-2.4,29.7,7.6h4.4s16.1-8.1,30.9-7.3v57.5s-20.2-1.7-32.4,10.5c0,0-13.2-10.7-32.9-10.5l.2-57.7Z"/>
          <path class="cls-2" d="M924.8,440.2s15.1-.7,22.4,8v43.1s-16.3-10-22.4-6.6v-44.6Z"/>
          <path class="cls-2" d="M975.8,440.4s-15.1-.7-22.4,8v43.1s16.3-10,22.4-6.6v-44.6Z"/>
        </g>
      </g>
    </g>
  </g>
</svg>