<?xml version="1.0" encoding="utf-8"?>
<!-- Generator: Adobe Illustrator 26.5.0, SVG Export Plug-In . SVG Version: 6.00 Build 0)  -->
<svg version="1.1" id="圖層_1" xmlns="http://www.w3.org/2000/svg" xmlns:xlink="http://www.w3.org/1999/xlink" x="0px" y="0px"
	 viewBox="0 0 75 75" style="enable-background:new 0 0 75 75;" xml:space="preserve">
<style type="text/css">
	.st0{opacity:0.3;}
	.st1{fill:#6C2F8D;}
	.st2{fill:none;}
	.st3{fill:#4EC1E6;}
	.st4{opacity:0.2;}
	.st5{fill:#FFFFFF;}
	.st6{fill:#2883BE;}
</style>
<g>
	<g class="st0">
		<g>
			<path class="st1" d="M37.5,64.8c-16.9,0-30.6-13.1-31.8-29.6c-0.1,0.8-0.1,1.5-0.1,2.3c0,17.7,14.3,32,32,32s32-14.3,32-32
				c0-0.8-0.1-1.6-0.1-2.3C68.2,51.7,54.4,64.8,37.5,64.8"/>
			<rect x="5.5" y="35.2" class="st2" width="63.9" height="34.3"/>
		</g>
	</g>
	<path class="st3" d="M75,37.5C75,58.2,58.2,75,37.5,75S0,58.2,0,37.5S16.8,0,37.5,0S75,16.8,75,37.5"/>
	<g class="st4">
		<g>
			<path class="st5" d="M37.5,3.3c20.2,0,36.6,15.9,37.4,35.9c0-0.5,0.1-1.1,0.1-1.6C75,16.8,58.2,0,37.5,0S0,16.8,0,37.5
				c0,0.6,0.1,1.1,0.1,1.6C0.9,19.2,17.3,3.3,37.5,3.3"/>
			<rect class="st2" width="75" height="39.1"/>
		</g>
	</g>
	<path class="st6" d="M69.5,37.5c0,17.7-14.3,32-32,32s-32-14.3-32-32s14.3-32,32-32S69.5,19.8,69.5,37.5"/>
</g>
<g>
	<g>
		<path class="st5" d="M39.8,18.9H20c-1.3,0-2.4,1.1-2.4,2.4v25.6c0,1.3,1.1,2.4,2.4,2.4h19.7c1.3,0,2.4-1.1,2.4-2.4V21.3
			C42.2,20,41.1,18.9,39.8,18.9z M20,20.7h19.7c0.3,0,0.6,0.3,0.6,0.6v4.6H19.5v-4.6C19.5,21,19.7,20.7,20,20.7z M39.8,47.5H20
			c-0.3,0-0.6-0.3-0.6-0.6V27.2h20.9V47C40.3,47.2,40.1,47.5,39.8,47.5z"/>
		<path class="st5" d="M38.1,32H21.7c-0.5,0-0.8,0.3-0.8,0.6s0.4,0.6,0.8,0.6h16.4c0.4,0,0.8-0.3,0.8-0.6C38.9,32.2,38.6,32,38.1,32
			z"/>
		<path class="st5" d="M38.1,37.2H21.7c-0.5,0-0.8,0.3-0.8,0.6s0.4,0.6,0.8,0.6h16.4c0.4,0,0.8-0.3,0.8-0.6
			C38.9,37.5,38.6,37.2,38.1,37.2z"/>
		<path class="st5" d="M38.1,43.1H21.7c-0.5,0-0.8,0.3-0.8,0.6s0.4,0.6,0.8,0.6h16.4c0.4,0,0.8-0.3,0.8-0.6
			C38.9,43.3,38.6,43.1,38.1,43.1z"/>
	</g>
	<g>
		<path class="st6" d="M54.6,41.3c0,6.7-5.4,12.1-12.1,12.1h-0.3c-6.7,0-12.1-5.4-12.1-12.1V41c0-6.7,5.4-12.1,12.1-12.1h0.3
			c6.7,0,12.1,5.4,12.1,12.1V41.3z"/>
		<g>
			<path class="st5" d="M56.7,52.6l-5.1-5.1c-0.8,1.2-1.8,2.2-2.9,2.9l5.1,5.1c0.8,0.8,2.1,0.8,2.9,0C57.6,54.8,57.6,53.5,56.7,52.6
				"/>
			<path class="st5" d="M56.5,41c0-7.9-6.4-14.4-14.4-14.4c-7.9,0-14.4,6.4-14.4,14.4c0,7.9,6.4,14.4,14.4,14.4
				C50.1,55.3,56.5,49,56.5,41 M42.2,51.8c-5.9,0-10.8-4.8-10.8-10.8c0-5.9,4.8-10.8,10.8-10.8C48.1,30.3,53,35,53,41
				C52.9,47,48.1,51.8,42.2,51.8"/>
			<path class="st5" d="M33.6,38.8h1.8c0-2.5,2.1-4.6,4.6-4.6v-1.8C36.5,32.5,33.6,35.3,33.6,38.8"/>
		</g>
		<g>
			<rect x="36.8" y="40.1" class="st5" width="11.9" height="2"/>
		</g>
		<g>
			<rect x="36.8" y="45.5" class="st5" width="5.6" height="2"/>
		</g>
	</g>
</g>
</svg>
