<?xml version="1.0" encoding="utf-8"?>
<!-- Generator: Adobe Illustrator 26.5.0, SVG Export Plug-In . SVG Version: 6.00 Build 0)  -->
<svg version="1.1" id="圖層_1" xmlns="http://www.w3.org/2000/svg" xmlns:xlink="http://www.w3.org/1999/xlink" x="0px" y="0px"
	 viewBox="0 0 75 75" style="enable-background:new 0 0 75 75;" xml:space="preserve">
<style type="text/css">
	.st0{fill:#D89DAB;}
	.st1{fill:#D4655C;}
	.st2{opacity:0.4;}
	.st3{fill:#FFFFFF;}
	.st4{fill:none;}
</style>
<g>
	<path class="st0" d="M75,37.5C75,58.2,58.2,75,37.5,75S0,58.2,0,37.5S16.8,0,37.5,0S75,16.8,75,37.5"/>
	<path class="st1" d="M69.5,37.5c0,17.7-14.3,32-32,32s-32-14.3-32-32s14.3-32,32-32S69.5,19.8,69.5,37.5"/>
	<g class="st2">
		<g>
			<path class="st3" d="M37.5,3.3c20.2,0,36.6,15.9,37.4,35.9c0-0.5,0.1-1.1,0.1-1.6C75,16.8,58.2,0,37.5,0S0,16.8,0,37.5
				c0,0.6,0.1,1.1,0.1,1.6C0.9,19.2,17.3,3.3,37.5,3.3"/>
			<rect class="st4" width="75" height="39.1"/>
		</g>
	</g>
</g>
<g>
	<g>
		<path class="st3" d="M42.8,18.5H23.1c-1.3,0-2.4,1.1-2.4,2.4v25.6c0,1.3,1.1,2.4,2.4,2.4h19.7c1.3,0,2.4-1.1,2.4-2.4V20.9
			C45.2,19.6,44.2,18.5,42.8,18.5z M23.1,20.3h19.7c0.3,0,0.6,0.3,0.6,0.6v4.6H22.5v-4.6C22.5,20.6,22.8,20.3,23.1,20.3z M42.8,47.1
			H23.1c-0.3,0-0.6-0.3-0.6-0.6V26.8h20.9v19.8C43.4,47,43.2,47.1,42.8,47.1z"/>
		<path class="st3" d="M41.2,31.6H24.8c-0.5,0-0.8,0.3-0.8,0.6c0,0.3,0.4,0.6,0.8,0.6h16.4c0.5,0,0.8-0.3,0.8-0.6
			C42,31.9,41.6,31.6,41.2,31.6z"/>
		<path class="st3" d="M41.2,37H24.8c-0.5,0-0.8,0.3-0.8,0.6s0.4,0.6,0.8,0.6h16.4c0.5,0,0.8-0.3,0.8-0.6C42,37.2,41.6,37,41.2,37z"
			/>
		<path class="st3" d="M41.2,42.8H24.8c-0.5,0-0.8,0.3-0.8,0.6s0.4,0.6,0.8,0.6h16.4c0.5,0,0.8-0.3,0.8-0.6
			C42,43,41.6,42.8,41.2,42.8z"/>
	</g>
	<g>
		<rect x="26" y="23.5" class="st1" width="23" height="27.7"/>
		<g>
			<path class="st3" d="M47.4,22.3H27.6c-1.3,0-2.4,1.1-2.4,2.4v25.6c0,1.3,1.1,2.4,2.4,2.4h19.7c1.3,0,2.4-1.1,2.4-2.4V24.8
				C49.8,23.4,48.7,22.3,47.4,22.3z M27.6,24.1h19.7c0.3,0,0.6,0.3,0.6,0.6v4.6H27.1v-4.6C27.1,24.4,27.3,24.1,27.6,24.1z M47.4,51
				H27.6c-0.3,0-0.6-0.3-0.6-0.6V30.5h20.9v19.8C47.9,50.6,47.7,51,47.4,51z"/>
			<path class="st3" d="M45.7,35.5H29.3c-0.5,0-0.8,0.3-0.8,0.6s0.4,0.6,0.8,0.6h16.4c0.4,0,0.8-0.3,0.8-0.6
				C46.5,35.8,46.2,35.5,45.7,35.5z"/>
			<path class="st3" d="M45.7,40.8H29.3c-0.5,0-0.8,0.3-0.8,0.6s0.4,0.6,0.8,0.6h16.4c0.4,0,0.8-0.3,0.8-0.6
				C46.5,41,46.2,40.8,45.7,40.8z"/>
			<path class="st3" d="M45.7,46.5H29.3c-0.5,0-0.8,0.3-0.8,0.6s0.4,0.6,0.8,0.6h16.4c0.4,0,0.8-0.3,0.8-0.6
				C46.5,46.8,46.2,46.5,45.7,46.5z"/>
		</g>
	</g>
	<g>
		<rect x="30.5" y="27.3" class="st1" width="23" height="27.7"/>
		<g>
			<path class="st3" d="M51.9,26H32.2c-1.3,0-2.4,1.1-2.4,2.4V54c0,1.3,1.1,2.4,2.4,2.4h19.7c1.3,0,2.4-1.1,2.4-2.4V28.4
				C54.3,27.1,53.2,26,51.9,26z M32.2,27.9h19.7c0.3,0,0.6,0.3,0.6,0.6v4.6H31.6v-4.6C31.6,28.1,31.8,27.9,32.2,27.9z M51.9,54.8
				H32.2c-0.3,0-0.6-0.3-0.6-0.6V34.3h20.9v19.8C52.4,54.5,52.2,54.8,51.9,54.8z"/>
			<path class="st3" d="M50.2,39.2H33.8c-0.5,0-0.8,0.3-0.8,0.6s0.4,0.6,0.8,0.6h16.4c0.4,0,0.8-0.3,0.8-0.6
				C51,39.5,50.7,39.2,50.2,39.2z"/>
			<path class="st3" d="M50.2,44.5H33.8c-0.5,0-0.8,0.3-0.8,0.6s0.4,0.6,0.8,0.6h16.4c0.4,0,0.8-0.3,0.8-0.6S50.7,44.5,50.2,44.5z"
				/>
			<path class="st3" d="M50.2,50.3H33.8c-0.5,0-0.8,0.3-0.8,0.6s0.4,0.6,0.8,0.6h16.4c0.4,0,0.8-0.3,0.8-0.6
				C51,50.6,50.7,50.3,50.2,50.3z"/>
		</g>
	</g>
</g>
</svg>
