<?xml version="1.0" encoding="utf-8"?>
<!-- Generator: Adobe Illustrator 26.5.0, SVG Export Plug-In . SVG Version: 6.00 Build 0)  -->
<svg version="1.1" id="圖層_1" xmlns="http://www.w3.org/2000/svg" xmlns:xlink="http://www.w3.org/1999/xlink" x="0px" y="0px"
	 viewBox="0 0 75 75" style="enable-background:new 0 0 75 75;" xml:space="preserve">
<style type="text/css">
	.st0{fill:#93C980;}
	.st1{fill:#3F9979;}
	.st2{opacity:0.4;}
	.st3{fill:#FFFFFF;}
	.st4{fill:none;}
	.st5{fill:#F5F5F5;}
</style>
<g>
	<path class="st0" d="M75,37.5C75,58.2,58.2,75,37.5,75S0,58.2,0,37.5S16.8,0,37.5,0S75,16.8,75,37.5"/>
	<path class="st1" d="M69.5,37.5c0,17.7-14.3,32-32,32s-32-14.3-32-32s14.3-32,32-32S69.5,19.8,69.5,37.5"/>
	<g class="st2">
		<g>
			<path class="st3" d="M37.5,3.3c20.2,0,36.6,15.9,37.4,35.9c0-0.5,0.1-1.1,0.1-1.6C75,16.8,58.2,0,37.5,0S0,16.8,0,37.5
				c0,0.6,0.1,1.1,0.1,1.6C0.9,19.2,17.3,3.3,37.5,3.3"/>
			<rect class="st4" width="75" height="39.1"/>
		</g>
	</g>
</g>
<g>
	<g>
		<path class="st3" d="M42.2,32.3c-6.3,0-11.4,5.1-11.4,11.4s5.1,11.4,11.4,11.4S53.6,50,53.6,43.7H42.2V32.3z"/>
		<path class="st3" d="M57.1,41.9H44V28.8h0.8C51.6,28.8,57,34.3,57,41C57.1,41.1,57.1,41.9,57.1,41.9z M45.7,40.2h9.7
			c-0.4-5.2-4.5-9.3-9.7-9.7V40.2z"/>
	</g>
	<g>
		<rect x="20.5" y="23.1" class="st5" width="16.2" height="0.8"/>
		<rect x="20.5" y="26" class="st5" width="16.2" height="0.8"/>
		<rect x="20.5" y="28.9" class="st5" width="16.2" height="0.8"/>
		<rect x="20.5" y="31.8" class="st5" width="16.2" height="0.8"/>
		<rect x="20.5" y="34.7" class="st5" width="16.2" height="0.8"/>
		<rect x="20.5" y="37.6" class="st5" width="16.2" height="0.8"/>
		<rect x="20.5" y="40.5" class="st5" width="8.4" height="0.8"/>
		<g>
			<path class="st5" d="M38.7,40.7V21.2c0-0.6-0.5-1-1-1H19.2c-0.6,0-1,0.4-1,1v25.2c0,0.6,0.4,1,1,1h12.9l0.4-0.5l0.3-0.3l5-5
				l0.4-0.4L38.7,40.7L38.7,40.7L38.7,40.7z M32.7,40.7c-0.3,0-0.5,0.2-0.5,0.5v5.3h-13c-0.1,0-0.2-0.1-0.2-0.2V21.2
				c0-0.1,0.1-0.2,0.2-0.2h18.5c0.1,0,0.2,0.1,0.2,0.2v19.5H32.7z"/>
			<path class="st5" d="M32.2,47.7h-13c-0.7,0-1.3-0.6-1.3-1.3V21.2c0-0.7,0.6-1.3,1.3-1.3h18.5c0.7,0,1.3,0.6,1.3,1.3v19.4
				c0,0.1,0,0.2-0.1,0.3l-6.6,6.7C32.3,47.7,32.2,47.7,32.2,47.7z M19.2,20.5c-0.4,0-0.7,0.3-0.7,0.7v25.2c0,0.4,0.3,0.7,0.7,0.7H32
				l0.2-0.2l0,0h-13c-0.3,0-0.5-0.2-0.5-0.5V21.2c0-0.3,0.2-0.5,0.5-0.5h18.5c0.3,0,0.5,0.2,0.5,0.5v19.5v0.1l0.2-0.2V21.2
				c0-0.4-0.3-0.7-0.7-0.7H19.2L19.2,20.5z M32.7,41c-0.1,0-0.2,0.1-0.2,0.2v5.3l0,0L38,41h-0.1H32.7z M19.4,46.3h12.5v-5
				c0-0.5,0.4-0.9,0.9-0.9h4.9V21.3H19.4V46.3z"/>
		</g>
	</g>
</g>
</svg>
