<?xml version="1.0" encoding="utf-8"?>
<!-- Generator: Adobe Illustrator 26.5.3, SVG Export Plug-In . SVG Version: 6.00 Build 0)  -->
<svg version="1.1" id="圖層_1" xmlns="http://www.w3.org/2000/svg" xmlns:xlink="http://www.w3.org/1999/xlink" x="0px" y="0px"
	 viewBox="0 0 300 81.8" style="enable-background:new 0 0 300 81.8;" xml:space="preserve">
<style type="text/css">
	.st0{fill-rule:evenodd;clip-rule:evenodd;}
</style>
<g>
	<g>
		<path d="M78.5,0c-2.5,1.9-2.1,6-0.7,9.2c1.1-2.2,3.8-2.8,3.5-6.4C80.7,1.6,79.8,0.6,78.5,0z"/>
		<path d="M105.4,28.3c2.1-6.3,6.1-13,4.9-20.5c-11-1.5-19.1,5.8-24,12.7c8.6-2,11.7-9.5,21.2-10.6c0.8,6.1-2,14.5-6.4,17.7
			c-1.4-1.1-5.1-2.3-7.1-0.7c-0.4,3.7,5.1,4.4,3.5,7.1c-0.9,3.9-6.8,2-9.2,2.8c3.3,6.6,10.4,0.1,14.1-1.4c5.5,2,13.6,13.4,20.5,4.9
			C117.4,35.9,108.1,35.4,105.4,28.3z"/>
		<path d="M77.1,39.6c-1.7-5.5,0-15.3-0.7-19.8c-0.9,0-1-0.9-2.1-0.7c-3.7,7.5-5.3,26.7,3.5,29.7c2.3-2.7,3.2-10.4,2.1-14.1
			C79.5,36.8,79.7,39.6,77.1,39.6z"/>
		<g>
			<g>
				<path class="st0" d="M227.7,6.6c1.5,0.5-1.9,6.1-4.6,5.9c-4.1-0.4-8.8,1.2-10.9,4.5c-3,4.7-1.7,11.2-3.5,21.3
					c6.4,2.8,12.9,1.2,16.7-1.1c5.1-3,2.5,4.1,1.7,4.7c-4.9,3.9-13,2.3-20.9,3.6c-7.4,1.2,2.2-29.8,1.1-31c-1.3-1.5-5.2-1-5.8-2.9
					c0.4-1.8,0.2-3.2,3.1-3.1C211.5,8.7,221.3,5.5,227.7,6.6z"/>
				<path class="st0" d="M189.4,5.1c2.9,1.6,5.9,6.3,3.8,10.5c-0.5,1-1.1,1.2-2,0.9C190.7,16.4,184.5,11.7,189.4,5.1z"/>
				<path class="st0" d="M187.9,23.9c4.9,2.3,4.2,10.4,6,15.8c4.2-3.8,4.8-11.3,9-15c-3.3,7.5-3.4,18.1-9,23.3
					C185.9,45.9,188.1,31.6,187.9,23.9z"/>
			</g>
			<g>
				<path class="st0" d="M176.2,6.6c-5.3-8.8-19.4-3.1-23.3,3.2c6.9,0.4,9.8-3,15.3-4c2.6,11.4-3.4,27.3,2.4,39.4
					c-4.6,0.3-7.5-5.3-10.5-4c2.9,4.4,8.2,9.6,14.5,8c2.8-5.9-2.6-10.3-3.2-16.1C170.3,23.8,175.5,15.8,176.2,6.6z"/>
				<path class="st0" d="M165.2,19.4c-1.1-6.4-9.2-1.4-13.7-1.6C153,26.2,160.4,22.2,165.2,19.4z"/>
				<path class="st0" d="M166,25.9c-5-4.3-11.7,1-16.9,1.6c0.2,4.1,1,7.6,3.2,9.7C161.1,37.6,165.5,33.7,166,25.9z M154.7,33.1
					c0.1-1.4-1-1.7-0.8-3.2c2.8-0.1,3.6-2.3,6.4-2.4C159.2,30.1,158,32.6,154.7,33.1z"/>
				<path class="st0" d="M143.4,23.4c-3.8-2.5-6.4,1-10.6,1c0-0.1,0.1-0.3,0.3-0.5c0.9-0.9,3.4-3.4,7.4-4.9c3.9-1.5,10.1-2.9,10.2-6
					c0-0.2,0-0.4,0-0.6c-0.2-6-6.1-6.4-12.1-6.7c-0.4,4.4,7.8,6.1,3.2,9.7c-2.5,1.8-10.2,6-10.5,8.8c0,0.3,0,0.7,0,0.9
					c0.2,1.9,1,3.1,1.6,4.7c1.4,0.5,4.7-1,4.8,0.8c0.7,6.4-3.7,10.9,0.8,14.5c6.8-2.9,7.6-16,8.8-21.7c-2.1,2.2-2.7,5.9-4.8,8
					C142.2,27.5,145,26.3,143.4,23.4z"/>
			</g>
		</g>
	</g>
	<g>
		<g>
			<path d="M8.5,74.5l1.5,0.4c-0.3,1.2-0.9,2.2-1.7,2.8c-0.8,0.6-1.8,1-3,1c-1.2,0-2.2-0.2-3-0.7c-0.8-0.5-1.3-1.2-1.7-2.2
				c-0.4-0.9-0.6-2-0.6-3c0-1.2,0.2-2.2,0.7-3.1c0.5-0.9,1.1-1.5,1.9-2c0.8-0.5,1.8-0.7,2.8-0.7c1.1,0,2.1,0.3,2.9,0.9
				s1.3,1.4,1.6,2.4l-1.5,0.3c-0.3-0.8-0.6-1.4-1.1-1.8c-0.5-0.4-1.1-0.6-1.9-0.6c-0.9,0-1.6,0.2-2.2,0.6c-0.6,0.4-1,1-1.2,1.7
				c-0.2,0.7-0.4,1.4-0.4,2.2c0,1,0.1,1.8,0.4,2.5c0.3,0.7,0.7,1.3,1.3,1.6c0.6,0.4,1.2,0.5,1.9,0.5c0.8,0,1.6-0.2,2.1-0.7
				S8.3,75.4,8.5,74.5z"/>
			<path d="M11.7,78.4V67.1h1.4v4.1c0.7-0.8,1.5-1.1,2.5-1.1c0.6,0,1.1,0.1,1.6,0.4c0.4,0.2,0.8,0.6,1,1c0.2,0.4,0.3,1,0.3,1.8v5.2
				H17v-5.2c0-0.7-0.2-1.2-0.5-1.5c-0.3-0.3-0.7-0.5-1.3-0.5c-0.4,0-0.8,0.1-1.2,0.3c-0.4,0.2-0.6,0.5-0.8,0.9
				c-0.2,0.4-0.2,0.9-0.2,1.5v4.5H11.7z"/>
			<path d="M20.5,68.7v-1.6h1.4v1.6H20.5z M20.5,78.4v-8.2h1.4v8.2H20.5z"/>
			<path d="M24,78.4v-8.2h1.3v1.2c0.6-0.9,1.5-1.4,2.6-1.4c0.5,0,1,0.1,1.4,0.3c0.4,0.2,0.7,0.4,0.9,0.7c0.2,0.3,0.4,0.6,0.4,1
				c0.1,0.3,0.1,0.7,0.1,1.4v5.1h-1.4v-5c0-0.6-0.1-1-0.2-1.3c-0.1-0.3-0.3-0.5-0.6-0.7c-0.3-0.2-0.6-0.3-1-0.3
				c-0.6,0-1.1,0.2-1.5,0.6c-0.4,0.4-0.6,1.1-0.6,2.1v4.5H24z"/>
			<path d="M38.5,75.8l1.4,0.2c-0.2,0.8-0.6,1.5-1.3,2c-0.6,0.5-1.4,0.7-2.4,0.7c-1.2,0-2.2-0.4-2.9-1.1c-0.7-0.7-1.1-1.8-1.1-3.1
				c0-1.4,0.4-2.5,1.1-3.2c0.7-0.8,1.6-1.1,2.8-1.1c1.1,0,2,0.4,2.7,1.1c0.7,0.7,1,1.8,1,3.2c0,0.1,0,0.2,0,0.4h-6.1
				c0.1,0.9,0.3,1.6,0.8,2.1c0.5,0.5,1,0.7,1.7,0.7c0.5,0,0.9-0.1,1.3-0.4C38,76.8,38.3,76.4,38.5,75.8z M33.9,73.5h4.6
				c-0.1-0.7-0.2-1.2-0.5-1.6c-0.4-0.5-1-0.8-1.7-0.8c-0.6,0-1.2,0.2-1.6,0.6C34.2,72.2,34,72.8,33.9,73.5z"/>
			<path d="M41.1,76l1.4-0.2c0.1,0.6,0.3,1,0.6,1.3c0.4,0.3,0.8,0.4,1.5,0.4c0.6,0,1.1-0.1,1.4-0.4c0.3-0.3,0.5-0.6,0.5-0.9
				c0-0.3-0.1-0.6-0.4-0.7c-0.2-0.1-0.7-0.3-1.4-0.5c-1-0.3-1.7-0.5-2.1-0.7c-0.4-0.2-0.7-0.4-0.9-0.8c-0.2-0.3-0.3-0.7-0.3-1.1
				c0-0.4,0.1-0.7,0.3-1c0.2-0.3,0.4-0.6,0.7-0.8c0.2-0.2,0.5-0.3,0.9-0.4c0.4-0.1,0.8-0.2,1.2-0.2c0.6,0,1.2,0.1,1.7,0.3
				c0.5,0.2,0.8,0.4,1.1,0.8c0.2,0.3,0.4,0.7,0.5,1.3l-1.4,0.2c-0.1-0.4-0.2-0.8-0.5-1c-0.3-0.2-0.7-0.4-1.3-0.4
				c-0.6,0-1.1,0.1-1.4,0.3s-0.4,0.5-0.4,0.7c0,0.2,0.1,0.3,0.2,0.5c0.1,0.1,0.3,0.3,0.5,0.4c0.1,0.1,0.5,0.2,1.2,0.4
				c1,0.3,1.7,0.5,2.1,0.6s0.7,0.4,0.9,0.7c0.2,0.3,0.3,0.7,0.3,1.2c0,0.5-0.1,0.9-0.4,1.3c-0.3,0.4-0.7,0.7-1.2,1
				c-0.5,0.2-1.1,0.3-1.7,0.3c-1.1,0-1.9-0.2-2.4-0.7C41.6,77.5,41.3,76.8,41.1,76z"/>
			<path d="M55.2,75.8l1.4,0.2c-0.2,0.8-0.6,1.5-1.3,2c-0.6,0.5-1.4,0.7-2.4,0.7c-1.2,0-2.2-0.4-2.9-1.1c-0.7-0.7-1.1-1.8-1.1-3.1
				c0-1.4,0.4-2.5,1.1-3.2c0.7-0.8,1.6-1.1,2.8-1.1c1.1,0,2,0.4,2.7,1.1c0.7,0.7,1,1.8,1,3.2c0,0.1,0,0.2,0,0.4h-6.1
				c0.1,0.9,0.3,1.6,0.8,2.1c0.5,0.5,1,0.7,1.7,0.7c0.5,0,0.9-0.1,1.3-0.4C54.7,76.8,55,76.4,55.2,75.8z M50.7,73.5h4.6
				c-0.1-0.7-0.2-1.2-0.5-1.6c-0.4-0.5-1-0.8-1.7-0.8c-0.6,0-1.2,0.2-1.6,0.6C51,72.2,50.7,72.8,50.7,73.5z"/>
		</g>
		<g>
			<path d="M66.3,78.4l-4.4-11.4h1.6l2.9,8.2c0.2,0.7,0.4,1.3,0.6,1.9c0.2-0.6,0.4-1.2,0.6-1.9l3.1-8.2h1.5l-4.4,11.4H66.3z"/>
		</g>
		<g>
			<path d="M72,74.3c0-1.5,0.4-2.7,1.3-3.4c0.7-0.6,1.6-0.9,2.6-0.9c1.1,0,2.1,0.4,2.8,1.1s1.1,1.8,1.1,3.1c0,1.1-0.2,1.9-0.5,2.5
				c-0.3,0.6-0.8,1.1-1.4,1.4c-0.6,0.3-1.3,0.5-2,0.5c-1.2,0-2.1-0.4-2.8-1.1S72,75.7,72,74.3z M73.5,74.3c0,1.1,0.2,1.8,0.7,2.4
				c0.5,0.5,1,0.8,1.7,0.8c0.7,0,1.3-0.3,1.7-0.8c0.5-0.5,0.7-1.3,0.7-2.4c0-1-0.2-1.8-0.7-2.3c-0.5-0.5-1-0.8-1.7-0.8
				c-0.7,0-1.3,0.3-1.7,0.8C73.7,72.5,73.5,73.3,73.5,74.3z"/>
			<path d="M86.7,75.4l1.4,0.2c-0.1,0.9-0.5,1.7-1.1,2.2c-0.6,0.5-1.4,0.8-2.3,0.8c-1.1,0-2-0.4-2.7-1.1c-0.7-0.7-1-1.8-1-3.2
				c0-0.9,0.1-1.7,0.4-2.3c0.3-0.7,0.7-1.2,1.3-1.5c0.6-0.3,1.3-0.5,2-0.5c0.9,0,1.6,0.2,2.2,0.7c0.6,0.5,0.9,1.1,1.1,1.9l-1.4,0.2
				c-0.1-0.6-0.4-1-0.7-1.2c-0.3-0.3-0.7-0.4-1.2-0.4c-0.7,0-1.3,0.3-1.7,0.8c-0.4,0.5-0.7,1.3-0.7,2.4c0,1.1,0.2,1.9,0.6,2.4
				c0.4,0.5,1,0.8,1.7,0.8c0.5,0,1-0.2,1.4-0.5C86.4,76.6,86.6,76.1,86.7,75.4z"/>
			<path d="M94.7,77.4c-0.5,0.4-1,0.7-1.5,0.9c-0.5,0.2-1,0.3-1.5,0.3c-0.9,0-1.6-0.2-2.1-0.7c-0.5-0.4-0.7-1-0.7-1.7
				c0-0.4,0.1-0.8,0.3-1.1c0.2-0.3,0.4-0.6,0.7-0.8c0.3-0.2,0.6-0.4,1-0.5c0.3-0.1,0.7-0.1,1.2-0.2c1.1-0.1,2-0.3,2.5-0.5
				c0-0.2,0-0.3,0-0.4c0-0.6-0.1-1-0.4-1.2c-0.4-0.3-0.9-0.5-1.6-0.5c-0.7,0-1.1,0.1-1.5,0.3c-0.3,0.2-0.5,0.6-0.7,1.2l-1.4-0.2
				c0.1-0.6,0.3-1.1,0.6-1.4c0.3-0.4,0.7-0.6,1.2-0.8c0.5-0.2,1.2-0.3,1.9-0.3c0.7,0,1.3,0.1,1.7,0.2c0.4,0.2,0.8,0.4,1,0.6
				c0.2,0.3,0.4,0.6,0.4,0.9c0,0.2,0.1,0.7,0.1,1.3V75c0,1.3,0,2.1,0.1,2.5c0.1,0.3,0.2,0.7,0.4,1h-1.5
				C94.8,78.1,94.7,77.8,94.7,77.4z M94.5,74.3c-0.5,0.2-1.3,0.4-2.3,0.5c-0.6,0.1-1,0.2-1.2,0.3c-0.2,0.1-0.4,0.3-0.5,0.5
				c-0.1,0.2-0.2,0.4-0.2,0.7c0,0.4,0.1,0.7,0.4,0.9c0.3,0.2,0.7,0.4,1.2,0.4c0.5,0,1-0.1,1.4-0.4c0.4-0.2,0.7-0.6,0.9-1
				c0.1-0.3,0.2-0.8,0.2-1.4V74.3z"/>
			<path d="M99.4,78.4h-1.3V67.1h1.4v4c0.6-0.7,1.3-1.1,2.3-1.1c0.5,0,1,0.1,1.4,0.3c0.5,0.2,0.8,0.5,1.1,0.9
				c0.3,0.4,0.5,0.8,0.7,1.3c0.2,0.5,0.2,1.1,0.2,1.7c0,1.4-0.3,2.5-1,3.3c-0.7,0.8-1.5,1.2-2.5,1.2c-1,0-1.7-0.4-2.3-1.2V78.4z
				 M99.4,74.3c0,1,0.1,1.7,0.4,2.1c0.4,0.7,1,1.1,1.8,1.1c0.6,0,1.1-0.3,1.6-0.8c0.4-0.5,0.7-1.3,0.7-2.4c0-1.1-0.2-1.9-0.6-2.4
				c-0.4-0.5-0.9-0.8-1.5-0.8c-0.6,0-1.1,0.3-1.6,0.8C99.6,72.5,99.4,73.3,99.4,74.3z"/>
			<path d="M112.3,78.4v-1.2c-0.6,0.9-1.5,1.4-2.6,1.4c-0.5,0-0.9-0.1-1.4-0.3c-0.4-0.2-0.7-0.4-0.9-0.7c-0.2-0.3-0.3-0.6-0.4-1
				c-0.1-0.3-0.1-0.7-0.1-1.3v-5.1h1.4v4.6c0,0.7,0,1.2,0.1,1.5c0.1,0.4,0.3,0.7,0.6,0.9c0.3,0.2,0.6,0.3,1.1,0.3s0.8-0.1,1.2-0.3
				c0.4-0.2,0.6-0.5,0.8-0.9c0.2-0.4,0.2-0.9,0.2-1.6v-4.4h1.4v8.2H112.3z"/>
			<path d="M115.7,78.4V67.1h1.4v11.4H115.7z"/>
			<path d="M124.6,77.4c-0.5,0.4-1,0.7-1.5,0.9c-0.5,0.2-1,0.3-1.5,0.3c-0.9,0-1.6-0.2-2.1-0.7c-0.5-0.4-0.7-1-0.7-1.7
				c0-0.4,0.1-0.8,0.3-1.1c0.2-0.3,0.4-0.6,0.7-0.8c0.3-0.2,0.6-0.4,1-0.5c0.3-0.1,0.7-0.1,1.2-0.2c1.1-0.1,2-0.3,2.5-0.5
				c0-0.2,0-0.3,0-0.4c0-0.6-0.1-1-0.4-1.2c-0.4-0.3-0.9-0.5-1.6-0.5c-0.7,0-1.1,0.1-1.5,0.3c-0.3,0.2-0.5,0.6-0.7,1.2l-1.4-0.2
				c0.1-0.6,0.3-1.1,0.6-1.4c0.3-0.4,0.7-0.6,1.2-0.8c0.5-0.2,1.2-0.3,1.9-0.3c0.7,0,1.3,0.1,1.7,0.2c0.4,0.2,0.8,0.4,1,0.6
				c0.2,0.3,0.4,0.6,0.4,0.9c0,0.2,0.1,0.7,0.1,1.3V75c0,1.3,0,2.1,0.1,2.5c0.1,0.3,0.2,0.7,0.4,1h-1.5
				C124.8,78.1,124.7,77.8,124.6,77.4z M124.5,74.3c-0.5,0.2-1.3,0.4-2.3,0.5c-0.6,0.1-1,0.2-1.2,0.3c-0.2,0.1-0.4,0.3-0.5,0.5
				c-0.1,0.2-0.2,0.4-0.2,0.7c0,0.4,0.1,0.7,0.4,0.9c0.3,0.2,0.7,0.4,1.2,0.4c0.5,0,1-0.1,1.4-0.4c0.4-0.2,0.7-0.6,0.9-1
				c0.1-0.3,0.2-0.8,0.2-1.4V74.3z"/>
			<path d="M128.1,78.4v-8.2h1.3v1.2c0.3-0.6,0.6-1,0.9-1.2c0.3-0.2,0.6-0.3,0.9-0.3c0.5,0,0.9,0.1,1.4,0.4l-0.5,1.3
				c-0.3-0.2-0.7-0.3-1-0.3c-0.3,0-0.6,0.1-0.8,0.3c-0.2,0.2-0.4,0.4-0.5,0.8c-0.2,0.5-0.2,1-0.2,1.6v4.3H128.1z"/>
			<path d="M133.3,81.6l-0.2-1.3c0.3,0.1,0.6,0.1,0.8,0.1c0.3,0,0.6-0.1,0.7-0.2c0.2-0.1,0.3-0.2,0.5-0.4c0.1-0.1,0.2-0.5,0.4-1
				c0-0.1,0.1-0.2,0.1-0.3l-3.1-8.2h1.5l1.7,4.8c0.2,0.6,0.4,1.2,0.6,1.9c0.2-0.6,0.4-1.3,0.6-1.9l1.8-4.8h1.4l-3.1,8.4
				c-0.3,0.9-0.6,1.5-0.8,1.9c-0.2,0.5-0.5,0.8-0.9,1c-0.3,0.2-0.7,0.3-1.1,0.3C133.9,81.8,133.6,81.7,133.3,81.6z"/>
			<path d="M154,74.5l1.5,0.4c-0.3,1.2-0.9,2.2-1.7,2.8c-0.8,0.6-1.8,1-3,1c-1.2,0-2.2-0.2-3-0.7c-0.8-0.5-1.3-1.2-1.7-2.2
				c-0.4-0.9-0.6-2-0.6-3c0-1.2,0.2-2.2,0.7-3.1c0.5-0.9,1.1-1.5,1.9-2c0.8-0.5,1.8-0.7,2.8-0.7c1.1,0,2.1,0.3,2.9,0.9
				s1.3,1.4,1.6,2.4l-1.5,0.3c-0.3-0.8-0.6-1.4-1.1-1.8c-0.5-0.4-1.1-0.6-1.9-0.6c-0.9,0-1.6,0.2-2.2,0.6c-0.6,0.4-1,1-1.2,1.7
				c-0.2,0.7-0.4,1.4-0.4,2.2c0,1,0.1,1.8,0.4,2.5c0.3,0.7,0.7,1.3,1.3,1.6c0.6,0.4,1.2,0.5,1.9,0.5c0.8,0,1.6-0.2,2.1-0.7
				S153.8,75.4,154,74.5z"/>
			<path d="M156.6,74.3c0-1.5,0.4-2.7,1.3-3.4c0.7-0.6,1.6-0.9,2.6-0.9c1.1,0,2.1,0.4,2.8,1.1c0.7,0.7,1.1,1.8,1.1,3.1
				c0,1.1-0.2,1.9-0.5,2.5c-0.3,0.6-0.8,1.1-1.4,1.4c-0.6,0.3-1.3,0.5-2,0.5c-1.2,0-2.1-0.4-2.8-1.1C157,76.8,156.6,75.7,156.6,74.3
				z M158.1,74.3c0,1.1,0.2,1.8,0.7,2.4c0.5,0.5,1,0.8,1.7,0.8c0.7,0,1.3-0.3,1.7-0.8c0.5-0.5,0.7-1.3,0.7-2.4c0-1-0.2-1.8-0.7-2.3
				c-0.5-0.5-1-0.8-1.7-0.8c-0.7,0-1.3,0.3-1.7,0.8C158.3,72.5,158.1,73.3,158.1,74.3z"/>
			<path d="M166,78.4v-8.2h1.2v1.2c0.3-0.4,0.6-0.7,1-1c0.4-0.2,0.9-0.4,1.5-0.4c0.6,0,1.1,0.1,1.5,0.4c0.4,0.3,0.7,0.6,0.8,1.1
				c0.7-1,1.5-1.4,2.5-1.4c0.8,0,1.4,0.2,1.9,0.7c0.4,0.5,0.7,1.1,0.7,2.1v5.6h-1.4v-5.2c0-0.6,0-1-0.1-1.2
				c-0.1-0.2-0.3-0.4-0.5-0.6c-0.2-0.1-0.5-0.2-0.8-0.2c-0.6,0-1.1,0.2-1.4,0.6c-0.4,0.4-0.6,1-0.6,1.8v4.8h-1.4v-5.3
				c0-0.6-0.1-1.1-0.3-1.4c-0.2-0.3-0.6-0.5-1.1-0.5c-0.4,0-0.8,0.1-1.1,0.3c-0.3,0.2-0.6,0.5-0.7,0.9c-0.1,0.4-0.2,1-0.2,1.7v4.3
				H166z"/>
			<path d="M179.2,81.6V70.2h1.3v1.1c0.3-0.4,0.6-0.7,1-0.9c0.4-0.2,0.8-0.3,1.4-0.3c0.7,0,1.3,0.2,1.9,0.5c0.5,0.4,0.9,0.9,1.2,1.5
				c0.3,0.7,0.4,1.4,0.4,2.2c0,0.8-0.2,1.6-0.5,2.3c-0.3,0.7-0.7,1.2-1.3,1.5c-0.6,0.4-1.2,0.5-1.8,0.5c-0.5,0-0.9-0.1-1.3-0.3
				c-0.4-0.2-0.7-0.4-0.9-0.7v4H179.2z M180.4,74.4c0,1.1,0.2,1.8,0.6,2.3c0.4,0.5,0.9,0.8,1.6,0.8c0.6,0,1.1-0.3,1.6-0.8
				c0.4-0.5,0.7-1.3,0.7-2.4c0-1-0.2-1.8-0.6-2.4c-0.4-0.5-0.9-0.8-1.5-0.8c-0.6,0-1.1,0.3-1.6,0.8
				C180.7,72.5,180.4,73.3,180.4,74.4z"/>
			<path d="M188,78.4v-8.2h1.3v1.2c0.3-0.6,0.6-1,0.9-1.2c0.3-0.2,0.6-0.3,0.9-0.3c0.5,0,0.9,0.1,1.4,0.4l-0.5,1.3
				c-0.3-0.2-0.7-0.3-1-0.3c-0.3,0-0.6,0.1-0.8,0.3c-0.2,0.2-0.4,0.4-0.5,0.8c-0.2,0.5-0.2,1-0.2,1.6v4.3H188z"/>
			<path d="M198.9,75.8l1.4,0.2c-0.2,0.8-0.6,1.5-1.3,2c-0.6,0.5-1.4,0.7-2.4,0.7c-1.2,0-2.2-0.4-2.9-1.1c-0.7-0.7-1.1-1.8-1.1-3.1
				c0-1.4,0.4-2.5,1.1-3.2c0.7-0.8,1.6-1.1,2.8-1.1c1.1,0,2,0.4,2.7,1.1c0.7,0.7,1,1.8,1,3.2c0,0.1,0,0.2,0,0.4h-6.1
				c0.1,0.9,0.3,1.6,0.8,2.1c0.5,0.5,1,0.7,1.7,0.7c0.5,0,0.9-0.1,1.3-0.4C198.4,76.8,198.7,76.4,198.9,75.8z M194.3,73.5h4.6
				c-0.1-0.7-0.2-1.2-0.5-1.6c-0.4-0.5-1-0.8-1.7-0.8c-0.6,0-1.2,0.2-1.6,0.6C194.6,72.2,194.4,72.8,194.3,73.5z"/>
			<path d="M202.1,78.4V67.1h1.4v4.1c0.7-0.8,1.5-1.1,2.5-1.1c0.6,0,1.1,0.1,1.6,0.4c0.4,0.2,0.8,0.6,1,1c0.2,0.4,0.3,1,0.3,1.8v5.2
				h-1.4v-5.2c0-0.7-0.2-1.2-0.5-1.5s-0.7-0.5-1.3-0.5c-0.4,0-0.8,0.1-1.2,0.3c-0.4,0.2-0.6,0.5-0.8,0.9c-0.2,0.4-0.2,0.9-0.2,1.5
				v4.5H202.1z"/>
			<path d="M216.5,75.8L218,76c-0.2,0.8-0.6,1.5-1.3,2c-0.6,0.5-1.4,0.7-2.4,0.7c-1.2,0-2.2-0.4-2.9-1.1c-0.7-0.7-1.1-1.8-1.1-3.1
				c0-1.4,0.4-2.5,1.1-3.2c0.7-0.8,1.6-1.1,2.8-1.1c1.1,0,2,0.4,2.7,1.1c0.7,0.7,1,1.8,1,3.2c0,0.1,0,0.2,0,0.4h-6.1
				c0.1,0.9,0.3,1.6,0.8,2.1c0.5,0.5,1,0.7,1.7,0.7c0.5,0,0.9-0.1,1.3-0.4C216,76.8,216.3,76.4,216.5,75.8z M212,73.5h4.6
				c-0.1-0.7-0.2-1.2-0.5-1.6c-0.4-0.5-1-0.8-1.7-0.8c-0.6,0-1.2,0.2-1.6,0.6C212.2,72.2,212,72.8,212,73.5z"/>
			<path d="M219.7,78.4v-8.2h1.3v1.2c0.6-0.9,1.5-1.4,2.6-1.4c0.5,0,1,0.1,1.4,0.3c0.4,0.2,0.7,0.4,0.9,0.7c0.2,0.3,0.4,0.6,0.4,1
				c0.1,0.3,0.1,0.7,0.1,1.4v5.1H225v-5c0-0.6-0.1-1-0.2-1.3c-0.1-0.3-0.3-0.5-0.6-0.7c-0.3-0.2-0.6-0.3-1-0.3
				c-0.6,0-1.1,0.2-1.5,0.6c-0.4,0.4-0.6,1.1-0.6,2.1v4.5H219.7z"/>
			<path d="M228,76l1.4-0.2c0.1,0.6,0.3,1,0.6,1.3c0.4,0.3,0.8,0.4,1.5,0.4c0.6,0,1.1-0.1,1.4-0.4c0.3-0.3,0.5-0.6,0.5-0.9
				c0-0.3-0.1-0.6-0.4-0.7c-0.2-0.1-0.7-0.3-1.4-0.5c-1-0.3-1.7-0.5-2.1-0.7c-0.4-0.2-0.7-0.4-0.9-0.8c-0.2-0.3-0.3-0.7-0.3-1.1
				c0-0.4,0.1-0.7,0.3-1c0.2-0.3,0.4-0.6,0.7-0.8c0.2-0.2,0.5-0.3,0.9-0.4c0.4-0.1,0.8-0.2,1.2-0.2c0.6,0,1.2,0.1,1.7,0.3
				c0.5,0.2,0.8,0.4,1.1,0.8c0.2,0.3,0.4,0.7,0.5,1.3l-1.4,0.2c-0.1-0.4-0.2-0.8-0.5-1c-0.3-0.2-0.7-0.4-1.3-0.4
				c-0.6,0-1.1,0.1-1.4,0.3c-0.3,0.2-0.4,0.5-0.4,0.7c0,0.2,0.1,0.3,0.2,0.5c0.1,0.1,0.3,0.3,0.5,0.4c0.1,0.1,0.5,0.2,1.2,0.4
				c1,0.3,1.7,0.5,2.1,0.6c0.4,0.2,0.7,0.4,0.9,0.7c0.2,0.3,0.3,0.7,0.3,1.2c0,0.5-0.1,0.9-0.4,1.3c-0.3,0.4-0.7,0.7-1.2,1
				c-0.5,0.2-1.1,0.3-1.7,0.3c-1.1,0-1.9-0.2-2.4-0.7C228.5,77.5,228.1,76.8,228,76z"/>
			<path d="M236.5,68.7v-1.6h1.4v1.6H236.5z M236.5,78.4v-8.2h1.4v8.2H236.5z"/>
			<path d="M239.5,74.3c0-1.5,0.4-2.7,1.3-3.4c0.7-0.6,1.6-0.9,2.6-0.9c1.1,0,2.1,0.4,2.8,1.1c0.7,0.7,1.1,1.8,1.1,3.1
				c0,1.1-0.2,1.9-0.5,2.5c-0.3,0.6-0.8,1.1-1.4,1.4c-0.6,0.3-1.3,0.5-2,0.5c-1.2,0-2.1-0.4-2.8-1.1
				C239.8,76.8,239.5,75.7,239.5,74.3z M240.9,74.3c0,1.1,0.2,1.8,0.7,2.4c0.5,0.5,1,0.8,1.7,0.8c0.7,0,1.3-0.3,1.7-0.8
				c0.5-0.5,0.7-1.3,0.7-2.4c0-1-0.2-1.8-0.7-2.3c-0.5-0.5-1-0.8-1.7-0.8c-0.7,0-1.3,0.3-1.7,0.8C241.1,72.5,240.9,73.3,240.9,74.3z
				"/>
			<path d="M248.8,78.4v-8.2h1.3v1.2c0.6-0.9,1.5-1.4,2.6-1.4c0.5,0,1,0.1,1.4,0.3c0.4,0.2,0.7,0.4,0.9,0.7c0.2,0.3,0.4,0.6,0.4,1
				c0.1,0.3,0.1,0.7,0.1,1.4v5.1h-1.4v-5c0-0.6-0.1-1-0.2-1.3c-0.1-0.3-0.3-0.5-0.6-0.7c-0.3-0.2-0.6-0.3-1-0.3
				c-0.6,0-1.1,0.2-1.5,0.6c-0.4,0.4-0.6,1.1-0.6,2.1v4.5H248.8z"/>
			<path d="M261.7,74.8l1.4-0.1c0.1,0.6,0.2,1,0.5,1.4c0.2,0.4,0.6,0.7,1.1,0.9c0.5,0.2,1.1,0.3,1.7,0.3c0.6,0,1.1-0.1,1.5-0.3
				c0.4-0.2,0.8-0.4,1-0.7s0.3-0.6,0.3-1c0-0.4-0.1-0.7-0.3-0.9c-0.2-0.3-0.5-0.5-1-0.7c-0.3-0.1-1-0.3-2-0.6
				c-1-0.3-1.8-0.5-2.2-0.7c-0.5-0.3-0.9-0.6-1.2-1.1s-0.4-0.9-0.4-1.4c0-0.6,0.2-1.1,0.5-1.6c0.3-0.5,0.8-0.9,1.4-1.1
				c0.6-0.3,1.3-0.4,2.1-0.4c0.8,0,1.6,0.1,2.2,0.4c0.6,0.3,1.1,0.7,1.5,1.2c0.3,0.5,0.5,1.1,0.6,1.8l-1.4,0.1
				c-0.1-0.7-0.3-1.3-0.8-1.6c-0.4-0.4-1.1-0.5-2-0.5c-0.9,0-1.6,0.2-2,0.5c-0.4,0.3-0.6,0.7-0.6,1.2c0,0.4,0.1,0.7,0.4,1
				c0.3,0.3,1,0.5,2.3,0.8c1.2,0.3,2.1,0.5,2.5,0.7c0.7,0.3,1.1,0.7,1.5,1.2c0.3,0.5,0.5,1,0.5,1.6c0,0.6-0.2,1.2-0.5,1.7
				c-0.3,0.5-0.8,0.9-1.5,1.2c-0.6,0.3-1.4,0.4-2.2,0.4c-1,0-1.9-0.1-2.6-0.4c-0.7-0.3-1.2-0.7-1.6-1.4
				C261.9,76.2,261.7,75.5,261.7,74.8z"/>
			<path d="M278,75.4l1.4,0.2c-0.1,0.9-0.5,1.7-1.1,2.2c-0.6,0.5-1.4,0.8-2.3,0.8c-1.1,0-2-0.4-2.7-1.1c-0.7-0.7-1-1.8-1-3.2
				c0-0.9,0.1-1.7,0.4-2.3c0.3-0.7,0.7-1.2,1.3-1.5c0.6-0.3,1.3-0.5,2-0.5c0.9,0,1.6,0.2,2.2,0.7c0.6,0.5,0.9,1.1,1.1,1.9l-1.4,0.2
				c-0.1-0.6-0.4-1-0.7-1.2c-0.3-0.3-0.7-0.4-1.2-0.4c-0.7,0-1.3,0.3-1.7,0.8c-0.4,0.5-0.7,1.3-0.7,2.4c0,1.1,0.2,1.9,0.6,2.4
				c0.4,0.5,1,0.8,1.7,0.8c0.5,0,1-0.2,1.4-0.5C277.7,76.6,277.9,76.1,278,75.4z"/>
			<path d="M285.9,77.4c-0.5,0.4-1,0.7-1.5,0.9c-0.5,0.2-1,0.3-1.5,0.3c-0.9,0-1.6-0.2-2.1-0.7c-0.5-0.4-0.7-1-0.7-1.7
				c0-0.4,0.1-0.8,0.3-1.1c0.2-0.3,0.4-0.6,0.7-0.8c0.3-0.2,0.6-0.4,1-0.5c0.3-0.1,0.7-0.1,1.2-0.2c1.1-0.1,2-0.3,2.5-0.5
				c0-0.2,0-0.3,0-0.4c0-0.6-0.1-1-0.4-1.2c-0.4-0.3-0.9-0.5-1.6-0.5c-0.7,0-1.1,0.1-1.5,0.3s-0.5,0.6-0.7,1.2l-1.4-0.2
				c0.1-0.6,0.3-1.1,0.6-1.4c0.3-0.4,0.7-0.6,1.2-0.8c0.5-0.2,1.2-0.3,1.9-0.3c0.7,0,1.3,0.1,1.7,0.2s0.8,0.4,1,0.6
				c0.2,0.3,0.4,0.6,0.4,0.9c0,0.2,0.1,0.7,0.1,1.3V75c0,1.3,0,2.1,0.1,2.5c0.1,0.3,0.2,0.7,0.4,1h-1.5
				C286,78.1,286,77.8,285.9,77.4z M285.8,74.3c-0.5,0.2-1.3,0.4-2.3,0.5c-0.6,0.1-1,0.2-1.2,0.3c-0.2,0.1-0.4,0.3-0.5,0.5
				c-0.1,0.2-0.2,0.4-0.2,0.7c0,0.4,0.1,0.7,0.4,0.9c0.3,0.2,0.7,0.4,1.2,0.4c0.5,0,1-0.1,1.4-0.4c0.4-0.2,0.7-0.6,0.9-1
				c0.1-0.3,0.2-0.8,0.2-1.4V74.3z"/>
			<path d="M289.3,78.4V67.1h1.4v11.4H289.3z"/>
			<path d="M298.5,75.8L300,76c-0.2,0.8-0.6,1.5-1.3,2c-0.6,0.5-1.4,0.7-2.4,0.7c-1.2,0-2.2-0.4-2.9-1.1c-0.7-0.7-1.1-1.8-1.1-3.1
				c0-1.4,0.4-2.5,1.1-3.2c0.7-0.8,1.6-1.1,2.8-1.1c1.1,0,2,0.4,2.7,1.1c0.7,0.7,1,1.8,1,3.2c0,0.1,0,0.2,0,0.4h-6.1
				c0.1,0.9,0.3,1.6,0.8,2.1c0.5,0.5,1,0.7,1.7,0.7c0.5,0,0.9-0.1,1.3-0.4C298,76.8,298.3,76.4,298.5,75.8z M293.9,73.5h4.6
				c-0.1-0.7-0.2-1.2-0.5-1.6c-0.4-0.5-1-0.8-1.7-0.8c-0.6,0-1.2,0.2-1.6,0.6C294.2,72.2,294,72.8,293.9,73.5z"/>
		</g>
	</g>
</g>
</svg>
