<?xml version="1.0" encoding="utf-8"?>
<!-- Generator: Adobe Illustrator 26.5.3, SVG Export Plug-In . SVG Version: 6.00 Build 0)  -->
<svg version="1.1" id="圖層_1" xmlns="http://www.w3.org/2000/svg" xmlns:xlink="http://www.w3.org/1999/xlink" x="0px" y="0px"
	 viewBox="0 0 300 115.6" style="enable-background:new 0 0 300 115.6;" xml:space="preserve">
<g>
	<g>
		<g>
			<path d="M14,108.8l2.5,0.6c-0.5,2-1.4,3.6-2.8,4.6c-1.3,1.1-3,1.6-4.9,1.6c-2,0-3.6-0.4-4.9-1.2c-1.3-0.8-2.2-2-2.9-3.6
				c-0.7-1.6-1-3.2-1-5c0-1.9,0.4-3.6,1.1-5.1c0.7-1.4,1.8-2.5,3.2-3.3c1.4-0.8,2.9-1.1,4.5-1.1c1.9,0,3.4,0.5,4.7,1.4
				s2.2,2.3,2.7,4l-2.4,0.6c-0.4-1.4-1.1-2.3-1.9-3s-1.9-0.9-3.1-0.9c-1.4,0-2.6,0.3-3.6,1c-1,0.7-1.6,1.6-2,2.8s-0.6,2.3-0.6,3.6
				c0,1.6,0.2,3,0.7,4.1c0.5,1.2,1.2,2.1,2.2,2.7c1,0.6,2,0.9,3.2,0.9c1.4,0,2.6-0.4,3.5-1.2C13,111.5,13.7,110.4,14,108.8z"/>
			<path d="M19.2,115.3V96.7h2.3v6.7c1.1-1.2,2.4-1.9,4-1.9c1,0,1.9,0.2,2.6,0.6c0.7,0.4,1.3,0.9,1.6,1.6c0.3,0.7,0.5,1.7,0.5,3v8.6
				h-2.3v-8.6c0-1.1-0.2-2-0.7-2.5c-0.5-0.5-1.2-0.8-2.1-0.8c-0.7,0-1.3,0.2-1.9,0.5c-0.6,0.4-1,0.8-1.3,1.4
				c-0.3,0.6-0.4,1.4-0.4,2.5v7.4H19.2z"/>
			<path d="M33.7,99.3v-2.6H36v2.6H33.7z M33.7,115.3v-13.5H36v13.5H33.7z"/>
			<path d="M39.5,115.3v-13.5h2.1v1.9c1-1.5,2.4-2.2,4.3-2.2c0.8,0,1.6,0.1,2.2,0.4c0.7,0.3,1.2,0.7,1.5,1.1c0.3,0.5,0.6,1,0.7,1.7
				c0.1,0.4,0.1,1.2,0.1,2.2v8.3h-2.3v-8.2c0-0.9-0.1-1.6-0.3-2.1c-0.2-0.5-0.5-0.8-0.9-1.1c-0.5-0.3-1-0.4-1.6-0.4
				c-1,0-1.8,0.3-2.5,0.9c-0.7,0.6-1.1,1.8-1.1,3.5v7.4H39.5z"/>
			<path d="M63.2,111l2.4,0.3c-0.4,1.4-1.1,2.5-2.1,3.2c-1,0.8-2.3,1.1-3.9,1.1c-2,0-3.5-0.6-4.7-1.8c-1.2-1.2-1.7-2.9-1.7-5.1
				c0-2.3,0.6-4,1.8-5.3c1.2-1.3,2.7-1.9,4.6-1.9c1.8,0,3.3,0.6,4.4,1.8s1.7,3,1.7,5.2c0,0.1,0,0.3,0,0.6H55.6
				c0.1,1.5,0.5,2.6,1.3,3.4c0.8,0.8,1.7,1.2,2.8,1.2c0.8,0,1.6-0.2,2.1-0.7C62.4,112.7,62.8,111.9,63.2,111z M55.7,107.3h7.5
				c-0.1-1.1-0.4-2-0.9-2.6c-0.7-0.9-1.7-1.3-2.8-1.3c-1.1,0-1.9,0.4-2.7,1.1C56.2,105.2,55.8,106.1,55.7,107.3z"/>
			<path d="M67.5,111.3l2.3-0.4c0.1,0.9,0.5,1.6,1.1,2.1c0.6,0.5,1.4,0.7,2.4,0.7c1.1,0,1.8-0.2,2.3-0.6c0.5-0.4,0.8-0.9,0.8-1.5
				c0-0.5-0.2-0.9-0.7-1.2c-0.3-0.2-1.1-0.5-2.3-0.8c-1.7-0.4-2.8-0.8-3.5-1.1c-0.6-0.3-1.1-0.7-1.5-1.3c-0.3-0.5-0.5-1.2-0.5-1.8
				c0-0.6,0.1-1.2,0.4-1.7c0.3-0.5,0.6-0.9,1.1-1.3c0.4-0.3,0.8-0.5,1.5-0.7c0.6-0.2,1.3-0.3,2-0.3c1.1,0,2,0.2,2.8,0.5
				c0.8,0.3,1.4,0.7,1.8,1.2c0.4,0.5,0.6,1.2,0.8,2.1l-2.2,0.3c-0.1-0.7-0.4-1.2-0.9-1.6c-0.5-0.4-1.2-0.6-2.1-0.6
				c-1.1,0-1.8,0.2-2.3,0.5c-0.4,0.3-0.7,0.8-0.7,1.2c0,0.3,0.1,0.6,0.3,0.8c0.2,0.2,0.5,0.4,0.9,0.6c0.2,0.1,0.9,0.3,2,0.6
				c1.6,0.4,2.7,0.8,3.4,1.1c0.6,0.3,1.1,0.7,1.5,1.2c0.4,0.5,0.5,1.2,0.5,2c0,0.8-0.2,1.5-0.7,2.2c-0.4,0.7-1.1,1.2-1.9,1.6
				c-0.8,0.4-1.8,0.6-2.8,0.6c-1.8,0-3.1-0.4-4-1.1C68.4,113.8,67.8,112.7,67.5,111.3z"/>
			<path d="M90.7,111l2.4,0.3c-0.4,1.4-1.1,2.5-2.1,3.2c-1,0.8-2.3,1.1-3.9,1.1c-2,0-3.5-0.6-4.7-1.8c-1.2-1.2-1.7-2.9-1.7-5.1
				c0-2.3,0.6-4,1.8-5.3c1.2-1.3,2.7-1.9,4.5-1.9c1.8,0,3.3,0.6,4.4,1.8s1.7,3,1.7,5.2c0,0.1,0,0.3,0,0.6H83
				c0.1,1.5,0.5,2.6,1.3,3.4c0.8,0.8,1.7,1.2,2.8,1.2c0.8,0,1.6-0.2,2.1-0.7C89.9,112.7,90.3,111.9,90.7,111z M83.2,107.3h7.5
				c-0.1-1.1-0.4-2-0.9-2.6c-0.7-0.9-1.7-1.3-2.8-1.3c-1.1,0-1.9,0.4-2.6,1.1C83.6,105.2,83.2,106.1,83.2,107.3z"/>
			<path d="M116.7,108.8l2.5,0.6c-0.5,2-1.4,3.6-2.8,4.6c-1.3,1.1-3,1.6-4.9,1.6c-2,0-3.6-0.4-4.9-1.2c-1.3-0.8-2.2-2-2.9-3.6
				c-0.7-1.6-1-3.2-1-5c0-1.9,0.4-3.6,1.1-5.1c0.7-1.4,1.8-2.5,3.2-3.3c1.4-0.8,2.9-1.1,4.5-1.1c1.9,0,3.4,0.5,4.7,1.4
				c1.3,0.9,2.2,2.3,2.7,4l-2.4,0.6c-0.4-1.4-1.1-2.3-1.9-3s-1.9-0.9-3.1-0.9c-1.4,0-2.6,0.3-3.6,1c-1,0.7-1.6,1.6-2,2.8
				s-0.6,2.3-0.6,3.6c0,1.6,0.2,3,0.7,4.1c0.5,1.2,1.2,2.1,2.2,2.7c1,0.6,2,0.9,3.2,0.9c1.4,0,2.6-0.4,3.5-1.2
				C115.8,111.5,116.4,110.4,116.7,108.8z"/>
			<path d="M121.9,115.3V96.7h2.3v6.7c1.1-1.2,2.4-1.9,4-1.9c1,0,1.9,0.2,2.6,0.6s1.3,0.9,1.6,1.6c0.3,0.7,0.5,1.7,0.5,3v8.6h-2.3
				v-8.6c0-1.1-0.2-2-0.7-2.5c-0.5-0.5-1.2-0.8-2.1-0.8c-0.7,0-1.3,0.2-1.9,0.5c-0.6,0.4-1,0.8-1.3,1.4c-0.3,0.6-0.4,1.4-0.4,2.5
				v7.4H121.9z"/>
			<path d="M145.2,113.7c-0.8,0.7-1.7,1.2-2.4,1.5c-0.8,0.3-1.6,0.4-2.5,0.4c-1.5,0-2.6-0.4-3.4-1.1c-0.8-0.7-1.2-1.6-1.2-2.8
				c0-0.7,0.1-1.3,0.5-1.8c0.3-0.5,0.7-1,1.2-1.3c0.5-0.3,1-0.6,1.6-0.8c0.4-0.1,1.1-0.2,2-0.3c1.8-0.2,3.2-0.5,4.1-0.8
				c0-0.3,0-0.5,0-0.6c0-0.9-0.2-1.6-0.6-2c-0.6-0.5-1.5-0.8-2.6-0.8c-1.1,0-1.9,0.2-2.4,0.6c-0.5,0.4-0.9,1-1.1,2l-2.2-0.3
				c0.2-1,0.5-1.7,1-2.3c0.5-0.6,1.1-1,2-1.4c0.9-0.3,1.9-0.5,3.1-0.5c1.2,0,2.1,0.1,2.8,0.4c0.7,0.3,1.2,0.6,1.6,1
				c0.3,0.4,0.6,0.9,0.7,1.6c0.1,0.4,0.1,1.1,0.1,2.1v3.1c0,2.1,0,3.5,0.1,4c0.1,0.6,0.3,1.1,0.6,1.6h-2.4
				C145.5,114.9,145.3,114.3,145.2,113.7z M145,108.6c-0.8,0.3-2.1,0.6-3.7,0.9c-0.9,0.1-1.6,0.3-2,0.5c-0.4,0.2-0.7,0.4-0.9,0.7
				c-0.2,0.3-0.3,0.7-0.3,1.1c0,0.6,0.2,1.1,0.7,1.5c0.5,0.4,1.1,0.6,2,0.6c0.9,0,1.7-0.2,2.4-0.6c0.7-0.4,1.2-0.9,1.5-1.6
				c0.2-0.5,0.4-1.3,0.4-2.3V108.6z"/>
			<path d="M150.9,115.3v-13.5h2.1v2c0.5-1,1-1.6,1.5-1.9c0.4-0.3,0.9-0.5,1.5-0.5c0.8,0,1.6,0.2,2.4,0.7l-0.8,2.1
				c-0.6-0.3-1.1-0.5-1.7-0.5c-0.5,0-0.9,0.2-1.3,0.5c-0.4,0.3-0.7,0.7-0.9,1.3c-0.3,0.8-0.4,1.7-0.4,2.7v7.1H150.9z"/>
			<path d="M168.4,113.7c-0.8,0.7-1.7,1.2-2.4,1.5c-0.8,0.3-1.6,0.4-2.5,0.4c-1.5,0-2.6-0.4-3.4-1.1c-0.8-0.7-1.2-1.6-1.2-2.8
				c0-0.7,0.1-1.3,0.5-1.8c0.3-0.5,0.7-1,1.2-1.3c0.5-0.3,1-0.6,1.6-0.8c0.4-0.1,1.1-0.2,2-0.3c1.8-0.2,3.2-0.5,4.1-0.8
				c0-0.3,0-0.5,0-0.6c0-0.9-0.2-1.6-0.6-2c-0.6-0.5-1.5-0.8-2.6-0.8c-1.1,0-1.9,0.2-2.4,0.6c-0.5,0.4-0.9,1-1.1,2l-2.2-0.3
				c0.2-1,0.5-1.7,1-2.3c0.5-0.6,1.1-1,2-1.4c0.9-0.3,1.9-0.5,3.1-0.5c1.2,0,2.1,0.1,2.8,0.4c0.7,0.3,1.3,0.6,1.6,1
				c0.3,0.4,0.6,0.9,0.7,1.6c0.1,0.4,0.1,1.1,0.1,2.1v3.1c0,2.1,0,3.5,0.1,4c0.1,0.6,0.3,1.1,0.6,1.6h-2.4
				C168.6,114.9,168.4,114.3,168.4,113.7z M168.2,108.6c-0.8,0.3-2.1,0.6-3.7,0.9c-0.9,0.1-1.6,0.3-2,0.5c-0.4,0.2-0.7,0.4-0.9,0.7
				c-0.2,0.3-0.3,0.7-0.3,1.1c0,0.6,0.2,1.1,0.7,1.5c0.5,0.4,1.1,0.6,2,0.6c0.9,0,1.7-0.2,2.4-0.6c0.7-0.4,1.2-0.9,1.5-1.6
				c0.2-0.5,0.4-1.3,0.4-2.3V108.6z"/>
			<path d="M182.9,110.4l2.3,0.3c-0.2,1.6-0.9,2.8-1.9,3.6c-1,0.9-2.3,1.3-3.7,1.3c-1.8,0-3.3-0.6-4.5-1.8c-1.1-1.2-1.7-2.9-1.7-5.2
				c0-1.5,0.2-2.7,0.7-3.8c0.5-1.1,1.2-1.9,2.2-2.5c1-0.5,2.1-0.8,3.2-0.8c1.5,0,2.7,0.4,3.6,1.1c0.9,0.7,1.5,1.8,1.8,3.2l-2.2,0.3
				c-0.2-0.9-0.6-1.6-1.1-2c-0.5-0.5-1.2-0.7-2-0.7c-1.2,0-2.1,0.4-2.8,1.2c-0.7,0.8-1.1,2.1-1.1,3.9c0,1.8,0.3,3.1,1,4
				c0.7,0.8,1.6,1.2,2.7,1.2c0.9,0,1.6-0.3,2.2-0.8C182.3,112.4,182.7,111.5,182.9,110.4z"/>
			<path d="M192.1,113.3l0.3,2c-0.6,0.1-1.2,0.2-1.7,0.2c-0.8,0-1.5-0.1-1.9-0.4c-0.5-0.3-0.8-0.6-1-1c-0.2-0.4-0.3-1.3-0.3-2.7
				v-7.8h-1.7v-1.8h1.7v-3.3l2.3-1.4v4.7h2.3v1.8h-2.3v7.9c0,0.7,0,1.1,0.1,1.3c0.1,0.2,0.2,0.3,0.4,0.4c0.2,0.1,0.4,0.2,0.8,0.2
				C191.3,113.4,191.6,113.3,192.1,113.3z"/>
			<path d="M203.5,111l2.4,0.3c-0.4,1.4-1.1,2.5-2.1,3.2c-1,0.8-2.3,1.1-3.9,1.1c-2,0-3.5-0.6-4.7-1.8c-1.2-1.2-1.7-2.9-1.7-5.1
				c0-2.3,0.6-4,1.8-5.3c1.2-1.3,2.7-1.9,4.6-1.9c1.8,0,3.3,0.6,4.4,1.8c1.1,1.2,1.7,3,1.7,5.2c0,0.1,0,0.3,0,0.6h-10.1
				c0.1,1.5,0.5,2.6,1.3,3.4c0.8,0.8,1.7,1.2,2.8,1.2c0.8,0,1.6-0.2,2.1-0.7C202.7,112.7,203.2,111.9,203.5,111z M196,107.3h7.5
				c-0.1-1.1-0.4-2-0.9-2.6c-0.7-0.9-1.7-1.3-2.8-1.3c-1.1,0-1.9,0.4-2.6,1.1C196.5,105.2,196.1,106.1,196,107.3z"/>
			<path d="M208.7,115.3v-13.5h2.1v2c0.5-1,1-1.6,1.5-1.9c0.4-0.3,0.9-0.5,1.5-0.5c0.8,0,1.6,0.2,2.4,0.7l-0.8,2.1
				c-0.6-0.3-1.1-0.5-1.7-0.5c-0.5,0-0.9,0.2-1.3,0.5c-0.4,0.3-0.7,0.7-0.9,1.3c-0.3,0.8-0.4,1.7-0.4,2.7v7.1H208.7z"/>
			<path d="M216.5,111.3l2.3-0.4c0.1,0.9,0.5,1.6,1.1,2.1c0.6,0.5,1.4,0.7,2.4,0.7c1.1,0,1.8-0.2,2.3-0.6c0.5-0.4,0.8-0.9,0.8-1.5
				c0-0.5-0.2-0.9-0.7-1.2c-0.3-0.2-1.1-0.5-2.3-0.8c-1.7-0.4-2.8-0.8-3.5-1.1c-0.6-0.3-1.1-0.7-1.5-1.3c-0.3-0.5-0.5-1.2-0.5-1.8
				c0-0.6,0.1-1.2,0.4-1.7c0.3-0.5,0.6-0.9,1.1-1.3c0.4-0.3,0.8-0.5,1.5-0.7c0.6-0.2,1.3-0.3,2-0.3c1.1,0,2,0.2,2.8,0.5
				c0.8,0.3,1.4,0.7,1.8,1.2c0.4,0.5,0.6,1.2,0.8,2.1l-2.2,0.3c-0.1-0.7-0.4-1.2-0.9-1.6c-0.5-0.4-1.2-0.6-2.1-0.6
				c-1.1,0-1.8,0.2-2.2,0.5c-0.4,0.3-0.7,0.8-0.7,1.2c0,0.3,0.1,0.6,0.3,0.8c0.2,0.2,0.5,0.4,0.9,0.6c0.2,0.1,0.9,0.3,2,0.6
				c1.6,0.4,2.7,0.8,3.4,1.1c0.6,0.3,1.1,0.7,1.5,1.2c0.4,0.5,0.5,1.2,0.5,2c0,0.8-0.2,1.5-0.7,2.2c-0.4,0.7-1.1,1.2-1.9,1.6
				c-0.8,0.4-1.8,0.6-2.8,0.6c-1.8,0-3.1-0.4-4-1.1C217.4,113.8,216.8,112.7,216.5,111.3z"/>
			<path d="M237.1,109.3l2.3-0.2c0.1,0.9,0.4,1.7,0.8,2.3c0.4,0.6,1,1.1,1.9,1.4c0.8,0.4,1.8,0.6,2.9,0.6c0.9,0,1.8-0.1,2.5-0.4
				c0.7-0.3,1.3-0.7,1.6-1.1c0.4-0.5,0.5-1,0.5-1.6c0-0.6-0.2-1.1-0.5-1.5c-0.3-0.4-0.9-0.8-1.7-1.1c-0.5-0.2-1.6-0.5-3.3-0.9
				c-1.7-0.4-2.9-0.8-3.6-1.2c-0.9-0.5-1.6-1-2-1.7s-0.7-1.5-0.7-2.3c0-0.9,0.3-1.8,0.8-2.6c0.5-0.8,1.3-1.4,2.3-1.9
				c1-0.4,2.2-0.6,3.4-0.6c1.4,0,2.6,0.2,3.7,0.7c1.1,0.4,1.9,1.1,2.4,2c0.6,0.9,0.9,1.8,0.9,2.9l-2.4,0.2c-0.1-1.2-0.6-2.1-1.3-2.7
				c-0.7-0.6-1.8-0.9-3.2-0.9c-1.5,0-2.6,0.3-3.3,0.8c-0.7,0.5-1,1.2-1,2c0,0.7,0.2,1.2,0.7,1.7c0.5,0.4,1.7,0.9,3.7,1.3
				c2,0.5,3.4,0.8,4.1,1.2c1.1,0.5,1.9,1.1,2.4,1.9c0.5,0.8,0.8,1.7,0.8,2.7c0,1-0.3,1.9-0.9,2.8c-0.6,0.9-1.4,1.6-2.4,2
				s-2.3,0.7-3.6,0.7c-1.7,0-3.1-0.2-4.2-0.7c-1.1-0.5-2-1.2-2.7-2.2C237.5,111.7,237.2,110.6,237.1,109.3z"/>
			<path d="M263.9,110.4l2.3,0.3c-0.2,1.6-0.9,2.8-1.9,3.6c-1,0.9-2.3,1.3-3.7,1.3c-1.8,0-3.3-0.6-4.5-1.8c-1.1-1.2-1.7-2.9-1.7-5.2
				c0-1.5,0.2-2.7,0.7-3.8c0.5-1.1,1.2-1.9,2.2-2.5c1-0.5,2.1-0.8,3.2-0.8c1.5,0,2.7,0.4,3.6,1.1c0.9,0.7,1.5,1.8,1.8,3.2l-2.2,0.3
				c-0.2-0.9-0.6-1.6-1.1-2s-1.2-0.7-2-0.7c-1.2,0-2.1,0.4-2.8,1.2c-0.7,0.8-1.1,2.1-1.1,3.9c0,1.8,0.3,3.1,1,4
				c0.7,0.8,1.6,1.2,2.7,1.2c0.9,0,1.6-0.3,2.2-0.8C263.3,112.4,263.7,111.5,263.9,110.4z"/>
			<path d="M276.9,113.7c-0.8,0.7-1.7,1.2-2.4,1.5c-0.8,0.3-1.6,0.4-2.5,0.4c-1.5,0-2.6-0.4-3.4-1.1c-0.8-0.7-1.2-1.6-1.2-2.8
				c0-0.7,0.1-1.3,0.5-1.8c0.3-0.5,0.7-1,1.2-1.3c0.5-0.3,1-0.6,1.6-0.8c0.4-0.1,1.1-0.2,2-0.3c1.8-0.2,3.2-0.5,4.1-0.8
				c0-0.3,0-0.5,0-0.6c0-0.9-0.2-1.6-0.6-2c-0.6-0.5-1.5-0.8-2.6-0.8c-1.1,0-1.9,0.2-2.4,0.6c-0.5,0.4-0.9,1-1.1,2l-2.2-0.3
				c0.2-1,0.5-1.7,1-2.3c0.5-0.6,1.1-1,2-1.4c0.9-0.3,1.9-0.5,3.1-0.5c1.2,0,2.1,0.1,2.8,0.4c0.7,0.3,1.3,0.6,1.6,1
				c0.3,0.4,0.6,0.9,0.7,1.6c0.1,0.4,0.1,1.1,0.1,2.1v3.1c0,2.1,0,3.5,0.1,4c0.1,0.6,0.3,1.1,0.6,1.6h-2.4
				C277.1,114.9,276.9,114.3,276.9,113.7z M276.7,108.6c-0.8,0.3-2.1,0.6-3.7,0.9c-0.9,0.1-1.6,0.3-2,0.5c-0.4,0.2-0.7,0.4-0.9,0.7
				c-0.2,0.3-0.3,0.7-0.3,1.1c0,0.6,0.2,1.1,0.7,1.5c0.5,0.4,1.1,0.6,2,0.6c0.9,0,1.7-0.2,2.4-0.6c0.7-0.4,1.2-0.9,1.5-1.6
				c0.2-0.5,0.4-1.3,0.4-2.3V108.6z"/>
			<path d="M282.5,115.3V96.7h2.3v18.6H282.5z"/>
			<path d="M297.6,111l2.4,0.3c-0.4,1.4-1.1,2.5-2.1,3.2c-1,0.8-2.3,1.1-3.9,1.1c-2,0-3.5-0.6-4.7-1.8c-1.2-1.2-1.7-2.9-1.7-5.1
				c0-2.3,0.6-4,1.8-5.3c1.2-1.3,2.7-1.9,4.6-1.9c1.8,0,3.3,0.6,4.4,1.8c1.1,1.2,1.7,3,1.7,5.2c0,0.1,0,0.3,0,0.6h-10.1
				c0.1,1.5,0.5,2.6,1.3,3.4c0.8,0.8,1.7,1.2,2.8,1.2c0.8,0,1.6-0.2,2.1-0.7C296.7,112.7,297.2,111.9,297.6,111z M290,107.3h7.5
				c-0.1-1.1-0.4-2-0.9-2.6c-0.7-0.9-1.7-1.3-2.8-1.3c-1.1,0-1.9,0.4-2.6,1.1C290.5,105.2,290.1,106.1,290,107.3z"/>
		</g>
	</g>
	<g>
		<path d="M30.9,1.3c-3.9,3-3.3,9.5-1.1,14.6c1.7-3.5,6.1-4.4,5.6-10.1C34.4,3.8,32.9,2.3,30.9,1.3z"/>
		<path d="M206.3,27.1c13.5-2.7,24.4-19.5,38.1-14.6c-14.4,22.2-36.5,36.8-46,63.9c17-6.6,19.8-26.9,30.3-39.2
			c7.6-9,22-12.8,22.4-26.9C239-2.5,199.7,10.6,206.3,27.1z"/>
		<path d="M73.5,46.2c3.4-10,9.7-20.7,7.8-32.5C63.9,11.2,51,22.8,43.3,33.8c13.6-3.2,18.6-15,33.6-16.8c1.2,9.6-3.1,23-10.1,28
			c-2.2-1.8-8.2-3.6-11.2-1.1c-0.6,5.8,8.2,7,5.6,11.2c-1.4,6.3-10.9,3.2-14.6,4.5c5.3,10.4,16.5,0.1,22.4-2.2
			c8.8,3.2,21.6,21.2,32.5,7.9C92.7,58.4,78,57.4,73.5,46.2z"/>
		<path d="M28.7,64.1c-2.7-8.8,0-24.2-1.1-31.4c-1.4-0.1-1.5-1.4-3.4-1.1c-5.8,11.8-8.4,42.4,5.6,47.1c3.6-4.3,5.1-16.5,3.4-22.4
			C32.5,59.7,32.9,64.2,28.7,64.1z"/>
		<path d="M150.3,48.4c-1.4-6.5,7.5-6.8,6.7-15.7c-7.2-1.7-21.9-2.9-23.6,4.5c5.6,0,11.2,0,16.8,0c-2.1,3.5-4.8,6.4-6.7,10.1
			c0.5,4.7,5.3,5.2,6.7,9c-7.5,4.5-16.4,7.5-19.1,16.8c10.9,12.8,31.1-1.6,32.5-15.7c5,0.1,9.9,0.2,10.1-4.5
			C163.1,49.1,152.5,58.5,150.3,48.4z M140.2,74.2c1.8-7.5,7.8-10.9,15.7-12.3C154.8,70.1,148.8,73.5,140.2,74.2z"/>
		<path d="M268,58.5c-7.6-6.6-6.6-12.8-19.1-10.1c-3.5,9,9.9,9,9,19.1c8.1,1,13.6,8.9,21.3,6.7C283.6,64.3,273.3,63.2,268,58.5z"/>
		<path d="M168.3,8c-13.6-3.7-38.5,15.4-48.2,15.7c7-9.9,24-9.6,28-22.4c-3.9-2.2-13-1.5-15.7,1.1c-0.3,4.8,4.6,4.4,5.6,7.9
			c-9.4,6.4-25.8,11.5-26.9,22.4c15.1-9.2,36.3-12.3,55-17.9c1.1,1.5,3,2.2,3.4,4.5c0.5,4.6-2.4,5.9-4.5,7.8
			C182.3,33.3,177.8,10.6,168.3,8z"/>
	</g>
</g>
</svg>
