<?xml version="1.0" encoding="utf-8"?>
<!-- Generator: Adobe Illustrator 26.5.3, SVG Export Plug-In . SVG Version: 6.00 Build 0)  -->
<svg version="1.1" id="圖層_1" xmlns="http://www.w3.org/2000/svg" xmlns:xlink="http://www.w3.org/1999/xlink" x="0px" y="0px"
	 viewBox="0 0 300 81.8" style="enable-background:new 0 0 300 81.8;" xml:space="preserve">
<style type="text/css">
	.st0{fill-rule:evenodd;clip-rule:evenodd;}
</style>
<g>
	<g>
		<g>
			<path class="st0" d="M139.5,13.7c-1.6-1.7-3-2-4.1-2.8c5.6-2.6,18.5-3.8,13.3,6.7C143.1,19.3,139.5,13.7,139.5,13.7z"/>
			<path class="st0" d="M132.9,25.2L132.9,25.2c-3.4,0.9-6.1,2.3-10.1,2.7c0.6,5.8,11.1-0.6,12.7-1.4c4.9-2.4,8.9-3.2,8.9-3.2
				c2.1-0.4,2,0.7,2,0.7s4.3-1.9,6-3.7C150,17.8,147,21.5,132.9,25.2z"/>
			<path class="st0" d="M155.8,15c4.1-3,14.4-10.8,20.9-7.1c0.3,10.7-2.1,23.8-0.8,38.2c-0.4,1.5-0.7,1.5-2.7,2.1
				c-6.8,0.7-7.3-5.1-9.6-9.1l-0.5-0.9l1.2,0.2c2.4,0.6,3.4,3.5,6.1,2.8c0-7.2,1.1-21.2-0.3-29.8c-4.6-0.1-9.4,5.2-13.7,5.5l-3-0.5
				L155.8,15z"/>
			<path class="st0" d="M167.7,22.2c-0.9-5.4-8.7-1-12.9-1C156.1,28.4,163.2,24.7,167.7,22.2z"/>
			<path class="st0" d="M168.4,27.7c-4.7-3.5-11.1,1.2-16,1.9c0.1,3.5,0.8,6.5,2.9,8.2C163.5,38,167.8,34.5,168.4,27.7z M157.6,34.3
				c0.1-1.2-0.9-1.4-0.7-2.7c2.7-0.2,3.5-2.1,6.1-2.3C161.9,31.5,160.7,33.8,157.6,34.3z"/>
			<path class="st0" d="M145.5,45.8c1.8-1.2,4.6-5.7,4.6-8.5c-5.9-2.3-13.3,4-13.3,4s-0.3,0.1-0.2,1c0.2,0.8,3.4,4.2,5.1,3.8
				C142.4,46,145.1,46,145.5,45.8z"/>
			<path class="st0" d="M148.4,31.4c-0.1,3.7-5.4,3.3-7.9,4.9c-0.9-0.3-2.7-3.1-1.2-3.5C139.3,32.7,146.3,29.9,148.4,31.4z"/>
			<path class="st0" d="M145.1,25.4c0,0,0.5-0.1,1.8,1.7c-0.7,1.9-6.2,2.3-7.5,2C139.5,29.1,137.8,25.9,145.1,25.4z"/>
			<path class="st0" d="M146.3,39.1c-0.1,0.5-2.2,4.7-2.8,4.8c-3.3,0.4-3.3-1-3.5-2C139.8,40.8,146.4,38.6,146.3,39.1z"/>
		</g>
		<g>
			<path class="st0" d="M104.7,40.2c5.6,1,12.3,4,10.2,9.3C113.9,49.9,105.8,44.5,104.7,40.2z"/>
			<path class="st0" d="M89.4,17.4c-0.7,1,1,1.9,1.8,1.9c0.3,0,0.2-1.9,0.7-2.2c1.3-0.9,8.5-5.1,11.7-6.4c2.8-1.1,5.3-2.5,6.9-3.6
				c4.3-2.7,0.4-6.5-3.1-7c-5.6-0.8-9.7,5.8-13.7,7.3c-1.4-1.2-2.2-3-4.4-3.5C89.1,8,91.7,12,95,13.8C92.4,15.6,90.1,16.3,89.4,17.4
				z M97.5,12.1c-1.7-4.8,6.2-13.9,9.7-7.6C105.2,8.2,101.1,9.9,97.5,12.1z"/>
			<g>
				<path class="st0" d="M81.9,8.7C82.9,4.8,80,2,76.1,1c-1.4,2.5,1.5,4.6,1.4,7.4C77.5,8.9,81.3,11.3,81.9,8.7z"/>
				<path class="st0" d="M78.7,40.1c3.6-2,4-4.7,7.5-6.8c-4.7,4.6-3.2,11-7.9,14.8c-5.4-4.7-5.7-16.6-2.7-25.7c0.9-2.8,4-0.5,4-0.5
					C78.4,28,76.3,33.6,78.7,40.1z"/>
			</g>
			<g>
				<g>
					<path class="st0" d="M113,16.7c-5-0.1-18.9,4-18.9,4c-1.8,0.8-2.9,4.3-3.4,6.3c-0.5,2.1,0.9,2.5,2.2,2.5c1.4,0,17.1-3.3,20.5-4
						c1.3-0.3,3.7-4.1,3.5-5.3C116.8,18.9,113.7,16.7,113,16.7z M108.8,22.5c-1.6,0.7-13.2,3.7-13.1,2.8c0-0.9,0.8-3.1,1.4-3.3
						c0,0,7.2-1.5,9-2C108.6,19.4,110.3,21.8,108.8,22.5z"/>
				</g>
			</g>
			<path class="st0" d="M89.3,32.7c0,0,27.1-7.7,25.4,0.3c-0.1,0.3-2.3-0.6-4.5-0.7c-2.2,0-19.5,3.4-19.9,3.3
				C88.8,35.2,87.9,32.7,89.3,32.7z"/>
			<path class="st0" d="M88.1,38.7c0,0,27.8-7.6,27.4-0.5c-0.1,1.3-4.1-1.2-7.6-0.6c-3.5,0.6-13.7,4.1-16,4.1
				C89.6,41.6,87,40,88.1,38.7z"/>
			<path class="st0" d="M100.2,15.5c0,0,0.9,11-0.1,16.4C98.8,38.9,89.9,48.2,88,49c-1.9,0.8,4.2,0,8.1-2.6c8.8-5.7,9.3-22.9,9-32.1
				C105,12.8,99.8,15.3,100.2,15.5z"/>
			<path class="st0" d="M91.8,17.6c0,0,7.1-3.1,9-3.6c1.7-0.5,9.5-3.4,12.8-2.6c1.9,0.5,4.5,2.6,4.2,3.3c-0.3,0.7-1.2,0.1-3.9,0
				c-8.2-0.1-22.3,5.3-22.9,4.4C89.3,16.8,90.4,18.5,91.8,17.6z"/>
		</g>
		<g>
			<path class="st0" d="M204.7,19.7c-0.7,2.2-4.4,1.4-6.6,2.2c-0.2-1.3,0.7-3.7-1.5-2.9C198.5,17.2,203.4,18.6,204.7,19.7z"/>
			<path class="st0" d="M200.4,36.2l0.4-1.1c0,0,2.3-8,2.3-8.1c0-1-1.2-1-2.4-0.8c-1.1,0.2-2.9-0.2-2.5,0.1
				c0.4,5.3-1.8,9.1-2.7,13.1c0.5,1,2.4,2,2.9,1.5c3.3-0.9,4.5-3.8,5.9-6.6L200.4,36.2z"/>
			<path class="st0" d="M218.3,40.6c4.7,0,9.9,0.2,10.2-2c0.9-1.8-7.9-0.9-8.8-1.5c-0.8-3.6,0.5-2.9,4.8-3.7
				c1.4-0.3,1.1-1.3,0.7-1.7c-0.5-0.5-0.9-1.3-2-0.9c0,0-2.1,0.7-3.2,0.4c-0.4-0.1-0.2-1.1-0.3-1.4c-0.5-1.7,5.1-1,5.2-1.4
				c0.1-0.4,0.1-2.3-1.4-2.5c0,0-0.1,0-0.1,0c-4.7,0.7-4,0.6-4.4-1.9c1.8-1.8,6.4-0.9,6.6-4.4c0-1.5-6.1,0.3-8.2,1.4
				c-0.3,0.1-0.6,0.3-0.8,0.5c-0.7,0.4-1.3,0.8-2,1.3c-1.1,0.6-2.2,0.9-2.9,1.1c0.5-7,10.5-7.7,9.5-13.8c-3.7-1.3-6.8,2-8.1,0.7
				c0.3-1,0.9-1.2,0-2.2c3-1.4,8.8,0,8.8-4.4c-6.2-5.6-15,1.1-21.9,2.1c-0.1,0-2.4,0-3.7-0.2c-1.3-0.1-1.1,1.6-0.4,2
				c0.7,0.4,1.5,0.6,4.6,0.9c0.8,0.1,1.4,0.1,1.8,0c2.3,0.2,4.8,0.2,6.4,1c-2.6,3.1-4.3,10.3,0.7,9.5c-1.2,3.4-1.9,7.3-3.4,10.4
				c-0.7,1.2-1.6,2.9-2.2,3.2c-1,0.5,1.2,0.7,3.4-0.4c0.5,4.5-0.7,7.2-0.7,11.2c-5.4,0.6-10.3,1.1-10.8,1.1c-1,0-1.6-2.2-1.6-2.2
				l0,0c1.4-8,0.8-18.1,1.4-27c-1.2-0.8-3.9-3.8-5.9-1.5c4.1,8.4-2.3,21.3-0.7,33c0.2,0.5,0.5,0.9,0.9,1l0,0c0.1,0,0.2,0,0.3,0.1
				c0,0,0.1,0,0.1,0c9.1,2.4,27.1-2.1,38.4-1.8c0.4-6.6-8.9-4.2-14-3.5c-0.5,0-1,0.1-1.4,0.1c-1.2,0-1.9-0.1-1.9-0.7
				c-0.1-0.2-0.1-1.2-0.2-1.6C211.9,41,214.9,40.6,218.3,40.6z M211.4,26.2c0.1,0,0.1-0.1,0.2-0.1l0-0.1l1.1-0.3l2.6-1
				c0.3,0.1,0.3,1.6,0.2,2.4c-0.2,0.4-4.4,0.9-4.5,0.9C211,26.7,211.2,26.6,211.4,26.2z M210.9,32.9c0-0.7,0.1-1.4,0.1-2
				c1.4,0,4.6-0.3,5.1-0.4c0.1,0.3,0.1,0.6,0.1,0.8c0,0.1,0,0.6,0,0.7c-0.1,1.4-4.6,1.9-5.3,1.8V32.9z M210.7,39.2
				c0-0.6,0.2-2.6,0.2-3.2c1.1-0.1,2.4-0.2,3.8-0.3c1,0.7,1.5,2.1,0.8,3.2C214,39.1,212,39.2,210.7,39.2z"/>
		</g>
	</g>
	<g>
		<path d="M8.5,74.5l1.5,0.4c-0.3,1.2-0.9,2.2-1.7,2.8c-0.8,0.6-1.8,1-3,1c-1.2,0-2.2-0.2-3-0.7c-0.8-0.5-1.3-1.2-1.7-2.2
			c-0.4-0.9-0.6-2-0.6-3c0-1.2,0.2-2.2,0.7-3.1c0.5-0.9,1.1-1.5,1.9-2c0.8-0.5,1.8-0.7,2.8-0.7c1.1,0,2.1,0.3,2.9,0.9
			s1.3,1.4,1.6,2.4l-1.5,0.3c-0.3-0.8-0.6-1.4-1.1-1.8c-0.5-0.4-1.1-0.6-1.9-0.6c-0.9,0-1.6,0.2-2.2,0.6c-0.6,0.4-1,1-1.2,1.7
			s-0.4,1.4-0.4,2.2c0,1,0.1,1.8,0.4,2.5c0.3,0.7,0.7,1.3,1.3,1.6c0.6,0.4,1.2,0.5,1.9,0.5c0.8,0,1.6-0.2,2.1-0.7
			C7.9,76.1,8.3,75.4,8.5,74.5z"/>
		<path d="M11.7,78.4V67.1h1.4v4.1c0.7-0.8,1.5-1.1,2.5-1.1c0.6,0,1.1,0.1,1.6,0.4c0.4,0.2,0.8,0.6,1,1c0.2,0.4,0.3,1,0.3,1.8v5.2
			H17v-5.2c0-0.7-0.2-1.2-0.5-1.5c-0.3-0.3-0.7-0.5-1.3-0.5c-0.4,0-0.8,0.1-1.2,0.3c-0.4,0.2-0.6,0.5-0.8,0.9
			c-0.2,0.4-0.2,0.9-0.2,1.5v4.5H11.7z"/>
		<path d="M20.5,68.7v-1.6h1.4v1.6H20.5z M20.5,78.4v-8.2h1.4v8.2H20.5z"/>
		<path d="M24,78.4v-8.2h1.3v1.2c0.6-0.9,1.5-1.4,2.6-1.4c0.5,0,1,0.1,1.4,0.3c0.4,0.2,0.7,0.4,0.9,0.7c0.2,0.3,0.4,0.6,0.4,1
			c0.1,0.3,0.1,0.7,0.1,1.4v5.1h-1.4v-5c0-0.6-0.1-1-0.2-1.3c-0.1-0.3-0.3-0.5-0.6-0.7c-0.3-0.2-0.6-0.3-1-0.3
			c-0.6,0-1.1,0.2-1.5,0.6c-0.4,0.4-0.6,1.1-0.6,2.1v4.5H24z"/>
		<path d="M38.5,75.8l1.4,0.2c-0.2,0.8-0.6,1.5-1.3,2c-0.6,0.5-1.4,0.7-2.4,0.7c-1.2,0-2.2-0.4-2.9-1.1c-0.7-0.7-1.1-1.8-1.1-3.1
			c0-1.4,0.4-2.5,1.1-3.2c0.7-0.8,1.6-1.1,2.8-1.1c1.1,0,2,0.4,2.7,1.1c0.7,0.7,1,1.8,1,3.2c0,0.1,0,0.2,0,0.4h-6.1
			c0.1,0.9,0.3,1.6,0.8,2.1c0.5,0.5,1,0.7,1.7,0.7c0.5,0,0.9-0.1,1.3-0.4C38,76.8,38.3,76.4,38.5,75.8z M33.9,73.5h4.6
			c-0.1-0.7-0.2-1.2-0.5-1.6c-0.4-0.5-1-0.8-1.7-0.8c-0.6,0-1.2,0.2-1.6,0.6C34.2,72.3,34,72.8,33.9,73.5z"/>
		<path d="M41.1,76l1.4-0.2c0.1,0.6,0.3,1,0.6,1.3c0.4,0.3,0.8,0.4,1.5,0.4c0.6,0,1.1-0.1,1.4-0.4c0.3-0.3,0.5-0.6,0.5-0.9
			c0-0.3-0.1-0.6-0.4-0.7c-0.2-0.1-0.7-0.3-1.4-0.5c-1-0.3-1.7-0.5-2.1-0.7c-0.4-0.2-0.7-0.4-0.9-0.8c-0.2-0.3-0.3-0.7-0.3-1.1
			c0-0.4,0.1-0.7,0.3-1c0.2-0.3,0.4-0.6,0.7-0.8c0.2-0.2,0.5-0.3,0.9-0.4c0.4-0.1,0.8-0.2,1.2-0.2c0.6,0,1.2,0.1,1.7,0.3
			c0.5,0.2,0.8,0.4,1.1,0.8c0.2,0.3,0.4,0.7,0.5,1.3l-1.4,0.2c-0.1-0.4-0.2-0.8-0.5-1c-0.3-0.2-0.7-0.4-1.3-0.4
			c-0.6,0-1.1,0.1-1.4,0.3c-0.3,0.2-0.4,0.5-0.4,0.7c0,0.2,0.1,0.3,0.2,0.5c0.1,0.2,0.3,0.3,0.5,0.4c0.1,0.1,0.6,0.2,1.2,0.4
			c1,0.3,1.7,0.5,2.1,0.6c0.4,0.2,0.7,0.4,0.9,0.7c0.2,0.3,0.3,0.7,0.3,1.2c0,0.5-0.1,0.9-0.4,1.3c-0.3,0.4-0.7,0.7-1.2,1
			c-0.5,0.2-1.1,0.3-1.7,0.3c-1.1,0-1.9-0.2-2.4-0.7C41.6,77.5,41.3,76.9,41.1,76z"/>
		<path d="M55.2,75.8l1.4,0.2c-0.2,0.8-0.6,1.5-1.3,2c-0.6,0.5-1.4,0.7-2.4,0.7c-1.2,0-2.2-0.4-2.9-1.1c-0.7-0.7-1.1-1.8-1.1-3.1
			c0-1.4,0.4-2.5,1.1-3.2c0.7-0.8,1.6-1.1,2.8-1.1c1.1,0,2,0.4,2.7,1.1c0.7,0.7,1,1.8,1,3.2c0,0.1,0,0.2,0,0.4h-6.1
			c0.1,0.9,0.3,1.6,0.8,2.1c0.5,0.5,1,0.7,1.7,0.7c0.5,0,0.9-0.1,1.3-0.4C54.7,76.8,55,76.4,55.2,75.8z M50.7,73.5h4.6
			c-0.1-0.7-0.2-1.2-0.5-1.6c-0.4-0.5-1-0.8-1.7-0.8c-0.6,0-1.2,0.2-1.6,0.6C51,72.3,50.7,72.8,50.7,73.5z"/>
	</g>
	<g>
		<path d="M66.3,78.4l-4.4-11.4h1.6l2.9,8.2c0.2,0.7,0.4,1.3,0.6,1.9c0.2-0.6,0.4-1.2,0.6-1.9l3.1-8.2h1.5l-4.4,11.4H66.3z"/>
	</g>
	<g>
		<path d="M72,74.3c0-1.5,0.4-2.7,1.3-3.4c0.7-0.6,1.6-0.9,2.6-0.9c1.1,0,2.1,0.4,2.8,1.1c0.7,0.7,1.1,1.8,1.1,3.1
			c0,1.1-0.2,1.9-0.5,2.5c-0.3,0.6-0.8,1.1-1.4,1.4c-0.6,0.3-1.3,0.5-2,0.5c-1.2,0-2.1-0.4-2.8-1.1C72.4,76.8,72,75.7,72,74.3z
			 M73.5,74.3c0,1.1,0.2,1.8,0.7,2.4c0.5,0.5,1,0.8,1.7,0.8c0.7,0,1.3-0.3,1.7-0.8c0.5-0.5,0.7-1.3,0.7-2.4c0-1-0.2-1.8-0.7-2.3
			c-0.5-0.5-1-0.8-1.7-0.8c-0.7,0-1.3,0.3-1.7,0.8C73.7,72.5,73.5,73.3,73.5,74.3z"/>
		<path d="M86.7,75.4l1.4,0.2c-0.1,0.9-0.5,1.7-1.1,2.2c-0.6,0.5-1.4,0.8-2.3,0.8c-1.1,0-2-0.4-2.7-1.1c-0.7-0.7-1-1.8-1-3.2
			c0-0.9,0.1-1.7,0.4-2.3c0.3-0.7,0.7-1.2,1.3-1.5c0.6-0.3,1.3-0.5,2-0.5c0.9,0,1.6,0.2,2.2,0.7c0.6,0.5,0.9,1.1,1.1,1.9l-1.4,0.2
			c-0.1-0.6-0.4-1-0.7-1.2c-0.3-0.3-0.7-0.4-1.2-0.4c-0.7,0-1.3,0.3-1.7,0.8c-0.4,0.5-0.7,1.3-0.7,2.4c0,1.1,0.2,1.9,0.6,2.4
			c0.4,0.5,1,0.8,1.7,0.8c0.5,0,1-0.2,1.4-0.5C86.4,76.7,86.6,76.1,86.7,75.4z"/>
		<path d="M94.7,77.4c-0.5,0.4-1,0.7-1.5,0.9c-0.5,0.2-1,0.3-1.5,0.3c-0.9,0-1.6-0.2-2.1-0.7c-0.5-0.4-0.7-1-0.7-1.7
			c0-0.4,0.1-0.8,0.3-1.1c0.2-0.3,0.4-0.6,0.7-0.8c0.3-0.2,0.6-0.4,1-0.5c0.3-0.1,0.7-0.1,1.2-0.2c1.1-0.1,2-0.3,2.5-0.5
			c0-0.2,0-0.3,0-0.4c0-0.6-0.1-1-0.4-1.2c-0.4-0.3-0.9-0.5-1.6-0.5c-0.7,0-1.1,0.1-1.5,0.3c-0.3,0.2-0.5,0.6-0.7,1.2l-1.4-0.2
			c0.1-0.6,0.3-1.1,0.6-1.4c0.3-0.4,0.7-0.6,1.2-0.8c0.5-0.2,1.2-0.3,1.9-0.3c0.7,0,1.3,0.1,1.7,0.2c0.4,0.2,0.8,0.4,1,0.6
			c0.2,0.3,0.4,0.6,0.4,0.9c0,0.2,0.1,0.7,0.1,1.3V75c0,1.3,0,2.1,0.1,2.5c0.1,0.3,0.2,0.7,0.4,1h-1.5
			C94.8,78.2,94.7,77.8,94.7,77.4z M94.5,74.3c-0.5,0.2-1.3,0.4-2.3,0.5c-0.6,0.1-1,0.2-1.2,0.3c-0.2,0.1-0.4,0.3-0.5,0.5
			c-0.1,0.2-0.2,0.4-0.2,0.7c0,0.4,0.1,0.7,0.4,0.9c0.3,0.2,0.7,0.4,1.2,0.4c0.5,0,1-0.1,1.4-0.4c0.4-0.2,0.7-0.6,0.9-1
			c0.1-0.3,0.2-0.8,0.2-1.4V74.3z"/>
		<path d="M99.4,78.4h-1.3V67.1h1.4v4c0.6-0.7,1.3-1.1,2.3-1.1c0.5,0,1,0.1,1.4,0.3c0.5,0.2,0.8,0.5,1.1,0.9
			c0.3,0.4,0.5,0.8,0.7,1.3s0.2,1.1,0.2,1.7c0,1.4-0.3,2.5-1,3.3s-1.5,1.2-2.5,1.2c-1,0-1.7-0.4-2.3-1.2V78.4z M99.4,74.3
			c0,1,0.1,1.7,0.4,2.1c0.4,0.7,1,1.1,1.8,1.1c0.6,0,1.1-0.3,1.6-0.8c0.4-0.5,0.7-1.3,0.7-2.4c0-1.1-0.2-1.9-0.6-2.4
			c-0.4-0.5-0.9-0.8-1.5-0.8c-0.6,0-1.1,0.3-1.6,0.8C99.6,72.5,99.4,73.3,99.4,74.3z"/>
		<path d="M112.3,78.4v-1.2c-0.6,0.9-1.5,1.4-2.6,1.4c-0.5,0-0.9-0.1-1.4-0.3c-0.4-0.2-0.7-0.4-0.9-0.7c-0.2-0.3-0.3-0.6-0.4-1
			c-0.1-0.3-0.1-0.7-0.1-1.3v-5.1h1.4v4.6c0,0.7,0,1.2,0.1,1.5c0.1,0.4,0.3,0.7,0.6,0.9c0.3,0.2,0.6,0.3,1.1,0.3
			c0.4,0,0.8-0.1,1.2-0.3c0.4-0.2,0.6-0.5,0.8-0.9c0.2-0.4,0.2-0.9,0.2-1.6v-4.4h1.4v8.2H112.3z"/>
		<path d="M115.7,78.4V67.1h1.4v11.4H115.7z"/>
		<path d="M124.6,77.4c-0.5,0.4-1,0.7-1.5,0.9c-0.5,0.2-1,0.3-1.5,0.3c-0.9,0-1.6-0.2-2.1-0.7c-0.5-0.4-0.7-1-0.7-1.7
			c0-0.4,0.1-0.8,0.3-1.1c0.2-0.3,0.4-0.6,0.7-0.8c0.3-0.2,0.6-0.4,1-0.5c0.3-0.1,0.7-0.1,1.2-0.2c1.1-0.1,2-0.3,2.5-0.5
			c0-0.2,0-0.3,0-0.4c0-0.6-0.1-1-0.4-1.2c-0.4-0.3-0.9-0.5-1.6-0.5c-0.7,0-1.1,0.1-1.5,0.3c-0.3,0.2-0.5,0.6-0.7,1.2l-1.4-0.2
			c0.1-0.6,0.3-1.1,0.6-1.4c0.3-0.4,0.7-0.6,1.2-0.8c0.5-0.2,1.2-0.3,1.9-0.3c0.7,0,1.3,0.1,1.7,0.2c0.4,0.2,0.8,0.4,1,0.6
			c0.2,0.3,0.4,0.6,0.4,0.9c0,0.2,0.1,0.7,0.1,1.3V75c0,1.3,0,2.1,0.1,2.5c0.1,0.3,0.2,0.7,0.4,1h-1.5
			C124.8,78.2,124.7,77.8,124.6,77.4z M124.5,74.3c-0.5,0.2-1.3,0.4-2.3,0.5c-0.6,0.1-1,0.2-1.2,0.3c-0.2,0.1-0.4,0.3-0.5,0.5
			c-0.1,0.2-0.2,0.4-0.2,0.7c0,0.4,0.1,0.7,0.4,0.9c0.3,0.2,0.7,0.4,1.2,0.4c0.5,0,1-0.1,1.4-0.4c0.4-0.2,0.7-0.6,0.9-1
			c0.1-0.3,0.2-0.8,0.2-1.4V74.3z"/>
		<path d="M128.1,78.4v-8.2h1.3v1.2c0.3-0.6,0.6-1,0.9-1.2c0.3-0.2,0.6-0.3,0.9-0.3c0.5,0,0.9,0.1,1.4,0.4l-0.5,1.3
			c-0.3-0.2-0.7-0.3-1-0.3c-0.3,0-0.6,0.1-0.8,0.3c-0.2,0.2-0.4,0.4-0.5,0.8c-0.2,0.5-0.2,1-0.2,1.6v4.3H128.1z"/>
		<path d="M133.3,81.6l-0.2-1.3c0.3,0.1,0.6,0.1,0.8,0.1c0.3,0,0.6-0.1,0.7-0.2c0.2-0.1,0.3-0.2,0.5-0.4c0.1-0.1,0.2-0.5,0.4-1
			c0-0.1,0.1-0.2,0.1-0.3l-3.1-8.2h1.5l1.7,4.8c0.2,0.6,0.4,1.2,0.6,1.9c0.2-0.6,0.4-1.3,0.6-1.9l1.8-4.8h1.4l-3.1,8.4
			c-0.3,0.9-0.6,1.5-0.8,1.9c-0.2,0.5-0.5,0.8-0.9,1c-0.3,0.2-0.7,0.3-1.1,0.3C133.9,81.8,133.6,81.7,133.3,81.6z"/>
		<path d="M154,74.5l1.5,0.4c-0.3,1.2-0.9,2.2-1.7,2.8s-1.8,1-3,1c-1.2,0-2.2-0.2-3-0.7c-0.8-0.5-1.3-1.2-1.7-2.2
			c-0.4-0.9-0.6-2-0.6-3c0-1.2,0.2-2.2,0.7-3.1c0.5-0.9,1.1-1.5,1.9-2c0.8-0.5,1.8-0.7,2.8-0.7c1.1,0,2.1,0.3,2.9,0.9
			s1.3,1.4,1.6,2.4l-1.5,0.3c-0.3-0.8-0.6-1.4-1.1-1.8c-0.5-0.4-1.1-0.6-1.9-0.6c-0.9,0-1.6,0.2-2.2,0.6c-0.6,0.4-1,1-1.2,1.7
			c-0.2,0.7-0.4,1.4-0.4,2.2c0,1,0.1,1.8,0.4,2.5c0.3,0.7,0.7,1.3,1.3,1.6c0.6,0.4,1.2,0.5,1.9,0.5c0.8,0,1.6-0.2,2.1-0.7
			C153.4,76.1,153.8,75.4,154,74.5z"/>
		<path d="M156.6,74.3c0-1.5,0.4-2.7,1.3-3.4c0.7-0.6,1.6-0.9,2.6-0.9c1.1,0,2.1,0.4,2.8,1.1c0.7,0.7,1.1,1.8,1.1,3.1
			c0,1.1-0.2,1.9-0.5,2.5c-0.3,0.6-0.8,1.1-1.4,1.4c-0.6,0.3-1.3,0.5-2,0.5c-1.2,0-2.1-0.4-2.8-1.1C157,76.8,156.6,75.7,156.6,74.3z
			 M158.1,74.3c0,1.1,0.2,1.8,0.7,2.4c0.5,0.5,1,0.8,1.7,0.8c0.7,0,1.3-0.3,1.7-0.8c0.5-0.5,0.7-1.3,0.7-2.4c0-1-0.2-1.8-0.7-2.3
			c-0.5-0.5-1-0.8-1.7-0.8c-0.7,0-1.3,0.3-1.7,0.8C158.3,72.5,158.1,73.3,158.1,74.3z"/>
		<path d="M166,78.4v-8.2h1.2v1.2c0.3-0.4,0.6-0.7,1-1c0.4-0.2,0.9-0.4,1.5-0.4c0.6,0,1.1,0.1,1.5,0.4c0.4,0.3,0.7,0.6,0.8,1.1
			c0.7-1,1.5-1.4,2.5-1.4c0.8,0,1.4,0.2,1.9,0.7c0.4,0.5,0.7,1.1,0.7,2.1v5.6h-1.4v-5.2c0-0.6,0-1-0.1-1.2c-0.1-0.2-0.3-0.4-0.5-0.6
			c-0.2-0.1-0.5-0.2-0.8-0.2c-0.6,0-1.1,0.2-1.4,0.6c-0.4,0.4-0.6,1-0.6,1.8v4.8h-1.4v-5.3c0-0.6-0.1-1.1-0.3-1.4
			c-0.2-0.3-0.6-0.5-1.1-0.5c-0.4,0-0.8,0.1-1.1,0.3c-0.3,0.2-0.6,0.5-0.7,0.9c-0.1,0.4-0.2,1-0.2,1.7v4.3H166z"/>
		<path d="M179.2,81.6V70.2h1.3v1.1c0.3-0.4,0.6-0.7,1-0.9c0.4-0.2,0.8-0.3,1.4-0.3c0.7,0,1.3,0.2,1.9,0.5c0.5,0.4,0.9,0.9,1.2,1.5
			c0.3,0.7,0.4,1.4,0.4,2.2c0,0.8-0.2,1.6-0.5,2.3c-0.3,0.7-0.7,1.2-1.3,1.5c-0.6,0.4-1.2,0.5-1.8,0.5c-0.5,0-0.9-0.1-1.3-0.3
			c-0.4-0.2-0.7-0.4-0.9-0.7v4H179.2z M180.4,74.4c0,1.1,0.2,1.8,0.6,2.3c0.4,0.5,0.9,0.8,1.6,0.8c0.6,0,1.1-0.3,1.6-0.8
			c0.4-0.5,0.7-1.3,0.7-2.4c0-1-0.2-1.8-0.6-2.4s-0.9-0.8-1.5-0.8c-0.6,0-1.1,0.3-1.6,0.8C180.7,72.5,180.4,73.3,180.4,74.4z"/>
		<path d="M188,78.4v-8.2h1.3v1.2c0.3-0.6,0.6-1,0.9-1.2c0.3-0.2,0.6-0.3,0.9-0.3c0.5,0,0.9,0.1,1.4,0.4l-0.5,1.3
			c-0.3-0.2-0.7-0.3-1-0.3c-0.3,0-0.6,0.1-0.8,0.3c-0.2,0.2-0.4,0.4-0.5,0.8c-0.2,0.5-0.2,1-0.2,1.6v4.3H188z"/>
		<path d="M198.9,75.8l1.4,0.2c-0.2,0.8-0.6,1.5-1.3,2c-0.6,0.5-1.4,0.7-2.4,0.7c-1.2,0-2.2-0.4-2.9-1.1c-0.7-0.7-1.1-1.8-1.1-3.1
			c0-1.4,0.4-2.5,1.1-3.2c0.7-0.8,1.6-1.1,2.8-1.1c1.1,0,2,0.4,2.7,1.1c0.7,0.7,1,1.8,1,3.2c0,0.1,0,0.2,0,0.4h-6.1
			c0.1,0.9,0.3,1.6,0.8,2.1c0.5,0.5,1,0.7,1.7,0.7c0.5,0,0.9-0.1,1.3-0.4C198.4,76.8,198.7,76.4,198.9,75.8z M194.3,73.5h4.6
			c-0.1-0.7-0.2-1.2-0.5-1.6c-0.4-0.5-1-0.8-1.7-0.8c-0.6,0-1.2,0.2-1.6,0.6C194.6,72.3,194.4,72.8,194.3,73.5z"/>
		<path d="M202.1,78.4V67.1h1.4v4.1c0.6-0.8,1.5-1.1,2.5-1.1c0.6,0,1.1,0.1,1.6,0.4c0.4,0.2,0.8,0.6,1,1c0.2,0.4,0.3,1,0.3,1.8v5.2
			h-1.4v-5.2c0-0.7-0.2-1.2-0.5-1.5c-0.3-0.3-0.7-0.5-1.3-0.5c-0.4,0-0.8,0.1-1.2,0.3c-0.4,0.2-0.6,0.5-0.8,0.9
			c-0.2,0.4-0.2,0.9-0.2,1.5v4.5H202.1z"/>
		<path d="M216.5,75.8L218,76c-0.2,0.8-0.6,1.5-1.3,2c-0.6,0.5-1.4,0.7-2.4,0.7c-1.2,0-2.2-0.4-2.9-1.1c-0.7-0.7-1.1-1.8-1.1-3.1
			c0-1.4,0.4-2.5,1.1-3.2c0.7-0.8,1.6-1.1,2.8-1.1c1.1,0,2,0.4,2.7,1.1c0.7,0.7,1,1.8,1,3.2c0,0.1,0,0.2,0,0.4h-6.1
			c0.1,0.9,0.3,1.6,0.8,2.1c0.5,0.5,1,0.7,1.7,0.7c0.5,0,0.9-0.1,1.3-0.4C216,76.8,216.3,76.4,216.5,75.8z M212,73.5h4.6
			c-0.1-0.7-0.2-1.2-0.5-1.6c-0.4-0.5-1-0.8-1.7-0.8c-0.6,0-1.2,0.2-1.6,0.6C212.2,72.3,212,72.8,212,73.5z"/>
		<path d="M219.7,78.4v-8.2h1.3v1.2c0.6-0.9,1.5-1.4,2.6-1.4c0.5,0,1,0.1,1.4,0.3c0.4,0.2,0.7,0.4,0.9,0.7c0.2,0.3,0.4,0.6,0.4,1
			c0.1,0.3,0.1,0.7,0.1,1.4v5.1H225v-5c0-0.6-0.1-1-0.2-1.3c-0.1-0.3-0.3-0.5-0.6-0.7c-0.3-0.2-0.6-0.3-1-0.3
			c-0.6,0-1.1,0.2-1.5,0.6c-0.4,0.4-0.6,1.1-0.6,2.1v4.5H219.7z"/>
		<path d="M228,76l1.4-0.2c0.1,0.6,0.3,1,0.6,1.3c0.4,0.3,0.8,0.4,1.5,0.4c0.6,0,1.1-0.1,1.4-0.4c0.3-0.3,0.5-0.6,0.5-0.9
			c0-0.3-0.1-0.6-0.4-0.7c-0.2-0.1-0.7-0.3-1.4-0.5c-1-0.3-1.7-0.5-2.1-0.7c-0.4-0.2-0.7-0.4-0.9-0.8c-0.2-0.3-0.3-0.7-0.3-1.1
			c0-0.4,0.1-0.7,0.3-1c0.2-0.3,0.4-0.6,0.7-0.8c0.2-0.2,0.5-0.3,0.9-0.4c0.4-0.1,0.8-0.2,1.2-0.2c0.6,0,1.2,0.1,1.7,0.3
			c0.5,0.2,0.8,0.4,1.1,0.8c0.2,0.3,0.4,0.7,0.5,1.3l-1.4,0.2c-0.1-0.4-0.2-0.8-0.5-1c-0.3-0.2-0.7-0.4-1.3-0.4
			c-0.6,0-1.1,0.1-1.4,0.3c-0.3,0.2-0.4,0.5-0.4,0.7c0,0.2,0.1,0.3,0.2,0.5c0.1,0.2,0.3,0.3,0.5,0.4c0.1,0.1,0.5,0.2,1.2,0.4
			c1,0.3,1.7,0.5,2.1,0.6c0.4,0.2,0.7,0.4,0.9,0.7c0.2,0.3,0.3,0.7,0.3,1.2c0,0.5-0.1,0.9-0.4,1.3c-0.3,0.4-0.7,0.7-1.2,1
			c-0.5,0.2-1.1,0.3-1.7,0.3c-1.1,0-1.9-0.2-2.4-0.7C228.5,77.5,228.1,76.9,228,76z"/>
		<path d="M236.5,68.7v-1.6h1.4v1.6H236.5z M236.5,78.4v-8.2h1.4v8.2H236.5z"/>
		<path d="M239.5,74.3c0-1.5,0.4-2.7,1.3-3.4c0.7-0.6,1.6-0.9,2.6-0.9c1.1,0,2.1,0.4,2.8,1.1c0.7,0.7,1.1,1.8,1.1,3.1
			c0,1.1-0.2,1.9-0.5,2.5c-0.3,0.6-0.8,1.1-1.4,1.4c-0.6,0.3-1.3,0.5-2,0.5c-1.2,0-2.1-0.4-2.8-1.1
			C239.8,76.8,239.5,75.7,239.5,74.3z M240.9,74.3c0,1.1,0.2,1.8,0.7,2.4c0.5,0.5,1,0.8,1.7,0.8c0.7,0,1.3-0.3,1.7-0.8
			c0.5-0.5,0.7-1.3,0.7-2.4c0-1-0.2-1.8-0.7-2.3c-0.5-0.5-1-0.8-1.7-0.8c-0.7,0-1.3,0.3-1.7,0.8C241.1,72.5,240.9,73.3,240.9,74.3z"
			/>
		<path d="M248.8,78.4v-8.2h1.3v1.2c0.6-0.9,1.5-1.4,2.6-1.4c0.5,0,1,0.1,1.4,0.3c0.4,0.2,0.7,0.4,0.9,0.7c0.2,0.3,0.4,0.6,0.4,1
			c0.1,0.3,0.1,0.7,0.1,1.4v5.1h-1.4v-5c0-0.6-0.1-1-0.2-1.3c-0.1-0.3-0.3-0.5-0.6-0.7c-0.3-0.2-0.6-0.3-1-0.3
			c-0.6,0-1.1,0.2-1.5,0.6c-0.4,0.4-0.6,1.1-0.6,2.1v4.5H248.8z"/>
		<path d="M261.7,74.8l1.4-0.1c0.1,0.6,0.2,1,0.5,1.4c0.2,0.4,0.6,0.7,1.1,0.9c0.5,0.2,1.1,0.3,1.7,0.3c0.6,0,1.1-0.1,1.5-0.3
			c0.4-0.2,0.8-0.4,1-0.7c0.2-0.3,0.3-0.6,0.3-1c0-0.4-0.1-0.7-0.3-0.9c-0.2-0.3-0.5-0.5-1-0.7c-0.3-0.1-1-0.3-2-0.6
			c-1-0.3-1.8-0.5-2.2-0.7c-0.5-0.3-0.9-0.6-1.2-1.1c-0.3-0.4-0.4-0.9-0.4-1.4c0-0.6,0.2-1.1,0.5-1.6c0.3-0.5,0.8-0.9,1.4-1.1
			c0.6-0.3,1.3-0.4,2.1-0.4c0.8,0,1.6,0.1,2.2,0.4c0.6,0.3,1.1,0.7,1.5,1.2c0.3,0.5,0.5,1.1,0.6,1.8l-1.4,0.1
			c-0.1-0.7-0.3-1.3-0.8-1.6c-0.4-0.4-1.1-0.6-2-0.6c-0.9,0-1.6,0.2-2,0.5c-0.4,0.3-0.6,0.7-0.6,1.2c0,0.4,0.1,0.7,0.4,1
			c0.3,0.3,1,0.5,2.3,0.8c1.2,0.3,2.1,0.5,2.5,0.7c0.7,0.3,1.1,0.7,1.5,1.2c0.3,0.5,0.5,1,0.5,1.6c0,0.6-0.2,1.2-0.5,1.7
			c-0.3,0.5-0.8,0.9-1.5,1.2c-0.6,0.3-1.4,0.4-2.2,0.4c-1,0-1.9-0.2-2.6-0.4c-0.7-0.3-1.2-0.7-1.6-1.4
			C261.9,76.2,261.7,75.6,261.7,74.8z"/>
		<path d="M278,75.4l1.4,0.2c-0.2,0.9-0.5,1.7-1.2,2.2c-0.6,0.5-1.4,0.8-2.3,0.8c-1.1,0-2-0.4-2.7-1.1c-0.7-0.7-1-1.8-1-3.2
			c0-0.9,0.1-1.7,0.4-2.3c0.3-0.7,0.7-1.2,1.3-1.5c0.6-0.3,1.3-0.5,2-0.5c0.9,0,1.6,0.2,2.2,0.7c0.6,0.5,0.9,1.1,1.1,1.9l-1.4,0.2
			c-0.1-0.6-0.4-1-0.7-1.2c-0.3-0.3-0.7-0.4-1.2-0.4c-0.7,0-1.3,0.3-1.7,0.8c-0.4,0.5-0.7,1.3-0.7,2.4c0,1.1,0.2,1.9,0.6,2.4
			c0.4,0.5,1,0.8,1.7,0.8c0.5,0,1-0.2,1.4-0.5C277.7,76.7,277.9,76.1,278,75.4z"/>
		<path d="M285.9,77.4c-0.5,0.4-1,0.7-1.5,0.9c-0.5,0.2-1,0.3-1.5,0.3c-0.9,0-1.6-0.2-2.1-0.7c-0.5-0.4-0.7-1-0.7-1.7
			c0-0.4,0.1-0.8,0.3-1.1c0.2-0.3,0.4-0.6,0.7-0.8c0.3-0.2,0.6-0.4,1-0.5c0.3-0.1,0.7-0.1,1.2-0.2c1.1-0.1,2-0.3,2.5-0.5
			c0-0.2,0-0.3,0-0.4c0-0.6-0.1-1-0.4-1.2c-0.4-0.3-0.9-0.5-1.6-0.5c-0.7,0-1.1,0.1-1.5,0.3s-0.5,0.6-0.7,1.2l-1.4-0.2
			c0.1-0.6,0.3-1.1,0.6-1.4c0.3-0.4,0.7-0.6,1.2-0.8c0.5-0.2,1.2-0.3,1.9-0.3c0.7,0,1.3,0.1,1.7,0.2c0.4,0.2,0.8,0.4,1,0.6
			c0.2,0.3,0.4,0.6,0.4,0.9c0,0.2,0.1,0.7,0.1,1.3V75c0,1.3,0,2.1,0.1,2.5c0.1,0.3,0.2,0.7,0.4,1h-1.5C286,78.2,286,77.8,285.9,77.4
			z M285.8,74.3c-0.5,0.2-1.3,0.4-2.3,0.5c-0.6,0.1-1,0.2-1.2,0.3c-0.2,0.1-0.4,0.3-0.5,0.5c-0.1,0.2-0.2,0.4-0.2,0.7
			c0,0.4,0.1,0.7,0.4,0.9c0.3,0.2,0.7,0.4,1.2,0.4c0.5,0,1-0.1,1.4-0.4c0.4-0.2,0.7-0.6,0.9-1c0.1-0.3,0.2-0.8,0.2-1.4V74.3z"/>
		<path d="M289.3,78.4V67.1h1.4v11.4H289.3z"/>
		<path d="M298.5,75.8L300,76c-0.2,0.8-0.6,1.5-1.3,2c-0.6,0.5-1.4,0.7-2.4,0.7c-1.2,0-2.2-0.4-2.9-1.1c-0.7-0.7-1.1-1.8-1.1-3.1
			c0-1.4,0.4-2.5,1.1-3.2c0.7-0.8,1.6-1.1,2.8-1.1c1.1,0,2,0.4,2.7,1.1c0.7,0.7,1,1.8,1,3.2c0,0.1,0,0.2,0,0.4h-6.1
			c0.1,0.9,0.3,1.6,0.8,2.1c0.5,0.5,1,0.7,1.7,0.7c0.5,0,0.9-0.1,1.3-0.4C298,76.8,298.3,76.4,298.5,75.8z M293.9,73.5h4.6
			c-0.1-0.7-0.2-1.2-0.5-1.6c-0.4-0.5-1-0.8-1.7-0.8c-0.6,0-1.2,0.2-1.6,0.6C294.2,72.3,294,72.8,293.9,73.5z"/>
	</g>
</g>
</svg>
