<?xml version="1.0" encoding="utf-8"?>
<!-- Generator: Adobe Illustrator 16.0.0, SVG Export Plug-In . SVG Version: 6.00 Build 0)  -->
<!DOCTYPE svg PUBLIC "-//W3C//DTD SVG 1.1//EN" "http://www.w3.org/Graphics/SVG/1.1/DTD/svg11.dtd">
<svg version="1.1" id="圖層_1" xmlns="http://www.w3.org/2000/svg" xmlns:xlink="http://www.w3.org/1999/xlink" x="0px" y="0px"
	 width="8.211px" height="8.715px" viewBox="0 0 8.211 8.715" enable-background="new 0 0 8.211 8.715" xml:space="preserve">
<g>
	<g>
		<path fill="#4B4B4B" d="M4.105,8.715c-0.137,0-0.271-0.055-0.37-0.164L0.129,4.587c-0.185-0.205-0.17-0.521,0.034-0.707
			c0.205-0.184,0.52-0.17,0.707,0.034l3.606,3.965c0.186,0.204,0.17,0.521-0.034,0.706C4.347,8.672,4.227,8.715,4.105,8.715z"/>
	</g>
	<g>
		<path fill="#4B4B4B" d="M4.105,8.715c-0.12,0-0.241-0.043-0.336-0.13c-0.205-0.186-0.22-0.502-0.034-0.706L7.34,3.914
			C7.527,3.71,7.844,3.696,8.047,3.88c0.205,0.186,0.22,0.502,0.033,0.707L4.476,8.551C4.377,8.66,4.242,8.715,4.105,8.715z"/>
	</g>
	<g>
		<path fill="#4B4B4B" d="M4.105,8.715c-0.275,0-0.5-0.224-0.5-0.5V0.5c0-0.276,0.225-0.5,0.5-0.5s0.5,0.224,0.5,0.5v7.715
			C4.605,8.491,4.383,8.715,4.105,8.715z"/>
	</g>
</g>
</svg>
