<?xml version="1.0" encoding="utf-8"?>
<!-- Generator: Adobe Illustrator 16.0.0, SVG Export Plug-In . SVG Version: 6.00 Build 0)  -->
<!DOCTYPE svg PUBLIC "-//W3C//DTD SVG 1.1//EN" "http://www.w3.org/Graphics/SVG/1.1/DTD/svg11.dtd">
<svg version="1.1" id="圖層_1" xmlns="http://www.w3.org/2000/svg" xmlns:xlink="http://www.w3.org/1999/xlink" x="0px" y="0px"
	 width="8.715px" height="8.211px" viewBox="-0.252 0.252 8.715 8.211" enable-background="new -0.252 0.252 8.715 8.211"
	 xml:space="preserve">
<g>
	<g>
		<path fill="#4B4B4B" d="M-0.252,4.357c0-0.137,0.055-0.271,0.164-0.37l3.964-3.606c0.205-0.185,0.521-0.17,0.707,0.034
			c0.184,0.205,0.17,0.52-0.034,0.707L0.584,4.729C0.38,4.914,0.063,4.898-0.122,4.694C-0.209,4.599-0.252,4.479-0.252,4.357z"/>
	</g>
	<g>
		<path fill="#4B4B4B" d="M-0.252,4.357c0-0.12,0.043-0.241,0.13-0.336c0.186-0.205,0.502-0.22,0.706-0.034l3.965,3.604
			c0.204,0.188,0.218,0.504,0.034,0.707c-0.186,0.205-0.502,0.22-0.707,0.033l-3.964-3.604C-0.197,4.629-0.252,4.494-0.252,4.357z"
			/>
	</g>
	<g>
		<path fill="#4B4B4B" d="M-0.252,4.357c0-0.275,0.224-0.5,0.5-0.5h7.715c0.276,0,0.5,0.225,0.5,0.5s-0.224,0.5-0.5,0.5H0.248
			C-0.028,4.857-0.252,4.635-0.252,4.357z"/>
	</g>
</g>
</svg>
