<?xml version="1.0" encoding="UTF-8"?>
<svg xmlns="http://www.w3.org/2000/svg" version="1.1" viewBox="0 0 80 69">
  <defs>
    <style>
      .cls-1 {
        fill: #eabe2c;
      }

      .cls-2 {
        fill: #00a7e5;
      }

      .cls-3 {
        fill: #e88382;
      }

      .cls-4 {
        fill: #ce4f4e;
      }

      .cls-5 {
        fill: #5b5959;
      }

      .cls-6 {
        fill: #252321;
      }

      .cls-7 {
        fill: #f2d775;
      }

      .cls-8 {
        fill: #e4e67d;
      }

      .cls-9 {
        fill: #e85d5b;
      }

      .cls-10 {
        fill: #e99821;
      }
    </style>
  </defs>
  <!-- Generator: Adobe Illustrator 28.7.8, SVG Export Plug-In . SVG Version: 1.2.0 Build 200)  -->
  <g>
    <g id="_圖層_1" data-name="圖層_1">
      <g>
        <g>
          <g id="_椭圆_35" data-name="椭圆_35">
            <circle class="cls-2" cx="40.1" cy="34.5" r="34.5"/>
          </g>
          <g id="_椭圆_23_拷贝" data-name="椭圆_23_拷贝">
            <circle class="cls-3" cx="39.9" cy="34.7" r="26.8"/>
          </g>
          <g id="_椭圆_23" data-name="椭圆_23">
            <circle class="cls-9" cx="40.1" cy="34.6" r="24.6"/>
          </g>
          <g id="_椭圆_23_拷贝_3" data-name="椭圆_23_拷贝_3">
            <circle class="cls-4" cx="40.1" cy="34.5" r="17.5"/>
          </g>
          <g id="_矩形_36" data-name="矩形_36">
            <rect class="cls-5" x="32.3" y="46.4" width="14.7" height="2"/>
          </g>
          <g id="_矩形_36_拷贝" data-name="矩形_36_拷贝">
            <rect class="cls-6" x="33.6" y="46" width="11.7" height=".3"/>
          </g>
          <g id="_椭圆_25" data-name="椭圆_25">
            <path class="cls-4" d="M44.6,35c-.4,0-.8,0-1-.3-.9-.9-.2-3.7,2.1-6.2,1.6-1.7,3.6-2.8,5-2.8s.8.1,1,.3c.9.9.2,3.7-2.1,6.2-1.5,1.7-3.5,2.8-5,2.8h0Z"/>
            <path class="cls-1" d="M50.8,26.7c.2,0,.3,0,.3.1.2.2,0,2.4-2.2,4.8-1.6,1.7-3.4,2.5-4.3,2.5s-.3,0-.3,0c-.2-.2,0-2.4,2.2-4.8,1.6-1.7,3.3-2.5,4.3-2.5M50.8,24.7c-1.7,0-3.9,1.1-5.8,3.1-2.6,2.8-3.6,6.2-2.1,7.6.4.4,1,.6,1.7.6,1.7,0,3.9-1.1,5.8-3.1,2.6-2.8,3.6-6.2,2.1-7.6-.5-.4-1-.6-1.7-.6h0Z"/>
          </g>
          <g id="_椭圆_25_拷贝" data-name="椭圆_25_拷贝">
            <path class="cls-4" d="M34.9,35c-1.4,0-3.4-1.1-5-2.8-2.3-2.5-3-5.3-2.1-6.2.2-.2.6-.3,1-.3,1.4,0,3.4,1.1,5,2.8,2.3,2.5,3,5.3,2.1,6.2-.3.2-.6.3-1,.3h0Z"/>
            <path class="cls-1" d="M28.7,26.7c.9,0,2.7.8,4.3,2.5,2.3,2.4,2.4,4.6,2.2,4.8,0,0,0,0-.3,0-.9,0-2.7-.8-4.3-2.5-2.3-2.4-2.4-4.6-2.2-4.8,0,0,0,0,.3,0M28.7,24.7c-.7,0-1.3.2-1.7.6-1.5,1.4-.6,4.8,2.1,7.6,1.9,2,4.1,3.1,5.8,3.1s1.3-.2,1.7-.6c1.5-1.4.6-4.8-2.1-7.6-1.9-2-4.1-3.1-5.8-3.1h0Z"/>
          </g>
          <g id="_椭圆_24" data-name="椭圆_24">
            <path class="cls-8" d="M31.3,24c-.3,5.9,3,16.3,8.7,16,6.2.2,8.7-10.1,8.7-16-6.6,0-11.1-.1-17.4,0Z"/>
          </g>
          <g id="_椭圆_24_拷贝_2" data-name="椭圆_24_拷贝_2">
            <path class="cls-10" d="M38.6,24c6.2,6.4-4.4,16.3,1.3,16,6.2.2,8.7-10.1,8.7-16-6.5,0-3.7-.1-10,0Z"/>
          </g>
          <g id="_形状_148" data-name="形状_148">
            <path class="cls-1" d="M40.3,39.7h-1.3c0,3.4-5.3,6.3-5.3,6.3h12c-4.5-1.8-5.4-6.3-5.4-6.3Z"/>
          </g>
          <g id="_椭圆_24_拷贝" data-name="椭圆_24_拷贝">
            <path class="cls-1" d="M33.3,24.1c-.3,5.8,2.3,16.2,6.6,15.9,4.8.2,6.7-10.1,6.7-15.9-5-.1-8.5-.1-13.3,0Z"/>
          </g>
        </g>
        <g>
          <g id="_星" data-name="星">
            <polygon class="cls-7" points="27.3 22.8 24.1 22.3 22.2 19.2 20.6 22.6 17.3 22.8 19.7 25 19.5 28.6 22.3 26.8 25.4 28.6 25 25.2 27.3 22.8"/>
          </g>
          <g id="_多边形_3_拷贝" data-name="多边形_3_拷贝">
            <polygon class="cls-7" points="47 14.6 46.6 11.5 44.2 13.6 41.5 12.7 42.7 15.3 41.3 18 44.1 17.5 46 19.9 46.8 17.1 49.4 16 47 14.6"/>
          </g>
          <g id="_多边形_3_拷贝_2" data-name="多边形_3_拷贝_2">
            <polygon class="cls-7" points="72.3 42.7 73.1 39.7 70.1 40.8 67.9 38.9 68 41.7 65.7 43.8 68.6 44.4 69.3 47.3 71.1 45 74 45 72.3 42.7"/>
          </g>
          <g id="_多边形_3_拷贝_3" data-name="多边形_3_拷贝_3">
            <polygon class="cls-7" points="72.5 27.9 73.2 25.3 70.6 26.2 68.8 24.7 68.9 27 67 28.7 69.4 29.2 70 31.7 71.6 29.8 74 29.7 72.5 27.9"/>
          </g>
          <g id="_多边形_3_拷贝_11" data-name="多边形_3_拷贝_11">
            <polygon class="cls-7" points="66 10.9 66.4 9.1 64.6 9.8 63.3 8.7 63.4 10.3 62 11.6 63.7 11.9 64.2 13.7 65.3 12.3 67 12.3 66 10.9"/>
          </g>
          <g id="_多边形_3_拷贝_12" data-name="多边形_3_拷贝_12">
            <polygon class="cls-7" points="7.6 21.2 8.1 19.4 6.3 20 5 18.9 5.1 20.6 3.7 21.8 5.4 22.2 5.8 23.9 6.9 22.5 8.7 22.5 7.6 21.2"/>
          </g>
          <g id="_多边形_3_拷贝_13" data-name="多边形_3_拷贝_13">
            <polygon class="cls-7" points="19.2 18.8 19.4 18.1 18.7 18.3 18.2 17.9 18.2 18.6 17.7 19.1 18.3 19.2 18.5 19.9 19 19.4 19.7 19.3 19.2 18.8"/>
          </g>
          <g id="_多边形_3_拷贝_14" data-name="多边形_3_拷贝_14">
            <polygon class="cls-7" points="11.2 16.1 11.4 15.4 10.7 15.7 10.2 15.2 10.2 15.9 9.7 16.4 10.3 16.5 10.5 17.2 11 16.7 11.7 16.7 11.2 16.1"/>
          </g>
          <g id="_多边形_3_拷贝_15" data-name="多边形_3_拷贝_15">
            <polygon class="cls-7" points="40.3 20.5 40.4 19.8 39.7 20 39.2 19.6 39.2 20.2 38.7 20.7 39.3 20.9 39.5 21.6 40 21 40.7 21 40.3 20.5"/>
          </g>
          <g id="_多边形_3_拷贝_16" data-name="多边形_3_拷贝_16">
            <polygon class="cls-7" points="31.9 18.5 32.1 17.8 31.4 18 30.9 17.6 30.9 18.2 30.3 18.7 31 18.9 31.2 19.6 31.6 19 32.3 19 31.9 18.5"/>
          </g>
          <g id="_多边形_3_拷贝_17" data-name="多边形_3_拷贝_17">
            <polygon class="cls-7" points="51.3 8.2 51.4 7.5 50.7 7.8 50.2 7.3 50.2 8 49.7 8.5 50.3 8.6 50.5 9.3 51 8.8 51.7 8.8 51.3 8.2"/>
          </g>
          <g id="_多边形_3_拷贝_18" data-name="多边形_3_拷贝_18">
            <polygon class="cls-7" points="65.6 39.3 65.8 38.5 65 38.8 64.5 38.4 64.6 39 64 39.5 64.7 39.7 64.9 40.4 65.3 39.8 66 39.8 65.6 39.3"/>
          </g>
          <g id="_多边形_3_拷贝_19" data-name="多边形_3_拷贝_19">
            <polygon class="cls-7" points="1.6 43.5 1.8 42.8 1 43 .5 42.6 .6 43.2 0 43.7 .7 43.9 .9 44.6 1.3 44 2 44 1.6 43.5"/>
          </g>
          <g id="_多边形_3_拷贝_4" data-name="多边形_3_拷贝_4">
            <polygon class="cls-7" points="14.8 43.8 15.3 41.8 13.3 42.5 11.8 41.2 11.9 43.1 10.3 44.5 12.3 44.9 12.8 46.9 14 45.4 16 45.3 14.8 43.8"/>
          </g>
          <g id="_多边形_3_拷贝_5" data-name="多边形_3_拷贝_5">
            <polygon class="cls-7" points="15.8 28.1 16.3 26.1 14.3 26.8 12.8 25.6 12.9 27.5 11.3 28.8 13.3 29.3 13.8 31.2 15 29.7 17 29.7 15.8 28.1"/>
          </g>
          <g id="_多边形_3_拷贝_6" data-name="多边形_3_拷贝_6">
            <polygon class="cls-7" points="27.4 11.7 27.8 10 26.1 10.6 24.9 9.6 25 11.1 23.7 12.3 25.3 12.6 25.7 14.2 26.7 13 28.3 12.9 27.4 11.7"/>
          </g>
          <g id="_多边形_3_拷贝_7" data-name="多边形_3_拷贝_7">
            <polygon class="cls-7" points="38.4 11.7 38.8 10 37.1 10.6 35.9 9.6 36 11.1 34.7 12.3 36.3 12.6 36.7 14.2 37.7 13 39.3 12.9 38.4 11.7"/>
          </g>
          <g id="_多边形_3_拷贝_8" data-name="多边形_3_拷贝_8">
            <polygon class="cls-7" points="44.8 3.1 43 2.8 42.4 1.3 41.8 2.7 40.1 3.1 41.3 4.2 41 5.8 42.5 5.2 43.9 5.9 43.6 4.3 44.8 3.1"/>
          </g>
          <g id="_多边形_3_拷贝_9" data-name="多边形_3_拷贝_9">
            <polygon class="cls-7" points="63.8 25.5 62 25.2 61.4 23.8 60.8 25.2 59.1 25.6 60.3 26.6 60 28.3 61.5 27.6 62.9 28.3 62.6 26.8 63.8 25.5"/>
          </g>
          <g id="_多边形_3_拷贝_10" data-name="多边形_3_拷贝_10">
            <polygon class="cls-7" points="76.7 13.4 75.2 13.2 74.7 12 74.1 13.1 72.7 13.5 73.7 14.3 73.4 15.6 74.7 15.1 75.9 15.7 75.7 14.4 76.7 13.4"/>
          </g>
          <g id="_多边形_3_拷贝_20" data-name="多边形_3_拷贝_20">
            <polygon class="cls-7" points="80 37.1 78.5 36.9 78 35.7 77.4 36.8 76 37.1 77.1 38 76.7 39.3 78 38.8 79.2 39.4 79 38.1 80 37.1"/>
          </g>
        </g>
      </g>
    </g>
  </g>
</svg>