<?xml version="1.0" encoding="UTF-8"?>
<svg xmlns="http://www.w3.org/2000/svg" version="1.1" viewBox="0 0 800 121.3">
  <defs>
    <style>
      .cls-1 {
        fill: #ec7563;
      }

      .cls-2 {
        fill: #595757;
      }

      .cls-3 {
        fill: #2e3233;
      }

      .cls-4 {
        fill: #ea9684;
      }

      .cls-5 {
        fill: #fff;
      }

      .cls-6, .cls-7 {
        fill: #dfc44a;
      }

      .cls-7 {
        isolation: isolate;
        opacity: .2;
      }

      .cls-8 {
        fill: #efb792;
      }
    </style>
  </defs>
  <!-- Generator: Adobe Illustrator 28.7.8, SVG Export Plug-In . SVG Version: 1.2.0 Build 200)  -->
  <g>
    <g id="_圖層_1" data-name="圖層_1">
      <g>
        <path class="cls-3" d="M119.6,934.5l23.5-71h12.9l23.5,71h-11.8l-11.5-38.5c-1.2-3.9-2.3-7.8-3.4-11.7-1.1-3.9-2.2-7.9-3.3-11.9h-.4c-1,4-2.1,8-3.2,11.9s-2.3,7.8-3.4,11.7l-11.5,38.5h-11.5.1ZM133,914.4v-8.9h33.1v8.9h-33.1Z"/>
        <path class="cls-3" d="M213.5,935.9c-4.9,0-9.5-.9-13.8-2.8s-8.1-4.4-11.4-7.7l6.5-7.7c2.6,2.5,5.5,4.5,8.8,6.1,3.3,1.5,6.7,2.3,10.2,2.3s7.5-.9,9.8-2.8,3.4-4.3,3.4-7.2-.5-3.9-1.4-5.2c-1-1.3-2.3-2.4-4-3.3s-3.6-1.8-5.8-2.8l-9.8-4.2c-2.3-1-4.6-2.2-6.8-3.8-2.2-1.6-4-3.6-5.5-6-1.4-2.4-2.2-5.3-2.2-8.8s1-7.1,3-10c2-3,4.8-5.3,8.3-7s7.5-2.6,12-2.6,8.1.8,11.8,2.4c3.7,1.6,6.9,3.8,9.5,6.5l-5.7,7.1c-2.2-2-4.6-3.5-7.2-4.7-2.5-1.1-5.4-1.7-8.5-1.7s-6.5.8-8.7,2.5c-2.1,1.6-3.2,3.8-3.2,6.6s.5,3.7,1.6,5.1c1.1,1.3,2.5,2.4,4.3,3.3s3.6,1.7,5.4,2.5l9.7,4.1c2.8,1.2,5.3,2.6,7.5,4.2,2.2,1.7,3.9,3.7,5.1,6.1s1.8,5.3,1.8,8.9-1,7.2-3,10.4c-2,3.1-4.8,5.6-8.6,7.5-3.7,1.9-8.2,2.8-13.4,2.8h.3Z"/>
        <path class="cls-3" d="M268.1,934.5v-61.5h-20.7v-9.4h52.9v9.4h-20.8v61.5h-11.4Z"/>
        <path class="cls-3" d="M317,934.5v-71h23.2c4.9,0,9.2.7,13.1,2s6.9,3.5,9.2,6.5c2.2,3,3.4,7,3.4,12.2s-1.1,9-3.4,12.2c-2.2,3.2-5.3,5.6-9.2,7.2-3.9,1.6-8.2,2.4-13.1,2.4h-12v28.6h-11.2ZM328.2,897h10.7c5.1,0,9.1-1.1,11.8-3.2,2.7-2.2,4.1-5.3,4.1-9.6s-1.4-7.3-4.1-9-6.7-2.6-11.8-2.6h-10.7v24.4h0ZM355.7,934.5l-17.6-31.6,8.3-6.5,22,38h-12.7Z"/>
        <path class="cls-3" d="M374.4,934.5l23.5-71h12.9l23.5,71h-11.8l-11.5-38.5c-1.2-3.9-2.3-7.8-3.4-11.7-1.1-3.9-2.2-7.9-3.3-11.9h-.4c-1,4-2.1,8-3.2,11.9s-2.3,7.8-3.4,11.7l-11.5,38.5h-11.5.1ZM387.6,914.4v-8.9h33.1v8.9h-33.1Z"/>
        <path class="cls-3" d="M488.9,886.8c2.1,0,4,.5,5.7,1.5s3,2.3,4,4,1.5,3.6,1.5,5.7-.5,3.8-1.5,5.5-2.3,3.1-4,4.1-3.6,1.5-5.7,1.5-3.8-.5-5.5-1.5-3.1-2.3-4.1-4-1.5-3.5-1.5-5.5.5-4,1.5-5.7,2.3-3,4-4,3.5-1.5,5.5-1.5h0Z"/>
        <path class="cls-3" d="M573,935.9c-4.9,0-9.5-.9-13.8-2.8s-8.1-4.4-11.4-7.7l6.5-7.7c2.6,2.5,5.5,4.5,8.8,6.1,3.3,1.5,6.7,2.3,10.2,2.3s7.5-.9,9.8-2.8,3.4-4.3,3.4-7.2-.5-3.9-1.4-5.2c-1-1.3-2.3-2.4-4-3.3s-3.6-1.8-5.8-2.8l-9.8-4.2c-2.3-1-4.6-2.2-6.8-3.8-2.2-1.6-4-3.6-5.5-6-1.4-2.4-2.2-5.3-2.2-8.8s1-7.1,3-10c2-3,4.8-5.3,8.3-7s7.5-2.6,12-2.6,8.1.8,11.8,2.4c3.7,1.6,6.9,3.8,9.5,6.5l-5.7,7.1c-2.2-2-4.6-3.5-7.2-4.7-2.5-1.1-5.4-1.7-8.5-1.7s-6.5.8-8.7,2.5c-2.1,1.6-3.2,3.8-3.2,6.6s.5,3.7,1.6,5.1c1.1,1.3,2.5,2.4,4.3,3.3s3.6,1.7,5.4,2.5l9.7,4.1c2.8,1.2,5.3,2.6,7.5,4.2,2.2,1.7,3.9,3.7,5.1,6.1s1.8,5.3,1.8,8.9-1,7.2-3,10.4c-2,3.1-4.8,5.6-8.6,7.5-3.7,1.9-8.2,2.8-13.4,2.8h.3Z"/>
        <path class="cls-3" d="M615.9,934.5v-71h23.2c4.9,0,9.2.7,13.1,2s6.9,3.5,9.2,6.5c2.2,3,3.4,7,3.4,12.2s-1.1,9-3.4,12.2c-2.2,3.2-5.3,5.6-9.2,7.2-3.9,1.6-8.2,2.4-13.1,2.4h-12v28.6h-11.2ZM627,897h10.7c5.1,0,9.1-1.1,11.8-3.2,2.7-2.2,4.1-5.3,4.1-9.6s-1.4-7.3-4.1-9-6.7-2.6-11.8-2.6h-10.7v24.4h0ZM654.5,934.5l-17.6-31.6,8.3-6.5,22,38h-12.7Z"/>
        <path class="cls-3" d="M683.5,934.5v-71h41.9v9.4h-30.7v19.7h26v9.4h-26v22.8h31.8v9.5h-43v.2Z"/>
        <path class="cls-3" d="M779.4,874.2h9.3v27.5c0,3.4-.3,6.7-1,9.9-.6,3.2-1.8,6.3-3.6,9.3-1.8,3-4.3,5.9-7.6,8.5-3.3,2.7-7.5,5.1-12.6,7.4-5.1,2.2-11.4,4.2-18.9,6-.3-.7-.8-1.5-1.4-2.5-.6-.9-1.3-1.9-2-2.8s-1.4-1.7-2.1-2.3c7.1-1.5,13.1-3.2,17.9-5.1s8.6-3.9,11.6-6.1c2.9-2.2,5.1-4.5,6.6-7s2.5-5,3-7.6.8-5.2.8-7.9v-27.4h0ZM740.9,906.5h87.3v8.5h-87.3v-8.5ZM743,862.4h39.2v7.8h-39.2v-7.8ZM751.1,883.1h67.3v27.3h-9.2v-19.3h-49.3v19.3h-8.8v-27.3ZM760.2,853.2h9.1v25.9h-9.1v-25.9ZM786,922.9l4.3-6.5c3.1,1.2,6.5,2.6,10,4.1s7,3.2,10.5,4.9c3.5,1.7,6.8,3.4,9.9,5.1,3.1,1.6,5.7,3.2,7.8,4.7l-4.6,7.4c-2.1-1.4-4.6-3-7.6-4.7s-6.3-3.5-9.7-5.3c-3.5-1.8-7-3.5-10.5-5.2s-6.9-3.2-10.1-4.5h0ZM786.7,862.2h39.6v7.9h-39.6v-7.9ZM800.5,853.2h9.2v25.7h-9.2v-25.7Z"/>
        <path class="cls-3" d="M840.9,869.4h36.2v7.3h-36.2v-7.3ZM844.9,908.3h7.8v33h-7.8v-33ZM845,882.4h28.9v7.1h-28.9v-7.1ZM845,895.3h28.9v7h-28.9v-7ZM848.7,908.3h25.6v28.7h-25.6v-7.5h17.6v-13.8h-17.6v-7.4h0ZM851.5,856.3l7-3.6c1.4,2,2.8,4.2,4.2,6.5,1.4,2.3,2.4,4.4,3.1,6.2l-7.4,4c-.6-1.7-1.6-3.9-3-6.4-1.3-2.5-2.7-4.8-3.9-6.8h0ZM875.9,893.7h54.2v7.6h-54.2v-7.6ZM878.4,857.1h49.5v7.6h-49.5v-7.6ZM880.6,873.4h40.7v23.6h-8.5v-16.1h-32.3v-7.5h0ZM881,907.2h43.3v35.2h-8.8v-27.3h-26.1v27.6h-8.5v-35.5h0ZM885.2,930.9h35v7.9h-35v-7.9ZM894.1,860.2l8.9.8c-.6,3.9-1.3,8-2.1,12.4-.8,4.4-1.6,8.7-2.4,12.8-.8,4.1-1.5,7.7-2.2,10.7h-9c.6-2.4,1.2-5.1,1.8-8,.6-3,1.2-6.1,1.8-9.4.6-3.3,1.2-6.6,1.7-9.9s1-6.4,1.4-9.2v-.2Z"/>
        <path class="cls-3" d="M945.5,856.6h8.6v86h-8.6v-86ZM950.2,867.9h25.8v5.5h-25.8v-5.5ZM951,856.6h30.8v28.2h-30.8v-6h22.2v-16.2h-22.2v-6.1h0ZM975,887l7.2,2.2c-1.6,2.1-3.5,4.2-5.7,6.3-2.2,2.1-4.6,3.9-7,5.7-2.5,1.7-4.9,3.2-7.4,4.5-.7-.7-1.6-1.5-2.6-2.4s-2-1.6-2.8-2.1c2.4-1.2,4.7-2.5,7.1-4,2.3-1.5,4.5-3.2,6.5-4.9,2-1.7,3.6-3.5,4.7-5.2h0ZM973.5,918.1h7.4c-.4,3.5-1.2,6.5-2.5,9.2s-3.1,5-5.6,6.9-5.9,3.6-10.2,4.9c-.5-1-1.1-2.1-2-3.3s-1.7-2.2-2.6-2.8c3.7-.9,6.6-2,8.7-3.4,2.1-1.3,3.6-3,4.7-4.9,1-1.9,1.7-4.1,2-6.6h.1ZM967.4,900.4h36.1v18.6h-36.1v-18.6ZM974.5,906v7.5h21.3v-7.5h-21.3ZM987.5,916.3h7.7v12.4c0,1,0,1.6.3,1.8.2.3.7.4,1.5.4h5.2c.6,0,1-.2,1.3-.5s.5-1,.6-2c.2-1,.3-2.5.3-4.5.7.6,1.7,1.1,3,1.6s2.5.9,3.5,1.1c-.3,4.3-1.1,7.2-2.2,8.6-1.2,1.4-3,2.2-5.5,2.2h-7.4c-2.2,0-4-.3-5.2-.8s-2.1-1.4-2.5-2.7c-.4-1.3-.7-3-.7-5.3v-12.4h0ZM988.2,890.8l4.9-3.8c2.3,1.3,4.7,2.9,7.3,4.6,2.5,1.7,4.9,3.5,7.2,5.2,2.3,1.8,4.2,3.4,5.6,4.9l-5.3,4.2c-1.3-1.5-3.1-3.1-5.3-4.9s-4.5-3.6-7.1-5.4c-2.5-1.8-5-3.5-7.4-4.9h.1ZM1022.2,856.7v6.2h-24.1v16h24.1v6h-32.7v-28.1h32.7ZM994.2,868h26.4v5.5h-26.4v-5.5ZM1017.7,856.7h8.9v75.3c0,2.2-.3,3.9-.8,5.2-.5,1.3-1.5,2.3-2.9,3-1.3.6-3,1.1-5.2,1.3-2.2.2-4.7.3-7.6.3-.1-1.2-.4-2.5-1-4.1-.5-1.6-1.1-3-1.6-4h8.5c.6,0,1-.2,1.2-.4.2-.2.3-.7.3-1.3v-75.2h.2Z"/>
        <path class="cls-3" d="M1041.9,869.2h31.5v7.3h-31.5v-7.3ZM1045,895.5h26.7v7h-26.7v-7ZM1045.7,908.7h7.2v32.7h-7.2v-32.7ZM1045.9,882.5h25.1v7h-25.1v-7ZM1049.5,856.8l7.7-3c1.7,1.9,3.4,4.1,5.1,6.4,1.6,2.3,2.9,4.4,3.7,6.1l-8,3.6c-.8-1.8-2-3.9-3.6-6.4s-3.2-4.7-4.9-6.7ZM1050,908.7h20.9v28.5h-20.9v-7.3h13.4v-13.9h-13.4v-7.3h0ZM1091.7,928l7.2,4.3c-1.9,1.3-4,2.7-6.5,4s-5,2.6-7.7,3.7-5.2,2-7.7,2.7c-.7-.8-1.6-1.7-2.7-2.8s-2.1-2-3-2.7c2.5-.6,5.1-1.5,7.7-2.5s5-2.1,7.3-3.3c2.2-1.2,4.1-2.3,5.5-3.4h-.1ZM1076.2,858.1h53.7v6h-53.7v-6ZM1076.7,877.1h52.5v19.7h-52.5v-19.7ZM1079.5,868.2h47.7v5.6h-47.7v-5.6ZM1079.7,899.9h46.9v28.7h-46.9v-28.7ZM1084,882v10h37.6v-10h-37.6ZM1087.9,905v3.6h30.2v-3.6h-30.2ZM1087.9,912.4v3.7h30.2v-3.7h-30.2ZM1087.9,919.8v3.8h30.2v-3.8h-30.2ZM1092.2,877.8h5.8v17.9h-5.8v-17.9ZM1097.9,853.2h9v18h-9v-18ZM1106.9,933.4l3.9-5.5c3.7,1.4,7.5,2.9,11.3,4.6,3.8,1.6,6.9,3.1,9.4,4.4l-4.9,6c-2.4-1.3-5.4-2.8-9-4.6-3.6-1.8-7.2-3.4-10.7-4.9ZM1107.2,877.7h5.9v18h-5.9v-18Z"/>
        <path class="cls-3" d="M1187.9,863l8,3.6c-3.9,4.8-8.4,9.2-13.5,13.4-5.2,4.2-10.6,8-16.4,11.4-5.8,3.4-11.5,6.4-17.2,8.9-.4-.6-1-1.3-1.7-2.2-.8-.9-1.6-1.8-2.4-2.6-.8-.9-1.5-1.6-2.2-2.2,5.8-2.1,11.6-4.7,17.2-7.8,5.6-3.1,10.9-6.5,15.7-10.4,4.9-3.8,9.1-7.8,12.5-12.1h0ZM1143.5,931.5h87.9v8.1h-87.9v-8.1ZM1146.2,858.5h83v8.1h-83v-8.1ZM1155.5,905.7h64.2v29.8h-9v-22h-10v22h-8.5v-22h-10v22h-8.4v-22h-9.9v22h-8.5v-29.8h0ZM1182.7,875.9l8.9-8.8h0v36h-9v-27.3h.1ZM1194.9,879l5.9-5.6c3.5,1.8,7.2,3.9,11.1,6.2,3.9,2.3,7.6,4.6,11,6.9,3.5,2.3,6.4,4.4,8.8,6.2l-6.1,6.4c-2.3-2-5.2-4.2-8.7-6.5-3.5-2.4-7.1-4.8-11-7.2s-7.5-4.5-11.1-6.3h.1Z"/>
      </g>
      <g>
        <g id="_矩形_32">
          <rect class="cls-3" x="413.5" y="47.7" width="1" height="25.9"/>
        </g>
        <g>
          <path class="cls-3" d="M427.3,73l7.9-23.8h4.3l7.9,23.8h-4l-3.9-12.9c-.4-1.3-.8-2.6-1.1-3.9-.4-1.3-.7-2.6-1.1-4h-.1c-.3,1.3-.7,2.7-1.1,4s-.8,2.6-1.1,3.9l-3.9,12.9h-3.9,0ZM431.7,66.3v-3h11.1v3h-11.1Z"/>
          <path class="cls-3" d="M458.7,73.4c-1.6,0-3.2-.3-4.6-.9s-2.7-1.5-3.8-2.6l2.2-2.6c.9.8,1.8,1.5,2.9,2,1.1.5,2.2.8,3.4.8s2.5-.3,3.3-.9,1.1-1.4,1.1-2.4-.2-1.3-.5-1.7c-.3-.4-.8-.8-1.3-1.1s-1.2-.6-1.9-.9l-3.3-1.4c-.8-.3-1.5-.7-2.3-1.3-.7-.5-1.3-1.2-1.8-2-.5-.8-.7-1.8-.7-2.9s.3-2.4,1-3.4c.7-1,1.6-1.8,2.8-2.3s2.5-.9,4-.9,2.7.3,4,.8c1.2.5,2.3,1.3,3.2,2.2l-1.9,2.4c-.7-.7-1.5-1.2-2.4-1.6-.8-.4-1.8-.6-2.8-.6s-2.2.3-2.9.8c-.7.5-1.1,1.3-1.1,2.2s.2,1.2.5,1.7c.4.4.8.8,1.4,1.1s1.2.6,1.8.8l3.3,1.4c.9.4,1.8.9,2.5,1.4.7.6,1.3,1.2,1.7,2s.6,1.8.6,3-.3,2.4-1,3.5c-.7,1-1.6,1.9-2.9,2.5-1.2.6-2.7.9-4.5.9h.1Z"/>
          <path class="cls-3" d="M477.1,73v-20.6h-6.9v-3.2h17.7v3.2h-7v20.6h-3.8Z"/>
          <path class="cls-3" d="M493.5,73v-23.8h7.8c1.6,0,3.1.2,4.4.7s2.3,1.2,3.1,2.2c.7,1,1.1,2.3,1.1,4.1s-.4,3-1.1,4.1c-.7,1.1-1.8,1.9-3.1,2.4-1.3.5-2.7.8-4.4.8h-4v9.6h-3.8ZM497.2,60.4h3.6c1.7,0,3.1-.4,4-1.1.9-.7,1.4-1.8,1.4-3.2s-.5-2.4-1.4-3-2.2-.9-4-.9h-3.6s0,8.2,0,8.2ZM506.4,73l-5.9-10.6,2.8-2.2,7.4,12.7h-4.3Z"/>
          <path class="cls-3" d="M512.7,73l7.9-23.8h4.3l7.9,23.8h-4l-3.9-12.9c-.4-1.3-.8-2.6-1.1-3.9-.4-1.3-.7-2.6-1.1-4h-.1c-.3,1.3-.7,2.7-1.1,4s-.8,2.6-1.1,3.9l-3.9,12.9h-3.9,0ZM517.1,66.3v-3h11.1v3h-11.1Z"/>
          <path class="cls-3" d="M551,57c.7,0,1.3.2,1.9.5s1,.8,1.3,1.3.5,1.2.5,1.9-.2,1.3-.5,1.8-.8,1-1.3,1.4-1.2.5-1.9.5-1.3-.2-1.8-.5-1-.8-1.4-1.3-.5-1.2-.5-1.8.2-1.3.5-1.9.8-1,1.3-1.3,1.2-.5,1.8-.5h0Z"/>
          <path class="cls-3" d="M579.3,73.4c-1.6,0-3.2-.3-4.6-.9s-2.7-1.5-3.8-2.6l2.2-2.6c.9.8,1.8,1.5,2.9,2,1.1.5,2.2.8,3.4.8s2.5-.3,3.3-.9,1.1-1.4,1.1-2.4-.2-1.3-.5-1.7c-.3-.4-.8-.8-1.3-1.1s-1.2-.6-1.9-.9l-3.3-1.4c-.8-.3-1.5-.7-2.3-1.3-.7-.5-1.3-1.2-1.8-2-.5-.8-.7-1.8-.7-2.9s.3-2.4,1-3.4c.7-1,1.6-1.8,2.8-2.3s2.5-.9,4-.9,2.7.3,4,.8c1.2.5,2.3,1.3,3.2,2.2l-1.9,2.4c-.7-.7-1.5-1.2-2.4-1.6-.8-.4-1.8-.6-2.8-.6s-2.2.3-2.9.8c-.7.5-1.1,1.3-1.1,2.2s.2,1.2.5,1.7c.4.4.8.8,1.4,1.1s1.2.6,1.8.8l3.3,1.4c.9.4,1.8.9,2.5,1.4.7.6,1.3,1.2,1.7,2s.6,1.8.6,3-.3,2.4-1,3.5c-.7,1-1.6,1.9-2.9,2.5-1.2.6-2.7.9-4.5.9h.1Z"/>
          <path class="cls-3" d="M593.6,73v-23.8h7.8c1.6,0,3.1.2,4.4.7s2.3,1.2,3.1,2.2c.7,1,1.1,2.3,1.1,4.1s-.4,3-1.1,4.1c-.7,1.1-1.8,1.9-3.1,2.4-1.3.5-2.7.8-4.4.8h-4v9.6h-3.8ZM597.3,60.4h3.6c1.7,0,3.1-.4,4-1.1.9-.7,1.4-1.8,1.4-3.2s-.5-2.4-1.4-3-2.2-.9-4-.9h-3.6s0,8.2,0,8.2ZM606.6,73l-5.9-10.6,2.8-2.2,7.4,12.7h-4.3Z"/>
          <path class="cls-3" d="M616.3,73v-23.8h14v3.2h-10.3v6.6h8.7v3.2h-8.7v7.6h10.7v3.2h-14.4Z"/>
          <path class="cls-3" d="M648.4,52.8h3.1v9.2c0,1.1-.1,2.2-.3,3.3-.2,1.1-.6,2.1-1.2,3.1-.6,1-1.4,2-2.5,2.8-1.1.9-2.5,1.7-4.2,2.5-1.7.7-3.8,1.4-6.3,2-.1-.2-.3-.5-.5-.8-.2-.3-.4-.6-.7-.9s-.5-.6-.7-.8c2.4-.5,4.4-1.1,6-1.7s2.9-1.3,3.9-2c1-.7,1.7-1.5,2.2-2.3s.8-1.7,1-2.5.3-1.7.3-2.6v-9.2h0ZM635.5,63.6h29.3v2.8h-29.3v-2.8ZM636.2,48.8h13.1v2.6h-13.1v-2.6ZM639,55.8h22.6v9.2h-3.1v-6.5h-16.5v6.5h-2.9s0-9.2,0-9.2ZM642,45.7h3.1v8.7h-3.1v-8.7ZM650.6,69.1l1.4-2.2c1,.4,2.2.9,3.4,1.4s2.3,1.1,3.5,1.6c1.2.6,2.3,1.1,3.3,1.7,1,.5,1.9,1.1,2.6,1.6l-1.5,2.5c-.7-.5-1.5-1-2.5-1.6s-2.1-1.2-3.3-1.8c-1.2-.6-2.3-1.2-3.5-1.7s-2.3-1.1-3.4-1.5h0ZM650.8,48.8h13.3v2.6h-13.3v-2.6ZM655.5,45.7h3.1v8.6h-3.1v-8.6Z"/>
          <path class="cls-3" d="M669,51.2h12.1v2.4h-12.1v-2.4ZM670.3,64.2h2.6v11.1h-2.6v-11.1ZM670.4,55.5h9.7v2.4h-9.7v-2.4ZM670.4,59.8h9.7v2.3h-9.7v-2.3ZM671.7,64.2h8.6v9.6h-8.6v-2.5h5.9v-4.6h-5.9v-2.5ZM672.6,46.8l2.3-1.2c.5.7.9,1.4,1.4,2.2.5.8.8,1.5,1,2.1l-2.5,1.3c-.2-.6-.5-1.3-1-2.1-.4-.8-.9-1.6-1.3-2.3h0ZM680.7,59.3h18.2v2.5h-18.2v-2.5ZM681.6,47h16.6v2.5h-16.6v-2.5ZM682.3,52.5h13.6v7.9h-2.8v-5.4h-10.8v-2.5h0ZM682.5,63.8h14.5v11.8h-2.9v-9.2h-8.7v9.3h-2.8v-11.9h0ZM683.9,71.7h11.7v2.6h-11.7v-2.6ZM686.8,48.1l3,.3c-.2,1.3-.4,2.7-.7,4.2-.3,1.5-.5,2.9-.8,4.3-.3,1.4-.5,2.6-.7,3.6h-3c.2-.8.4-1.7.6-2.7.2-1,.4-2,.6-3.2.2-1.1.4-2.2.6-3.3.2-1.1.3-2.1.5-3.1h0Z"/>
          <path class="cls-3" d="M704.1,46.9h2.9v28.8h-2.9v-28.8ZM705.7,50.6h8.6v1.8h-8.6v-1.8ZM706,46.9h10.3v9.5h-10.3v-2h7.4v-5.4h-7.4v-2h0ZM714,57l2.4.7c-.5.7-1.2,1.4-1.9,2.1-.7.7-1.5,1.3-2.3,1.9-.8.6-1.6,1.1-2.5,1.5-.2-.2-.5-.5-.9-.8s-.7-.5-.9-.7c.8-.4,1.6-.8,2.4-1.3.8-.5,1.5-1.1,2.2-1.6.7-.6,1.2-1.2,1.6-1.7h0ZM713.5,67.5h2.5c-.1,1.2-.4,2.2-.8,3.1s-1,1.7-1.9,2.3-2,1.2-3.4,1.6c-.2-.3-.4-.7-.7-1.1s-.6-.7-.9-.9c1.2-.3,2.2-.7,2.9-1.1.7-.4,1.2-1,1.6-1.6.3-.6.6-1.4.7-2.2h0ZM711.4,61.6h12.1v6.2h-12.1v-6.2ZM713.8,63.4v2.5h7.1v-2.5h-7.1ZM718.2,66.9h2.6v4.2c0,.3,0,.5.1.6,0,.1.2.1.5.1h1.7c.2,0,.3,0,.4-.2s.2-.3.2-.7c0-.3.1-.8.1-1.5.2.2.6.4,1,.5s.8.3,1.2.4c-.1,1.4-.4,2.4-.7,2.9-.4.5-1,.7-1.8.7h-2.5c-.7,0-1.3-.1-1.7-.3s-.7-.5-.8-.9c-.1-.4-.2-1-.2-1.8v-4.2h0ZM718.4,58.3l1.6-1.3c.8.4,1.6,1,2.4,1.5.8.6,1.6,1.2,2.4,1.7.8.6,1.4,1.1,1.9,1.6l-1.8,1.4c-.4-.5-1-1-1.8-1.6-.7-.6-1.5-1.2-2.4-1.8-.8-.6-1.7-1.2-2.5-1.6h0ZM729.7,46.9v2.1h-8.1v5.4h8.1v2h-11v-9.4h11ZM720.4,50.7h8.8v1.8h-8.8v-1.8ZM728.3,46.9h3v25.2c0,.7-.1,1.3-.3,1.7-.2.4-.5.8-1,1-.4.2-1,.4-1.7.4-.7,0-1.6.1-2.5.1,0-.4-.1-.8-.3-1.4-.2-.5-.4-1-.5-1.3h2.8c.2,0,.3,0,.4-.1,0,0,.1-.2.1-.4v-25.2h0Z"/>
          <path class="cls-3" d="M736.4,51.1h10.6v2.4h-10.6v-2.4ZM737.5,59.9h8.9v2.3h-8.9v-2.3ZM737.7,64.3h2.4v11h-2.4v-11ZM737.7,55.6h8.4v2.3h-8.4v-2.3ZM739,46.9l2.6-1c.6.6,1.1,1.4,1.7,2.1.5.8,1,1.5,1.2,2l-2.7,1.2c-.3-.6-.7-1.3-1.2-2.1s-1.1-1.6-1.6-2.2h0ZM739.1,64.3h7v9.6h-7v-2.4h4.5v-4.7h-4.5s0-2.4,0-2.4ZM753.1,70.8l2.4,1.4c-.6.4-1.3.9-2.2,1.3s-1.7.9-2.6,1.2-1.7.7-2.6.9c-.2-.3-.5-.6-.9-.9s-.7-.7-1-.9c.8-.2,1.7-.5,2.6-.8s1.7-.7,2.4-1.1c.7-.4,1.4-.8,1.8-1.1h0ZM747.9,47.3h18v2h-18v-2ZM748.1,53.7h17.6v6.6h-17.6v-6.6ZM749,50.7h16v1.9h-16v-1.9ZM749.1,61.4h15.7v9.6h-15.7v-9.6ZM750.5,55.4v3.4h12.6v-3.4s-12.6,0-12.6,0ZM751.8,63.1v1.2h10.1v-1.2h-10.1ZM751.8,65.5v1.2h10.1v-1.2h-10.1ZM751.8,68.1v1.3h10.1v-1.3h-10.1ZM753.3,54h1.9v6h-1.9v-6ZM755.2,45.7h3v6h-3v-6ZM758.2,72.6l1.3-1.8c1.2.5,2.5,1,3.8,1.5,1.3.5,2.3,1,3.2,1.5l-1.6,2c-.8-.4-1.8-.9-3-1.5-1.2-.6-2.4-1.1-3.6-1.6h0ZM758.3,54h2v6h-2v-6Z"/>
          <path class="cls-3" d="M785.3,49l2.7,1.2c-1.3,1.6-2.8,3.1-4.5,4.5-1.7,1.4-3.6,2.7-5.5,3.8-1.9,1.1-3.9,2.1-5.8,3-.1-.2-.3-.4-.6-.7-.3-.3-.5-.6-.8-.9-.3-.3-.5-.5-.7-.7,1.9-.7,3.9-1.6,5.8-2.6,1.9-1,3.7-2.2,5.3-3.5,1.6-1.3,3.1-2.6,4.2-4.1h0ZM770.5,72h29.5v2.7h-29.5v-2.7h0ZM771.3,47.5h27.8v2.7h-27.8v-2.7ZM774.5,63.3h21.5v10h-3v-7.4h-3.4v7.4h-2.8v-7.4h-3.4v7.4h-2.8v-7.4h-3.3v7.4h-2.8v-10h0ZM783.6,53.3l3-2.9h0v12.1h-3v-9.2h0ZM787.7,54.4l2-1.9c1.2.6,2.4,1.3,3.7,2.1,1.3.8,2.5,1.5,3.7,2.3,1.2.8,2.1,1.5,2.9,2.1l-2,2.1c-.8-.7-1.7-1.4-2.9-2.2-1.2-.8-2.4-1.6-3.7-2.4s-2.5-1.5-3.7-2.1h0Z"/>
        </g>
        <g>
          <g>
            <polygon class="cls-5" points=".3 25 9 23.4 52.7 6.8 62.6 7.1 62.8 12.6 72.4 14.3 72.6 18.6 82.3 21.5 9 36.9 .3 25"/>
            <path class="cls-1" d="M82.3,112.9c0,4.6-3.7,8.4-8.3,8.4H8.3c-4.6,0-8.3-3.8-8.3-8.4V36.5c0-4.6,3.7-1.4,8.3-1.4h65.7c4.6,0,8.3-3.2,8.3,1.4v76.5Z"/>
            <path class="cls-1" d="M.3,25l6.5,7s36-9.5,75.5-10.5h0v20.4H0l.3-16.9Z"/>
            <path class="cls-1" d="M9,23.4L52.7,6.8l-.3-6.8S25.5,15.9,9,23.4Z"/>
            <path class="cls-4" d="M14.2,24.7s44.7-11.8,48.6-12.2l-.3-5.4c0,0-40.6,14.9-48.3,17.7Z"/>
            <path class="cls-8" d="M17.9,27s47.1-8.9,54.7-8.4l-.2-4.3s-49.5,10.6-54.5,12.7Z"/>
            <path class="cls-6" d="M9,50.7c-.3-1.5.9-2.8.9-3.1.1-1.3,1.1-2.4,2.1-3.2,1.9-1.4,3.7-3,5.4-4.4,1.2-1,2.4-2.6,3.9-2.8.3,0,.8,0,1.1-.1.6-.3,1.1-1.1,1.6-1.5.7-.5,1.2-.6,2-.7,1.4-.3,2.9-.7,4.2-1.1,1.5-.5,2.9-.9,4.4-1.3,1.6-.4,3.3-.3,4.9-.3,2.2,0,4.3-.3,6.5-.3,1.1,0,2.1,0,3.1.3,1.7.3,3.3,1.5,5.1,1.8,1,.2,2.1.3,3.1.5.6.1,1.3.1,1.8.5.7.4,1.3.9,1.9,1.4,1.6,1.1,2.8,2.8,4.4,4,1,.8,2.4,1.3,3.3,2.1.6.5,1.1,1.1,1.9,1.5.8.4,1.8.5,2.5,1.2s1.1,1.7,1.6,2.4c.3.5.7.9,1,1.5.3.5.5,1.1.7,1.6.5.9.8,1.3.3,2.1-.5.7-.2.7.3,1.6.4.7.3,1.1.6,1.9.3,1.1,1.1,2,1.4,3.1.3,1,.3,2.2.5,3.3.3,1.7.9,3.4.9,5,0,.3.1.9,0,1.3-.2.5-.7.7-.9,1.2-.4.9-.9,2.4-1.7,3-.5.3-.6,0-1.3,0s-.9.2-1.1.8c-.2,1,0,2.3,0,3.4-.1,1.4-.9,2.8-2,3.6-.5.4-1.3.4-1.7.9-.6.5-1,1.3-1.7,1.7-.9.5-1.9.9-2.8,1.3-.7.3-1.3.7-2.1.7-.6,0-1.2-.1-1.7-.1-1.7,0-3,.8-4.9.3-.5-.1-1.3-.5-1.7-.8-1-.8-.7-1.5-.9-2.6-.3-1.3-1.1-3-1.9-4.1-1.3-1.8.3-3.4.5-5.2.1-2.1-1.8-3.2-2.8-4.9-.4-.6-.9-1.6-.9-2.4s.6-.8.5-1.4c0-1.3-1.9-.9-2.7-1.2-.4-.2-.7-.9-1.1-1.3-.5-.5-1-1.1-1.5-1.5-.7-.5-1.4-.7-2.2-1.1-.5-.2-.9-.4-1.5-.3-.7.2-1.7,1.1-2.3,1.6-.9.6-1.7,1.3-2.5,1.9-.5.4-1.1,1-1.4,1.6-.3.5-.4,1.3-.9,1.6-1.6,1.3-.9-1.2-1.2-1.9-.2-.5-.7-.3-1.2-.7s-.5-1.3-.9-1.7c0,0-.1-.2-.1-.3-.7.1-1.1,1.4-1.5,1.9s-.8,1.1-1.3,1.5c-.5.3-1,.5-1.5.8-.6.3-.7.7-1.1,1.3-.7,1-1.4.4-2.3.9-.5.3-.5.7-1,.9-.6.2-1.2-.1-1.7-.3-1.1-.3-2.3-.1-3.5.1-1.6.3-2.6.3-4.2,0-1.1-.3-2.2-.3-3.4-.3-1.8-.1-2.5-2-2.5-3.8s0-2,0-3c0-.8-.3-1.6-.3-2.4,0,0-.5-1.3,1.3-3s.5-.3-.1-1.2c-.7-.7.8-2.9.5-4.5Z"/>
            <path class="cls-1" d="M42.5,31.6h-2.8c0,.1-1.1.1-1.1.1-1.3,0-2.6,0-3.9.3-1.5.4-3,.8-4.4,1.3-1.2.5-2.7.8-4.2,1.1h-.2c-.7.2-1.3.3-2,.9l-.7.7c-.3.3-.5.6-.8.7h-.6c0,0-.4,0-.4,0-1.3.2-2.3,1.1-3.2,2l-.9.8-5.4,4.4c-1.4,1.1-2.2,2.3-2.3,3.5,0,0-.2.3-.2.3-.3.5-.8,1.4-.8,2.4s0,.4,0,.6h0c0,.1,0,.3,0,.5,0,.7-.3,1.5-.5,2.2-.2.5-.3,1-.3,1.3s0,.3.1.5c.1.2.3.3.4.4,0,0-.2.1-.2.1-1.3,1.1-1.6,2.2-1.6,2.9s0,.5,0,.6.2,1.4.2,1.4v1c.1,0,.2,3,.2,3,0,2.5,1.1,4.2,3,4.2h.9c.8,0,1.6.1,2.4.3,1.5.4,2.6.4,4.4,0,1.3-.3,2.3-.3,3.3-.1h.3c.5.3,1.1.5,1.7.3.4-.1.7-.4.8-.6l.3-.3c.3-.2.5-.2.8-.2.5,0,1.1,0,1.7-.9l.2-.3c.2-.4.3-.6.7-.8l.6-.3,1-.5c.6-.4,1.1-1.1,1.4-1.7l.3-.5c.1-.3.4-.7.6-.9.1.1.2.3.3.6.1.3.3.8.6,1.1.3.3.7.3.9.4h.2v.9c0,.7,0,1.3.6,1.6.5.3,1.1,0,1.4-.4.4-.3.6-.8.8-1.3l.2-.5c.3-.5.7-1,1.3-1.5l2.5-1.9.7-.6c.5-.4,1-.9,1.4-.9s.7,0,1.1.3l.7.3c.5.2.9.4,1.3.7.5.4,1.1.9,1.5,1.4l.3.4c.3.4.5.8.9,1,.3.1.7.2,1.1.2,1,0,1.2.2,1.3.5h0c0,0,0,.2-.2.3-.1.2-.4.5-.4,1h0c0,.9.6,2.1,1,2.6l1.2,1.5c.9.9,1.5,1.7,1.5,2.9v.2c0,.5-.3,1.1-.5,1.6-.3.7-.5,1.3-.5,2.1s.1,1.2.6,1.8c.7.9,1.5,2.5,1.9,3.9v.7c.2.7.3,1.4,1.1,2.2.5.4,1.3.8,1.9.9,1.3.3,2.3,0,3.3-.1.6-.1,1.1-.2,1.7-.3h.7c0,0,1,.1,1,.1.7,0,1.2-.3,1.7-.5l.5-.2h.1c.9-.5,1.9-.9,2.8-1.3.5-.3.9-.7,1.2-1.1l.6-.7c.2-.2.5-.3.7-.3l1-.5c1.2-.9,2.1-2.4,2.2-3.9v-1.5c0-.7,0-1.3,0-1.7,0-.3.1-.4.5-.4h.5c.3.1.7.2,1.1-.1.7-.6,1.2-1.6,1.5-2.6l.3-.7.3-.4c.2-.2.5-.5.6-.8,0-.2,0-.4,0-.6v-.9c0-1.1-.3-2.2-.6-3.3l-.4-1.9v-1.1c0-.7-.1-1.5-.3-2.3-.2-.5-.5-1.1-.7-1.6l-.7-1.4v-.7c-.2-.4-.3-.8-.6-1.3l-.3-.5-.2-.3v-.2c.4-.3.5-.7.5-1s-.2-.8-.4-1.2l-.2-.4-.3-.7-.5-1-.7-1-.3-.5-.5-.7c-.3-.6-.7-1.3-1.2-1.7-.5-.5-1.2-.7-1.8-.9l-.8-.3c-.5-.3-.9-.6-1.3-.9l-.5-.4c-.5-.4-1.1-.7-1.7-1.1s-1.1-.7-1.7-1.1c-.7-.5-1.2-1.1-1.8-1.7-.6-.9-1.4-1.7-2.4-2.4l-.9-.7-1-.7c-.5-.3-1.1-.4-1.5-.5h-.5c0-.1-1.8-.5-1.8-.5l-1.3-.2c-.9-.1-1.7-.5-2.5-.9-.8-.4-1.7-.7-2.6-.9-1.1-.2-2.2-.3-3.2-.3s-2.5,0-3.7.1ZM39.7,32.8h2.9c1.2-.2,2.4-.3,3.6-.3s2,0,3,.2c.8.1,1.5.5,2.4.9.9.4,1.7.8,2.7.9l1.3.2,1.8.3h.5c.4.1.8.2,1.1.4l.9.7.9.7c.9.6,1.6,1.4,2.4,2.2.6.6,1.2,1.3,1.9,1.8.5.5,1.2.8,1.8,1.1.5.3,1.1.6,1.5.9l.5.4c.5.4.9.8,1.5,1.1l.9.4c.5.2,1.1.4,1.4.7s.7.9,1,1.5l.5.8.4.5.6,1.1.4.9.3.7.2.5c.3.7.3.7.1,1.1-.5.8-.3,1.1,0,1.7l.3.5c.2.3.3.6.3,1l.2.8.7,1.6c.3.5.5,1,.7,1.5.2.6.3,1.3.4,2.1v1.1c.1,0,.5,1.9.5,1.9.3,1,.5,2.1.5,3.1v.3c0,.2,0,.6,0,.7s-.2.3-.3.5l-.6.7-.3.7c-.3.8-.7,1.7-1.3,2.1h-.1c0,0-.2,0-.2,0h-.7c-.9,0-1.4.3-1.6,1.1-.1.7-.1,1.3,0,2.1v1.3c0,1.1-.8,2.4-1.8,3.2l-.7.3c-.3.1-.7.3-1.1.6l-.7.7c-.3.3-.5.7-.9.9-.8.5-1.7.9-2.6,1.2h-.1c0,0-.5.3-.5.3-.5.2-.9.4-1.3.5h-.8c0,0-.9-.1-.9-.1-.7,0-1.3.1-1.9.3-.9.2-1.8.3-2.8.1-.5-.1-1.1-.4-1.5-.7-.5-.5-.6-.8-.7-1.4v-.9c-.5-1.5-1.5-3.3-2.2-4.2-.7-1-.4-1.8,0-2.9.2-.6.5-1.2.5-1.9.1-1.7-.9-2.8-1.8-3.8l-1.1-1.3c-.4-.6-.8-1.5-.8-2.1s0-.2.2-.4c.2-.3.4-.5.4-1.1,0-1.3-1.4-1.4-2.2-1.5-.3,0-.7,0-.8-.1s-.3-.4-.5-.6l-.3-.5c-.5-.5-1.1-1.1-1.7-1.5-.5-.4-1.1-.6-1.6-.9l-.7-.3c-.5-.3-1.1-.5-1.8-.3s-1.3.7-1.9,1.2l-.7.5-2.3,1.7c-.6.5-1.1,1.1-1.5,1.7l-.3.7c-.1.3-.3.7-.5.8-.1,0-.2.1-.3.1,0-.1,0-.4,0-.6v-.4c0-.3,0-.6,0-.9-.2-.5-.7-.7-.9-.7-.2,0-.3,0-.4-.1-.1-.1-.3-.4-.3-.7-.1-.3-.3-.7-.6-1q0,0,.1.1v-.3c-.3-.2-.5-.3-.7-.3-.7.1-1.2,1-1.5,1.7l-.3.5c-.3.5-.7,1.1-1.2,1.4l-.8.4-.7.3c-.6.3-.8.7-1.1,1.2l-.2.3c-.2.4-.4.4-.8.4s-.8,0-1.3.4l-.5.5c-.1.2-.2.3-.4.3-.3.1-.6,0-1-.1h-.5c-1.3-.5-2.6-.3-3.7,0-1.7.3-2.6.3-4,0-.9-.2-1.7-.3-2.6-.3h-.9c-1.9-.2-1.9-2.8-1.9-3.3v-3.1c0,0-.3-1.1-.3-1.1l-.3-1.3c0,0,0-.1,0-.2,0,0-.4-1.1,1.2-2.5l.6-.5c.4-.4.7-.6.5-.9,0-.2-.3-.3-.7-.3-.3,0-.4,0-.5-.1,0,0,.2-.6.3-.9.3-.9.7-2.1.5-3.2h0c-.2-.9.3-1.7.7-2.2l.3-.7c.1-1.1,1.1-2.2,1.9-2.8l5.5-4.4.9-.9c.8-.8,1.7-1.6,2.7-1.7h1.3c.5-.3.9-.7,1.2-1.1l.5-.5c.5-.4.9-.5,1.6-.6h.2c1.5-.3,3-.7,4.3-1.2,1.4-.5,2.8-.9,4.4-1.3,1.2-.3,2.4-.3,3.7-.3h1.1Z"/>
            <path class="cls-7" d="M9,50.7c-.3-1.5.9-2.8.9-3.1.1-1.3,1.1-2.4,2.1-3.2,1.9-1.4,3.7-3,5.4-4.4,1.2-1,2.4-2.6,3.9-2.8.3,0,.8,0,1.1-.1.6-.3,1.1-1.1,1.6-1.5.7-.5,1.2-.6,2-.7,1.4-.3,2.9-.7,4.2-1.1,1.5-.5,2.9-.9,4.4-1.3,1.6-.4,3.3-.3,4.9-.3,2.2,0,4.3-.3,6.5-.3,1.1,0,2.1,0,3.1.3,1.7.3,3.3,1.5,5.1,1.8,1,.2,2.1.3,3.1.5.6.1,1.3.1,1.8.5.7.4,1.3.9,1.9,1.4,1.6,1.1,2.8,2.8,4.4,4,1,.8,2.4,1.3,3.3,2.1.6.5,1.1,1.1,1.9,1.5.8.4,1.8.5,2.5,1.2s1.1,1.7,1.6,2.4c.3.5.7.9,1,1.5.3.5.5,1.1.7,1.6.5.9.8,1.3.3,2.1-.5.7-.2.7.3,1.6.4.7.3,1.1.6,1.9.3,1.1,1.1,2,1.4,3.1.3,1,.3,2.2.5,3.3.3,1.7.9,3.4.9,5,0,.3.1.9,0,1.3-.2.5-.7.7-.9,1.2-.4.9-.9,2.4-1.7,3-.5.3-.6,0-1.3,0s-.9.2-1.1.8c-.2,1,0,2.3,0,3.4-.1,1.4-.9,2.8-2,3.6-.5.4-1.3.4-1.7.9-.6.5-1,1.3-1.7,1.7-.9.5-1.9.9-2.8,1.3-.7.3-1.3.7-2.1.7-.6,0-1.2-.1-1.7-.1-1.7,0-3,.8-4.9.3-.5-.1-1.3-.5-1.7-.8-1-.8-.7-1.5-.9-2.6-.3-1.3-1.1-3-1.9-4.1-1.3-1.8.3-3.4.5-5.2.1-2.1-1.8-3.2-2.8-4.9-.4-.6-.9-1.6-.9-2.4s.6-.8.5-1.4c0-1.3-1.9-.9-2.7-1.2-.4-.2-.7-.9-1.1-1.3-.5-.5-1-1.1-1.5-1.5-.7-.5-1.4-.7-2.2-1.1-.5-.2-.9-.4-1.5-.3-.7.2-1.7,1.1-2.3,1.6-.9.6-1.7,1.3-2.5,1.9-.5.4-1.1,1-1.4,1.6-.3.5-.4,1.3-.9,1.6-1.6,1.3-.9-1.2-1.2-1.9-.2-.5-.7-.3-1.2-.7s-.5-1.3-.9-1.7c0,0-.1-.2-.1-.3-.7.1-1.1,1.4-1.5,1.9s-.8,1.1-1.3,1.5c-.5.3-1,.5-1.5.8-.6.3-.7.7-1.1,1.3-.7,1-1.4.4-2.3.9-.5.3-.5.7-1,.9-.6.2-1.2-.1-1.7-.3-1.1-.3-2.3-.1-3.5.1-1.6.3-2.6.3-4.2,0-1.1-.3-2.2-.3-3.4-.3-1.8-.1-2.5-2-2.5-3.8s0-2,0-3c0-.8-.3-1.6-.3-2.4,0,0-.5-1.3,1.3-3s.5-.3-.1-1.2c-.7-.7.8-2.9.5-4.5Z"/>
            <path class="cls-1" d="M42.5,31.6h-2.8c0,.1-1.1.1-1.1.1-1.3,0-2.6,0-3.9.3-1.5.4-3,.8-4.4,1.3-1.2.5-2.7.8-4.2,1.1h-.2c-.7.2-1.3.3-2,.9l-.7.7c-.3.3-.5.6-.8.7h-.6c0,0-.4,0-.4,0-1.3.2-2.3,1.1-3.2,2l-.9.8-5.4,4.4c-1.4,1.1-2.2,2.3-2.3,3.5,0,0-.2.3-.2.3-.3.5-.8,1.4-.8,2.4s0,.4,0,.6h0c0,.1,0,.3,0,.5,0,.7-.3,1.5-.5,2.2-.2.5-.3,1-.3,1.3s0,.3.1.5c.1.2.3.3.4.4,0,0-.2.1-.2.1-1.3,1.1-1.6,2.2-1.6,2.9s0,.5,0,.6.2,1.4.2,1.4v1c.1,0,.2,3,.2,3,0,2.5,1.1,4.2,3,4.2h.9c.8,0,1.6.1,2.4.3,1.5.4,2.6.4,4.4,0,1.3-.3,2.3-.3,3.3-.1h.3c.5.3,1.1.5,1.7.3.4-.1.7-.4.8-.6l.3-.3c.3-.2.5-.2.8-.2.5,0,1.1,0,1.7-.9l.2-.3c.2-.4.3-.6.7-.8l.6-.3,1-.5c.6-.4,1.1-1.1,1.4-1.7l.3-.5c.1-.3.4-.7.6-.9.1.1.2.3.3.6.1.3.3.8.6,1.1.3.3.7.3.9.4h.2v.9c0,.7,0,1.3.6,1.6.5.3,1.1,0,1.4-.4.4-.3.6-.8.8-1.3l.2-.5c.3-.5.7-1,1.3-1.5l2.5-1.9.7-.6c.5-.4,1-.9,1.4-.9s.7,0,1.1.3l.7.3c.5.2.9.4,1.3.7.5.4,1.1.9,1.5,1.4l.3.4c.3.4.5.8.9,1,.3.1.7.2,1.1.2,1,0,1.2.2,1.3.5h0c0,0,0,.2-.2.3-.1.2-.4.5-.4,1h0c0,.9.6,2.1,1,2.6l1.2,1.5c.9.9,1.5,1.7,1.5,2.9v.2c0,.5-.3,1.1-.5,1.6-.3.7-.5,1.3-.5,2.1s.1,1.2.6,1.8c.7.9,1.5,2.5,1.9,3.9v.7c.2.7.3,1.4,1.1,2.2.5.4,1.3.8,1.9.9,1.3.3,2.3,0,3.3-.1.6-.1,1.1-.2,1.7-.3h.7c0,0,1,.1,1,.1.7,0,1.2-.3,1.7-.5l.5-.2h.1c.9-.5,1.9-.9,2.8-1.3.5-.3.9-.7,1.2-1.1l.6-.7c.2-.2.5-.3.7-.3l1-.5c1.2-.9,2.1-2.4,2.2-3.9v-1.5c0-.7,0-1.3,0-1.7,0-.3.1-.4.5-.4h.5c.3.1.7.2,1.1-.1.7-.6,1.2-1.6,1.5-2.6l.3-.7.3-.4c.2-.2.5-.5.6-.8,0-.2,0-.4,0-.6v-.9c0-1.1-.3-2.2-.6-3.3l-.4-1.9v-1.1c0-.7-.1-1.5-.3-2.3-.2-.5-.5-1.1-.7-1.6l-.7-1.4v-.7c-.2-.4-.3-.8-.6-1.3l-.3-.5-.2-.3v-.2c.4-.3.5-.7.5-1s-.2-.8-.4-1.2l-.2-.4-.3-.7-.5-1-.7-1-.3-.5-.5-.7c-.3-.6-.7-1.3-1.2-1.7-.5-.5-1.2-.7-1.8-.9l-.8-.3c-.5-.3-.9-.6-1.3-.9l-.5-.4c-.5-.4-1.1-.7-1.7-1.1s-1.1-.7-1.7-1.1c-.7-.5-1.2-1.1-1.8-1.7-.6-.9-1.4-1.7-2.4-2.4l-.9-.7-1-.7c-.5-.3-1.1-.4-1.5-.5h-.5c0-.1-1.8-.5-1.8-.5l-1.3-.2c-.9-.1-1.7-.5-2.5-.9-.8-.4-1.7-.7-2.6-.9-1.1-.2-2.2-.3-3.2-.3s-2.5,0-3.7.1ZM39.7,32.8h2.9c1.2-.2,2.4-.3,3.6-.3s2,0,3,.2c.8.1,1.5.5,2.4.9.9.4,1.7.8,2.7.9l1.3.2,1.8.3h.5c.4.1.8.2,1.1.4l.9.7.9.7c.9.6,1.6,1.4,2.4,2.2.6.6,1.2,1.3,1.9,1.8.5.5,1.2.8,1.8,1.1.5.3,1.1.6,1.5.9l.5.4c.5.4.9.8,1.5,1.1l.9.4c.5.2,1.1.4,1.4.7s.7.9,1,1.5l.5.8.4.5.6,1.1.4.9.3.7.2.5c.3.7.3.7.1,1.1-.5.8-.3,1.1,0,1.7l.3.5c.2.3.3.6.3,1l.2.8.7,1.6c.3.5.5,1,.7,1.5.2.6.3,1.3.4,2.1v1.1c.1,0,.5,1.9.5,1.9.3,1,.5,2.1.5,3.1v.3c0,.2,0,.6,0,.7s-.2.3-.3.5l-.6.7-.3.7c-.3.8-.7,1.7-1.3,2.1h-.1c0,0-.2,0-.2,0h-.7c-.9,0-1.4.3-1.6,1.1-.1.7-.1,1.3,0,2.1v1.3c0,1.1-.8,2.4-1.8,3.2l-.7.3c-.3.1-.7.3-1.1.6l-.7.7c-.3.3-.5.7-.9.9-.8.5-1.7.9-2.6,1.2h-.1c0,0-.5.3-.5.3-.5.2-.9.4-1.3.5h-.8c0,0-.9-.1-.9-.1-.7,0-1.3.1-1.9.3-.9.2-1.8.3-2.8.1-.5-.1-1.1-.4-1.5-.7-.5-.5-.6-.8-.7-1.4v-.9c-.5-1.5-1.5-3.3-2.2-4.2-.7-1-.4-1.8,0-2.9.2-.6.5-1.2.5-1.9.1-1.7-.9-2.8-1.8-3.8l-1.1-1.3c-.4-.6-.8-1.5-.8-2.1s0-.2.2-.4c.2-.3.4-.5.4-1.1,0-1.3-1.4-1.4-2.2-1.5-.3,0-.7,0-.8-.1s-.3-.4-.5-.6l-.3-.5c-.5-.5-1.1-1.1-1.7-1.5-.5-.4-1.1-.6-1.6-.9l-.7-.3c-.5-.3-1.1-.5-1.8-.3s-1.3.7-1.9,1.2l-.7.5-2.3,1.7c-.6.5-1.1,1.1-1.5,1.7l-.3.7c-.1.3-.3.7-.5.8-.1,0-.2.1-.3.1,0-.1,0-.4,0-.6v-.4c0-.3,0-.6,0-.9-.2-.5-.7-.7-.9-.7-.2,0-.3,0-.4-.1-.1-.1-.3-.4-.3-.7-.1-.3-.3-.7-.6-1q0,0,.1.1v-.3c-.3-.2-.5-.3-.7-.3-.7.1-1.2,1-1.5,1.7l-.3.5c-.3.5-.7,1.1-1.2,1.4l-.8.4-.7.3c-.6.3-.8.7-1.1,1.2l-.2.3c-.2.4-.4.4-.8.4s-.8,0-1.3.4l-.5.5c-.1.2-.2.3-.4.3-.3.1-.6,0-1-.1h-.5c-1.3-.5-2.6-.3-3.7,0-1.7.3-2.6.3-4,0-.9-.2-1.7-.3-2.6-.3h-.9c-1.9-.2-1.9-2.8-1.9-3.3v-3.1c0,0-.3-1.1-.3-1.1l-.3-1.3c0,0,0-.1,0-.2,0,0-.4-1.1,1.2-2.5l.6-.5c.4-.4.7-.6.5-.9,0-.2-.3-.3-.7-.3-.3,0-.4,0-.5-.1,0,0,.2-.6.3-.9.3-.9.7-2.1.5-3.2h0c-.2-.9.3-1.7.7-2.2l.3-.7c.1-1.1,1.1-2.2,1.9-2.8l5.5-4.4.9-.9c.8-.8,1.7-1.6,2.7-1.7h1.3c.5-.3.9-.7,1.2-1.1l.5-.5c.5-.4.9-.5,1.6-.6h.2c1.5-.3,3-.7,4.3-1.2,1.4-.5,2.8-.9,4.4-1.3,1.2-.3,2.4-.3,3.7-.3h1.1Z"/>
            <g>
              <path class="cls-1" d="M24.5,45.2c-4.6.9-8.3,5.5-7.8,9.8.1,1.1.5,2.2.7,3.3.5,1.7.9,3.2.8,5.1-.1,2.4-1.5,3.3-3.3,4.6l-1.1.8.4.5,1.1-.8c1.8-1.3,3.4-2.4,3.6-5.2.1-1.9-.3-3.6-.8-5.3-.3-1-.6-2.1-.7-3.2-.5-4,3-8.3,7.3-9,1.7-.3,4.5-.5,5.4.5.3.3.4.7.3,1.2h.7c.1-.6,0-1.3-.5-1.7-1.6-1.5-5.9-.7-6.1-.7Z"/>
              <path class="cls-1" d="M27,42.3c-.5.9-.7,2-.4,3l.7-.2c-.3-.9,0-1.8.3-2.4.6-1.1,1.8-2,3-2.3v-.7c-1.5.3-2.9,1.3-3.6,2.6Z"/>
              <path class="cls-1" d="M24.1,60.9l.2.3c.9,1.6,2.6,4.5,4.4,4.3v-.7c-1.5.1-3.2-2.8-3.8-4l-.2-.3c-1.5-2.7-1.9-5.1-1.9-8.5h-.7c0,3.6.3,6,1.9,8.9Z"/>
              <path class="cls-1" d="M35,42.7c.9.6,1.5,1.6,1.5,3,0,1.7-.8,3.5-2.1,4.4-1.9,1.3-4.8.5-7-.6l-.3.6c2.4,1.3,5.6,2.1,7.7.5,1.5-1.1,2.5-3.1,2.4-5,0-1.5-.7-2.8-1.9-3.5l-.4.6Z"/>
              <path class="cls-1" d="M34.7,50.9c.1,0,.3,0,.3.2.2.4.1,1.1,0,1.5-.4.7-1.1,1-1.9,1.3l-1.2.5c-1.7,1-3,2.8-3.4,4.7-.3,1.6-.1,2.9.6,3.8.3.3.5.5.7.6l.6.4.5-.5-.7-.5c-.2-.1-.3-.2-.5-.4-.5-.7-.7-1.7-.5-3.2.3-1.7,1.5-3.4,3-4.2l1.1-.5c.8-.3,1.7-.7,2.3-1.6.3-.5.4-1.5,0-2.2-.2-.3-.5-.5-.9-.6v.7Z"/>
              <path class="cls-1" d="M11.4,44.7c.3.5.5,1.3.8,2.2.5,1.7,1.1,3.8,2.6,4.6.8.4,1.8.5,3,.1l-.2-.7c-1,.3-1.8.3-2.5,0-1.3-.7-1.8-2.5-2.3-4.2-.3-.9-.5-1.7-.8-2.3l-.7.4Z"/>
              <path class="cls-1" d="M14.4,59.9c0,.7-.3,1.4-1.1,1.9-1.7,1.2-4.8,1.4-6,1l-.3.7c1.3.5,4.7.3,6.6-1.1.9-.7,1.4-1.5,1.3-2.6h-.6Z"/>
              <path class="cls-1" d="M11.7,62.8l.7-.2c-.8-2.8-.3-7.9,2.3-9.9l-.4-.5c-3,2.4-3.4,7.8-2.6,10.7Z"/>
              <path class="cls-1" d="M38.4,37.9c0,1.7,1.3,3.2,2.5,4.4.7.7,1.3,1.5,1.7,2.2h0c.8,1.5,1.6,2.9,2.1,4.4.4,1.3.3,2.8.3,4.2v1.2c0,1.7-.4,4.5-1.9,4.6v.7c2.5-.1,2.6-4.4,2.6-5.3v-1.2c0-1.4,0-2.9-.4-4.4-.5-1.6-1.3-3.1-2.2-4.5h0c-.5-.9-1.2-1.7-1.9-2.4-1.1-1.3-2.3-2.5-2.4-4,0-1.7,1-4.6,2.1-5.6l-.5-.5c-1.3,1.3-2.4,4.5-2.2,6.2Z"/>
              <path class="cls-1" d="M38.4,38l.5.5c1.3-1.5,4.4-3.4,6.5-2.9.8.2,1.3.7,1.6,1.7v1.1c.2.9.3,2,1.6,2.7.8.5,2.2.3,3.2,0,2.2-.5,2.6-1.9,3.1-3.7l-.7-.2c-.5,1.8-.7,2.8-2.6,3.2-1.2.3-2.2.3-2.6,0-.9-.5-1-1.2-1.1-2.2l-.2-1.1c-.3-1.2-1.1-1.9-2.2-2.2-2.4-.5-5.8,1.5-7.2,3.1Z"/>
              <path class="cls-1" d="M48.6,51.9c-.8.3-1.5.3-2.4.3h-.6v.7h.6c.9,0,1.7,0,2.7-.3,1.8-.7,3.8-3,3.8-5h-.7c0,1.7-1.8,3.8-3.4,4.4Z"/>
              <path class="cls-1" d="M52.5,47.8c2.4.3,4.2-.4,5.4-2.2l-.6-.4c-1.1,1.5-2.6,2.2-4.7,1.9-1.4-.2-3.4-1.7-3.4-3.3h-.7c-.1,2,2.3,3.8,4,4Z"/>
              <path class="cls-1" d="M36.8,57.8c.3,1.7,1.2,3.6,2.5,3.6v-.7c-.7,0-1.5-1.3-1.8-3-.3-1.3-.1-2.9.7-3.2l-.3-.6c-1.2.4-1.3,2.3-1.1,3.9Z"/>
              <path class="cls-1" d="M60.2,36.2v4.9c0,2.3.9,3.4,2.2,5.1l.2.3c1.4,1.7,2.6,5,2.1,7.5-.2,1.1-.8,1.9-1.7,2.4-.8.5-2,.3-3.2.1h-1.3c-2.2-.3-3.7.2-5,1.6-.5.5-1.1,1-1.6,1.4-1.5,1.2-2.9,2.4-1.9,4.6l.6-.3c-.8-1.8.2-2.6,1.7-3.8.5-.4,1.1-.9,1.7-1.5,1.2-1.3,2.4-1.7,4.5-1.5h1.2c1.2.3,2.6.5,3.6,0s1.7-1.6,2-2.9c.5-2.8-.7-6.2-2.2-8.1l-.2-.3c-1.3-1.7-2.1-2.7-2.2-4.7v-4.9c.1,0-.5,0-.5,0Z"/>
              <path class="cls-1" d="M65.3,54c5.4.7,9,4.6,8.9,9.6h.7c.1-5.3-3.8-9.6-9.5-10.3v.7Z"/>
              <path class="cls-1" d="M72.4,65.1c-.3.6-.6,1.3-1.2,1.8l.5.5c.7-.6,1.1-1.3,1.4-2,.5-1.1.9-1.9,2.8-1.7,1.3.1,1.7.4,2.3,1.6l.3.7c.4,1,.9,2.4,2.4,2.4v-.7c-.9,0-1.2-.7-1.7-1.9l-.3-.8c-.7-1.4-1.3-1.8-2.8-2-2.4-.3-3,.9-3.6,2Z"/>
              <path class="cls-1" d="M57.3,57.4c1.1.1,2,.8,3,1.5l.3.2c2.6,1.9,2.9,3.7,2.6,6.5-.2,1.5-.6,3.4-1.9,4.8l-.9.8c-.7.5-1.3,1.1-1.7,2.2-.5,1.4-2.3,9.1-.5,11.9.4.6,1,.9,1.7.9v-.7c-.5,0-.9-.2-1.1-.7-1.6-2.4,0-9.7.5-11.3.3-.9.9-1.4,1.5-1.9l.9-.8c1.5-1.5,1.9-3.5,2.2-5.2.3-2.8,0-5-2.8-7.1l-.3-.2c-1-.7-2-1.5-3.3-1.7v.7Z"/>
              <path class="cls-1" d="M69.3,70.4c.2.3.3.5.2.7-.1.6-1.3,1.1-2.2,1.4-.7.3-1.3.5-1.6.8-1.1,1.1-.8,3.8-.7,5.2.1,1.2.7,5,2,6.4l.5-.5c-1-1.1-1.7-4.6-1.8-6-.1-1.2-.4-3.7.5-4.6.2-.2.8-.5,1.3-.7,1.1-.5,2.4-.9,2.6-1.9.1-.4,0-.9-.3-1.3l-.5.4Z"/>
              <path class="cls-1" d="M66.5,65.5l.2,1c.3,1.5.5,2.8,2.4,3.8,2.3,1.3,4.8,1.5,6.5.5l-.3-.6c-1.5.9-3.7.7-5.8-.5-1.5-.9-1.7-1.9-2-3.3l-.2-1.1-.7.2Z"/>
              <path class="cls-1" d="M61.2,70.5l.2-.7c-2.6-.9-3.8-4.5-3.6-6.7h-.7c-.1,2.4,1,6.4,4.1,7.4Z"/>
              <path class="cls-1" d="M66.8,45.2c.1,1-.2,2.5-1,3.2-.5.4-1,.5-1.6.3l-.2.7c.9.2,1.6,0,2.3-.5,1-.9,1.4-2.6,1.3-3.8h-.7Z"/>
              <path class="cls-1" d="M58.7,51.4c0,1,0,1.9.7,3,.9,1.1,2.8,2.8,4.2,2.3l-.2-.7c-1,.3-2.7-1.1-3.5-2.1-.7-.8-.6-1.5-.6-2.5v-.5h-.7v.5Z"/>
              <path class="cls-1" d="M59.5,77.3c1.8,2.7,3.6,3.1,6.3,3.5v-.7c-2.8-.4-4.2-.8-5.7-3.2l-.6.3Z"/>
            </g>
            <g>
              <path class="cls-5" d="M27.7,81.7c0,2.4-.5,4.4-1.4,5.8-.9,1.5-2.4,2.2-4.2,2.2v-2.6c1.9,0,2.8-1.8,2.8-5.4h-2.8v-5.7h5.7v5.7h0Z"/>
              <path class="cls-5" d="M48.9,81.7c0,2.4-.5,4.4-1.4,5.8-.9,1.5-2.4,2.2-4.2,2.2v-2.6c1.9,0,2.8-1.8,2.8-5.4h-2.8v-5.7h5.7v5.7h0Z"/>
              <path class="cls-5" d="M35.7,103.9c-1-.5-7.8-4.6-7.8-4.6l-1.1,1.8,8.4,4.9c.3.2.7.2,1.1,0l11.2-7.3-1.1-1.7c0,0-9.6,6.2-10.6,6.9Z"/>
            </g>
            <g>
              <path class="cls-5" d="M15.2,115h.8c0,.3.1.5.3.7.1.2.3.3.6.5s.6.2.9.2.6,0,.8-.1c.3,0,.4-.2.5-.4.1-.1.2-.3.2-.5s0-.3-.2-.5c-.1-.1-.3-.3-.5-.3-.1,0-.5-.1-1.1-.3-.5-.1-.9-.3-1.2-.4-.3-.1-.5-.3-.7-.6-.1-.2-.2-.5-.2-.8s0-.6.3-.9c.2-.3.5-.5.8-.6s.7-.2,1.1-.2.9,0,1.2.2.6.3.8.7c.2.3.3.6.3,1h-.8c0-.3-.2-.6-.4-.8-.3-.2-.6-.3-1.1-.3s-.9,0-1.1.3c-.2.2-.3.4-.3.7s0,.4.3.5c.1.1.5.3,1.2.5.7.1,1.1.3,1.3.4.3.1.6.4.8.6.2.3.3.5.3.9s0,.7-.3.9-.5.5-.8.7-.7.3-1.2.3-1,0-1.4-.3c-.4-.1-.7-.4-.9-.7-.3-.3-.4-.6-.5-1.1Z"/>
              <path class="cls-5" d="M21.2,117v-4.5h.7v.7c.1-.2.3-.4.5-.5s.5-.2.8-.2.6,0,.8.2.3.3.5.6c.3-.5.8-.8,1.4-.8s.8.1,1,.4c.3.3.3.6.3,1.1v3.1h-.7v-2.8c0-.3,0-.5,0-.7s-.1-.3-.3-.3-.3-.1-.5-.1c-.3,0-.6.1-.8.3s-.3.5-.3,1v2.6h-.7v-3c0-.3,0-.6-.2-.7-.1-.2-.3-.3-.6-.3s-.4,0-.6.2c-.2.1-.3.3-.4.5s-.1.5-.1.9v2.4h-.7Z"/>
              <path class="cls-5" d="M31.4,116.5c-.3.3-.5.4-.8.5-.3,0-.5.1-.9.1s-.9-.1-1.1-.3c-.3-.3-.4-.5-.4-.9s0-.4.1-.6c0-.2.2-.3.4-.5.1-.1.3-.2.5-.3.1,0,.4,0,.7-.1.6,0,1.1-.1,1.3-.3v-.2c0-.3,0-.5-.2-.7-.2-.2-.5-.3-.9-.3s-.6,0-.8.2-.3.3-.4.7h-.7c0-.4.2-.7.3-.9s.4-.3.7-.5.7-.1,1-.1.7,0,.9.1c.3,0,.4.2.5.3s.2.3.3.5c0,.1,0,.3,0,.7v1c0,.7,0,1.1,0,1.3,0,.2,0,.4.2.5h-.8c0,0,0-.3-.1-.5ZM31.3,114.8c-.3.1-.7.2-1.3.3-.3,0-.5,0-.7.1-.1,0-.2.1-.3.3,0,.1-.1.2-.1.3,0,.2,0,.4.2.5s.4.2.7.2.5,0,.8-.2c.2-.1.4-.3.5-.5,0-.2.1-.4.1-.7v-.3Z"/>
              <path class="cls-5" d="M33.3,117v-4.5h.7v.7c.2-.3.3-.5.5-.6.1-.1.3-.1.5-.1.3,0,.5,0,.8.3l-.3.7c-.2-.1-.4-.1-.5-.1s-.3,0-.5.1c-.1,0-.2.3-.3.4,0,.3-.1.5-.1.9v2.4h-.7Z"/>
              <path class="cls-5" d="M37.9,116.4v.7c-.1,0-.3,0-.5,0s-.5,0-.7-.1c-.1,0-.3-.2-.3-.3s0-.5,0-.9v-2.6h-.5v-.6h.5v-1.1l.7-.5v1.5h.8v.6h-.7v2.6c0,.2,0,.3,0,.4,0,0,0,.1.1.1,0,0,.1,0,.3,0,0,0,.1,0,.3,0Z"/>
              <path class="cls-5" d="M41.1,117v-6.2h2.8c.5,0,1,0,1.3.1.3.1.5.3.7.6.2.3.3.6.3.9s-.1.8-.4,1.1-.7.5-1.3.6c.2.1.4.2.5.3.3.2.5.5.7.8l1.1,1.7h-1l-.8-1.3c-.3-.4-.5-.7-.6-.9-.1-.2-.3-.3-.4-.4s-.3-.1-.4-.1h-1.4v2.8h-.8ZM42,113.5h1.7c.4,0,.7,0,.9-.1.2,0,.4-.2.5-.4.1-.2.1-.3.1-.5s-.1-.5-.3-.7-.5-.3-1-.3h-1.9v2.1h0Z"/>
              <path class="cls-5" d="M50.4,115.6h.8c-.1.5-.3.9-.7,1.1-.3.3-.7.4-1.3.4s-1.2-.2-1.5-.6c-.4-.4-.6-1-.6-1.7s.2-1.3.6-1.7.9-.6,1.5-.6,1.1.2,1.5.6c.4.4.6,1,.6,1.7v.2h-3.4c0,.5.2.9.4,1.1.3.3.5.4.9.4s.5,0,.7-.2c0-.3.2-.5.3-.8ZM47.9,114.4h2.6c0-.4-.1-.7-.3-.9-.3-.3-.5-.5-.9-.5s-.7.1-.9.3c-.3.3-.5.6-.5,1Z"/>
              <path class="cls-5" d="M55.1,116.5c-.3.3-.5.4-.8.5-.3,0-.5.1-.9.1s-.9-.1-1.1-.3c-.3-.3-.4-.5-.4-.9s0-.4.1-.6c0-.2.2-.3.4-.5.1-.1.3-.2.5-.3.1,0,.4,0,.7-.1.6,0,1.1-.1,1.3-.3v-.2c0-.3,0-.5-.2-.7-.2-.2-.5-.3-.9-.3s-.6,0-.8.2c-.2.1-.3.3-.4.7h-.7c0-.4.2-.7.3-.9s.4-.3.7-.5.6-.1,1-.1.7,0,.9.1c.3,0,.4.2.5.3.1.1.2.3.3.5,0,.1,0,.3,0,.7v1c0,.7,0,1.1,0,1.3,0,.2,0,.4.2.5h-.8c0,0,0-.3-.1-.5ZM55,114.8c-.3.1-.7.2-1.3.3-.3,0-.5,0-.7.1-.1,0-.2.1-.3.3,0,.1-.1.2-.1.3,0,.2,0,.4.2.5.1.1.4.2.7.2s.5,0,.8-.2c.2-.1.4-.3.5-.5,0-.2.1-.4.1-.7v-.3Z"/>
              <path class="cls-5" d="M59.9,117v-.6c-.3.5-.7.7-1.3.7s-.7,0-1-.3c-.3-.2-.5-.5-.7-.8s-.3-.7-.3-1.2,0-.9.2-1.2c.1-.3.4-.7.7-.9s.6-.3,1-.3.5,0,.7.2c.2.1.4.3.5.5v-2.2h.7v6.2h-.7ZM57.5,114.8c0,.6.1,1,.3,1.3.3.3.5.4.9.4s.6-.1.9-.4c.2-.3.3-.7.3-1.3s-.1-1.1-.3-1.3c-.3-.3-.5-.4-.9-.4s-.6.1-.9.4c-.2.3-.3.7-.3,1.3Z"/>
              <path class="cls-5" d="M61.8,111.7v-.9h.8v.9h-.8ZM61.8,117v-4.5h.8v4.5h-.8Z"/>
              <path class="cls-5" d="M63.8,117v-4.5h.7v.7c.3-.5.8-.7,1.4-.7s.5,0,.7.1c.2,0,.4.2.5.4.1.1.2.3.3.5,0,.1,0,.4,0,.7v2.8h-.8v-2.8c0-.3,0-.5,0-.7s-.1-.3-.3-.4c-.1,0-.3-.1-.5-.1-.3,0-.6.1-.9.3s-.3.6-.3,1.2v2.5h-.7Z"/>
              <path class="cls-5" d="M68.5,117.4h.7c0,.3.1.5.3.6.2.1.5.2.8.2s.6,0,.8-.2c.2-.1.3-.3.4-.6,0-.1,0-.5,0-1-.3.4-.7.6-1.3.6s-1.1-.2-1.5-.7c-.3-.5-.5-1-.5-1.6s0-.8.3-1.2c.1-.3.4-.7.7-.9s.7-.3,1.1-.3,1,.2,1.3.7v-.5h.7v3.9c0,.7,0,1.2-.2,1.5-.1.3-.3.5-.7.7-.3.2-.7.3-1.1.3s-.9-.1-1.3-.3c-.4-.3-.5-.6-.5-1.1ZM69.1,114.7c0,.6.1,1,.3,1.3.3.3.5.4.9.4s.7-.1.9-.4c.3-.3.3-.7.3-1.3s-.1-.9-.4-1.3c-.3-.3-.5-.4-.9-.4s-.6.1-.9.4c-.2.3-.3.7-.3,1.3Z"/>
            </g>
          </g>
          <g>
            <path class="cls-2" d="M287.6,73.4c0,2.4-1.9,4.3-4.3,4.3s-4.3-1.9-4.3-4.3,1.9-4.3,4.3-4.3c2.4,0,4.3,1.9,4.3,4.3ZM283.3,68.4c-2.8,0-5,2.2-5,5s2.2,5,5,5,5-2.2,5-5c0-2.8-2.2-5-5-5Z"/>
            <path class="cls-2" d="M281,76.3v-5.8h2.6c.5,0,.9,0,1.2.1.3.1.5.3.7.5.1.3.3.5.3.9s-.1.7-.4,1.1c-.3.3-.7.5-1.3.5.2,0,.3.2.5.3.2.2.5.5.7.8l1,1.6h-.9l-.8-1.2c-.2-.3-.4-.6-.5-.8-.1-.2-.3-.3-.4-.4s-.2-.1-.3-.1h-1.3v2.6h-.9ZM281.9,73h1.7c.3,0,.6,0,.8-.1.2,0,.3-.2.5-.3s.1-.3.1-.5-.1-.5-.3-.7c-.2-.2-.5-.3-.9-.3h-1.9v1.9h0Z"/>
          </g>
          <g>
            <path class="cls-1" d="M89.8,51.7l4.1-.2c0,1.3.3,2.2.7,2.6.6.7,1.8,1.1,3.5,1.1s2.4-.3,3.1-.7c.6-.5.9-1.1.9-1.8s-.3-1.1-.8-1.5c-.3-.3-1.3-.8-3-1.5-1.6-.7-2.8-1.3-3.6-1.7s-1.3-1.1-1.7-1.8-.7-1.6-.7-2.6c0-1.7.7-3.2,1.9-4.4s3.1-1.7,5.5-1.7,4.4.6,5.7,1.7c1.3,1.1,2.1,2.7,2.2,4.6l-4.1.2c-.1-1-.5-1.7-1.1-2.3-.6-.5-1.5-.8-2.8-.8s-2.1.2-2.6.6c-.5.4-.7.9-.7,1.6s.2,1.1.7,1.5,1.5.9,3.1,1.6c2.4,1,4,1.9,4.6,2.6,1,.9,1.5,2.2,1.5,3.7s-.7,3.4-2.2,4.7-3.5,1.9-6.1,1.9-3.4-.3-4.7-.9-2.2-1.4-2.8-2.5c-.4-1.3-.7-2.6-.6-3.9Z"/>
            <path class="cls-6" d="M111.6,43.3h3.8l-.3,1.8c1.5-1.5,3.1-2.2,4.7-2.2s2,.3,2.6.7,1,1.1,1.2,1.9c.5-.7,1.3-1.4,2.3-1.9,1-.5,2-.7,3-.7s2.2.3,2.8,1,1,1.5,1,2.6-.2,1.4-.5,2.7l-1.9,9.2h-4l1.9-9.2c.3-1.1.4-1.8.4-1.9,0-.4-.1-.7-.4-1-.3-.3-.7-.3-1.1-.3-1,0-1.9.5-2.8,1.6-.6.7-1.1,2.2-1.5,4.1l-1.4,6.9h-4l1.9-9.1c.2-1.1.3-1.7.3-2,0-.4-.1-.7-.4-1-.3-.3-.7-.4-1.1-.4s-.9.1-1.4.4c-.5.3-.9.6-1.3,1.1-.3.5-.7,1.1-.9,1.8-.1.3-.3,1.1-.6,2.4l-1.4,6.9h-4l3.2-15.3Z"/>
            <path class="cls-6" d="M140.2,47.5l-4-.3c.5-1.3,1.2-2.4,2.4-3.2s2.6-1.1,4.5-1.1,3.4.4,4.3,1.1c.9.8,1.4,1.7,1.4,2.9s0,.9-.1,1.5c0,.5-.3,1.9-.9,4-.4,1.8-.6,3.1-.6,3.8s.1,1.3.3,2.2h-3.9c-.2-.5-.3-1.1-.3-1.7-.6.7-1.3,1.2-2.1,1.5-.8.3-1.5.5-2.4.5-1.3,0-2.3-.4-3.1-1.2-.8-.8-1.2-1.9-1.2-3.2s.5-2.6,1.3-3.5c.9-.9,2.5-1.4,4.8-1.5,1.9-.1,3.2-.3,3.9-.6.2-.6.3-1,.3-1.3s-.2-.8-.5-1.1-.9-.5-1.5-.5-1.3.1-1.7.5c-.4.3-.7.7-.9,1.2ZM144.1,51.3c-.3,0-.6.1-1,.2-2,.3-3.4.6-4,1.1-.5.3-.7.8-.7,1.4s.2.9.5,1.2.8.5,1.3.5,1.2-.1,1.7-.5.9-.7,1.2-1.1c.3-.5.5-1.2.7-2.2v-.5Z"/>
            <path class="cls-6" d="M153.6,43.3h3.8l-.6,2.9c1.4-2.2,3-3.2,4.6-3.2s1.2.1,1.9.5l-1.5,3.4c-.4-.1-.7-.2-1.2-.2-.7,0-1.4.3-2.2.8-.7.5-1.3,1.3-1.7,2.2-.4.9-.8,2.3-1.2,4.2l-.9,4.8h-4l3.1-15.3Z"/>
            <path class="cls-6" d="M163,46.3l.6-3h2l.5-2.4,4.7-2.8-1.1,5.2h2.4l-.6,3h-2.4l-1.3,6.4c-.3,1.1-.3,1.8-.3,1.9,0,.3,0,.5.3.7.2.2.5.3,1.1.3s.6,0,1.3,0l-.7,3c-.7.1-1.4.2-2.2.2-1.4,0-2.5-.3-3.1-.9-.7-.5-.9-1.3-.9-2.4s.2-1.5.5-3.2l1.3-6h-2.1Z"/>
            <path class="cls-1" d="M176,58.4h-4.3l4.4-20.8h9.3c1.6,0,2.8.1,3.7.5s1.6.9,2.2,1.8c.5.9.8,1.9.8,3.2,0,1.7-.5,3.2-1.6,4.4s-2.7,1.9-4.8,2.2c.5.5,1.1,1.1,1.5,1.9.9,1.6,2,4,3.2,6.9h-4.6c-.3-1.2-1.1-3-2.2-5.5-.6-1.3-1.2-2.3-1.9-2.7-.4-.3-1.1-.4-2.2-.4h-1.7l-1.7,8.6ZM178.5,46.6h2.3c2.3,0,3.8-.1,4.6-.4.7-.3,1.3-.7,1.7-1.3s.7-1.2.7-1.8-.3-1.3-.9-1.7c-.4-.2-1.2-.3-2.5-.3h-4.7l-1.1,5.5Z"/>
            <path class="cls-6" d="M207.4,52.1h-10.2v.4c0,1,.3,1.8.9,2.4s1.3.9,2.1.9c1.3,0,2.4-.7,3.2-2.1l3.6.6c-.7,1.5-1.7,2.6-2.8,3.3-1.2.7-2.5,1.1-4,1.1s-3.7-.7-5-1.9-1.9-3-1.9-5.1.6-3.9,1.7-5.5c1.5-2.2,3.8-3.3,6.7-3.3s3.3.6,4.4,1.7,1.6,2.8,1.6,4.8,0,1.9-.3,2.6ZM204,49.6v-.4c0-1.1-.3-1.9-.7-2.6-.5-.5-1.2-.9-2-.9s-1.6.3-2.3.9-1.1,1.6-1.3,2.8h6.4Z"/>
            <path class="cls-6" d="M214.7,47.5l-4-.3c.5-1.3,1.2-2.4,2.4-3.2s2.6-1.1,4.5-1.1,3.4.4,4.3,1.1c.9.8,1.4,1.7,1.4,2.9s0,.9-.1,1.5c0,.5-.3,1.9-.9,4-.4,1.8-.6,3.1-.6,3.8s.1,1.3.3,2.2h-3.9c-.2-.5-.3-1.1-.3-1.7-.6.7-1.3,1.2-2.1,1.5s-1.5.5-2.4.5c-1.3,0-2.3-.4-3.1-1.2-.8-.8-1.2-1.9-1.2-3.2s.5-2.6,1.3-3.5c.9-.9,2.5-1.4,4.8-1.5,1.9-.1,3.2-.3,3.9-.6.2-.6.3-1,.3-1.3s-.2-.8-.5-1.1-.9-.5-1.5-.5-1.3.1-1.7.5c-.5.3-.7.7-.9,1.2ZM218.6,51.3c-.3,0-.6.1-1,.2-2,.3-3.4.6-4,1.1-.5.3-.7.8-.7,1.4s.2.9.5,1.2.8.5,1.3.5,1.2-.1,1.7-.5c.5-.3.9-.7,1.2-1.1s.5-1.2.7-2.2v-.5Z"/>
            <path class="cls-6" d="M239.1,58.4h-3.9l.3-1.6c-.7.7-1.5,1.2-2.2,1.5-.7.3-1.5.5-2.4.5-1.5,0-2.8-.5-3.8-1.6-.9-1.1-1.5-2.6-1.5-4.8s.7-4.6,2.1-6.6,3.2-3,5.5-3,3.6.8,4.6,2.5l1.7-7.8h4l-4.4,20.8ZM229.6,52.3c0,1.1.3,1.9.8,2.6.5.6,1.2.9,2,.9s1.5-.3,2.1-.7c.7-.5,1.1-1.3,1.5-2.4.4-1.1.6-2,.6-3s-.3-1.9-.9-2.6-1.3-1-2.1-1c-1.2,0-2.2.7-3,2-.7,1.2-1.1,2.7-1.1,4.2Z"/>
            <path class="cls-6" d="M246.1,43.3h4l-3.2,15.1h-4l3.2-15.1ZM247.3,37.6h4l-.7,3.6h-4l.7-3.6Z"/>
            <path class="cls-6" d="M254.2,43.3h3.9l-.4,2c1-.9,1.9-1.4,2.8-1.8.9-.3,1.7-.5,2.7-.5s2.3.3,3,1.1c.7.7,1.1,1.7,1.1,2.9s-.2,1.5-.5,3l-1.8,8.5h-4l1.8-8.5c.3-1.3.4-2,.5-2.3,0-.5-.1-.9-.5-1.3s-.7-.5-1.3-.5-1.3.3-2,.7-1.3,1.1-1.7,2c-.3.6-.7,1.8-1.1,3.6l-1.3,6.2h-4l3.1-15.2Z"/>
            <path class="cls-6" d="M268.6,59.2l4.3.6c0,.4,0,.7.2,1,.1.2.3.4.7.5.3.1.7.2,1.3.2.9,0,1.7-.2,2.2-.5.4-.3.7-.7,1-1.3.1-.4.3-1.2.6-2.5v-.7c-1.3,1.2-2.9,1.7-4.4,1.7s-2.7-.5-3.6-1.5-1.4-2.6-1.4-4.6.3-3.4.9-4.8c.7-1.5,1.5-2.6,2.7-3.4s2.4-1.1,3.6-1.1,1.9.3,2.8.8c.8.5,1.5,1.3,1.9,2.2l.5-2.7h3.8l-2.4,12.6c-.4,2-.8,3.5-1.1,4.4s-.7,1.5-1,2.1c-.4.5-.9.9-1.5,1.3-.6.3-1.3.6-2.1.7s-1.7.2-2.6.2c-2.1,0-3.7-.3-4.8-1.1s-1.6-1.9-1.6-3.6c0-.1,0-.3,0-.5ZM273.5,51.8c0,1.1.3,2,.7,2.6.5.6,1.1.9,1.9.9s1.4-.3,2.1-.8c.7-.5,1.2-1.3,1.5-2.3s.5-1.9.5-2.9-.3-1.9-.9-2.6c-.6-.7-1.3-1-2.1-1s-1.4.3-2,.9-1.1,1.5-1.5,2.7c-.3.9-.4,1.7-.4,2.5Z"/>
          </g>
          <path class="cls-1" d="M298.9,59.5l4.3-20.6h15.3l-.7,3.4h-11l-1,4.6h10.6l-.7,3.4h-10.6l-1.3,5.6h12l-.7,3.4h-16Z"/>
          <path class="cls-6" d="M321.2,44.7h3.8l-.4,1.9c.9-.8,1.8-1.4,2.7-1.7.8-.3,1.7-.5,2.6-.5s2.2.3,2.9,1.1c.7.7,1.1,1.6,1.1,2.8s-.1,1.5-.5,3l-1.7,8.4h-4l1.7-8.5c.3-1.3.4-2,.4-2.3,0-.5-.1-.9-.5-1.2s-.7-.5-1.3-.5-1.2.3-1.9.7-1.3,1.1-1.7,1.9c-.3.6-.6,1.7-1,3.6l-1.3,6.1h-4l3.1-14.8Z"/>
          <path class="cls-6" d="M335.3,60.3l4.2.6c0,.4,0,.7.2.9.1.2.3.4.7.5.3.1.7.2,1.3.2.9,0,1.5-.1,2-.5.4-.3.7-.7.9-1.3.1-.3.3-1.1.6-2.4v-.7c-1.3,1.1-2.7,1.7-4.2,1.7s-2.6-.5-3.6-1.5-1.4-2.6-1.4-4.5.3-3.4.9-4.8c.6-1.5,1.5-2.6,2.7-3.3s2.4-1.1,3.5-1.1,1.9.3,2.7.8c.8.5,1.5,1.3,1.9,2.2l.5-2.6h3.8l-2.6,12.4c-.4,2-.8,3.4-1.1,4.2-.3.9-.6,1.5-1,2-.4.5-.9.9-1.4,1.3s-1.2.6-2,.7-1.6.2-2.6.2c-2.1,0-3.7-.3-4.8-1.1s-1.6-1.9-1.6-3.6c.1-.1.1-.3.1-.5ZM340,53.1c0,1.1.3,2,.7,2.6.5.6,1.1.9,1.9.9s1.4-.3,2-.8c.7-.5,1.1-1.3,1.5-2.3s.5-1.9.5-2.8-.3-1.9-.9-2.6c-.5-.7-1.2-.9-1.9-.9s-1.4.3-2,.9c-.6.5-1.1,1.5-1.5,2.6-.2.9-.3,1.7-.3,2.5Z"/>
          <path class="cls-6" d="M353,59.5l4.3-20.6h4l-4.3,20.6h-4Z"/>
          <path class="cls-6" d="M364.1,44.7h4l-3.1,14.8h-4l3.1-14.8ZM365.2,39h4l-.7,3.6h-4l.7-3.6Z"/>
          <path class="cls-6" d="M368.5,55.4l3.9-.6c.3.8.8,1.4,1.3,1.7.5.3,1.2.5,2.1.5s1.7-.2,2.2-.6c.4-.3.6-.6.6-1s0-.5-.3-.7c-.2-.2-.7-.5-1.7-.7-2.4-.8-4-1.4-4.5-1.9-.9-.7-1.3-1.7-1.3-2.9s.5-2.2,1.3-3c1.2-1.2,3-1.7,5.4-1.7s3.4.3,4.4,1.1c1,.7,1.6,1.7,1.9,2.8l-3.7.7c-.2-.5-.5-.9-.9-1.2-.6-.3-1.3-.5-2.2-.5s-1.5.1-1.8.4-.5.6-.5.9.2.7.5.9c.2.1,1,.4,2.3.8,1.9.5,3.3,1.1,4,1.7.9.8,1.4,1.7,1.4,2.8s-.6,2.6-1.7,3.7c-1.2,1-2.9,1.5-5,1.5s-3.8-.4-5-1.2c-1.4-.9-2.2-2-2.6-3.5Z"/>
          <path class="cls-6" d="M389,59.5h-4l4.3-20.6h4l-1.5,7.3c.9-.7,1.7-1.2,2.6-1.5s1.6-.5,2.6-.5,2.2.3,2.9,1c.7.7,1.1,1.6,1.1,2.7s-.1,1.5-.4,2.8l-1.8,8.7h-4l1.9-8.9c.2-.9.3-1.5.3-1.9s-.1-.9-.5-1.2c-.3-.3-.7-.5-1.3-.5s-1.3.2-1.9.7c-.8.6-1.4,1.3-1.8,2.3-.2.5-.5,1.7-.9,3.5l-1.3,6.1Z"/>
          <g>
            <path class="cls-1" d="M91.8,71h5v-1.3c0-.1.1-.2.3-.2,1,0,1.5,0,1.5.2,0,.2,0,.3-.2.3-.1,0-.2.1-.2.4v.6h4.9v-1.2c0-.1.1-.3.3-.3,1,0,1.5,0,1.5.3s0,.3-.2.3-.2.1-.2.4v.5h4.7c.1,0,.2.1.2.3v.6c0,.2,0,.3-.2.3h-4.7v1.3c0,.1-.1.2-.3.2h-.7c-.2,0-.3,0-.3-.2v-1.3h-4.9v1.3c0,.1-.1.2-.3.2h-.7c-.2,0-.3,0-.3-.2v-1.3h-5c-.1,0-.2-.1-.2-.3v-.6c0-.3,0-.4.2-.4ZM94.9,75.2h4.9v-1.7c0-.1,0-.2,0-.2h1.4c.2.2.3.3.3.3,0,.1,0,.2-.2.3s-.2.1-.2.3v1h5c.2,0,.3,0,.3.2v4.6h2.8c.1,0,.2.1.2.3v.6c0,.2,0,.3-.2.3h-7.7c.4.6.7,1.1,1.1,1.5.4.5.9.9,1.6,1.4.4.3,1,.6,1.8,1,.5.3,1.2.5,1.9.7.3,0,.7.1,1.3.3.1,0,.2,0,.2,0,0,.1,0,.2-.2.3-.2.3-.4.5-.6.7,0,.1-.2.2-.3.2-1.1-.3-2.2-.7-3-1.1-.8-.4-1.4-.7-1.9-1.1-.7-.5-1.3-1-1.7-1.5-.4-.4-.8-1-1.2-1.6-.2.5-.4.9-.7,1.3-.5.6-1.1,1.2-1.9,1.8-1,.7-2.2,1.4-3.6,1.8-.9.3-1.4.4-1.7.4s-.2,0-.2-.2c-.1-.3-.3-.7-.5-.9,0,0-.1,0-.1,0,0-.1,0-.1.1-.1,1.1-.1,2.1-.4,2.8-.7.9-.3,1.7-.7,2.4-1.2.7-.5,1.3-1,1.7-1.6.3-.4.6-.9.7-1.4h-7.5c-.1,0-.3-.1-.3-.3v-.6c0-.2,0-.3.3-.3h2.6v-4.4c0-.3,0-.3.3-.3ZM95.9,80h3.8c0-.5,0-1,0-1.6v-1.9h-3.8v3.6h0ZM101.2,76.4v1.9c0,.6,0,1.1,0,1.6h4v-3.5h-4Z"/>
            <path class="cls-1" d="M113.1,72.6h6.9c.1,0,.2.1.2.3v.6c0,.2,0,.3-.2.3h-6.9c-.1,0-.2-.1-.2-.3v-.6c0-.2,0-.3.2-.3ZM114,80.8h5.2c.2,0,.3,0,.3.2v5.9c0,.1-.1.2-.3.2h-.8c-.2,0-.3,0-.3-.2v-.9h-3.1v.9c0,.1-.1.2-.3.2h-.7c-.2,0-.3,0-.3-.2v-5.8c0-.2.1-.3.3-.3ZM114,69.9h5.2c.1,0,.2,0,.2.3v.6c0,.2,0,.3-.2.3h-5.2c-.1,0-.2-.1-.2-.3v-.6c0-.2,0-.3.2-.3ZM114,75.3h5.2c.1,0,.2.1.2.3v.6c0,.2,0,.3-.2.3h-5.2c-.1,0-.2-.1-.2-.3v-.6c0-.2,0-.3.2-.3ZM114,77.9h5.2c.1,0,.2.1.2.3v.6c0,.2,0,.3-.2.3h-5.2c-.1,0-.2,0-.2-.3v-.6c0-.3,0-.3.2-.3ZM115,84.8h3.1v-2.8h-3.1v2.8ZM121,69.9h8.9c.1,0,.1,0,.1.2v.6c0,.2,0,.3-.1.3h-4l-.7,2.5h3.6c.2,0,.3,0,.3.2v4h1.5c.1,0,.1,0,.1.3v.6c0,.2,0,.3-.1.3h-10.2c-.1,0-.1-.1-.1-.3v-.6c0-.1,0-.3.1-.3h2.4l.9-3.1h-2.2c-.1,0-.1-.1-.1-.3v-.6c0-.1,0-.2.1-.2h2.5l.7-2.5h-3.5c-.1,0-.1-.1-.1-.3v-.6c-.2-.1-.2-.2,0-.2ZM121.5,80.4h7.6c.2,0,.3,0,.3.3v6.4c0,.1-.1.2-.3.2h-.7c-.2,0-.3,0-.3-.2v-.9h-5.4v.9c0,.1-.1.2-.3.2h-.7c-.2,0-.3,0-.3-.2v-6.4c0-.2.1-.3.3-.3ZM122.6,84.9h5.4v-3.4h-5.4v3.4ZM124.1,77.8h3.6v-3.1h-2.8l-.9,3.1Z"/>
            <path class="cls-1" d="M134.4,78.4h3.6c.2,0,.3,0,.3.2v5.1c0,.5,0,.8.2,1,.1.2.3.4.5.5.3.2.7.3,1,.4.5,0,1.1.1,1.7.1h4.2c1.6,0,3.6-.2,5.8-.5.1,0,.2,0,.3,0q.1,0,.1,0c-.1.5-.3,1.1-.3,1.6,0,.2-.1.3-.3.3h-9.7c-.5,0-.9,0-1.4,0-.4,0-.9-.1-1.3-.3-.3-.1-.7-.3-1-.5-.2-.2-.5-.5-.7-1h0c0,0-.1,0-.1,0-1.3.9-2,1.6-2.2,1.9q0,0-.2,0c0,0-.3-.3-.7-1,0-.1,0-.3,0-.4.7-.3,1.7-.9,2.8-1.7,0,0,0-.2,0-.3v-4.1h-2.5c-.1,0-.2-.1-.2-.3v-.6c0-.3.1-.4.3-.4ZM135.3,73.6c.7.4,1.3.7,1.7,1.1.5.4.9.7,1.3,1.1,0,0,0,0,0,.2-.4.5-.5.8-.6.8-.5-.5-1.1-1-1.8-1.5-.5-.3-.9-.6-1.3-.7,0,0,.2-.4.6-.9.1-.1.2-.2.2-.2ZM135.7,69.7c.7.3,1.2.7,1.6.9.5.3.9.7,1.3.9,0,0,0,0,0,.2-.4.5-.5.8-.6.8-.5-.5-1.1-.9-1.7-1.3-.5-.3-.9-.5-1.3-.7,0,0,.2-.3.6-.9,0,0,.1,0,.2,0ZM145.2,69.1c1,0,1.5,0,1.5.2,0,.2,0,.3-.2.3s-.2.1-.2.4v.9h5.2c.1,0,.1,0,.1.2v.6c0,.1,0,.2-.1.2h-3.4l.7.3c.2,0,.3.1.3.3s0,.1-.2.2c-.1,0-.2,0-.2.2-.2.5-.4,1-.6,1.4h2.4c.3,0,.4,0,.4.3v9.2c0,.3-.2.7-.6.9-.4.1-.9.3-1.4.3-.1,0-.2,0-.3-.2,0-.3-.1-.7-.5-1.3,0,0,0,0,.1,0,.6,0,.9,0,1-.1.1,0,.2-.2.2-.4v-7.4h-3.6v1.4h2.8c.1,0,.1,0,.1.3v.6c0,.1,0,.3-.1.3h-2.8v1.4h1.7c.2,0,.3,0,.3.3v3.4c0,.1-.1.2-.3.2h-3.8v.5c0,.1-.1.2-.3.2h-.7c-.1,0-.2,0-.2-.2v-4.1c0-.1,0-.3.2-.3h1.7v-1.4h-2.4c-.1,0-.1,0-.1-.3v-.6c0-.1,0-.3.1-.3h2.4v-1.4h-3.2v8.9c0,.1-.1.3-.3.3h-.7c-.2,0-.3,0-.3-.3v-9.7c0-.1.1-.3.3-.3h2.8c0,0,0-.2-.1-.3-.2-.5-.5-.9-.9-1.4,0,0,.3-.3,1-.6.3.5.7,1,.9,1.4.1.3.3.6.4.9h2.2c.3-.3.5-.7.6-.9.3-.4.4-.9.5-1.3h0c0,0-8,0-8,0-.1,0-.1,0-.1-.2v-.6c0-.1,0-.2.1-.2h5.2v-1.6c0-.3.1-.4.3-.4ZM143.9,82.2h2.8v-1.7h-2.8v1.7Z"/>
            <path class="cls-1" d="M156.1,72.8c1,.2,1.5.3,1.5.5s0,.3-.2.3c-.1.1-.3.3-.3.5-.1,1.3-.3,2.5-.5,3.4-.1.5-.3,1-.5,1.5,0,.1,0,.2-.1.2-.4-.1-.8-.2-1.1-.3-.1,0-.2,0-.2-.2.3-.7.5-1.4.7-2.2.2-.8.3-1.9.5-3.4,0-.2.1-.3.3-.3ZM158.1,69.1c1,0,1.5,0,1.5.2,0,.2,0,.3-.2.3s-.2.1-.2.4v16.9c0,.1-.1.2-.3.2h-.7c-.2,0-.3,0-.3-.2v-17.7c0,0,.1-.1.3-.1ZM160.6,72.7c.1,0,.2,0,.2,0,.4.9.7,1.9,1,2.9,0,.2,0,.3-.1.3-.5.3-.8.5-1.1.5-.3-1.3-.6-2.3-.9-3.1,0-.1.3-.3.9-.6ZM163.6,70.7l1.3.5c.1.1.2.2.2.3,0,.1,0,.2-.1.2-.1,0-.1,0-.2.3-.1.6-.2,1.1-.3,1.6h2.6v-4.1c0-.1.1-.2.3-.2,1,0,1.5,0,1.5.2,0,.2,0,.3-.2.3s-.2.1-.2.4v3.4h4.3c.1,0,.2.1.2.3v.6c0,.2,0,.3-.2.3h-4.3v4.5h3.8c.1,0,.2.1.2.3v.6c0,.2,0,.3-.2.3h-3.8v4.8h4.8c.1,0,.2.1.2.3v.6c0,.2,0,.3-.2.3h-11.3c-.1,0-.2,0-.2-.3v-.6c0-.2,0-.3.2-.3h5.1v-4.8h-3.8c-.1,0-.2-.1-.2-.3v-.6c0-.2,0-.3.2-.3h3.8v-4.5h-2.8c-.2.6-.4,1.2-.6,1.7-.2.5-.5,1-.7,1.4-.1,0-.3,0-.4,0-.3-.1-.5-.2-.7-.3,0,0-.1,0-.1-.1s0-.1,0-.1c.4-.6.7-1.4,1-2.4.2-.5.3-1.1.5-1.7s.3-1.4.4-2.4q0-.1,0-.1Z"/>
            <path class="cls-1" d="M177.4,69.5h6.5c.2,0,.3,0,.3.3v5.5c0,.1-.1.3-.3.3h-5.4v11.4c0,.1-.1.3-.3.3h-.7c-.2,0-.3,0-.3-.3v-17.1c0-.2.1-.3.3-.3ZM178.5,72h4.4v-1.3h-4.4v1.3ZM178.5,74.4h4.4v-1.3h-4.4v1.3ZM182.1,76.7l1.1.5c.2,0,.3.1.3.3s0,.1-.3.1-.4,0-.5.1c-.4.4-.7.7-1.1.9h6.9c-.1,0-.3-.2-.3-.3-.3-.3-.5-.6-.7-1,0,0,0,0,0-.1h-2.8c-.1,0-.2-.1-.2-.3v-.6c0-.1,0-.3.2-.3h3.6c.2,0,.3,0,.3.3,0,.3,0,.6.2.8.1.2.3.4.6.6.2.1.5.3.9.5.3,0,.6.1.9.2,0,0,.1,0,.1,0s0,0-.2.1c-.2.2-.4.5-.6.7,0,0-.2.1-.3.1-.3,0-.5-.1-.9-.3-.1,0-.2-.1-.3-.1v3.6c0,.1-.1.2-.3.2h-1.7v1.5c0,.5.3.7.9.7h.7c.1,0,.2,0,.3-.2s0-.4,0-.9,0-.1,0-.1c.3.2.7.3,1.1.3.1,0,.2,0,.2.2-.1.8-.3,1.3-.4,1.5-.1.2-.3.3-.6.3h-2.1c-1,0-1.5-.4-1.5-1.1v-2.3h-1.4c0,.3,0,.7,0,.9,0,.3-.2.7-.3,1-.1.3-.3.6-.7.9-.3.3-.7.5-1.1.7-.4.1-.8.3-1.3.3-.1,0-.2,0-.2-.2-.2-.2-.3-.5-.5-.7,0,0,0-.1,0-.2.7-.1,1.1-.2,1.5-.3.3-.1.5-.3.7-.4.2-.1.3-.3.5-.5.1-.2.2-.5.3-.7,0-.2,0-.4,0-.7h-1.4c-.2,0-.3,0-.3-.2v-3.6c-.1.1-.3.2-.5.3-.1,0-.3.1-.3.1s-.2,0-.3-.1c-.3-.1-.5-.2-.7-.3h-.1c0,0,0-.1.1-.2.6-.3,1.1-.6,1.4-.9.5-.3.8-.7,1-1,0-.1.1-.1.2-.1ZM187.7,81.6v-1.7h-4.8v1.7h4.8ZM186.6,69.5h6.5c.3,0,.4,0,.4.3v15.5c0,.7-.3,1.1-.7,1.5-.5.3-1,.5-1.7.5-.1,0-.2,0-.2-.2,0-.3-.2-.7-.5-1.3,0,0,0-.1.1-.1.8,0,1.3,0,1.4-.2s.3-.4.3-.7v-9.2h-5.5c-.2,0-.3,0-.3-.3v-5.5c0-.2,0-.3.3-.3ZM187.7,72h4.4v-1.3h-4.4v1.3ZM187.7,74.4h4.4v-1.3h-4.4v1.3Z"/>
            <path class="cls-1" d="M197.8,72.4h5.9c.1,0,.2.1.2.3v.6c0,.2,0,.3-.2.3h-5.9c-.1,0-.2-.1-.2-.3v-.6c0-.3,0-.3.2-.3ZM198.3,81h4.8c.2,0,.3,0,.3.2v5.3c0,.1-.1.2-.3.2h-.8c-.1,0-.2,0-.2-.2v-.6h-2.8v.9c0,.1-.1.3-.3.3h-.7c-.1,0-.2,0-.2-.3v-5.6c0-.1,0-.2.2-.2ZM198.7,69.5h4.3c.1,0,.2.1.2.3v.6c0,.2,0,.3-.2.3h-4.3c-.1,0-.2-.1-.2-.3v-.6c0-.2,0-.3.2-.3ZM198.7,75.2h4.3c.1,0,.2.1.2.3v.6c0,.2,0,.3-.2.3h-4.3c-.1,0-.2-.1-.2-.3v-.6c0-.3,0-.3.2-.3ZM198.7,77.9h4.3c.1,0,.2,0,.2.3v.6c0,.2,0,.3-.2.3h-4.3c-.1,0-.2,0-.2-.3v-.6c0-.1,0-.3.2-.3ZM199.4,84.7h2.8v-2.6h-2.8v2.6ZM205.7,78.9h8.5c.2,0,.3,0,.3.2v5.8c0,.1-.1.2-.3.2h-1.8c.4.2.7.4,1,.6.4.2,1,.4,1.7.6.1,0,.1.1.1.1,0,.1-.3.4-.7.9h-.2c-1.5-.6-2.6-1.1-3.3-1.6,0,0-.1,0-.1-.1s.1-.2.4-.5h-2.9c.5.4.7.6.7.7s0,.1-.2.1c-.3,0-.4,0-.4,0-1,.6-2.1,1.1-3.2,1.5-.1,0-.3,0-.3-.1,0-.1-.2-.3-.4-.5,0,0-.1-.1-.1-.2s0,0,.1-.1c.6-.2,1.1-.4,1.5-.6.5-.2.9-.5,1.3-.8h-1.9c-.2,0-.3,0-.3-.2v-5.8c.1-.2.2-.3.5-.3ZM204.8,70.4h4.4v-1c0-.1,0-.1.2-.1.9,0,1.4,0,1.4.2s0,.3-.1.3c-.1,0-.1.1-.1.3v.3h4.4c.1,0,.1,0,.1.3v.5c0,.2,0,.3-.1.3h-4.4v.9h3.6c.1,0,.1,0,.1.2v.5c0,.2,0,.3-.1.3h-8.6c-.1,0-.1-.1-.1-.3v-.5c0-.1,0-.2.1-.2h3.7v-.9h-4.4c-.1,0-.1-.1-.1-.3v-.5c0-.2,0-.3,0-.3ZM204.9,74.1h9.9c.2,0,.3,0,.3.2v3.6c0,.1-.1.2-.3.2h-9.9c-.2,0-.3,0-.3-.2v-3.6c0-.1.1-.2.3-.2ZM207.5,77.3v-2.4h-1.7v2.4h1.7ZM206.6,80.8h6.5v-.9h-6.5v.9ZM206.6,82.6h6.5v-.9h-6.5v.9ZM213.2,84.3v-.9h-6.5v.9h6.5ZM210.7,77.3v-2.4h-1.8v2.4h1.8ZM213.9,77.3v-2.4h-1.9v2.4h1.9Z"/>
          </g>
          <path class="cls-6" d="M290.1,50.2h7.8l-.8,3.9h-7.8l.8-3.9Z"/>
        </g>
      </g>
    </g>
  </g>
</svg>