<?xml version="1.0" encoding="UTF-8"?>
<svg xmlns="http://www.w3.org/2000/svg" version="1.1" viewBox="0 0 990.9 171">
  <defs>
    <style>
      .cls-1, .cls-2 {
        fill: #231815;
      }

      .cls-3 {
        fill: #fff;
      }

      .cls-4 {
        fill: none;
      }

      .cls-2 {
        fill-rule: evenodd;
      }

      .cls-5 {
        fill: #90242a;
      }
    </style>
  </defs>
  <!-- Generator: Adobe Illustrator 28.7.9, SVG Export Plug-In . SVG Version: 1.2.0 Build 218)  -->
  <g>
    <g id="_圖層_1" data-name="圖層_1">
      <g>
        <g>
          <g>
            <path class="cls-1" d="M213.9,162.2h0v-17.6h4.7v25.7h-5.9l-6.3-18h0v18h-4.7v-25.7h6l6.3,17.6Z"/>
            <path class="cls-1" d="M240.6,144.6l6.8,25.7h-5.4l-1.2-5.4h-6.8l-1.2,5.4h-5.4l6.8-25.7h6.4ZM239.9,160.6l-2.5-11.5h0l-2.5,11.5h5Z"/>
            <path class="cls-1" d="M269,148.8h-5.6v21.4h-5.2v-21.4h-5.6v-4.2h16.4v4.2Z"/>
            <path class="cls-1" d="M278.3,144.6h5.2v25.7h-5.2v-25.7Z"/>
            <path class="cls-1" d="M293.9,152.1c.2-1.6.6-3.1,1.2-4.2.6-1.2,1.5-2.1,2.6-2.8,1.1-.7,2.7-1,4.6-1s3.5.3,4.6,1c1.1.7,2,1.6,2.6,2.8.6,1.2,1,2.6,1.2,4.2.2,1.6.3,3.4.3,5.4s0,3.8-.3,5.4c-.2,1.6-.6,3-1.2,4.2-.6,1.2-1.5,2.1-2.6,2.7-1.2.6-2.7.9-4.6.9s-3.5-.3-4.6-.9c-1.2-.6-2-1.5-2.6-2.7-.6-1.2-1-2.6-1.2-4.2-.2-1.6-.3-3.4-.3-5.4s0-3.7.3-5.4ZM299,161.8c0,1.2.3,2.2.5,2.9.3.8.6,1.3,1.1,1.7.5.3,1.1.5,1.9.5s1.4-.2,1.9-.5c.5-.3.8-.9,1.1-1.7.3-.8.4-1.7.5-2.9,0-1.2.1-2.7.1-4.4s0-3.2-.1-4.4c0-1.2-.3-2.2-.5-2.9-.3-.8-.6-1.3-1.1-1.7-.5-.3-1.1-.5-1.9-.5s-1.4.2-1.9.5c-.5.3-.8.9-1.1,1.7-.3.8-.4,1.8-.5,2.9,0,1.2-.1,2.7-.1,4.4s0,3.2.1,4.4Z"/>
            <path class="cls-1" d="M333.2,162.2h0v-17.6h4.7v25.7h-5.9l-6.3-18h0v18h-4.7v-25.7h6l6.3,17.6Z"/>
            <path class="cls-1" d="M359.9,144.6l6.8,25.7h-5.4l-1.2-5.4h-6.8l-1.2,5.4h-5.4l6.8-25.7h6.4ZM359.2,160.6l-2.5-11.5h0l-2.5,11.5h5Z"/>
            <path class="cls-1" d="M375.3,144.6h5.2v21.4h9.2v4.2h-14.3v-25.7Z"/>
            <path class="cls-1" d="M427.9,148.8h-5.6v21.4h-5.2v-21.4h-5.6v-4.2h16.4v4.2Z"/>
            <path class="cls-1" d="M446.3,144.6l6.8,25.7h-5.4l-1.2-5.4h-6.8l-1.2,5.4h-5.4l6.8-25.7h6.4ZM445.7,160.6l-2.5-11.5h0l-2.5,11.5h5Z"/>
            <path class="cls-1" d="M462,144.6h5.2v25.7h-5.2v-25.7Z"/>
            <path class="cls-1" d="M481.3,144.6l2.8,19h0l3-19h5l3,19h0l2.8-19h5l-4.7,25.7h-5.8l-2.9-18.6h0l-2.9,18.6h-5.8l-4.7-25.7h5Z"/>
            <path class="cls-1" d="M522.7,144.6l6.8,25.7h-5.4l-1.2-5.4h-6.8l-1.2,5.4h-5.4l6.8-25.7h6.4ZM522.1,160.6l-2.5-11.5h0l-2.5,11.5h5Z"/>
            <path class="cls-1" d="M550.4,162.2h0v-17.6h4.7v25.7h-5.9l-6.3-18h0v18h-4.7v-25.7h6l6.3,17.6Z"/>
            <path class="cls-1" d="M593.3,162.2h0v-17.6h4.7v25.7h-5.9l-6.3-18h0v18h-4.7v-25.7h6l6.3,17.6Z"/>
            <path class="cls-1" d="M608.3,152.1c.2-1.6.6-3.1,1.2-4.2.6-1.2,1.5-2.1,2.6-2.8,1.1-.7,2.7-1,4.6-1s3.5.3,4.6,1c1.1.7,2,1.6,2.6,2.8.6,1.2,1,2.6,1.2,4.2.2,1.6.3,3.4.3,5.4s0,3.8-.3,5.4c-.2,1.6-.6,3-1.2,4.2-.6,1.2-1.5,2.1-2.6,2.7-1.2.6-2.7.9-4.6.9s-3.5-.3-4.6-.9c-1.2-.6-2-1.5-2.6-2.7-.6-1.2-1-2.6-1.2-4.2-.2-1.6-.3-3.4-.3-5.4s0-3.7.3-5.4ZM613.3,161.8c0,1.2.3,2.2.5,2.9.3.8.6,1.3,1.1,1.7.5.3,1.1.5,1.9.5s1.4-.2,1.9-.5c.5-.3.8-.9,1.1-1.7.3-.8.4-1.7.5-2.9,0-1.2.1-2.7.1-4.4s0-3.2-.1-4.4c0-1.2-.3-2.2-.5-2.9-.3-.8-.6-1.3-1.1-1.7-.5-.3-1.1-.5-1.9-.5s-1.4.2-1.9.5c-.5.3-.8.9-1.1,1.7-.3.8-.4,1.8-.5,2.9,0,1.2-.1,2.7-.1,4.4s0,3.2.1,4.4Z"/>
            <path class="cls-1" d="M644.9,144.6c2.2,0,3.8.5,5,1.6,1.2,1.1,1.8,2.8,1.8,5s-.3,3.1-1,4.2c-.7,1.1-1.8,1.8-3.2,2.1h0c1.3.3,2.2.7,2.8,1.3.6.6,1,1.7,1.1,3.1,0,.5,0,1,.1,1.6,0,.6,0,1.2,0,1.9,0,1.4.1,2.4.2,3.1.1.7.5,1.2.9,1.5v.2h-5.6c-.3-.4-.4-.8-.5-1.2,0-.5-.1-1-.1-1.5v-4.9c-.2-1-.4-1.8-.9-2.4-.5-.6-1.2-.9-2.3-.9h-2.8v10.9h-5.2v-25.7h9.6ZM642.7,155.8c1.2,0,2.2-.3,2.9-.9.7-.6,1-1.6,1-3,0-2.4-1.2-3.6-3.6-3.6h-2.4v7.4h2.2Z"/>
            <path class="cls-1" d="M670,144.6l3.7,18.1h0l3.7-18.1h7.7v25.7h-4.7v-20.5h0l-4.6,20.5h-4l-4.6-20.5h0v20.5h-4.7v-25.7h7.7Z"/>
            <path class="cls-1" d="M707,144.6l6.8,25.7h-5.4l-1.2-5.4h-6.8l-1.2,5.4h-5.4l6.8-25.7h6.4ZM706.3,160.6l-2.5-11.5h0l-2.5,11.5h5Z"/>
            <path class="cls-1" d="M722.4,144.6h5.2v21.4h9.2v4.2h-14.3v-25.7Z"/>
            <path class="cls-1" d="M766.2,162.5c0,.6,0,1.2.1,1.8,0,.5.2,1,.5,1.4s.5.7.9.9c.4.2.9.3,1.5.3s1.1-.1,1.5-.3c.4-.2.7-.5.9-.9.2-.4.4-.9.5-1.4,0-.5.1-1.1.1-1.8v-17.9h5.2v17.9c0,1.6-.2,3-.7,4-.5,1.1-1.1,1.9-1.8,2.5-.8.6-1.6,1-2.6,1.3-1,.2-2,.3-3.1.3s-2.1,0-3.1-.3c-1-.2-1.9-.6-2.6-1.2-.8-.6-1.4-1.4-1.8-2.5-.5-1.1-.7-2.5-.7-4.2v-17.9h5.2v17.9Z"/>
            <path class="cls-1" d="M799.8,162.2h0v-17.6h4.7v25.7h-5.9l-6.3-18h0v18h-4.7v-25.7h6l6.3,17.6Z"/>
            <path class="cls-1" d="M815.3,144.6h5.2v25.7h-5.2v-25.7Z"/>
            <path class="cls-1" d="M838.6,163.6h.1l3.8-19h5.4l-5.9,25.7h-6.7l-5.9-25.7h5.5l3.6,19Z"/>
            <path class="cls-1" d="M870.9,148.8h-9.2v6h8.6v4.2h-8.6v6.9h9.5v4.2h-14.7v-25.7h14.3v4.2Z"/>
            <path class="cls-1" d="M890.3,144.6c2.2,0,3.8.5,5,1.6,1.2,1.1,1.8,2.8,1.8,5s-.3,3.1-1,4.2c-.7,1.1-1.8,1.8-3.2,2.1h0c1.3.3,2.2.7,2.8,1.3.6.6,1,1.7,1.1,3.1,0,.5,0,1,.1,1.6,0,.6,0,1.2,0,1.9,0,1.4.1,2.4.2,3.1.1.7.5,1.2.9,1.5v.2h-5.6c-.3-.4-.4-.8-.5-1.2,0-.5-.1-1-.1-1.5v-4.9c-.2-1-.4-1.8-.9-2.4-.5-.6-1.2-.9-2.3-.9h-2.8v10.9h-5.2v-25.7h9.6ZM888,155.8c1.2,0,2.2-.3,2.9-.9.7-.6,1-1.6,1-3,0-2.4-1.2-3.6-3.6-3.6h-2.4v7.4h2.2Z"/>
            <path class="cls-1" d="M911.7,163c0,.6,0,1.1.1,1.6,0,.5.3.9.5,1.2.3.3.6.6,1.1.8.4.2,1,.3,1.7.3s1.5-.3,2.1-.8c.6-.5,1-1.3,1-2.4s0-1.1-.2-1.5c-.2-.4-.4-.8-.8-1.1-.4-.3-.8-.6-1.4-.9-.6-.3-1.3-.6-2.2-.8-1.1-.4-2.1-.8-3-1.3-.8-.5-1.5-1-2.1-1.6-.6-.6-1-1.3-1.2-2.1-.3-.8-.4-1.7-.4-2.8,0-2.5.7-4.4,2.1-5.7,1.4-1.2,3.4-1.9,5.8-1.9s2.2.1,3.2.4c1,.3,1.8.7,2.5,1.2.7.6,1.3,1.3,1.7,2.2.4.9.6,1.9.6,3.1v.7h-5c0-1.2-.2-2.2-.6-2.8-.4-.7-1.2-1-2.2-1s-1.1,0-1.4.3c-.4.2-.7.4-.9.7-.2.3-.4.6-.5,1,0,.4-.1.7-.1,1.1,0,.8.2,1.5.5,2,.3.5,1.1,1,2.2,1.5l4,1.7c1,.4,1.8.9,2.4,1.3.6.5,1.1,1,1.5,1.5.4.5.6,1.1.8,1.8.1.6.2,1.4.2,2.2,0,2.7-.8,4.7-2.4,5.9-1.6,1.2-3.8,1.9-6.6,1.9s-5-.6-6.3-1.9c-1.3-1.3-1.9-3.1-1.9-5.5v-1h5.2v.8Z"/>
            <path class="cls-1" d="M933.2,144.6h5.2v25.7h-5.2v-25.7Z"/>
            <path class="cls-1" d="M964.1,148.8h-5.6v21.4h-5.2v-21.4h-5.6v-4.2h16.4v4.2Z"/>
            <path class="cls-1" d="M980.7,154.5h0l3.6-9.9h5.6l-6.7,15.6v10.1h-5.2v-10.1l-6.7-15.6h5.8l3.4,9.9Z"/>
          </g>
          <g>
            <path class="cls-2" d="M284.1,109.3c-.2-3.7-.6-7.5-1.4-11.2-.8-3.3-.9-6.8-.8-10.2,0-.9.2-2.4-.5-3.1-.4-.4-.6-.1-.8-.7-2.3-6.9,1.5-12.4,2-19.3.3-3.8-.9-7.7-1.1-11.5-.2-3.4.9-6.7,1-10.1,0-2.8-1.4-5.5-1.3-8.3,0-.5.1-1.1,0-1.6-.4-2.4-6.2-3.9-8.1-4.6-.4-.1-.7-.2-1.1-.4-.4-.1-.9-.3-1.3-.4-.3,0-.7,0-1-.1-.8-.1-1.6-.5-2.5-.7-1.9-.5-3.9,0-5.8.2-2.1.2-2.8-.2-4.4-1.3-1.3-1-3.5-.4-5-.5-.9,0-1.8-.2-2.7,0-.8.2-1.4.7-2.1.9-.8.2-1.3-.3-2.1-.2-2,.1-4-.9-6.3-1-4.2,0-8.4-.1-12.6-.2-.9,0-2.1.1-2.4,1-.3.8.4,1.6,1,2.1,3.1,2.8,6.8,4.8,10.8,5.8,2.4.6,5,.9,7.4.3,2.6-.6,5.1-2,7.7-1.6.9.2,1.9.6,2.8.3.5-.2.9-.6,1.4-1,3.6-2.5,10.7.5,12.5,4.1.4.8.6,1.6.8,2.4.5,1.5,1,3.1,1.6,4.6.1.3.2.6.3.9.1.3.2.7.4,1,.2.4.6.7.9,1.1.6.9.6,2,.6,3,0,7.1-.5,14-.4,21,0,2.7,0,5.5,0,8.2,0,5.5,0,11-.3,16.5-.1,2.5-.3,4.9-.5,7.4,0,1.4-.5,3.2-2.4,2.6-.9-.3-1.6-1.1-2.3-1.7-.4-.3-.8-.6-1.1-1-.4-.6-.4-1.4-.3-2.1.1-.7.3-1.4.2-2.1-.1-.7-.6-1.4-1.3-1.5.2-2.3-2.7-4.2-3.5-6.2-.6-1.4-.5-3.2-.4-4.7,0-1.1-.3-3.7.8-4.5.4-.3.9-.2,1.2-.5.3-.4.4-.9.4-1.4,0-.5,0-1.1.1-1.6.2-.6.6-.9,1.1-1.4,1.1-1.2.7-3.1.6-4.6-.3-3.3-.4-6.6,0-9.9.2-1.4,0-2.4-1.4-3-1.5-.7-2.5-1.7-3.4-3-.8-1.2-1.4-2.5-2.1-3.8-.5-1-1.3-2.6-.4-3.5.5-.5,1-.6,1.2-1.4.2-.7,0-1.6,0-2.3-.1-1.6-.4-3.1-.7-4.6-.3-1.2-.6-2.7-1.9-3-1.7-.4-4.7-.2-6.3.5-.7.3-1.2.9-1.3,1.6,0,.8.5,1.8,0,2.4-.2.3-.6.4-.9.5-2.3.8-4,1.1-6.4,1.1-1.5,0-3,0-4.4.7-1.3.7-2.3,2-3.5,2.9-1.2.9-2.6,1.5-4,1.9-.7.2-1.6.6-2.2,0-.3-.3-.5-.6-.9-.7-.3,0-.7,0-1-.1-.4-.1-.7-.6-.9-1-1.9-2.9-7.9-3.6-8.6.8,0,.6.2,1.2,0,1.7-.6,1.2-1.1,1.1-.8,2.6.2,1,.9,2.1,1.7,2.8,1.1,1.1,2.4,2,3.6,3,1.2,1,2.6,1.8,2.6,3.5,0,1.9-1.1,3.4-1.9,5-.5,1.1-.6,2.9-1.6,3.7-.3.2-.6.3-.8.5-.2.3-.2.7-.3,1,0,1.1.1,2.4-.1,3.4-.2.8-.7,1.4-1,2.1-.5,1.2-.3,3.3.5,4.3.7.9,2.1.3,2.9,0,2.3-.9,4.6-3.7,7.2-3.4.4,1.7-.3,3.7-1.4,5-1.1,1.3-2.2,2.4-3,4-.4.8-.8,1.6-1.1,2.4-.3.9-.2,1.8-.3,2.8-.1.8-.6,1.4-.9,2.1-.4.9-.3,1.7.1,2.6.6,1.3,1.7,2.3,1.8,3.8,2.5.5,6.3-4,8.2-5.5,2.8-2.3,5.7-4.7,9.2-6.1.6-.2,7.4-2.5,7.4-2.1.5,2.8-1.7,6.2-3,8.5-1.5,2.5-3.3,4.8-5.5,6.9-1.1,1.1-2.3,2.2-3.6,3-.7.4-1.2.5-1.9.5-.6,0-.9,0-1.3.5-.7.9-.7,1.8-1.8,2.3-2.5,1.1-5.2.3-7.6,1.9-.7-.9-2-.9-3.2-.9-2.1,0-4.2-1.4-5-3.4-.5-1.4-.2-3.1-.2-4.5,0-3.7,0-7.4.1-11.1,0-2.6.2-5.1.2-7.7,0-1.4.6-5-.8-6.1-.2-.1-.4-.2-.5-.4-.1-.2-.2-.5-.2-.7-.3-6.3,1.4-13.4-1.7-19.3-.6-1.2-1.5-2.6-2.7-3.2-.8-.4-2.3-.7-2.5.4-.5,2.6-.2,5.5.5,8,.3,1.3,1.6,3.2,1.4,4.5,0,.4-.3.8-.5,1.1-1,1.9-.2,4.1-.1,6.3,0,1.4-.2,2.9-.4,4.3-.8,4.5-1.6,9.1-3.1,13.4-1.5,4.2-1.9,7.3-1.2,11.7.6,3.4,1,6.9,2.3,10,1,2.4,2.8,4.1,5.5,4.3,3.6.3,7.1-.9,10.7-1.2,3.6-.3,6.9-.7,10.3-2.1,1.7-.7,3.3-1.2,5.1-1.3,2.9,0,5-.6,7.8-1.4,1.8-.5,3.7-.7,5.6-.4,1.1.2,2.3.5,3.4,0,.3-.1.6-.3.9-.5,1-.5,2.2-.2,3.3,0,2.3.6,4.7.7,6.5,2.4,1.6,1.5,2.2,3.9,3.4,5.8.2.4.5.7.7,1.1,1,1.5,2,3.1,2.8,4.7.5.9,1,1.9,1.7,2.6.7.7,1.8,1.2,2.8,1,.8-.2,1.5-.9,2.2-1.3.5-.3,1.2-.4,1.6-.7.4-.3.7-.7,1-1.1.5-.7.9-1.2,1.2-1.8.6-1,1.1-2,1.2-3.3.2-1.8,1-3.3,1.5-4.9.6-1.7.6-3.6.5-5.4ZM243.7,77.4c-.6.8-.3.9-1.2,1.5-1.1.7-1.8,1.1-2.8,2-.2.2,0,.5-.3.7-.3.2-.8,0-1.1,0-.4.2-.5.5-.7.6-1.1.7-2.5.5-3.8.3.2-1.4,1.6-3,2.6-4,1.1-1.1,2.9-1.4,3.9-2.7.7-.8.3-1.7.3-2.7,0-1.7.4-2.5-1.5-2.9-.5-.1-1.1-.3-1.6-.4-1.1-.2-2.1-.5-3.2-.7-2.5-.5-5.1-.6-7.7-.6-.2,0,1.6-4.6,1.9-5,1-1.6,2.3-3,3.8-4.2,1-.8,2.6-2.5,3.9-2.3.3,0,.6.2.9.4,3.2,1.9,4.2,6.2,5.7,9.4,1.5,3.2,3.2,7.3.9,10.5ZM255.4,97.3c0,1.3,0,2.8-.9,3.9-.6.7-1.3.6-2.1.6-.9,0-3,.4-3.5-.4,0,0,0-.1-.1-.2-.3-1.1.9-2.9,1.6-3.7.3-.3,2.2-2.9,2.4-2.9h2c1,0,.8,2.2.8,2.7ZM256.6,66.2c-.1.7-.9,1-1.4,1.6-1.4,1.7-3.6.8-4.8-.6-1.1-1.4-1.7-3.1-2.5-4.7-.9-1.7-1.8-3.4-2.5-5.2-.3-.7-.5-1.4-.6-2.1-.2-1,2.1-2.2,2.9-2.5.6-.2,1.2-.2,2-.2,1.2,0,2.4,0,3.7,0,.8,0,1.2,0,1.7.7.2.3.4.5.6.7.4.4.8.4,1,.9.3,1.1,0,2.5,0,3.6s0,3.8.2,4c.1,0,0,2.9-.2,3.7Z"/>
            <g>
              <path class="cls-2" d="M331,40.2c.8,1,1.7,2,2.3,3.1,1.1,2,.4,3.9,2.9,4.5.9.2,1.4.6,2.2,1,2.7,1.3,6.6.4,9.5-.1.2,0,.4,0,.5-.2,0,0,0,0,0,0,1.7-1.5-1.6-6.6-2.8-7.5-1.1-.8-2.4-1.3-3.4-2.2-1.2-1.1-1.9-2.5-3.7-2.8-3.4-.6-6.5-2.5-9.8-3.3-.3.6-.9,1.3-1,1.9,0,.7.4,1.4.7,2,.7,1.3,1.6,2.5,2.6,3.6Z"/>
              <path class="cls-2" d="M378.6,108.4c-.8-1-1.9-1.6-3-2.1-6.1-3-13-4.2-19.8-3.5-1.5.2-3.6,0-3.8-1.5-.1-1,.7-1.8,1.4-2.4,5.1-4.7,8.6-11,9.8-17.8.5-2.5.5-5.2-.9-7.2-1.2-1.6-3.3-2.5-5.4-2.6-2,0-4.1.5-6,1.1-1,.3-2,.7-2.8,1.4-1.1.9-1.8,2.1-2.6,3.3-2.6,3.8-6.5,6.6-10.3,9.3-1.2.8-2.4,1.7-3.9,1.9-1.4.2-3.1-.5-3.5-1.9-.3-1.2.3-2.4,1-3.4,1.2-2,2.5-4.1,3.7-6.1,2.3-3.8,4.7-7.7,8.3-10.2,2.8-1.9,6.1-2.8,9.3-4,2.7-1.1,5.2-2.4,7.6-4,.7-.5,1.4-1,1.6-1.8.2-.6,0-1.2-.4-1.7-.4-.6-1.1-1-1.8-1.3-4-1.6-8.4.5-12.4,2.2-6.9,3-14.4,4.8-21.8,5.8-1.8.2-11.9,1.3-9.6,4.8.4.6,1,1,1.6,1.3,3.3,1.7,7.1,2.3,10.8,1.9,1.5-.2,3.6-.3,4.1,1.2.4,1-.2,2-.8,2.8-1.8,2.6-3.7,5.1-5.7,7.5-1,1.2-2.1,2.4-3.2,3.6-.8.8-1.6,1.6-2.4,2.4,0,0-.1.1-.1.2,0,.1,0,.3.2.4,1.8,2,2.6,4.4,3.6,6.8.9,2.1,2.1,4.2,4.4,5,1.6.5,3.4,0,5-.7,3.5-1.4,6.9-3.4,9.8-5.9,1.6-1.3,3.1-2.8,3.5-4.8.4-1.5,0-3.2.3-4.7.4-2.2,2.2-4.1,4.5-4.7.4,0,.9-.1,1.2.1.4.3.4.9.3,1.4-.8,7.2-6,13-11.1,18.1-5.2,5.3-11,10.7-18.3,12.1-1.3.2-2.6.4-3.7,1-1.1.7-2,2.1-1.5,3.3.3.7.9,1.2,1.6,1.6,2.3,1.5,5,3,7.7,2.6,1.2-.2,2.4-.7,3.6-1.1,2.7-.9,5.6-1.1,8.4-1.5,7.4-1.2,14.6-4.5,22.1-4,5.7.4,11.4,2.9,16.9,1.5,1.3-.3,2.6-.9,3.1-2.1.5-1.1.1-2.5-.7-3.4Z"/>
            </g>
            <path class="cls-2" d="M486.7,85.6c-.2,0-.3,1.4-2,1-3.1-.7-6-2.9-8.9-4.2-1.5-.7-3.4-1.7-5-1.8-1.4,0-2.6.9-3.1.9-.6,0-4.3,2.4-5,4.1-.7,1.8,0,5.3,0,7.2-.2,4.2-.4,8.8-1.8,12.8-.8,2.2-2.4,4.2-3,7-5.3,1.7-10.7,3.3-16,5h-1v-3c1-.3,2-.7,3-1,0-.3,1.3-1,2-1,0-.3,2-1,3-1,3.9-1.6,7-4.4,8-9,1.7-1.8,1.6-4,1.4-6.3,0-.6-1.3-4.1-1.3-3.9.5-3.5-4.7-4.7-6.1-6.9,0,0-1-1-1-1,1.4-1.5,6.8-4.6,5-9,0,0-1.7-1.4-2-2,3-2.7,6-5.3,9-8,1.9-2.6,2.3-5.2,5-7v-3c-2.3-.7-4.8-1.6-6.9-2.3-1.8-.5-3.7-.3-5.5-.8-2.3-.6-4.3-2.2-6.7-2.4-.8,0-6.7.3-6.8.5,2.4-4.1,7.9-8.7,12-11-.1-4.4-1.2-5.5-4-7v-8c2.7-1.3,5.3-2.7,8-4v-2c1.1-1.1.4,0,1-2-2.3-1.2-4.7-2.5-8-3,0-.1-.9-1.9-1.9-3.5-1.6-2.5-3-2.1-5.3-.6-.8.5-4.2,2.2-1.8,3,2.4.8.4,6.8-.8,8.3-.7.9-8.3,4-8.3,2.8v3c3,.3,6,.7,9,1v8c-4.5,0-5.5.7-8,2-.3.2-.1,3.8.2,4.2.8.9,2.6.8,3.6.6,0,.2.4,2.1.2,2.2-3,.7-3.8,1.8-6,3-.2,9.3,3,9.4,10,9,1.7-.1-3.4,3.5-2.9,3.1-1.1.8-12.5,8-14.3,9.2-.8.5-2.5,1.3-3.3,1.7-.9.5-2.8,1.2-3.7,1.8-2.4,1.7-5.4,3.3-7.6,4.9-1,.7-1.5,1.8-2.5,2.5-1.8,1.3-4.4,2.5-6.6,2.7.3-2.5-1.7-3-.3-6.1,1-2.3,3.1-4.6,5.2-5.8v-1c-3.4.8-11.3,4.5-13,7-1.1,1.6,0,2.3-2,4,0,6.7,1.2,8.9,3,13,.7.3,5.7,2.2,5.9,1.9.6-1.1,2.9-1.4,4.1-2.4,3.7-2.8,6.7-6.6,10.2-9.5,1.1-.9,2.2-.7,3.3-1.6,2-1.7,3.1-3.7,5.1-4.8,1.9-1,3.7-2.2,5.4-3.6,1.3-1.1,4.3-2.3,5.1-3.9,1.1-2.2,10.7-6.2,12.3-7,2.5-1.4,5.6-2.7,8.4-2.8.2,2.6-2.7,3.8-3.6,6-2.5,5.7-10.5,7.4-13.2,7.8-.2.1-3.6,2.4-2,9,2-.3,4-.7,6-1,.3-.7.7-1.3,1-2,1,0,3-.7,3-1h1c-1,3.7-3.8,4.7-7,6v5c.3,0,1,.7,1,1,1.7-.3,3.3-.7,5-1,4.5-.9,7.6,7,7.9,7.1.1,1.9-1.3,5.7-2.9,6.9-1.1.8-.2-.1-1,1h-1v-3c.3,0,2.3-4.7-2-8-.3,0-4.4.2-4.4-.2,0-.3-3.2.2-4.6.2-2.3,2-4.6,4-7,6-1.1,1.7,0,2.3-2,4-.1,6,1.3,8,5,10-1.4,5.1-2.4,2-6,4-.3.2-.9,1.5-2,2,.3,4.2,1.3,4.7,2,8,4.5,0,8.9-.4,13.1-1.8,1.2-.4,10.5-2.6,10.8-3.3,1.4-3.9,21.4-2,21.1-4.9-1-9.3-2-18.7-3-28,6.6.5,8.2,3.6,13,5,2.3-.3,4.7-.7,7-1,1-2.3,2-4.7,3-7-1.3-.5-1.7-1.4-4-1ZM438.4,105.6c-.8,1.4-1.8,3.7-3.7,2.9-2-.8-.8-5,0-6.5.5-1.1,1.3-2.1,2-3,.2-.3.6-1.2,1.1-1.3.8-.2,2,1,2.9,1-.9,2.3-1,4.9-2.2,7Z"/>
            <g>
              <path class="cls-2" d="M540.7,66.6c.4,1,.7,2,1,3,.1.4,3.6-.5,4-.7,1.4-.7,1.6-1.8,1.6-3.2,0-.7,0-1.5,0-2.2.1-1.1.8-1.8,1.2-2.8.1-.3,0-.9.2-1.2.3-.2,1.1,0,1.4.1,1,.3,1.8.9,2.7,1.4.5.3,2.7,2.4,3,2.5,1.2,0,2.5.1,3.7.1.8-2.7,1.3-4.3.5-7.2-.2-1-1.5-5.6-2.4-5.9-2-.7-4-1.3-6-2,0,0-1.9.2-3-1,2.3-.9,3.9-1.8,7-2,.2-.9,0-9,0-9,0,0,1.7-1.1,1-3-.7-.3-1.3-.7-2-1v-2h3v-3c-3.1-1.2-6.3-1.4-8-4-6.6-.2-7.2.4-8,6-7.7,1.4-8.7,1.9-16,2-.6,1.6-1.8,5.1-1,8h1c1.6,5.9-3.4,12.9-6,15,0,2.8-.5,6.6,1,8,1.2,1.1,1.2-.7,3,2,7.4-.4,6.7-6.8,6.7-12.4,0-1.9,1-16.3-1.7-16.6,3.3.3,6.7.7,10,1,.3,1.7,2.1,4.5,1,7-1,.7-2,1.3-3,2-.9,1-.8,2.1-2,3v1h4c-.3,6.4-2.4,13.2,2,17Z"/>
              <path class="cls-2" d="M574.6,41.3c-1.1-1.9-2-4-2.1-6.2,0-1.5.2-3,.2-4.5,0,0-1.6-1.3-2-2h-4c-.8,7.2-3,13.1-3,21,3.6,0,6.3-.2,8-2,2.4-.6,2.2-1.1,4-2,1.3-.7-.7-3.5-1.1-4.2Z"/>
              <path class="cls-2" d="M504.7,52.8c.8,1.4.3,3.7.2,5.2,0,.9-.2,1.8,0,2.6.1.6.8,1.6.8,2,0,.6,0,1.2.1,1.8,2-.8,4.5-2.3,5.7-4,.7-.9,1.3-2.1,1.6-3.1.5-1.6,0-1.4-.3-2.7-.4-1.4,0-1.8-1.1-2.9-.6-.7-1.5-1.5-2.1-2.3-.4-.5-2.4-3.7-3-3.7h-3c-1.1,1.1,0,.4-2,1,.5,1.4.8,3.1,1.5,4.4.4.8,1.2,1.1,1.6,1.8Z"/>
              <path class="cls-2" d="M525.1,70.1c-.4.4-.7.9-1,1.7-.8,2.3-2,4.5-3.6,6.4-1,1.1-2.2,2-3.4,2.9-.2.2-2.7,2.4-2.5,2.5-2.9-.1-5.7-5.8-6.9-8-.8-1.3-.8-4.3-2-5h-2c.5,3,.4,6.1.9,9.1.5,2.4-.5,4-.4,6.3,0,2.4.6,4.3-.5,6.5-.9,1.9-2.5,3.5-2.6,5.7,0,1.5,0,3,.3,4.5.4,2.4,1.3,9.7,5.1,8.5,3.3-1,1.9-3.5,2.6-6,.3-1.1,1.2-1.8,1.5-2.8.4-1.3.4-2.2,1.1-3.3,1.3-2.1,2.3-4.4,3.7-6.5.6-1,.6-2.1,1.1-3.2.5-1.2,1-1.6,2.1-2.4,1.6-1.2,3.2-3.7,4.3-5.3.5-.8.9-1.8,1.6-2.6.6-.7,1.6-1,2.2-1.7.5-.6.6-1.6.8-2.3.5-1.9,1.1-3.8,1.2-5.7-1.6-.2-2.7-.2-3.5.5Z"/>
              <path class="cls-2" d="M541.8,82.6c3,.1,4.4,3.9,7.7,3,1.5-.4,3-1.2,4.3-2.1,2.5-1.6,4.9-4.1,7.8-4.9.6-2-.1-.9,1-2,0-2.9-.4-4.3-1-6-9.9.3-16.1,5.4-23,9,0,0,3.1,2.7,3.1,3Z"/>
              <path class="cls-2" d="M567.7,89.6c-5.8,0-13.2.2-16,3-3.7-.4-4.6-1.5-6-4-1.7.3-3.3.7-5,1,.4,2.7.7,5.3,1,8,1.1.9.2-.1,1,1,.7.9,5.9-2.3,6.6-2.8,1.8-1.4,3-1.3,5.3-1.3.1-2,7.2-.6,7.2,0-.2,2.5-.4,5-.6,7.5,0,1.3.2,2.6-.1,3.8-.4,1.5-2.9,6.4-4.6,6.9-3,.9-6.7.8-9.7.8.5,4.9,2.6,7.1,3,12,.7,0,2,.7,2,1,.8,0,6.4-2.4,7-3,1.4-.3,2.5-.9,3.4-1.9,1.4-1.5,1.7-2.2,2.5-4,1.1-2.6,2.7-4.8,3.5-7.6.6-2.1.9-4.4,1.5-6.5.2-3.8,1.9-8,0-10-.6-2.4-1-2.2-2-4Z"/>
            </g>
            <path class="cls-2" d="M676.8,63.6c-.1-.2-2.3-1.9-3-3,0,0-7.9-.9-8.4-.8-2.9.3-8,2.5-10.2-.6-1-1.4-.3-3.3-1.4-4.8-.9-1.3-2.8-1.4-3.6-2.8-.3-.5-.7-3.9-.4-4,5.3-1,14.5-3.3,17-7,.3,0,1-.7,1-1-1.8-1-3-2.2-4-4-11.7.4-17.3,6-29,6v3c1.7.3,3.3.7,5,1,3,5,6,10,9,15-.6,2.3-.7,3.3-2.9,4.2-.3.1-4.7,1.4-4.5,1.6-.7-1-.4-1.9-.6-3.1-.2-1.8-.5-2.2-1.1-3.6-.2-.2-.4-.2-.6-.1-.5,1.4-1.8,2.2-2.4,3.7-.7,1.9-1,3.3-1.9,4.8-.2.3-1.2,3.6-1.1,3.5-2.3,2-4.7,4-7,6-.9.7-3.9.1-4.1-.9-2.9.2,1.7-5.3,2.2-6,1.9-2.6,2.8-4.5,2-7.6-.3-1.2-1.3-5.5-3.1-5.5h-3c-1.4-4.3,1.3-3.9,2.9-7.4.3-.6.6-7.6.9-7.5,2,.2,1.9-4.7,2.1-6.1-1.9-.1-10-1.1-11-2-4.3.2-3.4.6-6,2,1.7,2.9,4.1,3.4,8,4,0,6.8-1.7,8.7-4,13h-3c-2,0-2.8-5.5-3.8-6.7-.4-.5-4.1-4.3-4.6-4.2-1.4.1-4.5,0-5.7.9.4,3.2,1.4,5,3,7,.7.3,1.3.7,2,1,.7.3.5,7.9.6,9.1.1,1.7-.5,6.5,1.3,7.1,1.9.6-.4,13.8-1,13.8-2,0-1.4,5.8-1.9,7.1-.6,1.5-1.9,2.7-2.2,4.4-.6,2.8,3.4,9,4.9,11.2.8,1.3,1.2,3.4,3.2,3.4,3.9-.2,5.6-6.1,8.2-7.9,1.1-.8,2.8-.4,3.9-1.1,1.4-.9,5.4-5.5,5.1-6.8,3.7-.3,2.2-8.6,6.3-6.2.9.6,3.6,7,3.6,7,4.6-.3,4.3-1.4,7-3,.6-.4-.6-11.1-1.9-11.1.1-2.1.3-4.9,1.8-6.3,1.3-1.2,3.8-.8,4.2-2.5,1.5.2,3.2.4,4,1.5,1.4,2,.1,4.2,0,5.5-.6,5.1,1.1,9.5,1.1,14.4,0,3.8-.2,7.6-.2,11.5s0,8.4-1.2,12.9c-1,4.1-.3,9.2,1.2,13.1.7,2,4.4-1.1,4.9-1.9.8-1.4,1.3-3.6,1.4-5.2.3-2.9-.3-5.9-.5-8.8-.3-2.8-.6-5.8-.3-8.7.2-2.2,1.4-4.3,1.5-6.3.2-3.8-.9-9.8,1-12v-1c2,1.3,4.8,3,6,5,4.6,0,6.2-.7,9-2,2-4.7,7.2-18.1,4-24ZM609.7,66.8c.5-1.1,4.7-3.6,5.8-3,.1,0,.2.2.4.3.3.2,1.1,2.3,1.2,2.8.9,3.6-3.4,8.3-6.4,9.7-1.9-1.7-2.1-7.5-1-9.7ZM615.4,91.2c-1.3,1.1-3.1,1.3-5.7.4,0-5.2.4-3.9,2-7,2.9,0,4.3.3,6,1-.3,2.5-1,4.5-2.3,5.6ZM663.7,80.6c-.5.8-4.7-.5-5.5-1-2.3-1.7-1.7-4.3-1.4-6.8,1.3-.4,1.3-8.3,2.9-8.1,3.5.4,8.8,2,9,6.3.1,3.6-3.3,6.9-5,9.7Z"/>
            <g>
              <path class="cls-2" d="M720.5,45.3c.3,0,.8,0,1,.3,0,0,1.5.9,2.1,1,0,.6.4,1.1.9,1.3,2,.7,4.3.2,6.4.1.6,0,2.5-.7,3-1,1.1-.6,2.3-.7,3.4-1,.6-.2,1.1-.4,1.5-.8.6-.5,4.1-1.5,4.9-2,.6-.4,1.4-2.6,1.9-2.6.7,0,8.8-1.2,8.9-.9.5,2.5,12.8.8,15.1,0-.2-2.4-.4-2.5-1-4h-10c.2,0,.8-4.3,1-5,0,0,0,0,0,0,.3-.3,2.4.2,2.9.2,1.3-.2,1.6-.9,2.5-1.1,1.8-.4,3.4,1.2,5.3.8.4,0,4.1-2,4.2-1.9,0-.5-.5-2.7-.9-2.8-2.4-.9-6.2-1.1-10-1-.2,0-1.6-4.4-1.9-5-.4-.6-.9-1.1-1.4-1.6-.6-.5-1.8-.8-2.4-1.3-.2-.2-2.9-.1-3.2-.1-4.3.2-3.4.6-6,2-.4.2,0,5.2,0,5.8,0,1.4.6,3.8-.2,5-.5.8-1.4.9-1.7,1.8-.8,1.9-2.3,3.2-3.1,5.1-.4,1-.4,3.1-1.9,3.3-6.3.7-12.7,1.3-19,2,.4-3.2.9-2.9,2-5,.2-.4,1.7-.7,2.1-.8.8-.3,1.6-.5,2.5-.7,1.7-.5,3.5-.9,5.3-1.2,1.8-.4,3.6-.7,5.4-1,.9-.1,1.5,0,1.7-.9.2-.6.2-1.7-.2-2.2-.4-.6-1.2-.5-1.8-.9-.4-.3-.6-1-1-1.3-.9-.6-2.7-.1-3.7,0-1.3,0-2.6.1-3.9,0-1.5,0-1.1-.4-1.7-1.3-.8-1.3-2.6-1.6-3.6-2.6-1.4-1.3-3.6-1.1-4.9.4-1.2,1.4-.3,3.1-.6,4.8-.3,2-1.6,3.9-2.3,5.8-.5,1.2-1,3-1.8,4-1,1.4-2.5,2-3.5,3.6-.3.5-2.1,5.4-2,5.4,2.4-.2,4.5-1.4,6.8-2,.9-.2,2-.5,2.9-.3Z"/>
              <path class="cls-2" d="M779.8,92.6c-.1-3.4,0-3.7-2-5,0-.3-.7-1-1-1-2.6,4.8-5,8.3-6,15,0,.4-6.9,1.1-7.6,1.1-3.3.2-5.5-1.1-8.5-2.2-1.1-.4-.6-5.9-.8-7.1-.5-2.7-1.2-5.5.3-8.1.4-.6.9-1.3,1.5-1.6,2.6-1.4,5.3-3,7.7-5.1,1.1-.9,2.5-2.8,3.3-4,1-1.5,1.3-3.1,2.3-4.6,1.3-1.9,3.2-3.5,3-6-.1-1.2-.5-2.5-1-3.6-.2-.5-2-3.9-2.4-3.9-1.6,0-3.2,0-4.7.3-.5.1-1.3.1-1.7.5-.1,0-1,1.4-.6,1.4-2.1.6-3.8.7-5.7,1.8-.9.5-2.1.7-3,1.3-1.5.9-1.1,1.3-3,.9-.8-.2-3.2-.9-3.2-2v-1c-1.9-1.2-5-.9-8-1,.9-3.6,1.8-2.1,2-7-2.7.3-5.3.7-8,1v1c-1.3.4-3,.3-4.3-.2-.1,0-2.5-1.7-1.8-1.7-.8,0-7.8.6-7.9,1-.7,3.2-2.3,6.1-4.2,8.7-.9,1.2-1.8,2.4-2.7,3.6-.4.6-.9,1.2-1.1,1.8-.2.8,0,1.4-.6,2-.5.5-1.1.7-1.4,1.4-.3.6-.2,1.3-.8,1.8-.6.4-1.1.4-1.5,1-.2.3-.4.8-.6,1.2-.5,1-1,2.1-1.4,3.2-.5,1.3-.7,2.8-.9,4.2-.1.7-.4,1.4,0,2.1.3.5,1,.9,1.3,1.4.6.9.5,2.2,1.1,3.1.6.9,1.5,1.5,2.5,1.8,1,.3,1.9.6,2.9.8.7.2,7.3,1.3,7.4.8,0,1.8-.5,3.5-1.6,4.9-2.3,3.1-6.9,4-10.2,6-1.1.7-3.3,1.5-3.3,3s5.9-.5,6.3-.6c1.9-.7,5.9-1.7,7.5.8,1,1.6-.2,3.6.2,5.3.6,2.6,3.2,7.5,6.6,5.9,3.5-1.6,2.4-7.2,2.9-10.1.7-4.1,1.7-9.1,4.2-12.5,2.1-2.7,16-8.3,12.3-13.4-1.1-1.6-4-.5-5.5-1.9-1.7-1.7-.9-3.8.4-5.5,1.2-1.7,3.2-2,5-2.7,1-.4,3.3-2.4,4.1-2.4,3.8,0,7.6,0,10,1,.1,0,.2,4.3,0,4.6-.1.4-2,2.8-2.4,3.1-1.2,1-3.2.5-4.7,1.3-.3.2-.9,1.5-2,2-.9,2.2-1.8,4.4-2.2,6.7-.3,2,.6,4,.6,6,0,2.1-.6,4.1.3,6.2,1.2,2.9,1.8,6,4.3,8.1,2.8,2.4,6.7,3.9,10.3,4.2,3.9.3,7.8-1.5,11.6-2.2,2.9-.5,4.6-2.6,7.2-4,.8-4,2-10.2-1-13ZM713.8,68.6h1c.9.4-1.9,2-2,2,.3-.7.7-1.3,1-2ZM720.6,83.5c-.2.4-.6.7-1.3.9-.9.3-2.9,0-3.7-.5-1.2-.8-1.3-1.8-1.7-3.2.7,0,1.1-.4,1.2-1,.5,0,5.7.7,5.7.9,0,1.2.2,2.2-.2,2.9ZM726.8,90.6h-3c.8-2.7.2-2.3,3-3v3Z"/>
            </g>
            <path class="cls-2" d="M865.8,99.8c-.2-1.4-2.5-7.8-4-8.1-2.8-.6-4.8-2.3-7-3-3.4-1.1-8.1-.8-11.7-1.1-3.4-.3-7.5,0-10.3-1.9,1.8-2.4,1.3-6.1,2.6-8.8.8-1.6.6-1,2.2-1.4,1-.2,2-.7,2.3-1.7,1.7.3,2.7-1.6,4-2.4,1.7-1,3.4-2,5.4-2.4,1.6-.4,3-.5,4.4-1.6,1.3-1.1,1.6-1.5,3.3-2.1.8-.3,1.4-.9,1.9-1.3,2.1-1.3,3.4-2.1,4.1-4.6.1-.4,1.2-4.8.8-4.8-1.1,0-17,.4-17.1,0-1.5-.4-3.4,0-4.9,0,0,0,0-.7-2-1-1.6-.3-.6-8.3-.5-9.3.1-2.3.2-4.6.1-6.9,0-2.2-.6-3.1-1.5-5-.2-.4,0-1-.2-1.4-.5-.9-1.4-2.4-2.2-3.2,0,0-.1-.1-.2-.2-.9-.8-3-1.1-4.2-1.4-3.2-.9-7-1.5-9.4,1.4-1.5,1.8-2.1,5.2-1.4,7.4.5,1.5.8,3.1,1.3,4.6.5,1.5,1.6,2.6,2.2,4.1.4,1.1.4,2.5.6,3.7.2,2-.1,5.6,1.3,7.2,0,9-1.4,5-7,7-1.5.5-4.9,1.1-6.1,2.1-.8.6-.9,4.9-.9,4.9.7,0,2.7,2,3,2,1.1,1.2,2.7,1.5,3.7,2.6,0,0,2.2,3.2,2.2,2.5-.1,1.8-.7,4.2-1.6,5.8-.6,1.2-1.5,1.2-2.3,2.2-.4.5,0,1.5-.3,2.1-.5.7-1.4.8-2,1.7-1.1,1.8-.4,2.6-2,4.1-1.6,1.6-3.9,2.8-5.7,4.1v5c3.2-.2,5.2-1.5,8-2.6,2.4-.9,5.2-.6,7.2-2.6,1.3-1.3,2-2.3,3.8-2.8,0-.3,3.8,0,4.1,0,1.7.2,2.1,1.3,3.6,2,1.5.7,3.3.3,4.8,1,1.5.6,2.6,1.9,3.9,2.7.8.5,1.4.3,2.2,1.1.7.7.9,1.8,1.7,2.5.9.7,2,.7,2.9,1.2,1.2.7,2.8,2.2,2.8,2.5.7.2,9.7,1.6,9.8,1,.2-1.6,2.4-1.7,3.3-2.7,1-1.2,1-2.6.8-4Z"/>
            <g>
              <path class="cls-2" d="M988.9,42.6h-6v1h-7c0-.3-2,0-2,0-1.3-.3-2.7-.7-4-1-.5-.1,1.1-3.9,1.9-4.1.1-3.4.7-6.8,1.7-10.1.2-.7,1.5-6.8,2.4-6.8.3-1.3,1.7-4,2-4,1.4-3.6-.5-5.3,2-8-.2-2.4-.4-2.5-1-4-3-.5-9.7-2.4-14-1v1c-4.7,1.3-9.3,2.7-14,4-.5-2.5-1-3.7-1-7-.4,0-1-.7-1-1-3.8,0-7.6,0-10,1,.7,4,1.3,8,2,12-.4,0-4.9.8-5,.9.2-1.5-1.3-.9-2-1.5-.3-.3-1-2.4-1-2.4-5-.4-4.9-.9-10,0,.1,3.3.2,4.5,2,6,0,3.1.5,7.4-1,9-1.9,2.1-2-3.3-3.5-4.4-1.1-.8-1.2-1-1.9-2.1-.3-.5-.2-1-.7-1.4-.5-.4-1.1-.4-1.6-.9-.6-.6-.9-1.5-1.4-2.2-.3,0-2-.7-2-1-3.9.1-8.1.8-10,3-.3,0-1.7,3-2,3,2.3,2.8,4.9,5.5,5.9,9,.2.7.3,1.8.7,2.4.5.8,1.4.9,1.9,1.9.4,1,.2,2.4.2,3.4s0,2.2,0,3.3c.1,1.3,1.3,3,1.3,4,.1,5.2.4,3.9,2,7h7c0-.3.7-1,1-1,2.2-3.5-2.2-8.1,2-12,.8-1.1-.1-.1,1-1,1.9,5.2,1.1,9.7,5,13-.3,1-.7,2-1,3-3.8.7-8.7,2-12,3h-6c-1.1.2-2.8,2-5,1-.7-1-1.4-2-2-3-.7,0-2-.7-2-1-3.3.3-6.6.7-10,1,0,3.1,0,4.7,1,7,.1.3.2.6.3,1,.3,1.6.4,3.2.5,4.9,0,.9.1,1.8.2,2.8,0,1,.4,1.7.6,2.7.2.7,0,1.4.3,2.1.2.6.6,1.2.9,1.8.4.9.7,1.2,1.4,1.9,1.3,1.3,2.9,1,4.6,1,.5,0,1,.1,1.3-.2.2-.3.2-.9.2-1.3,0-.6.3-1.2.4-1.8.4-1.4.8-2.7,1.2-4.1.4-1.3.7-2.6,1.1-3.8.1-.4.8-3.7,1.1-3.8,14.7-2.3,29.4-4.7,44-7,0-.3,2.7-1.7,4-2,0-.3,5.7-.9,8-3,1.3,0,4,.7,4,1,.3,0,1,2,1,3,5.5,0,7.9-.5,12-2,0-.3,4-1,6-1,0-.3,1.3-1,2-1,.3-.7,3-2.7,4-3v-4c-.3,0-1.7-2-2-3ZM939.9,50.6h-5c-.3-7.5-.9-16.4,0-26h3c.9,1.1-.1.2,1,1-.3,2-.7,4-1,6h-1c-2.2,6.2,1.5,13,4,15-.2,2.4-.4,2.5-1,4ZM947.9,34.6c-1,.3-2,.7-3,1,0,0-2.7-3.6-1-4.1.1-.5,1.6-5.2,2-4.9,3,2.1.4,1.8,2,4h1c-.2,2.4-.4,2.5-1,4ZM952.9,47.6c.3-2.7.7-5.3,1-8,2-.6.9.1,2-1,2.9,0,4.3.4,6,1-.1,6-3.4,7.7-9,8ZM964.9,29.5c-.3,0-.7.2-1,.1.3,1.7-5.1,1.8-5.1,2-.3-.9-.7-1.9-.9-2.8.7-.2,2.2-3.1,1.9-3.2,1.6.3,3.3.7,5,1,0,0,0,2.6,0,2.9ZM965.9,17.6c-3.7.6-2.3.6-6,0-.4-1-.7-2-1-3,.7-.3,1.3-.7,2-1,.5-.5.8-1,1.7-.9.2,0,3.3,2.4,3.3,2,0,.3,0,2.9,0,2.9Z"/>
              <path class="cls-2" d="M970.9,84.6c-.3-.7-.7-1.3-1-2-3.6-2.1-8.6,1.5-14,0,0-.3-2-1-3-1,0-.3-.7-1-1-1,1-7.1,8.2-5.6,10-12,1.6-1.6,2.1-5.7,2-9-5.7.3-11.3.7-17,1-.3.7-2.3,2-3,2,0,.3-1.3,1-2,1,0,.3-3.3,1-5,1-.3.7-3,2-4,2-.3.7-5,2.7-7,3-2.7,1.3-5.3,2.7-8,4,.6,2.4,1,2.2,2,4h8c5-3,10-6,15-9,1.7.3,3.3.7,5,1v3c-3.7,2-7.4,4-11,6,0,3.6-.2,4.6,2,6-.3,1.1-.7,2.9-2,3.2-.8.1-1.6.2-2.4.3-.7.1-1.5.2-2.2.4-.9.2-1.5.8-2.4,1-.7.2-1.3.3-2,.6-.8.4-1.8.3-2.6.7-1,.5-1.5,1.1-2.6,1.2-.8.1-1.6.1-2.3.3-1.6.3-3.3.5-4.9.8-3.2.5-6.5,1-9.7,1.5.1,2.6.4,3.4,1,5,7.4,3,28.3,3.5,33-2,2.8,0,4.3.4,6,1-.2,1.9-.6,3.8-1.2,5.7-.4,1.2-.5,2.5-.6,3.8-.2,1.6.1,3.4-.3,5-.3.9-1.1,1.5-1.3,2.4,0,.4,0,2.1-.6,2.2-4.6,1-7.2,4.6-12,5,0-.3-2-.7-2-1-1.7-.3-3.3-.7-5-1,.5,4.3,2.3,4.2,4,7,2.7.6,5.3,1.3,8,1.6,1.6.2,3.1.3,4.7.4.8,0,1.6.2,2.3-.1.6-.3,1-.9,1.6-1.1.5-.2,1.1-.1,1.7-.4,1-.5,1.5-1.5,2.3-2.2.8-.8,1.9-1.4,2.4-2.4.6-1,.7-2.2,1.1-3.3.5-1.2,1.2-2.3,1.6-3.6.2-.7.2-1.4.2-2.1,0-.6.1-.8.3-1.3.3-1.2.5-2.4.6-3.6,0-.6,0-1.3.1-1.8.1-.4.5-.7.6-1.1,1-2.9,0-5.9.6-8.8.4-2.4,1-4.8,1.8-7.1,2-.3,4-.7,6-1,0-.3,3.3-1,5-1,.3-.7.7-1.3,1-2,.7,0,2-.7,2-1,.3,0,.3-1,0-1Z"/>
            </g>
          </g>
        </g>
        <g>
          <path class="cls-5" d="M170.4,85.2c.2,47-37.8,85.3-84.9,85.5C38.4,170.8.2,132.9,0,85.8-.2,38.8,37.8.5,84.9.3c47-.2,85.3,37.8,85.5,84.9Z"/>
          <g>
            <g>
              <path class="cls-3" d="M57.2,23l.6.5c5.1,4.2,6.8,6.2,9.1,14.4l4,12.3c0,.2,0,.3.1.5,0,0,0,0,0,.1.6,1.5,2.1,2.6,3.8,2.7,0,0,.1,0,.1,0h10.1s10.1,0,10.1,0c0,0,0,0,.1,0,1.7,0,3.2-1.2,3.8-2.7,0,0,0,0,0-.1,0-.2.1-.3.1-.5l4-12.3c2.2-8.1,4-10.2,9.1-14.4l.6-.5c1.1-.8,1.9-2.1,1.9-3.5s-.8-2.9-2-3.6c-.2-.1-.3-.2-.5-.3h0s0,0,0,0c-.1,0-.3-.1-.5-.2-6.7-2.6-13.6-4.1-20.3-4.7-1-2.2-3.5-3.8-6.6-3.8s-5.6,1.6-6.6,3.8c-6.8.6-13.6,2.1-20.3,4.7-.2,0-.3.1-.5.2,0,0,0,0,0,0h0c-.2,0-.3.2-.5.3-1.2.8-2,2.1-2,3.6,0,1.5.7,2.8,1.9,3.5ZM61.6,19.4c7.5-2.6,15-4,23-4.1h.6s0,0,0,0h0s0,0,0,0h0s0,0,0,0h.6c7.9,0,15.5,1.5,23,4.1,0,0,.4.1.4.5s-.1.4-.3.5h0c-7.6,4.8-10.1,16.3-10.1,16.3l-3.4,11.2h0c-.2.7-.9,1.2-1.6,1.2h0s-8.5,0-8.5,0h0s0,0,0,0h-8.5s0,0,0,0c-.8,0-1.4-.5-1.6-1.2h0c0,0-3.4-11.2-3.4-11.2,0,0-2.5-11.5-10.1-16.3h0c-.2,0-.3-.3-.3-.5,0-.4.4-.5.4-.5Z"/>
              <path class="cls-3" d="M11,74.9c0,1.4.8,2.8,2.1,3.5,1.3.7,2.8.7,4,.1l.8-.3c6.2-2.4,8.8-2.8,17-.7l12.7,2.7c.2,0,.3,0,.5.1,0,0,0,0,.1,0,1.6.2,3.3-.5,4.2-1.9,0,0,0,0,0-.1l5.1-8.8,5.1-8.8s0,0,0-.1c.8-1.5.6-3.4-.4-4.6,0,0,0,0,0,0-.1-.1-.2-.3-.4-.4l-8.6-9.7c-5.9-6-6.8-8.5-7.9-15v-.8c-.2-1.4-1-2.7-2.3-3.4-1.3-.8-2.9-.7-4.1,0-.2,0-.3.2-.5.3h0s0,0,0,0c-.1,0-.3.2-.4.3-5.6,4.5-10.3,9.7-14.2,15.3-2.4-.2-5,1.2-6.5,3.8-1.5,2.6-1.4,5.6,0,7.6-2.9,6.2-5,12.8-6.1,19.9,0,.2,0,.3,0,.5,0,0,0,0,0,0h0c0,.2,0,.4,0,.6ZM16.2,72.9c1.5-7.8,4.1-15,8-21.9l.3-.5h0s0,0,0,0h0s0,0,0,0h0s.3-.5.3-.5c4-6.8,9-12.7,15-17.9,0,0,.3-.3.6,0,.2.1.3.3.2.5h0c.3,9,9.1,16.9,9.1,16.9l8,8.6h0c.5.6.6,1.4.2,2h0s-4.3,7.4-4.3,7.4h0s0,0,0,0l-4.3,7.4h0c-.4.7-1.1,1-1.8.8h0s-11.4-2.6-11.4-2.6c0,0-11.2-3.6-19.1.6h0c-.2.1-.4.1-.6,0-.3-.2-.2-.6-.2-.6Z"/>
              <path class="cls-3" d="M62.1,115.1s0,0,0,0c1-1.3,1.3-3.1.4-4.6,0,0,0-.1,0-.1l-5.1-8.7-5-8.8s0,0,0-.1c-.9-1.5-2.6-2.2-4.2-1.9,0,0,0,0-.1,0-.2,0-.3,0-.5.1l-12.7,2.7c-8.2,2.1-10.8,1.7-17-.7l-.8-.3c-1.2-.6-2.7-.6-4,.1-1.3.8-2.1,2.1-2.1,3.5,0,.2,0,.4,0,.6h0s0,0,0,0c0,.2,0,.3,0,.5,1.1,7.1,3.2,13.8,6.1,20-1.4,2-1.5,5,0,7.6,1.5,2.6,4.1,4,6.5,3.8,3.9,5.6,8.6,10.7,14.2,15.2.1.1.2.2.4.3,0,0,0,0,0,0h0c.2.1.3.2.5.3,1.3.7,2.8.7,4.1,0,1.3-.7,2-2,2.1-3.4v-.8c1.2-6.5,2.1-9,8-15.1l8.6-9.7c.1-.1.3-.2.4-.4ZM57.7,113.1h0s-8,8.6-8,8.6c0,0-8.7,7.9-9.1,16.9h0c0,.2,0,.4-.2.5-.3.2-.6,0-.6,0-6-5.2-11-11-15-17.9l-.3-.5h0s0,0,0,0h0s-.3-.5-.3-.5c-3.9-6.9-6.5-14.2-8-21.9,0,0,0-.4.2-.6.2-.1.4,0,.5,0h0c7.9,4.2,19.1.6,19.1.6l11.4-2.6h0c.7-.2,1.4.1,1.8.8h0s4.3,7.4,4.3,7.4h0s4.3,7.4,4.3,7.4h0c.4.7.3,1.5-.2,2Z"/>
              <path class="cls-3" d="M113.2,148l-.6-.5c-5.1-4.1-6.8-6.2-9.1-14.4l-4-12.3c0-.2,0-.3-.2-.5,0,0,0,0,0-.1-.6-1.5-2.1-2.6-3.8-2.7,0,0-.1,0-.1,0h-10.1s-10.1,0-10.1,0c0,0,0,0-.1,0-1.7,0-3.2,1.2-3.8,2.7,0,0,0,0,0,.1,0,.2-.1.3-.1.5l-4,12.3c-2.2,8.1-4,10.2-9.1,14.4l-.6.5c-1.1.8-1.9,2.1-1.9,3.5,0,1.5.8,2.9,2,3.6.2.1.3.2.5.3h0s0,0,0,0c.1,0,.3.1.5.2,6.7,2.6,13.6,4.1,20.3,4.7,1,2.2,3.6,3.8,6.6,3.8,3,0,5.6-1.6,6.6-3.8,6.8-.6,13.6-2.1,20.3-4.7.2,0,.3-.1.5-.2,0,0,0,0,0,0h0c.2,0,.3-.2.5-.3,1.2-.8,2-2.1,2-3.6s-.7-2.8-1.9-3.5ZM108.8,151.6c-7.5,2.6-15,4-23,4.1h-.6s0,0,0,0h0s0,0,0,0h0s0,0,0,0h-.6c-7.9,0-15.5-1.5-23-4.1,0,0-.4-.1-.4-.5,0-.2.1-.4.3-.5h0c7.6-4.8,10.1-16.3,10.1-16.3l3.4-11.2h0c.2-.7.9-1.2,1.6-1.2h0s8.5,0,8.5,0h0s0,0,0,0h8.5s0,0,0,0c.8,0,1.4.5,1.6,1.2h0c0,0,3.4,11.2,3.4,11.2,0,0,2.5,11.5,10.1,16.3h0c.2,0,.3.3.3.5,0,.4-.4.5-.4.5Z"/>
              <path class="cls-3" d="M159.4,96.1c0-1.4-.8-2.8-2.1-3.5-1.3-.7-2.8-.7-4-.1l-.8.3c-6.2,2.4-8.8,2.8-17,.7l-12.7-2.7c-.2,0-.3,0-.5-.1,0,0,0,0-.1,0-1.6-.3-3.3.5-4.2,1.9,0,0,0,0,0,.1l-5.1,8.8-5.1,8.8s0,0,0,.1c-.8,1.5-.6,3.4.4,4.6,0,0,0,0,0,0,.1.1.2.3.4.4l8.6,9.7c5.9,6,6.8,8.5,7.9,15.1v.8c.2,1.4,1,2.7,2.3,3.4,1.3.8,2.9.7,4.1,0,.2,0,.3-.2.5-.3h0s0,0,0,0c.1,0,.3-.2.4-.3,5.6-4.5,10.3-9.7,14.2-15.3,2.4.2,5-1.2,6.5-3.8,1.5-2.6,1.4-5.6,0-7.6,2.9-6.2,5-12.8,6.1-19.9,0-.2,0-.3,0-.5,0,0,0,0,0,0h0c0-.2,0-.4,0-.6ZM154.2,98.1c-1.5,7.8-4.1,15-8,21.9l-.3.5h0,0s0,0,0,0h0l-.3.5c-4.1,6.8-9,12.7-15,17.9,0,0-.3.3-.6,0-.2,0-.3-.3-.2-.5h0c-.3-9-9.1-16.9-9.1-16.9l-8-8.6h0c-.5-.6-.6-1.4-.2-2h0s4.3-7.4,4.3-7.4h0s0,0,0,0l4.3-7.4h0c.4-.7,1.1-1,1.8-.8h0s11.4,2.6,11.4,2.6c0,0,11.2,3.6,19.1-.6h0c.2-.1.4-.1.5,0,.3.2.2.6.2.6Z"/>
              <path class="cls-3" d="M108.2,55.9s0,0,0,0c-1,1.3-1.3,3.1-.5,4.6,0,0,0,.1,0,.1l5.1,8.7,5.1,8.8s0,0,0,.1c.9,1.5,2.6,2.2,4.2,1.9,0,0,0,0,.1,0,.2,0,.3,0,.5-.1l12.7-2.7c8.2-2.1,10.8-1.7,17,.7l.8.3c1.2.6,2.7.6,4-.1,1.3-.8,2.1-2.1,2.1-3.5,0-.2,0-.4,0-.6h0s0,0,0,0c0-.2,0-.3,0-.5-1.1-7.1-3.2-13.8-6.1-20,1.4-2,1.5-5,0-7.6-1.5-2.6-4.1-4-6.5-3.8-3.9-5.6-8.6-10.7-14.2-15.2-.1-.1-.2-.2-.4-.3,0,0,0,0,0,0h0c-.1-.1-.3-.2-.5-.3-1.2-.7-2.8-.7-4.1,0-1.3.7-2,2-2.1,3.4v.8c-1.2,6.5-2.1,9-8,15.1l-8.6,9.7c-.1.1-.3.2-.4.4ZM112.6,57.9h0s8-8.6,8-8.6c0,0,8.7-7.9,9.1-16.9h0c0-.2,0-.4.2-.5.3-.2.6,0,.6,0,6,5.2,11,11,15,17.9l.3.5h0s0,0,0,0h0s0,0,0,0h0s0,0,0,0l.3.5c3.9,6.9,6.5,14.2,8,21.9,0,0,0,.4-.2.6-.2.1-.4,0-.5,0h0c-7.9-4.2-19.1-.6-19.1-.6l-11.4,2.6h0c-.7.2-1.4-.1-1.8-.8h0s-4.3-7.4-4.3-7.4h0s0,0,0,0l-4.3-7.4h0c-.4-.7-.3-1.5.2-2Z"/>
            </g>
            <rect class="cls-4" x="77.8" y="79.4" width="2.6" height="2.8"/>
            <rect class="cls-4" x="77.8" y="71.7" width="2.6" height="2.2"/>
            <path class="cls-3" d="M110.2,87.8h-10.4v3.6h7l-.2.7c-3,9.3-11.6,15.6-21.4,15.6s-18.4-6.3-21.4-15.6l-.2-.7h7v-3.6h-10.4c-.7,0-1.3.6-1.3,1.3s0,0,0,0c.9,5.9,3.7,11.4,8.2,15.5,4.9,4.6,11.4,7.1,18.1,7.1s13.2-2.5,18.1-7.1c4.4-4.1,7.3-9.6,8.2-15.5,0,0,0,0,0-.1,0-.7-.6-1.3-1.3-1.3Z"/>
            <path class="cls-3" d="M111.4,81.4s0,0,0-.1c-.9-5.9-3.7-11.4-8.2-15.5-4.1-3.9-9.3-6.2-14.9-6.9v4.2c8.4,1.2,15.5,7.1,18.1,15.4l.2.7h-7v3.6h10.4c.7,0,1.3-.6,1.3-1.3Z"/>
            <path class="cls-3" d="M60.2,82.7h10.4v-3.6h-7l.2-.7c2.6-8.3,9.7-14.1,18.1-15.4v-4.2c-5.5.7-10.7,3.1-14.8,6.9-4.4,4.1-7.3,9.6-8.2,15.5,0,0,0,0,0,0,0,.7.6,1.3,1.3,1.3Z"/>
            <path class="cls-3" d="M75.9,99.9v2.5c5.5-1.4,8.2-4.5,9.5-7.1,1.3,2.6,3.9,5.6,9.4,7.1v-2.5c-6.4-1.9-7.8-6.2-8.1-8.2h7.7v-2.5h-7.7v-3.4h-2.4v3.3h0c-.6.1-8.1.1-8.1.1v2.5h8c-.3,1.9-1.8,6.3-8.2,8.2Z"/>
            <path class="cls-3" d="M88.2,70.7h-3.6c-.3,0-.5.2-.5.5v10.7s2.1,0,2.1,0v-9.6h2v11.8h2.2v-11.8h2.1s0,9.6,0,9.6h2v-10.7c0-.3-.2-.5-.5-.5h-3.6s0-1.7,0-1.7h4.4v-1.7h-11.4v1.7h4.7v1.7Z"/>
            <path class="cls-3" d="M78.7,69.9c1-.9,1.2-2.5,1.2-2.5h-2.1s-.2,1.6-.8,2.5h-.7c-.3,0-.5.2-.5.5v12.9c0,.3.2.5.5.5h5.6c.3,0,.5-.2.5-.5v-5.3c0-.3-.2-.5-.5-.5h-4.1v-1.7h4.1c.3,0,.5-.2.5-.5v-4.9c0-.3-.2-.5-.5-.5h-3.1ZM80.4,79.4v2.8h-2.6v-2.8h2.6ZM80.4,73.9h-2.6v-2.2h2.6v2.2Z"/>
          </g>
        </g>
      </g>
    </g>
  </g>
</svg>