<?xml version="1.0" encoding="utf-8"?>
<!-- Generator: Adobe Illustrator 26.2.1, SVG Export Plug-In . SVG Version: 6.00 Build 0)  -->
<svg version="1.1" id="圖層_1" xmlns="http://www.w3.org/2000/svg" xmlns:xlink="http://www.w3.org/1999/xlink" x="0px" y="0px"
	 viewBox="0 0 150 150" style="enable-background:new 0 0 150 150;" xml:space="preserve">
<style type="text/css">
	.st0{fill:#FF9000;}
</style>
<path class="st0" d="M75,0C33.6,0,0,33.6,0,75s33.6,75,75,75c41.4,0,75-33.6,75-75S116.4,0,75,0z M95.2,121.1
	c-0.1,0.3-0.5,0.6-0.8,0.8c-4.6,1.6-9,3.5-13.7,4.6c-4.5,1.1-9.2,0.7-13.6-1.1c-5.3-2.2-8.3-6.9-8.1-12.8c0.2-5.4,1.6-10.5,3.1-15.6
	c1.6-5.7,3.3-11.4,4.6-17.2c0.6-2.6,0.6-5.3,0.5-8c-0.1-2.3-1.4-3.4-3.7-3.8c-2.8-0.6-5.6-0.4-8.3,0.5c-0.9,0.3-1.9,0.6-3.1,1
	c0.5-2,0.9-3.8,1.3-5.5c0.1-0.3,0.5-0.5,0.9-0.7c5-1.9,10-4.1,15.4-4.7c3.9-0.5,7.8-0.3,11.5,1.3c5.6,2.3,8.4,7.4,8.1,13.6
	c-0.4,7.2-3,13.8-4.7,20.7c-1.2,4.9-2.6,9.9-3.5,14.9c-1.2,6.5,1.7,9.4,8.3,8.6c2.3-0.3,4.6-0.9,7.1-1.5
	C96,117.7,95.7,119.4,95.2,121.1z M87.3,47.1c-5.5,0.7-10.2-0.9-13.3-5.6c-4.3-6.4-1-15.2,6.6-17.6c1.5-0.5,3.1-0.6,4.6-0.9
	c6.6,0.4,11.8,4.7,12.6,10.6C98.6,40.1,93.8,46.3,87.3,47.1z"/>
</svg>
