<?xml version="1.0" encoding="utf-8"?>
<!-- Generator: Adobe Illustrator 26.2.1, SVG Export Plug-In . SVG Version: 6.00 Build 0)  -->
<svg version="1.1" id="圖層_1" xmlns="http://www.w3.org/2000/svg" xmlns:xlink="http://www.w3.org/1999/xlink" x="0px" y="0px"
	 viewBox="0 0 150 150" style="enable-background:new 0 0 150 150;" xml:space="preserve">
<style type="text/css">
	.st0{fill:#FF4B27;}
</style>
<g id="火_拷贝">
	<g>
		<path class="st0" d="M83.8,10.9c1.5-1.3,2.6-2.1,2.6-2.1C85.2,9.4,84.3,10.1,83.8,10.9z M150,56c0,0-26.7-1-33.7,10.9
			c-5.1,8.7-3.5,15.1-7.5,14.5c-6.3-1-2.1-9.4,0-21.8c2.3-13.5-5.7-19.9-15-29C86,22.9,80.8,15.3,83.8,10.9
			c-4.8,4.2-14.2,14.5-8.6,26.9c4.7,10.4,5.1,30.6-3.7,29c-11.4-2-10.3-18.2-7.5-29c2.8-10.9,4.5-20.6-3.7-25.4
			c0,0,2.3,16.8-7.5,21.8c-7.1,3.6-11.9,16.9-7.5,36.3C48.1,83.1,32.7,73,34,63.3c2-15.4-18.7-29.8-29.9-29c0,0,6.1,10,3.7,18.1
			c-2.4,8.2-5,14-7.5,21.8c0,0,3.2,5.4,0,18.1c-3.2,12.7,16.1,58,44.9,47.2c15-5.6,33.8-8.6,44.9-3.6c21,9.4,42.5-10.5,41.2-32.7
			C130,81,136.2,60.4,150,56z"/>
	</g>
</g>
</svg>
