<?xml version="1.0" encoding="utf-8"?>
<!-- Generator: Adobe Illustrator 26.2.1, SVG Export Plug-In . SVG Version: 6.00 Build 0)  -->
<svg version="1.1" id="圖層_1" xmlns="http://www.w3.org/2000/svg" xmlns:xlink="http://www.w3.org/1999/xlink" x="0px" y="0px"
	 viewBox="0 0 869.2 150" style="enable-background:new 0 0 869.2 150;" xml:space="preserve">
<style type="text/css">
	.st0{fill-rule:evenodd;clip-rule:evenodd;fill:#FFFFFF;}
	.st1{fill:#91252A;}
	.st2{fill:#FFFFFF;}
</style>
<g>
	<path class="st0" d="M248.6,113.3c-0.2-3.3-0.5-6.6-1.3-9.8c-0.7-2.9-0.8-6-0.7-9c0-0.8,0.2-2.2-0.4-2.7c-0.4-0.3-0.5-0.1-0.7-0.6
		c-2.1-6.1,1.3-10.9,1.8-16.9c0.2-3.4-0.8-6.7-1-10.1c-0.2-3,0.8-5.9,0.9-8.9c0.1-2.5-1.2-4.8-1.1-7.3c0-0.5,0.1-0.9,0-1.4
		c-0.4-2.1-5.4-3.4-7.2-4c-0.3-0.1-0.6-0.2-1-0.3c-0.4-0.1-0.8-0.3-1.2-0.3c-0.3,0-0.6-0.1-0.9-0.1c-0.7-0.1-1.4-0.5-2.2-0.6
		c-1.7-0.4-3.4,0-5.1,0.2c-1.9,0.2-2.4-0.2-3.8-1.2c-1.2-0.9-3.1-0.4-4.4-0.4c-0.8,0-1.6-0.2-2.4,0c-0.7,0.1-1.2,0.6-1.8,0.8
		c-0.7,0.2-1.2-0.2-1.8-0.2c-1.8,0.1-3.5-0.8-5.5-0.8c-3.7-0.1-7.4-0.1-11-0.2c-0.8,0-1.8,0.1-2.1,0.9c-0.2,0.7,0.3,1.4,0.9,1.9
		c2.7,2.4,6,4.2,9.5,5.1c2.1,0.5,4.4,0.8,6.5,0.3c2.3-0.5,4.5-1.8,6.8-1.4c0.8,0.2,1.7,0.5,2.5,0.2c0.5-0.2,0.8-0.6,1.2-0.9
		c3.2-2.2,9.4,0.4,10.9,3.6c0.3,0.7,0.5,1.4,0.7,2.1c0.4,1.3,0.9,2.7,1.4,4c0.1,0.3,0.2,0.5,0.3,0.8c0.1,0.3,0.2,0.6,0.4,0.9
		c0.2,0.3,0.5,0.6,0.8,0.9c0.5,0.8,0.5,1.7,0.5,2.6c0,6.2-0.5,12.3-0.4,18.5c0,2.4,0,4.8,0.1,7.2c0.1,4.8,0,9.7-0.2,14.5
		c-0.1,2.2-0.3,4.3-0.4,6.5c-0.1,1.2-0.5,2.8-2.1,2.2c-0.8-0.3-1.4-0.9-2.1-1.4c-0.4-0.3-0.7-0.5-1-0.9c-0.3-0.5-0.3-1.2-0.2-1.8
		c0.1-0.6,0.2-1.2,0.1-1.9c-0.1-0.6-0.5-1.2-1.1-1.3c0.2-2-2.4-3.7-3.1-5.4c-0.6-1.3-0.4-2.8-0.4-4.1c0.1-1-0.2-3.3,0.7-4
		c0.3-0.2,0.7-0.2,1-0.5c0.3-0.3,0.3-0.8,0.4-1.2c0-0.5,0-1,0.1-1.4c0.2-0.6,0.6-0.8,0.9-1.2c1-1.1,0.6-2.7,0.5-4
		c-0.2-2.9-0.4-5.8,0-8.7c0.1-1.3,0-2.1-1.2-2.7c-1.3-0.6-2.2-1.5-3-2.6c-0.7-1-1.3-2.2-1.8-3.3c-0.4-0.9-1.1-2.2-0.4-3.1
		c0.4-0.5,0.9-0.6,1.1-1.2c0.1-0.6,0-1.4-0.1-2.1c-0.1-1.4-0.3-2.7-0.6-4c-0.2-1-0.5-2.3-1.7-2.6c-1.5-0.4-4.1-0.2-5.5,0.5
		c-0.6,0.3-1.1,0.8-1.1,1.4c-0.1,0.7,0.4,1.5,0,2.1c-0.2,0.2-0.5,0.4-0.8,0.5c-2,0.7-3.5,1-5.6,0.9c-1.3,0-2.7,0-3.9,0.6
		c-1.2,0.6-2,1.8-3,2.6c-1.1,0.8-2.3,1.3-3.6,1.6c-0.6,0.2-1.4,0.5-2,0c-0.3-0.2-0.5-0.5-0.8-0.6c-0.3-0.1-0.6,0-0.8-0.1
		c-0.4-0.1-0.6-0.5-0.8-0.9c-1.7-2.6-7-3.2-7.6,0.7c-0.1,0.5,0.2,1,0,1.5c-0.5,1-0.9,1-0.7,2.2c0.2,0.9,0.8,1.8,1.5,2.4
		c1,0.9,2.1,1.8,3.1,2.6c1,0.9,2.3,1.6,2.3,3.1c0,1.7-1,3-1.7,4.4c-0.5,1-0.5,2.6-1.4,3.3c-0.2,0.2-0.5,0.3-0.7,0.5
		c-0.2,0.2-0.2,0.6-0.2,0.9c0,0.9,0.1,2.1-0.1,3c-0.2,0.7-0.6,1.2-0.9,1.9c-0.4,1-0.3,2.9,0.4,3.8c0.6,0.8,1.8,0.2,2.6-0.1
		c2-0.8,4.1-3.2,6.3-3c0.4,1.5-0.3,3.3-1.3,4.4c-1,1.1-1.9,2.1-2.6,3.5c-0.3,0.7-0.7,1.4-1,2.1c-0.3,0.8-0.1,1.6-0.2,2.5
		c-0.1,0.7-0.5,1.2-0.8,1.9c-0.4,0.8-0.3,1.5,0.1,2.3c0.5,1.2,1.5,2,1.6,3.3c2.2,0.4,5.5-3.5,7.2-4.8c2.5-2.1,5-4.1,8.1-5.3
		c0.5-0.2,6.5-2.2,6.5-1.8c0.4,2.5-1.5,5.4-2.7,7.4c-1.3,2.2-2.9,4.2-4.8,6c-1,0.9-2,1.9-3.1,2.6c-0.6,0.4-1,0.5-1.7,0.4
		c-0.5,0-0.8,0-1.2,0.5c-0.6,0.8-0.6,1.6-1.5,2c-2.2,0.9-4.6,0.3-6.6,1.7c-0.6-0.8-1.8-0.8-2.8-0.8c-1.8,0-3.7-1.2-4.4-3
		c-0.5-1.2-0.2-2.7-0.2-4c0-3.3,0-6.5,0.1-9.8c0.1-2.2,0.2-4.5,0.2-6.7c0-1.3,0.5-4.4-0.7-5.3c-0.2-0.1-0.3-0.2-0.4-0.4
		c-0.1-0.2-0.1-0.4-0.2-0.6c-0.2-5.6,1.2-11.8-1.5-17c-0.5-1-1.3-2.3-2.4-2.8c-0.7-0.3-2-0.6-2.2,0.4c-0.5,2.3-0.2,4.8,0.4,7
		c0.3,1.1,1.4,2.8,1.3,3.9c0,0.4-0.3,0.7-0.4,1c-0.9,1.6-0.2,3.6-0.1,5.5c0.1,1.3-0.1,2.5-0.4,3.8c-0.7,4-1.4,7.9-2.8,11.7
		c-1.3,3.7-1.7,6.4-1,10.3c0.5,3,0.9,6,2,8.8c0.9,2.1,2.5,3.6,4.8,3.8c3.1,0.3,6.3-0.8,9.4-1c3.2-0.3,6-0.6,9-1.8
		c1.5-0.6,2.9-1.1,4.5-1.1c2.6-0.1,4.4-0.5,6.9-1.3c1.6-0.5,3.3-0.6,4.9-0.3c1,0.2,2,0.5,3,0.1c0.3-0.1,0.5-0.3,0.8-0.4
		c0.9-0.4,2-0.2,2.9,0.1c2.1,0.5,4.2,0.6,5.7,2.1c1.4,1.3,1.9,3.5,3,5.1c0.2,0.3,0.4,0.7,0.6,1c0.9,1.4,1.7,2.7,2.5,4.1
		c0.4,0.8,0.8,1.6,1.5,2.3c0.6,0.6,1.6,1.1,2.5,0.8c0.7-0.2,1.3-0.8,2-1.1c0.5-0.2,1-0.3,1.4-0.6c0.4-0.2,0.6-0.6,0.9-1
		c0.4-0.6,0.8-1.1,1.1-1.6c0.5-0.9,0.9-1.7,1.1-2.9c0.2-1.6,0.8-2.9,1.3-4.3C248.6,116.6,248.7,114.9,248.6,113.3 M213,85.3
		c-0.5,0.7-0.2,0.8-1.1,1.3c-1,0.6-1.6,1-2.5,1.8c-0.2,0.2,0,0.4-0.3,0.6c-0.3,0.2-0.7-0.1-0.9,0.1c-0.3,0.2-0.4,0.4-0.6,0.5
		c-1,0.7-2.2,0.4-3.4,0.3c0.2-1.2,1.4-2.6,2.3-3.5c1-1,2.6-1.3,3.4-2.3c0.6-0.7,0.3-1.5,0.3-2.4c0-1.5,0.4-2.2-1.3-2.6
		c-0.5-0.1-1-0.2-1.4-0.3c-0.9-0.2-1.9-0.4-2.8-0.6c-2.2-0.4-4.5-0.6-6.8-0.5c-0.1,0,1.4-4.1,1.6-4.4c0.8-1.4,2-2.6,3.3-3.7
		c0.9-0.7,2.3-2.2,3.5-2c0.3,0,0.5,0.2,0.7,0.3c2.8,1.7,3.7,5.5,5,8.3C213.5,78.8,215,82.5,213,85.3 M223.3,102.8
		c0,1.2,0,2.5-0.8,3.4c-0.5,0.6-1.1,0.5-1.9,0.5c-0.8,0-2.6,0.3-3.1-0.3c0-0.1-0.1-0.1-0.1-0.2c-0.3-1,0.8-2.6,1.4-3.3
		c0.2-0.3,1.9-2.6,2.1-2.6h1.8C223.5,100.4,223.3,102.3,223.3,102.8 M224.4,75.5c-0.1,0.6-0.8,0.9-1.2,1.4c-1.2,1.5-3.2,0.7-4.2-0.5
		c-1-1.2-1.5-2.8-2.2-4.1c-0.8-1.5-1.6-3-2.2-4.5c-0.2-0.6-0.4-1.2-0.6-1.8c-0.2-0.9,1.9-2,2.6-2.2c0.6-0.2,1.1-0.1,1.8-0.1
		c1.1,0,2.1,0,3.2,0c0.7,0,1.1,0,1.5,0.6c0.2,0.2,0.3,0.4,0.5,0.6c0.4,0.3,0.7,0.4,0.8,0.8c0.3,0.9,0,2.2,0,3.1c0,1,0,3.4,0.2,3.5
		C224.6,72.3,224.5,74.8,224.4,75.5"/>
	<path class="st0" d="M289.7,52.6c0.7,0.9,1.5,1.7,2,2.8c1,1.8,0.3,3.4,2.6,4c0.8,0.2,1.3,0.6,1.9,0.9c2.4,1.1,5.8,0.4,8.3-0.1
		c0.2,0,0.3-0.1,0.4-0.2c0,0,0,0,0.1,0c1.4-1.3-1.4-5.8-2.4-6.6c-1-0.7-2.1-1.1-3-2c-1.1-1-1.7-2.2-3.2-2.4c-3-0.5-5.7-2.2-8.6-2.9
		c-0.2,0.5-0.8,1.1-0.9,1.7c-0.1,0.6,0.4,1.3,0.6,1.8C288.1,50.6,288.9,51.7,289.7,52.6"/>
	<path class="st0" d="M331.5,112.5c-0.7-0.8-1.7-1.4-2.6-1.8c-5.4-2.6-11.4-3.7-17.4-3.1c-1.3,0.1-3.1,0-3.3-1.3
		c-0.1-0.8,0.6-1.6,1.2-2.1c4.5-4.1,7.6-9.7,8.6-15.6c0.4-2.2,0.5-4.6-0.8-6.3c-1.1-1.4-2.9-2.2-4.7-2.3c-1.8-0.1-3.6,0.4-5.3,1
		c-0.9,0.3-1.8,0.6-2.5,1.2c-1,0.8-1.6,1.9-2.3,2.9c-2.3,3.4-5.7,5.8-9,8.2c-1,0.7-2.1,1.5-3.4,1.7c-1.3,0.2-2.7-0.4-3.1-1.7
		c-0.3-1,0.3-2.1,0.8-3c1.1-1.8,2.2-3.6,3.2-5.4c2-3.3,4.1-6.8,7.3-8.9c2.5-1.7,5.4-2.4,8.2-3.5c2.3-0.9,4.6-2.1,6.7-3.5
		c0.6-0.4,1.3-0.9,1.4-1.6c0.1-0.5,0-1.1-0.4-1.5c-0.4-0.5-1-0.9-1.5-1.2c-3.5-1.4-7.4,0.4-10.9,1.9c-6.1,2.6-12.6,4.2-19.2,5.1
		c-1.6,0.2-10.4,1.1-8.4,4.2c0.3,0.5,0.9,0.8,1.4,1.1c2.9,1.5,6.2,2,9.5,1.7c1.3-0.2,3.1-0.2,3.6,1c0.3,0.8-0.2,1.7-0.7,2.5
		c-1.5,2.3-3.2,4.5-5,6.6c-0.9,1.1-1.9,2.1-2.8,3.1c-0.7,0.7-1.4,1.4-2.1,2.1c-0.1,0.1-0.1,0.1-0.1,0.2c0,0.1,0.1,0.2,0.2,0.3
		c1.6,1.7,2.3,3.9,3.2,6c0.8,1.9,1.8,3.7,3.9,4.4c1.4,0.4,3,0,4.4-0.6c3.1-1.3,6-3,8.6-5.1c1.4-1.1,2.7-2.5,3.1-4.2
		c0.3-1.4,0-2.8,0.3-4.1c0.4-2,2-3.6,3.9-4.1c0.4-0.1,0.8-0.1,1.1,0.1c0.4,0.3,0.4,0.8,0.3,1.3c-0.7,6.3-5.3,11.4-9.7,15.9
		c-4.6,4.6-9.7,9.4-16.1,10.6c-1.1,0.2-2.3,0.3-3.3,0.9c-1,0.6-1.7,1.8-1.3,2.9c0.3,0.6,0.8,1.1,1.4,1.4c2,1.4,4.4,2.6,6.8,2.3
		c1.1-0.1,2.1-0.6,3.1-0.9c2.4-0.8,4.9-0.9,7.3-1.4c6.5-1.1,12.8-3.9,19.4-3.5c5,0.3,10,2.5,14.9,1.3c1.1-0.3,2.3-0.8,2.7-1.9
		C332.5,114.6,332.2,113.4,331.5,112.5"/>
	<path class="st0" d="M426.4,92.5c-0.1,0-0.3,1.2-1.8,0.9c-2.8-0.7-5.3-2.5-7.9-3.7c-1.3-0.6-3-1.5-4.4-1.6
		c-1.2-0.1-2.3,0.8-2.7,0.8c-0.5,0-3.8,2.1-4.4,3.6c-0.6,1.6,0,4.7-0.1,6.4c-0.2,3.7-0.3,7.7-1.6,11.2c-0.7,2-2.1,3.7-2.6,6.1
		c-4.7,1.5-9.4,2.9-14.1,4.4H386V118c0.9-0.3,1.8-0.6,2.6-0.9c0-0.3,1.2-0.9,1.8-0.9c0-0.3,1.8-0.9,2.6-0.9c3.4-1.4,6.2-3.9,7-7.9
		c1.5-1.6,1.4-3.5,1.2-5.5c0-0.5-1.1-3.6-1.2-3.4c0.5-3.1-4.1-4.1-5.4-6c0,0-0.9-0.9-0.9-0.9c1.2-1.3,6-4.1,4.4-7.9
		c0,0-1.5-1.3-1.8-1.8c2.7-2.3,5.3-4.7,7.9-7c1.7-2.3,2-4.6,4.4-6.1v-2.6c-2-0.6-4.2-1.4-6.1-2c-1.6-0.4-3.3-0.3-4.9-0.7
		c-2-0.5-3.8-1.9-5.9-2.1c-0.7-0.1-5.9,0.2-6,0.4c2.1-3.6,7-7.7,10.5-9.7c-0.1-3.9-1-4.8-3.5-6.2v-7c2.3-1.2,4.7-2.3,7-3.5v-1.8
		c1-1,0.4,0,0.9-1.8c-2-1.1-4.1-2.2-7-2.6c0-0.1-0.8-1.7-1.6-3c-1.4-2.2-2.6-1.8-4.7-0.6c-0.7,0.4-3.6,1.9-1.5,2.6
		c2.1,0.7,0.4,6-0.7,7.3c-0.7,0.8-7.3,3.5-7.3,2.5v2.6c2.6,0.3,5.3,0.6,7.9,0.9v7c-3.9,0-4.8,0.6-7,1.8c-0.3,0.1-0.1,3.3,0.2,3.7
		c0.7,0.8,2.3,0.7,3.2,0.5c0.1,0.2,0.3,1.9,0.1,1.9c-2.7,0.6-3.3,1.6-5.3,2.6c-0.2,8.2,2.7,8.3,8.8,7.9c1.5-0.1-3,3.1-2.5,2.8
		c-0.9,0.7-11,7-12.6,8.1c-0.7,0.5-2.2,1.1-2.9,1.5c-0.8,0.4-2.5,1-3.3,1.6c-2.1,1.5-4.8,2.9-6.7,4.3c-0.8,0.6-1.3,1.6-2.2,2.2
		c-1.6,1.2-3.8,2.2-5.8,2.4c0.3-2.2-1.5-2.6-0.3-5.4c0.9-2,2.7-4,4.6-5.1v-0.9c-3,0.7-9.9,4-11.4,6.2c-1,1.4,0,2-1.8,3.5
		c0,5.8,1,7.8,2.6,11.4c0.7,0.2,5,1.9,5.2,1.7c0.6-0.9,2.5-1.2,3.6-2.1c3.3-2.5,5.9-5.8,9-8.4c1-0.8,1.9-0.6,2.9-1.4
		c1.8-1.5,2.7-3.2,4.5-4.2c1.7-0.9,3.3-1.9,4.7-3.2c1.1-1,3.8-2,4.5-3.5c1-1.9,9.4-5.4,10.8-6.2c2.2-1.2,4.9-2.4,7.4-2.5
		c0.2,2.3-2.3,3.3-3.2,5.2c-2.2,5-9.2,6.5-11.6,6.9c-0.2,0.1-3.2,2.1-1.7,7.9c1.7-0.3,3.5-0.6,5.3-0.9c0.3-0.6,0.6-1.2,0.9-1.7
		c0.9,0,2.6-0.6,2.6-0.9h0.9c-0.9,3.3-3.4,4.1-6.2,5.3V96c0.3,0,0.9,0.6,0.9,0.9c1.5-0.3,2.9-0.6,4.4-0.9c4-0.8,6.7,6.2,6.9,6.3
		c0.1,1.7-1.2,5-2.5,6c-1,0.7-0.1-0.1-0.9,0.9h-0.9v-2.6c0.3,0,2-4.1-1.7-7c-0.2,0-3.9,0.2-3.9-0.1c0-0.2-2.8,0.1-4,0.1
		c-2,1.8-4.1,3.5-6.1,5.3c-1,1.5,0,2-1.7,3.5c-0.1,5.3,1.1,7,4.4,8.8c-1.2,4.5-2.1,1.8-5.3,3.5c-0.3,0.2-0.8,1.3-1.8,1.8
		c0.2,3.7,1.2,4.1,1.8,7c3.9,0,7.8-0.4,11.5-1.6c1.1-0.3,9.2-2.3,9.5-2.9c1.3-3.4,18.8-1.8,18.6-4.3c-0.9-8.2-1.8-16.4-2.6-24.6
		c5.8,0.4,7.2,3.2,11.4,4.4c2.1-0.3,4.1-0.6,6.2-0.9c0.9-2.1,1.8-4.1,2.6-6.2C428.8,93,428.5,92.1,426.4,92.5 M384,110.1
		c-0.7,1.2-1.6,3.2-3.3,2.6c-1.8-0.7-0.7-4.4-0.1-5.7c0.5-0.9,1.1-1.8,1.7-2.6c0.2-0.3,0.6-1.1,0.9-1.2c0.7-0.2,1.8,0.8,2.6,0.9
		C385.2,105.9,385.2,108.2,384,110.1"/>
	<path class="st0" d="M473.9,75.8c0.3,0.9,0.6,1.7,0.9,2.6c0.1,0.3,3.1-0.5,3.5-0.7c1.2-0.6,1.4-1.5,1.4-2.8c0-0.6,0-1.3,0.1-1.9
		c0.1-1,0.7-1.6,1-2.4c0.1-0.3-0.1-0.8,0.2-1c0.3-0.2,0.9,0,1.2,0.1c0.9,0.3,1.6,0.8,2.4,1.2c0.5,0.2,2.3,2.1,2.6,2.2
		c1.1,0.1,2.2,0.1,3.3,0.1c0.7-2.4,1.1-3.7,0.5-6.3c-0.2-0.8-1.4-4.9-2.1-5.1c-1.8-0.6-3.5-1.2-5.3-1.8c0,0-1.6,0.1-2.6-0.9
		c2-0.8,3.4-1.6,6.2-1.8c0.2-0.8,0-7.9,0-7.9c0,0,1.5-0.9,0.9-2.6c-0.6-0.3-1.2-0.6-1.7-0.9v-1.8h2.6v-2.6c-2.7-1-5.5-1.2-7-3.5
		c-5.8-0.2-6.3,0.4-7,5.3c-6.8,1.2-7.7,1.7-14.1,1.8c-0.5,1.4-1.6,4.4-0.9,7h0.9c1.4,5.2-3,11.3-5.3,13.2c0,2.5-0.4,5.8,0.9,7
		c1.1,1,1-0.6,2.6,1.8c6.5-0.3,5.9-6,5.9-10.9c0-1.6,0.9-14.3-1.5-14.6c2.9,0.3,5.8,0.6,8.8,0.9c0.3,1.5,1.9,3.9,0.9,6.1
		c-0.9,0.6-1.7,1.2-2.6,1.8c-0.8,0.9-0.7,1.9-1.8,2.6v0.9h3.5C471.9,66.5,470,72.5,473.9,75.8"/>
	<path class="st0" d="M503.7,53.6c-0.9-1.7-1.8-3.5-1.8-5.5c0-1.3,0.1-2.6,0.1-4c0,0-1.4-1.1-1.8-1.8h-3.5
		c-0.7,6.3-2.7,11.5-2.6,18.5c3.2,0,5.5-0.2,7-1.8c2.1-0.5,1.9-0.9,3.5-1.8C505.8,56.8,504,54.3,503.7,53.6"/>
	<path class="st0" d="M442.3,63.7c0.7,1.2,0.2,3.3,0.1,4.6c0,0.7-0.2,1.5,0,2.3c0.1,0.5,0.7,1.4,0.7,1.8c0,0.5,0,1,0.1,1.5
		c1.7-0.7,3.9-2,5-3.5c0.6-0.8,1.1-1.8,1.4-2.8c0.5-1.4,0.1-1.3-0.3-2.4c-0.4-1.3-0.1-1.6-0.9-2.6c-0.5-0.6-1.3-1.3-1.9-2
		c-0.4-0.5-2.1-3.2-2.7-3.2h-2.6c-1,1,0,0.4-1.8,0.9c0.4,1.2,0.7,2.7,1.3,3.9C441.3,62.8,441.9,63.1,442.3,63.7"/>
	<path class="st0" d="M460.2,78.9c-0.4,0.3-0.7,0.8-0.9,1.5c-0.7,2.1-1.7,4-3.2,5.6c-0.9,1-1.9,1.8-3,2.6c-0.2,0.1-2.4,2.1-2.2,2.2
		c-2.5-0.1-5-5.1-6.1-7c-0.7-1.2-0.7-3.8-1.8-4.4h-1.8c0.4,2.6,0.3,5.4,0.8,8c0.4,2.1-0.4,3.5-0.3,5.6c0.1,2.1,0.6,3.7-0.4,5.7
		c-0.8,1.7-2.2,3.1-2.3,5c-0.1,1.3,0,2.7,0.2,4c0.3,2.1,1.2,8.5,4.5,7.5c2.9-0.9,1.7-3,2.3-5.2c0.2-0.9,1-1.6,1.3-2.5
		c0.3-1.1,0.3-2,0.9-2.9c1.2-1.8,2.1-3.8,3.2-5.7c0.6-0.9,0.5-1.8,0.9-2.8c0.4-1.1,0.9-1.4,1.8-2.1c1.4-1,2.8-3.2,3.7-4.7
		c0.5-0.7,0.8-1.6,1.4-2.2c0.6-0.6,1.4-0.8,1.9-1.5c0.4-0.5,0.6-1.4,0.7-2c0.5-1.6,1-3.3,1.1-5C461.9,78.3,460.9,78.3,460.2,78.9"/>
	<path class="st0" d="M474.9,89.8c2.6,0.1,3.9,3.4,6.8,2.6c1.3-0.4,2.6-1.1,3.8-1.8c2.2-1.4,4.3-3.6,6.9-4.3
		c0.5-1.8-0.1-0.8,0.9-1.8c0-2.5-0.3-3.8-0.9-5.3c-8.7,0.3-14.1,4.8-20.2,7.9C472.1,87.2,474.8,89.6,474.9,89.8"/>
	<path class="st0" d="M497.6,96c-5.1-0.1-11.6,0.2-14.1,2.6c-3.2-0.3-4.1-1.3-5.3-3.5c-1.5,0.3-2.9,0.6-4.4,0.9
		c0.3,2.4,0.6,4.7,0.9,7c1,0.8,0.1-0.1,0.9,0.9c0.6,0.8,5.2-2,5.8-2.4c1.6-1.3,2.6-1.1,4.6-1.1c0.1-1.8,6.3-0.5,6.3,0.1
		c-0.2,2.2-0.3,4.4-0.5,6.6c-0.1,1.1,0.2,2.3-0.1,3.4c-0.3,1.3-2.5,5.6-4,6c-2.6,0.8-5.8,0.7-8.5,0.7c0.5,4.3,2.3,6.2,2.6,10.5
		c0.6,0,1.7,0.6,1.7,0.9c0.7,0,5.7-2.1,6.2-2.6c1.2-0.3,2.2-0.8,3-1.6c1.2-1.3,1.5-1.9,2.2-3.6c1-2.2,2.4-4.2,3.1-6.6
		c0.5-1.9,0.8-3.8,1.3-5.7c0.2-3.3,1.7-7,0-8.8C498.8,97.4,498.4,97.6,497.6,96"/>
	<path class="st0" d="M593.3,73.2c-0.1-0.2-2-1.6-2.6-2.6c0,0-6.9-0.8-7.4-0.7c-2.6,0.3-7,2.2-9-0.5c-0.9-1.2-0.2-2.9-1.2-4.2
		c-0.8-1.1-2.4-1.2-3.1-2.5c-0.3-0.5-0.6-3.4-0.3-3.5c4.7-0.9,12.7-2.9,14.9-6.1c0.3,0,0.9-0.6,0.9-0.9c-1.6-0.9-2.6-1.9-3.5-3.5
		c-10.3,0.3-15.2,5.3-25.5,5.3v2.6c1.5,0.3,2.9,0.6,4.4,0.9c2.6,4.4,5.3,8.8,7.9,13.2c-0.5,2-0.6,2.9-2.6,3.7
		c-0.3,0.1-4.1,1.3-4,1.4c-0.6-0.9-0.4-1.7-0.5-2.7c-0.2-1.6-0.4-1.9-1-3.2c-0.1-0.2-0.3-0.2-0.5-0.1c-0.4,1.3-1.6,1.9-2.1,3.2
		c-0.6,1.7-0.9,2.9-1.6,4.2c-0.1,0.3-1.1,3.1-1,3.1c-2,1.8-4.1,3.5-6.1,5.3c-0.8,0.7-3.4,0.1-3.6-0.8c-2.5,0.2,1.5-4.6,1.9-5.3
		c1.7-2.3,2.4-3.9,1.7-6.7c-0.3-1.1-1.2-4.8-2.7-4.8h-2.6c-1.3-3.8,1.2-3.4,2.6-6.5c0.2-0.5,0.5-6.7,0.8-6.6
		c1.8,0.2,1.7-4.2,1.9-5.3c-1.7-0.1-8.8-0.9-9.7-1.8c-3.8,0.2-3,0.5-5.3,1.8c1.5,2.6,3.6,3,7,3.5c-0.1,6-1.5,7.7-3.5,11.4h-2.6
		c-1.7,0-2.5-4.8-3.3-5.9c-0.3-0.5-3.6-3.8-4-3.7c-1.2,0.1-3.9,0.1-5,0.8c0.4,2.8,1.2,4.4,2.6,6.2c0.6,0.3,1.2,0.6,1.8,0.9
		c0.6,0.3,0.4,7,0.5,8c0.1,1.5-0.4,5.7,1.2,6.2c1.7,0.5-0.3,12.1-0.9,12.1c-1.8,0-1.2,5.1-1.7,6.2c-0.6,1.4-1.7,2.4-2,3.9
		c-0.5,2.5,3,7.9,4.3,9.8c0.7,1.1,1.1,3,2.8,3c3.4-0.1,4.9-5.4,7.2-7c1-0.7,2.5-0.3,3.5-1c1.2-0.8,4.7-4.8,4.5-6
		c3.3-0.3,2-7.5,5.6-5.4c0.8,0.5,3.2,6.2,3.2,6.2c4-0.2,3.7-1.2,6.1-2.6c0.5-0.3-0.5-9.8-1.7-9.7c0.1-1.9,0.3-4.3,1.6-5.5
		c1.1-1,3.3-0.7,3.7-2.2c1.3,0.2,2.8,0.3,3.5,1.3c1.2,1.8,0.1,3.7,0,4.9c-0.5,4.5,0.9,8.3,1,12.7c0,3.4-0.2,6.7-0.2,10.1
		c0,4.2-0.1,7.4-1,11.4c-0.8,3.6-0.3,8.1,1,11.5c0.6,1.7,3.9-1,4.3-1.7c0.7-1.3,1.1-3.2,1.2-4.6c0.2-2.6-0.2-5.2-0.5-7.8
		c-0.2-2.5-0.6-5.1-0.3-7.6c0.2-1.9,1.3-3.8,1.4-5.6c0.2-3.4-0.8-8.6,0.9-10.5v-0.9c1.7,1.1,4.2,2.6,5.3,4.4c4.1,0,5.4-0.6,7.9-1.8
		C591.6,90.2,596.2,78.4,593.3,73.2 M534.5,76c0.5-1,4.2-3.2,5.1-2.6c0.1,0.1,0.2,0.1,0.3,0.2c0.3,0.2,0.9,2,1.1,2.4
		c0.8,3.2-2.9,7.3-5.6,8.5C533.7,83,533.6,77.9,534.5,76 M539.5,97.5c-1.1,0.9-2.7,1.2-5,0.3c0.1-4.6,0.3-3.4,1.8-6.2
		c2.5,0,3.8,0.3,5.3,0.9C541.2,94.7,540.6,96.5,539.5,97.5 M581.9,88.1c-0.4,0.7-4.1-0.4-4.8-0.9c-2-1.5-1.5-3.8-1.3-6
		c1.2-0.4,1.1-7.3,2.6-7.1c3.1,0.3,7.7,1.8,7.9,5.5C586.4,82.7,583.4,85.6,581.9,88.1"/>
	<path class="st0" d="M631.8,57.1c0.3,0.1,0.7,0,0.9,0.3c0.1,0.1,1.3,0.8,1.9,0.9c-0.1,0.5,0.3,0.9,0.8,1.1c1.8,0.6,3.8,0.2,5.6,0.1
		c0.5,0,2.2-0.6,2.6-0.8c0.9-0.5,2-0.6,3-0.9c0.5-0.2,0.9-0.4,1.3-0.7c0.5-0.4,3.6-1.3,4.3-1.8c0.5-0.3,1.2-2.2,1.7-2.3
		c0.6-0.1,7.8-1.1,7.8-0.8c0.5,2.2,11.2,0.7,13.3-0.1c-0.2-2.1-0.4-2.2-0.9-3.5h-8.8c0.1,0,0.7-3.8,0.9-4.4c0,0,0,0,0-0.1
		c0.3-0.3,2.1,0.2,2.5,0.1c1.1-0.1,1.4-0.8,2.2-1c1.6-0.4,3,1,4.6,0.7c0.3-0.1,3.6-1.7,3.7-1.7c-0.1-0.4-0.4-2.4-0.8-2.5
		c-2.1-0.8-5.4-0.9-8.8-0.9c-0.2,0-1.4-3.8-1.7-4.3c-0.3-0.5-0.8-1-1.3-1.4c-0.6-0.5-1.6-0.7-2.1-1.2c-0.2-0.2-2.6-0.1-2.8-0.1
		c-3.8,0.2-3,0.5-5.3,1.8c-0.4,0.2,0,4.6,0,5.1c0,1.2,0.5,3.4-0.2,4.4c-0.4,0.7-1.2,0.8-1.5,1.6c-0.7,1.6-2,2.8-2.7,4.4
		c-0.4,0.9-0.4,2.8-1.7,2.9c-5.6,0.6-11.1,1.2-16.7,1.8c0.3-2.8,0.8-2.6,1.8-4.4c0.2-0.3,1.5-0.6,1.9-0.7c0.7-0.2,1.4-0.5,2.2-0.7
		c1.5-0.4,3.1-0.8,4.6-1.1c1.6-0.3,3.2-0.6,4.7-0.9c0.8-0.1,1.3,0.1,1.5-0.8c0.1-0.5,0.1-1.5-0.2-1.9c-0.4-0.6-1.1-0.4-1.6-0.8
		c-0.4-0.3-0.5-0.9-0.9-1.1c-0.8-0.5-2.4-0.1-3.3,0c-1.1,0.1-2.3,0.1-3.4,0.1c-1.3-0.1-0.9-0.3-1.5-1.2c-0.7-1.1-2.2-1.4-3.2-2.2
		c-1.3-1.2-3.2-1-4.3,0.3c-1,1.2-0.3,2.8-0.5,4.2c-0.3,1.8-1.4,3.4-2,5.1c-0.4,1-0.9,2.6-1.6,3.5c-0.9,1.2-2.2,1.7-3.1,3.1
		c-0.2,0.4-1.8,4.7-1.7,4.7c2.1-0.2,4-1.2,6-1.7C630,57.2,631,57,631.8,57.1"/>
	<path class="st0" d="M683.8,98.7c-0.1-3,0-3.2-1.8-4.4c0-0.3-0.6-0.9-0.9-0.9c-2.3,4.3-4.4,7.3-5.3,13.2c-0.1,0.4-6.1,1-6.6,1
		c-2.9,0.2-4.8-1-7.4-1.9c-1-0.3-0.5-5.2-0.7-6.2c-0.4-2.4-1-4.8,0.3-7.1c0.3-0.6,0.8-1.1,1.3-1.4c2.3-1.2,4.7-2.6,6.7-4.4
		c0.9-0.8,2.2-2.5,2.9-3.5c0.9-1.3,1.1-2.7,2-4.1c1.2-1.7,2.8-3.1,2.6-5.3c-0.1-1.1-0.4-2.2-0.8-3.2c-0.2-0.5-1.7-3.5-2.1-3.4
		c-1.4,0.1-2.8,0-4.2,0.3c-0.4,0.1-1.1,0.1-1.5,0.4c-0.1,0.1-0.9,1.3-0.6,1.2c-1.9,0.5-3.3,0.6-5,1.5c-0.8,0.5-1.9,0.6-2.6,1.1
		c-1.3,0.8-0.9,1.1-2.6,0.8c-0.7-0.1-2.8-0.8-2.8-1.8v-0.9c-1.7-1-4.4-0.8-7-0.9c0.8-3.2,1.6-1.9,1.7-6.2c-2.3,0.3-4.7,0.6-7,0.9
		v0.9c-1.2,0.3-2.6,0.3-3.8-0.2c-0.1,0-2.2-1.5-1.6-1.5c-0.7,0.1-6.8,0.5-6.9,0.9c-0.7,2.8-2.1,5.3-3.7,7.7
		c-0.8,1.1-1.6,2.1-2.3,3.2c-0.3,0.5-0.8,1-1,1.6c-0.2,0.7,0,1.2-0.5,1.8c-0.4,0.5-0.9,0.6-1.2,1.2c-0.3,0.6-0.1,1.2-0.7,1.6
		c-0.5,0.4-0.9,0.4-1.3,0.9c-0.2,0.3-0.4,0.7-0.5,1c-0.5,0.9-0.9,1.9-1.2,2.8c-0.4,1.2-0.6,2.5-0.8,3.7c-0.1,0.7-0.4,1.2,0,1.8
		c0.3,0.5,0.8,0.8,1.1,1.2c0.5,0.8,0.4,1.9,1,2.7c0.5,0.7,1.4,1.3,2.2,1.6c0.8,0.2,1.7,0.5,2.5,0.7c0.6,0.2,6.4,1.1,6.5,0.7
		c-0.1,1.5-0.5,3.1-1.4,4.3c-2,2.7-6.1,3.6-8.9,5.3c-1,0.6-2.9,1.3-2.9,2.7c0,0.6,5.2-0.4,5.5-0.5c1.6-0.6,5.2-1.5,6.5,0.7
		c0.9,1.4-0.2,3.1,0.2,4.7c0.5,2.3,2.8,6.6,5.8,5.2c3.1-1.4,2.1-6.3,2.6-8.9c0.6-3.6,1.5-8,3.7-10.9c1.8-2.4,14-7.2,10.8-11.8
		c-1-1.4-3.5-0.4-4.8-1.7c-1.5-1.5-0.8-3.3,0.3-4.8c1.1-1.5,2.8-1.7,4.4-2.4c0.8-0.3,2.9-2.1,3.6-2.1c3.3,0,6.6,0.1,8.8,0.9
		c0.1,0,0.2,3.8,0.1,4c-0.1,0.3-1.7,2.4-2.1,2.7c-1.1,0.9-2.9,0.5-4.1,1.1c-0.3,0.2-0.8,1.3-1.8,1.8c-0.8,1.9-1.6,3.8-1.9,5.9
		c-0.3,1.8,0.5,3.5,0.5,5.3c0,1.9-0.5,3.6,0.2,5.4c1.1,2.5,1.6,5.2,3.7,7.1c2.4,2.1,5.9,3.5,9.1,3.7c3.4,0.3,6.8-1.3,10.1-1.9
		c2.6-0.5,4.1-2.3,6.3-3.5C685.4,106.6,686.4,101.2,683.8,98.7 M625.8,77.6h0.9c0.8,0.4-1.7,1.7-1.8,1.8
		C625.3,78.7,625.5,78.2,625.8,77.6 M631.8,90.7c-0.2,0.3-0.5,0.6-1.2,0.8c-0.8,0.3-2.5,0-3.3-0.5c-1.1-0.7-1.2-1.6-1.5-2.8
		c0.6,0.1,0.9-0.3,1-0.8c0.5,0,5,0.6,5,0.8C632,89.2,632.2,90,631.8,90.7 M637.3,96.9h-2.7c0.7-2.4,0.2-2,2.7-2.6V96.9z"/>
	<path class="st0" d="M759.4,105c-0.2-1.2-2.2-6.9-3.5-7.2c-2.4-0.6-4.2-2-6.1-2.6c-3-1-7.1-0.7-10.2-1c-3-0.3-6.6,0-9-1.7
		c1.5-2.1,1.1-5.4,2.3-7.7c0.7-1.4,0.5-0.9,2-1.2c0.9-0.2,1.8-0.6,2-1.5c1.5,0.2,2.4-1.4,3.5-2.1c1.5-0.9,3-1.7,4.7-2.1
		c1.4-0.3,2.7-0.4,3.8-1.4c1.2-1,1.4-1.4,2.9-1.9c0.7-0.2,1.2-0.8,1.7-1.1c1.9-1.1,3-1.9,3.6-4c0.1-0.4,1-4.2,0.7-4.2
		c-1,0-15,0.3-15,0.1c-1.3-0.4-3-0.1-4.3-0.1c0,0,0-0.6-1.7-0.9c-1.4-0.3-0.5-7.3-0.5-8.2c0.1-2,0.2-4,0.1-6.1
		c-0.1-2-0.5-2.8-1.3-4.4c-0.2-0.3,0-0.9-0.2-1.2c-0.5-0.8-1.3-2.1-1.9-2.8c-0.1-0.1-0.1-0.1-0.2-0.2c-0.8-0.7-2.6-1-3.7-1.2
		c-2.8-0.8-6.2-1.3-8.3,1.2c-1.3,1.6-1.8,4.6-1.2,6.5c0.4,1.3,0.7,2.7,1.2,4.1s1.4,2.3,1.9,3.6c0.4,1,0.4,2.2,0.5,3.2
		c0.2,1.7-0.1,4.9,1.1,6.3c0.1,7.9-1.2,4.4-6.2,6.1c-1.4,0.5-4.3,1-5.4,1.8c-0.7,0.5-0.8,4.3-0.8,4.3c0.6,0,2.3,1.8,2.6,1.8
		c0.9,1,2.3,1.3,3.3,2.2c0,0,1.9,2.8,1.9,2.2c-0.1,1.6-0.6,3.7-1.4,5.1c-0.6,1-1.3,1.1-2,1.9c-0.4,0.5,0.1,1.3-0.3,1.8
		c-0.4,0.7-1.3,0.7-1.7,1.5c-0.9,1.6-0.4,2.3-1.8,3.6c-1.4,1.4-3.4,2.4-5,3.6v4.4c2.8-0.2,4.6-1.3,7-2.3c2.1-0.8,4.6-0.6,6.3-2.3
		c1.1-1.2,1.7-2,3.3-2.5c0-0.3,3.3-0.1,3.6,0c1.5,0.2,1.9,1.2,3.2,1.7c1.3,0.6,2.9,0.3,4.2,0.9c1.3,0.5,2.3,1.6,3.4,2.4
		c0.7,0.5,1.3,0.3,1.9,1c0.6,0.6,0.8,1.6,1.5,2.2c0.8,0.6,1.8,0.6,2.6,1.1c1,0.6,2.4,1.9,2.5,2.2c0.6,0.2,8.5,1.4,8.6,0.9
		c0.2-1.4,2.1-1.5,2.9-2.4C759.5,107.5,759.5,106.2,759.4,105"/>
	<path class="st0" d="M867.4,54.7h-5.3v0.9H856c0-0.3-1.8,0-1.8,0c-1.2-0.3-2.4-0.6-3.5-0.9c-0.5-0.1,0.9-3.4,1.7-3.6
		c0.1-3,0.6-6,1.5-8.9c0.2-0.6,1.3-5.9,2.1-6c0.3-1.2,1.5-3.5,1.7-3.5c1.2-3.2-0.5-4.7,1.8-7c-0.2-2.1-0.4-2.2-0.9-3.5
		c-2.6-0.5-8.5-2.1-12.3-0.9v0.9c-4.1,1.2-8.2,2.3-12.3,3.5c-0.4-2.2-0.9-3.2-0.9-6.1c-0.3,0-0.9-0.6-0.9-0.9
		c-3.3,0-6.6,0.1-8.8,0.9c0.6,3.5,1.1,7,1.7,10.5c-0.3,0.1-4.3,0.7-4.4,0.8c0.2-1.3-1.1-0.8-1.8-1.3c-0.3-0.3-0.9-2.1-0.9-2.1
		c-4.4-0.4-4.3-0.8-8.8,0c0.1,2.9,0.2,4,1.7,5.3c0.1,2.7,0.4,6.5-0.9,7.9c-1.7,1.8-1.8-2.9-3.1-3.8c-1-0.7-1.1-0.9-1.6-1.9
		c-0.2-0.4-0.2-0.9-0.6-1.3c-0.4-0.4-0.9-0.3-1.4-0.8c-0.5-0.5-0.8-1.3-1.2-1.9c-0.3,0-1.8-0.6-1.8-0.9c-3.5,0.1-7.1,0.7-8.8,2.6
		c-0.3,0-1.5,2.6-1.8,2.6c2,2.5,4.3,4.8,5.2,7.9c0.2,0.6,0.3,1.6,0.6,2.1c0.5,0.7,1.2,0.8,1.6,1.7c0.4,0.8,0.1,2.1,0.1,3
		c0,1-0.1,1.9,0,2.9c0.1,1.1,1.1,2.6,1.2,3.5c0.1,4.6,0.3,3.4,1.8,6.2h6.2c0-0.3,0.6-0.9,0.9-0.9c2-3.1-1.9-7.1,1.8-10.6
		c0.7-1-0.1-0.1,0.9-0.9c1.7,4.6,1,8.5,4.4,11.4c-0.3,0.9-0.6,1.8-0.9,2.6c-3.4,0.6-7.6,1.8-10.5,2.6H798c-1,0.2-2.5,1.8-4.4,0.9
		c-0.6-0.9-1.2-1.8-1.8-2.6c-0.6,0-1.8-0.6-1.8-0.9c-2.9,0.3-5.8,0.6-8.8,0.9c0.1,2.8,0.1,4.2,0.9,6.1c0.1,0.3,0.2,0.5,0.2,0.9
		c0.2,1.4,0.4,2.8,0.5,4.3c0.1,0.8,0.1,1.6,0.1,2.4c0,0.9,0.3,1.5,0.5,2.4c0.2,0.6,0.1,1.2,0.3,1.8c0.2,0.5,0.6,1,0.8,1.5
		c0.3,0.8,0.6,1.1,1.2,1.7c1.1,1.1,2.5,0.8,4,0.8c0.4,0,0.9,0.1,1.1-0.2c0.2-0.3,0.2-0.8,0.2-1.1c0.1-0.5,0.2-1,0.4-1.6
		c0.3-1.2,0.7-2.4,1-3.6c0.3-1.1,0.6-2.2,1-3.4c0.1-0.3,0.7-3.3,0.9-3.3c12.9-2.1,25.8-4.1,38.7-6.1c0-0.3,2.3-1.5,3.5-1.8
		c0-0.3,5-0.8,7-2.6c1.2,0,3.5,0.6,3.5,0.9c0.3,0,0.9,1.8,0.9,2.6c4.8-0.1,7-0.4,10.6-1.7c0-0.3,3.5-0.9,5.3-0.9
		c0-0.3,1.2-0.9,1.8-0.9c0.3-0.6,2.6-2.3,3.5-2.6v-3.5C868.9,57.4,867.7,55.6,867.4,54.7 M824.4,61.8H820c-0.2-6.6-0.8-14.4,0-22.8
		h2.6c0.8,1-0.1,0.1,0.9,0.9c-0.3,1.8-0.6,3.5-0.9,5.3h-0.9c-1.9,5.4,1.3,11.4,3.5,13.2C825.1,60.3,824.9,60.4,824.4,61.8
		 M831.4,47.7c-0.9,0.3-1.8,0.6-2.6,0.9c0.1,0-2.4-3.2-0.9-3.6c0.1-0.5,1.4-4.6,1.8-4.3c2.7,1.8,0.4,1.6,1.8,3.5h0.9
		C832.1,46.3,831.9,46.4,831.4,47.7 M835.8,59.1c0.3-2.3,0.6-4.7,0.9-7c1.8-0.5,0.8,0.1,1.8-0.9c2.5,0.1,3.8,0.3,5.3,0.9
		C843.6,57.3,840.7,58.9,835.8,59.1 M846.3,43.2c-0.2,0.1-0.6,0.2-0.8,0.1c0.2,1.5-4.5,1.6-4.4,1.7c-0.3-0.8-0.6-1.6-0.8-2.5
		c0.6-0.2,2-2.8,1.6-2.8c1.4,0.3,2.9,0.6,4.4,0.9C846.4,40.7,846.4,42.9,846.3,43.2 M847.2,32.8c-3.3,0.5-2,0.5-5.3,0
		c-0.3-0.9-0.6-1.8-0.9-2.6c0.6-0.3,1.2-0.6,1.8-0.9c0.4-0.4,0.7-0.9,1.5-0.8c0.2,0,2.9,2.1,2.9,1.8
		C847.2,30.4,847.3,32.8,847.2,32.8"/>
	<path class="st0" d="M851.6,91.6c-0.3-0.6-0.6-1.2-0.9-1.8c-3.2-1.9-7.6,1.4-12.3,0c0-0.3-1.8-0.9-2.6-0.9c0-0.3-0.6-0.9-0.9-0.9
		c0.9-6.3,7.2-4.9,8.8-10.6c1.4-1.4,1.8-5,1.8-7.9c-5,0.3-10,0.6-14.9,0.9c-0.3,0.6-2,1.8-2.6,1.8c0,0.3-1.2,0.9-1.8,0.9
		c0,0.3-2.9,0.9-4.4,0.9c-0.3,0.6-2.6,1.8-3.5,1.8c-0.3,0.6-4.4,2.3-6.1,2.6c-2.4,1.2-4.7,2.3-7,3.5c0.5,2.1,0.9,1.9,1.8,3.5h7
		c4.4-2.6,8.8-5.3,13.2-7.9c1.5,0.3,2.9,0.6,4.4,0.9v2.7c-3.2,1.7-6.5,3.5-9.7,5.3c0,3.2-0.1,4,1.8,5.3c-0.3,0.9-0.6,2.6-1.7,2.8
		c-0.7,0.1-1.4,0.2-2.1,0.3c-0.6,0.1-1.3,0.2-1.9,0.3c-0.8,0.2-1.4,0.7-2.1,0.9c-0.6,0.2-1.1,0.3-1.7,0.6c-0.7,0.4-1.6,0.2-2.3,0.6
		c-0.9,0.4-1.3,1-2.3,1.1c-0.7,0.1-1.4,0.1-2,0.2c-1.4,0.2-2.9,0.4-4.3,0.7c-2.9,0.5-5.7,0.9-8.6,1.3c0.1,2.3,0.4,3,0.9,4.4
		c6.5,2.7,24.8,3.1,29-1.8c2.5,0,3.8,0.3,5.3,0.9c-0.2,1.7-0.5,3.4-1,5c-0.3,1-0.4,2.2-0.5,3.3c-0.2,1.4,0.1,3-0.3,4.4
		c-0.2,0.8-1,1.3-1.1,2.1c-0.1,0.4-0.1,1.8-0.5,1.9c-4,0.9-6.3,4-10.5,4.4c0-0.3-1.8-0.6-1.8-0.9c-1.5-0.3-2.9-0.6-4.4-0.9
		c0.5,3.8,2,3.7,3.5,6.1c2.3,0.5,4.7,1.1,7.1,1.4c1.4,0.2,2.8,0.3,4.1,0.3c0.7,0,1.4,0.2,2-0.1c0.5-0.2,0.9-0.8,1.4-1
		c0.5-0.2,1-0.1,1.5-0.4c0.8-0.4,1.3-1.3,2-1.9c0.7-0.7,1.6-1.2,2.1-2.1c0.5-0.9,0.6-1.9,1-2.9c0.4-1.1,1.1-2.1,1.4-3.2
		c0.2-0.6,0.2-1.2,0.2-1.8c0-0.5,0.1-0.7,0.2-1.2c0.3-1,0.4-2.1,0.5-3.2c0.1-0.5,0-1.1,0.1-1.6c0.1-0.3,0.4-0.6,0.5-1
		c0.9-2.5,0.1-5.1,0.5-7.7c0.3-2.1,0.9-4.2,1.6-6.3c1.8-0.3,3.5-0.6,5.3-0.9c0-0.3,2.9-0.9,4.4-0.9c0.3-0.6,0.6-1.2,0.9-1.8
		c0.6,0,1.8-0.6,1.8-0.9C851.9,92.5,851.9,91.6,851.6,91.6"/>
	<path class="st1" d="M150,74.7c0.1,41.4-33.3,75.1-74.7,75.3C33.9,150.2,0.2,116.7,0,75.3C-0.2,33.9,33.3,0.2,74.7,0
		C116.1-0.2,149.9,33.3,150,74.7"/>
	<path class="st2" d="M50.3,20l0.6,0.5c4.5,3.7,6,5.5,8,12.6L62.5,44c0,0.2,0.1,0.3,0.1,0.5c0,0,0,0.1,0,0.1
		c0.5,1.4,1.8,2.3,3.3,2.4c0,0,0.1,0,0.1,0l8.9,0l8.9,0c0,0,0.1,0,0.1,0c1.5-0.1,2.8-1,3.3-2.4c0,0,0-0.1,0-0.1
		c0.1-0.1,0.1-0.3,0.1-0.5l3.6-10.8c2-7.2,3.5-9,8-12.6l0.6-0.5c1-0.7,1.7-1.8,1.7-3.1c0-1.3-0.7-2.5-1.8-3.2
		c-0.1-0.1-0.3-0.2-0.4-0.2c0,0,0,0-0.1,0c-0.1-0.1-0.3-0.1-0.4-0.1C92.7,11,86.7,9.7,80.8,9.2c-0.9-1.9-3.1-3.3-5.8-3.3
		c-2.6,0-4.9,1.4-5.8,3.3c-6,0.5-12,1.9-17.9,4.1c-0.1,0-0.3,0.1-0.4,0.1c0,0,0,0-0.1,0c-0.2,0.1-0.3,0.1-0.4,0.2
		c-1.1,0.7-1.8,1.8-1.8,3.2C48.7,18.2,49.3,19.3,50.3,20 M54.2,16.8c6.6-2.3,13.2-3.5,20.2-3.6l0.5,0l0,0l0,0v0l0,0v0h0.5
		c7,0.1,13.7,1.3,20.2,3.6c0,0,0.3,0.1,0.3,0.4c0,0.2-0.1,0.3-0.3,0.4l0,0C89.1,21.9,87,32,87,32l-3,9.9l0,0c-0.2,0.6-0.8,1-1.4,1
		l0,0l-7.5,0l0,0l0,0l-7.5,0v0c-0.7,0-1.2-0.4-1.4-1l0,0L63,32c0,0-2.2-10.1-8.9-14.3v0c-0.2-0.1-0.3-0.2-0.3-0.4
		C53.9,16.9,54.2,16.8,54.2,16.8"/>
	<path class="st2" d="M9.6,65.6c0,1.2,0.7,2.4,1.9,3.1c1.1,0.6,2.4,0.7,3.5,0.1l0.7-0.3c5.4-2.1,7.7-2.5,14.9-0.6l11.2,2.3
		c0.2,0,0.3,0.1,0.5,0.1c0,0,0.1,0,0.1,0c1.4,0.2,2.9-0.4,3.7-1.7c0,0,0.1-0.1,0.1-0.1l4.4-7.7l4.5-7.7c0,0,0-0.1,0-0.1
		c0.7-1.4,0.5-3-0.4-4.1c0,0,0-0.1-0.1-0.1c-0.1-0.1-0.2-0.2-0.3-0.3l-7.6-8.5c-5.2-5.3-6-7.5-6.9-13.3l-0.1-0.7
		c-0.1-1.2-0.7-2.3-1.9-3c-1.2-0.7-2.5-0.6-3.6-0.1c-0.1,0.1-0.3,0.2-0.4,0.3v0c0,0,0,0,0,0c-0.1,0.1-0.2,0.2-0.3,0.3
		c-4.9,4-9.1,8.5-12.5,13.4c-2.1-0.2-4.4,1.1-5.7,3.3c-1.3,2.3-1.3,4.9,0,6.7c-2.5,5.4-4.4,11.3-5.4,17.6c0,0.1-0.1,0.3-0.1,0.4
		c0,0,0,0,0,0.1h0C9.6,65.3,9.6,65.5,9.6,65.6 M14.2,63.9c1.3-6.8,3.6-13.2,7-19.3l0.3-0.5h0l0,0v0h0v0l0.3-0.5
		c3.6-6,7.9-11.2,13.2-15.7c0,0,0.3-0.2,0.5-0.1c0.2,0.1,0.2,0.3,0.2,0.4l0,0c0.3,7.9,8,14.8,8,14.8l7,7.5l0,0
		c0.4,0.5,0.5,1.2,0.2,1.7l0,0L47.2,59v0l0,0l-3.8,6.5l0,0c-0.3,0.6-1,0.8-1.6,0.7l-0.1,0l-10-2.3c0,0-9.9-3.2-16.8,0.5h0
		c-0.1,0.1-0.3,0.1-0.5,0C14.2,64.3,14.2,63.9,14.2,63.9"/>
	<path class="st2" d="M54.7,101C54.7,101,54.8,101,54.7,101c1-1.2,1.2-2.8,0.5-4.2c0,0,0-0.1,0-0.1l-4.5-7.7l-4.4-7.7
		c0,0-0.1-0.1-0.1-0.1c-0.8-1.3-2.3-1.9-3.7-1.7c0,0-0.1,0-0.1,0c-0.2,0-0.3,0.1-0.5,0.1L30.7,82c-7.2,1.9-9.5,1.5-14.9-0.6L15,81.1
		c-1.1-0.5-2.4-0.5-3.5,0.1c-1.2,0.7-1.8,1.9-1.9,3.1c0,0.2,0,0.3,0,0.5l0,0c0,0,0,0,0,0.1c0,0.1,0,0.3,0.1,0.4
		c1,6.3,2.8,12.2,5.4,17.6c-1.2,1.7-1.3,4.4,0,6.7c1.3,2.3,3.6,3.6,5.7,3.3c3.4,4.9,7.6,9.4,12.5,13.4c0.1,0.1,0.2,0.2,0.3,0.3
		c0,0,0,0,0,0v0c0.1,0.1,0.3,0.2,0.4,0.3c1.1,0.6,2.5,0.6,3.6-0.1c1.1-0.6,1.8-1.8,1.9-3l0.1-0.7c0.9-5.7,1.7-8,6.9-13.3l7.6-8.5
		C54.5,101.3,54.6,101.2,54.7,101 M50.8,99.3L50.8,99.3l-7.1,7.6c0,0-7.7,6.9-8,14.8v0c0,0.2-0.1,0.3-0.2,0.4
		c-0.3,0.2-0.6-0.1-0.6-0.1c-5.3-4.5-9.6-9.7-13.2-15.7l-0.3-0.5l0,0h0v0l-0.3-0.5c-3.4-6.1-5.7-12.5-7-19.3c0,0-0.1-0.4,0.2-0.5
		c0.2-0.1,0.3-0.1,0.5,0h0c7,3.7,16.8,0.5,16.8,0.5l10-2.3l0,0c0.6-0.1,1.3,0.1,1.6,0.7l0,0l3.8,6.5l0,0l3.8,6.5l0,0
		C51.3,98.1,51.2,98.8,50.8,99.3"/>
	<path class="st2" d="M99.7,130l-0.6-0.5c-4.5-3.7-6-5.5-8-12.6L87.5,106c0-0.2-0.1-0.3-0.1-0.5c0,0,0-0.1,0-0.1
		c-0.5-1.4-1.8-2.3-3.3-2.4c0,0-0.1,0-0.1,0l-8.9,0l-8.9,0c0,0-0.1,0-0.1,0c-1.5,0.1-2.8,1-3.3,2.4c0,0,0,0.1,0,0.1
		c-0.1,0.1-0.1,0.3-0.1,0.4l-3.6,10.8c-2,7.2-3.5,9-8,12.6l-0.6,0.5c-1,0.7-1.7,1.8-1.7,3.1c0,1.3,0.7,2.5,1.8,3.2
		c0.1,0.1,0.3,0.2,0.4,0.2h0c0,0,0,0,0.1,0c0.1,0.1,0.3,0.1,0.4,0.1c5.9,2.3,11.9,3.6,17.9,4.1c0.9,1.9,3.1,3.3,5.8,3.3
		c2.6,0,4.9-1.4,5.8-3.3c6-0.5,12-1.9,17.9-4.1c0.1,0,0.3-0.1,0.4-0.1c0,0,0,0,0.1,0l0,0c0.2-0.1,0.3-0.1,0.4-0.2
		c1.1-0.7,1.8-1.8,1.8-3.2C101.3,131.8,100.7,130.7,99.7,130 M95.8,133.2c-6.6,2.3-13.2,3.5-20.2,3.6H75l0,0h0h0l0,0h-0.5
		c-7-0.1-13.7-1.3-20.2-3.6c0,0-0.3-0.1-0.3-0.4c0-0.2,0.1-0.3,0.3-0.4v0C60.9,128.1,63,118,63,118l3-9.9l0,0c0.2-0.6,0.8-1,1.4-1v0
		l7.5,0l0,0l0,0l7.5,0v0c0.7,0,1.2,0.4,1.4,1l0,0l3,9.9c0,0,2.2,10.1,8.9,14.3l0,0c0.2,0.1,0.3,0.2,0.3,0.4
		C96.1,133.1,95.8,133.2,95.8,133.2"/>
	<path class="st2" d="M140.4,84.4c0-1.2-0.7-2.4-1.9-3.1c-1.1-0.6-2.4-0.7-3.5-0.1l-0.7,0.3c-5.4,2.1-7.7,2.5-14.9,0.6l-11.2-2.3
		c-0.2,0-0.3-0.1-0.5-0.1c0,0-0.1,0-0.1,0c-1.4-0.2-2.9,0.4-3.7,1.7c0,0-0.1,0.1-0.1,0.1L99.3,89l-4.5,7.7c0,0,0,0.1,0,0.1
		c-0.7,1.4-0.5,3,0.4,4.1c0,0,0,0.1,0.1,0.1c0.1,0.1,0.2,0.2,0.3,0.3l7.6,8.5c5.2,5.3,6,7.5,6.9,13.3l0.1,0.7c0.1,1.2,0.7,2.3,1.9,3
		c1.2,0.7,2.5,0.6,3.6,0.1c0.1-0.1,0.3-0.2,0.4-0.3v0c0,0,0,0,0,0c0.1-0.1,0.2-0.2,0.3-0.3c4.9-4,9.1-8.5,12.5-13.4
		c2.1,0.2,4.4-1.1,5.7-3.3c1.3-2.3,1.3-4.9,0-6.7c2.5-5.4,4.4-11.3,5.4-17.6c0-0.1,0.1-0.3,0.1-0.4c0,0,0,0,0-0.1h0
		C140.4,84.7,140.4,84.5,140.4,84.4 M135.8,86.1c-1.3,6.8-3.6,13.2-7,19.3l-0.3,0.5v0h0h0l-0.3,0.5c-3.6,6-7.9,11.2-13.2,15.7
		c0,0-0.3,0.3-0.6,0.1c-0.2-0.1-0.2-0.3-0.2-0.4h0c-0.3-7.9-8-14.9-8-14.9l-7-7.5l0,0c-0.4-0.5-0.5-1.2-0.2-1.7l0,0l3.8-6.5l0,0l0,0
		l3.8-6.5l0,0c0.3-0.6,1-0.8,1.6-0.7l0,0l10,2.3c0,0,9.9,3.2,16.8-0.5h0c0.1-0.1,0.3-0.1,0.5,0C135.9,85.7,135.8,86.1,135.8,86.1"/>
	<path class="st2" d="M95.3,49C95.3,49,95.2,49,95.3,49c-1,1.2-1.2,2.8-0.5,4.2c0,0,0,0.1,0.1,0.1l4.5,7.7l4.4,7.7
		c0,0,0.1,0.1,0.1,0.1c0.8,1.3,2.3,1.9,3.7,1.7c0,0,0.1,0,0.1,0c0.2,0,0.3-0.1,0.5-0.1l11.2-2.3c7.2-1.9,9.5-1.5,14.9,0.6l0.7,0.3
		c1.1,0.5,2.4,0.5,3.5-0.1c1.2-0.7,1.8-1.9,1.9-3.1c0-0.2,0-0.3,0-0.5v0c0,0,0,0,0-0.1c0-0.1,0-0.3-0.1-0.4
		c-1-6.3-2.8-12.2-5.4-17.6c1.2-1.7,1.3-4.4,0-6.7c-1.3-2.3-3.6-3.6-5.8-3.3c-3.4-4.9-7.6-9.4-12.5-13.4c-0.1-0.1-0.2-0.2-0.3-0.3
		c0,0,0,0,0,0l0,0c-0.1-0.1-0.3-0.2-0.4-0.3c-1.1-0.6-2.5-0.6-3.6,0.1c-1.1,0.6-1.8,1.8-1.9,3l-0.1,0.7c-0.9,5.7-1.7,8-6.9,13.3
		l-7.6,8.5C95.5,48.7,95.4,48.8,95.3,49 M99.2,50.7L99.2,50.7l7.1-7.6c0,0,7.7-6.9,8-14.8l0,0c0-0.2,0.1-0.3,0.2-0.4
		c0.3-0.2,0.5,0.1,0.5,0.1c5.3,4.5,9.6,9.7,13.2,15.7l0.3,0.5v0h0v0l0,0l0,0h0l0.3,0.5c3.4,6.1,5.7,12.5,7,19.3c0,0,0.1,0.4-0.2,0.5
		c-0.2,0.1-0.3,0.1-0.5,0v0c-7-3.7-16.8-0.5-16.8-0.5l-10.1,2.3l0,0c-0.6,0.1-1.3-0.1-1.6-0.7l0,0l-3.8-6.5l0,0L99,52.4l0,0
		C98.7,51.9,98.8,51.2,99.2,50.7"/>
	<path class="st2" d="M97,77.1h-0.8h-2h-6.4v3.2h5.5H94l-0.2,0.6C91.2,89,83.6,94.6,75,94.6c-8.6,0-16.2-5.5-18.8-13.7L56,80.2h0.6
		h5.5v-3.2h-6.4h-2H53c-0.6,0-1.1,0.5-1.1,1.1c0,0,0,0,0,0.1c0.8,5.2,3.3,10,7.2,13.7c4.3,4,10,6.3,15.9,6.3
		c5.9,0,11.6-2.2,15.9-6.3c3.9-3.6,6.4-8.4,7.2-13.6c0,0,0-0.1,0-0.1C98.1,77.6,97.6,77.1,97,77.1"/>
	<path class="st2" d="M98.1,71.4c0,0,0-0.1,0-0.1c-0.8-5.2-3.3-10-7.2-13.6c-3.6-3.4-8.2-5.5-13.1-6.1v3.7
		c7.4,1.1,13.6,6.2,15.9,13.5l0.2,0.6h-0.6h-5.5v3.2h6.4h2H97C97.6,72.5,98.1,72,98.1,71.4"/>
	<path class="st2" d="M53,72.5h0.8h2h6.4v-3.2h-5.5H56l0.2-0.6c2.3-7.3,8.5-12.5,15.9-13.5v-3.7c-4.9,0.6-9.4,2.7-13,6.1
		c-3.9,3.6-6.4,8.4-7.2,13.7c0,0,0,0.1,0,0.1C51.9,72,52.4,72.5,53,72.5"/>
	<path class="st2" d="M66.9,87.7v2.2c4.9-1.3,7.2-3.9,8.4-6.2c1.1,2.3,3.5,4.9,8.3,6.2v-2.2c-5.6-1.7-6.9-5.5-7.1-7.2h0.2h6.6v-2.2
		h-6.8v-0.1v-2.9h-2.1v1v1.9v0.1H67v2.2h6.9h0.2C73.8,82.2,72.5,86,66.9,87.7"/>
	<path class="st2" d="M77.6,62h-3.1c-0.2,0-0.4,0.2-0.4,0.4l0,9.4l1.8,0v-8.4h1.8v10.4h1.9V63.4l1.8,0v8.4h1.8v-9.4
		c0-0.2-0.2-0.4-0.4-0.4h-3.1v-1.5h3.9v-1.5h-10v1.5h4.1L77.6,62L77.6,62z"/>
	<path class="st2" d="M69.3,61.3c0.8-0.8,1.1-2.2,1.1-2.2h-1.9c0,0-0.1,1.4-0.7,2.2h-0.6c-0.2,0-0.4,0.2-0.4,0.4v11.4
		c0,0.2,0.2,0.4,0.4,0.4h4.9c0.2,0,0.4-0.2,0.4-0.4v-4.7c0-0.2-0.2-0.4-0.4-0.4l-3.6,0v-1.5h3.6c0.2,0,0.4-0.2,0.4-0.4l0-4.4
		c0-0.2-0.2-0.4-0.4-0.4L69.3,61.3z M70.8,72.1h-2.3v-2.4h2.3V72.1z M70.8,64.8h-2.3v-1.9h2.3V64.8z"/>
</g>
</svg>
