<?xml version="1.0" encoding="utf-8"?>
<!-- Generator: Adobe Illustrator 26.2.1, SVG Export Plug-In . SVG Version: 6.00 Build 0)  -->
<svg version="1.1" id="圖層_1" xmlns="http://www.w3.org/2000/svg" xmlns:xlink="http://www.w3.org/1999/xlink" x="0px" y="0px"
	 viewBox="0 0 421.4 150" style="enable-background:new 0 0 421.4 150;" xml:space="preserve">
<style type="text/css">
	.st0{fill:#FFFFFF;}
	.st1{fill:#595757;}
	.st2{fill:#0D9A3B;}
	.st3{fill:#DFC44A;}
	.st4{fill:#00825F;}
	.st5{fill:#129B3B;}
	.st6{fill:#B2CF57;}
	.st7{opacity:0.25;fill:#DFC44A;}
</style>
<g>
	<g>
		<path class="st0" d="M118.1,130.2c0.8,1,3.2,4.1,3.8,4.9l-0.8,1c-0.5-0.9-1.9-3.1-2.9-4.5v12.9h-1.2v-12.8c-1.2,3-2.8,6-4.3,7.8
			c-0.1-0.3-0.5-0.8-0.7-1.1c1.8-1.9,3.8-5.7,4.9-8.9h-4.4v-1.2h4.6v-4.5c-1.3,0.3-2.7,0.5-4,0.7c-0.1-0.3-0.3-0.7-0.4-1
			c2.9-0.5,6.4-1.2,8.3-2.1l0.8,1c-1,0.4-2.2,0.8-3.5,1.1v4.8h4.1v1.2h-4.1V130.2z M132.3,137.7v6.9h-1.2v-6.8l-8.9,1.4l-0.2-1.2
			l9.1-1.4v-15.6h1.2v15.4l3.3-0.5l0.2,1.1L132.3,137.7z M128.1,134.2c-1-1.1-3.1-2.7-4.9-3.7l0.8-0.8c1.8,1,3.9,2.5,4.9,3.6
			L128.1,134.2z M128.6,127.4c-0.9-1.1-2.8-2.6-4.3-3.6l0.8-0.8c1.6,0.9,3.5,2.4,4.4,3.5L128.6,127.4z"/>
		<path class="st0" d="M164,131.1v1.1h-23v-1.1h8.3v-5.6h-6.8v-1.1h5.2c-0.3-0.8-1.1-2-1.9-2.8l1-0.4c0.9,0.8,1.6,1.9,1.9,2.8
			l-1.1,0.5h8.2c0.6-0.9,1.5-2.3,1.9-3.3l1.2,0.5c-0.5,1-1.2,2-1.8,2.8h5.5v1.1h-7.1v5.6H164z M144.9,126.1c1,1.2,1.9,2.8,2.3,3.9
			l-1.1,0.5c-0.3-1.1-1.2-2.8-2.2-4L144.9,126.1z M144.7,134.1h15.7v10.4h-1.2v-0.9H146v1h-1.2V134.1z M146,135.2v3.1h13.2v-3.1H146
			z M159.2,142.6v-3.2H146v3.2H159.2z M150.5,131.1h4v-5.6h-4V131.1z M157.5,130.2c0.8-1.1,1.9-3,2.5-4.2l1.1,0.5
			c-0.8,1.4-1.8,3.1-2.7,4.2L157.5,130.2z"/>
		<path class="st0" d="M171.7,129.3v15.4h-1.2v-22.4h9.2v7.1H171.7z M171.7,123.2v2h6.8v-2H171.7z M178.4,128.3v-2.1h-6.8v2.1H178.4
			z M179.6,130.3c-1.3,1.7-3.6,3.3-5.7,4.4c-0.2-0.2-0.5-0.6-0.8-0.8c2-1,4.3-2.5,5.3-3.9L179.6,130.3z M186.2,142.4
			c0.5,0,0.6-0.2,0.7-1.9c0.3,0.2,0.7,0.4,1,0.4c-0.1,2-0.5,2.5-1.6,2.5h-2.6c-1.4,0-1.8-0.3-1.8-1.6v-3.5h-2.6
			c-0.4,2.9-1.8,4.5-5.3,5.4c-0.1-0.3-0.5-0.7-0.7-0.9c3.2-0.8,4.5-2.2,4.9-4.5h-2.1v-4.9h9.5v4.9H183v3.5c0,0.5,0.1,0.5,0.8,0.5
			H186.2z M177.2,137.4h7.2v-3h-7.2V137.4z M187.6,134.7c-1.2-1.2-3.5-3-5.6-4.2l0.8-0.6c2,1.2,4.4,2.9,5.6,4.1L187.6,134.7z
			 M191.7,142.6c0,0.9-0.2,1.2-0.7,1.5c-0.6,0.2-1.6,0.2-3.2,0.2c-0.1-0.3-0.3-0.9-0.4-1.2c1.2,0.1,2.4,0.1,2.6,0
			c0.4,0,0.5-0.1,0.5-0.5v-13.4h-8.2v-7h9.4V142.6z M183.5,123.3v2h7v-2H183.5z M190.5,128.2v-2h-7v2H190.5z"/>
		<path class="st0" d="M206,126.5h-8.2v-1.1h8.2V126.5z M198.7,132.3h6.7v1.1h-6.7V132.3z M198.8,130v-1.1h6.5v1.1H198.8z
			 M205.3,143.1h-5.4v1.3h-1.1v-8.6h6.5V143.1z M199.9,136.8v5.2h4.3v-5.2H199.9z M202.3,125c-0.4-0.9-1.4-2.3-2.2-3.3l1-0.4
			c0.9,1,1.8,2.3,2.3,3.2L202.3,125z M212.2,141.8c-1.5,1.1-3.9,2.2-5.8,2.9c-0.2-0.3-0.6-0.7-0.8-0.9c2-0.6,4.4-1.7,5.5-2.6
			L212.2,141.8z M213.1,123.7h-6.3v-1h6.3v-1.6h1.2v1.6h6.7v1h-6.7v1.5h5.9v1h-12.5v-1h5.3V123.7z M220.8,132.4h-13.7v-5h13.7V132.4
			z M207.8,141v-7.5h12.3v7.5H207.8z M208.2,131.4h3v-3.1h-3V131.4z M209,135.7h10v-1.3h-10V135.7z M209,137.9h10v-1.3h-10V137.9z
			 M209,140.1h10v-1.4h-10V140.1z M212.1,128.3v3.1h3.5v-3.1H212.1z M216,141.2c2,0.9,4.2,1.9,5.6,2.7l-0.8,0.9
			c-1.4-0.8-3.5-1.9-5.5-2.9L216,141.2z M219.7,128.3h-3.1v3.1h3.1V128.3z"/>
		<path class="st0" d="M231.4,134.9v8.1c0,0.8-0.2,1.2-0.8,1.4c-0.5,0.2-1.4,0.3-2.9,0.2c-0.1-0.3-0.3-0.8-0.4-1.2
			c1.2,0.1,2.2,0.1,2.4,0c0.3,0,0.5-0.1,0.5-0.5v-7.7c-1.2,0.4-2.3,0.7-3.3,1l-0.4-1.2c1-0.3,2.3-0.6,3.7-1.1v-6.3h-3.4v-1.2h3.4
			v-5.4h1.2v5.4h2.9v1.2h-2.9v6c1-0.3,2-0.6,3-0.9l0.2,1.1L231.4,134.9z M250.1,142.3v1.2h-15.7v-1.2h8.8c1-3.6,2.1-9.4,2.7-13.3
			l1.4,0.3c-0.8,4.1-1.9,9.5-2.9,13.1H250.1z M249.3,127.2h-13.7V126h13.7V127.2z M239.4,140.8c-0.3-2.7-1-7.6-1.9-11.3l1.1-0.3
			c0.9,3.8,1.7,8.6,2,11.2L239.4,140.8z M241.8,125.5c-0.2-1.1-0.8-2.8-1.2-4.1l1.1-0.3c0.5,1.3,1.1,3,1.3,4.1L241.8,125.5z"/>
		<path class="st0" d="M277.1,126.9c0,0,0,0.5,0,0.7c-0.6,11-1.2,14.8-2.3,16c-0.5,0.6-1.1,0.8-2,0.8c-0.9,0.1-2.5,0-4.1-0.1
			c-0.1-0.4-0.2-0.9-0.4-1.2c1.9,0.2,3.6,0.2,4.2,0.2c0.5,0,0.9-0.1,1.2-0.4c1-1,1.6-4.8,2.2-14.7H266c-0.4,5.4-2.1,11.7-9.8,16.5
			c-0.2-0.3-0.6-0.8-1-1c7.5-4.6,9.1-10.5,9.4-15.6h-8.7v-1.2h8.8c0-0.6,0-1.2,0-1.8v-4h1.3v4c0,0.6,0,1.2,0,1.8H277.1z"/>
		<path class="st0" d="M300.6,131.5c1.6,1.6,4.2,3,6.6,3.6c-0.3,0.3-0.6,0.7-0.8,1c-1.4-0.4-2.8-1.1-4.1-1.9v7.1h-3.9
			c2.8,0.8,5.8,1.7,7.7,2.4l-1,0.8c-1.8-0.7-4.7-1.7-7.6-2.5l0.7-0.7h-6.3l1,0.6c-2.1,1.2-5.4,2.2-8.1,2.8c-0.2-0.2-0.5-0.6-0.8-0.9
			c2.6-0.5,5.9-1.5,7.6-2.5h-3.4v-6.9c-1.3,0.8-2.7,1.6-4,2c-0.2-0.3-0.5-0.7-0.8-0.9c2.3-0.7,5-2.2,6.7-3.9h-6.3v-1h6.9v-1.4h-3.8
			v-0.9h3.8v-1.4h-4.3v-0.9h4.3v-1.3h1.2v1.3h6.8v-1.3h1.2v1.3h4.2v0.9h-4.2v1.4h3.8v0.9h-3.8v1.4h6.9v1H300.6z M285.5,126.6h-1.2
			v-3.8H295c-0.2-0.5-0.5-1.1-0.8-1.5l1.2-0.3c0.4,0.6,0.8,1.3,1,1.9h10v3.8h-1.2V124h-19.8V126.6z M301.1,134.1h-11.7v1.5h11.7
			V134.1z M301.1,136.4h-11.7v1.5h11.7V136.4z M301.1,138.8h-11.7v1.5h11.7V138.8z M300.9,133.2c-0.6-0.5-1.2-1-1.6-1.6h-7.7
			c-0.5,0.6-1.1,1.1-1.7,1.6H300.9z M291.9,128.2h6.8v-1.4h-6.8V128.2z M291.9,130.5h6.8v-1.4h-6.8V130.5z"/>
		<path class="st0" d="M326.3,132.9c0,1.4-1.1,2.4-2.4,2.4c-1.4,0-2.4-1.1-2.4-2.4s1.1-2.4,2.4-2.4
			C325.2,130.4,326.3,131.5,326.3,132.9z"/>
		<path class="st0" d="M340.8,125.6h8.4v1.1h-8.4V125.6z M348.7,143H343v1.3h-1.1v-8.7h6.8V143z M341.9,128.9h6.8v1.1h-6.8V128.9z
			 M341.9,132.2h6.8v1.1h-6.8V132.2z M343,136.7v5.1h4.5v-5.1H343z M345.4,124.9c-0.4-0.9-1.3-2.4-2-3.4l1-0.5
			c0.8,1,1.6,2.4,2.1,3.3L345.4,124.9z M353.9,140.2c1.3-0.4,2.7-0.8,4.1-1.2l0.1,1.1c-3,0.9-6,1.9-8.4,2.6l-0.4-1.2
			c0.9-0.3,2.1-0.5,3.4-0.9v-7.6h-3.1v-1.1h7.4v1.1h-3.1V140.2z M358.9,127.6c0.5,9.6,1.9,15.8,3.6,15.8c0.5,0,0.7-1.4,0.8-4.4
			c0.3,0.2,0.7,0.5,1,0.6c-0.2,3.8-0.6,5.1-2,5.1c-2.7,0-4.1-7.2-4.6-17.1H350v-1.2h7.7c-0.1-1.7-0.1-3.4-0.1-5.2h1.2
			c0,1.8,0,3.6,0.1,5.2h5.4v1.2H358.9z M362.2,125.7c-0.5-0.9-1.5-2.4-2.4-3.5l0.9-0.5c0.9,1,2,2.4,2.4,3.3L362.2,125.7z"/>
		<path class="st0" d="M373.8,137.3c-0.2,2.4-0.8,5.3-3.3,7.4c-0.2-0.3-0.5-0.6-0.8-0.9c2.3-1.7,2.8-4.4,2.9-6.5h-3.1v-1.1h3.1v-0.1
			v-3.5h-3.4v-1.1h4.4c0.5-1.5,1-3.6,1.3-5.1l1.1,0.3c-0.4,1.5-0.9,3.4-1.4,4.8h2.4v1.1h-3.2v3.5v0.1h2.9v1.1H373.8z M376.9,125.8
			h-7.5v-1.1h3.4c-0.3-0.9-0.9-2.1-1.4-3l1-0.3c0.6,1,1.3,2.4,1.6,3.3h2.8V125.8z M371.1,131c0-1.1-0.4-2.9-0.8-4.2l1-0.2
			c0.5,1.3,0.8,3.1,0.9,4.2L371.1,131z M383.8,127.8c-0.2,11.3-0.3,14.7-0.9,15.7c-0.3,0.5-0.7,0.7-1.3,0.7c-0.5,0.1-1.3,0-2,0
			c-0.1-0.3-0.2-0.8-0.3-1.1c0.9,0.1,1.6,0.1,2,0.1c0.3,0,0.5,0,0.6-0.4c0.5-0.7,0.6-4.2,0.8-14.5h-2.4c-0.3,7-1.1,12.4-3.9,16.5
			c-0.2-0.2-0.6-0.6-0.9-0.8c2.7-3.6,3.5-9,3.7-15.7h-1.9v-1.1h1.9c0.1-1.9,0.1-3.9,0.1-5.9h1.1c0,2.1-0.1,4.1-0.1,5.9h3.5V127.8z
			 M389.3,132.6v3.9h3.2v1.1h-3.2v7h-1.2v-7H385v-1.1h3.1v-3.9h-3.5v-1.1h4.6c0.5-1.5,1.1-3.7,1.4-5.2l1.1,0.3
			c-0.4,1.6-0.9,3.5-1.4,4.9h2.4v1.1H389.3z M392.4,125.8h-7.8v-1.1h3.7c-0.3-1-0.9-2.2-1.4-3.1l1.1-0.3c0.6,1.1,1.2,2.5,1.6,3.4
			h2.9V125.8z M386.5,131.1c-0.1-1.2-0.5-3-1-4.4l1-0.2c0.5,1.4,1,3.2,1,4.4L386.5,131.1z"/>
		<path class="st0" d="M414.9,131.5c1.6,1.6,4.2,3,6.6,3.6c-0.3,0.3-0.6,0.7-0.8,1c-1.3-0.4-2.8-1.1-4.1-1.9v7.1h-3.9
			c2.8,0.8,5.8,1.7,7.7,2.4l-1,0.8c-1.8-0.7-4.7-1.7-7.6-2.5l0.7-0.7h-6.3l1,0.6c-2.1,1.2-5.4,2.2-8.1,2.8c-0.2-0.2-0.5-0.6-0.8-0.9
			c2.6-0.5,5.9-1.5,7.6-2.5h-3.3v-6.9c-1.3,0.8-2.7,1.6-4,2c-0.2-0.3-0.5-0.7-0.8-0.9c2.3-0.7,5-2.2,6.7-3.9h-6.3v-1h6.9v-1.4h-3.8
			v-0.9h3.8v-1.4h-4.3v-0.9h4.3v-1.3h1.2v1.3h6.8v-1.3h1.2v1.3h4.2v0.9h-4.2v1.4h3.8v0.9h-3.8v1.4h6.9v1H414.9z M399.7,126.6h-1.2
			v-3.8h10.7c-0.2-0.5-0.5-1.1-0.8-1.5l1.2-0.3c0.4,0.6,0.8,1.3,1,1.9h10v3.8h-1.2V124h-19.8V126.6z M415.4,134.1h-11.7v1.5h11.7
			V134.1z M415.4,136.4h-11.7v1.5h11.7V136.4z M415.4,138.8h-11.7v1.5h11.7V138.8z M415.2,133.2c-0.6-0.5-1.2-1-1.6-1.6h-7.7
			c-0.5,0.6-1.1,1.1-1.7,1.6H415.2z M406.2,128.2h6.8v-1.4h-6.8V128.2z M406.2,130.5h6.8v-1.4h-6.8V130.5z"/>
	</g>
	<g>
		<g>
			<path class="st1" d="M354.1,91c0,2.9-2.4,5.3-5.3,5.3c-2.9,0-5.3-2.4-5.3-5.3s2.4-5.3,5.3-5.3C351.7,85.8,354.1,88.1,354.1,91z
				 M348.8,84.9c-3.4,0-6.2,2.8-6.2,6.2s2.8,6.2,6.2,6.2c3.4,0,6.2-2.8,6.2-6.2S352.2,84.9,348.8,84.9z"/>
		</g>
		<g>
			<path class="st1" d="M346.1,94.7v-7.2h3.2c0.6,0,1.1,0.1,1.5,0.2c0.3,0.1,0.6,0.4,0.8,0.7c0.2,0.3,0.3,0.7,0.3,1.1
				c0,0.5-0.2,0.9-0.5,1.3c-0.3,0.4-0.8,0.6-1.5,0.7c0.3,0.1,0.4,0.2,0.6,0.4c0.3,0.3,0.5,0.6,0.8,1l1.3,2h-1.2l-1-1.5
				c-0.3-0.4-0.5-0.8-0.7-1c-0.2-0.2-0.3-0.4-0.5-0.5c-0.1-0.1-0.3-0.2-0.4-0.2c-0.1,0-0.3,0-0.5,0H347v3.2H346.1z M347,90.6h2.1
				c0.4,0,0.8,0,1-0.1c0.2-0.1,0.4-0.2,0.6-0.4c0.1-0.2,0.2-0.4,0.2-0.7c0-0.3-0.1-0.6-0.4-0.8c-0.2-0.2-0.6-0.3-1.2-0.3H347V90.6z"
				/>
		</g>
	</g>
	<g>
		<g>
			<g>
				<g>
					<path class="st2" d="M110.9,63.9l5.1-0.3c0.1,1.6,0.3,2.7,0.8,3.3c0.8,0.9,2.2,1.4,4.3,1.4c1.7,0,3-0.3,3.8-0.9
						c0.8-0.6,1.2-1.4,1.2-2.3c0-0.8-0.3-1.4-1-1.9c-0.5-0.4-1.7-1-3.7-1.9c-2-0.9-3.5-1.6-4.4-2.2c-0.9-0.6-1.7-1.3-2.2-2.3
						c-0.5-0.9-0.8-2-0.8-3.3c0-2.2,0.8-4,2.4-5.4c1.6-1.4,3.9-2.2,6.9-2.2c3,0,5.4,0.7,7.1,2.1c1.7,1.4,2.6,3.3,2.7,5.7L128,54
						c-0.1-1.2-0.6-2.2-1.4-2.8c-0.8-0.7-1.9-1-3.4-1c-1.5,0-2.5,0.3-3.2,0.8c-0.6,0.5-1,1.2-1,2c0,0.7,0.3,1.4,0.9,1.8
						c0.6,0.5,1.9,1.2,3.8,2c3,1.3,4.9,2.3,5.7,3.1c1.2,1.2,1.8,2.7,1.8,4.5c0,2.3-0.9,4.2-2.7,5.8c-1.8,1.6-4.3,2.4-7.5,2.4
						c-2.2,0-4.2-0.4-5.8-1.1c-1.6-0.7-2.8-1.8-3.4-3.1C111.2,67.1,110.9,65.6,110.9,63.9z"/>
					<path class="st3" d="M137.9,53.5h4.7l-0.4,2.3c1.9-1.8,3.8-2.7,5.8-2.7c1.4,0,2.5,0.3,3.3,0.9c0.8,0.6,1.3,1.4,1.5,2.4
						c0.6-0.9,1.6-1.7,2.8-2.4c1.2-0.6,2.5-1,3.8-1c1.5,0,2.7,0.4,3.5,1.2c0.8,0.8,1.3,1.9,1.3,3.2c0,0.6-0.2,1.7-0.6,3.3l-2.4,11.4
						h-5l2.4-11.4c0.3-1.4,0.5-2.2,0.5-2.4c0-0.5-0.2-0.9-0.5-1.2c-0.3-0.3-0.8-0.5-1.4-0.5c-1.3,0-2.4,0.7-3.4,2
						c-0.7,1-1.3,2.6-1.9,5.1l-1.8,8.5h-5l2.4-11.3c0.3-1.3,0.4-2.1,0.4-2.5c0-0.5-0.2-0.9-0.5-1.2c-0.3-0.3-0.8-0.5-1.4-0.5
						c-0.6,0-1.1,0.2-1.7,0.5c-0.6,0.3-1.1,0.8-1.6,1.4c-0.4,0.6-0.8,1.3-1.1,2.2c-0.1,0.4-0.4,1.4-0.7,2.9l-1.8,8.6h-5L137.9,53.5z
						"/>
					<path class="st3" d="M173.4,58.8l-4.9-0.4c0.6-1.7,1.5-3,2.9-3.9c1.4-0.9,3.2-1.4,5.5-1.4c2.4,0,4.2,0.5,5.3,1.5
						c1.1,1,1.7,2.1,1.7,3.5c0,0.6,0,1.2-0.1,1.8c-0.1,0.6-0.4,2.3-1,5c-0.5,2.2-0.7,3.8-0.7,4.7c0,0.8,0.1,1.7,0.4,2.7h-4.8
						c-0.2-0.7-0.4-1.4-0.4-2.1c-0.7,0.8-1.6,1.5-2.5,1.9c-1,0.5-1.9,0.7-2.9,0.7c-1.5,0-2.8-0.5-3.8-1.5c-1-1-1.5-2.3-1.5-3.9
						c0-1.8,0.6-3.2,1.7-4.3c1.1-1.1,3.1-1.7,5.9-1.9c2.4-0.2,4-0.4,4.8-0.7c0.2-0.7,0.3-1.3,0.3-1.7c0-0.5-0.2-1-0.6-1.4
						c-0.4-0.4-1.1-0.5-1.9-0.5c-0.9,0-1.6,0.2-2.1,0.5C173.9,57.6,173.6,58.1,173.4,58.8z M178.1,63.4c-0.3,0.1-0.7,0.2-1.2,0.2
						c-2.5,0.3-4.2,0.8-4.9,1.4c-0.6,0.4-0.8,1-0.8,1.7c0,0.6,0.2,1.1,0.6,1.5c0.4,0.4,1,0.6,1.7,0.6c0.8,0,1.5-0.2,2.1-0.6
						c0.7-0.4,1.2-0.9,1.5-1.4c0.3-0.6,0.6-1.5,0.9-2.8L178.1,63.4z"/>
					<path class="st3" d="M189.9,53.5h4.7l-0.8,3.6c1.7-2.7,3.6-4,5.7-4c0.7,0,1.5,0.2,2.3,0.5l-1.9,4.1c-0.5-0.2-1-0.2-1.5-0.2
						c-0.9,0-1.8,0.3-2.7,1c-0.9,0.7-1.6,1.5-2.1,2.6c-0.5,1.1-1,2.8-1.5,5.2l-1.2,5.9h-5L189.9,53.5z"/>
					<path class="st3" d="M201.5,57.2l0.8-3.8h2.5l0.6-3l5.8-3.5l-1.3,6.5h3l-0.8,3.8h-3l-1.7,7.9c-0.3,1.4-0.4,2.2-0.4,2.4
						c0,0.4,0.1,0.7,0.4,0.9c0.2,0.2,0.7,0.3,1.3,0.3c0.2,0,0.8,0,1.6-0.1l-0.8,3.7c-0.9,0.2-1.7,0.3-2.6,0.3c-1.8,0-3.1-0.3-3.9-1
						c-0.8-0.7-1.2-1.7-1.2-2.9c0-0.6,0.2-1.9,0.7-4l1.6-7.5H201.5z"/>
					<path class="st2" d="M217.6,72.2h-5.3l5.4-25.7h11.4c2,0,3.5,0.2,4.6,0.6c1.1,0.4,2,1.1,2.7,2.2c0.7,1.1,1,2.4,1,3.9
						c0,2.2-0.7,4-2,5.4c-1.3,1.4-3.3,2.3-6,2.6c0.7,0.6,1.3,1.4,1.9,2.4c1.2,2,2.5,4.9,4,8.5h-5.7c-0.5-1.5-1.3-3.7-2.7-6.8
						c-0.7-1.7-1.5-2.8-2.3-3.4c-0.5-0.3-1.4-0.5-2.6-0.5h-2.2L217.6,72.2z M220.7,57.6h2.8c2.8,0,4.7-0.2,5.7-0.5
						c0.9-0.3,1.7-0.9,2.2-1.6c0.5-0.7,0.8-1.5,0.8-2.3c0-0.9-0.4-1.6-1.1-2.1c-0.5-0.3-1.5-0.4-3-0.4h-5.8L220.7,57.6z"/>
					<path class="st3" d="M256.4,64.4h-12.6c0,0.2,0,0.4,0,0.5c0,1.3,0.4,2.3,1.1,3c0.7,0.8,1.6,1.1,2.6,1.1c1.7,0,3-0.9,3.9-2.6
						l4.5,0.8c-0.9,1.8-2.1,3.2-3.5,4.1c-1.5,0.9-3.1,1.4-4.9,1.4c-2.5,0-4.5-0.8-6.1-2.4c-1.6-1.6-2.4-3.7-2.4-6.3
						c0-2.6,0.7-4.8,2.1-6.8c1.9-2.7,4.7-4.1,8.3-4.1c2.3,0,4.1,0.7,5.4,2.1c1.3,1.4,2,3.4,2,5.9C256.7,62.3,256.6,63.4,256.4,64.4z
						 M252.1,61.3c0-0.2,0-0.4,0-0.5c0-1.4-0.3-2.4-0.9-3.1c-0.6-0.7-1.5-1-2.5-1c-1,0-2,0.4-2.8,1.2c-0.8,0.8-1.4,2-1.7,3.5H252.1z
						"/>
					<path class="st3" d="M265.4,58.8l-4.9-0.4c0.6-1.7,1.5-3,2.9-3.9c1.4-0.9,3.2-1.4,5.5-1.4c2.4,0,4.2,0.5,5.3,1.5
						c1.1,1,1.7,2.1,1.7,3.5c0,0.6-0.1,1.2-0.2,1.8c-0.1,0.6-0.4,2.3-1,5c-0.5,2.2-0.7,3.8-0.7,4.7c0,0.8,0.1,1.7,0.4,2.7h-4.8
						c-0.2-0.7-0.4-1.4-0.4-2.1c-0.7,0.8-1.6,1.5-2.5,1.9c-1,0.5-1.9,0.7-2.9,0.7c-1.5,0-2.8-0.5-3.8-1.5c-1-1-1.5-2.3-1.5-3.9
						c0-1.8,0.6-3.2,1.7-4.3c1.1-1.1,3.1-1.7,5.9-1.9c2.4-0.2,4-0.4,4.8-0.7c0.2-0.7,0.3-1.3,0.3-1.7c0-0.5-0.2-1-0.6-1.4
						c-0.4-0.4-1.1-0.5-1.9-0.5c-0.9,0-1.6,0.2-2.1,0.5C266,57.6,265.6,58.1,265.4,58.8z M270.1,63.4c-0.3,0.1-0.7,0.2-1.2,0.2
						c-2.5,0.3-4.2,0.8-4.9,1.4c-0.6,0.4-0.8,1-0.8,1.7c0,0.6,0.2,1.1,0.6,1.5c0.4,0.4,1,0.6,1.7,0.6c0.8,0,1.5-0.2,2.1-0.6
						c0.7-0.4,1.2-0.9,1.5-1.4c0.3-0.6,0.6-1.5,0.9-2.8L270.1,63.4z"/>
					<path class="st3" d="M295.5,72.2h-4.8l0.4-2c-0.9,0.9-1.8,1.5-2.7,1.9c-0.9,0.4-1.9,0.6-3,0.6c-1.9,0-3.5-0.7-4.7-2
						c-1.2-1.3-1.8-3.3-1.8-5.9c0-3,0.9-5.7,2.6-8.1c1.7-2.4,4-3.6,6.8-3.6c2.5,0,4.5,1,5.7,3l2.1-9.7h5L295.5,72.2z M283.8,64.6
						c0,1.3,0.3,2.4,1,3.1c0.7,0.8,1.5,1.1,2.5,1.1c0.9,0,1.8-0.3,2.6-0.9c0.8-0.6,1.4-1.6,1.9-2.9c0.5-1.3,0.7-2.5,0.7-3.7
						c0-1.3-0.4-2.4-1.1-3.3c-0.7-0.8-1.6-1.3-2.5-1.3c-1.5,0-2.7,0.8-3.7,2.5C284.3,60.9,283.8,62.7,283.8,64.6z"/>
					<path class="st3" d="M304.2,53.5h5l-3.9,18.7h-5L304.2,53.5z M305.7,46.4h5l-0.9,4.5h-5L305.7,46.4z"/>
					<path class="st3" d="M314.2,53.5h4.8l-0.5,2.5c1.2-1,2.3-1.8,3.4-2.2c1.1-0.4,2.2-0.7,3.3-0.7c1.6,0,2.8,0.4,3.7,1.3
						c0.9,0.9,1.3,2.1,1.3,3.5c0,0.7-0.2,1.9-0.7,3.7l-2.3,10.5h-5l2.3-10.6c0.3-1.6,0.5-2.5,0.5-2.8c0-0.7-0.2-1.2-0.6-1.5
						c-0.4-0.4-0.9-0.6-1.6-0.6c-0.8,0-1.6,0.3-2.5,0.9c-0.9,0.6-1.7,1.4-2.2,2.5c-0.4,0.7-0.8,2.2-1.3,4.4l-1.6,7.7h-5L314.2,53.5z
						"/>
					<path class="st3" d="M332.1,73.2l5.3,0.8c0,0.5,0.1,0.9,0.3,1.2c0.2,0.3,0.4,0.5,0.8,0.7c0.4,0.2,0.9,0.3,1.6,0.3
						c1.1,0,2-0.2,2.7-0.6c0.5-0.3,0.9-0.9,1.2-1.6c0.2-0.5,0.5-1.5,0.8-3L345,70c-1.8,1.5-3.7,2.2-5.7,2.2c-1.8,0-3.3-0.6-4.5-1.9
						c-1.2-1.3-1.7-3.2-1.7-5.6c0-2.2,0.4-4.2,1.2-6c0.8-1.8,1.9-3.2,3.3-4.1c1.4-0.9,2.9-1.4,4.4-1.4c1.2,0,2.3,0.3,3.4,1
						c1,0.7,1.8,1.6,2.4,2.7l0.7-3.3h4.7l-3,15.5c-0.5,2.5-1,4.3-1.4,5.4c-0.4,1.1-0.8,1.9-1.3,2.6c-0.5,0.6-1.1,1.2-1.8,1.6
						c-0.7,0.4-1.6,0.7-2.6,0.9c-1,0.2-2.1,0.3-3.2,0.3c-2.6,0-4.6-0.4-5.9-1.3c-1.3-0.9-2-2.4-2-4.5C332,73.7,332,73.5,332.1,73.2z
						 M338,64.1c0,1.4,0.3,2.5,0.9,3.2c0.6,0.7,1.4,1.1,2.4,1.1c0.9,0,1.8-0.3,2.6-1c0.8-0.7,1.5-1.6,1.9-2.8
						c0.4-1.2,0.7-2.4,0.7-3.5c0-1.3-0.4-2.4-1.1-3.2c-0.7-0.8-1.6-1.2-2.5-1.2c-0.9,0-1.7,0.4-2.5,1.1c-0.7,0.7-1.4,1.8-1.9,3.3
						C338.2,62.1,338,63.2,338,64.1z"/>
				</g>
			</g>
		</g>
	</g>
	<g>
		<path class="st2" d="M112.4,97h4.4c0.3,0,0.4,0.1,0.4,0.3v6.3c0,0.6,0.1,1,0.3,1.3c0.1,0.3,0.3,0.5,0.6,0.6
			c0.4,0.2,0.8,0.4,1.3,0.5c0.6,0.1,1.4,0.1,2.2,0.1h5.1c2,0,4.4-0.2,7.1-0.7c0.1-0.1,0.2-0.1,0.4-0.1c0.1,0,0.2,0,0.2,0.1
			c-0.2,0.6-0.3,1.3-0.5,2c0,0.3-0.1,0.4-0.4,0.4h-11.9c-0.6,0-1.2,0-1.7-0.1c-0.5-0.1-1.1-0.2-1.6-0.4c-0.4-0.2-0.9-0.4-1.3-0.7
			c-0.3-0.3-0.5-0.7-0.9-1.3l-0.1-0.1c-0.1,0-0.2,0-0.2,0c-1.6,1.2-2.5,2-2.6,2.4c0,0.1-0.1,0.1-0.2,0.1c-0.1,0-0.4-0.4-0.9-1.2
			c-0.1-0.1-0.1-0.3-0.1-0.5c0.9-0.4,2.1-1.1,3.5-2.1c0.1-0.1,0.1-0.2,0.1-0.5v-5h-3c-0.2,0-0.3-0.1-0.3-0.4v-0.8
			C112.2,97.1,112.2,97,112.4,97z M113.6,91.1c0.9,0.5,1.5,0.9,2.1,1.4c0.6,0.5,1.2,0.9,1.6,1.4c0,0,0,0.1-0.1,0.2
			c-0.5,0.7-0.7,1-0.7,1c-0.7-0.7-1.4-1.3-2.2-1.8c-0.6-0.4-1.2-0.7-1.6-0.9c0-0.1,0.3-0.5,0.8-1.1
			C113.5,91.2,113.5,91.1,113.6,91.1z M114,86.3c0.8,0.4,1.5,0.8,2,1.2c0.6,0.4,1.1,0.8,1.6,1.2c0,0,0,0.1-0.1,0.2
			c-0.5,0.7-0.7,1-0.7,1c-0.7-0.6-1.4-1.1-2.2-1.5c-0.6-0.4-1.1-0.7-1.5-0.8c0-0.1,0.3-0.4,0.8-1.1C113.9,86.4,114,86.3,114,86.3z
			 M125.7,85.6c1.2,0,1.8,0.1,1.8,0.3c0,0.2-0.1,0.3-0.3,0.4c-0.2,0-0.2,0.2-0.2,0.5v1.1h6.5c0.1,0,0.2,0.1,0.2,0.3v0.8
			c0,0.2-0.1,0.3-0.2,0.3h-4.1l0.8,0.4c0.2,0.1,0.4,0.2,0.4,0.3c0,0.1-0.1,0.2-0.2,0.2c-0.1,0-0.2,0.1-0.3,0.2
			c-0.3,0.7-0.5,1.3-0.8,1.8h3c0.3,0,0.5,0.1,0.5,0.3v11.2c0,0.4-0.2,0.8-0.7,1.1c-0.5,0.2-1,0.3-1.8,0.4c-0.2,0-0.3-0.1-0.3-0.3
			c0-0.3-0.2-0.9-0.5-1.5c0,0,0-0.1,0.1-0.1c0.7,0,1.1-0.1,1.2-0.2c0.2-0.1,0.2-0.3,0.2-0.5v-9.1h-4.4v1.8h3.4
			c0.1,0,0.2,0.1,0.2,0.3v0.7c0,0.2-0.1,0.3-0.2,0.3h-3.4v1.8h2.2c0.3,0,0.4,0.1,0.4,0.3v4.1c0,0.2-0.1,0.3-0.4,0.3h-4.7v0.7
			c0,0.2-0.1,0.3-0.4,0.3h-0.9c-0.2,0-0.3-0.1-0.3-0.3v-5.1c0-0.2,0.1-0.3,0.3-0.3h2.2v-1.8h-2.9c-0.1,0-0.2-0.1-0.2-0.3v-0.7
			c0-0.2,0.1-0.3,0.2-0.3h2.9v-1.8h-4v11c0,0.2-0.1,0.3-0.4,0.3h-0.9c-0.3,0-0.4-0.1-0.4-0.3v-12c0-0.2,0.1-0.3,0.4-0.3h3.5
			c0-0.1-0.1-0.2-0.1-0.3c-0.3-0.6-0.6-1.2-1-1.8c0-0.1,0.4-0.3,1.2-0.8c0.4,0.6,0.8,1.2,1,1.8c0.2,0.4,0.4,0.7,0.5,1.1h2.7
			c0.3-0.4,0.6-0.8,0.7-1.2c0.3-0.5,0.5-1.1,0.6-1.6c0,0,0,0,0,0H119c-0.1,0-0.2-0.1-0.2-0.3v-0.8c0-0.2,0.1-0.3,0.2-0.3h6.4v-2
			C125.3,85.7,125.5,85.6,125.7,85.6z M124.2,101.7h3.5v-2.1h-3.5V101.7z"/>
		<path class="st2" d="M139.2,90.2c1.2,0.3,1.8,0.4,1.8,0.6c0,0.2-0.1,0.3-0.3,0.4c-0.2,0.2-0.3,0.3-0.3,0.5
			c-0.2,1.7-0.4,3.1-0.6,4.2c-0.1,0.6-0.3,1.2-0.5,1.9c-0.1,0.1-0.1,0.2-0.2,0.2c-0.5-0.2-1-0.3-1.4-0.3c-0.1,0-0.2-0.1-0.2-0.2
			c0.3-0.8,0.6-1.7,0.9-2.7c0.3-1,0.5-2.4,0.6-4.2C138.9,90.3,139,90.2,139.2,90.2z M141.7,85.5c1.2,0,1.8,0.1,1.8,0.3
			c0,0.2-0.1,0.3-0.2,0.4c-0.2,0-0.2,0.2-0.2,0.5v20.9c0,0.2-0.1,0.3-0.4,0.3h-0.9c-0.3,0-0.4-0.1-0.4-0.3V85.8
			C141.3,85.6,141.4,85.5,141.7,85.5z M144.8,90c0.1,0,0.2,0,0.3,0.1c0.5,1.1,0.9,2.3,1.2,3.5c0,0.2-0.1,0.3-0.2,0.4
			c-0.6,0.4-1,0.6-1.4,0.6c-0.4-1.5-0.7-2.8-1-3.8C143.8,90.6,144.1,90.3,144.8,90z M148.4,87.4L150,88c0.2,0.1,0.3,0.2,0.3,0.4
			c0,0.1-0.1,0.2-0.2,0.3c-0.1,0-0.2,0.1-0.2,0.3c-0.1,0.8-0.3,1.4-0.4,2h3.1v-5c0-0.2,0.1-0.3,0.4-0.3c1.2,0,1.8,0.1,1.8,0.3
			c0,0.2-0.1,0.3-0.2,0.4c-0.2,0-0.2,0.2-0.2,0.5v4.2h5.3c0.2,0,0.3,0.1,0.3,0.4v0.8c0,0.3-0.1,0.4-0.3,0.4h-5.3V98h4.7
			c0.2,0,0.3,0.1,0.3,0.4v0.7c0,0.3-0.1,0.4-0.3,0.4h-4.7v5.9h6c0.2,0,0.3,0.1,0.3,0.4v0.8c0,0.2-0.1,0.4-0.3,0.4h-13.9
			c-0.2,0-0.3-0.1-0.3-0.4v-0.8c0-0.3,0.1-0.4,0.3-0.4h6.3v-5.9h-4.6c-0.2,0-0.3-0.1-0.3-0.4v-0.7c0-0.3,0.1-0.4,0.3-0.4h4.6v-5.6
			h-3.5c-0.2,0.7-0.5,1.5-0.7,2.1c-0.3,0.6-0.6,1.2-0.9,1.7c-0.2,0-0.4,0-0.5-0.1c-0.3-0.1-0.6-0.2-0.9-0.4c-0.1,0-0.2-0.1-0.2-0.1
			c0-0.1,0-0.1,0.1-0.2c0.5-0.8,0.9-1.7,1.3-2.9c0.2-0.6,0.4-1.3,0.6-2.1c0.2-0.8,0.4-1.8,0.5-3C148.3,87.5,148.4,87.4,148.4,87.4z"
			/>
		<path class="st2" d="M165.5,86h8c0.3,0,0.4,0.1,0.4,0.3v6.8c0,0.2-0.1,0.3-0.4,0.3h-6.6v14c0,0.2-0.1,0.3-0.4,0.3h-0.9
			c-0.3,0-0.4-0.1-0.4-0.3V86.3C165.1,86.1,165.2,86,165.5,86z M166.8,89h5.5v-1.7h-5.5V89z M166.8,92.1h5.5v-1.7h-5.5V92.1z
			 M171.3,94.8l1.4,0.6c0.2,0.1,0.4,0.2,0.4,0.3c0,0.1-0.1,0.1-0.3,0.2c-0.3,0-0.5,0.1-0.5,0.2c-0.5,0.5-0.9,0.9-1.3,1.2h8.4
			c-0.2-0.1-0.3-0.2-0.4-0.3c-0.4-0.3-0.7-0.8-0.9-1.2c0,0-0.1-0.1-0.1-0.1h-3.4c-0.2,0-0.3-0.1-0.3-0.4v-0.7c0-0.2,0.1-0.3,0.3-0.3
			h4.4c0.3,0,0.4,0.1,0.4,0.3c0,0.4,0.1,0.7,0.3,1c0.2,0.3,0.4,0.5,0.7,0.7c0.3,0.2,0.7,0.4,1.2,0.5c0.4,0.1,0.8,0.2,1.2,0.3
			c0.1,0,0.2,0,0.2,0.1c0,0-0.1,0.1-0.2,0.2c-0.3,0.3-0.5,0.5-0.8,0.8c-0.1,0.1-0.3,0.1-0.5,0.1c-0.3-0.1-0.7-0.2-1.1-0.4
			c-0.1-0.1-0.3-0.1-0.4-0.2v4.4c0,0.2-0.1,0.3-0.4,0.3h-2.1v1.9c0,0.6,0.4,0.9,1.1,0.9h0.9c0.1,0,0.2-0.1,0.3-0.2
			c0.1-0.1,0.1-0.5,0.1-1.1c0-0.1,0-0.1,0-0.1c0.4,0.2,0.9,0.4,1.3,0.4c0.2,0,0.3,0.1,0.3,0.3c-0.1,1-0.3,1.6-0.5,1.9
			c-0.1,0.3-0.4,0.4-0.7,0.4h-2.6c-1.3,0-1.9-0.5-1.9-1.4v-2.8h-1.7c0,0.4,0,0.8-0.1,1.2c-0.1,0.4-0.2,0.9-0.4,1.3
			c-0.2,0.4-0.5,0.7-0.8,1c-0.4,0.3-0.9,0.6-1.4,0.8c-0.5,0.2-1,0.3-1.6,0.4c-0.1,0-0.2-0.1-0.3-0.2c-0.2-0.3-0.4-0.6-0.6-0.9
			c0-0.1-0.1-0.2-0.1-0.2c0.8-0.1,1.4-0.3,1.9-0.4c0.4-0.1,0.7-0.3,0.9-0.5c0.2-0.2,0.4-0.4,0.5-0.6c0.2-0.3,0.3-0.6,0.4-0.9
			c0-0.2,0.1-0.5,0.1-0.9h-1.8c-0.3,0-0.4-0.1-0.4-0.3v-4.4c-0.2,0.1-0.4,0.3-0.6,0.4c-0.2,0.1-0.4,0.1-0.5,0.1
			c-0.1,0-0.2,0-0.4-0.1c-0.3-0.1-0.6-0.3-0.9-0.4c-0.1,0-0.2-0.1-0.2-0.1c0,0,0-0.1,0.1-0.1c0.8-0.4,1.3-0.8,1.7-1.1
			c0.6-0.4,1-0.8,1.3-1.2C171.1,94.9,171.2,94.8,171.3,94.8z M178.1,100.9v-2.2h-6v2.2H178.1z M176.8,86h8.1c0.3,0,0.5,0.1,0.5,0.3
			v19.1c0,0.8-0.3,1.4-0.9,1.9c-0.6,0.3-1.3,0.6-2.2,0.7c-0.2,0-0.3-0.1-0.3-0.3c0-0.3-0.2-0.9-0.6-1.5c0-0.1,0.1-0.1,0.2-0.1
			c1,0,1.5-0.1,1.7-0.3c0.2-0.2,0.3-0.5,0.3-0.9V93.4h-6.8c-0.3,0-0.4-0.1-0.4-0.3v-6.8C176.4,86.1,176.5,86,176.8,86z M178.1,89
			h5.5v-1.7h-5.5V89z M178.1,92.1h5.5v-1.7h-5.5V92.1z"/>
		<path class="st2" d="M190.6,89.6h7.3c0.2,0,0.3,0.1,0.3,0.4v0.8c0,0.3-0.1,0.4-0.3,0.4h-7.3c-0.2,0-0.3-0.1-0.3-0.4V90
			C190.3,89.7,190.4,89.6,190.6,89.6z M191.2,100.1h6c0.3,0,0.4,0.1,0.4,0.3v6.5c0,0.2-0.1,0.3-0.4,0.3h-0.9c-0.2,0-0.3-0.1-0.3-0.3
			v-0.8h-3.4v1.1c0,0.2-0.1,0.3-0.4,0.3h-0.9c-0.2,0-0.3-0.1-0.3-0.3v-6.9C190.9,100.2,191,100.1,191.2,100.1z M191.7,86.1h5.3
			c0.2,0,0.3,0.1,0.3,0.4v0.7c0,0.3-0.1,0.4-0.3,0.4h-5.3c-0.2,0-0.3-0.1-0.3-0.4v-0.7C191.4,86.2,191.5,86.1,191.7,86.1z M191.7,93
			h5.3c0.2,0,0.3,0.1,0.3,0.4v0.7c0,0.3-0.1,0.4-0.3,0.4h-5.3c-0.2,0-0.3-0.1-0.3-0.4v-0.7C191.4,93.2,191.5,93,191.7,93z
			 M191.7,96.5h5.3c0.2,0,0.3,0.1,0.3,0.4v0.8c0,0.2-0.1,0.4-0.3,0.4h-5.3c-0.2,0-0.3-0.1-0.3-0.4v-0.8
			C191.4,96.6,191.5,96.5,191.7,96.5z M192.6,104.7h3.4v-3.1h-3.4V104.7z M200.2,97.7h10.5c0.3,0,0.4,0.1,0.4,0.3v7.1
			c0,0.2-0.1,0.3-0.4,0.3h-2.2c0.5,0.3,0.9,0.5,1.3,0.7c0.5,0.2,1.2,0.5,2.2,0.7c0.1,0.1,0.2,0.1,0.2,0.2c0,0.1-0.3,0.5-0.9,1.1
			c0,0-0.1,0-0.2,0c-1.8-0.7-3.2-1.4-4.1-2c-0.1-0.1-0.1-0.1-0.1-0.1c0-0.1,0.2-0.3,0.5-0.6h-3.6c0.6,0.5,0.9,0.8,0.9,0.9
			c0,0.1-0.1,0.2-0.3,0.2c-0.3,0-0.5,0-0.5,0.1c-1.3,0.7-2.6,1.3-4,1.8c-0.2,0-0.3-0.1-0.4-0.2c-0.1-0.2-0.3-0.4-0.5-0.6
			c-0.1-0.1-0.2-0.2-0.2-0.3c0-0.1,0.1-0.1,0.2-0.1c0.7-0.2,1.4-0.5,1.9-0.8c0.6-0.3,1.1-0.6,1.7-1h-2.4c-0.3,0-0.4-0.1-0.4-0.3V98
			C199.9,97.8,200,97.7,200.2,97.7z M199.2,87.1h5.5v-1.2c0-0.1,0.1-0.2,0.3-0.2c1.1,0,1.7,0.1,1.7,0.3c0,0.2-0.1,0.3-0.2,0.3
			c-0.1,0-0.2,0.2-0.2,0.4v0.4h5.5c0.1,0,0.2,0.1,0.2,0.3V88c0,0.3-0.1,0.4-0.2,0.4h-5.5v1h4.5c0.1,0,0.2,0.1,0.2,0.3v0.6
			c0,0.3-0.1,0.4-0.2,0.4h-10.6c-0.1,0-0.2-0.1-0.2-0.4v-0.6c0-0.2,0.1-0.3,0.2-0.3h4.6v-1h-5.5c-0.1,0-0.2-0.1-0.2-0.4v-0.5
			C199,87.2,199.1,87.1,199.2,87.1z M199.4,91.7h12.2c0.3,0,0.4,0.1,0.4,0.3v4.5c0,0.2-0.1,0.3-0.4,0.3h-12.2
			c-0.3,0-0.4-0.1-0.4-0.3V92C199,91.8,199.1,91.7,199.4,91.7z M202.6,95.7v-2.9h-2.1v2.9H202.6z M201.5,99.9h8.1v-1.1h-8.1V99.9z
			 M201.5,102.1h8.1V101h-8.1V102.1z M209.5,104.2v-1h-8.1v1H209.5z M206.5,95.7v-2.9h-2.3v2.9H206.5z M210.5,95.7v-2.9h-2.4v2.9
			H210.5z"/>
	</g>
	<g>
		<g>
			<polygon class="st0" points="0.3,30.9 11.1,28.9 65.2,8.4 77.3,8.8 77.6,15.5 89.4,17.7 89.7,23 101.7,26.6 11.1,45.6 			"/>
			<path class="st2" d="M101.7,139.7c0,5.7-4.6,10.3-10.3,10.3H10.3C4.6,150,0,145.4,0,139.7V45.1c0-5.7,4.6-1.7,10.3-1.7h81.2
				c5.7,0,10.3-4,10.3,1.7V139.7z"/>
			<path class="st2" d="M0.3,30.9l8,8.6c0,0,44.5-11.8,93.4-12.9l0,0v25.3H0L0.3,30.9z"/>
			<path class="st4" d="M11.1,28.9L65.2,8.4L64.8,0C64.8,0,31.5,19.6,11.1,28.9z"/>
			<path class="st5" d="M17.6,30.6c0,0,55.3-14.5,60-15.1l-0.3-6.7C77.3,8.8,27.2,27.2,17.6,30.6z"/>
			<path class="st6" d="M22.1,33.4c0,0,58.2-11,67.6-10.4l-0.2-5.4C89.4,17.7,28.3,30.8,22.1,33.4z"/>
			<g>
				<path class="st3" d="M11.1,62.7c-0.4-1.8,1.1-3.4,1.2-3.9c0.2-1.6,1.3-2.9,2.6-3.9c2.3-1.8,4.5-3.6,6.8-5.5
					c1.5-1.3,2.9-3.1,4.8-3.4c0.4-0.1,1,0,1.4-0.2c0.8-0.3,1.4-1.3,2-1.8c0.9-0.7,1.5-0.7,2.5-0.9c1.7-0.3,3.6-0.8,5.2-1.4
					c1.8-0.6,3.5-1.1,5.4-1.6c2-0.5,4-0.3,6.1-0.4c2.7,0,5.3-0.4,8-0.4c1.3,0,2.6,0.1,3.8,0.3c2.2,0.4,4.1,1.8,6.3,2.3
					c1.3,0.2,2.5,0.4,3.8,0.7c0.7,0.2,1.6,0.2,2.2,0.6c0.8,0.5,1.5,1.1,2.4,1.7c2,1.4,3.5,3.4,5.4,5c1.2,1,2.9,1.7,4.1,2.6
					c0.8,0.6,1.4,1.3,2.4,1.8c1,0.5,2.3,0.7,3.1,1.5c0.8,0.8,1.4,2.1,2,3c0.4,0.7,0.9,1.2,1.2,1.9c0.4,0.7,0.5,1.3,0.9,2
					c0.5,1.2,1,1.7,0.4,2.6c-0.6,0.8-0.2,0.9,0.4,2c0.5,0.8,0.4,1.4,0.7,2.3c0.4,1.3,1.4,2.5,1.7,3.8c0.4,1.3,0.5,2.8,0.7,4.1
					c0.4,2.1,1.1,4.2,1.2,6.3c0,0.4,0.1,1.2,0,1.6c-0.2,0.6-0.9,0.9-1.2,1.5c-0.5,1.2-1.1,2.9-2.1,3.7c-0.6,0.4-0.8,0.1-1.6,0.1
					c-0.7,0-1.2,0.3-1.3,1c-0.3,1.2,0.1,2.8,0,4.1c-0.1,1.7-1.2,3.4-2.5,4.4c-0.7,0.5-1.6,0.5-2.2,1.1c-0.7,0.7-1.2,1.6-2.1,2.1
					c-1,0.6-2.3,1.1-3.5,1.6c-0.8,0.3-1.6,0.8-2.6,0.9c-0.7,0-1.5-0.2-2.2-0.2c-2.2,0.1-3.7,1-6.1,0.4c-0.7-0.2-1.5-0.6-2.1-1
					c-1.2-1-0.9-1.9-1.2-3.2c-0.4-1.7-1.4-3.7-2.4-5c-1.6-2.3,0.4-4.2,0.5-6.4c0.2-2.6-2.2-4-3.5-6c-0.5-0.7-1.1-2-1.1-2.9
					c0-0.7,0.8-1,0.7-1.7c-0.1-1.6-2.4-1-3.3-1.5c-0.5-0.3-0.9-1.1-1.3-1.6c-0.6-0.7-1.3-1.3-1.9-1.8c-0.8-0.6-1.7-0.9-2.7-1.3
					c-0.6-0.3-1.2-0.5-1.9-0.4c-0.9,0.2-2,1.4-2.9,2c-1.1,0.7-2.1,1.6-3.1,2.4c-0.7,0.5-1.3,1.2-1.7,2c-0.4,0.6-0.5,1.5-1.1,2
					c-2,1.6-1.2-1.5-1.5-2.3c-0.2-0.6-0.9-0.3-1.5-0.8c-0.6-0.5-0.6-1.6-1.2-2.1c-0.1-0.1-0.1-0.2-0.2-0.3c-0.8,0.2-1.4,1.7-1.9,2.4
					c-0.4,0.6-1,1.4-1.6,1.9c-0.6,0.4-1.3,0.6-1.9,1c-0.8,0.5-0.9,0.9-1.4,1.7c-0.8,1.3-1.7,0.5-2.8,1.2c-0.5,0.3-0.6,0.8-1.3,1.1
					c-0.7,0.3-1.5-0.2-2.2-0.3c-1.4-0.4-2.8-0.2-4.3,0.1c-2,0.4-3.3,0.4-5.2-0.1c-1.4-0.4-2.8-0.3-4.3-0.4c-2.3-0.1-3-2.5-3-4.6
					c0-1.3,0-2.5-0.1-3.7c-0.1-1-0.4-2-0.4-3c0,0-0.7-1.7,1.6-3.8c2.4-2.1,0.6-0.3-0.2-1.5C9.7,67.4,11.5,64.7,11.1,62.7z"/>
				<path class="st2" d="M52.5,39.1L49,39.2l-1.3,0c-1.6,0-3.2,0-4.9,0.4c-1.9,0.5-3.7,1-5.5,1.6c-1.5,0.5-3.4,1-5.1,1.4l-0.2,0
					c-0.9,0.2-1.6,0.3-2.5,1l-0.9,0.8c-0.3,0.4-0.7,0.8-1,0.9c0,0-0.8,0.1-0.8,0.1l-0.5,0c-1.6,0.2-2.8,1.4-4,2.5l-1.1,1l-6.7,5.5
					c-1.7,1.3-2.7,2.8-2.8,4.3c0-0.1-0.2,0.4-0.2,0.4c-0.4,0.7-1,1.7-1,2.9c0,0.2,0,0.5,0.1,0.8v0c0,0.2,0.1,0.4,0.1,0.6
					c0,0.9-0.3,1.8-0.6,2.6c-0.2,0.7-0.4,1.2-0.4,1.7c0,0.2,0.1,0.4,0.2,0.6c0.1,0.2,0.3,0.3,0.5,0.5c-0.1,0.1-0.2,0.2-0.2,0.2
					c-1.6,1.4-2,2.7-2,3.6C7.9,73,8,73.2,8,73.4c0,0.1,0.2,1.7,0.2,1.7l0.2,1.3c0,0,0.1,3.7,0.1,3.7c0,3.1,1.4,5.1,3.6,5.3l1.2,0.1
					c1,0,2,0.1,3,0.3c1.9,0.5,3.2,0.5,5.5,0.1c1.6-0.3,2.8-0.4,4-0.1l0.5,0.1c0.6,0.2,1.3,0.4,2.1,0.2c0.5-0.2,0.8-0.5,1-0.8
					l0.4-0.4c0.3-0.2,0.6-0.2,1-0.3c0.6,0,1.4-0.1,2-1.1l0.3-0.4c0.3-0.5,0.4-0.7,0.9-1l0.8-0.4L36,81c0.7-0.5,1.3-1.4,1.8-2
					l0.4-0.7c0.2-0.3,0.5-0.9,0.8-1.2c0.1,0.2,0.3,0.4,0.4,0.7c0.2,0.4,0.4,1,0.8,1.3c0.4,0.3,0.8,0.4,1.1,0.5l0.2,0.1
					c0,0.1,0,0.4,0,0.6c0,0.1,0,0.4,0,0.5c0,0.8,0.1,1.7,0.7,2c0.6,0.3,1.3-0.1,1.7-0.5c0.5-0.4,0.8-1,1-1.6l0.3-0.7
					c0.4-0.6,0.9-1.3,1.6-1.8c0,0,3.1-2.4,3.1-2.4l0.9-0.7c0.6-0.5,1.3-1.1,1.7-1.2c0.5-0.1,0.9,0.1,1.4,0.3l0.8,0.4
					c0.6,0.3,1.2,0.5,1.7,0.9c0.7,0.5,1.3,1.1,1.8,1.7l0.3,0.5c0.3,0.5,0.6,1,1.2,1.2c0.4,0.2,0.9,0.2,1.4,0.3
					c1.2,0.1,1.5,0.2,1.6,0.7c0,0,0,0,0,0c0,0.1-0.1,0.2-0.2,0.4c-0.2,0.3-0.5,0.7-0.5,1.2c0,0,0,0,0,0c0,1.1,0.8,2.5,1.2,3.2
					l1.5,1.8c1,1.2,1.9,2.2,1.9,3.6c0,0.1,0,0.2,0,0.2c0,0.7-0.3,1.3-0.6,2c-0.3,0.8-0.6,1.7-0.6,2.6c0,0.7,0.2,1.5,0.8,2.2
					c0.8,1.1,1.9,3.1,2.3,4.8l0.1,0.9c0.1,0.9,0.2,1.7,1.3,2.6c0.6,0.5,1.6,1,2.4,1.1c1.6,0.4,2.8,0.1,4.1-0.1
					c0.7-0.1,1.4-0.3,2.2-0.3l0.9,0.1l1.3,0.1c0.8-0.1,1.5-0.4,2.1-0.7l0.6-0.3c0,0,0.1-0.1,0.1-0.1c1.2-0.5,2.4-1,3.4-1.6
					c0.6-0.4,1-0.9,1.5-1.4l0.7-0.8c0.2-0.2,0.6-0.3,0.9-0.5l1.2-0.6c1.5-1.1,2.6-3,2.7-4.9l0-1.8c-0.1-0.8-0.1-1.6,0-2.2
					c0.1-0.4,0.2-0.5,0.7-0.5l0.6,0.1c0.4,0.1,0.8,0.2,1.4-0.3c0.9-0.7,1.5-2,1.9-3.1l0.4-0.8l0.4-0.5c0.3-0.3,0.6-0.6,0.7-1
					c0.1-0.2,0.1-0.5,0.1-0.8c0-0.2,0-0.5,0-0.7l0-0.3c-0.1-1.3-0.4-2.7-0.7-4l-0.5-2.3L99,76.2c-0.1-0.9-0.2-1.9-0.5-2.8
					c-0.2-0.7-0.6-1.4-0.9-2l-0.8-1.8l-0.2-0.8c-0.1-0.5-0.2-1-0.6-1.6l-0.4-0.6c0,0-0.3-0.4-0.3-0.4c0,0,0.2-0.3,0.2-0.3
					c0.3-0.5,0.4-0.9,0.4-1.2c0-0.5-0.2-1-0.5-1.5l-0.3-0.5l-0.3-0.8l-0.5-1.3l-0.8-1.3l-0.5-0.7l-0.6-1C92,57,91.6,56.2,91,55.6
					c-0.6-0.6-1.5-0.9-2.2-1.2l-1-0.4c-0.6-0.3-1.1-0.7-1.6-1.2l-0.6-0.5c-0.6-0.5-1.3-0.9-2.1-1.3c-0.7-0.4-1.5-0.8-2-1.3
					c-0.8-0.7-1.5-1.4-2.2-2.2c-1-1-2-2.1-3.2-2.9c0,0-1.1-0.8-1.1-0.8l-1.3-0.9c-0.6-0.4-1.3-0.5-1.9-0.6l-0.5-0.1l-2.3-0.4
					l-1.5-0.3c-1.1-0.2-2-0.6-3.1-1.1c-1-0.5-2.1-0.9-3.2-1.2c-1.3-0.3-2.7-0.3-3.9-0.3C55.6,38.9,54,39,52.5,39.1z M49.1,40.5
					l3.5-0.2c1.5-0.1,3-0.2,4.5-0.2c1.2,0,2.5,0.1,3.7,0.3c1,0.2,1.9,0.6,2.9,1.1c1.1,0.5,2.1,1,3.4,1.2l1.6,0.3l2.2,0.4
					c0,0,0.6,0.1,0.6,0.1c0.5,0.1,1,0.2,1.4,0.4l1.2,0.9l1.2,0.8c1.1,0.7,2,1.7,3,2.7c0.7,0.8,1.5,1.6,2.3,2.3
					c0.7,0.6,1.5,1,2.2,1.4c0.7,0.4,1.4,0.8,1.9,1.2c0,0,0.6,0.5,0.6,0.5c0.6,0.5,1.1,1,1.9,1.4c0,0,1.2,0.5,1.2,0.5
					c0.7,0.2,1.3,0.5,1.7,0.9c0.5,0.5,0.9,1.2,1.3,1.9l0.6,1l0.5,0.7l0.7,1.1l0.5,1.1l0.4,0.9l0.3,0.6c0.4,0.8,0.4,0.9,0.1,1.4
					c-0.7,1-0.4,1.4,0.1,2.2l0.4,0.5c0.3,0.4,0.3,0.8,0.4,1.2l0.2,1c0,0,0.9,2,0.9,2c0.3,0.6,0.6,1.2,0.8,1.8
					c0.2,0.8,0.4,1.7,0.5,2.6l0.2,1.4l0.5,2.4c0.3,1.3,0.6,2.6,0.7,3.8l0,0.4c0,0.3,0.1,0.8,0,0.9c-0.1,0.2-0.2,0.4-0.4,0.5L98,86.7
					l-0.4,0.9c-0.4,1-0.9,2.1-1.5,2.6c0,0-0.1,0.1-0.1,0.1l-0.2,0l-0.9-0.1c-1.1,0-1.7,0.5-2,1.5c-0.2,0.8-0.1,1.7-0.1,2.6l0,1.7
					c-0.1,1.5-1,3-2.2,3.9l-0.9,0.4c-0.4,0.2-0.9,0.3-1.4,0.7c0,0-0.9,0.9-0.9,0.9c-0.4,0.4-0.7,0.8-1.1,1.1c-1,0.6-2.1,1.1-3.3,1.5
					l-0.1,0.1c0,0-0.7,0.3-0.7,0.3c-0.6,0.3-1.1,0.5-1.7,0.6l-1-0.1l-1.1-0.1c-0.9,0-1.6,0.2-2.4,0.3c-1.1,0.2-2.2,0.4-3.5,0.1
					c-0.6-0.1-1.4-0.5-1.8-0.9c-0.7-0.6-0.7-1-0.8-1.8l-0.2-1.1c-0.4-1.9-1.6-4-2.5-5.3c-0.9-1.2-0.5-2.3,0-3.6
					c0.3-0.8,0.6-1.5,0.6-2.4c0.1-2.1-1.1-3.4-2.3-4.8l-1.4-1.7c-0.5-0.7-1-1.9-1-2.5c0-0.1,0.1-0.2,0.2-0.5
					c0.2-0.3,0.5-0.7,0.5-1.3c-0.1-1.6-1.8-1.8-2.7-1.9c-0.4,0-0.8-0.1-1-0.2c-0.2-0.1-0.4-0.5-0.6-0.8l-0.5-0.6
					c-0.6-0.7-1.3-1.4-2-1.9c-0.6-0.5-1.3-0.8-2-1l-0.8-0.4c-0.7-0.3-1.4-0.6-2.3-0.4c-0.8,0.2-1.6,0.9-2.3,1.5L49,74.8l-3.1,2.4
					c-0.8,0.6-1.5,1.4-1.9,2.2l-0.4,0.8c-0.2,0.4-0.3,0.8-0.5,1c-0.1,0.1-0.2,0.2-0.3,0.2c0-0.2,0-0.5,0-0.7c0-0.1,0-0.4,0-0.5
					c0-0.4,0-0.8-0.1-1c-0.3-0.7-0.8-0.8-1.2-0.9c-0.2,0-0.4-0.1-0.5-0.2c-0.2-0.2-0.3-0.5-0.4-0.8c-0.2-0.4-0.4-0.9-0.8-1.3
					c0,0,0.1,0.1,0.1,0.2l-0.2-0.3c-0.1-0.2-0.4-0.4-0.7-0.3c-0.9,0.2-1.5,1.2-1.9,2.1l-0.3,0.6c-0.4,0.6-0.9,1.3-1.5,1.7l-1,0.5
					l-0.9,0.5c-0.8,0.4-1,0.9-1.3,1.5l-0.2,0.4c-0.3,0.5-0.5,0.5-1,0.5c-0.4,0-1,0.1-1.6,0.5l-0.7,0.6c-0.2,0.2-0.3,0.3-0.5,0.4
					c-0.4,0.1-0.8,0-1.3-0.2l-0.5-0.2c-1.6-0.4-3.1-0.2-4.6,0.1c-2,0.4-3.2,0.4-4.9-0.1c-1.1-0.3-2.1-0.3-3.3-0.4l-1.1-0.1
					c-2.3-0.1-2.4-3.3-2.4-4l-0.1-3.8l-0.2-1.4l-0.2-1.6c0,0,0-0.2,0-0.2c0-0.1-0.5-1.3,1.5-3l0.7-0.6c0.5-0.5,0.8-0.7,0.6-1.2
					c-0.1-0.2-0.3-0.4-0.8-0.4c-0.3,0-0.5,0-0.6-0.2c0-0.1,0.2-0.7,0.4-1.2c0.4-1.2,0.9-2.6,0.6-3.9v0c-0.2-1,0.4-2.1,0.8-2.8
					l0.4-0.9c0.1-1.4,1.4-2.7,2.3-3.4L22,50c0,0,1.2-1.1,1.2-1.1c1-1,2.1-2,3.3-2.2l0.4,0l1.2-0.2c0.6-0.2,1.1-0.8,1.5-1.2l0.7-0.7
					c0.7-0.5,1.1-0.6,2-0.7l0.3,0c1.9-0.4,3.7-0.9,5.3-1.4c1.8-0.6,3.5-1.1,5.4-1.6c1.5-0.4,3-0.4,4.5-0.3L49.1,40.5z"/>
				<path class="st7" d="M11.1,62.7c-0.4-1.8,1.1-3.4,1.2-3.9c0.2-1.6,1.3-2.9,2.6-3.9c2.3-1.8,4.5-3.6,6.8-5.5
					c1.5-1.3,2.9-3.1,4.8-3.4c0.4-0.1,1,0,1.4-0.2c0.8-0.3,1.4-1.3,2-1.8c0.9-0.7,1.5-0.7,2.5-0.9c1.7-0.3,3.6-0.8,5.2-1.4
					c1.8-0.6,3.5-1.1,5.4-1.6c2-0.5,4-0.3,6.1-0.4c2.7,0,5.3-0.4,8-0.4c1.3,0,2.6,0.1,3.8,0.3c2.2,0.4,4.1,1.8,6.3,2.3
					c1.3,0.2,2.5,0.4,3.8,0.7c0.7,0.2,1.6,0.2,2.2,0.6c0.8,0.5,1.5,1.1,2.4,1.7c2,1.4,3.5,3.4,5.4,5c1.2,1,2.9,1.7,4.1,2.6
					c0.8,0.6,1.4,1.3,2.4,1.8c1,0.5,2.3,0.7,3.1,1.5c0.8,0.8,1.4,2.1,2,3c0.4,0.7,0.9,1.2,1.2,1.9c0.4,0.7,0.5,1.3,0.9,2
					c0.5,1.2,1,1.7,0.4,2.6c-0.6,0.8-0.2,0.9,0.4,2c0.5,0.8,0.4,1.4,0.7,2.3c0.4,1.3,1.4,2.5,1.7,3.8c0.4,1.3,0.5,2.8,0.7,4.1
					c0.4,2.1,1.1,4.2,1.2,6.3c0,0.4,0.1,1.2,0,1.6c-0.2,0.6-0.9,0.9-1.2,1.5c-0.5,1.2-1.1,2.9-2.1,3.7c-0.6,0.4-0.8,0.1-1.6,0.1
					c-0.7,0-1.2,0.3-1.3,1c-0.3,1.2,0.1,2.8,0,4.1c-0.1,1.7-1.2,3.4-2.5,4.4c-0.7,0.5-1.6,0.5-2.2,1.1c-0.7,0.7-1.2,1.6-2.1,2.1
					c-1,0.6-2.3,1.1-3.5,1.6c-0.8,0.3-1.6,0.8-2.6,0.9c-0.7,0-1.5-0.2-2.2-0.2c-2.2,0.1-3.7,1-6.1,0.4c-0.7-0.2-1.5-0.6-2.1-1
					c-1.2-1-0.9-1.9-1.2-3.2c-0.4-1.7-1.4-3.7-2.4-5c-1.6-2.3,0.4-4.2,0.5-6.4c0.2-2.6-2.2-4-3.5-6c-0.5-0.7-1.1-2-1.1-2.9
					c0-0.7,0.8-1,0.7-1.7c-0.1-1.6-2.4-1-3.3-1.5c-0.5-0.3-0.9-1.1-1.3-1.6c-0.6-0.7-1.3-1.3-1.9-1.8c-0.8-0.6-1.7-0.9-2.7-1.3
					c-0.6-0.3-1.2-0.5-1.9-0.4c-0.9,0.2-2,1.4-2.9,2c-1.1,0.7-2.1,1.6-3.1,2.4c-0.7,0.5-1.3,1.2-1.7,2c-0.4,0.6-0.5,1.5-1.1,2
					c-2,1.6-1.2-1.5-1.5-2.3c-0.2-0.6-0.9-0.3-1.5-0.8c-0.6-0.5-0.6-1.6-1.2-2.1c-0.1-0.1-0.1-0.2-0.2-0.3c-0.8,0.2-1.4,1.7-1.9,2.4
					c-0.4,0.6-1,1.4-1.6,1.9c-0.6,0.4-1.3,0.6-1.9,1c-0.8,0.5-0.9,0.9-1.4,1.7c-0.8,1.3-1.7,0.5-2.8,1.2c-0.5,0.3-0.6,0.8-1.3,1.1
					c-0.7,0.3-1.5-0.2-2.2-0.3c-1.4-0.4-2.8-0.2-4.3,0.1c-2,0.4-3.3,0.4-5.2-0.1c-1.4-0.4-2.8-0.3-4.3-0.4c-2.3-0.1-3-2.5-3-4.6
					c0-1.3,0-2.5-0.1-3.7c-0.1-1-0.4-2-0.4-3c0,0-0.7-1.7,1.6-3.8c2.4-2.1,0.6-0.3-0.2-1.5C9.7,67.4,11.5,64.7,11.1,62.7z"/>
				<path class="st2" d="M52.5,39.1L49,39.2l-1.3,0c-1.6,0-3.2,0-4.9,0.4c-1.9,0.5-3.7,1-5.5,1.6c-1.5,0.5-3.4,1-5.1,1.4l-0.2,0
					c-0.9,0.2-1.6,0.3-2.5,1l-0.9,0.8c-0.3,0.4-0.7,0.8-1,0.9c0,0-0.8,0.1-0.8,0.1l-0.5,0c-1.6,0.2-2.8,1.4-4,2.5l-1.1,1l-6.7,5.5
					c-1.7,1.3-2.7,2.8-2.8,4.3c0-0.1-0.2,0.4-0.2,0.4c-0.4,0.7-1,1.7-1,2.9c0,0.2,0,0.5,0.1,0.8v0c0,0.2,0.1,0.4,0.1,0.6
					c0,0.9-0.3,1.8-0.6,2.6c-0.2,0.7-0.4,1.2-0.4,1.7c0,0.2,0.1,0.4,0.2,0.6c0.1,0.2,0.3,0.3,0.5,0.5c-0.1,0.1-0.2,0.2-0.2,0.2
					c-1.6,1.4-2,2.7-2,3.6C7.9,73,8,73.2,8,73.4c0,0.1,0.2,1.7,0.2,1.7l0.2,1.3c0,0,0.1,3.7,0.1,3.7c0,3.1,1.4,5.1,3.6,5.3l1.2,0.1
					c1,0,2,0.1,3,0.3c1.9,0.5,3.2,0.5,5.5,0.1c1.6-0.3,2.8-0.4,4-0.1l0.5,0.1c0.6,0.2,1.3,0.4,2.1,0.2c0.5-0.2,0.8-0.5,1-0.8
					l0.4-0.4c0.3-0.2,0.6-0.2,1-0.3c0.6,0,1.4-0.1,2-1.1l0.3-0.4c0.3-0.5,0.4-0.7,0.9-1l0.8-0.4L36,81c0.7-0.5,1.3-1.4,1.8-2
					l0.4-0.7c0.2-0.3,0.5-0.9,0.8-1.2c0.1,0.2,0.3,0.4,0.4,0.7c0.2,0.4,0.4,1,0.8,1.3c0.4,0.3,0.8,0.4,1.1,0.5l0.2,0.1
					c0,0.1,0,0.4,0,0.6c0,0.1,0,0.4,0,0.5c0,0.8,0.1,1.7,0.7,2c0.6,0.3,1.3-0.1,1.7-0.5c0.5-0.4,0.8-1,1-1.6l0.3-0.7
					c0.4-0.6,0.9-1.3,1.6-1.8c0,0,3.1-2.4,3.1-2.4l0.9-0.7c0.6-0.5,1.3-1.1,1.7-1.2c0.5-0.1,0.9,0.1,1.4,0.3l0.8,0.4
					c0.6,0.3,1.2,0.5,1.7,0.9c0.7,0.5,1.3,1.1,1.8,1.7l0.3,0.5c0.3,0.5,0.6,1,1.2,1.2c0.4,0.2,0.9,0.2,1.4,0.3
					c1.2,0.1,1.5,0.2,1.6,0.7c0,0,0,0,0,0c0,0.1-0.1,0.2-0.2,0.4c-0.2,0.3-0.5,0.7-0.5,1.2c0,0,0,0,0,0c0,1.1,0.8,2.5,1.2,3.2
					l1.5,1.8c1,1.2,1.9,2.2,1.9,3.6c0,0.1,0,0.2,0,0.2c0,0.7-0.3,1.3-0.6,2c-0.3,0.8-0.6,1.7-0.6,2.6c0,0.7,0.2,1.5,0.8,2.2
					c0.8,1.1,1.9,3.1,2.3,4.8l0.1,0.9c0.1,0.9,0.2,1.7,1.3,2.6c0.6,0.5,1.6,1,2.4,1.1c1.6,0.4,2.8,0.1,4.1-0.1
					c0.7-0.1,1.4-0.3,2.2-0.3l0.9,0.1l1.3,0.1c0.8-0.1,1.5-0.4,2.1-0.7l0.6-0.3c0,0,0.1-0.1,0.1-0.1c1.2-0.5,2.4-1,3.4-1.6
					c0.6-0.4,1-0.9,1.5-1.4l0.7-0.8c0.2-0.2,0.6-0.3,0.9-0.5l1.2-0.6c1.5-1.1,2.6-3,2.7-4.9l0-1.8c-0.1-0.8-0.1-1.6,0-2.2
					c0.1-0.4,0.2-0.5,0.7-0.5l0.6,0.1c0.4,0.1,0.8,0.2,1.4-0.3c0.9-0.7,1.5-2,1.9-3.1l0.4-0.8l0.4-0.5c0.3-0.3,0.6-0.6,0.7-1
					c0.1-0.2,0.1-0.5,0.1-0.8c0-0.2,0-0.5,0-0.7l0-0.3c-0.1-1.3-0.4-2.7-0.7-4l-0.5-2.3L99,76.2c-0.1-0.9-0.2-1.9-0.5-2.8
					c-0.2-0.7-0.6-1.4-0.9-2l-0.8-1.8l-0.2-0.8c-0.1-0.5-0.2-1-0.6-1.6l-0.4-0.6c0,0-0.3-0.4-0.3-0.4c0,0,0.2-0.3,0.2-0.3
					c0.3-0.5,0.4-0.9,0.4-1.2c0-0.5-0.2-1-0.5-1.5l-0.3-0.5l-0.3-0.8l-0.5-1.3l-0.8-1.3l-0.5-0.7l-0.6-1C92,57,91.6,56.2,91,55.6
					c-0.6-0.6-1.5-0.9-2.2-1.2l-1-0.4c-0.6-0.3-1.1-0.7-1.6-1.2l-0.6-0.5c-0.6-0.5-1.3-0.9-2.1-1.3c-0.7-0.4-1.5-0.8-2-1.3
					c-0.8-0.7-1.5-1.4-2.2-2.2c-1-1-2-2.1-3.2-2.9c0,0-1.1-0.8-1.1-0.8l-1.3-0.9c-0.6-0.4-1.3-0.5-1.9-0.6l-0.5-0.1l-2.3-0.4
					l-1.5-0.3c-1.1-0.2-2-0.6-3.1-1.1c-1-0.5-2.1-0.9-3.2-1.2c-1.3-0.3-2.7-0.3-3.9-0.3C55.6,38.9,54,39,52.5,39.1z M49.1,40.5
					l3.5-0.2c1.5-0.1,3-0.2,4.5-0.2c1.2,0,2.5,0.1,3.7,0.3c1,0.2,1.9,0.6,2.9,1.1c1.1,0.5,2.1,1,3.4,1.2l1.6,0.3l2.2,0.4
					c0,0,0.6,0.1,0.6,0.1c0.5,0.1,1,0.2,1.4,0.4l1.2,0.9l1.2,0.8c1.1,0.7,2,1.7,3,2.7c0.7,0.8,1.5,1.6,2.3,2.3
					c0.7,0.6,1.5,1,2.2,1.4c0.7,0.4,1.4,0.8,1.9,1.2c0,0,0.6,0.5,0.6,0.5c0.6,0.5,1.1,1,1.9,1.4c0,0,1.2,0.5,1.2,0.5
					c0.7,0.2,1.3,0.5,1.7,0.9c0.5,0.5,0.9,1.2,1.3,1.9l0.6,1l0.5,0.7l0.7,1.1l0.5,1.1l0.4,0.9l0.3,0.6c0.4,0.8,0.4,0.9,0.1,1.4
					c-0.7,1-0.4,1.4,0.1,2.2l0.4,0.5c0.3,0.4,0.3,0.8,0.4,1.2l0.2,1c0,0,0.9,2,0.9,2c0.3,0.6,0.6,1.2,0.8,1.8
					c0.2,0.8,0.4,1.7,0.5,2.6l0.2,1.4l0.5,2.4c0.3,1.3,0.6,2.6,0.7,3.8l0,0.4c0,0.3,0.1,0.8,0,0.9c-0.1,0.2-0.2,0.4-0.4,0.5L98,86.7
					l-0.4,0.9c-0.4,1-0.9,2.1-1.5,2.6c0,0-0.1,0.1-0.1,0.1l-0.2,0l-0.9-0.1c-1.1,0-1.7,0.5-2,1.5c-0.2,0.8-0.1,1.7-0.1,2.6l0,1.7
					c-0.1,1.5-1,3-2.2,3.9l-0.9,0.4c-0.4,0.2-0.9,0.3-1.4,0.7c0,0-0.9,0.9-0.9,0.9c-0.4,0.4-0.7,0.8-1.1,1.1c-1,0.6-2.1,1.1-3.3,1.5
					l-0.1,0.1c0,0-0.7,0.3-0.7,0.3c-0.6,0.3-1.1,0.5-1.7,0.6l-1-0.1l-1.1-0.1c-0.9,0-1.6,0.2-2.4,0.3c-1.1,0.2-2.2,0.4-3.5,0.1
					c-0.6-0.1-1.4-0.5-1.8-0.9c-0.7-0.6-0.7-1-0.8-1.8l-0.2-1.1c-0.4-1.9-1.6-4-2.5-5.3c-0.9-1.2-0.5-2.3,0-3.6
					c0.3-0.8,0.6-1.5,0.6-2.4c0.1-2.1-1.1-3.4-2.3-4.8l-1.4-1.7c-0.5-0.7-1-1.9-1-2.5c0-0.1,0.1-0.2,0.2-0.5
					c0.2-0.3,0.5-0.7,0.5-1.3c-0.1-1.6-1.8-1.8-2.7-1.9c-0.4,0-0.8-0.1-1-0.2c-0.2-0.1-0.4-0.5-0.6-0.8l-0.5-0.6
					c-0.6-0.7-1.3-1.4-2-1.9c-0.6-0.5-1.3-0.8-2-1l-0.8-0.4c-0.7-0.3-1.4-0.6-2.3-0.4c-0.8,0.2-1.6,0.9-2.3,1.5L49,74.8l-3.1,2.4
					c-0.8,0.6-1.5,1.4-1.9,2.2l-0.4,0.8c-0.2,0.4-0.3,0.8-0.5,1c-0.1,0.1-0.2,0.2-0.3,0.2c0-0.2,0-0.5,0-0.7c0-0.1,0-0.4,0-0.5
					c0-0.4,0-0.8-0.1-1c-0.3-0.7-0.8-0.8-1.2-0.9c-0.2,0-0.4-0.1-0.5-0.2c-0.2-0.2-0.3-0.5-0.4-0.8c-0.2-0.4-0.4-0.9-0.8-1.3
					c0,0,0.1,0.1,0.1,0.2l-0.2-0.3c-0.1-0.2-0.4-0.4-0.7-0.3c-0.9,0.2-1.5,1.2-1.9,2.1l-0.3,0.6c-0.4,0.6-0.9,1.3-1.5,1.7l-1,0.5
					l-0.9,0.5c-0.8,0.4-1,0.9-1.3,1.5l-0.2,0.4c-0.3,0.5-0.5,0.5-1,0.5c-0.4,0-1,0.1-1.6,0.5l-0.7,0.6c-0.2,0.2-0.3,0.3-0.5,0.4
					c-0.4,0.1-0.8,0-1.3-0.2l-0.5-0.2c-1.6-0.4-3.1-0.2-4.6,0.1c-2,0.4-3.2,0.4-4.9-0.1c-1.1-0.3-2.1-0.3-3.3-0.4l-1.1-0.1
					c-2.3-0.1-2.4-3.3-2.4-4l-0.1-3.8l-0.2-1.4l-0.2-1.6c0,0,0-0.2,0-0.2c0-0.1-0.5-1.3,1.5-3l0.7-0.6c0.5-0.5,0.8-0.7,0.6-1.2
					c-0.1-0.2-0.3-0.4-0.8-0.4c-0.3,0-0.5,0-0.6-0.2c0-0.1,0.2-0.7,0.4-1.2c0.4-1.2,0.9-2.6,0.6-3.9v0c-0.2-1,0.4-2.1,0.8-2.8
					l0.4-0.9c0.1-1.4,1.4-2.7,2.3-3.4L22,50c0,0,1.2-1.1,1.2-1.1c1-1,2.1-2,3.3-2.2l0.4,0l1.2-0.2c0.6-0.2,1.1-0.8,1.5-1.2l0.7-0.7
					c0.7-0.5,1.1-0.6,2-0.7l0.3,0c1.9-0.4,3.7-0.9,5.3-1.4c1.8-0.6,3.5-1.1,5.4-1.6c1.5-0.4,3-0.4,4.5-0.3L49.1,40.5z"/>
				<path class="st2" d="M30.2,55.9c-5.7,1.1-10.3,6.8-9.6,12.1c0.2,1.4,0.6,2.8,0.9,4.1c0.6,2.1,1.1,4,1,6.3
					c-0.2,2.9-1.8,4.1-4.1,5.7l-1.4,1l0.5,0.7l1.4-1c2.3-1.6,4.3-3,4.5-6.4c0.2-2.4-0.4-4.5-1-6.6c-0.4-1.3-0.7-2.6-0.9-3.9
					c-0.6-4.9,3.6-10.2,8.9-11.2c2.1-0.4,5.5-0.6,6.7,0.6c0.4,0.4,0.5,0.9,0.4,1.5l0.8,0.2c0.2-0.9,0-1.7-0.6-2.3
					C35.8,54.8,30.5,55.8,30.2,55.9z"/>
				<path class="st2" d="M33.4,52.3c-0.7,1.2-0.9,2.5-0.5,3.6l0.8-0.3c-0.4-1.2,0-2.2,0.4-2.9c0.8-1.4,2.2-2.5,3.7-2.8l-0.2-0.8
					C36,49.5,34.3,50.7,33.4,52.3z"/>
				<path class="st2" d="M29.8,75.3l0.2,0.4c1.1,2,3.2,5.6,5.5,5.3l-0.1-0.9c-1.8,0.2-3.8-3.4-4.6-4.9l-0.2-0.4
					c-1.9-3.3-2.3-6.3-2.3-10.5l-0.9,0C27.4,68.7,27.8,71.7,29.8,75.3z"/>
				<path class="st2" d="M43.3,52.7c1.2,0.7,1.8,2,1.9,3.6c0.1,2.1-1,4.3-2.6,5.5c-2.3,1.7-5.9,0.7-8.6-0.7l-0.4,0.8
					c2.9,1.6,6.9,2.6,9.5,0.7c1.9-1.4,3-3.8,3-6.2c-0.1-1.9-0.9-3.4-2.3-4.3L43.3,52.7z"/>
				<path class="st2" d="M42.8,63c0.2,0,0.3,0.1,0.4,0.3c0.3,0.5,0.2,1.3-0.1,1.8c-0.5,0.9-1.4,1.2-2.4,1.6l-1.5,0.6
					c-2.1,1.2-3.7,3.5-4.1,5.8c-0.4,2-0.1,3.6,0.7,4.6c0.3,0.4,0.6,0.6,0.9,0.7l0.8,0.5l0.6-0.7l-0.9-0.6c-0.3-0.1-0.4-0.2-0.7-0.5
					c-0.7-0.8-0.9-2.2-0.5-3.9c0.4-2.1,1.9-4.2,3.7-5.2c0,0,1.3-0.6,1.3-0.6c1-0.4,2.2-0.8,2.8-2c0.4-0.7,0.5-1.9,0.1-2.6
					c-0.2-0.4-0.6-0.7-1.1-0.7L42.8,63z"/>
				<path class="st2" d="M14,55.3c0.4,0.7,0.7,1.6,1,2.7c0.6,2.2,1.4,4.6,3.3,5.6c1,0.5,2.3,0.6,3.7,0.1l-0.3-0.8
					c-1.2,0.4-2.2,0.4-3.1-0.1c-1.6-0.8-2.2-3.1-2.8-5.1c-0.3-1.1-0.6-2.1-1-2.8L14,55.3z"/>
				<path class="st2" d="M17.8,74c0,0.9-0.4,1.8-1.3,2.4c-2.1,1.5-5.9,1.8-7.4,1.2l-0.3,0.8c1.7,0.6,5.8,0.4,8.2-1.3
					c1.1-0.8,1.7-1.9,1.7-3.2L17.8,74z"/>
				<path class="st2" d="M14.5,77.7l0.8-0.3c-1-3.4-0.4-9.7,2.9-12.3l-0.5-0.7C13.9,67.4,13.4,74.1,14.5,77.7z"/>
				<path class="st2" d="M47.4,46.9c0.1,2.2,1.6,3.9,3.1,5.5c0.8,0.9,1.6,1.8,2.2,2.7c0,0,0.1,0.1,0.1,0.1c1,1.7,2,3.5,2.6,5.4
					c0.5,1.7,0.5,3.4,0.4,5.2l0,1.5c0,2-0.5,5.5-2.3,5.7l0.1,0.9c3-0.2,3.1-5.5,3.1-6.5c0,0,0-1.5,0-1.5c0-1.8,0.1-3.6-0.5-5.4
					c-0.6-2-1.6-3.8-2.6-5.6l-0.1-0.1c-0.6-1-1.5-2-2.3-2.9c-1.4-1.6-2.8-3-2.9-4.9c-0.1-2.1,1.3-5.7,2.6-6.9l-0.6-0.6
					C48.6,40.8,47.3,44.8,47.4,46.9z"/>
				<path class="st2" d="M47.5,46.9l0.6,0.6c1.6-1.8,5.5-4.1,8-3.5c1,0.2,1.7,0.9,2,2.1c0,0,0.2,1.3,0.2,1.3
					c0.1,1.2,0.2,2.5,1.8,3.3c1,0.5,2.7,0.3,3.9,0.1c2.8-0.6,3.2-2.4,3.8-4.6L66.9,46c-0.6,2.2-0.9,3.4-3.1,3.9
					c-1.5,0.3-2.7,0.3-3.3,0c-1.1-0.6-1.2-1.5-1.3-2.6l-0.2-1.4c-0.4-1.5-1.3-2.4-2.6-2.7C53.4,42.5,49.2,45,47.5,46.9z"/>
				<path class="st2" d="M60,64.1c-1,0.4-1.9,0.4-3,0.3l-0.7,0l0,0.9l0.7,0c1.1,0,2.2,0.1,3.3-0.4c2.2-0.9,4.7-3.7,4.7-6.3l-0.9,0
					C64.2,60.8,62,63.3,60,64.1z"/>
				<path class="st2" d="M64.9,59.1c2.9,0.4,5.1-0.5,6.6-2.7l-0.7-0.5c-1.3,1.9-3.3,2.7-5.8,2.3c-1.7-0.2-4.2-2.1-4.1-4.1L60,54.1
					C59.9,56.7,62.9,58.8,64.9,59.1z"/>
				<path class="st2" d="M45.5,71.4c0.4,2.1,1.5,4.4,3.1,4.4l0-0.9c-0.9,0-1.9-1.7-2.3-3.7c-0.3-1.7-0.2-3.6,0.8-4l-0.3-0.8
					C45.3,67.1,45.2,69.5,45.5,71.4z"/>
				<path class="st2" d="M74.4,44.8l-0.2,6.1c0.1,2.8,1.2,4.2,2.9,6.3l0.3,0.3c1.7,2.2,3.1,6.3,2.5,9.3c-0.3,1.4-1,2.4-2,3
					c-1,0.6-2.5,0.4-4,0.1l-1.6-0.2c-2.8-0.2-4.6,0.4-6.2,2.2c-0.6,0.7-1.3,1.2-2,1.7c-1.8,1.5-3.6,2.9-2.3,5.8l0.8-0.3
					c-1-2.3,0.2-3.3,2.1-4.7c0.6-0.5,1.4-1.1,2-1.8c1.5-1.6,3-2.1,5.5-1.9l1.5,0.2c1.5,0.2,3.2,0.5,4.5-0.2c1.3-0.7,2.1-2,2.5-3.6
					c0.7-3.4-0.9-7.7-2.7-10l-0.3-0.3c-1.6-2.1-2.6-3.3-2.7-5.8l0.2-6.1L74.4,44.8z"/>
				<path class="st2" d="M80.7,66.7c6.6,0.9,11.2,5.8,11,11.9l0.9,0c0.1-6.6-4.7-11.8-11.8-12.8L80.7,66.7z"/>
				<path class="st2" d="M89.4,80.5c-0.4,0.8-0.8,1.6-1.5,2.2l0.6,0.6c0.9-0.8,1.3-1.7,1.7-2.5c0.7-1.4,1.1-2.4,3.4-2.1
					c1.7,0.2,2.1,0.5,2.8,2l0.4,0.9c0.5,1.2,1.1,3,2.9,2.9l0-0.9c-1,0-1.5-0.9-2-2.3l-0.4-1c-0.9-1.8-1.5-2.2-3.5-2.5
					C90.8,77.6,90.1,79.1,89.4,80.5z"/>
				<path class="st2" d="M70.8,70.9c1.4,0.2,2.5,1,3.7,1.9l0.3,0.3c3.2,2.3,3.6,4.6,3.2,8c-0.2,1.9-0.7,4.2-2.4,5.9l-1.1,1
					c-0.8,0.7-1.6,1.3-2.1,2.7c-0.6,1.7-2.9,11.3-0.6,14.7c0.5,0.8,1.2,1.2,2.1,1.2l0-0.9c-0.6,0-1-0.3-1.4-0.8
					c-2-2.9,0-12,0.7-13.9c0.4-1.2,1.1-1.7,1.9-2.4l1.1-1c1.9-1.9,2.4-4.3,2.7-6.4c0.4-3.5,0-6.2-3.5-8.8L75,72.1
					c-1.2-0.9-2.5-1.8-4.1-2L70.8,70.9z"/>
				<path class="st2" d="M85.6,87.1c0.3,0.4,0.4,0.7,0.3,1c-0.2,0.7-1.6,1.3-2.8,1.7c-0.9,0.3-1.6,0.6-2,1c-1.4,1.4-1,4.6-0.9,6.4
					c0.2,1.5,0.9,6.2,2.5,7.9l0.6-0.6c-1.3-1.3-2.1-5.6-2.3-7.4c-0.2-1.5-0.5-4.6,0.6-5.7c0.3-0.3,1-0.6,1.7-0.8
					c1.4-0.6,2.9-1.2,3.3-2.3c0.2-0.5,0-1.1-0.4-1.7L85.6,87.1z"/>
				<path class="st2" d="M82.2,81l0.3,1.3c0.4,1.8,0.7,3.4,2.9,4.7c2.9,1.6,5.9,1.8,8,0.6L93,86.8c-1.9,1.1-4.6,0.9-7.2-0.6
					c-1.9-1.1-2.2-2.3-2.5-4.1l-0.3-1.3L82.2,81z"/>
				<path class="st2" d="M75.7,87.3l0.3-0.8c-3.3-1.1-4.7-5.5-4.5-8.3L70.6,78C70.4,81,71.8,86,75.7,87.3z"/>
				<path class="st2" d="M82.5,55.9c0.1,1.3-0.3,3-1.3,3.9c-0.6,0.5-1.2,0.6-2,0.4L79,61c1.1,0.3,2,0.1,2.8-0.6
					c1.3-1.1,1.7-3.2,1.6-4.6L82.5,55.9z"/>
				<path class="st2" d="M72.5,63.5c0,1.2-0.1,2.4,0.9,3.6c1.1,1.3,3.4,3.4,5.2,2.8l-0.3-0.8c-1.2,0.4-3.3-1.4-4.3-2.6
					c-0.8-1-0.8-1.9-0.7-3.1l0-0.6l-0.9,0L72.5,63.5z"/>
				<path class="st2" d="M73.5,95.5c2.2,3.3,4.4,3.8,7.8,4.3l0.1-0.9c-3.5-0.5-5.2-1-7.2-3.9L73.5,95.5z"/>
			</g>
			<g>
				<path class="st0" d="M34.3,101c0,3-0.6,5.4-1.8,7.3c-1.2,1.8-2.9,2.7-5.2,2.7v-3.3c2.3,0,3.5-2.2,3.5-6.7h-3.5v-7h7V101z"/>
				<path class="st0" d="M60.4,101c0,3-0.6,5.4-1.8,7.3c-1.2,1.8-2.9,2.7-5.2,2.7v-3.3c2.3,0,3.5-2.2,3.5-6.7h-3.5v-7h7V101z"/>
				<path class="st0" d="M44.1,128.5c-1.2-0.7-9.7-5.6-9.7-5.6l-1.3,2.2l10.3,6c0.4,0.2,1,0.2,1.4,0l13.8-9l-1.4-2.2
					C57.2,119.9,45.3,127.7,44.1,128.5z"/>
			</g>
		</g>
		<g>
			<path class="st0" d="M18.8,142.2l1-0.1c0,0.4,0.1,0.7,0.3,0.9c0.2,0.2,0.4,0.4,0.8,0.6c0.3,0.2,0.7,0.2,1.2,0.2
				c0.4,0,0.7-0.1,1-0.2c0.3-0.1,0.5-0.3,0.7-0.5c0.1-0.2,0.2-0.4,0.2-0.7c0-0.2-0.1-0.5-0.2-0.6c-0.1-0.2-0.4-0.3-0.7-0.5
				c-0.2-0.1-0.7-0.2-1.4-0.4c-0.7-0.2-1.2-0.3-1.5-0.5c-0.4-0.2-0.6-0.4-0.8-0.7c-0.2-0.3-0.3-0.6-0.3-1c0-0.4,0.1-0.8,0.3-1.1
				c0.2-0.3,0.5-0.6,1-0.8c0.4-0.2,0.9-0.3,1.4-0.3c0.6,0,1.1,0.1,1.5,0.3c0.4,0.2,0.8,0.5,1,0.8c0.2,0.4,0.4,0.8,0.4,1.2l-1,0.1
				c-0.1-0.5-0.2-0.8-0.5-1.1c-0.3-0.2-0.7-0.4-1.3-0.4c-0.6,0-1.1,0.1-1.3,0.3c-0.3,0.2-0.4,0.5-0.4,0.8c0,0.3,0.1,0.5,0.3,0.7
				c0.2,0.2,0.7,0.4,1.5,0.5c0.8,0.2,1.4,0.4,1.7,0.5c0.4,0.2,0.8,0.5,1,0.8c0.2,0.3,0.3,0.7,0.3,1.1c0,0.4-0.1,0.8-0.4,1.2
				c-0.2,0.4-0.6,0.6-1,0.8c-0.4,0.2-0.9,0.3-1.5,0.3c-0.7,0-1.3-0.1-1.7-0.3c-0.5-0.2-0.8-0.5-1.1-0.9
				C18.9,143.2,18.8,142.8,18.8,142.2z"/>
			<path class="st0" d="M26.2,144.7v-5.6H27v0.8c0.2-0.3,0.4-0.5,0.7-0.7c0.3-0.2,0.6-0.2,1-0.2c0.4,0,0.8,0.1,1,0.3
				c0.3,0.2,0.5,0.4,0.6,0.7c0.4-0.7,1-1,1.7-1c0.6,0,1,0.2,1.3,0.5c0.3,0.3,0.4,0.8,0.4,1.4v3.8h-0.9v-3.5c0-0.4,0-0.7-0.1-0.8
				c-0.1-0.2-0.2-0.3-0.3-0.4c-0.2-0.1-0.4-0.2-0.6-0.2c-0.4,0-0.7,0.1-1,0.4c-0.3,0.3-0.4,0.7-0.4,1.3v3.2h-0.9v-3.6
				c0-0.4-0.1-0.7-0.2-0.9c-0.2-0.2-0.4-0.3-0.8-0.3c-0.3,0-0.5,0.1-0.7,0.2c-0.2,0.1-0.4,0.3-0.5,0.6c-0.1,0.3-0.2,0.7-0.2,1.2v2.9
				H26.2z"/>
			<path class="st0" d="M38.8,144c-0.3,0.3-0.7,0.5-1,0.6c-0.3,0.1-0.7,0.2-1.1,0.2c-0.6,0-1.1-0.2-1.4-0.4
				c-0.3-0.3-0.5-0.7-0.5-1.1c0-0.3,0.1-0.5,0.2-0.7c0.1-0.2,0.3-0.4,0.5-0.5c0.2-0.1,0.4-0.2,0.7-0.3c0.2,0,0.5-0.1,0.8-0.1
				c0.8-0.1,1.3-0.2,1.7-0.3c0-0.1,0-0.2,0-0.2c0-0.4-0.1-0.7-0.3-0.8c-0.2-0.2-0.6-0.3-1.1-0.3c-0.4,0-0.8,0.1-1,0.2
				c-0.2,0.2-0.4,0.4-0.5,0.8l-0.9-0.1c0.1-0.4,0.2-0.7,0.4-1c0.2-0.2,0.5-0.4,0.8-0.6c0.4-0.1,0.8-0.2,1.3-0.2
				c0.5,0,0.9,0.1,1.2,0.2c0.3,0.1,0.5,0.3,0.7,0.4c0.1,0.2,0.2,0.4,0.3,0.6c0,0.2,0,0.5,0,0.9v1.3c0,0.9,0,1.4,0.1,1.7
				c0,0.2,0.1,0.5,0.2,0.7h-1C38.9,144.5,38.8,144.3,38.8,144z M38.7,141.9c-0.3,0.1-0.9,0.3-1.5,0.4c-0.4,0.1-0.7,0.1-0.8,0.2
				c-0.2,0.1-0.3,0.2-0.4,0.3c-0.1,0.1-0.1,0.3-0.1,0.4c0,0.3,0.1,0.5,0.3,0.6c0.2,0.2,0.5,0.3,0.8,0.3c0.4,0,0.7-0.1,1-0.2
				c0.3-0.2,0.5-0.4,0.6-0.7c0.1-0.2,0.2-0.5,0.2-0.9L38.7,141.9z"/>
			<path class="st0" d="M41.1,144.7v-5.6H42v0.9c0.2-0.4,0.4-0.7,0.6-0.8c0.2-0.1,0.4-0.2,0.6-0.2c0.3,0,0.6,0.1,1,0.3l-0.3,0.9
				c-0.2-0.1-0.5-0.2-0.7-0.2c-0.2,0-0.4,0.1-0.6,0.2c-0.2,0.1-0.3,0.3-0.4,0.5c-0.1,0.3-0.2,0.7-0.2,1.1v2.9H41.1z"/>
			<path class="st0" d="M46.8,143.9l0.1,0.8c-0.3,0.1-0.5,0.1-0.7,0.1c-0.3,0-0.6-0.1-0.8-0.2c-0.2-0.1-0.3-0.2-0.4-0.4
				c-0.1-0.2-0.1-0.5-0.1-1.1v-3.2h-0.7v-0.7h0.7v-1.4l0.9-0.6v1.9h1v0.7h-1v3.3c0,0.3,0,0.4,0.1,0.5c0,0.1,0.1,0.1,0.2,0.2
				c0.1,0,0.2,0.1,0.3,0.1C46.5,143.9,46.6,143.9,46.8,143.9z"/>
			<path class="st0" d="M50.8,144.7V137h3.4c0.7,0,1.2,0.1,1.6,0.2c0.4,0.1,0.6,0.4,0.9,0.7c0.2,0.4,0.3,0.7,0.3,1.2
				c0,0.5-0.2,1-0.5,1.4c-0.4,0.4-0.9,0.6-1.6,0.7c0.3,0.1,0.5,0.3,0.6,0.4c0.3,0.3,0.6,0.6,0.8,1l1.3,2.1h-1.3l-1-1.6
				c-0.3-0.5-0.5-0.8-0.7-1.1c-0.2-0.2-0.4-0.4-0.5-0.5c-0.2-0.1-0.3-0.2-0.5-0.2c-0.1,0-0.3,0-0.6,0h-1.2v3.4H50.8z M51.9,140.4H54
				c0.5,0,0.8,0,1.1-0.1c0.3-0.1,0.5-0.3,0.6-0.5c0.1-0.2,0.2-0.4,0.2-0.7c0-0.4-0.1-0.7-0.4-0.9c-0.3-0.2-0.7-0.4-1.3-0.4h-2.4
				V140.4z"/>
			<path class="st0" d="M62.3,142.9l1,0.1c-0.2,0.6-0.4,1-0.9,1.3c-0.4,0.3-0.9,0.5-1.6,0.5c-0.8,0-1.5-0.3-1.9-0.8
				c-0.5-0.5-0.7-1.2-0.7-2.1c0-0.9,0.2-1.7,0.7-2.2c0.5-0.5,1.1-0.8,1.9-0.8c0.7,0,1.4,0.3,1.8,0.8c0.5,0.5,0.7,1.2,0.7,2.1
				c0,0.1,0,0.1,0,0.3h-4.2c0,0.6,0.2,1.1,0.5,1.4c0.3,0.3,0.7,0.5,1.2,0.5c0.3,0,0.6-0.1,0.9-0.3C61.9,143.6,62.1,143.3,62.3,142.9
				z M59.2,141.4h3.1c0-0.5-0.2-0.8-0.4-1c-0.3-0.4-0.7-0.5-1.2-0.5c-0.4,0-0.8,0.1-1.1,0.4C59.4,140.5,59.2,140.9,59.2,141.4z"/>
			<path class="st0" d="M68.1,144c-0.3,0.3-0.7,0.5-1,0.6c-0.3,0.1-0.7,0.2-1.1,0.2c-0.6,0-1.1-0.2-1.4-0.4
				c-0.3-0.3-0.5-0.7-0.5-1.1c0-0.3,0.1-0.5,0.2-0.7c0.1-0.2,0.3-0.4,0.5-0.5c0.2-0.1,0.4-0.2,0.7-0.3c0.2,0,0.5-0.1,0.8-0.1
				c0.8-0.1,1.3-0.2,1.7-0.3c0-0.1,0-0.2,0-0.2c0-0.4-0.1-0.7-0.3-0.8c-0.2-0.2-0.6-0.3-1.1-0.3c-0.4,0-0.8,0.1-1,0.2
				c-0.2,0.2-0.4,0.4-0.5,0.8l-0.9-0.1c0.1-0.4,0.2-0.7,0.4-1c0.2-0.2,0.5-0.4,0.8-0.6c0.4-0.1,0.8-0.2,1.3-0.2
				c0.5,0,0.9,0.1,1.2,0.2c0.3,0.1,0.5,0.3,0.7,0.4c0.1,0.2,0.2,0.4,0.3,0.6c0,0.2,0,0.5,0,0.9v1.3c0,0.9,0,1.4,0.1,1.7
				c0,0.2,0.1,0.5,0.2,0.7h-1C68.2,144.5,68.1,144.3,68.1,144z M68,141.9c-0.3,0.1-0.9,0.3-1.5,0.4c-0.4,0.1-0.7,0.1-0.8,0.2
				c-0.2,0.1-0.3,0.2-0.4,0.3c-0.1,0.1-0.1,0.3-0.1,0.4c0,0.3,0.1,0.5,0.3,0.6c0.2,0.2,0.5,0.3,0.8,0.3c0.4,0,0.7-0.1,1-0.2
				c0.3-0.2,0.5-0.4,0.6-0.7c0.1-0.2,0.2-0.5,0.2-0.9L68,141.9z"/>
			<path class="st0" d="M74.1,144.7V144c-0.4,0.6-0.9,0.8-1.6,0.8c-0.4,0-0.9-0.1-1.2-0.4c-0.4-0.2-0.7-0.6-0.9-1
				c-0.2-0.4-0.3-0.9-0.3-1.5c0-0.6,0.1-1.1,0.3-1.5c0.2-0.5,0.5-0.8,0.8-1c0.4-0.2,0.8-0.4,1.2-0.4c0.3,0,0.6,0.1,0.9,0.2
				c0.3,0.1,0.5,0.3,0.6,0.6V137h0.9v7.7H74.1z M71.1,141.9c0,0.7,0.2,1.2,0.5,1.6c0.3,0.4,0.7,0.5,1.1,0.5c0.4,0,0.8-0.2,1.1-0.5
				c0.3-0.3,0.4-0.9,0.4-1.5c0-0.8-0.1-1.3-0.4-1.7c-0.3-0.4-0.7-0.5-1.1-0.5c-0.4,0-0.8,0.2-1.1,0.5
				C71.2,140.7,71.1,141.2,71.1,141.9z"/>
			<path class="st0" d="M76.4,138.1V137h0.9v1.1H76.4z M76.4,144.7v-5.6h0.9v5.6H76.4z"/>
			<path class="st0" d="M78.8,144.7v-5.6h0.8v0.8c0.4-0.6,1-0.9,1.8-0.9c0.3,0,0.6,0.1,0.9,0.2c0.3,0.1,0.5,0.3,0.6,0.5
				c0.1,0.2,0.2,0.4,0.3,0.7c0,0.2,0.1,0.5,0.1,0.9v3.4h-0.9v-3.4c0-0.4,0-0.7-0.1-0.9c-0.1-0.2-0.2-0.3-0.4-0.5
				c-0.2-0.1-0.4-0.2-0.7-0.2c-0.4,0-0.7,0.1-1,0.4c-0.3,0.3-0.4,0.7-0.4,1.5v3H78.8z"/>
			<path class="st0" d="M84.6,145.2l0.9,0.1c0,0.3,0.1,0.5,0.3,0.6c0.2,0.2,0.6,0.3,1,0.3c0.4,0,0.8-0.1,1-0.3
				c0.2-0.2,0.4-0.4,0.5-0.7c0-0.2,0.1-0.6,0.1-1.2c-0.4,0.5-0.9,0.7-1.6,0.7c-0.8,0-1.4-0.3-1.8-0.8s-0.6-1.2-0.6-2
				c0-0.5,0.1-1,0.3-1.5c0.2-0.5,0.5-0.8,0.8-1c0.4-0.2,0.8-0.4,1.3-0.4c0.7,0,1.2,0.3,1.6,0.8v-0.7h0.8v4.8c0,0.9-0.1,1.5-0.3,1.8
				c-0.2,0.4-0.5,0.6-0.8,0.9c-0.4,0.2-0.9,0.3-1.4,0.3c-0.7,0-1.2-0.1-1.6-0.5C84.8,146.2,84.6,145.8,84.6,145.2z M85.4,141.8
				c0,0.7,0.1,1.3,0.4,1.6c0.3,0.3,0.7,0.5,1.1,0.5c0.4,0,0.8-0.2,1.1-0.5c0.3-0.3,0.4-0.9,0.4-1.6c0-0.7-0.2-1.2-0.5-1.5
				c-0.3-0.3-0.7-0.5-1.1-0.5c-0.4,0-0.8,0.2-1.1,0.5C85.6,140.7,85.4,141.2,85.4,141.8z"/>
		</g>
	</g>
</g>
</svg>
