<?xml version="1.0" encoding="utf-8"?>
<!-- Generator: Adobe Illustrator 26.2.1, SVG Export Plug-In . SVG Version: 6.00 Build 0)  -->
<svg version="1.1" id="圖層_1" xmlns="http://www.w3.org/2000/svg" xmlns:xlink="http://www.w3.org/1999/xlink" x="0px" y="0px"
	 viewBox="0 0 623 150" style="enable-background:new 0 0 623 150;" xml:space="preserve">
<style type="text/css">
	
		.st0{clip-path:url(#SVGID_00000123431929424273423880000010928493601212021129_);fill:url(#SVGID_00000053507216750467895210000014650796289502577538_);}
	.st1{fill:#4285F4;}
	.st2{fill:#FFFFFF;}
</style>
<g>
	<g>
		<defs>
			<path id="SVGID_1_" d="M251.3,28.9C249.1-4.7,147.4-21,0,112.7h31.2C127.3,2.2,264.7-9.2,243.6,49.3c0,0,60-64.4,131-40.6
				c0.3,0.4,0.8,0.4,1.1,0.1c0.3-0.3-0.1-0.9-0.3-1.3C361.7,2.1,348.3,0,335.5,0C288.5,0,251.3,28.9,251.3,28.9"/>
		</defs>
		<clipPath id="SVGID_00000041260080158203555910000017028223784113532064_">
			<use xlink:href="#SVGID_1_"  style="overflow:visible;"/>
		</clipPath>
		
			<linearGradient id="SVGID_00000089549010759438929250000013704571085247772576_" gradientUnits="userSpaceOnUse" x1="-108.4578" y1="372.7562" x2="-107.5262" y2="372.7562" gradientTransform="matrix(300.4318 -122.9785 -122.9785 -300.4318 78442.3594 98765.6094)">
			<stop  offset="0" style="stop-color:#E1740D"/>
			<stop  offset="1" style="stop-color:#F3D922"/>
		</linearGradient>
		
			<polygon style="clip-path:url(#SVGID_00000041260080158203555910000017028223784113532064_);fill:url(#SVGID_00000089549010759438929250000013704571085247772576_);" points="
			-46.9,-1.8 322,-152.7 422.8,93.5 53.9,244.5 		"/>
	</g>
	<path class="st1" d="M364.9,69.4h-14.3l-8.1,42.7h-10.8c-9.1,0-6.3-8.8-6.3-8.8l6.5-33.9h-48.6c-3.2,0-5.8,0.9-6.3,3.6
		c-0.5,2.7,1.6,3.9,4.5,3.9h20.8c0.7,0,16.9-0.2,12.9,18.4c-1.2,5.7-5.5,16.7-19.1,16.7h-45.1c3.4-11.1,7-14.3,13.8-14.3h26.8
		c3,0,5.5-0.6,6-3.3c0.5-2.7-1.8-3.2-4.8-3.2h-19.3c0,0-18.7,0.6-14.8-18.1c3.5-16.9,19.1-18.1,19.7-18.1H376l-2.2,8.2
		C373.8,63.2,372.1,69.4,364.9,69.4"/>
	<path class="st1" d="M92.1,112.1l8.9-46.7c1.1-5.9,7.5-10.7,14.3-10.7c4,0,7.5,1.7,9.2,4.6L139.1,83c0.2,0.4,0.9,0.4,1.3,0
		l23.6-23.7c2.8-2.9,7-4.6,11-4.6c6.8,0,11.4,4.8,10.3,10.7l-8.9,46.7h-10.8c-7.9,0-6.3-8.8-6.3-8.8l4.8-25.5l-17.5,17.6
		c-5.5,5.6-15.1,5.6-18.5,0l-10.8-17.6l-5,26.5c0,0-0.6,7.8-7.9,7.8H92.1z"/>
	<path class="st2" d="M92.3,123h4.2l4.3,10.2c0.5,1.3,1,2.7,1.6,4.1h0.2c0.5-1.4,1-2.7,1.5-4.1l4.2-10.2h4.3v20.2h-3.4v-10
		c0-1.8,0.3-4.4,0.5-6.3h-0.1l-1.9,4.7l-4.1,9.6h-2.3l-4.1-9.6l-1.9-4.7h-0.1c0.2,1.8,0.4,4.5,0.4,6.3v10h-3.3V123z"/>
	<path class="st2" d="M117.9,123.4c0-1.1,1-1.9,2.3-1.9c1.3,0,2.4,0.7,2.4,1.9c0,1.1-1,1.9-2.4,1.9
		C118.9,125.3,117.9,124.5,117.9,123.4 M118.5,128.1h3.6v15.1h-3.6V128.1z"/>
	<path class="st2" d="M127.6,128.1h3l0.3,2.1h0.1c1.6-1.3,3.4-2.5,5.8-2.5c3.7,0,5.4,2.2,5.4,6v9.5h-3.7v-9.1c0-2.6-0.9-3.7-3-3.7
		c-1.6,0-2.7,0.7-4.3,2.1v10.7h-3.6V128.1z"/>
	<path class="st2" d="M147,123.4c0-1.1,1-1.9,2.3-1.9c1.3,0,2.4,0.7,2.4,1.9c0,1.1-1,1.9-2.4,1.9C148,125.3,147,124.5,147,123.4
		 M147.6,128.1h3.6v15.1h-3.6V128.1z"/>
	<path class="st2" d="M154.9,141.5l1.7-2c1.6,1.1,3.1,1.7,5,1.7c2.1,0,3.1-0.9,3.1-2c0-1.4-2-2-3.9-2.6c-2.3-0.8-5-1.8-5-4.4
		c0-2.5,2.4-4.4,6.2-4.4c2.4,0,4.3,0.8,5.7,1.8l-1.7,1.9c-1.2-0.8-2.5-1.3-3.9-1.3c-1.9,0-2.8,0.8-2.8,1.9c0,1.3,1.8,1.8,3.7,2.4
		c2.5,0.8,5.2,1.7,5.2,4.6c0,2.5-2.3,4.6-6.7,4.6C159.1,143.6,156.6,142.7,154.9,141.5"/>
	<path class="st2" d="M171.9,138.3v-7.6h-2.6v-2.4l2.7-0.2l0.4-4.2h3.1v4.2h4.6v2.5h-4.6v7.7c0,1.8,0.7,2.8,2.6,2.8
		c0.6,0,1.4-0.2,1.9-0.4l0.7,2.3c-1,0.3-2.2,0.6-3.4,0.6C173.3,143.6,171.9,141.4,171.9,138.3"/>
	<path class="st2" d="M205.8,144.1c-1.4,3.3-3.2,5.4-6.9,5.4c-0.9,0-1.6-0.1-2.2-0.3l0.7-2.5c0.3,0.1,0.8,0.2,1.3,0.2
		c1.9,0,3-1.2,3.7-2.8l0.4-1l-7-15h3.8l3.3,7.8c0.5,1.3,1,2.9,1.6,4.3h0.2l1.4-4.3l2.8-7.8h3.6L205.8,144.1z"/>
	<path class="st2" d="M221.3,135.7c0-5.1,3.9-8,8.3-8c4.3,0,8.3,2.9,8.3,8c0,5-3.9,7.9-8.3,7.9C225.3,143.6,221.3,140.7,221.3,135.7
		 M234.1,135.7c0-3.2-1.7-5.4-4.5-5.4c-2.7,0-4.5,2.1-4.5,5.4c0,3.2,1.7,5.3,4.5,5.3C232.4,141,234.1,138.9,234.1,135.7"/>
	<path class="st2" d="M250.6,123.8c-0.6-0.2-1.3-0.4-1.9-0.4c-1.6,0-2.3,0.9-2.3,2.7v1.9h3.6v2.5h-3.6v12.6h-3.7v-12.6h-2.4v-2.4
		l2.4-0.2v-1.9c0-3.1,1.6-5.2,5.6-5.2c1.2,0,2.3,0.2,3.1,0.5L250.6,123.8z"/>
	<path class="st2" d="M259,140.6l2.2-2.2c1.7,1.5,4,2.4,6.3,2.4c2.8,0,4.4-1.2,4.4-2.9c0-1.8-1.6-2.4-3.8-3.2l-3.3-1.2
		c-2.3-0.8-4.8-2.4-4.8-5.3c0-3.2,3.3-5.6,7.7-5.6c2.7,0,5.3,1,7.1,2.5l-1.9,2c-1.5-1.1-3.1-1.8-5.2-1.8c-2.4,0-4,1-4,2.6
		c0,1.7,1.9,2.4,3.8,3.1l3.2,1.2c2.8,1,4.8,2.5,4.8,5.5c0,3.2-3.1,5.9-8.3,5.9C264.1,143.6,261.1,142.5,259,140.6"/>
	<path class="st2" d="M278.5,135.7c0-5.1,4.1-8,8.7-8c2.2,0,3.9,0.8,5.1,1.7l-1.8,2.1c-1-0.7-2-1.2-3.2-1.2c-2.9,0-5,2.1-5,5.4
		c0,3.2,2,5.3,5,5.3c1.5,0,2.8-0.6,3.8-1.4l1.5,2.1c-1.6,1.2-3.7,1.9-5.7,1.9C282.1,143.6,278.5,140.7,278.5,135.7"/>
	<path class="st2" d="M295.7,123.4c0-1.1,1-1.9,2.3-1.9c1.3,0,2.4,0.7,2.4,1.9c0,1.1-1,1.9-2.4,1.9
		C296.7,125.3,295.7,124.5,295.7,123.4 M296.2,128.1h3.6v15.1h-3.6V128.1z"/>
	<path class="st2" d="M304.2,135.7c0-4.9,3.9-8,8-8c4.7,0,7.1,2.9,7.1,7.2c0,0.6-0.1,1.2-0.2,1.6h-11.4c0.3,2.9,2.4,4.6,5.4,4.6
		c1.6,0,2.9-0.4,4.2-1.1l1.3,2c-1.6,0.9-3.6,1.6-5.9,1.6C308,143.6,304.2,140.6,304.2,135.7 M316.2,134.3c0-2.6-1.4-4.1-3.9-4.1
		c-2.2,0-4.2,1.5-4.5,4.1H316.2z"/>
	<path class="st2" d="M323.4,128.1h3l0.3,2.1h0.1c1.6-1.3,3.4-2.5,5.8-2.5c3.7,0,5.4,2.2,5.4,6v9.5h-3.7v-9.1c0-2.6-0.9-3.7-3-3.7
		c-1.6,0-2.7,0.7-4.3,2.1v10.7h-3.6V128.1z"/>
	<path class="st2" d="M342.1,135.7c0-5.1,4-8,8.7-8c2.2,0,3.9,0.8,5.1,1.7l-1.8,2.1c-1-0.7-1.9-1.2-3.2-1.2c-2.9,0-5,2.1-5,5.4
		c0,3.2,2,5.3,4.9,5.3c1.5,0,2.8-0.6,3.8-1.4l1.5,2.1c-1.6,1.2-3.7,1.9-5.7,1.9C345.8,143.6,342.1,140.7,342.1,135.7"/>
	<path class="st2" d="M357.8,135.7c0-4.9,3.9-8,8-8c4.7,0,7.2,2.9,7.2,7.2c0,0.6-0.1,1.2-0.2,1.6h-11.4c0.3,2.9,2.4,4.6,5.4,4.6
		c1.6,0,2.9-0.4,4.2-1.1l1.3,2c-1.6,0.9-3.6,1.6-5.9,1.6C361.6,143.6,357.8,140.6,357.8,135.7 M369.8,134.3c0-2.6-1.4-4.1-3.9-4.1
		c-2.2,0-4.2,1.5-4.5,4.1H369.8z"/>
	<path class="st2" d="M383.3,139.2c0-3.2,3.2-4.9,10.5-5.6c0-1.8-0.8-3.3-3.4-3.3c-1.8,0-3.6,0.7-5.1,1.6l-1.4-2.1
		c1.8-1,4.3-2,7.1-2c4.4,0,6.4,2.4,6.4,6.4v9.1h-3l-0.3-1.7H394c-1.6,1.2-3.5,2.1-5.6,2.1C385.4,143.6,383.3,141.9,383.3,139.2
		 M393.8,139.3v-3.7c-5.2,0.6-7,1.7-7,3.4c0,1.5,1.2,2.1,2.8,2.1C391.1,141.1,392.3,140.4,393.8,139.3"/>
	<path class="st2" d="M402.7,128.1h3l0.3,2.1h0.1c1.6-1.3,3.4-2.5,5.8-2.5c3.7,0,5.4,2.2,5.4,6v9.5h-3.7v-9.1c0-2.6-0.9-3.7-3-3.7
		c-1.6,0-2.7,0.7-4.3,2.1v10.7h-3.6V128.1z"/>
	<path class="st2" d="M421.4,135.7c0-4.9,3.6-8,7.5-8c2,0,3.3,0.7,4.7,1.7l-0.2-2.5v-5.6h3.7v21.9h-3l-0.3-1.7h-0.1
		c-1.3,1.2-3.1,2.1-5.1,2.1C424.2,143.6,421.4,140.7,421.4,135.7 M433.5,139.1v-7.4c-1.3-1-2.6-1.4-3.9-1.4c-2.5,0-4.4,2-4.4,5.3
		c0,3.4,1.6,5.3,4.3,5.3C431,141,432.2,140.4,433.5,139.1"/>
	<polygon class="st2" points="455,125.6 448.1,125.6 448.1,123 465.6,123 465.6,125.6 458.7,125.6 458.7,143.2 455,143.2 	"/>
	<path class="st2" d="M465.6,135.7c0-4.9,3.9-8,8-8c4.7,0,7.2,2.9,7.2,7.2c0,0.6-0.1,1.2-0.2,1.6h-11.4c0.3,2.9,2.4,4.6,5.4,4.6
		c1.6,0,2.9-0.4,4.2-1.1l1.3,2c-1.6,0.9-3.6,1.6-5.9,1.6C469.4,143.6,465.6,140.6,465.6,135.7 M477.6,134.3c0-2.6-1.4-4.1-3.9-4.1
		c-2.2,0-4.1,1.5-4.5,4.1H477.6z"/>
	<path class="st2" d="M483.7,135.7c0-5.1,4.1-8,8.7-8c2.2,0,3.9,0.8,5.1,1.7l-1.8,2.1c-1-0.7-2-1.2-3.2-1.2c-2.9,0-5,2.1-5,5.4
		c0,3.2,2,5.3,4.9,5.3c1.5,0,2.8-0.6,3.8-1.4l1.5,2.1c-1.6,1.2-3.7,1.9-5.7,1.9C487.3,143.6,483.7,140.7,483.7,135.7"/>
	<path class="st2" d="M501.4,121.3h3.6v5.8l-0.1,3c1.5-1.3,3.3-2.4,5.7-2.4c3.7,0,5.4,2.2,5.4,6v9.5h-3.7v-9.1c0-2.6-0.9-3.7-3-3.7
		c-1.6,0-2.7,0.7-4.3,2.1v10.7h-3.6V121.3z"/>
	<path class="st2" d="M521.3,128.1h3l0.3,2.1h0.1c1.6-1.3,3.4-2.5,5.8-2.5c3.7,0,5.4,2.2,5.4,6v9.5h-3.7v-9.1c0-2.6-0.9-3.7-3-3.7
		c-1.6,0-2.7,0.7-4.3,2.1v10.7h-3.6V128.1z"/>
	<path class="st2" d="M539.9,135.7c0-5.1,3.9-8,8.3-8c4.3,0,8.3,2.9,8.3,8c0,5-3.9,7.9-8.3,7.9C543.9,143.6,539.9,140.7,539.9,135.7
		 M552.7,135.7c0-3.2-1.7-5.4-4.5-5.4c-2.7,0-4.5,2.1-4.5,5.4c0,3.2,1.7,5.3,4.5,5.3C551,141,552.7,138.9,552.7,135.7"/>
	<path class="st2" d="M560.8,139.7v-18.4h3.6v18.5c0,0.9,0.5,1.2,0.9,1.2c0.2,0,0.3,0,0.6-0.1l0.5,2.4c-0.5,0.1-1.1,0.3-2,0.3
		C561.8,143.6,560.8,142.1,560.8,139.7"/>
	<path class="st2" d="M569.1,135.7c0-5.1,3.9-8,8.3-8c4.3,0,8.3,2.9,8.3,8c0,5-3.9,7.9-8.3,7.9C573,143.6,569.1,140.7,569.1,135.7
		 M581.8,135.7c0-3.2-1.7-5.4-4.5-5.4c-2.7,0-4.5,2.1-4.5,5.4c0,3.2,1.7,5.3,4.5,5.3C580.1,141,581.8,138.9,581.8,135.7"/>
	<path class="st2" d="M588.7,146c0-1.3,0.9-2.4,2.6-3.3v-0.1c-0.9-0.5-1.6-1.3-1.6-2.5c0-1.2,1-2.2,1.9-2.8v-0.1
		c-1.2-0.8-2.3-2.2-2.3-4c0-3.4,3.2-5.4,6.8-5.4c1,0,1.9,0.2,2.6,0.4h6.2v2.4h-3.4c0.7,0.6,1.2,1.6,1.2,2.8c0,3.3-2.9,5.2-6.6,5.2
		c-0.8,0-1.7-0.2-2.5-0.5c-0.6,0.4-0.9,0.9-0.9,1.6c0,0.9,0.7,1.5,2.9,1.5h3.2c4.1,0,6.3,1.1,6.3,3.7c0,2.9-3.6,5.3-9.2,5.3
		C591.7,150,588.7,148.6,588.7,146 M601.6,145.2c0-1.3-1.1-1.6-3.3-1.6h-2.7c-0.8,0-1.6-0.1-2.4-0.2c-1.1,0.7-1.5,1.4-1.5,2.2
		c0,1.5,1.8,2.4,4.7,2.4C599.5,147.9,601.6,146.6,601.6,145.2 M599.4,133.1c0-2-1.5-3.2-3.3-3.2c-1.8,0-3.3,1.2-3.3,3.2
		c0,2,1.5,3.2,3.3,3.2C597.9,136.4,599.4,135.1,599.4,133.1"/>
	<path class="st2" d="M616.5,144.1c-1.4,3.3-3.2,5.4-6.9,5.4c-0.9,0-1.6-0.1-2.2-0.3l0.7-2.5c0.3,0.1,0.8,0.2,1.3,0.2
		c1.9,0,3-1.2,3.7-2.8l0.3-1l-7-15h3.8l3.3,7.8c0.5,1.3,1.1,2.9,1.6,4.3h0.2l1.4-4.3l2.8-7.8h3.6L616.5,144.1z"/>
	<path class="st2" d="M192.9,128c-2.4,0-4.7,1.2-5.8,2.4H187l-0.3-2.4h-3v15.1h3.6v-9.5c0-0.2,0-0.4,0.1-0.5c0.8-1.2,2.1-1.8,4-1.8
		c0.7,0,1.4,0.1,1.8,0.3c0.2,0.1,0.3,0,0.3-0.2v-3.4C193.3,128.1,193.1,128,192.9,128"/>
	<path class="st2" d="M619.2,76.6l0-0.1c2.5-6.6,3.8-12,3.8-16.1c0-3.1-1.6-4.6-5-4.6h-15.2c-2.7,0-4.7,1.8-4.7,4.8v51h9.1v-10.2
		c2.1,1,3.7,1.1,6,1.1c3.4,0,5.9-1,7.5-3.1c1.5-1.7,2.3-4.4,2.3-8.1c0-4.6-1.3-9.5-3.8-14.7L619.2,76.6z M610.5,79.5
		c2.1,3.4,3.2,6.5,3.2,9.2c0,1.9-0.2,3.3-0.6,4.1c-0.6,1.3-1.8,2-3.5,2c-1,0-0.8-0.1-2.3-0.3l-0.3,0V63h5.7c0.6,0,0.9,0.3,0.9,0.8
		c0,3.6-1.1,7.5-3.3,11.5c-0.3,0.5-0.5,1.1-0.5,1.8C609.9,77.8,610.1,78.6,610.5,79.5"/>
	<path class="st2" d="M588.4,85.9h-24.5c-2.5,0-4.5,2-4.5,4.5l0,21.2H593l0-21.2C593,87.9,590.9,85.9,588.4,85.9 M583.8,104.1H568
		v-9.2c0-0.6,0.2-1.6,1.9-1.6h12.2c1.1,0,1.7,0.6,1.7,1.6L583.8,104.1z"/>
	<path class="st2" d="M595.5,61.9c0-2.1-1.7-3.8-3.8-3.8h-11.2v-0.5c0-2.5-2-4.5-4.5-4.5c-2.5,0-4.5,2-4.5,4.5v0.5h-15v7.5l5.5,0
		c-0.9,1.1-1.1,2.7-0.4,4.1c1,1.5,1.8,3.2,2.4,4.8h-7.5v7.5l35.3,0c2.1,0,3.8-1.7,3.8-3.8c0-2.1-1.7-3.8-3.8-3.8H588
		c0.5-1.6,1.1-3.5,1.4-5.4c0.3-1.3-0.1-2.6-1-3.5l3.2,0C593.8,65.7,595.5,64,595.5,61.9 M582.1,67.5c-0.3,2.5-1.2,5.2-2,7.1h-8.4
		c-0.6-1.9-1.8-5.1-3.6-8.3c-0.1-0.2-0.3-0.4-0.4-0.6l15.4,0C582.6,66.2,582.3,66.8,582.1,67.5"/>
	<path class="st2" d="M461.6,90.3c-0.2-2.1-2.1-3.5-4.2-3.3c-1,0.2-2,0.4-3.1,0.7l0-29.8c0-2.5-2-4.5-4.5-4.5c-2.5,0-4.5,2-4.5,4.5
		l0,31.4c-9.4,1.5-17.2,2.2-17.2,2.2v7.5c0,0,7.9-0.5,17.2-1.9l0,14.5h9.1l0-16.1c1.3-0.3,2.7-0.6,3.9-0.9
		C460.4,94.3,461.9,92.4,461.6,90.3"/>
	<path class="st2" d="M442.2,69.4c1.3-1.6,1.1-4-0.5-5.3c-4.1-3.7-8.7-6.1-8.7-6.1l-4.8,5.8c0,0,5.4,2.7,8.7,6.1
		C438.4,71.2,440.8,71,442.2,69.4"/>
	<path class="st2" d="M440.5,85.4c1.3-1.6,1.1-4-0.5-5.3c-4.1-3.7-8.7-6.1-8.7-6.1l-4.8,5.8c0,0,5.4,2.7,8.7,6.1
		C436.8,87.2,439.2,87,440.5,85.4"/>
	<path class="st2" d="M425.3,74c0-2.1-1.7-3.8-3.8-3.8h-6.6v-6.4c3.7-0.6,5.9-1.2,5.9-1.2c2.1-0.3,3.5-2.3,3.1-4.3
		c-0.3-2.1-2.3-3.4-4.3-3.1c-11.6,2.2-24.1,2.6-24.1,2.6v7.5c3.8,0,7.3-0.1,10.4-0.4v5.3h-10.5v7.5l10.5,0v0.1
		c-1.5,2.2-5.7,7.9-10.5,11.1v10.8c0,0,7.5-5.1,10.5-9.9l0,21.7h9.1l0-23.3c1.2,1.3,2.4,3,3.4,4.6c1.2,1.7,3.6,2.1,5.3,0.9
		c1.7-1.2,2.1-3.6,0.9-5.3c-2.3-3.7-6.8-8.3-9.4-10.7l6.5,0C423.6,77.8,425.3,76.1,425.3,74"/>
	<path class="st2" d="M494.4,79.9l-3.2,0.6l0-10.2l3.2,0c2.1,0,3.8-1.7,3.8-3.8c0-2.1-1.7-3.8-3.8-3.8h-3.2v-4.9
		c0-2.5-2-4.5-4.5-4.5c-2.5,0-4.5,2-4.5,4.5v4.9h-7v7.5l7,0l0,12l-7,1.4v7.5l7-1.4l0,11.3c0,0,0.3,1.5-2.6,1.5
		c-2.9,0-4.4-0.5-4.4-0.5v8.5l6.6,0.8c0,0,9.5,0.3,9.5-5.8l0-17.5l3.2-0.6c2.1,0,3.8-1.7,3.8-3.8C498.1,81.5,496.5,79.9,494.4,79.9"
		/>
	<path class="st2" d="M540.6,81.7c0-3.1-2.5-5.6-5.6-5.6h-10.6l0-7l13.3,0c2.1,0,3.8-1.7,3.8-3.8c0-2.1-1.7-3.8-3.8-3.8h-13.3l0-3.7
		c0-2.5-2-4.5-4.5-4.5c-2.5,0-4.5,2-4.5,4.5v3.7h-14.5v7.5l14.5,0l0,7h-9.9c-3.1,0-5.6,2.5-5.6,5.6c0,4.5,4.3,10.7,11.5,16.5
		c-3.8,1.8-8.2,3.5-13.4,4.9v8.7c9-2.2,16.2-4.9,21.9-7.9c6.3,3.6,13.7,6.5,21.7,7.9v-8.2c-5-1.2-9.4-2.9-13.2-4.9
		C537.7,91.6,540.6,84.6,540.6,81.7 M519.9,93.3c-5.6-4.2-8.5-7.8-8.5-7.8c-1.5-1.5,0.3-1.9,0.3-1.9h16.1c1.1,0,1.3,0.7,1.3,1.1
		C529.1,85.1,526.4,88.9,519.9,93.3"/>
	<path class="st1" d="M227.1,52.2c18.7,0,31.2,14.1,27.9,31.4c-3.3,17.3-21.2,31.4-39.9,31.4c-18.7,0-31.2-14.1-27.9-31.4
		C190.5,66.3,208.4,52.2,227.1,52.2 M230.9,59.6c-0.2-0.2-0.4-0.3-0.7-0.4c-1-0.1-1.6,0.9-2.4,1.5c-1.1,0.8-2.6,0.8-3.9,1.3
		c-1.2,0.5-2,1.5-2.9,2.5c-3,3.6-6.1,6.7-8.9,10.5c-2.2,2.9-5.8,6.6-6.4,11c-1.6,10.4,6.3,14.6,7.8,18.5c0.5,1.1,0.7,2.1,0.6,3.2
		c0,0.3,0.2,0.6,0.5,0.7c0.5,0.1,1.2,0.6,1.7,1c0.4,0.3,0.9,0.1,1-0.3c0.8-3,0.4-6.9,2.1-9.4c0.7-1.1,1.8-2,2.7-2.9
		c2.2-2.1,3.7-4.8,4.9-7.7c1.6-3.9,2-8.1,3.9-11.8c1.2-2.4,3.2-4.8,3.1-7.5c0-1-0.3-2-0.1-3c0.2-1,0.7-1.7,1.5-2.3
		c0.4-0.3,0.6-0.7,0.5-1.1c-0.1-0.4-0.2-0.7-0.4-1c-0.3-0.3-0.7-0.4-1.1-0.5c-0.3-0.1-0.7-0.2-1-0.4c-0.6-0.3-1.2-0.7-1.7-1.3
		C231.4,60.1,231.2,59.9,230.9,59.6"/>
</g>
</svg>
