<?xml version="1.0" encoding="utf-8"?>
<!-- Generator: Adobe Illustrator 26.5.2, SVG Export Plug-In . SVG Version: 6.00 Build 0)  -->
<svg version="1.1" id="圖層_1" xmlns="http://www.w3.org/2000/svg" xmlns:xlink="http://www.w3.org/1999/xlink" x="0px" y="0px"
	 viewBox="0 0 623 150" style="enable-background:new 0 0 623 150;" xml:space="preserve">
<style type="text/css">
	.st0{fill:#FFFFFF;}
	.st1{fill:url(#SVGID_1_);}
	.st2{fill:#004097;}
</style>
<g>
	<g>
		<g>
			<g>
				<path class="st0" d="M261.5,60.8h-23.5c-3.1,0-4.4,1.3-4.4,4.1v24.3c0,1.9,0.5,4.1,4.4,4.1h23.5c3,0,4.4-1.3,4.4-4.1V64.9
					C266,63.1,265.5,60.8,261.5,60.8z M260,91.3h-20.3c-1.5,0-1.8-0.6-1.8-1.8V64.6c0-1.5,0.7-1.8,1.8-1.8H260
					c1.4,0,1.8,0.5,1.8,1.8v24.9C261.8,91,261.1,91.3,260,91.3z"/>
				<path class="st0" d="M246.7,81c1.4,0,2.7-0.3,2.7-2.3v-4.7c0-1.6-0.8-2.3-2.7-2.3h-4c-1.4,0-2.8,0.3-2.8,2.3v4.7
					c0,1.6,0.8,2.3,2.8,2.3H246.7z M243.1,78v-3.2c0-0.9,0.1-1.1,1.1-1.1h1.1c0.9,0,1.1,0.1,1.1,1.1V78c0,0.8-0.1,1.1-1.1,1.1h-1.1
					C243.2,79.1,243.1,78.9,243.1,78z"/>
				<path class="st0" d="M259,73.1c-1.4,0-1.6,0.7-1.9,1.3l0,0.1c-0.9,2.5-1,3-1.7,4.4c-0.9-4.2-1-7.2-1.1-9h5.6
					c0.8,0,1.2-0.4,1.2-1c0-0.7-0.6-1-1.2-1h-0.6c0.2-0.3,0.3-0.6,0.3-0.9c0-0.7-0.5-1-1.2-1.6c-0.9-0.6-1.8-1.2-2.2-1.2
					c-0.5,0-0.9,0.4-0.9,0.9c0,0.2,0.1,0.4,0.1,0.5c0.2,0.2,0.3,0.5,0.5,0.7c0.3,0.3,0.5,0.7,0.6,0.9c0.2,0.3,0.3,0.5,0.5,0.7h-2.8
					v-2.4c0-1.3-0.7-2.1-2-2.1c-0.8,0-1.7,0.5-1.9,1.3c-0.1,0.3,0,2.3,0,3.1h-10.5c-0.6,0-1.2,0.3-1.2,1c0,0.7,0.6,1,1.2,1h10.6
					c0.1,2.4,0.5,7.8,2.2,13.3c-1.6,2-3.9,4-6,5.4c-0.3,0.2-0.6,0.4-0.6,0.9c0,0.5,0.4,1,1,1c0.8,0,4.1-2.1,6.7-4.4
					c1.3,3,2.9,3.7,4,3.7c0,0,0,0,0,0c1.9,0,2.9-1.3,3.2-2.2c0.1-0.5,0-0.9-0.3-1.1c-0.4-0.3-0.8,0-1.2,0.3
					c-0.4,0.3-0.9,0.7-1.5,0.3c-0.5-0.3-1.2-2.4-1.5-3.9c2.8-3.4,4.6-7.2,4.6-8.3C261.1,74.1,260.3,73.1,259,73.1z"/>
				<path class="st0" d="M249.8,84.3c0.3-0.1,0.8-0.3,0.8-1c0-0.6-0.6-1-1-1c-0.1,0-0.2,0-0.4,0c-0.1,0-0.1,0-0.1,0
					c-3.1,0.4-5.3,0.7-8.1,0.8l0,0c-0.5,0-1.7,0.1-1.7,1.6c0,0.8,0.6,1.6,1.5,1.6C241.1,86.4,246.8,85.2,249.8,84.3L249.8,84.3z"/>
				<path class="st0" d="M614.5,81.2h-16.8c-2.4,0-3.4,1-3.4,3.4v5.5c0,1.8,0.4,3.4,3.4,3.4h16.8c2.4,0,3.5-1,3.5-3.4v-5.5
					C618,82.2,616.9,81.2,614.5,81.2z M613.8,88.3v1.4c0,1.3-0.2,1.6-1.4,1.6h-12.7c-1.2,0-1.4-0.2-1.4-1.6v-1.4H613.8z M613.8,84.9
					v1.3h-15.4v-1.3c0-1.3,0.2-1.6,1.4-1.6h12.7C613.6,83.3,613.8,83.5,613.8,84.9z"/>
				<path class="st0" d="M617.2,70.1h-22c-2.9,0-3.3,1.5-3.3,2.9v3.5c0,1.5,0.4,2.9,3.3,2.9h22c2.9,0,3.3-1.4,3.3-2.9v-3.5
					C620.5,71.6,620.1,70.1,617.2,70.1z M603,76.9c0-0.2,0-0.4-0.2-0.5c-0.5-0.8-1-1.9-1.5-3.1l0,0c-0.3-0.7-0.6-1-1.1-1.2h4v5.6
					h-1.7C602.8,77.5,603,77.2,603,76.9z M597.8,73.8c0,1.1,2.7,3.2,3.9,3.8h-4.4c-1.1,0-1.4-0.1-1.4-1.4v-2.9
					c0-1.2,0.2-1.4,1.4-1.4h1.9C598.4,72.3,597.8,73,597.8,73.8z M614.9,73.7c0-0.8-0.6-1.4-1.3-1.6h1.5c1.2,0,1.4,0.2,1.4,1.4v2.9
					c0,1.2-0.2,1.4-1.4,1.4H611C612.1,77,614.9,74.9,614.9,73.7z M610.6,74.7c-0.1,0.1-0.2,0.5-0.4,0.8c-0.5,0.9-0.6,1.2-0.6,1.4
					c0,0.3,0.2,0.6,0.4,0.8h-2V72h4.1C611.6,72.3,611.3,73.1,610.6,74.7z"/>
				<path class="st0" d="M622.1,66.9c-2.9-0.8-8.3-2.8-12.5-6.9c-1.2-1.3-1.5-1.5-3.3-1.5c-1.7,0-2.1,0.3-2.8,0.9
					c-2.4,2.3-5.5,5.2-13.2,7.5c-0.1,0-0.8,0.2-0.8,0.9c0,0.5,0.5,1,0.9,1c0.6,0,2.7-0.6,3.9-1c1.3-0.4,2.5-0.8,3.5-1.2
					c-0.2,0.2-0.2,0.5-0.2,0.6c0,0.4,0.1,0.9,1.1,0.9h14.8c0.7,0,1.2-0.4,1.2-0.9c0-0.2-0.1-0.5-0.3-0.7c3.7,1.5,7.1,2.3,7.8,2.3
					c0.4,0,0.9-0.3,0.9-1C623,67.4,622.7,67.1,622.1,66.9z M613.5,66.3h-14.7c3.9-1.5,5.5-2.7,7.1-3.7l0.1-0.1
					c0.2-0.2,0.3-0.2,0.4-0.2c0.2,0,0.2,0,0.5,0.3c2.1,1.5,4.5,2.8,6.8,3.8C613.6,66.3,613.6,66.3,613.5,66.3z"/>
				<path class="st0" d="M323.5,91.8V77.6c0.8,1.1,3.1,4.2,4.1,4.2c0.5,0,1-0.5,1-1c0-0.4-0.3-0.7-0.4-0.8c-3.1-3.8-4.4-8-4.7-9.2
					v-0.1h3.8c0.8,0,1.2-0.4,1.2-1c0-0.6-0.4-1-1.2-1h-3.8v-5.1c3.5-0.4,4.5-0.7,4.5-2c0-0.9-0.8-1.9-1.9-1.9
					c-0.4,0-2.3,0.7-2.3,0.7c-2.9,1-5.5,1.3-8.7,1.7l-0.6,0.1c-0.3,0-1.3,0.1-1.3,1c0,0.7,0.6,1,1.2,1c0.5,0,3.2-0.1,5.1-0.3v4.7
					h-5.2c-0.6,0-1.2,0.3-1.2,1c0,0.6,0.4,1,1.2,1h4.9c-1.3,6.7-4.5,12-6.2,14.1c-0.3,0.3-0.4,0.5-0.4,0.9c0,0.5,0.5,1,1,1
					c0.7,0,3.5-2.7,5.9-6.7v11.7c0,0.7,0,2.6,2.1,2.6C323.5,94.5,323.5,92.6,323.5,91.8z"/>
				<path class="st0" d="M333,77c0.3,0.7,0.8,1.4,1.9,1.4c1.3,0,2.3-1.2,2.3-2.3c0-1.3-2.2-2.8-3.4-3.7c-0.1,0-0.2-0.1-0.3-0.2
					c-1.4-0.9-2.7-1.7-3.2-1.7c-0.5,0-1,0.4-1,1c0,0.3,0.2,0.6,0.3,0.8C331.2,74,332.2,75.2,333,77z"/>
				<path class="st0" d="M332.9,66.9L332.9,66.9c1.4,2,1.6,2.3,2.4,2.3c1.2,0,2.1-1,2.1-2.2c0-0.7-0.2-1.4-3.1-3.3
					c-0.3-0.2-2.6-1.7-3.2-1.7c-0.6,0-1,0.4-1,1c0,0.3,0.2,0.5,0.3,0.6C331.4,64.8,332.2,65.8,332.9,66.9z"/>
				<path class="st0" d="M348.2,81.3c0-0.5-0.5-0.9-1-0.9l-4,0.6V62.3c0-0.7,0-2.6-2.1-2.6c-2,0-2,1.9-2,2.6v19.4l-10.4,1.6
					c-0.3,0-0.5,0.1-0.7,0.3c-0.2,0.2-0.3,0.4-0.3,0.7c0,0.5,0.5,0.9,1,0.9c0,0,0,0,0.1,0l10.3-1.6v8.2c0,0.7,0,2.6,2.1,2.6
					c2.1,0,2.1-2,2.1-2.6V83l4.1-0.6c0.3,0,0.5-0.1,0.7-0.3C348.2,81.8,348.2,81.6,348.2,81.3z"/>
				<path class="st0" d="M562.1,87.1c-0.8,0-1.1,0.2-1.9,0.9c-0.8,0.6-3.1,2.1-6.6,3.3c-1.7,0.6-2.1,0.7-2.1,1.3c0,0.5,0.4,1,1.1,1
					c0.4,0,3.5-0.5,7.2-1.5c3.6-1,4.7-1.6,4.7-2.9C564.5,88.1,563.3,87.1,562.1,87.1z"/>
				<path class="st0" d="M558.2,86.4h20.1c2.6,0,3.7-1,3.7-3.4v-9.5c0-2.4-1.1-3.4-3.7-3.4h-20.1c-2.6,0-3.7,1-3.7,3.4V83
					C554.4,85.4,555.5,86.4,558.2,86.4z M558.5,74.7v-1.3c0-1,0.2-1.3,1.3-1.3h16.6c1.1,0,1.3,0.3,1.3,1.3v1.3H558.5z M558.5,79.4
					v-2.8h19.2v2.8H558.5z M558.5,83.1v-1.8h19.2v1.8c0,1-0.2,1.3-1.3,1.3h-16.6C558.7,84.4,558.5,84.1,558.5,83.1z"/>
				<path class="st0" d="M558.9,68.2h17.8c2.4,0,3.5-0.9,3.5-3V63c0-2.1-1-3-3.5-3h-17.8c-2.4,0-3.5,0.9-3.5,3v2.3
					C555.5,66.7,555.9,68.2,558.9,68.2z M559.6,64.9v-1.7c0-1.1,0.1-1.4,1.4-1.4h13.6c1.3,0,1.4,0.3,1.4,1.4v1.7
					c0,1.1-0.2,1.4-1.4,1.4H561C559.7,66.3,559.6,66,559.6,64.9z"/>
				<path class="st0" d="M580,89c-3-0.8-6.5-1.5-7.1-1.5c-0.7,0-1.2,0.4-1.2,1c0,0.5,0.3,0.8,0.9,1c2.6,0.8,4.5,1.5,6.7,2.9
					c2.1,1.3,2.4,1.5,3.1,1.5c1.2,0,2.3-1,2.3-2C584.7,90.7,583.7,90.1,580,89z"/>
				<path class="st0" d="M474.9,91.1c0,1.6,0.6,2.4,1.9,2.4c1.3,0,1.9-0.8,1.9-2.4V73.4c0.7-1,2.1-3,2.1-4c0-1.3-1.3-1.9-2.2-1.9
					c-1.2,0-1.6,1-2,1.9l0,0c-1.5,3.8-2.9,5.9-5.5,9.2c-0.2,0.2-0.4,0.4-0.4,0.8c0,0.5,0.4,1,1,1c0.6,0,1.8-1.2,3.1-2.4V91.1z"/>
				<path class="st0" d="M472.3,69.7c1,0,7.9-6.4,7.9-8.3c0-1.1-1.1-1.9-2.2-1.9c-0.8,0-1.4,0.2-1.8,1.3c-1.4,3.1-2.1,4.6-4.3,7
					c-0.2,0.2-0.5,0.5-0.5,0.9C471.3,69.3,471.8,69.7,472.3,69.7z"/>
				<path class="st0" d="M483.6,72.6c-1.1,0-1.5,0.6-1.6,1.7c-0.1,3.2-0.4,6.4-1.1,9.4c-0.1,0.5-0.9,3-0.9,3.2
					c0,0.4,0.3,0.8,0.8,0.8c0.5,0,0.8-0.3,1.5-1.8c2-4.3,3.1-10.2,3.1-11.8C485.4,73.1,484.3,72.6,483.6,72.6z"/>
				<path class="st0" d="M482.5,69h3.7v22.1c0,0.6,0,2.3,1.9,2.3c0.9,0,1.9-0.4,1.9-2.3V69h4c0.7,0,1.2-0.4,1.2-1c0-0.7-0.6-1-1.2-1
					h-4v-5.3c0-1.5-0.7-2.3-2-2.3c-0.9,0-1.9,0.4-1.9,2.3v5.3h-3.7c-0.7,0-1.2,0.4-1.2,1C481.3,68.7,481.7,69,482.5,69z"/>
				<path class="st0" d="M492,64.5c0.6,1.6,0.7,1.8,1.4,1.8c0.7,0,1.4-0.6,1.4-1.4c0-1.2-2.7-3.4-3.1-3.5c-0.7-0.1-0.8,0.2-0.8,0.5
					c0,0.3,0.5,1.3,0.8,1.9C491.8,64.1,491.9,64.4,492,64.5z"/>
				<path class="st0" d="M504.2,70h-8.2c-0.7,0-1.2,0.4-1.2,1c0,0.6,0.4,0.9,1.2,0.9h2.6v18c0,1.1-0.1,1.4-1.4,1.4h-1.3
					c-0.8,0-1.2,0.3-1.2,1c0,0.6,0.4,1,1.2,1h3.2c3,0,3.4-1.5,3.4-3.1V71.9h1.7c0.7,0,1.2-0.4,1.2-1C505.3,70.6,505.2,70,504.2,70z"
					/>
				<path class="st0" d="M496.9,63.7h6.9c0.7,0,1.1-0.4,1.1-1c0-0.6-0.4-1-1.1-1h-6.9c-0.7,0-1.2,0.4-1.2,1
					C495.7,63.5,496.3,63.7,496.9,63.7z"/>
				<path class="st0" d="M497.6,85.7c0.4-0.2,0.4-0.8,0-1.1c-0.4-0.3-1.2-0.2-1.7-0.3c-0.6-0.2-1.3-0.5-1.5-1.2
					c-0.4-2.9-0.1-5.1-0.1-8.7c0-1.1-0.6-1.7-1.7-1.7c-0.8,0-1.8,0.5-1.8,1.7c0.1,2.5,0.2,5.1,0.6,7.6c0.2,1.6,0.7,3.1,2.2,3.8
					C494.9,86.4,496.4,86.4,497.6,85.7z"/>
				<path class="st0" d="M411.2,85.5c-2.8,2.8-4.8,4.2-9.3,5.8c-0.5,0.1-0.7,0.5-0.7,0.9c0,0.6,0.5,1,0.9,1c0.1,0,0.2,0,0.4-0.1
					c0.1,0,0.2,0,0.3-0.1c5.7-1.4,8.8-4,10.4-5.2c0.2-0.1,0.3-0.2,0.4-0.3c4.8,3.7,10.7,5.6,11.3,5.6c0.4,0,1-0.3,1-1
					c0-0.6-0.5-0.9-0.9-1l0,0c-2.6-1.2-6.5-3-9.3-5.4c5.5-5.3,8-11.9,8-13c0-1.1-0.7-2.2-2.8-2.2h-3.6c-0.6,0-0.9-0.2-0.9-0.6
					c0-0.5,0.8-1.8,1.6-3.2c1-1.6,1.9-3.2,1.9-3.8c0-1.5-1.1-2.2-3.2-2.2h-21.2c-1,0-1.2,0.5-1.2,0.9c0,0.9,0.9,1,1.1,1h6.8
					c0,10.4-1.2,20.9-9.9,27.7c-0.2,0.1-0.6,0.4-0.6,0.9c0,0.5,0.4,1,1,1c0.6,0,9.8-4.8,12.2-17.4C407.8,81.3,409.2,83.6,411.2,85.5
					z M413.6,66.3c-1,1.8-1.9,3.4-1.9,4c0,0.8,0.4,2.1,3,2.1h2.6c1.1,0,1.5,0,1.5,0.5c0,0.3-1.7,5.7-5.5,10.4
					c-4.8-5.5-6.1-12.6-6.8-19.4l0-1.4h7.8c0.2,0,0.6,0,0.8,0.2c0.1,0.1,0.1,0.2,0.1,0.3C415.1,63.5,414.3,64.9,413.6,66.3z"/>
				<path class="st0" d="M275.7,70.1c2.1,0,2.1-1.9,2.1-2.5v-1.5c0-1.1,0.1-1.4,1.4-1.4h21.5c1.3,0,1.4,0.3,1.4,1.4v1.5
					c0,0.7,0,2.5,2.2,2.5c1.5,0,2.2-0.9,2.2-2.5v-1.8c0-2.2-1.1-3.1-3.6-3.1h-10.8v-1.8c0-2.1-1.5-2.4-2.1-2.4
					c-1.9,0-2.2,1.5-2.2,2.4v1.8h-10.7c-2.5,0-3.6,0.9-3.6,3.1v1.8C273.6,69.3,274.3,70.1,275.7,70.1z"/>
				<path class="st0" d="M295.3,80.8c1.7,2.6,3.9,4.8,6.3,6.5c2.6,1.8,5.3,2.8,6,2.7c0.5-0.1,0.8-0.7,0.7-1.2
					c-0.1-0.4-0.4-0.6-0.7-0.8l0,0c-3.1-1.5-6.1-3.5-9.3-9.1c2.7-2,4.4-3.8,4.2-4.8c-0.1-0.6-0.4-1.1-0.9-1.5
					c-0.5-0.4-1.1-0.5-1.6-0.4c-0.7,0.1-1,0.5-1.4,1c-0.7,1-3.3,4.2-5,5.5c-1-2.4-2.5-4.5-4.5-6.2c1-0.8,1.4-1.3,2.1-2l0,0h8.2
					c0.7,0,1.2-0.4,1.2-1c0-0.6-0.4-1-1.2-1h-19.2c-0.7,0-1.2,0.4-1.2,1c0,0.8,0.6,1,1.2,1h5.4c-1.3,1.7-4.2,4.6-10.1,7
					c-0.3,0.1-0.9,0.4-0.9,1c0,0.6,0.5,1,1,1c0.5,0,3.2-1,4.8-1.7c1.8-0.8,4.6-2.3,6.9-4l0,0.1c0.2,0.3,0.5,0.6,0.8,1.1
					c-3.7,4.2-9.2,7.2-12.9,8.5c-0.6,0.2-0.8,0.5-0.8,1c0,0.6,0.5,1,1,1c0.7,0,8.9-2.5,14.3-7.1c0.2,0.4,0.3,0.8,0.4,1.4l0,0.1
					c-3.9,4.3-9.5,7.7-15.7,9.8c-0.5,0.2-1,0.4-1,1.1c0,0.6,0.5,1,0.9,1c0.5,0,9.4-2.1,16.3-7.7c0.1,3.6-0.3,5.8-1.2,6.7
					c-0.5,0.5-1.2,0.5-1.9,0.5c-0.1,0-0.2,0-0.3,0l-2.7-0.2c-0.8,0-1.2,0.4-1.2,1c0,0.9,2.8,2,6.6,2c4.3,0,5-4.8,5-7.7
					c0-1.9-0.2-3.6-0.6-5.2c0.2-0.1,0.4-0.2,0.6-0.3L295.3,80.8z"/>
				<path class="st0" d="M355.8,82c1.4,0,1.8-0.8,1.8-2.4v-2c0-1.1,0.2-1.3,1.3-1.3h23.4c1.1,0,1.3,0.2,1.3,1.3v2
					c0,1.6,0.4,2.4,1.8,2.4c1.4,0,2.1-0.8,2.1-2.4v-2.4c0-2.7-2.1-2.8-3.4-2.8l0.6-11c0.1-0.8-0.2-1.4-0.6-1.9
					c-0.5-0.6-1.3-0.9-2.2-0.9H377c-0.7,0-1.2,0.4-1.2,1c0,0.6,0.4,1,1.2,1h2.6c0.3,0,0.5,0.1,0.7,0.3c0.1,0.1,0.2,0.4,0.2,0.6
					l-0.1,1.9H377c-0.8,0-1.1,0.5-1.1,1c0,0.6,0.4,1,1.2,1h3.3l-0.1,2.6h-3.3c-0.6,0-1,0.4-1,1c0,0.6,0.4,1,1.2,1h3l-0.1,2.5h-5.3
					c0.4-0.3,0.7-0.8,0.7-1.3c0-0.7-0.5-1.1-1.5-1.8c1-0.7,1.6-1.1,1.6-1.9c0-0.9-0.8-1.6-1.8-1.6c-0.3,0-0.6,0.1-0.9,0.4
					c-0.2,0.2-1.2,1.3-1.4,1.5c-0.6-0.3-1.8-1.1-2.3-1.1c-0.5,0-0.9,0.5-0.9,0.9c0,0.3,0.1,0.5,0.3,0.6c0.2,0.2,1,0.8,1.2,1
					c-1,0.7-1.3,0.9-3.8,2.2c-0.3,0.1-0.5,0.4-0.5,0.7c0,0.2,0.1,0.4,0.2,0.5h-4.2l-0.1-2.5h3.1c0.6,0,1-0.4,1-1c0-0.6-0.4-1-1.2-1
					h-3l-0.1-2.4h3.2c0.9,0,1.1-0.6,1.1-1c0-0.7-0.6-1-1.2-1h-3.2l-0.1-1.8c0-0.5,0-0.5,2.1-0.7l0.1,0c2-0.1,3.4-0.2,3.4-1.6
					c0-0.8-0.7-1.7-1.6-1.7c-0.3,0-1.1,0.3-2,0.6c-0.3,0.1-0.6,0.2-0.7,0.2c-1.2,0.3-2.2,0.4-3.1,0.5l-0.1,0c-1.3,0.1-2.1,1.1-2,2.5
					l0.6,10.7c-1.5,0-3.6,0.1-3.6,2.8v2.5C353.7,81.2,354.4,82,355.8,82z M371.3,72.6c0.4,0.4,0.4,0.5,1.2,1.5
					c0.1,0.1,0.1,0.2,0.2,0.2h-5.3C368.6,73.9,370.3,73.2,371.3,72.6z"/>
				<path class="st0" d="M372.4,91.6C372.4,91.6,372.4,91.6,372.4,91.6c0.1-0.2,0.1-0.4,0.1-0.6c0-0.1,0-0.1,0-0.2c0,0,0-0.1,0-0.1
					h0c0-0.2,0-0.4,0-0.6v-3.5h13c0.4,0,1.1-0.1,1.1-0.8c0-0.8-0.7-0.8-1.1-0.8h-13v-0.8c0-0.2,0-0.3-0.1-0.4
					c6.6-2.9,6.6-3.2,6.6-3.9c0,0,0-1.2-1.5-1.2H362c-0.4,0-1,0.1-1,0.8c0,0.8,0.8,0.8,1,0.8h10.4c0.2,0,0.4,0.1,0.4,0.3
					c0,0.4-1.3,1.5-1.3,1.5c-0.2-0.1-0.4-0.1-0.8-0.1c-1.3,0-2,0.8-2,2.2V85h-13.5c-0.4,0-1,0.1-1,0.8c0,0.7,0.7,0.8,1,0.8h13.5v3.5
					c0,0.2-0.1,1.4-1.1,1.6c-1.7,0.2-4.4,0-4.4,0c-0.3,0-1.1,0.1-1.1,0.8c0,0.7,2.6,1.8,6.4,1.8C370.5,94.3,371.9,93.2,372.4,91.6z"
					/>
				<path class="st0" d="M531.1,73.8V70c4.7,4.8,13.3,7.4,14,7.4c0.5,0,1-0.4,1-1c0-0.5-0.3-0.8-1-1.1c-5.8-2.2-9.7-5.6-11-7h9.9
					c0.7,0,1.2-0.4,1.2-1c0-0.6-0.4-0.9-1.2-0.9h-12.9v-3c4.1-0.2,7.3-0.5,8.5-0.8c0.8-0.2,1.5-0.4,1.5-1.4c0-0.9-0.8-1.9-1.9-1.9
					c-0.3,0-1.3,0.3-2.4,0.5c-0.3,0.1-0.5,0.1-0.6,0.2c-7.2,1.6-17.3,1.6-19.3,1.6c-1.1,0-1.3,0.7-1.3,1c0,0.5,0.4,0.8,0.8,0.9
					c0.5,0.1,3.6,0.2,6.7,0.2c1.7,0,3.2,0,3.9-0.1v2.8h-12.8c-0.7,0-1.2,0.4-1.2,1c0,0.4,0.1,0.9,1.2,0.9h9.7c-2,2.2-6.1,5.1-10.9,7
					c-0.4,0.2-1,0.4-1,1.1c0,0.6,0.5,1,0.9,1c0.7,0,8.8-2.5,14-7.3v3.7c0,0.7,0.1,1.2,0.3,1.6c-0.3-0.2-0.7-0.3-1.1-0.3
					c-0.7,0-1.3,0.3-1.8,1c-0.5,0.8-1.5,2.3-2.3,3.4h-8.9c-0.7,0-1.2,0.4-1.2,1c0,0.6,0.4,0.9,1.2,0.9h7.3l-1.9,2.1
					c-0.1,0.1-0.2,0.2-0.2,0.3l-0.4,0.4c-0.3,0.3-0.5,0.7-0.5,1.2c0,0.4,0.2,0.8,0.5,1.2l0.1,0.1c0.3,0.3,0.7,0.5,1.2,0.5
					c0,0,0,0,0,0c0.4,0,0.8-0.2,1.2-0.5l0.1-0.1c2.9,0.4,5.2,0.8,7.8,1.4c-4.4,2.6-12.9,3.1-14.6,3.2c-0.4,0-1.4,0-1.4,1
					c0,0.6,0.4,1,1.3,1c2.5,0,6.1-0.3,8.6-0.7c6.3-0.9,9-2.7,9.9-3.4c2.4,0.8,5.1,1.8,8.1,3.6c0.5,0.3,0.9,0.5,1.4,0.5
					c1.1,0,2.1-1,2.1-2c0-0.7-0.4-1.2-1-1.5c-2.2-1-5.5-2-7.9-2.7c1.2-1.2,2.6-2.8,3.6-5.5h6.3c0.7,0,1.2-0.4,1.2-1
					c0-0.6-0.4-0.9-1.2-0.9h-6.1c-0.2-0.9-1-1.6-2-1.6h-0.3c-1,0-1.8,0.7-2,1.6H527c1.1-1.3,1.4-1.7,1.4-2.4c0-0.4-0.1-0.7-0.3-1
					c0.3,0.1,0.5,0.2,0.9,0.2C530.4,76.3,531.1,75.5,531.1,73.8z M522.8,84.6c0-0.1,0.1-0.2,0.2-0.3c0.4-0.4,2-2.2,2.4-2.7h8.6
					c-0.3,0.9-1.1,2.7-3.1,4.6c-2.7-0.5-5.2-0.9-7.7-1.2C522.9,84.8,522.8,84.7,522.8,84.6z"/>
				<path class="st0" d="M445.6,66.8h7.1v6h-6.4c-0.7,0-1.2,0.4-1.2,1c0,0.7,0.6,1,1.2,1h11.7c0.3,0,0.7,0.1,0.7,0.5
					c0,0.2,0,0.5-0.1,0.7l0,0.1c-0.8,4.3-2.8,7-3.7,8c-1.5-2-2.5-4.2-3-6.6c-0.2-0.7-0.4-1.9-2.2-1.9c-1.3,0-2.4,0.9-2.4,2
					c0,1,1.5,5.2,5.2,9c-3.5,3-6.6,3.9-9.7,4.9c-0.2,0.1-0.8,0.3-0.8,1c0,0.5,0.4,1,1,1c0.4,0,6.6-1.2,11.7-4.8
					c4.7,3.7,10.1,4.9,10.2,4.9c0.5,0,1-0.4,1-1c0-0.6-0.4-0.8-0.6-0.9l-0.1,0c-3.1-1.3-5.4-2.4-8.1-4.9c3.1-2.9,5-6.1,5.9-10
					l0.1-0.3c0.1-0.5,0.2-1,0.2-1.5c0-1.2-1-2-2.5-2H457v-6h7.3c0.6,0,1.2-0.3,1.2-1c0-0.6-0.4-1-1.2-1H457v-3.4
					c0-1.6-0.7-2.4-2.1-2.4c-1.3,0-2.1,0.9-2.1,2.4v3.4h-7.1c-0.7,0-1.2,0.4-1.2,1C444.4,66.4,444.9,66.8,445.6,66.8z"/>
				<path class="st0" d="M440.3,79.1c1.2-0.5,2.3-1,3.4-1.5c0.6-0.3,0.7-0.7,0.5-1.2c-0.2-0.5-0.6-0.7-1.2-0.4
					c-0.9,0.4-1.7,0.8-2.6,1.2v-8.2h2.9c0.5,0,1-0.4,1-1c0-0.5-0.4-1-1-1h-2.9v-5.9c0-1.1-0.9-2.1-2.1-2.1c-1.1,0-2.1,0.9-2.1,2.1
					V67h-3.9c-0.5,0-1,0.4-1,1c0,0.5,0.4,1,1,1h3.9v9.9c-1.7,0.7-3.4,1.4-5,2c-0.7,0.2-0.8,0.7-0.6,1.2c0.2,0.5,0.5,0.8,1.2,0.5
					c1.4-0.5,2.9-1.1,4.4-1.7v8.8c0,0,0,1.1-0.8,1.2c-1.3,0.2-2.8,0-2.9,0c-0.6,0-1,0.3-1,0.8c0,0.7,2.3,1.5,5.3,1.5
					c1.6,0,2.9-0.9,3.3-2.2l0,0c0-0.1,0.1-0.3,0.1-0.4l0-0.1c0,0,0-0.1,0-0.1c0,0,0,0,0,0c0,0,0,0,0-0.1l0-0.1c0-0.1,0-0.2,0-0.4
					V79.1z"/>
				<path class="st0" d="M369.2,63.7c-0.7,0.7-0.9,0.9-3.1,2.7c-0.1,0.1-0.3,0.3-0.3,0.7c0,0.5,0.4,0.8,0.8,0.8
					c0.5,0,2.7-1.4,4.2-2.5c0.2,0.1,0.7,0.9,0.9,1c0.2,0.3,0.5,0.7,1.2,0.7c0.9,0,1.7-0.9,1.7-1.8c0-0.8-0.5-1.1-1.5-1.8
					c1.5-1.3,1.8-1.7,1.8-2.4c0-0.9-0.9-1.7-1.8-1.7c-0.6,0-1,0.3-1.3,0.6c-0.1,0.3-0.9,1.6-1.2,1.9c-0.6-0.4-2.2-1.3-2.6-1.3
					c-0.5,0-0.9,0.5-0.9,0.9c0,0.1,0.1,0.4,0.3,0.6C367.7,62.4,369.2,63.7,369.2,63.7z"/>
			</g>
			<g>
				<linearGradient id="SVGID_1_" gradientUnits="userSpaceOnUse" x1="0" y1="61.0117" x2="211.6847" y2="61.0117">
					<stop  offset="0" style="stop-color:#DE7403"/>
					<stop  offset="1" style="stop-color:#FFDA2A"/>
				</linearGradient>
				<path class="st1" d="M147.9,45.1C146.6,25.4,86.7,15.8,0,94.5h18.3c56.6-65,137.4-71.8,125-37.3c0,0,25.9-37.5,67.7-23.5
					c0.3,0.1,0.5,0,0.6-0.2c0.2-0.4-0.4-0.6-0.4-0.6c-6.8-3.6-12.4-5.3-19.9-5.3C164.1,27.6,147.9,45.1,147.9,45.1"/>
				<g>
					<path class="st2" d="M94.5,61.1c-4.3,0-4.6,4.5-4.6,4.5L86.9,81l-2.3-3.7l-8.3-13.6c-1.4-2.2-3.8-3.6-6.4-3.6
						c-3.6,0-6.6,2.6-7.3,6.1l-5.3,27.9h7.2c4.3,0,4.6-4.5,4.6-4.5L72,74.2l2.3,3.7l8.3,13.6c1.4,2.2,3.8,3.6,6.4,3.6
						c3.6,0,6.6-2.6,7.3-6.1l5.3-27.9H94.5z"/>
					<path class="st2" d="M148.7,69.3L145,89c0,0-1.6,5.1,3.6,5.1h6.3l4.7-24.8l0,0l8.5,0c1.9,0,3.1-0.8,3.9-1.6
						c0.7-0.7,1.2-1.7,1.4-2.7l0.8-4h-57.7c-0.4,0-9.5,0.7-11.5,10.5c-2.2,10.9,8.6,10.5,8.6,10.5h11.2c1.7,0,3.1,0.3,2.8,1.9
						c-0.3,1.6-1.7,1.9-3.5,1.9l-17.6,0c-1.9,0-3.1,0.7-3.9,1.6c-0.7,0.7-1.2,1.7-1.4,2.7l-0.8,4l26.2,0c7.9,0,10.4-6.4,11.1-9.7
						c2.3-10.9-7.1-10.7-7.5-10.7h-12.1c-1.7,0-2.9-0.7-2.6-2.3c0.3-1.6,1.8-2.1,3.6-2.1L148.7,69.3z"/>
					<path class="st2" d="M206.8,61.4c-2.1-1.1-5.3-1.7-9.5-1.7c-1.6,0-3.2,0.1-4.8,0.2c-5.3,0.3-9.4,1.5-12.2,3.4
						c-2.8,1.9-4.7,4.8-5.7,8.6l-1.5,6.1l-0.1,0.6l-0.9,5.3c-0.2,1.3-0.3,2.5-0.1,3.5c0.8,5,5.7,7.6,14.7,7.6c1,0,1.9,0,2.7,0
						c0.8,0,1.6-0.1,2.4-0.2c4.9-0.4,8.7-1.6,11.4-3.4c2.6-1.8,4.5-4.6,5.5-8.4c0.1-0.6,0.6-2.8,0.7-3.3h-8.9
						c-1.3,0-2.4,0.8-2.8,1.9c-0.3,0.7-0.5,1-0.8,1.5c0,0-1.9,3.8-7.6,3.6c-1.7-0.1-3.9-0.4-4.9-1.9c-0.7-1.1-0.5-2.9-0.3-4.1
						c0.2-1,0.1-0.8,0.8-4.2c0.5-2.3,1.3-4.8,3.1-6.5c1.8-1.6,4.1-2.2,6.5-2.2c1.3,0,2.6,0.2,3.7,0.9c0.6,0.4,1.1,0.9,1.4,1.6
						c0.1,0.3,0.2,0.6,0.2,0.8c0.1,1.1,0.9,1.9,2,1.9l8.7,0l0.2-1.2c0.4-2.1,0.4-3.8,0.2-5.2C210.1,64.2,208.9,62.5,206.8,61.4"/>
				</g>
			</g>
		</g>
	</g>
	<g>
		<path class="st0" d="M107.8,102.9h-2.2c-0.2,0-0.4,0.2-0.4,0.4v1.1c0,0.2,0.2,0.4,0.4,0.4h2.2c0.2,0,0.4-0.2,0.4-0.4v-1.1
			C108.2,103.1,108,102.9,107.8,102.9z"/>
		<path class="st0" d="M219.3,102.9h-2.2c-0.2,0-0.4,0.2-0.4,0.4v1.1c0,0.2,0.2,0.4,0.4,0.4h2.2c0.2,0,0.4-0.2,0.4-0.4v-1.1
			C219.7,103.1,219.6,102.9,219.3,102.9z"/>
		<path class="st0" d="M609.8,102.9h-2.2c-0.2,0-0.4,0.2-0.4,0.4v1.1c0,0.2,0.2,0.4,0.4,0.4h2.2c0.2,0,0.4-0.2,0.4-0.4v-1.1
			C610.2,103.1,610,102.9,609.8,102.9z"/>
		<g>
			<path class="st0" d="M164.6,102.9h-2.2c-0.2,0-0.4,0.2-0.4,0.4v14.9c0,0.2,0.2,0.4,0.4,0.4h2.2c0.2,0,0.4-0.2,0.4-0.4v-14.9
				C165,103,164.8,102.9,164.6,102.9z"/>
			<path class="st0" d="M71.8,103.5h-2c-0.3,0-0.5,0.2-0.5,0.5v10.7L62,104.3c-0.4-0.6-1.1-0.9-1.9-0.9c-1.3,0-2.3,0.5-2.3,1.8v13
				c0,0.3,0.2,0.5,0.5,0.5h2c0.3,0,0.5-0.2,0.5-0.5v-10.4l7.3,10.1c0.4,0.6,1.1,0.9,1.9,0.9h0c1.3,0,2.3-1,2.3-2.3V104
				C72.2,103.7,72,103.5,71.8,103.5z"/>
			<path class="st0" d="M86.8,107.7c-0.9-0.7-2.3-1-4.1-1c-1.6,0-2.8,0.3-3.7,1c-0.8,0.6-1.3,1.3-1.3,2.2c0,0.1,0,0.2,0.2,0.2
				c0.2,0,1.7,0,2.3,0c0.1,0,0.3-0.2,0.3-0.2c0.1-0.4,0.3-0.7,0.6-0.9c0.4-0.3,1-0.4,1.6-0.4c2,0,2.5,1.2,2.5,2.1v1.2H82
				c-1.5,0-2.7,0.3-3.5,0.9c-0.8,0.6-1.2,1.4-1.2,2.4c0,1.1,0.4,2,1.1,2.6c0.8,0.6,1.9,1,3.3,1c0.7,0,1.4-0.1,1.8-0.3
				c0.5-0.2,1-0.5,1.4-0.9l0.3-0.3v0.9c0,0,0,0.4,0.4,0.4c0.5,0,2.1,0,2.1,0c0.2,0,0.4-0.2,0.4-0.4v-7.4
				C88.2,109.4,87.8,108.4,86.8,107.7z M85.2,114.5c0,0.8-0.2,1.4-0.7,1.7c-0.4,0.4-1.1,0.6-2.1,0.6c-1.9,0-2.3-0.9-2.3-1.7
				c0-0.8,0.4-1.7,2.3-1.7h2.7V114.5z"/>
			<path class="st0" d="M155.2,107.7c-0.9-0.7-2.3-1-4.1-1c-1.6,0-2.8,0.3-3.7,1c-0.8,0.6-1.3,1.3-1.3,2.2c0,0.1,0,0.2,0.2,0.2
				c0.2,0,1.7,0,2.3,0c0.1,0,0.3-0.2,0.3-0.2c0.1-0.4,0.3-0.7,0.6-0.9c0.4-0.3,1-0.4,1.6-0.4c2,0,2.5,1.2,2.5,2.1v1.2h-3.2
				c-1.5,0-2.7,0.3-3.5,0.9c-0.8,0.6-1.2,1.4-1.2,2.4c0,1.1,0.4,2,1.1,2.6c0.8,0.6,1.9,1,3.3,1c0.7,0,1.4-0.1,1.8-0.3
				c0.5-0.2,1-0.5,1.4-0.9l0.3-0.3v0.9c0,0,0,0.4,0.5,0.4c0.5,0,2.1,0,2.1,0c0.2,0,0.4-0.2,0.4-0.4v-7.4
				C156.6,109.4,156.1,108.4,155.2,107.7z M153.6,114.5c0,0.8-0.2,1.4-0.7,1.7c-0.4,0.4-1.1,0.6-2.1,0.6c-1.9,0-2.3-0.9-2.3-1.7
				c0-0.8,0.4-1.7,2.3-1.7h2.7V114.5z"/>
			<path class="st0" d="M309.6,107.7c-0.9-0.7-2.3-1-4.1-1c-1.6,0-2.8,0.3-3.7,1c-0.8,0.6-1.3,1.3-1.3,2.2c0,0.1,0,0.2,0.2,0.2
				c0.2,0,1.7,0,2.3,0c0.1,0,0.3-0.2,0.3-0.2c0.1-0.4,0.3-0.7,0.6-0.9c0.4-0.3,1-0.4,1.6-0.4c2,0,2.5,1.2,2.5,2.1v1.2h-3.2
				c-1.5,0-2.7,0.3-3.5,0.9c-0.8,0.6-1.2,1.4-1.2,2.4c0,1.1,0.4,2,1.1,2.6c0.8,0.6,1.9,1,3.3,1c0.7,0,1.4-0.1,1.8-0.3
				c0.5-0.2,1-0.5,1.4-0.9l0.3-0.3v0.9c0,0,0,0.4,0.5,0.4c0.5,0,2.1,0,2.1,0c0.2,0,0.4-0.2,0.4-0.4v-7.4
				C311,109.4,310.6,108.4,309.6,107.7z M308,114.5c0,0.8-0.2,1.4-0.7,1.7c-0.4,0.4-1.1,0.6-2.1,0.6c-1.9,0-2.3-0.9-2.3-1.7
				c0-0.8,0.4-1.7,2.3-1.7h2.7V114.5z"/>
			<path class="st0" d="M119.1,106.7c-1.7,0-3.1,0.4-4.1,1.2c-1,0.8-1.5,2-1.5,3.7v2.3c0,1.7,0.5,2.9,1.5,3.7c1,0.8,2.4,1.2,4.1,1.2
				c1.7,0,3.1-0.4,4.1-1.2c1-0.8,1.5-2,1.5-3.7v-2.3c0-1.7-0.5-2.9-1.5-3.7C122.2,107.1,120.8,106.7,119.1,106.7z M121.7,113.8
				c0,1.8-0.9,2.7-2.6,2.7c-1.7,0-2.6-0.9-2.6-2.7v-2.2c0-1.8,0.9-2.7,2.6-2.7c1.7,0,2.6,0.9,2.6,2.7V113.8z"/>
			<path class="st0" d="M136.3,106.7c-0.6,0-1.2,0.1-1.8,0.3c-0.6,0.2-1.1,0.5-1.5,0.9l-0.3,0.3c0,0,0-0.8,0-1
				c0-0.4-0.3-0.3-0.3-0.3h-2.3c-0.2,0-0.3,0.1-0.3,0.3v11.2c0,0.2,0.1,0.3,0.3,0.3h2.5c0.2,0,0.3-0.1,0.3-0.3v-7.1
				c0-0.7,0.2-1.3,0.7-1.7c0.5-0.4,1.1-0.6,1.8-0.6c0.7,0,1.3,0.2,1.8,0.6c0.4,0.4,0.7,1,0.7,1.7v7.1c0,0.2,0.1,0.3,0.3,0.3h2.5
				c0.2,0,0.3-0.1,0.3-0.3v-7.4c0-1.3-0.4-2.3-1.2-3.1C138.8,107.1,137.7,106.7,136.3,106.7z"/>
			<path class="st0" d="M322.7,106.7c-0.6,0-1.2,0.1-1.8,0.3c-0.6,0.2-1.1,0.5-1.5,0.9l-0.3,0.3c0,0,0-0.8,0-1
				c0-0.4-0.3-0.3-0.3-0.3h-2.3c-0.2,0-0.3,0.1-0.3,0.3v11.2c0,0.2,0.1,0.3,0.3,0.3h2.5c0.2,0,0.3-0.1,0.3-0.3v-7.1
				c0-0.7,0.2-1.3,0.7-1.7c0.5-0.4,1.1-0.6,1.8-0.6c0.7,0,1.3,0.2,1.8,0.6c0.4,0.4,0.7,1,0.7,1.7v7.1c0,0.2,0.1,0.3,0.3,0.3h2.5
				c0.2,0,0.3-0.1,0.3-0.3v-7.4c0-1.3-0.4-2.3-1.2-3.1C325.2,107.1,324.1,106.7,322.7,106.7z"/>
			<path class="st0" d="M431.4,106.7c-0.6,0-1.2,0.1-1.8,0.3c-0.6,0.2-1.1,0.5-1.5,0.9l-0.3,0.3c0,0,0-0.8,0-1
				c0-0.4-0.3-0.3-0.3-0.3h-2.3c-0.2,0-0.3,0.1-0.3,0.3v11.2c0,0.2,0.1,0.3,0.3,0.3h2.5c0.2,0,0.3-0.1,0.3-0.3v-7.1
				c0-0.7,0.2-1.3,0.7-1.7c0.5-0.4,1.1-0.6,1.8-0.6c0.7,0,1.3,0.2,1.8,0.6c0.4,0.4,0.7,1,0.7,1.7v7.1c0,0.2,0.1,0.3,0.3,0.3h2.5
				c0.2,0,0.3-0.1,0.3-0.3v-7.4c0-1.3-0.4-2.3-1.2-3.1C433.9,107.1,432.8,106.7,431.4,106.7z"/>
			<path class="st0" d="M581.3,106.7c-0.6,0-1.2,0.1-1.8,0.3c-0.6,0.2-1.1,0.5-1.5,0.9l-0.3,0.3c0,0,0-0.8,0-1
				c0-0.4-0.3-0.3-0.3-0.3H575c-0.2,0-0.3,0.1-0.3,0.3v11.2c0,0.2,0.1,0.3,0.3,0.3h2.5c0.2,0,0.3-0.1,0.3-0.3v-7.1
				c0-0.7,0.2-1.3,0.7-1.7c0.5-0.4,1.1-0.6,1.8-0.6c0.7,0,1.3,0.2,1.8,0.6c0.4,0.4,0.7,1,0.7,1.7v7.1c0,0.2,0.1,0.3,0.3,0.3h2.5
				c0.2,0,0.3-0.1,0.3-0.3v-7.4c0-1.3-0.4-2.3-1.2-3.1C583.8,107.1,582.7,106.7,581.3,106.7z"/>
			<path class="st0" d="M247.6,106.7c-0.6,0-1.2,0.1-1.8,0.3c-0.6,0.2-1.1,0.5-1.5,0.9l-0.3,0.3c0,0,0-0.8,0-1
				c0-0.4-0.3-0.3-0.3-0.3h-2.3c-0.2,0-0.3,0.1-0.3,0.3v11.2c0,0.2,0.1,0.3,0.3,0.3h2.5c0.2,0,0.3-0.1,0.3-0.3v-7.1
				c0-0.7,0.2-1.3,0.7-1.7c0.5-0.4,1.1-0.6,1.8-0.6c0.7,0,1.3,0.2,1.8,0.6c0.4,0.4,0.7,1,0.7,1.7v7.1c0,0.2,0.1,0.3,0.3,0.3h2.5
				c0.2,0,0.3-0.1,0.3-0.3v-7.4c0-1.3-0.4-2.3-1.2-3.1C250.1,107.1,249,106.7,247.6,106.7z"/>
			<path class="st0" d="M197,111.4c-0.3-0.3-0.5-0.6-0.9-0.9c-0.3-0.2-0.7-0.4-1-0.6c-0.4-0.2-0.7-0.3-1.1-0.3
				c-0.4-0.1-0.7-0.1-1-0.1h0h-3.1c-0.6,0-1-0.2-1.3-0.5c-0.3-0.3-0.5-0.7-0.5-1.3c0-0.5,0.2-1,0.5-1.3c0.3-0.3,0.8-0.5,1.3-0.5
				c0,0,5.9,0,6.1,0s0.3-0.3,0.3-0.3v-2.2c0,0,0-0.3-0.3-0.3c-0.3,0-6.1,0-6.1,0c-0.5,0-1,0.1-1.6,0.2c-0.6,0.2-1.1,0.4-1.6,0.8
				c-0.5,0.4-0.9,0.8-1.2,1.4c-0.3,0.6-0.5,1.3-0.5,2.1s0.2,1.5,0.5,2.1c0.3,0.6,0.7,1,1.2,1.4c0.5,0.4,1,0.6,1.6,0.8
				c0.6,0.2,1.1,0.2,1.6,0.2h3.1c0.3,0,0.5,0,0.8,0.1c0.2,0.1,0.4,0.2,0.6,0.4c0.2,0.2,0.3,0.3,0.4,0.6c0.1,0.2,0.1,0.5,0.1,0.7
				c0,0.5-0.2,1-0.5,1.3c-0.3,0.3-0.8,0.5-1.3,0.5c0,0-6.9,0-7.3,0s-0.4,0.5-0.4,0.5v1.9c0,0,0,0.4,0.4,0.4s7.3,0,7.3,0
				c0.3,0,0.7,0,1-0.1c0.4-0.1,0.7-0.2,1.1-0.3c0.4-0.2,0.7-0.3,1-0.6c0.3-0.2,0.6-0.5,0.9-0.9c0.2-0.3,0.4-0.7,0.6-1.2
				c0.1-0.4,0.2-0.9,0.2-1.5c0-0.6-0.1-1-0.2-1.5C197.4,112.2,197.2,111.8,197,111.4z"/>
			<path class="st0" d="M207.2,108.9c0.8,0,1.4,0.2,1.8,0.5c0.4,0.3,0.6,0.7,0.7,1.1c0,0.4,0.3,0.3,0.3,0.3h2.3c0,0,0.3,0,0.3-0.2
				c0-1.2-0.5-2.2-1.4-2.8c-0.9-0.7-2.3-1.1-4-1.1c-1.7,0-3.1,0.4-4.1,1.2c-1,0.8-1.5,2-1.5,3.7v2.3c0,1.7,0.5,2.9,1.5,3.7
				c1,0.8,2.4,1.2,4.1,1.2c1.7,0,3.1-0.4,4-1.1c0.9-0.7,1.3-1.5,1.4-2.7c0-0.1,0-0.3-0.3-0.3c-0.3,0-2,0-2.3,0s-0.3,0.1-0.3,0.2
				c-0.1,0.5-0.3,0.9-0.7,1.2c-0.4,0.3-1.1,0.5-1.8,0.5c-0.8,0-1.5-0.2-2-0.6c-0.5-0.4-0.7-1.1-0.7-2.1v-2.2
				C204.6,109.8,205.5,108.9,207.2,108.9z"/>
			<path class="st0" d="M262.9,108.9c0.8,0,1.4,0.2,1.8,0.5c0.4,0.3,0.6,0.7,0.7,1.1c0,0.4,0.3,0.3,0.3,0.3h2.3c0,0,0.3,0,0.3-0.2
				c0-1.2-0.5-2.2-1.4-2.8c-0.9-0.7-2.3-1.1-4-1.1c-1.7,0-3.1,0.4-4.1,1.2c-1,0.8-1.5,2-1.5,3.7v2.3c0,1.7,0.5,2.9,1.5,3.7
				c1,0.8,2.4,1.2,4.1,1.2c1.7,0,3.1-0.4,4-1.1c0.9-0.7,1.3-1.5,1.4-2.7c0-0.1,0-0.3-0.3-0.3c-0.3,0-2,0-2.3,0
				c-0.3,0-0.3,0.1-0.3,0.2c-0.1,0.5-0.3,0.9-0.7,1.2c-0.4,0.3-1.1,0.5-1.8,0.5c-0.8,0-1.5-0.2-2-0.6c-0.5-0.4-0.7-1.1-0.7-2.1v-2.2
				C260.2,109.8,261.1,108.9,262.9,108.9z"/>
			<path class="st0" d="M398,108.9c0.8,0,1.4,0.2,1.8,0.5c0.4,0.3,0.6,0.7,0.7,1.1c0,0.4,0.3,0.3,0.3,0.3h2.3c0,0,0.3,0,0.3-0.2
				c0-1.2-0.5-2.2-1.4-2.8c-0.9-0.7-2.3-1.1-4-1.1c-1.7,0-3.1,0.4-4.1,1.2c-1,0.8-1.5,2-1.5,3.7v2.3c0,1.7,0.5,2.9,1.5,3.7
				c1,0.8,2.4,1.2,4.1,1.2c1.7,0,3.1-0.4,4-1.1c0.9-0.7,1.3-1.5,1.4-2.7c0-0.1,0-0.3-0.3-0.3c-0.3,0-2,0-2.3,0
				c-0.3,0-0.3,0.1-0.3,0.2c-0.1,0.5-0.3,0.9-0.7,1.2c-0.4,0.3-1.1,0.5-1.8,0.5c-0.8,0-1.5-0.2-2-0.6c-0.5-0.4-0.7-1.1-0.7-2.1v-2.2
				C395.3,109.8,396.2,108.9,398,108.9z"/>
			<path class="st0" d="M596.5,108.9c0.8,0,1.4,0.2,1.8,0.5c0.4,0.3,0.6,0.7,0.7,1.1c0,0.4,0.3,0.3,0.3,0.3h2.3c0,0,0.3,0,0.3-0.2
				c0-1.2-0.5-2.2-1.4-2.8c-0.9-0.7-2.3-1.1-4-1.1c-1.7,0-3.1,0.4-4.1,1.2c-1,0.8-1.5,2-1.5,3.7v2.3c0,1.7,0.5,2.9,1.5,3.7
				c1,0.8,2.4,1.2,4.1,1.2c1.7,0,3.1-0.4,4-1.1c0.9-0.7,1.3-1.5,1.4-2.7c0-0.1,0-0.3-0.3-0.3c-0.3,0-2,0-2.3,0
				c-0.3,0-0.3,0.1-0.3,0.2c-0.1,0.5-0.3,0.9-0.7,1.2c-0.4,0.3-1.1,0.5-1.8,0.5c-0.8,0-1.5-0.2-2-0.6c-0.5-0.4-0.7-1.1-0.7-2.1v-2.2
				C593.8,109.8,594.8,108.9,596.5,108.9z"/>
			<path class="st0" d="M230.3,106.7c-1.8,0-3.2,0.4-4.2,1.3c-1,0.9-1.5,2.2-1.5,4v1.5c0,1.8,0.5,3.1,1.6,4c1,0.9,2.5,1.3,4.3,1.3
				c1.7,0,3-0.3,4-1c0.9-0.6,1.3-1.4,1.4-2.3c0-0.1,0-0.2-0.2-0.2c-0.2,0-2.2,0-2.4,0c-0.2,0-0.3,0.1-0.3,0.2
				c-0.1,0.4-0.3,0.7-0.7,0.9c-0.4,0.3-1,0.4-1.7,0.4c-0.9,0-1.6-0.2-2.2-0.6c-0.5-0.4-0.8-1.1-0.8-2.1v-0.5h7.8c0,0,0.5,0,0.5-0.4
				c0-0.4,0-1,0-1c0-1.7-0.5-3.1-1.5-3.9C233.4,107.1,232,106.7,230.3,106.7z M232.9,111.8h-5.3v-0.3c0-1,0.2-1.7,0.7-2.1
				c0.5-0.4,1.1-0.6,2-0.6c1.7,0,2.6,0.9,2.6,2.5V111.8z"/>
			<path class="st0" d="M278.6,106.7c-1.8,0-3.2,0.4-4.2,1.3c-1,0.9-1.5,2.2-1.5,4v1.5c0,1.8,0.5,3.1,1.6,4c1,0.9,2.5,1.3,4.3,1.3
				c1.7,0,3-0.3,4-1c0.9-0.6,1.3-1.4,1.4-2.3c0-0.1,0-0.2-0.2-0.2c-0.2,0-2.2,0-2.4,0c-0.2,0-0.3,0.1-0.3,0.2
				c-0.1,0.4-0.3,0.7-0.7,0.9c-0.4,0.3-1,0.4-1.7,0.4c-0.9,0-1.6-0.2-2.2-0.6c-0.5-0.4-0.8-1.1-0.8-2.1v-0.5h7.8c0,0,0.5,0,0.5-0.4
				c0-0.4,0-1,0-1c0-1.7-0.5-3.1-1.5-3.9C281.7,107.1,280.3,106.7,278.6,106.7z M281.2,111.8h-5.3v-0.3c0-1,0.2-1.7,0.7-2.1
				c0.5-0.4,1.1-0.6,2-0.6c1.7,0,2.6,0.9,2.6,2.5V111.8z"/>
			<path class="st0" d="M381.7,106.7c-1.8,0-3.2,0.4-4.2,1.3c-1,0.9-1.5,2.2-1.5,4v1.5c0,1.8,0.5,3.1,1.6,4c1,0.9,2.5,1.3,4.3,1.3
				c1.7,0,3-0.3,4-1c0.9-0.6,1.3-1.4,1.4-2.3c0-0.1,0-0.2-0.2-0.2c-0.2,0-2.2,0-2.4,0c-0.2,0-0.3,0.1-0.3,0.2
				c-0.1,0.4-0.3,0.7-0.7,0.9c-0.4,0.3-1,0.4-1.7,0.4c-0.9,0-1.6-0.2-2.2-0.6c-0.5-0.4-0.8-1.1-0.8-2.1v-0.5h7.8c0,0,0.5,0,0.5-0.4
				c0-0.4,0-1,0-1c0-1.7-0.5-3.1-1.5-3.9C384.9,107.1,383.5,106.7,381.7,106.7z M384.4,111.8H379v-0.3c0-1,0.2-1.7,0.7-2.1
				c0.5-0.4,1.1-0.6,2-0.6c1.7,0,2.6,0.9,2.6,2.5V111.8z"/>
			<path class="st0" d="M342.9,102.9h-2.2c-0.2,0-0.4,0.2-0.4,0.4v5.2L340,108c-0.7-0.9-1.8-1.3-3.2-1.3c-1.3,0-2.4,0.4-3.3,1.2
				c-0.8,0.8-1.2,2-1.2,3.6v2.4c0,1.6,0.4,2.8,1.3,3.6c0.8,0.8,1.9,1.2,3.3,1.2c1.4,0,2.5-0.4,3.2-1.2l0.3-0.4v1.1
				c0,0,0,0.4,0.4,0.4c0.4,0,2.2,0,2.2,0c0.2,0,0.4-0.2,0.4-0.4v-14.9C343.3,103,343.1,102.9,342.9,102.9z M340.3,113.8
				c0,0.9-0.2,1.6-0.7,2c-0.5,0.5-1.1,0.7-1.9,0.7c-1.1,0-2.4-0.5-2.4-2.7v-2.2c0-1.8,0.9-2.7,2.5-2.7c0.8,0,1.4,0.2,1.9,0.7
				c0.4,0.5,0.7,1.2,0.7,2V113.8z"/>
			<path class="st0" d="M459.9,102.9h-2.3c-0.2,0-0.4,0.2-0.4,0.4v15c0,0.2,0.2,0.4,0.4,0.4h2.3c0.2,0,0.4-0.2,0.4-0.4v-15
				C460.3,103,460.1,102.9,459.9,102.9z"/>
			<path class="st0" d="M618.2,102.9h-2.3c-0.2,0-0.4,0.2-0.4,0.4v15c0,0.2,0.2,0.4,0.4,0.4h2.3c0.2,0,0.4-0.2,0.4-0.4v-15
				C618.5,103,618.4,102.9,618.2,102.9z"/>
			<path class="st0" d="M415,106.7c-0.6,0-1.2,0.1-1.8,0.3c-0.5,0.2-1,0.5-1.4,0.9l-0.3,0.3v-5c0-0.1-0.1-0.3-0.3-0.3h-2.5
				c-0.1,0-0.3,0.1-0.3,0.3v15.2c0,0.1,0.1,0.3,0.3,0.3h2.5c0.1,0,0.3-0.1,0.3-0.3v-7.1c0-0.7,0.2-1.3,0.7-1.7
				c0.5-0.4,1.1-0.6,1.8-0.6c0.7,0,1.3,0.2,1.8,0.6c0.4,0.4,0.7,1,0.7,1.7v7.1c0,0.1,0.1,0.3,0.3,0.3h2.5c0.1,0,0.3-0.1,0.3-0.3
				v-7.5c0-1.3-0.4-2.3-1.2-3.1C417.5,107.1,416.4,106.7,415,106.7z"/>
			<path class="st0" d="M446.6,106.7c-1.7,0-3.1,0.4-4.1,1.2c-1,0.8-1.5,2-1.5,3.7v2.3c0,1.7,0.5,2.9,1.5,3.7c1,0.8,2.4,1.2,4.1,1.2
				c1.7,0,3.1-0.4,4.1-1.2c1-0.8,1.5-2,1.5-3.7v-2.3c0-1.7-0.5-2.9-1.5-3.7C449.7,107.1,448.3,106.7,446.6,106.7z M449.1,113.8
				c0,1.8-0.9,2.7-2.6,2.7c-1.7,0-2.6-0.9-2.6-2.7v-2.2c0-1.8,0.9-2.7,2.6-2.7c1.7,0,2.6,0.9,2.6,2.7V113.8z"/>
			<path class="st0" d="M471.3,106.7c-1.7,0-3.1,0.4-4.1,1.2c-1,0.8-1.5,2-1.5,3.7v2.3c0,1.7,0.5,2.9,1.5,3.7c1,0.8,2.4,1.2,4.1,1.2
				c1.7,0,3.1-0.4,4.1-1.2c1-0.8,1.5-2,1.5-3.7v-2.3c0-1.7-0.5-2.9-1.5-3.7C474.4,107.1,473,106.7,471.3,106.7z M473.8,113.8
				c0,1.8-0.9,2.7-2.6,2.7c-1.7,0-2.6-0.9-2.6-2.7v-2.2c0-1.8,0.9-2.7,2.6-2.7c1.7,0,2.6,0.9,2.6,2.7V113.8z"/>
			<path class="st0" d="M492.4,106.8c-0.4,0-1.9,0-2.3,0c-0.4,0-0.4,0.3-0.4,0.3v1.2l-0.3-0.4c-0.7-0.9-1.8-1.3-3.2-1.3
				c-1.3,0-2.4,0.4-3.3,1.2c-0.8,0.8-1.2,2-1.2,3.6v1.3c0,1.6,0.4,2.8,1.3,3.6c0.8,0.8,1.9,1.2,3.3,1.2c1.4,0,2.5-0.4,3.2-1.2
				l0.3-0.4v2c0,1.6-0.9,2.4-2.5,2.4c-0.7,0-1.2-0.1-1.7-0.4c-0.3-0.2-0.5-0.4-0.7-0.6c0-0.1-0.1-0.3-0.4-0.3s-2,0-2.3,0
				c-0.3,0-0.3,0.2-0.3,0.3c0.2,0.8,0.6,1.4,1.4,1.9c0.9,0.6,2.2,0.9,3.8,0.9c1.8,0,3.2-0.4,4.1-1.2c1-0.8,1.5-1.9,1.5-3.3v-10.6
				C492.8,107.3,492.8,106.8,492.4,106.8z M489.8,112.7c0,0.9-0.2,1.6-0.7,2c-0.5,0.5-1.1,0.7-1.9,0.7c-1.1,0-2.4-0.5-2.4-2.7v-1.1
				c0-1.8,0.9-2.7,2.5-2.7c0.8,0,1.4,0.2,1.9,0.7c0.4,0.5,0.7,1.2,0.7,2V112.7z"/>
			<path class="st0" d="M508.5,106.8c-0.4,0-2.1,0-2.4,0c-0.3,0-0.5,0.4-0.5,0.4l-2.8,7.6l-2.8-7.7c0,0-0.1-0.3-0.4-0.3
				c-0.4,0-1.9,0-2.4,0c-0.5,0-0.3,0.4-0.3,0.4l4.6,11.2l-0.1,0.2c-0.2,0.5-0.4,0.8-0.7,1c-0.3,0.2-0.7,0.3-1.3,0.3c0,0-0.1,0-0.5,0
				c-0.4,0-0.4,0.4-0.4,0.4s0,1.1,0,1.4c0,0.3,0.3,0.3,0.3,0.3h0.7c1.1,0,2-0.2,2.6-0.6c0.6-0.4,1.2-1,1.5-1.8l5.1-12.5
				C508.6,107.3,508.9,106.8,508.5,106.8z"/>
			<path class="st0" d="M535.7,104c-1.2-0.9-2.8-1.4-4.8-1.4c-4.6,0-6.8,2-6.8,6.2v3.7c0,4.2,2.2,6.2,6.7,6.2c2.1,0,3.7-0.5,4.9-1.4
				c1.1-0.8,1.7-2,1.7-3.5c0-0.1,0-0.3-0.3-0.3c-0.3,0-2.4,0-2.6,0c-0.2,0-0.3,0.1-0.3,0.2c0,0.8-0.3,1.4-0.9,1.8
				c-0.6,0.5-1.4,0.7-2.5,0.7c-1.2,0-2.1-0.3-2.7-1c-0.6-0.6-0.9-1.6-0.9-3V109c0-1.4,0.3-2.5,0.8-3.1c0.6-0.6,1.5-1,2.7-1
				c1.1,0,1.9,0.3,2.5,0.8c0.5,0.5,0.8,1.1,0.9,1.8c0,0.1,0,0.2,0.3,0.2c0.3,0,2.4,0,2.6,0c0.2,0,0.3-0.2,0.3-0.3
				C537.4,106,536.8,104.8,535.7,104z"/>
			<path class="st0" d="M547.7,106.7c-1.7,0-3.1,0.4-4.1,1.2c-1,0.8-1.5,2-1.5,3.7v2.3c0,1.7,0.5,2.9,1.5,3.7c1,0.8,2.4,1.2,4.1,1.2
				c1.7,0,3.1-0.4,4.1-1.2c1-0.8,1.5-2,1.5-3.7v-2.3c0-1.7-0.5-2.9-1.5-3.7C550.8,107.1,549.4,106.7,547.7,106.7z M550.2,113.8
				c0,1.8-0.9,2.7-2.6,2.7c-1.7,0-2.6-0.9-2.6-2.7v-2.2c0-1.8,0.9-2.7,2.6-2.7c1.7,0,2.6,0.9,2.6,2.7V113.8z"/>
			<path class="st0" d="M569,106.8h-2.3c-0.2,0-0.4,0.2-0.4,0.4v6.5c0,1-0.2,1.6-0.5,2.1c-0.3,0.5-1,0.7-2,0.7c-1,0-1.6-0.3-2-0.8
				c-0.3-0.5-0.5-1.2-0.5-2.1v-6.5c0-0.2-0.2-0.4-0.4-0.4h-2.3c-0.2,0-0.4,0.2-0.4,0.4v6.7c0,3.3,1.8,4.9,5.5,4.9
				c1.8,0,3.2-0.4,4.1-1.2c0.9-0.8,1.3-2,1.3-3.6v-6.7C569.3,107,569.2,106.8,569,106.8z"/>
			<path class="st0" d="M107.8,106.8h-2.2c-0.2,0-0.4,0.2-0.4,0.4v11c0,0.2,0.2,0.4,0.4,0.4h2.2c0.2,0,0.4-0.2,0.4-0.4v-11
				C108.2,107,108,106.8,107.8,106.8z"/>
			<path class="st0" d="M219.3,106.8h-2.2c-0.2,0-0.4,0.2-0.4,0.4v11c0,0.2,0.2,0.4,0.4,0.4h2.2c0.2,0,0.4-0.2,0.4-0.4v-11
				C219.7,107,219.5,106.8,219.3,106.8z"/>
			<path class="st0" d="M609.8,106.8h-2.2c-0.2,0-0.4,0.2-0.4,0.4v11c0,0.2,0.2,0.4,0.4,0.4h2.2c0.2,0,0.4-0.2,0.4-0.4v-11
				C610.2,107,610,106.8,609.8,106.8z"/>
			<path class="st0" d="M100.1,106.8h-2.5v-3c0-0.2-0.1-0.3-0.3-0.3h-2.4c-0.2,0-0.3,0.1-0.3,0.3v3h-1.7c-0.1,0-0.3,0.1-0.3,0.3v1.1
				c0,0.1,0.1,0.3,0.3,0.3h1.7v6.8c0,1,0.4,1.8,1.1,2.4c0.7,0.6,1.7,0.9,3,0.9h1.1c0,0,0.3,0,0.3-0.4c0-0.4,0-1,0-1.3
				s-0.3-0.4-0.3-0.4h-0.5c-1.3,0-1.6-0.8-1.6-1.4v-6.6h2.5c0.1,0,0.3-0.1,0.3-0.3v-1.1C100.4,107,100.3,106.8,100.1,106.8z"/>
			<path class="st0" d="M373.7,102.9h-12.2c-0.2,0-0.4,0.2-0.4,0.4v1.5c0,0.2,0.2,0.4,0.4,0.4h4.5v13.1c0,0.2,0.1,0.3,0.3,0.3h2.6
				c0.2,0,0.3-0.1,0.3-0.3v-13.1h4.5c0.2,0,0.4-0.2,0.4-0.4v-1.5C374.1,103,373.9,102.9,373.7,102.9z"/>
		</g>
	</g>
</g>
</svg>
