<?xml version="1.0" encoding="utf-8"?>
<!-- Generator: Adobe Illustrator 26.5.2, SVG Export Plug-In . SVG Version: 6.00 Build 0)  -->
<svg version="1.1" id="圖層_1" xmlns="http://www.w3.org/2000/svg" xmlns:xlink="http://www.w3.org/1999/xlink" x="0px" y="0px"
	 viewBox="0 0 1517.1 150" style="enable-background:new 0 0 1517.1 150;" xml:space="preserve">
<style type="text/css">
	.st0{fill:#2E3233;}
	.st1{fill:#595757;}
	.st2{fill:#0D9A3B;}
	.st3{fill:#DFC44A;}
</style>
<g>
	<g id="矩形_32">
		<g>
			<rect x="625" y="36.4" class="st0" width="2.9" height="77.2"/>
		</g>
	</g>
	<g>
		<g>
			<g>
				<path class="st1" d="M585,108.5c0,7-5.7,12.7-12.7,12.7s-12.7-5.7-12.7-12.7s5.7-12.7,12.7-12.7S585,101.5,585,108.5z
					 M572.3,93.7c-8.2,0-14.9,6.7-14.9,14.9s6.7,14.9,14.9,14.9s14.9-6.7,14.9-14.9S580.5,93.7,572.3,93.7z"/>
			</g>
			<g>
				<path class="st1" d="M565.7,117.2V99.8h7.7c1.6,0,2.7,0.2,3.5,0.5s1.4,0.9,1.9,1.7c0.5,0.8,0.7,1.7,0.7,2.6
					c0,1.2-0.4,2.3-1.2,3.1c-0.8,0.8-2,1.4-3.7,1.6c0.6,0.3,1.1,0.6,1.4,0.9c0.7,0.6,1.3,1.4,1.9,2.3l3,4.7H578l-2.3-3.6
					c-0.7-1-1.2-1.8-1.7-2.4c-0.4-0.6-0.8-0.9-1.2-1.2c-0.3-0.2-0.7-0.4-1.1-0.5c-0.3-0.1-0.7-0.1-1.3-0.1h-2.7v7.7L565.7,117.2
					L565.7,117.2z M568,107.5h4.9c1.1,0,1.9-0.1,2.5-0.3c0.6-0.2,1.1-0.6,1.4-1c0.3-0.5,0.5-1,0.5-1.6c0-0.8-0.3-1.5-0.9-2
					c-0.6-0.5-1.5-0.8-2.8-0.8h-5.5v5.7C568.1,107.5,568,107.5,568,107.5z"/>
			</g>
		</g>
		<g>
			<g>
				<g>
					<g>
						<path class="st2" d="M0,43.1l12.2-0.6c0.2,3.9,0.8,6.5,2,7.8c1.9,2.2,5.3,3.3,10.4,3.3c4.2,0,7.3-0.7,9.1-2.2
							c1.9-1.5,2.8-3.3,2.8-5.4c0-1.8-0.8-3.4-2.3-4.7c-1.1-0.9-4.1-2.4-8.9-4.5c-4.9-2.1-8.4-3.8-10.6-5.2c-2.2-1.4-4-3.2-5.3-5.5
							c-1.3-2.2-1.9-4.9-1.9-7.9c0-5.2,1.9-9.6,5.7-13C17,1.7,22.5,0,29.7,0c7.3,0,13,1.7,17,5.1s6.2,8,6.6,13.6l-12.2,0.5
							c-0.3-3-1.4-5.2-3.2-6.8C36,10.8,33.3,10,29.7,10s-6.1,0.6-7.6,1.9c-1.5,1.2-2.3,2.8-2.3,4.7c0,1.8,0.7,3.3,2.1,4.4
							c1.4,1.2,4.5,2.8,9.2,4.9c7.2,3.1,11.7,5.6,13.7,7.5c2.9,2.8,4.4,6.5,4.4,10.9c0,5.5-2.2,10.2-6.5,14.1s-10.4,5.8-18.1,5.8
							c-5.3,0-10-0.9-13.9-2.7S4,57.2,2.4,54C0.6,50.9-0.1,47.3,0,43.1z"/>
						<path class="st3" d="M64.9,18.1h11.4l-1.1,5.4c4.5-4.3,9.2-6.5,14.1-6.5c3.4,0,6,0.7,7.8,2.1s3,3.4,3.5,5.8
							c1.6-2.3,3.8-4.1,6.7-5.7c2.9-1.5,5.9-2.3,9.1-2.3c3.6,0,6.4,1,8.4,2.9s3,4.5,3,7.7c0,1.5-0.5,4.2-1.3,8l-5.8,27.4h-12
							l5.7-27.4c0.7-3.4,1.1-5.4,1.2-5.8c0-1.3-0.4-2.2-1.1-3c-0.8-0.7-1.9-1.1-3.4-1.1c-3.1,0-5.8,1.6-8.2,4.8
							c-1.7,2.3-3.2,6.3-4.5,12.2L94.1,63h-12l5.7-27.2c0.6-3.1,1-5.2,1-6.1c0-1.2-0.4-2.2-1.2-2.9c-0.8-0.8-1.9-1.1-3.3-1.1
							c-1.3,0-2.7,0.4-4.1,1.2c-1.4,0.8-2.7,1.9-3.7,3.3c-1.1,1.4-2,3.2-2.7,5.3c-0.4,1-0.9,3.3-1.7,6.9l-4.5,20.7h-12L64.9,18.1z"
							/>
						<path class="st3" d="M150.2,30.8l-11.8-1c1.3-4,3.7-7.1,7-9.4c3.3-2.2,7.8-3.4,13.3-3.4c5.7,0,10,1.2,12.7,3.5
							s4.1,5.2,4.1,8.5c0,1.4-0.1,2.8-0.4,4.3c-0.2,1.5-1.1,5.5-2.5,12c-1.2,5.4-1.8,9.1-1.8,11.3c0,1.9,0.3,4,1,6.4h-11.7
							c-0.6-1.6-0.9-3.3-1-5.1c-1.8,2-3.8,3.5-6.1,4.6s-4.6,1.6-7,1.6c-3.7,0-6.8-1.2-9.2-3.7c-2.4-2.4-3.6-5.6-3.6-9.4
							c0-4.3,1.3-7.7,4-10.3s7.4-4.1,14.3-4.7c5.8-0.5,9.6-1.1,11.6-1.7c0.5-1.7,0.8-3.1,0.8-4.1c0-1.3-0.5-2.4-1.5-3.3
							s-2.6-1.3-4.6-1.3c-2.1,0-3.8,0.4-5.1,1.3C151.5,28,150.6,29.2,150.2,30.8z M161.5,42.1c-0.7,0.2-1.7,0.4-2.9,0.6
							c-6.1,0.7-10,1.8-11.9,3.3c-1.3,1-2,2.4-2,4.2c0,1.4,0.5,2.6,1.5,3.6s2.4,1.5,4,1.5c1.8,0,3.6-0.4,5.2-1.3
							c1.6-0.9,2.8-2.1,3.6-3.5s1.5-3.6,2.1-6.6L161.5,42.1z"/>
						<path class="st3" d="M189.9,18.1h11.4l-1.8,8.7c4.2-6.5,8.8-9.7,13.7-9.7c1.7,0,3.6,0.4,5.6,1.3l-4.7,9.9
							c-1.1-0.4-2.3-0.6-3.5-0.6c-2.1,0-4.2,0.8-6.4,2.4s-3.9,3.7-5.1,6.3c-1.2,2.6-2.4,6.8-3.6,12.6l-2.9,14.1h-12L189.9,18.1z"/>
						<path class="st3" d="M217.8,27.2l1.8-9.1h6l1.5-7.1L241,2.6l-3.2,15.6h7.2l-1.8,9.1H236l-4,19c-0.7,3.4-1.1,5.4-1.1,5.8
							c0,0.9,0.3,1.7,0.9,2.2c0.6,0.5,1.6,0.8,3.1,0.8c0.5,0,1.8-0.1,3.9-0.3l-1.9,9c-2.1,0.4-4.2,0.6-6.4,0.6
							c-4.3,0-7.3-0.8-9.3-2.5c-1.9-1.7-2.9-4-2.9-7c0-1.4,0.5-4.6,1.6-9.5l3.9-18.1h-6V27.2z"/>
						<path class="st2" d="M256.6,63.1h-12.8l13-61.9h27.5c4.7,0,8.4,0.5,11.1,1.5c2.6,1,4.8,2.8,6.4,5.3c1.6,2.6,2.4,5.7,2.4,9.4
							c0,5.3-1.6,9.6-4.7,13c-3.2,3.4-7.9,5.5-14.3,6.4c1.6,1.5,3.2,3.4,4.6,5.8c2.8,4.8,6,11.7,9.5,20.5h-13.7
							c-1.1-3.5-3.2-8.9-6.4-16.4c-1.7-4-3.6-6.7-5.6-8.1c-1.2-0.8-3.3-1.2-6.3-1.2h-5.2L256.6,63.1z M264,28.1h6.8
							c6.8,0,11.4-0.4,13.6-1.2c2.2-0.8,4-2.1,5.3-3.8c1.3-1.7,1.9-3.6,1.9-5.5c0-2.2-0.9-3.9-2.7-5.1c-1.1-0.7-3.6-1-7.3-1h-14
							L264,28.1z"/>
						<path class="st3" d="M349.8,44.4h-30.4c0,0.5,0,0.8,0,1.1c0,3,0.9,5.4,2.6,7.3c1.7,1.8,3.8,2.8,6.2,2.8c4,0,7.2-2.1,9.4-6.2
							l10.9,1.8c-2.1,4.4-4.9,7.6-8.5,9.8c-3.5,2.2-7.5,3.3-11.9,3.3c-6,0-10.9-1.9-14.7-5.7c-3.8-3.8-5.7-8.9-5.7-15.2
							c0-6.2,1.7-11.6,5.1-16.5c4.6-6.5,11.3-9.8,19.9-9.8c5.5,0,9.8,1.7,13.1,5.1c3.2,3.4,4.9,8.2,4.9,14.3
							C350.7,39.5,350.4,42.1,349.8,44.4z M339.7,37.1c0-0.5,0-1,0-1.2c0-3.3-0.7-5.9-2.2-7.5c-1.5-1.7-3.5-2.5-6-2.5
							s-4.8,1-6.7,2.9c-2,1.9-3.3,4.7-4,8.4L339.7,37.1L339.7,37.1z"/>
						<path class="st3" d="M371.6,30.8l-11.8-1c1.3-4,3.7-7.1,7-9.4c3.4-2.2,7.8-3.4,13.3-3.4c5.7,0,10,1.2,12.7,3.5
							s4.1,5.2,4.1,8.5c0,1.4-0.1,2.8-0.4,4.3c-0.2,1.5-1.1,5.5-2.5,12c-1.2,5.4-1.8,9.1-1.8,11.3c0,1.9,0.3,4,1,6.4h-11.7
							c-0.6-1.6-0.9-3.3-1-5.1c-1.8,2-3.8,3.5-6.1,4.6c-2.3,1.1-4.6,1.6-7,1.6c-3.7,0-6.8-1.2-9.2-3.7c-2.4-2.4-3.6-5.6-3.6-9.4
							c0-4.3,1.3-7.7,4-10.3s7.4-4.1,14.3-4.7c5.8-0.5,9.6-1.1,11.6-1.7c0.5-1.7,0.8-3.1,0.8-4.1c0-1.3-0.5-2.4-1.5-3.3
							s-2.6-1.3-4.6-1.3c-2.1,0-3.8,0.4-5.1,1.3C372.9,28,372.1,29.2,371.6,30.8z M383,42.1c-0.7,0.2-1.7,0.4-2.9,0.6
							c-6.1,0.7-10,1.8-11.9,3.3c-1.3,1-2,2.4-2,4.2c0,1.4,0.5,2.6,1.5,3.6s2.4,1.5,4,1.5c1.8,0,3.6-0.4,5.2-1.3
							c1.6-0.9,2.8-2.1,3.6-3.5c0.8-1.4,1.5-3.6,2.1-6.6L383,42.1z"/>
						<path class="st3" d="M444,63.1h-11.5l1-4.8c-2.2,2.1-4.4,3.6-6.5,4.5s-4.5,1.4-7.2,1.4c-4.7,0-8.4-1.6-11.3-4.8
							s-4.3-7.9-4.3-14.1c0-7.2,2.1-13.7,6.2-19.6c4.1-5.8,9.6-8.7,16.4-8.7c6.1,0,10.7,2.4,13.8,7.3l5-23.2h12L444,63.1z
							 M415.9,44.9c0,3.2,0.8,5.7,2.5,7.5c1.6,1.8,3.7,2.7,6.1,2.7c2.2,0,4.3-0.8,6.2-2.3c1.9-1.5,3.5-3.8,4.6-6.9
							c1.2-3.1,1.7-6.1,1.7-8.9c0-3.2-0.9-5.9-2.7-7.9c-1.8-2-3.8-3-6.1-3c-3.6,0-6.6,2-8.9,5.9C417.1,36.1,415.9,40.3,415.9,44.9z"
							/>
						<path class="st3" d="M464.9,18.1h12l-9.4,45h-12L464.9,18.1z M468.4,1.2h12l-2.3,10.9h-12L468.4,1.2z"/>
						<path class="st3" d="M489.1,18.1h11.5l-1.2,5.9c2.9-2.5,5.6-4.3,8.2-5.4c2.5-1.1,5.2-1.6,8-1.6c3.7,0,6.7,1.1,8.9,3.2
							s3.2,5,3.2,8.5c-0.1,1.6-0.6,4.5-1.6,8.9l-5.5,25.5h-12l5.5-25.4c0.8-3.8,1.2-6.1,1.3-6.8c0-1.6-0.5-2.8-1.4-3.7
							c-0.9-0.9-2.2-1.4-3.9-1.4c-1.8,0-3.8,0.7-6.1,2.2c-2.2,1.5-4,3.5-5.2,5.9c-1,1.8-2,5.3-3.2,10.7l-3.8,18.5h-12L489.1,18.1z"
							/>
						<path class="st3" d="M531.9,65.6l12.8,1.8c0,1.3,0.2,2.3,0.6,2.9c0.4,0.7,1.1,1.2,2,1.7s2.2,0.7,3.8,0.7
							c2.7,0,4.9-0.5,6.5-1.5c1.2-0.8,2.2-2.1,3-3.9c0.5-1.1,1.1-3.6,1.8-7.3l0.4-2.1c-4.4,3.5-9,5.2-13.6,5.2
							c-4.4,0-7.9-1.5-10.7-4.6s-4.2-7.6-4.2-13.6c0-5.3,1-10.1,2.9-14.5s4.6-7.7,8-10c3.4-2.2,7-3.4,10.5-3.4
							c2.9,0,5.6,0.8,8.1,2.4c2.4,1.6,4.4,3.8,5.7,6.6l1.7-7.9h11.4l-7.1,37.3c-1.3,6-2.4,10.4-3.3,13c-0.9,2.6-1.9,4.6-3.1,6.2
							c-1.1,1.5-2.6,2.8-4.3,3.9c-1.8,1-3.8,1.8-6.2,2.2c-2.4,0.5-5,0.7-7.8,0.7c-6.3,0-11-1.1-14.3-3.2c-3.2-2.2-4.8-5.8-4.8-10.8
							C531.8,66.8,531.9,66.2,531.9,65.6z M546.2,43.6c0,3.4,0.8,6,2.3,7.7c1.5,1.8,3.4,2.7,5.7,2.7c2.1,0,4.2-0.8,6.2-2.4
							c2-1.6,3.6-3.9,4.6-6.8c1.1-2.9,1.6-5.8,1.6-8.5c0-3.2-0.9-5.7-2.7-7.6s-3.8-2.9-6.1-2.9c-2.2,0-4.1,0.9-5.9,2.6
							c-1.8,1.7-3.3,4.3-4.5,7.9C546.7,39,546.2,41.4,546.2,43.6z"/>
					</g>
				</g>
			</g>
		</g>
		<g>
			<path class="st2" d="M4.3,122.8h10.5c0.6,0,0.9,0.2,0.9,0.7v15.1c0,1.3,0.3,2.4,0.7,3.1c0.3,0.7,0.8,1.2,1.4,1.5
				c0.9,0.5,1.9,0.9,3.1,1.1c1.5,0.2,3.3,0.3,5.2,0.3h12.4c4.8,0,10.5-0.5,17.1-1.6c0.3-0.2,0.6-0.2,0.9-0.2c0.3,0,0.5,0.1,0.5,0.2
				c-0.5,1.6-0.8,3.1-1.1,4.7c0,0.6-0.4,1-1,1H26c-1.4,0-2.8-0.1-4.1-0.3c-1.3-0.2-2.6-0.5-3.8-0.9c-1.1-0.4-2.1-1-3.1-1.7
				c-0.6-0.6-1.3-1.6-2.1-3.1l-0.2-0.2c-0.3,0-0.4,0-0.5,0.1c-3.9,2.9-6,4.8-6.3,5.8c-0.1,0.2-0.3,0.3-0.5,0.3c-0.3,0-1-1-2.2-2.9
				c-0.2-0.3-0.3-0.7-0.3-1.2c2.2-0.9,5-2.6,8.4-5c0.2-0.1,0.3-0.5,0.3-1.1v-12.1H4.3c-0.5,0-0.7-0.3-0.7-1v-1.8
				C3.6,123.1,3.9,122.8,4.3,122.8z M7.1,108.7c2.1,1.2,3.7,2.3,5,3.3c1.5,1.2,2.8,2.3,3.9,3.3c0,0.1-0.1,0.2-0.3,0.5
				c-1.1,1.6-1.7,2.5-1.8,2.5c-1.6-1.6-3.4-3-5.4-4.3c-1.5-1.1-2.8-1.8-3.8-2.2c0-0.3,0.6-1.1,1.8-2.6
				C6.8,108.8,6.9,108.7,7.1,108.7z M8.2,97.1c2,1,3.6,1.9,4.9,2.8c1.5,1,2.8,2,3.8,2.9c0,0.1-0.1,0.2-0.3,0.5
				c-1.1,1.6-1.7,2.5-1.8,2.5c-1.6-1.4-3.4-2.6-5.2-3.7c-1.5-0.9-2.7-1.6-3.7-1.9c0-0.2,0.6-1.1,1.8-2.6C7.9,97.2,8,97.1,8.2,97.1z
				 M36.3,95.5c2.9,0,4.4,0.2,4.4,0.7s-0.2,0.8-0.6,0.9c-0.4,0.1-0.6,0.5-0.6,1.2v2.7H55c0.3,0,0.5,0.2,0.5,0.7v1.8
				c0,0.5-0.2,0.7-0.5,0.7h-9.9l2,0.9c0.6,0.2,0.9,0.5,0.9,0.7s-0.2,0.4-0.5,0.5c-0.3,0-0.6,0.2-0.6,0.5c-0.6,1.7-1.2,3.1-1.8,4.2
				h7.2c0.8,0,1.1,0.2,1.1,0.7v27c0,1.1-0.6,1.9-1.7,2.6c-1.1,0.5-2.5,0.8-4.2,0.9c-0.4,0-0.7-0.2-0.7-0.6c0-0.8-0.5-2.1-1.3-3.7
				c0-0.1,0.1-0.2,0.3-0.2c1.7,0,2.7-0.1,3-0.4c0.4-0.2,0.6-0.6,0.6-1.1v-22H38.8v4.3H47c0.3,0,0.5,0.2,0.5,0.7v1.8
				c0,0.5-0.2,0.7-0.5,0.7h-8.2v4.3h5.3c0.6,0,0.9,0.2,0.9,0.7v10c0,0.5-0.3,0.7-0.9,0.7H32.6v1.6c0,0.5-0.3,0.7-0.9,0.7h-2.3
				c-0.5,0-0.7-0.2-0.7-0.7v-12.3c0-0.5,0.2-0.7,0.7-0.7h5.2v-4.3h-7c-0.3,0-0.5-0.2-0.5-0.7v-1.8c0-0.5,0.2-0.7,0.5-0.7h7.1v-4.3
				h-9.6v26.4c0,0.5-0.3,0.7-0.9,0.7h-2.3c-0.6,0-0.9-0.2-0.9-0.7v-28.9c0-0.5,0.3-0.7,0.9-0.7h8.3c-0.1-0.3-0.2-0.5-0.3-0.8
				c-0.6-1.4-1.4-2.8-2.5-4.2c0-0.2,1-0.8,3-1.8c1.1,1.5,1.9,2.9,2.5,4.2c0.5,0.9,0.9,1.7,1.2,2.6h6.4c0.8-1.1,1.3-2,1.7-2.9
				c0.7-1.3,1.2-2.6,1.5-3.9v-0.1H20.1c-0.3,0-0.5-0.2-0.5-0.7v-1.8c0-0.5,0.1-0.7,0.5-0.7h15.3v-4.8C35.3,95.7,35.7,95.5,36.3,95.5
				z M32.6,134.3H41v-5h-8.4V134.3z"/>
			<path class="st2" d="M68.7,106.4c2.9,0.6,4.3,1.1,4.3,1.4c0,0.4-0.2,0.7-0.7,0.9c-0.5,0.4-0.7,0.8-0.7,1.3
				c-0.4,4.1-0.9,7.5-1.4,10.2c-0.3,1.4-0.8,2.9-1.3,4.5c-0.2,0.3-0.3,0.5-0.4,0.5c-1.3-0.4-2.4-0.6-3.4-0.8
				c-0.3-0.1-0.5-0.3-0.5-0.6c0.8-1.9,1.5-4.1,2.1-6.4s1.1-5.7,1.4-10.1C68.1,106.7,68.3,106.4,68.7,106.4z M74.6,95.2
				c2.9,0,4.3,0.2,4.3,0.7s-0.2,0.8-0.6,0.9c-0.4,0-0.6,0.4-0.6,1.2v50.3c0,0.4-0.3,0.6-0.9,0.6h-2.2c-0.6,0-0.9-0.2-0.9-0.6V95.9
				C73.7,95.5,74,95.2,74.6,95.2z M82.2,106c0.3,0,0.6,0.1,0.7,0.2c1.1,2.7,2.1,5.5,3,8.5c0,0.5-0.1,0.8-0.4,0.9
				c-1.4,0.9-2.5,1.4-3.3,1.4c-0.9-3.7-1.7-6.8-2.5-9.2C79.7,107.4,80.5,106.8,82.2,106z M90.8,99.9l3.9,1.4
				c0.4,0.3,0.6,0.6,0.6,0.9s-0.1,0.5-0.5,0.6c-0.3,0-0.5,0.2-0.6,0.7c-0.3,1.8-0.7,3.4-1,4.7h7.5V96.1c0-0.5,0.3-0.7,0.9-0.7
				c2.9,0,4.3,0.2,4.3,0.7s-0.2,0.8-0.6,0.9s-0.6,0.5-0.6,1.2v10h12.8c0.5,0,0.7,0.3,0.7,0.9v1.8c0,0.6-0.2,1-0.7,1h-12.8v13.4h11.4
				c0.5,0,0.7,0.3,0.7,1v1.8c0,0.6-0.2,1-0.7,1h-11.4v14.1h14.4c0.5,0,0.7,0.3,0.7,0.9v1.9c0,0.6-0.2,0.9-0.7,0.9H85.8
				c-0.5,0-0.7-0.3-0.7-0.9v-1.9c0-0.6,0.2-0.9,0.7-0.9h15.1v-14.1H89.7c-0.5,0-0.7-0.3-0.7-1v-1.8c0-0.6,0.2-1,0.7-1h11.2V112h-8.4
				c-0.5,1.8-1.1,3.5-1.8,5.1c-0.6,1.6-1.4,2.9-2.1,4.2c-0.5,0-0.9-0.1-1.3-0.2c-0.8-0.3-1.5-0.6-2.2-0.9c-0.3-0.1-0.4-0.2-0.4-0.3
				c0-0.2,0.1-0.3,0.2-0.5c1.1-1.9,2.1-4.2,3-6.9c0.5-1.6,1-3.2,1.4-5c0.5-1.9,0.9-4.3,1.3-7.2C90.6,100,90.7,99.9,90.8,99.9z"/>
			<path class="st2" d="M132,96.4h19.2c0.6,0,0.9,0.2,0.9,0.7v16.4c0,0.5-0.3,0.7-0.9,0.7h-16v33.7c0,0.5-0.3,0.7-0.9,0.7H132
				c-0.6,0-0.9-0.2-0.9-0.7V97.1C131.1,96.6,131.4,96.4,132,96.4z M135.2,103.7h13.2v-4h-13.2V103.7z M135.2,111h13.2v-4.1h-13.2
				V111z M145.9,117.6l3.5,1.5c0.6,0.2,0.9,0.5,0.9,0.8c0,0.2-0.3,0.3-0.8,0.4c-0.7,0-1.2,0.1-1.3,0.4c-1.1,1.1-2.2,2.1-3.2,2.9
				h20.3c-0.4-0.3-0.7-0.5-1-0.8c-1-0.8-1.7-1.8-2.1-2.9c-0.1-0.1-0.1-0.2-0.2-0.3h-8.4c-0.5,0-0.7-0.3-0.7-1v-1.8
				c0-0.5,0.2-0.7,0.7-0.7h10.5c0.6,0,0.9,0.2,0.9,0.7c0,0.9,0.2,1.7,0.7,2.4c0.4,0.7,1,1.3,1.7,1.8s1.6,0.9,2.9,1.3
				c0.9,0.3,1.8,0.5,2.9,0.7c0.3,0,0.4,0.1,0.4,0.2s-0.2,0.2-0.5,0.4c-0.6,0.6-1.3,1.3-1.9,2c-0.3,0.2-0.6,0.3-1.1,0.3
				c-0.8-0.2-1.7-0.5-2.7-1c-0.3-0.2-0.7-0.3-1-0.5V135c0,0.5-0.3,0.7-0.9,0.7h-5v4.6c0,1.5,0.9,2.3,2.7,2.3h2.3
				c0.3,0,0.6-0.2,0.7-0.5c0.2-0.3,0.2-1.2,0.3-2.7c0-0.2,0.1-0.3,0.1-0.3c1,0.6,2.1,0.9,3.2,0.9c0.5,0,0.7,0.2,0.7,0.6
				c-0.3,2.3-0.7,3.9-1.3,4.6c-0.3,0.6-0.9,0.9-1.7,0.9h-6.2c-3,0-4.6-1.2-4.6-3.5v-6.8h-4.1c0,1.1-0.1,2-0.2,2.9
				c-0.2,1.1-0.5,2.1-1,3c-0.4,0.9-1.1,1.7-2,2.5s-2.1,1.4-3.5,2c-1.1,0.4-2.4,0.7-3.8,1c-0.3,0-0.6-0.2-0.6-0.6
				c-0.5-0.7-1-1.4-1.5-2.2c-0.1-0.2-0.2-0.4-0.2-0.6c1.9-0.3,3.4-0.6,4.6-1c0.9-0.3,1.6-0.7,2.2-1.2c0.6-0.4,1-0.9,1.3-1.4
				c0.4-0.6,0.7-1.3,0.9-2.2c0.1-0.5,0.2-1.3,0.2-2.3h-4.3c-0.6,0-0.9-0.2-0.9-0.7v-10.6c-0.5,0.3-1,0.6-1.4,0.9
				c-0.5,0.2-0.9,0.3-1.1,0.3c-0.3,0-0.6-0.1-1-0.3c-0.8-0.3-1.5-0.7-2.2-1c-0.3-0.1-0.5-0.2-0.5-0.2c0-0.1,0.1-0.2,0.3-0.3
				c1.8-1,3.2-1.9,4.2-2.7c1.3-0.9,2.3-1.9,3-3C145.4,117.7,145.6,117.6,145.9,117.6z M162.3,132.2v-5.3h-14.4v5.3H162.3z
				 M159.1,96.4h19.4c0.8,0,1.1,0.2,1.1,0.7V143c0,1.9-0.7,3.4-2.1,4.5c-1.3,0.8-3.1,1.3-5.2,1.6c-0.4,0-0.6-0.2-0.7-0.6
				c-0.1-0.8-0.5-2.1-1.4-3.7c0-0.2,0.1-0.3,0.4-0.3c2.3,0,3.7-0.2,4.1-0.7c0.5-0.5,0.7-1.3,0.7-2.3v-27.2H159
				c-0.6,0-0.9-0.2-0.9-0.7V97.1C158.2,96.6,158.5,96.4,159.1,96.4z M162.3,103.7h13.2v-4h-13.2V103.7z M162.3,111h13.2v-4.1h-13.2
				V111z"/>
			<path class="st2" d="M192.3,105h17.6c0.5,0,0.7,0.3,0.7,0.9v1.8c0,0.6-0.2,0.9-0.7,0.9h-17.6c-0.5,0-0.7-0.3-0.7-0.9V106
				C191.6,105.4,191.8,105,192.3,105z M193.8,130.4h14.4c0.6,0,0.9,0.2,0.9,0.7v15.7c0,0.5-0.3,0.7-0.9,0.7h-2.3
				c-0.5,0-0.7-0.2-0.7-0.7V145H197v2.7c0,0.5-0.3,0.7-0.9,0.7h-2.3c-0.5,0-0.7-0.2-0.7-0.7V131
				C193.2,130.6,193.4,130.4,193.8,130.4z M195,96.6h12.8c0.5,0,0.7,0.3,0.7,1v1.8c0,0.6-0.2,0.9-0.7,0.9H195
				c-0.5,0-0.7-0.3-0.7-0.9v-1.8C194.3,96.9,194.5,96.6,195,96.6z M195,113.3h12.8c0.5,0,0.7,0.3,0.7,1v1.8c0,0.7-0.2,1-0.7,1H195
				c-0.5,0-0.7-0.3-0.7-1v-1.8C194.3,113.6,194.5,113.3,195,113.3z M195,121.5h12.8c0.5,0,0.7,0.3,0.7,0.9v1.9
				c0,0.6-0.2,0.9-0.7,0.9H195c-0.5,0-0.7-0.3-0.7-0.9v-1.9C194.3,121.8,194.5,121.5,195,121.5z M197,141.4h8.2v-7.5H197V141.4z
				 M215.5,124.4h25.3c0.6,0,0.9,0.2,0.9,0.7v17.1c0,0.5-0.3,0.7-0.9,0.7h-5.4c1.1,0.7,2.1,1.3,3.1,1.7c1.2,0.5,2.9,1.1,5.2,1.8
				c0.3,0.2,0.5,0.3,0.5,0.4c0,0.3-0.8,1.2-2.3,2.7c-0.1,0-0.3,0-0.6-0.1c-4.4-1.7-7.7-3.3-9.8-4.8c-0.2-0.2-0.3-0.3-0.3-0.3
				c0-0.2,0.4-0.6,1.2-1.4h-8.6c1.4,1.2,2.1,1.9,2.1,2.1c0,0.3-0.2,0.4-0.6,0.4c-0.7,0-1.1,0.1-1.2,0.3c-3,1.8-6.2,3.2-9.6,4.3
				c-0.4,0-0.7-0.2-0.9-0.5c-0.2-0.5-0.6-0.9-1.2-1.4c-0.3-0.2-0.4-0.4-0.4-0.6c0-0.2,0.2-0.3,0.5-0.3c1.8-0.5,3.3-1.1,4.7-1.8
				c1.4-0.6,2.7-1.4,4-2.4h-5.7c-0.6,0-0.9-0.2-0.9-0.7v-17.1C214.6,124.7,214.9,124.4,215.5,124.4z M213,99.1h13.2v-3
				c0-0.3,0.2-0.5,0.7-0.5c2.7,0,4.1,0.2,4.1,0.7s-0.2,0.8-0.5,0.8s-0.5,0.4-0.5,1V99h13.2c0.3,0,0.5,0.2,0.5,0.7v1.3
				c0,0.6-0.2,1-0.5,1H230v2.5h10.7c0.3,0,0.5,0.2,0.5,0.6v1.4c0,0.6-0.2,0.9-0.5,0.9h-25.6c-0.3,0-0.5-0.3-0.5-0.9v-1.4
				c0-0.4,0.1-0.6,0.5-0.6h11V102h-13.2c-0.3,0-0.5-0.3-0.5-1v-1.3C212.6,99.4,212.7,99.1,213,99.1z M213.5,110.1h29.4
				c0.6,0,0.9,0.2,0.9,0.7v10.8c0,0.4-0.3,0.6-0.9,0.6h-29.4c-0.6,0-0.9-0.2-0.9-0.6v-10.8C212.6,110.3,212.9,110.1,213.5,110.1z
				 M221.2,119.6v-7.1h-5v7.1H221.2z M218.5,129.9h19.4v-2.7h-19.4V129.9z M218.5,135.2h19.4v-2.7h-19.4V135.2z M237.9,140.2v-2.5
				h-19.4v2.5H237.9z M230.6,119.6v-7.1h-5.5v7.1H230.6z M240.2,119.6v-7.1h-5.7v7.1H240.2z"/>
		</g>
	</g>
	<g>
		<path class="st0" d="M672.1,65.8v41.8H666V45.4h25.9v20.4H672.1z M672.1,49.8v3.7h13.7v-3.7H672.1z M685.8,61.4v-3.9h-13.7v3.9
			H685.8z M723.8,99.9c0,3.2-0.6,4.9-2.5,5.9c-2,1-4.9,1.1-9.1,1.1c-0.1-1.2-0.6-2.9-1.2-4.4c-0.9,1-2,1.3-3.8,1.3H702
			c-4.9,0-5.9-1.5-5.9-6.3v-7.1h-4.8c-1.2,7.2-4.1,11.6-13.1,14.5c-0.6-1.3-2-3.5-3.1-4.4c7.5-1.9,10-5.1,10.8-10.1h-4.3V78.6
			c-1.3,0.8-2.5,1.6-3.8,2.2c-1-1-2.7-2.5-3.8-3.3c5-2.4,10.5-6.5,13.1-10.2l5.1,1.6c-2.1,2.9-5.2,5.8-8.4,8.2h22.7
			c-3-2.5-6.6-5.1-9.9-7l3.6-2.7c4.9,3,11.2,7.5,14.3,10.6l-3.8,3.1c-0.8-1-1.9-2-3.2-3.1v12.5h-5.9v7c0,1.4,0.2,1.5,1.4,1.5h3.7
			c1.2,0,1.4-0.6,1.6-4.9c1,0.8,3.2,1.6,4.7,1.9c-0.1,2.2-0.5,3.8-1,5c2.2,0.1,4,0.1,4.6,0.1c0.9-0.1,1.2-0.4,1.2-1.3v-34h-20.3
			V45.5H724v54.4H723.8z M686.6,86.5H702V81h-15.4V86.5z M703.5,49.9v3.7h14.2v-3.7H703.5z M717.6,61.4v-3.9h-14.2v3.9H717.6z"/>
		<path class="st0" d="M757.2,59.7h-22.5v-5.2H746c-1.3-2.6-3.7-6.3-5.9-8.9l5.4-2.3c2.5,2.7,5.1,6.5,6.3,9.1l-4.6,2.1h9.9
			L757.2,59.7L757.2,59.7z M756,78.6h-19.1v-5.1H756V78.6z M755.3,103.6h-12.8v3.1h-5.2V83h18V103.6z M737.5,69.2v-5.1h17.9v5.1
			H737.5z M742.5,88.3v10.2h7.6V88.3H742.5z M785.3,97.4c4.9,2,10.2,4.4,13.5,6l-3.5,4.4c-3.4-1.9-9.1-4.7-14.2-6.9l2.6-3.4h-12.9
			l4.5,2.7c-3.9,3-10.3,6-15.5,7.5c-1-1.1-2.9-3-4.1-4c5-1.3,10.8-3.9,13.9-6.2h-7.9V76.7h33.5v20.7
			C795.2,97.4,785.3,97.4,785.3,97.4z M774.7,50.7h-15.5v-4.3h15.5v-3.5h6.3v3.5h16.5v4.3H781v3h14.7v4.1h-34.2v-4.1h13.2V50.7z
			 M759.6,60.2h37.5v14.3h-37.5V60.2z M764.8,70.9h5.9v-7.3h-5.9V70.9z M767.5,82.9h21.8v-2.5h-21.8V82.9z M767.5,88.3h21.8v-2.6
			h-21.8V88.3z M767.5,93.8h21.8V91h-21.8V93.8z M781.4,70.9v-7.3h-6.6v7.3H781.4z M791.7,63.7h-6.1V71h6.1V63.7z"/>
		<path class="st0" d="M829.6,79.4c-2.5,0.7-5,1.5-7.5,2.2v18.8c0,3.2-0.7,4.9-2.6,5.8c-2,1.1-4.7,1.3-8.9,1.2
			c-0.3-1.5-1.1-4.2-1.9-5.9c2.6,0.1,5.2,0.1,5.9,0.1c0.9,0,1.2-0.3,1.2-1.3V83.4l-7.3,2.1l-1.7-6.3c2.6-0.6,5.7-1.3,9.1-2.3V62.8
			h-8.2v-6.1h8.2V43h6.3v13.7h6.9v6.1h-6.9v12.5l6.7-1.8L829.6,79.4z M870.9,98.4v6.2h-42.5v-6.2h23.4c2.4-9.3,4.9-23.5,6.1-33.9
			l6.8,1.1c-1.8,10.7-4.5,23.7-7,32.7L870.9,98.4L870.9,98.4z M869.2,61.4h-37.6v-6.1h37.6V61.4z M840.5,95.7
			c-0.6-7.3-2.4-19.9-4.5-29.4l5.8-1.3c2.2,9.5,4.2,21.8,4.9,28.9L840.5,95.7z M847.4,54.9c-0.6-3-2-7.6-3.3-11.1l6.1-1.6
			c1.3,3.5,2.8,7.8,3.5,10.8L847.4,54.9z"/>
		<path class="st0" d="M938.7,57.8c0,0-0.1,2.3-0.1,3.2c-1.5,28.5-2.9,38.9-5.9,42.5c-1.9,2.3-3.7,3-6.4,3.2c-2.5,0.3-7,0.2-11.1,0
			c-0.1-1.9-1-4.8-2.3-6.8c4.6,0.4,8.9,0.4,10.6,0.4c1.5,0,2.4-0.2,3.2-1.1c2.4-2.3,3.8-11.9,5-34.9h-21.8
			c-1,14.5-5.8,31.5-25.6,43.4c-1-1.6-3.5-4.1-5-5.3C897.4,91.9,902,77,903,64.3h-21.6v-6.7h22v-1.8V43h6.8v13v1.8H938.7z"/>
		<path class="st0" d="M1001.8,98.3h-7.6c6.4,1.8,12.8,3.8,17.2,5.2l-5.3,3.7c-4.6-1.7-12.3-4.3-19.9-6.5l2.7-2.4h-14.2l3.2,2.1
			c-5.6,3.1-14.8,5.7-22.4,7c-0.9-1.1-2.6-3.1-3.8-4.2c6.2-1,13.6-2.9,18.5-4.9h-7.6V82.1c-2.9,1.7-6,3.2-9,4.2
			c-0.8-1.3-2.6-3.7-3.8-4.7c5.8-1.6,12-4.6,16.5-8.1h-14.6v-4.7h17.2v-2.5h-9.1v-3.6h9.1V60h-10v-3.7h10v-2.7h6v2.7h14.4v-2.7h6.1
			v2.7h10V60h-10v2.7h9.3v3.6h-9.3v2.5h17.3v4.7h-13.5c4.3,3.1,10,5.6,15.4,7c-1.3,1.3-3.2,3.5-4,5.1c-2.9-1-5.9-2.4-8.8-4V98.3z
			 M958.3,58.3h-5.9V47.1h27.1c-0.5-1.1-1-2.3-1.6-3.2l6.4-1.7c0.9,1.5,2,3.3,2.6,4.9h25.2v11.1h-6.1v-6.1h-47.7V58.3z M995.6,79.9
			h-27.1v2.7h27.1V79.9z M995.6,85.9h-27.1v2.7h27.1V85.9z M995.6,92.1h-27.1v2.8h27.1V92.1z M973.5,73.5c-0.9,1.1-2,2-3.1,3h24.4
			c-1-1-2-1.9-3-3H973.5z M974.9,62.6h14.4v-2.7h-14.4V62.6z M974.9,68.7h14.4v-2.5h-14.4V68.7z"/>
		<path class="st0" d="M1062,75.2c0,4.5-3.6,8.2-8.1,8.2s-8.1-3.7-8.1-8.2s3.6-8.2,8.1-8.2S1062,70.7,1062,75.2z"/>
		<path class="st0" d="M1117.1,59.9h-22.8v-5.2h11.2c-1-2.6-3.1-6.6-4.9-9.5l4.9-2.6c2,3,4.2,6.7,5.3,9.2l-5.2,2.9h11.5V59.9z
			 M1116,69.2h-18.8V64h18.8V69.2z M1097.2,73.3h18.8v5.1h-18.8V73.3z M1116.1,103.5h-13.5v3.2h-5.4V82.8h18.9V103.5z M1102.6,88.1
			v10.1h7.9V88.1H1102.6z M1139.6,90.7l0.6,5.7c-7.5,2.2-15.3,4.3-21.5,5.9L1117,96c2.2-0.4,4.9-1,7.8-1.7V77.2h-6.6v-5.8h19.3v5.8
			h-6.8v15.6L1139.6,90.7z M1145.1,62.3c0.8,22,3.4,38.9,6.6,38.9c1,0,1.6-3.6,1.7-11.1c1.3,1.4,3.3,2.9,4.8,3.5
			c-0.9,10.7-2.6,13.9-7.3,13.9c-8.3,0-11.1-20.5-12-45.3h-20.1v-6.1h19.9c-0.1-4.4-0.2-8.7-0.2-13.2h6.3c-0.1,4.5-0.1,8.9,0,13.2
			h12.9v6.1L1145.1,62.3L1145.1,62.3z M1151.8,55.8c-1.1-2.5-3.6-6.2-5.8-8.9l4.4-2.6c2.3,2.5,4.9,6.1,6.1,8.5L1151.8,55.8z"/>
		<path class="st0" d="M1178.8,88.8c-0.5,6.6-2.6,13.9-8.7,18.9c-0.8-1.3-2.6-3.2-3.8-4.2c5-3.7,6.4-9.5,6.8-14.7h-6.4v-5.4h6.6
			v-7.3h-7.4v-5.4h10.9c1-3.7,2.3-9.1,2.8-12.9l5,1.1c-1.1,3.9-2.3,8.4-3.3,11.8h5.3v5.4h-7.5v7.3h6.3v5.4
			C1185.4,88.8,1178.8,88.8,1178.8,88.8z M1186.2,57.3h-19.9V52h7.4c-0.8-2.2-1.8-4.7-2.9-6.7l5.4-1.6c1.5,2.5,2.9,5.8,3.7,8.3h6.3
			V57.3z M1169.6,70.6c0-3-0.8-7.6-1.8-11.2l4.3-1.1c1.2,3.4,2,8,2.2,11.1L1169.6,70.6z M1205.5,61.3c-0.4,29.9-0.8,39.6-2.4,42.3
			c-1,1.8-2.2,2.4-3.9,2.7c-1.4,0.3-3.4,0.2-5.6,0.1c-0.1-1.6-0.6-3.9-1.4-5.4c1.9,0.1,3.6,0.1,4.5,0.1c0.8,0,1.3-0.2,1.7-1.1
			c1-1.8,1.4-10.5,1.7-35.9h-4c-0.8,18.1-2.9,32.7-9.9,43.5c-0.7-1-3.1-3-4.2-3.9c6.4-9.2,8.5-23,9.1-39.6h-3.8v-5.6h3.9
			c0.1-5,0.1-10.2,0.1-15.6h5.1c0,5.4-0.1,10.6-0.2,15.6h9.1v2.8H1205.5z M1221.8,76.2v8.3h6.9v5.4h-6.9v17.5h-5.9V89.9h-6.7v-5.4
			h6.7v-8.3h-7.9v-5.4h11.6c1.1-3.7,2.4-9.4,2.9-13.2l4.9,1.1c-0.9,3.9-2.1,8.5-3.1,12h5.3v5.4L1221.8,76.2L1221.8,76.2z
			 M1228.7,57.2h-20.4v-5.4h7.5c-0.8-2.3-1.9-4.9-3-7l5.4-1.6c1.4,2.7,2.9,6.1,3.9,8.7h6.6V57.2z M1212,70.6c-0.1-3-0.9-7.8-2-11.5
			l4.3-1.1c1.3,3.6,2.2,8.2,2.3,11.3L1212,70.6z"/>
		<path class="st0" d="M1289,98.3h-7.6c6.4,1.8,12.8,3.8,17.2,5.2l-5.3,3.7c-4.6-1.7-12.3-4.3-19.9-6.5l2.7-2.4H1262l3.2,2.1
			c-5.6,3.1-14.9,5.7-22.4,7c-0.9-1.1-2.6-3.1-3.8-4.2c6.2-1,13.6-2.9,18.5-4.9h-7.6V82.1c-2.9,1.7-6,3.2-9,4.2
			c-0.8-1.3-2.6-3.7-3.8-4.7c5.8-1.6,12-4.6,16.5-8.1H1239v-4.7h17.2v-2.5h-9.1v-3.6h9.1V60h-10v-3.7h10v-2.7h6v2.7h14.4v-2.7h6.1
			v2.7h10V60h-10v2.7h9.3v3.6h-9.3v2.5h17.3v4.7h-13.5c4.3,3.1,10,5.6,15.4,7c-1.3,1.3-3.2,3.5-4,5.1c-2.9-1-5.9-2.4-8.8-4
			L1289,98.3L1289,98.3z M1245.5,58.3h-5.9V47.1h27.1c-0.5-1.1-1-2.3-1.6-3.2l6.4-1.7c0.9,1.5,2,3.3,2.6,4.9h25.2v11.1h-6.1v-6.1
			h-47.7V58.3z M1282.8,79.9h-27.1v2.7h27.1V79.9z M1282.8,85.9h-27.1v2.7h27.1V85.9z M1282.8,92.1h-27.1v2.8h27.1V92.1z
			 M1260.7,73.5c-0.9,1.1-2,2-3.1,3h24.4c-1-1-2-1.9-3-3H1260.7z M1262.1,62.6h14.4v-2.7h-14.4V62.6z M1262.1,68.7h14.4v-2.5h-14.4
			V68.7z"/>
		<path class="st0" d="M1328.2,88.3h11.9v5.6h-11.9v13.4h-6V93.9h-12.5v-5.6h12.5v-6.8h-11V76h5.9c-0.5-2.3-1.7-5.4-3-7.8l4.3-1.3
			h-8.6v-5.6h12.5v-6.1h-10.6v-5.5h10.5v-6.6h6v6.6h10.1v5.5h-10.1v6.1h11.8v5.6h-7.7l4.5,1.2c-1.3,2.6-2.8,5.6-4.1,8h5.9v5.6h-10.5
			L1328.2,88.3L1328.2,88.3z M1318.9,66.8c1.5,2.5,2.8,5.9,3.3,8l-3.3,1.1h8.2c1.5-2.8,3.1-6.5,4.1-9.2L1318.9,66.8L1318.9,66.8z
			 M1371.5,71.1c-1.5,8.2-4,15.8-7.9,22.5c3.1,3.4,6.5,6.3,10.4,8.3c-1.5,1.1-3.3,3.6-4.3,5.2c-3.6-2-6.8-4.9-9.6-8.2
			c-2.6,3.4-5.6,6.4-9.1,8.8c-0.6-1-1.6-2-2.7-3v2.8h-5.9V46.1h27.5v13.3c0,3-0.6,4.7-3,5.6c-2.3,1-5.9,1-11.1,1
			c-0.3-1.7-1.1-4.1-2-5.6c4,0.1,7.7,0.1,8.6,0.1c1.1-0.1,1.4-0.3,1.4-1.1v-7.5h-15.6v18h18.2l1.1-0.3L1371.5,71.1z M1348.2,102.1
			c3.1-2.3,5.8-5.1,8.1-8.4c-3.4-5.3-6.1-11.5-8.1-18.2V102.1z M1353.5,75.2c1.5,4.7,3.6,9.2,6.1,13.1c2.2-4.1,3.8-8.5,4.9-13.1
			H1353.5z"/>
		<path class="st0" d="M1440,107.6h-6.7v-2.9h-26.4v2.7h-6.5v-21c-5.2,3-10.7,5.6-16.3,7.4c-0.8-1.8-2.4-4.4-3.7-5.8
			c8.7-2.6,17.5-7,25-12.9c-2.9-3.3-7.6-7.5-11.7-10.6c-2.6,2-5.5,4.1-8.6,5.9c-1-1.6-3.1-4-4.6-5.1c11.4-6.3,19.2-15,23.3-22.6
			l7.3,1.4c-1.1,2-2.4,3.9-3.7,5.8h17.8l1.2-0.4l4.4,2.4c-3.8,10-10.1,18.4-17.6,25.2h26.8L1440,107.6L1440,107.6z M1402.8,55.7
			c-1.3,1.5-2.7,3-4.3,4.4c4.2,3.1,9.1,7.1,12.1,10.4c4.6-4.4,8.5-9.4,11.3-14.9h-19.1V55.7z M1433.3,98.8V83h-26.4v15.8H1433.3z"/>
		<path class="st0" d="M1513.4,81.4c-4,3.2-8.8,6.5-13,9.1c4.5,4.2,10,7.4,16.7,9.3c-1.4,1.4-3.3,3.9-4.2,5.7
			c-14.3-4.9-23.5-15.2-28.9-29.8c-2.8,3-6.3,5.9-10,8.5v13.9l16-4.6c0.1,1.8,0.7,4.4,1.1,5.8c-19.5,6.1-22.2,7-24.1,8.2
			c-0.5-1.7-1.7-4.6-2.8-5.9c1.3-0.6,3-2.1,3-5v-8.1c-3.6,2-7.3,3.7-10.8,5.1c-1-1.6-2.9-3.9-4.3-5.3c8.3-2.6,17.4-7.5,23.7-13
			h-21.5v-5.6h26.8v-5.3h-20.5v-5.3h20.5v-4.9h-24v-5.6h24V43h6.5v5.6h24.8v5.6h-24.8v4.9h22v5.3h-22v5.3h27.1v5.6h-24.5
			c1.7,4.1,3.8,7.8,6.4,11.1c4-2.7,8.5-6.2,11.3-9.1L1513.4,81.4z"/>
	</g>
</g>
</svg>
