<?xml version="1.0" encoding="utf-8"?>
<!-- Generator: Adobe Illustrator 26.2.1, SVG Export Plug-In . SVG Version: 6.00 Build 0)  -->
<svg version="1.1" id="圖層_1" xmlns="http://www.w3.org/2000/svg" xmlns:xlink="http://www.w3.org/1999/xlink" x="0px" y="0px"
	 viewBox="0 0 1456.3 150" style="enable-background:new 0 0 1456.3 150;" xml:space="preserve">
<style type="text/css">
	.st0{fill:#2E3233;}
	.st1{fill:#595757;}
	.st2{fill:#0D9A3B;}
	.st3{fill:#DFC44A;}
</style>
<g>
	<g>
		<path class="st0" d="M689.5,86c-1.5-1.5-2.9-5.8-5.8-8.7v30.6h-5.8V78.7c-2.9,5.8-5.8,13.1-8.7,16c0-1.5-1.5-4.4-2.9-5.8
			c4.4-4.4,8.7-13.1,11.7-20.4h-10.2v-5.8h11.7V52.5c-2.9,0-5.8,1.5-8.7,1.5c0-1.5-1.5-4.4-1.5-4.4c7.3-1.5,17.5-2.9,21.9-5.8
			l4.4,5.8c-2.9,1.5-5.8,1.5-8.7,2.9v10.2h10.2v5.8h-11.7v1.5c1.5,1.5,8.7,8.7,8.7,11.7L689.5,86z M723.1,88.9v17.5h-5.8v-16
			l-21.9,4.4l-1.5-7.3l23.3-4.4V42.3h5.8V83l7.3-1.5l1.5,5.8L723.1,88.9z M707,80.1c-1.5-2.9-7.3-7.3-11.7-10.2l4.4-4.4
			c4.4,2.9,10.2,7.3,11.7,10.2L707,80.1z M709.9,61.2c-1.5-2.9-7.3-7.3-10.2-10.2l4.4-4.4c4.4,2.9,8.7,7.3,11.7,10.2L709.9,61.2z"/>
		<path class="st0" d="M803.2,69.9v5.8h-62.7v-5.8h21.9V56.8h-18.9V51h13.1c-1.5-1.5-2.9-4.4-4.4-5.8l5.8-2.9
			c1.5,1.5,4.4,4.4,4.4,7.3l-2.9,1.5h18.9c1.5-2.9,4.4-5.8,4.4-8.7l5.8,1.5c-1.5,2.9-2.9,4.4-4.4,5.8h13.1v5.8h-18.9v13.1h24.8V69.9
			z M752.2,56.8c2.9,2.9,4.4,7.3,5.8,10.2l-5.8,2.9c-1.5-2.9-2.9-7.3-4.4-10.2L752.2,56.8z M749.3,78.7h45.2v29.1h-7.3v-2.9h-32.1
			v2.9h-5.8C749.3,107.8,749.3,78.7,749.3,78.7z M755.1,83v5.8h32.1V83H755.1z M787.2,100.5v-5.8h-32.1v5.8H787.2z M768.2,69.9h7.3
			V56.8h-7.3V69.9z M785.7,67c1.5-2.9,4.4-7.3,4.4-10.2l5.8,1.5c-1.5,4.4-4.4,7.3-5.8,10.2L785.7,67z"/>
		<path class="st0" d="M820.7,65.6v42.3h-5.8V45.2h26.2v20.4H820.7z M820.7,49.5v4.4h14.6v-4.4H820.7z M835.2,61.2v-4.4h-14.6v4.4
			C820.7,61.2,835.2,61.2,835.2,61.2z M873.1,100.5c0,2.9,0,4.4-2.9,5.8c-1.5,1.5-4.4,1.5-8.7,1.5c0-1.5,0-2.9-1.5-4.4
			c-1.5,1.5-1.5,1.5-4.4,1.5h-5.8c-2.9-1.5-4.4-2.9-4.4-7.3v-7.3h-4.4c-1.5,7.3-4.4,11.7-13.1,14.6c0-1.5-1.5-2.9-2.9-4.4
			c7.3-1.5,10.2-4.4,10.2-10.2h-4.4V78.7c-1.5,1.5-2.9,1.5-4.4,1.5c-1.5-1.5-2.9-2.9-4.4-2.9c4.4-2.9,10.2-5.8,13.1-10.2l5.8,1.5
			c-1.5,2.9-5.8,5.8-8.7,8.7h23.3c-2.9-2.9-7.3-4.4-10.2-7.3l2.9-2.9c4.4,2.9,11.7,7.3,14.6,10.2l-2.9,4.4c-1.5-1.5-1.5-1.5-2.9-2.9
			v13.1h-5.8v7.3c0,1.5,0,1.5,1.5,1.5h4.4c1.5,0,1.5,0,1.5-4.4c1.5,1.5,2.9,1.5,4.4,1.5c0,1.5,0,4.4-1.5,4.4c1.5,0,4.4,0,4.4,0
			c1.5,0,1.5,0,1.5-1.5v-35h-20.4V45.2h26.2L873.1,100.5L873.1,100.5z M835.2,86h16v-4.4h-16V86z M852.7,49.5v4.4h14.6v-4.4H852.7z
			 M867.3,61.2v-4.4h-14.6v4.4C852.7,61.2,867.3,61.2,867.3,61.2z"/>
		<path class="st0" d="M906.6,59.7h-23.3v-5.8H895c-1.5-2.9-4.4-5.8-5.8-8.7l5.8-1.5c2.9,2.9,5.8,5.8,5.8,8.7l-4.4,1.5h10.2
			C906.6,53.9,906.6,59.7,906.6,59.7z M905.2,78.7h-18.9v-5.8h18.9V78.7z M905.2,103.4h-13.1v2.9h-5.8V83h17.5v20.4H905.2z
			 M887.7,69.9v-5.8h17.5v5.8H887.7z M892.1,88.9v10.2h7.3V88.9H892.1z M935.8,97.6c4.4,1.5,10.2,4.4,13.1,5.8l-2.9,4.4
			c-2.9-1.5-8.7-4.4-14.6-7.3l2.9-2.9h-13.1l4.4,2.9c-4.4,2.9-10.2,5.8-16,7.3c-1.5-1.5-2.9-2.9-4.4-4.4c4.4-1.5,10.2-4.4,14.6-5.8
			h-7.3V77.2H946v20.4C946,97.6,935.8,97.6,935.8,97.6z M924.1,51h-16v-4.4h16v-4.4h5.8v2.9h17.5v4.4h-16v2.9H946v5.8h-35v-4.4h13.1
			V51z M909.5,59.7h37.9v14.6h-37.9V59.7z M915.4,71.4h5.8v-7.3h-5.8V71.4z M916.8,83h21.9v-2.9h-21.9V83z M916.8,88.9h21.9V86
			h-21.9V88.9z M916.8,93.2h21.9v-2.9h-21.9V93.2z M931.4,71.4v-7.3h-7.3v7.3H931.4z M941.6,64.1h-5.8v7.3h5.8V64.1z"/>
		<path class="st0" d="M980.9,78.7c-2.9,0-4.4,1.5-7.3,1.5v18.9c0,2.9,0,4.4-2.9,5.8c-1.5,1.5-4.4,1.5-8.7,1.5
			c0-1.5-1.5-4.4-1.5-5.8c2.9,0,5.8,0,5.8,0c1.5,0,1.5,0,1.5-1.5V83l-7.3,1.5l-1.5-5.8c2.9,0,5.8-1.5,8.7-2.9V61.2h-8.7v-4.4h8.7
			V42.3h5.8v13.1h7.3v5.8h-7.3v13.1l5.8-1.5L980.9,78.7z M1021.7,99.1v5.8h-42.3v-5.8h23.3c2.9-8.7,4.4-23.3,5.8-33.5l7.3,1.5
			c-1.5,10.2-4.4,23.3-7.3,32.1H1021.7z M1020.3,61.2h-37.9v-5.8h37.9V61.2z M991.1,96.2c0-7.3-2.9-20.4-4.4-29.1l5.8-1.5
			c1.5,10.2,4.4,21.9,4.4,29.1L991.1,96.2z M998.4,55.4c0-2.9-1.5-7.3-2.9-11.7l5.8-1.5c1.5,2.9,2.9,7.3,2.9,10.2L998.4,55.4z"/>
		<path class="st0" d="M1090.2,58.3v2.9c-1.5,29.1-2.9,39.3-5.8,42.3c-1.5,2.9-4.4,2.9-5.8,2.9c-2.9,0-7.3,0-11.7,0
			c0-1.5-1.5-4.4-2.9-7.3c4.4,0,8.7,0,10.2,0s2.9,0,2.9-1.5c2.9-2.9,4.4-11.7,4.4-35h-21.9c-1.5,14.6-5.8,32.1-26.2,43.7
			c1.5,0-1.5-2.9-2.9-4.4c18.9-10.2,23.3-24.8,23.3-37.9h-21.9v-5.8h21.9v-2.9V43.7h7.3v13.1v1.5H1090.2z"/>
		<path class="st0" d="M1154.3,97.6h-7.3c5.8,1.5,13.1,4.4,17.5,5.8l-5.8,4.4c-4.4-1.5-13.1-4.4-20.4-5.8l2.9-2.9h-14.6l2.9,1.5
			c-5.8,2.9-14.6,5.8-23.3,7.3c-1.5-1.5-2.9-2.9-4.4-4.4c8.7-1.5,16-2.9,20.4-5.8h-7.3v-16c-2.9,1.5-5.8,2.9-8.7,4.4
			c-1.5-1.5-2.9-4.4-4.4-4.4c5.8-1.5,11.7-4.4,16-8.7h-14.6v-4.4h17.5v-2.9h-8.7v-2.9h8.7v-2.9h-10.2v-2.9h10.2v-2.9h5.8v2.9h14.6
			v-2.9h5.8v2.9h10.2v4.4H1147v2.9h8.7V67h-8.7v2.9h18.9v2.9h-14.6c4.4,2.9,10.2,5.8,16,7.3c-1.5,1.5-2.9,2.9-4.4,4.4
			c-2.9-1.5-5.8-2.9-8.7-4.4V97.6z M1110.6,58.3h-5.8V46.6h27.7c0-1.5-1.5-2.9-1.5-2.9l5.8-1.5c0,1.5,1.5,2.9,2.9,4.4h26.2v11.7
			h-5.8v-5.8h-48.1v5.8H1110.6z M1148.5,80.1h-27.7V83h27.7V80.1z M1148.5,86h-27.7v2.9h27.7V86z M1148.5,91.8h-27.7v2.9h27.7V91.8z
			 M1125.2,72.8c-1.5,1.5-1.5,1.5-2.9,2.9h24.8c-1.5-1.5-1.5-1.5-2.9-2.9H1125.2z M1126.6,62.7h14.6v-2.9h-14.6V62.7z M1126.6,68.5
			h14.6v-2.9h-14.6V68.5z"/>
		<path class="st0" d="M1215.5,75.8c0,4.4-4.4,8.7-8.7,8.7c-4.4,0-8.7-4.4-8.7-8.7s4.4-8.7,8.7-8.7S1215.5,71.4,1215.5,75.8z"/>
		<path class="st0" d="M1270.9,59.7h-23.3v-4.4h11.7c-1.5-2.9-2.9-7.3-4.4-10.2l4.4-2.9c1.5,2.9,4.4,7.3,5.8,8.7l-5.8,2.9h11.7
			C1270.9,53.9,1270.9,59.7,1270.9,59.7z M1269.4,68.5h-18.9v-4.4h18.9V68.5z M1250.5,72.8h18.9v4.4h-18.9V72.8z M1269.4,103.4
			h-13.1v2.9h-5.8V83h18.9V103.4z M1256.3,87.4v10.2h7.3V87.4H1256.3z M1294.2,90.3v5.8c-7.3,1.5-16,4.4-21.9,5.8l-1.5-5.8
			c2.9,0,4.4-1.5,7.3-1.5V77.2h-7.3v-5.8h18.9v5.8h-7.3v16L1294.2,90.3z M1298.6,62.7c1.5,21.9,2.9,39.3,7.3,39.3
			c1.5,0,1.5-2.9,1.5-11.7c1.5,1.5,2.9,2.9,4.4,2.9c-1.5,10.2-2.9,14.6-7.3,14.6c-8.7,0-11.7-20.4-11.7-45.2h-20.4v-5.8h20.4
			c0-4.4,0-8.7,0-13.1h5.8c0,4.4,0,8.7,0,13.1h13.1v5.8H1298.6z M1305.8,55.4c-1.5-2.9-2.9-5.8-5.8-8.7l4.4-2.9
			c2.9,2.9,4.4,5.8,5.8,8.7L1305.8,55.4z"/>
		<path class="st0" d="M1333.5,88.9c0,7.3-2.9,14.6-8.7,18.9c-1.5-1.5-2.9-2.9-4.4-4.4c4.4-4.4,5.8-10.2,7.3-14.6h-5.8V83h7.3v-7.3
			h-7.3v-4.4h11.7c1.5-4.4,2.9-8.7,2.9-13.1h2.9c-1.5,4.4-2.9,8.7-2.9,11.7h4.4v5.8h-7.3V83h5.8v5.8
			C1339.4,88.9,1333.5,88.9,1333.5,88.9z M1340.8,56.8h-20.4v-4.4h7.3c-1.5-1.5-1.5-4.4-2.9-7.3l5.8-1.5c1.5,2.9,2.9,5.8,4.4,8.7
			h5.8V56.8z M1323.3,69.9c0-2.9-1.5-7.3-1.5-11.7h4.4c1.5,2.9,1.5,8.7,1.5,11.7H1323.3z M1359.8,61.2c0,30.6-1.5,39.3-2.9,42.3
			c-1.5,1.5-1.5,2.9-4.4,2.9c-1.5,0-2.9,0-5.8,0c0-1.5,0-4.4-1.5-5.8c1.5,0,2.9,0,4.4,0s1.5,0,1.5-1.5c1.5-1.5,1.5-10.2,1.5-36.4
			h-4.4c-1.5,17.5-2.9,32.1-10.2,43.7c0-1.5-2.9-2.9-4.4-4.4c5.8-8.7,8.7-23.3,8.7-39.3h-4.4v-4.4h4.4c0-4.4,0-10.2,0-16h5.8
			c0,5.8,0,10.2,0,16h8.7v2.9H1359.8z M1375.8,75.8v8.7h7.3v5.8h-7.3v17.5h-5.8V90.3h-7.3v-5.8h7.3v-8.7h-8.7v-4.4h11.7
			c1.5-4.4,2.9-8.7,2.9-13.1h5.8c-1.5,4.4-1.5,8.7-2.9,11.7h5.8v5.8C1384.5,75.8,1375.8,75.8,1375.8,75.8z M1383.1,56.8h-20.4v-4.4
			h7.3c-1.5-2.9-1.5-4.4-2.9-7.3l5.8-1.5c1.5,2.9,2.9,5.8,4.4,8.7h7.3v4.4H1383.1z M1367,69.9c0-2.9-1.5-7.3-1.5-11.7h2.9
			c1.5,2.9,2.9,8.7,2.9,11.7H1367z"/>
		<path class="st0" d="M1444.3,97.6h-7.3c5.8,2.9,13.1,4.4,17.5,5.8l-5.8,4.4c-4.4-1.5-13.1-4.4-20.4-5.8l2.9-2.9h-14.6l2.9,1.5
			c-5.8,2.9-14.6,5.8-23.3,7.3c-1.5-1.5-2.9-2.9-4.4-4.4c5.8-1.5,13.1-2.9,18.9-4.4h-7.3V81.6c-2.9,1.5-5.8,2.9-8.7,4.4
			c-1.5-1.5-2.9-4.4-4.4-4.4c5.8-1.5,11.7-4.4,16-8.7h-14.6v-4.4h17.5v-2.9h-8.7v-2.9h8.7v-2.9h-10.2v-2.9h10.2v-2.9h5.8v2.9h14.6
			v-2.9h5.8v2.9h10.2v4.4h-10.2v2.9h8.7V67h-8.7v2.9h17.5v2.9h-13.1c4.4,2.9,10.2,5.8,16,7.3c-1.5,1.5-2.9,2.9-4.4,4.4
			c-2.9-1.5-5.8-2.9-8.7-4.4v17.5H1444.3z M1400.6,58.3h-5.8V46.6h27.7c0-1.5-1.5-2.9-1.5-2.9l5.8-1.5c1.5,1.5,1.5,2.9,2.9,4.4h26.2
			v11.7h-5.8v-5.8H1402v5.8H1400.6z M1438.4,80.1h-27.7V83h27.7V80.1z M1438.4,86h-27.7v2.9h27.7V86z M1438.4,91.8h-27.7v2.9h27.7
			V91.8z M1416.6,72.8c-1.5,1.5-1.5,1.5-2.9,2.9h24.8c-1.5-1.5-1.5-1.5-2.9-2.9H1416.6z M1416.6,62.7h14.6v-2.9h-14.6V62.7z
			 M1416.6,68.5h14.6v-2.9h-14.6V68.5z"/>
	</g>
	<g id="矩形_32">
		<g>
			<rect x="625.4" y="36.4" class="st0" width="2.9" height="77.2"/>
		</g>
	</g>
	<g>
		<g>
			<g>
				<path class="st1" d="M585.4,108.5c0,7-5.7,12.7-12.7,12.7c-7,0-12.7-5.7-12.7-12.7c0-7,5.7-12.7,12.7-12.7
					C579.7,95.8,585.4,101.5,585.4,108.5z M572.7,93.7c-8.2,0-14.9,6.7-14.9,14.9s6.7,14.9,14.9,14.9c8.2,0,14.9-6.7,14.9-14.9
					S580.9,93.7,572.7,93.7z"/>
			</g>
			<g>
				<path class="st1" d="M566.1,117.2V99.8h7.7c1.6,0,2.7,0.2,3.5,0.5c0.8,0.3,1.4,0.9,1.9,1.7c0.5,0.8,0.7,1.7,0.7,2.6
					c0,1.2-0.4,2.3-1.2,3.1c-0.8,0.8-2,1.4-3.7,1.6c0.6,0.3,1.1,0.6,1.4,0.9c0.7,0.6,1.3,1.4,1.9,2.3l3,4.7h-2.9l-2.3-3.6
					c-0.7-1-1.2-1.8-1.7-2.4c-0.4-0.6-0.8-0.9-1.2-1.2c-0.3-0.2-0.7-0.4-1.1-0.5c-0.3-0.1-0.7-0.1-1.3-0.1h-2.7v7.7H566.1z
					 M568.4,107.5h4.9c1.1,0,1.9-0.1,2.5-0.3c0.6-0.2,1.1-0.6,1.4-1c0.3-0.5,0.5-1,0.5-1.6c0-0.8-0.3-1.5-0.9-2
					c-0.6-0.5-1.5-0.8-2.8-0.8h-5.5V107.5z"/>
			</g>
		</g>
		<g>
			<g>
				<g>
					<g>
						<path class="st2" d="M0.4,43.1l12.2-0.6c0.2,3.9,0.8,6.5,2,7.8c1.9,2.2,5.3,3.3,10.4,3.3c4.2,0,7.3-0.7,9.1-2.2
							c1.9-1.5,2.8-3.3,2.8-5.4c0-1.8-0.8-3.4-2.3-4.7c-1.1-0.9-4.1-2.4-8.9-4.5c-4.9-2.1-8.4-3.8-10.6-5.2c-2.2-1.4-4-3.2-5.3-5.5
							c-1.3-2.2-1.9-4.9-1.9-7.9c0-5.2,1.9-9.6,5.7-13C17.4,1.7,22.9,0,30.1,0c7.3,0,13,1.7,17,5.1c4,3.4,6.2,8,6.6,13.6l-12.2,0.5
							c-0.3-3-1.4-5.2-3.2-6.8c-1.9-1.6-4.6-2.4-8.2-2.4c-3.6,0-6.1,0.6-7.6,1.9c-1.5,1.2-2.3,2.8-2.3,4.7c0,1.8,0.7,3.3,2.1,4.4
							c1.4,1.2,4.5,2.8,9.2,4.9c7.2,3.1,11.7,5.6,13.7,7.5c2.9,2.8,4.4,6.5,4.4,10.9c0,5.5-2.2,10.2-6.5,14.1
							c-4.3,3.9-10.4,5.8-18.1,5.8c-5.3,0-10-0.9-13.9-2.7c-3.9-1.8-6.7-4.3-8.3-7.5C1,50.9,0.3,47.3,0.4,43.1z"/>
						<path class="st3" d="M65.3,18.1h11.4l-1.1,5.4c4.5-4.3,9.2-6.5,14.1-6.5c3.4,0,6,0.7,7.8,2.1c1.8,1.4,3,3.4,3.5,5.8
							c1.6-2.3,3.8-4.1,6.7-5.7c2.9-1.5,5.9-2.3,9.1-2.3c3.6,0,6.4,1,8.4,2.9s3,4.5,3,7.7c0,1.5-0.5,4.2-1.3,8l-5.8,27.4h-12
							l5.7-27.4c0.7-3.4,1.1-5.4,1.2-5.8c0-1.3-0.4-2.2-1.1-3c-0.8-0.7-1.9-1.1-3.4-1.1c-3.1,0-5.8,1.6-8.2,4.8
							c-1.7,2.3-3.2,6.3-4.5,12.2l-4.3,20.4h-12l5.7-27.2c0.6-3.1,1-5.2,1-6.1c0-1.2-0.4-2.2-1.2-2.9c-0.8-0.8-1.9-1.1-3.3-1.1
							c-1.3,0-2.7,0.4-4.1,1.2c-1.4,0.8-2.7,1.9-3.7,3.3c-1.1,1.4-2,3.2-2.7,5.3c-0.4,1-0.9,3.3-1.7,6.9L68,63.1h-12L65.3,18.1z"/>
						<path class="st3" d="M150.6,30.8l-11.8-1c1.3-4,3.7-7.1,7-9.4c3.3-2.2,7.8-3.4,13.3-3.4c5.7,0,10,1.2,12.7,3.5
							c2.7,2.3,4.1,5.2,4.1,8.5c0,1.4-0.1,2.8-0.4,4.3c-0.2,1.5-1.1,5.5-2.5,12c-1.2,5.4-1.8,9.1-1.8,11.3c0,1.9,0.3,4,1,6.4h-11.7
							c-0.6-1.6-0.9-3.3-1-5.1c-1.8,2-3.8,3.5-6.1,4.6c-2.3,1.1-4.6,1.6-7,1.6c-3.7,0-6.8-1.2-9.2-3.7c-2.4-2.4-3.6-5.6-3.6-9.4
							c0-4.3,1.3-7.7,4-10.3c2.7-2.6,7.4-4.1,14.3-4.7c5.8-0.5,9.6-1.1,11.6-1.7c0.5-1.7,0.8-3.1,0.8-4.1c0-1.3-0.5-2.4-1.5-3.3
							c-1-0.9-2.6-1.3-4.6-1.3c-2.1,0-3.8,0.4-5.1,1.3C151.9,28,151,29.2,150.6,30.8z M161.9,42.1c-0.7,0.2-1.7,0.4-2.9,0.6
							c-6.1,0.7-10,1.8-11.9,3.3c-1.3,1-2,2.4-2,4.2c0,1.4,0.5,2.6,1.5,3.6c1,1,2.4,1.5,4,1.5c1.8,0,3.6-0.4,5.2-1.3
							c1.6-0.9,2.8-2.1,3.6-3.5c0.8-1.4,1.5-3.6,2.1-6.6L161.9,42.1z"/>
						<path class="st3" d="M190.3,18.1h11.4l-1.8,8.7c4.2-6.5,8.8-9.7,13.7-9.7c1.7,0,3.6,0.4,5.6,1.3l-4.7,9.9
							c-1.1-0.4-2.3-0.6-3.5-0.6c-2.1,0-4.2,0.8-6.4,2.4c-2.2,1.6-3.9,3.7-5.1,6.3c-1.2,2.6-2.4,6.8-3.6,12.6l-2.9,14.1h-12
							L190.3,18.1z"/>
						<path class="st3" d="M218.2,27.2l1.8-9.1h6l1.5-7.1l13.9-8.4l-3.2,15.6h7.2l-1.8,9.1h-7.2l-4,19c-0.7,3.4-1.1,5.4-1.1,5.8
							c0,0.9,0.3,1.7,0.9,2.2c0.6,0.5,1.6,0.8,3.1,0.8c0.5,0,1.8-0.1,3.9-0.3l-1.9,9c-2.1,0.4-4.2,0.6-6.4,0.6
							c-4.3,0-7.3-0.8-9.3-2.5c-1.9-1.7-2.9-4-2.9-7c0-1.4,0.5-4.6,1.6-9.5l3.9-18.1H218.2z"/>
						<path class="st2" d="M257,63.1h-12.8l13-61.9h27.5c4.7,0,8.4,0.5,11.1,1.5c2.6,1,4.8,2.8,6.4,5.3c1.6,2.6,2.4,5.7,2.4,9.4
							c0,5.3-1.6,9.6-4.7,13c-3.2,3.4-7.9,5.5-14.3,6.4c1.6,1.5,3.2,3.4,4.6,5.8c2.8,4.8,6,11.7,9.5,20.5h-13.7
							c-1.1-3.5-3.2-8.9-6.4-16.4c-1.7-4-3.6-6.7-5.6-8.1c-1.2-0.8-3.3-1.2-6.3-1.2h-5.2L257,63.1z M264.4,28.1h6.8
							c6.8,0,11.4-0.4,13.6-1.2c2.2-0.8,4-2.1,5.3-3.8c1.3-1.7,1.9-3.6,1.9-5.5c0-2.2-0.9-3.9-2.7-5.1c-1.1-0.7-3.6-1-7.3-1h-14
							L264.4,28.1z"/>
						<path class="st3" d="M350.2,44.4h-30.4c0,0.5,0,0.8,0,1.1c0,3,0.9,5.4,2.6,7.3c1.7,1.8,3.8,2.8,6.2,2.8c4,0,7.2-2.1,9.4-6.2
							l10.9,1.8c-2.1,4.4-4.9,7.6-8.5,9.8c-3.5,2.2-7.5,3.3-11.9,3.3c-6,0-10.9-1.9-14.7-5.7c-3.8-3.8-5.7-8.9-5.7-15.2
							c0-6.2,1.7-11.6,5.1-16.5c4.6-6.5,11.3-9.8,19.9-9.8c5.5,0,9.8,1.7,13.1,5.1c3.2,3.4,4.9,8.2,4.9,14.3
							C351.1,39.5,350.8,42.1,350.2,44.4z M340.1,37.1c0-0.5,0-1,0-1.2c0-3.3-0.7-5.9-2.2-7.5c-1.5-1.7-3.5-2.5-6-2.5
							c-2.5,0-4.8,1-6.7,2.9c-2,1.9-3.3,4.7-4,8.4H340.1z"/>
						<path class="st3" d="M372,30.8l-11.8-1c1.3-4,3.7-7.1,7-9.4c3.4-2.2,7.8-3.4,13.3-3.4c5.7,0,10,1.2,12.7,3.5
							c2.7,2.3,4.1,5.2,4.1,8.5c0,1.4-0.1,2.8-0.4,4.3c-0.2,1.5-1.1,5.5-2.5,12c-1.2,5.4-1.8,9.1-1.8,11.3c0,1.9,0.3,4,1,6.4h-11.7
							c-0.6-1.6-0.9-3.3-1-5.1c-1.8,2-3.8,3.5-6.1,4.6c-2.3,1.1-4.6,1.6-7,1.6c-3.7,0-6.8-1.2-9.2-3.7c-2.4-2.4-3.6-5.6-3.6-9.4
							c0-4.3,1.3-7.7,4-10.3c2.7-2.6,7.4-4.1,14.3-4.7c5.8-0.5,9.6-1.1,11.6-1.7c0.5-1.7,0.8-3.1,0.8-4.1c0-1.3-0.5-2.4-1.5-3.3
							c-1-0.9-2.6-1.3-4.6-1.3c-2.1,0-3.8,0.4-5.1,1.3C373.3,28,372.5,29.2,372,30.8z M383.4,42.1c-0.7,0.2-1.7,0.4-2.9,0.6
							c-6.1,0.7-10,1.8-11.9,3.3c-1.3,1-2,2.4-2,4.2c0,1.4,0.5,2.6,1.5,3.6c1,1,2.4,1.5,4,1.5c1.8,0,3.6-0.4,5.2-1.3
							c1.6-0.9,2.8-2.1,3.6-3.5c0.8-1.4,1.5-3.6,2.1-6.6L383.4,42.1z"/>
						<path class="st3" d="M444.4,63.1h-11.5l1-4.8c-2.2,2.1-4.4,3.6-6.5,4.5c-2.1,0.9-4.5,1.4-7.2,1.4c-4.7,0-8.4-1.6-11.3-4.8
							c-2.9-3.2-4.3-7.9-4.3-14.1c0-7.2,2.1-13.7,6.2-19.6c4.1-5.8,9.6-8.7,16.4-8.7c6.1,0,10.7,2.4,13.8,7.3l5-23.2h12L444.4,63.1z
							 M416.3,44.9c0,3.2,0.8,5.7,2.5,7.5c1.6,1.8,3.7,2.7,6.1,2.7c2.2,0,4.3-0.8,6.2-2.3c1.9-1.5,3.5-3.8,4.6-6.9
							c1.2-3.1,1.7-6.1,1.7-8.9c0-3.2-0.9-5.9-2.7-7.9c-1.8-2-3.8-3-6.1-3c-3.6,0-6.6,2-8.9,5.9C417.5,36.1,416.3,40.3,416.3,44.9z"
							/>
						<path class="st3" d="M465.3,18.1h12l-9.4,45h-12L465.3,18.1z M468.8,1.2h12l-2.3,10.9h-12L468.8,1.2z"/>
						<path class="st3" d="M489.5,18.1H501l-1.2,5.9c2.9-2.5,5.6-4.3,8.2-5.4c2.5-1.1,5.2-1.6,8-1.6c3.7,0,6.7,1.1,8.9,3.2
							c2.2,2.1,3.2,5,3.2,8.5c-0.1,1.6-0.6,4.5-1.6,8.9L521,63.1h-12l5.5-25.4c0.8-3.8,1.2-6.1,1.3-6.8c0-1.6-0.5-2.8-1.4-3.7
							c-0.9-0.9-2.2-1.4-3.9-1.4c-1.8,0-3.8,0.7-6.1,2.2c-2.2,1.5-4,3.5-5.2,5.9c-1,1.8-2,5.3-3.2,10.7l-3.8,18.5h-12L489.5,18.1z"
							/>
						<path class="st3" d="M532.3,65.6l12.8,1.8c0,1.3,0.2,2.3,0.6,2.9c0.4,0.7,1.1,1.2,2,1.7c0.9,0.5,2.2,0.7,3.8,0.7
							c2.7,0,4.9-0.5,6.5-1.5c1.2-0.8,2.2-2.1,3-3.9c0.5-1.1,1.1-3.6,1.8-7.3l0.4-2.1c-4.4,3.5-9,5.2-13.6,5.2
							c-4.4,0-7.9-1.5-10.7-4.6c-2.8-3.1-4.2-7.6-4.2-13.6c0-5.3,1-10.1,2.9-14.5c1.9-4.4,4.6-7.7,8-10c3.4-2.2,7-3.4,10.5-3.4
							c2.9,0,5.6,0.8,8.1,2.4c2.4,1.6,4.4,3.8,5.7,6.6l1.7-7.9h11.4l-7.1,37.3c-1.3,6-2.4,10.4-3.3,13c-0.9,2.6-1.9,4.6-3.1,6.2
							c-1.1,1.5-2.6,2.8-4.3,3.9c-1.8,1-3.8,1.8-6.2,2.2c-2.4,0.5-5,0.7-7.8,0.7c-6.3,0-11-1.1-14.3-3.2c-3.2-2.2-4.8-5.8-4.8-10.8
							C532.2,66.8,532.3,66.2,532.3,65.6z M546.6,43.6c0,3.4,0.8,6,2.3,7.7c1.5,1.8,3.4,2.7,5.7,2.7c2.1,0,4.2-0.8,6.2-2.4
							c2-1.6,3.6-3.9,4.6-6.8c1.1-2.9,1.6-5.8,1.6-8.5c0-3.2-0.9-5.7-2.7-7.6c-1.8-1.9-3.8-2.9-6.1-2.9c-2.2,0-4.1,0.9-5.9,2.6
							c-1.8,1.7-3.3,4.3-4.5,7.9C547.1,39,546.6,41.4,546.6,43.6z"/>
					</g>
				</g>
			</g>
		</g>
		<g>
			<path class="st2" d="M4.7,122.8h10.5c0.6,0,0.9,0.2,0.9,0.7v15.1c0,1.3,0.3,2.4,0.7,3.1c0.3,0.7,0.8,1.2,1.4,1.5
				c0.9,0.5,1.9,0.9,3.1,1.1c1.5,0.2,3.3,0.3,5.2,0.3h12.4c4.8,0,10.5-0.5,17.1-1.6c0.3-0.2,0.6-0.2,0.9-0.2c0.3,0,0.5,0.1,0.5,0.2
				c-0.5,1.6-0.8,3.1-1.1,4.7c0,0.6-0.4,1-1,1H26.4c-1.4,0-2.8-0.1-4.1-0.3c-1.3-0.2-2.6-0.5-3.8-0.9c-1.1-0.4-2.1-1-3.1-1.7
				c-0.6-0.6-1.3-1.6-2.1-3.1l-0.2-0.2c-0.3,0-0.4,0-0.5,0.1c-3.9,2.9-6,4.8-6.3,5.8c-0.1,0.2-0.3,0.3-0.5,0.3c-0.3,0-1-1-2.2-2.9
				c-0.2-0.3-0.3-0.7-0.3-1.2c2.2-0.9,5-2.6,8.4-5c0.2-0.1,0.3-0.5,0.3-1.1v-12.1H4.7c-0.5,0-0.7-0.3-0.7-1v-1.8
				C4,123.1,4.3,122.8,4.7,122.8z M7.5,108.7c2.1,1.2,3.7,2.3,5,3.3c1.5,1.2,2.8,2.3,3.9,3.3c0,0.1-0.1,0.2-0.3,0.5
				c-1.1,1.6-1.7,2.5-1.8,2.5c-1.6-1.6-3.4-3-5.4-4.3c-1.5-1.1-2.8-1.8-3.8-2.2c0-0.3,0.6-1.1,1.8-2.6
				C7.2,108.8,7.3,108.7,7.5,108.7z M8.6,97.1c2,1,3.6,1.9,4.9,2.8c1.5,1,2.8,2,3.8,2.9c0,0.1-0.1,0.2-0.3,0.5
				c-1.1,1.6-1.7,2.5-1.8,2.5c-1.6-1.4-3.4-2.6-5.2-3.7c-1.5-0.9-2.7-1.6-3.7-1.9c0-0.2,0.6-1.1,1.8-2.6C8.3,97.2,8.4,97.1,8.6,97.1
				z M36.7,95.5c2.9,0,4.4,0.2,4.4,0.7c0,0.5-0.2,0.8-0.6,0.9c-0.4,0.1-0.6,0.5-0.6,1.2v2.7h15.5c0.3,0,0.5,0.2,0.5,0.7v1.8
				c0,0.5-0.2,0.7-0.5,0.7h-9.9l2,0.9c0.6,0.2,0.9,0.5,0.9,0.7c0,0.2-0.2,0.4-0.5,0.5c-0.3,0-0.6,0.2-0.6,0.5
				c-0.6,1.7-1.2,3.1-1.8,4.2h7.2c0.8,0,1.1,0.2,1.1,0.7v27c0,1.1-0.6,1.9-1.7,2.6c-1.1,0.5-2.5,0.8-4.2,0.9c-0.4,0-0.7-0.2-0.7-0.6
				c0-0.8-0.5-2.1-1.3-3.7c0-0.1,0.1-0.2,0.3-0.2c1.7,0,2.7-0.1,3-0.4c0.4-0.2,0.6-0.6,0.6-1.1v-22H39.2v4.3h8.2
				c0.3,0,0.5,0.2,0.5,0.7v1.8c0,0.5-0.2,0.7-0.5,0.7h-8.2v4.3h5.3c0.6,0,0.9,0.2,0.9,0.7v10c0,0.5-0.3,0.7-0.9,0.7H33v1.6
				c0,0.5-0.3,0.7-0.9,0.7h-2.3c-0.5,0-0.7-0.2-0.7-0.7v-12.3c0-0.5,0.2-0.7,0.7-0.7h5.2v-4.3H28c-0.3,0-0.5-0.2-0.5-0.7v-1.8
				c0-0.5,0.2-0.7,0.5-0.7h7.1v-4.3h-9.6v26.4c0,0.5-0.3,0.7-0.9,0.7h-2.3c-0.6,0-0.9-0.2-0.9-0.7v-28.9c0-0.5,0.3-0.7,0.9-0.7h8.3
				c-0.1-0.3-0.2-0.5-0.3-0.8c-0.6-1.4-1.4-2.8-2.5-4.2c0-0.2,1-0.8,3-1.8c1.1,1.5,1.9,2.9,2.5,4.2c0.5,0.9,0.9,1.7,1.2,2.6h6.4
				c0.8-1.1,1.3-2,1.7-2.9c0.7-1.3,1.2-2.6,1.5-3.9c0,0,0-0.1,0-0.1H20.5c-0.3,0-0.5-0.2-0.5-0.7v-1.8c0-0.5,0.1-0.7,0.5-0.7h15.3
				v-4.8C35.7,95.7,36.1,95.5,36.7,95.5z M33,134.3h8.4v-5H33V134.3z"/>
			<path class="st2" d="M69.1,106.4c2.9,0.6,4.3,1.1,4.3,1.4c0,0.4-0.2,0.7-0.7,0.9c-0.5,0.4-0.7,0.8-0.7,1.3
				c-0.4,4.1-0.9,7.5-1.4,10.2c-0.3,1.4-0.8,2.9-1.3,4.5c-0.2,0.3-0.3,0.5-0.4,0.5c-1.3-0.4-2.4-0.6-3.4-0.8
				c-0.3-0.1-0.5-0.3-0.5-0.6c0.8-1.9,1.5-4.1,2.1-6.4c0.6-2.3,1.1-5.7,1.4-10.1C68.5,106.7,68.7,106.4,69.1,106.4z M75,95.2
				c2.9,0,4.3,0.2,4.3,0.7c0,0.5-0.2,0.8-0.6,0.9c-0.4,0-0.6,0.4-0.6,1.2v50.3c0,0.4-0.3,0.6-0.9,0.6H75c-0.6,0-0.9-0.2-0.9-0.6
				V95.9C74.1,95.5,74.4,95.2,75,95.2z M82.6,106c0.3,0,0.6,0.1,0.7,0.2c1.1,2.7,2.1,5.5,3,8.5c0,0.5-0.1,0.8-0.4,0.9
				c-1.4,0.9-2.5,1.4-3.3,1.4c-0.9-3.7-1.7-6.8-2.5-9.2C80.1,107.4,80.9,106.8,82.6,106z M91.2,99.9l3.9,1.4
				c0.4,0.3,0.6,0.6,0.6,0.9c0,0.3-0.1,0.5-0.5,0.6c-0.3,0-0.5,0.2-0.6,0.7c-0.3,1.8-0.7,3.4-1,4.7h7.5V96.1c0-0.5,0.3-0.7,0.9-0.7
				c2.9,0,4.3,0.2,4.3,0.7c0,0.5-0.2,0.8-0.6,0.9c-0.4,0.1-0.6,0.5-0.6,1.2v10h12.8c0.5,0,0.7,0.3,0.7,0.9v1.8c0,0.6-0.2,1-0.7,1
				h-12.8v13.4h11.4c0.5,0,0.7,0.3,0.7,1v1.8c0,0.6-0.2,1-0.7,1h-11.4v14.1h14.4c0.5,0,0.7,0.3,0.7,0.9v1.9c0,0.6-0.2,0.9-0.7,0.9
				H86.2c-0.5,0-0.7-0.3-0.7-0.9v-1.9c0-0.6,0.2-0.9,0.7-0.9h15.1v-14.1H90.1c-0.5,0-0.7-0.3-0.7-1v-1.8c0-0.6,0.2-1,0.7-1h11.2V112
				h-8.4c-0.5,1.8-1.1,3.5-1.8,5.1c-0.6,1.6-1.4,2.9-2.1,4.2c-0.5,0-0.9-0.1-1.3-0.2c-0.8-0.3-1.5-0.6-2.2-0.9
				c-0.3-0.1-0.4-0.2-0.4-0.3c0-0.2,0.1-0.3,0.2-0.5c1.1-1.9,2.1-4.2,3-6.9c0.5-1.6,1-3.2,1.4-5c0.5-1.9,0.9-4.3,1.3-7.2
				C91,100,91.1,99.9,91.2,99.9z"/>
			<path class="st2" d="M132.4,96.4h19.2c0.6,0,0.9,0.2,0.9,0.7v16.4c0,0.5-0.3,0.7-0.9,0.7h-16v33.7c0,0.5-0.3,0.7-0.9,0.7h-2.3
				c-0.6,0-0.9-0.2-0.9-0.7V97.1C131.5,96.6,131.8,96.4,132.4,96.4z M135.6,103.7h13.2v-4h-13.2V103.7z M135.6,111h13.2v-4.1h-13.2
				V111z M146.3,117.6l3.5,1.5c0.6,0.2,0.9,0.5,0.9,0.8c0,0.2-0.3,0.3-0.8,0.4c-0.7,0-1.2,0.1-1.3,0.4c-1.1,1.1-2.2,2.1-3.2,2.9
				h20.3c-0.4-0.3-0.7-0.5-1-0.8c-1-0.8-1.7-1.8-2.1-2.9c-0.1-0.1-0.1-0.2-0.2-0.3H154c-0.5,0-0.7-0.3-0.7-1v-1.8
				c0-0.5,0.2-0.7,0.7-0.7h10.5c0.6,0,0.9,0.2,0.9,0.7c0,0.9,0.2,1.7,0.7,2.4c0.4,0.7,1,1.3,1.7,1.8c0.7,0.5,1.6,0.9,2.9,1.3
				c0.9,0.3,1.8,0.5,2.9,0.7c0.3,0,0.4,0.1,0.4,0.2c0,0.1-0.2,0.2-0.5,0.4c-0.6,0.6-1.3,1.3-1.9,2c-0.3,0.2-0.6,0.3-1.1,0.3
				c-0.8-0.2-1.7-0.5-2.7-1c-0.3-0.2-0.7-0.3-1-0.5v10.6c0,0.5-0.3,0.7-0.9,0.7h-5v4.6c0,1.5,0.9,2.3,2.7,2.3h2.3
				c0.3,0,0.6-0.2,0.7-0.5c0.2-0.3,0.2-1.2,0.3-2.7c0-0.2,0.1-0.3,0.1-0.3c1,0.6,2.1,0.9,3.2,0.9c0.5,0,0.7,0.2,0.7,0.6
				c-0.3,2.3-0.7,3.9-1.3,4.6c-0.3,0.6-0.9,0.9-1.7,0.9h-6.2c-3,0-4.6-1.2-4.6-3.5v-6.8h-4.1c0,1.1-0.1,2-0.2,2.9
				c-0.2,1.1-0.5,2.1-1,3c-0.4,0.9-1.1,1.7-2,2.5c-0.9,0.8-2.1,1.4-3.5,2c-1.1,0.4-2.4,0.7-3.8,1c-0.3,0-0.6-0.2-0.6-0.6
				c-0.5-0.7-1-1.4-1.5-2.2c-0.1-0.2-0.2-0.4-0.2-0.6c1.9-0.3,3.4-0.6,4.6-1c0.9-0.3,1.6-0.7,2.2-1.2c0.6-0.4,1-0.9,1.3-1.4
				c0.4-0.6,0.7-1.3,0.9-2.2c0.1-0.5,0.2-1.3,0.2-2.3h-4.3c-0.6,0-0.9-0.2-0.9-0.7v-10.6c-0.5,0.3-1,0.6-1.4,0.9
				c-0.5,0.2-0.9,0.3-1.1,0.3c-0.3,0-0.6-0.1-1-0.3c-0.8-0.3-1.5-0.7-2.2-1c-0.3-0.1-0.5-0.2-0.5-0.2c0-0.1,0.1-0.2,0.3-0.3
				c1.8-1,3.2-1.9,4.2-2.7c1.3-0.9,2.3-1.9,3-3C145.8,117.7,146,117.6,146.3,117.6z M162.7,132.2v-5.3h-14.4v5.3H162.7z M159.5,96.4
				h19.4c0.8,0,1.1,0.2,1.1,0.7V143c0,1.9-0.7,3.4-2.1,4.5c-1.3,0.8-3.1,1.3-5.2,1.6c-0.4,0-0.6-0.2-0.7-0.6
				c-0.1-0.8-0.5-2.1-1.4-3.7c0-0.2,0.1-0.3,0.4-0.3c2.3,0,3.7-0.2,4.1-0.7c0.5-0.5,0.7-1.3,0.7-2.3v-27.2h-16.4
				c-0.6,0-0.9-0.2-0.9-0.7V97.1C158.6,96.6,158.9,96.4,159.5,96.4z M162.7,103.7h13.2v-4h-13.2V103.7z M162.7,111h13.2v-4.1h-13.2
				V111z"/>
			<path class="st2" d="M192.7,105h17.6c0.5,0,0.7,0.3,0.7,0.9v1.8c0,0.6-0.2,0.9-0.7,0.9h-17.6c-0.5,0-0.7-0.3-0.7-0.9V106
				C192,105.4,192.2,105,192.7,105z M194.2,130.4h14.4c0.6,0,0.9,0.2,0.9,0.7v15.7c0,0.5-0.3,0.7-0.9,0.7h-2.3
				c-0.5,0-0.7-0.2-0.7-0.7V145h-8.2v2.7c0,0.5-0.3,0.7-0.9,0.7h-2.3c-0.5,0-0.7-0.2-0.7-0.7v-16.7
				C193.6,130.6,193.8,130.4,194.2,130.4z M195.4,96.6h12.8c0.5,0,0.7,0.3,0.7,1v1.8c0,0.6-0.2,0.9-0.7,0.9h-12.8
				c-0.5,0-0.7-0.3-0.7-0.9v-1.8C194.7,96.9,194.9,96.6,195.4,96.6z M195.4,113.3h12.8c0.5,0,0.7,0.3,0.7,1v1.8c0,0.7-0.2,1-0.7,1
				h-12.8c-0.5,0-0.7-0.3-0.7-1v-1.8C194.7,113.6,194.9,113.3,195.4,113.3z M195.4,121.5h12.8c0.5,0,0.7,0.3,0.7,0.9v1.9
				c0,0.6-0.2,0.9-0.7,0.9h-12.8c-0.5,0-0.7-0.3-0.7-0.9v-1.9C194.7,121.8,194.9,121.5,195.4,121.5z M197.4,141.4h8.2v-7.5h-8.2
				V141.4z M215.9,124.4h25.3c0.6,0,0.9,0.2,0.9,0.7v17.1c0,0.5-0.3,0.7-0.9,0.7h-5.4c1.1,0.7,2.1,1.3,3.1,1.7
				c1.2,0.5,2.9,1.1,5.2,1.8c0.3,0.2,0.5,0.3,0.5,0.4c0,0.3-0.8,1.2-2.3,2.7c-0.1,0-0.3,0-0.6-0.1c-4.4-1.7-7.7-3.3-9.8-4.8
				c-0.2-0.2-0.3-0.3-0.3-0.3c0-0.2,0.4-0.6,1.2-1.4h-8.6c1.4,1.2,2.1,1.9,2.1,2.1c0,0.3-0.2,0.4-0.6,0.4c-0.7,0-1.1,0.1-1.2,0.3
				c-3,1.8-6.2,3.2-9.6,4.3c-0.4,0-0.7-0.2-0.9-0.5c-0.2-0.5-0.6-0.9-1.2-1.4c-0.3-0.2-0.4-0.4-0.4-0.6c0-0.2,0.2-0.3,0.5-0.3
				c1.8-0.5,3.3-1.1,4.7-1.8c1.4-0.6,2.7-1.4,4-2.4h-5.7c-0.6,0-0.9-0.2-0.9-0.7v-17.1C215,124.7,215.3,124.4,215.9,124.4z
				 M213.4,99.1h13.2v-3c0-0.3,0.2-0.5,0.7-0.5c2.7,0,4.1,0.2,4.1,0.7c0,0.5-0.2,0.8-0.5,0.8c-0.3,0-0.5,0.4-0.5,1v0.9h13.2
				c0.3,0,0.5,0.2,0.5,0.7v1.3c0,0.6-0.2,1-0.5,1h-13.2v2.5h10.7c0.3,0,0.5,0.2,0.5,0.6v1.4c0,0.6-0.2,0.9-0.5,0.9h-25.6
				c-0.3,0-0.5-0.3-0.5-0.9v-1.4c0-0.4,0.1-0.6,0.5-0.6h11v-2.5h-13.2c-0.3,0-0.5-0.3-0.5-1v-1.3C213,99.4,213.1,99.1,213.4,99.1z
				 M213.9,110.1h29.4c0.6,0,0.9,0.2,0.9,0.7v10.8c0,0.4-0.3,0.6-0.9,0.6h-29.4c-0.6,0-0.9-0.2-0.9-0.6v-10.8
				C213,110.3,213.3,110.1,213.9,110.1z M221.6,119.6v-7.1h-5v7.1H221.6z M218.9,129.9h19.4v-2.7h-19.4V129.9z M218.9,135.2h19.4
				v-2.7h-19.4V135.2z M238.3,140.2v-2.5h-19.4v2.5H238.3z M231,119.6v-7.1h-5.5v7.1H231z M240.6,119.6v-7.1h-5.7v7.1H240.6z"/>
		</g>
	</g>
</g>
</svg>
