<?xml version="1.0" encoding="utf-8"?>
<!-- Generator: Adobe Illustrator 17.0.0, SVG Export Plug-In . SVG Version: 6.00 Build 0)  -->
<!DOCTYPE svg PUBLIC "-//W3C//DTD SVG 1.1//EN" "http://www.w3.org/Graphics/SVG/1.1/DTD/svg11.dtd">
<svg version="1.1" id="圖層_1" xmlns="http://www.w3.org/2000/svg" xmlns:xlink="http://www.w3.org/1999/xlink" x="0px" y="0px"
	 width="75px" height="75px" viewBox="0 0 75 75" enable-background="new 0 0 75 75" xml:space="preserve">
<g>
	<path fill="#1D284B" d="M59.702,75H6.895c-1.381,0-2.5-1.119-2.5-2.5v-70c0-1.381,1.119-2.5,2.5-2.5h61.211
		c1.381,0,2.5,1.119,2.5,2.5v55.438c0,1.381-1.119,2.5-2.5,2.5s-2.5-1.119-2.5-2.5V5H9.395v65h50.308c1.381,0,2.5,1.119,2.5,2.5
		S61.083,75,59.702,75z"/>
	<g>
		<path fill="#1D284B" d="M57.911,19.597H17.09c-1.381,0-2.5-1.119-2.5-2.5s1.119-2.5,2.5-2.5h40.821c1.381,0,2.5,1.119,2.5,2.5
			S59.292,19.597,57.911,19.597z"/>
		<path fill="#1D284B" d="M57.911,33.199H17.09c-1.381,0-2.5-1.119-2.5-2.5s1.119-2.5,2.5-2.5h40.821c1.381,0,2.5,1.119,2.5,2.5
			S59.292,33.199,57.911,33.199z"/>
		<path fill="#1D284B" d="M57.911,46.801H17.09c-1.381,0-2.5-1.119-2.5-2.5s1.119-2.5,2.5-2.5h40.821c1.381,0,2.5,1.119,2.5,2.5
			S59.292,46.801,57.911,46.801z"/>
		<path fill="#1D284B" d="M42.421,60.403H17.09c-1.381,0-2.5-1.119-2.5-2.5s1.119-2.5,2.5-2.5h25.331c1.381,0,2.5,1.119,2.5,2.5
			S43.802,60.403,42.421,60.403z"/>
	</g>
</g>
<path fill="#1D284B" d="M72.313,72.541c-0.414,0-0.833-0.103-1.22-0.319L1.464,7.14C0.26,6.466-0.17,4.942,0.504,3.737
	C1.18,2.532,2.703,2.104,3.907,2.778l69.63,65.082c1.204,0.674,1.634,2.198,0.96,3.403C74.038,72.08,73.188,72.541,72.313,72.541z"
	/>
</svg>
