<?xml version="1.0" encoding="utf-8"?>
<!-- Generator: Adobe Illustrator 26.5.2, SVG Export Plug-In . SVG Version: 6.00 Build 0)  -->
<svg version="1.1" id="圖層_1" xmlns="http://www.w3.org/2000/svg" xmlns:xlink="http://www.w3.org/1999/xlink" x="0px" y="0px"
	 viewBox="0 0 75 75" style="enable-background:new 0 0 75 75;" xml:space="preserve">
<style type="text/css">
	.st0{fill:#808080;}
</style>
<g>
	<path class="st0" d="M38.4,20.1c-1.7,0-3-1.3-3-3c-0.1-1.4-3-7.2-6.3-12.4c-0.9-1.4-0.5-3.3,0.9-4.2c1.4-0.9,3.3-0.5,4.2,0.9
		c2.2,3.4,7.2,11.8,7.2,15.7C41.5,18.7,40.1,20.1,38.4,20.1z"/>
	<path class="st0" d="M71.5,20.1H3.5c-1.7,0-3-1.3-3-3s1.3-3,3-3h68.1c1.7,0,3,1.3,3,3S73.2,20.1,71.5,20.1z"/>
	<path class="st0" d="M3.5,75c-1.3,0-2.5-0.8-2.9-2.1c-0.5-1.6,0.4-3.3,2-3.7c46.2-13.9,50-50.7,50.2-52.3c0.1-1.7,1.6-2.9,3.3-2.7
		c1.7,0.1,2.9,1.6,2.7,3.2c0,0.4-4.1,42.5-54.4,57.6C4,75,3.7,75,3.5,75z"/>
	<path class="st0" d="M70,75c-0.3,0-0.5,0-0.8-0.1C31.3,64.4,16.7,26.1,16.1,24.5c-0.6-1.6,0.2-3.3,1.8-3.9c1.6-0.6,3.3,0.2,3.9,1.8
		c0.1,0.4,14.2,37.1,49.1,46.7c1.6,0.4,2.5,2.1,2.1,3.7C72.6,74.1,71.4,75,70,75z"/>
</g>
</svg>
