<?xml version="1.0" encoding="utf-8"?>
<!-- Generator: Adobe Illustrator 17.0.0, SVG Export Plug-In . SVG Version: 6.00 Build 0)  -->
<!DOCTYPE svg PUBLIC "-//W3C//DTD SVG 1.1//EN" "http://www.w3.org/Graphics/SVG/1.1/DTD/svg11.dtd">
<svg version="1.1" id="圖層_1" xmlns="http://www.w3.org/2000/svg" xmlns:xlink="http://www.w3.org/1999/xlink" x="0px" y="0px"
	 width="75px" height="75px" viewBox="0 0 75 75" enable-background="new 0 0 75 75" xml:space="preserve">
<g>
	<path fill="#20294E" d="M27.26,52c-0.465,0-0.928-0.129-1.334-0.385C25.2,51.156,24.76,50.358,24.76,49.5v-24
		c0-0.855,0.437-1.651,1.158-2.109c0.722-0.46,1.629-0.518,2.402-0.155l25.378,11.886c0.875,0.41,1.436,1.288,1.439,2.255
		s-0.551,1.849-1.423,2.266L28.337,51.756C27.995,51.919,27.627,52,27.26,52z M29.76,29.431v16.105l17.029-8.129L29.76,29.431z"/>
	<path fill="#1E284B" d="M37.5,73.654C16.822,73.654,0,57.435,0,37.5S16.822,1.346,37.5,1.346S75,17.565,75,37.5
		c0,7.551-2.39,14.784-6.911,20.919c-0.819,1.112-2.385,1.348-3.496,0.529s-1.349-2.384-0.529-3.496
		C67.947,50.183,70,43.975,70,37.5C70,20.322,55.421,6.346,37.5,6.346S5,20.322,5,37.5s14.579,31.154,32.5,31.154
		c4.609,0,9.062-0.906,13.236-2.692c1.268-0.543,2.738,0.045,3.281,1.314c0.544,1.27-0.045,2.739-1.314,3.282
		C47.905,72.612,42.79,73.654,37.5,73.654z"/>
</g>
</svg>
