<?xml version="1.0" encoding="utf-8"?>
<!-- Generator: Adobe Illustrator 16.0.0, SVG Export Plug-In . SVG Version: 6.00 Build 0)  -->
<!DOCTYPE svg PUBLIC "-//W3C//DTD SVG 1.1//EN" "http://www.w3.org/Graphics/SVG/1.1/DTD/svg11.dtd">
<svg version="1.1" id="圖層_1" xmlns="http://www.w3.org/2000/svg" xmlns:xlink="http://www.w3.org/1999/xlink" x="0px" y="0px"
	 width="75px" height="75px" viewBox="0 0 75 75" enable-background="new 0 0 75 75" xml:space="preserve">
<g>
	<g>
		<g>
			<path fill="#1E284B" d="M64.647,97.243c0,0-18.175-16.676-37.249-3.173c0,0-8.401,9.045-4.339,16.159
				c0,0-0.748,3.141-1.946,4.039l-5.536,6.884c0,0-1.345,2.652,1.347,3.72l4.938,2.116c0,0-1.75,2.543-4.292,3.293
				c0,0-1.347,1.045,0.15,1.944l5.041,1.197l-5.479,3.646c0,0,3.291,0.388,5.609,1.057c0,0-3.349,8.467,2.562,11.016
				c0,0,11.058,0.638,10.154,8.779h21.218c0,0-4.84-8.709,2.842-22.156C59.666,135.764,72.945,104.783,64.647,97.243z"/>
			<g>
				<path fill="#1E284B" d="M12.348,143.766c-0.595,0-1.187-0.238-1.622-0.711c-5.688-6.14-2.439-12.417,0.074-14.881
					c0.873-0.853,2.272-0.84,3.127,0.033c0.851,0.87,0.84,2.263-0.023,3.118c-0.696,0.701-3.94,4.401,0.066,8.729
					c0.83,0.895,0.776,2.294-0.12,3.124C13.424,143.572,12.886,143.766,12.348,143.766z"/>
				<path fill="#1E284B" d="M6.288,147.207c-0.56,0-1.122-0.212-1.552-0.636c-8.326-8.216-3.717-18.237-0.118-22.39
					c0.8-0.923,2.198-1.021,3.12-0.223c0.92,0.8,1.021,2.193,0.226,3.114c-0.322,0.374-7.557,9.012-0.123,16.349
					c0.871,0.858,0.878,2.257,0.021,3.126C7.429,146.987,6.86,147.207,6.288,147.207z"/>
				<path fill="#1E284B" d="M0.387,151.897c-0.612,0-1.22-0.252-1.656-0.745c-14.277-16.139-0.063-30.883,0.083-31.031
					c0.858-0.87,2.257-0.876,3.125-0.019c0.869,0.855,0.877,2.252,0.023,3.12c-0.49,0.503-11.418,12,0.08,25.001
					c0.81,0.913,0.723,2.314-0.191,3.119C1.431,151.715,0.908,151.897,0.387,151.897z"/>
			</g>
		</g>
		<path fill="#1E284B" d="M24.632,97.827c0,0,4.386-11.08,22.425-9.911c0,0,19.053,2.872,20.132,15.007"/>
	</g>
	<path fill="#1E284B" d="M17.282,137.068c0,0-0.391-0.428,0.188-0.725l5.291-2.921"/>
</g>
<image overflow="visible" width="512" height="512" xlink:href="../../../../../Downloads/4951869.png"  transform="matrix(-0.1465 0 0 0.1465 -25.0225 4.1011)">
</image>
<g>
	<path fill="#1E284B" d="M97.486,0.001L82.617,16.827c0,0-2.609,4.435,2.869,6.783c0,0,10.564,2.87,7.174,10.043
		c0,0-5.479,6.253-0.131,9.126l2.479,1.901l-2.087,3.189c0,0-1.565,2.349,1.304,2.739c0,0,8.87,2.87,4.826,12.783
		c0,0-1.956,9.286,6,11.348c0,0,4.044,1.565,14.349-3c0,0,2.087-1.472,1.956-5.301V6.392c0,0,1.014-6.391-6.405-6.391H97.486z"/>
</g>
<g>
	<g>
		<path fill="#1E284B" d="M180.274,80.409c-0.671,0-1.338-0.269-1.828-0.803c-6.414-6.923-2.751-14.003,0.083-16.781
			c0.982-0.962,2.562-0.947,3.525,0.036c0.959,0.982,0.947,2.553-0.025,3.518c-0.785,0.791-4.444,4.963,0.074,9.844
			c0.937,1.01,0.875,2.586-0.134,3.523C181.488,80.191,180.881,80.409,180.274,80.409z"/>
		<path fill="#1E284B" d="M173.441,84.289c-0.632,0-1.266-0.238-1.75-0.717c-9.391-9.264-4.192-20.566-0.135-25.249
			c0.903-1.04,2.48-1.152,3.52-0.251c1.037,0.901,1.152,2.473,0.254,3.511c-0.361,0.423-8.522,10.163-0.138,18.438
			c0.981,0.969,0.989,2.544,0.022,3.525C174.729,84.043,174.085,84.289,173.441,84.289z"/>
		<path fill="#1E284B" d="M166.785,89.579c-0.69,0-1.376-0.284-1.867-0.84c-16.101-18.2-0.07-34.828,0.094-34.996
			c0.968-0.98,2.545-0.987,3.525-0.021c0.979,0.965,0.988,2.539,0.026,3.519c-0.554,0.567-12.878,13.534,0.089,28.194
			c0.912,1.031,0.816,2.611-0.215,3.517C167.963,89.373,167.373,89.579,166.785,89.579z"/>
	</g>
	<circle fill="#1E284B" cx="205.875" cy="69.405" r="18.035"/>
	<path fill="#1E284B" d="M179,117.129c0-14.842,12.033-26.873,26.875-26.873c14.843,0,26.875,12.031,26.875,26.873"/>
</g>
<g>
	<g>
		<circle fill="#1E284B" cx="38.273" cy="21.053" r="2.79"/>
	</g>
	<g>
		<path fill="#1E284B" d="M22.319,37.653l-0.821,2.701c0,0,7.911,0,10.496,0c0,2.477,0,9.067,0,9.067s12.481,0,15.723,0
			c-0.468,2.615-2.699,7.413-12.678,9.579l-1.65,0.362v1.687c0,1.747,0.206,7.625,2.794,9.934l-0.216-0.225
			c0.116,0.142,2.909,3.421,8.524,4.221L44.637,75h18.284v-4.187c0,0-17.507,0-17.923,0c-3.883-0.583-5.751-2.663-5.829-2.75
			l-0.09-0.1l-0.114-0.107c-0.662-0.593-1.149-2.976-1.315-5.271c13.08-3.539,14.369-11.809,14.369-14.631
			c0-0.584-0.05-0.935-0.053-0.954l-0.28-1.764c0,0-12.355,0-15.506,0c0-2.479,0-9.07,0-9.07s-6.184,0-9.038,0
			c1.318-4.335,7.087-23.342,7.087-23.342l-4.004-1.212L22.319,37.653z"/>
	</g>
	<g>
		<path fill="#231815" d="M57.284,15.854c-0.004-0.004-0.025-0.027-0.031-0.035c-0.062-0.062-0.119-0.133-0.185-0.193L57.284,15.854
			z"/>
	</g>
	<g>
		<path fill="#1E284B" d="M60.954,11.826c-0.316-0.063-0.608-0.146-0.943-0.193l-0.147-0.021H30.328v4.186c0,0,28.758,0,29.174,0
			c0.736,0.109,1.376,0.284,1.969,0.478C61.574,14.793,61.309,13.31,60.954,11.826z"/>
	</g>
	<g>
		<path fill="#1C2749" d="M24.373,66.326c-0.634,0-1.268-0.239-1.755-0.72c-3.681-3.63-5.362-7.378-4.996-11.142
			c0.525-5.396,5.174-8.53,5.372-8.661c1.151-0.764,2.703-0.447,3.464,0.706c0.759,1.147,0.448,2.691-0.694,3.456
			c-0.078,0.054-2.898,2.03-3.169,5.017c-0.198,2.181,0.991,4.557,3.534,7.063c0.983,0.97,0.994,2.553,0.025,3.535
			C25.664,66.077,25.019,66.326,24.373,66.326z"/>
		<path fill="#1C2749" d="M17.595,69.783c-0.634,0-1.268-0.239-1.755-0.72C10.805,64.1,8.501,59.02,8.993,53.965
			c0.703-7.229,6.957-11.443,7.223-11.619c1.152-0.764,2.703-0.446,3.464,0.706c0.76,1.148,0.447,2.695-0.698,3.459
			c-0.091,0.063-4.569,3.156-5.016,7.976c-0.322,3.471,1.489,7.177,5.384,11.017c0.983,0.97,0.995,2.552,0.025,3.535
			C18.886,69.534,18.24,69.783,17.595,69.783z"/>
		<path fill="#1C2749" d="M11.202,75c-0.634,0-1.268-0.239-1.755-0.72c-7.077-6.976-10.32-14.063-9.64-21.067
			c0.972-9.996,9.646-15.842,10.015-16.086c1.151-0.764,2.703-0.446,3.464,0.706c0.761,1.149,0.447,2.697-0.7,3.46
			c-0.098,0.066-7.091,4.848-7.807,12.443c-0.51,5.418,2.241,11.132,8.177,16.983c0.983,0.969,0.995,2.552,0.025,3.535
			C12.493,74.751,11.847,75,11.202,75z"/>
	</g>
	<g>
		<polygon fill="#1E284B" points="28.641,16.005 20.503,1.011 72.702,0 72.78,4.014 27.18,4.895 32.169,14.091 		"/>
	</g>
</g>
</svg>
