<?xml version="1.0" encoding="utf-8"?>
<!-- Generator: Adobe Illustrator 26.5.3, SVG Export Plug-In . SVG Version: 6.00 Build 0)  -->
<svg version="1.1" id="圖層_1" xmlns="http://www.w3.org/2000/svg" xmlns:xlink="http://www.w3.org/1999/xlink" x="0px" y="0px"
	 viewBox="0 0 75 75" style="enable-background:new 0 0 75 75;" xml:space="preserve">
<style type="text/css">
	.st0{fill:#808080;}
</style>
<g>
	<path class="st0" d="M10.5,37.3c0.6,0,1.1,0.2,1.5,0.7c0.7,0.8,0.6,2.1-0.2,2.8C6.6,45.3,4,50.1,4,55.1c0.1,9.1,8.6,16.3,8.7,16.3
		c0.8,0.7,1,2,0.3,2.8c-0.7,0.9-2,1-2.8,0.3C9.7,74.2,0.1,66.1,0,55.2c-0.1-6.3,3-12.1,9.2-17.4C9.6,37.5,10,37.3,10.5,37.3z"/>
	<path class="st0" d="M22.6,49.1c0.6,0,1.1,0.2,1.5,0.7c0.7,0.8,0.6,2.1-0.2,2.8c-1.3,1.1-1.9,2.1-1.9,3.2c0,1.7,1.5,3.4,2.1,3.9
		c0.8,0.7,1,2,0.3,2.8s-2,1-2.8,0.3c-0.4-0.3-3.6-3-3.6-6.9c0-2.3,1.1-4.5,3.3-6.3C21.7,49.2,22.2,49.1,22.6,49.1z"/>
	<path class="st0" d="M16.6,43c0.6,0,1.1,0.2,1.5,0.7c0.7,0.8,0.6,2.1-0.2,2.8c-3.3,2.8-5,5.8-4.9,9c0,5.7,5.5,10.3,5.5,10.4
		c0.8,0.7,1,2,0.3,2.8c-0.7,0.9-2,1-2.8,0.3c-0.3-0.2-6.9-5.8-7-13.4c0-4.4,2.1-8.4,6.3-12.1C15.7,43.1,16.1,43,16.6,43z"/>
</g>
<path class="st0" d="M58.4,74.9H42.9c-4.5,0-8-1.3-10.3-4c-3.6-4.2-2.9-10-2.8-10.2c0.1-1,1-1.7,2-1.7c8,0,11.2-6.3,12.4-9.9H30.8
	c-1.1,0-2-0.9-2-2v-7.4h-8.3c-0.6,0-1.2-0.3-1.6-0.8s-0.5-1.2-0.3-1.8L25,15.2L18.6,3.1c-0.3-0.6-0.3-1.4,0.1-2s1-1,1.7-1H73
	c1.1,0,2,0.9,2,2s-0.9,2-2,2H23.7l5.1,9.9c0.2,0.5,0.3,1,0.1,1.5l-5.8,20.1h7.7c1.1,0,2,0.9,2,2V45h14c0.6,0,1.1,0.3,1.5,0.7
	s0.5,1,0.5,1.6c-0.8,5.1-5,14.4-15,15.5c0.1,1.5,0.5,3.7,1.9,5.4c1.5,1.7,4,2.6,7.3,2.6h15.5c1.1,0,2,0.9,2,2S59.5,74.9,58.4,74.9z"
	/>
<g>
	<circle class="st0" cx="41.2" cy="21.2" r="2.8"/>
</g>
</svg>
