<?xml version="1.0" encoding="utf-8"?>
<!-- Generator: Adobe Illustrator 17.0.0, SVG Export Plug-In . SVG Version: 6.00 Build 0)  -->
<!DOCTYPE svg PUBLIC "-//W3C//DTD SVG 1.1//EN" "http://www.w3.org/Graphics/SVG/1.1/DTD/svg11.dtd">
<svg version="1.1" id="圖層_1" xmlns="http://www.w3.org/2000/svg" xmlns:xlink="http://www.w3.org/1999/xlink" x="0px" y="0px"
	 width="75px" height="75px" viewBox="0 0 75 75" enable-background="new 0 0 75 75" xml:space="preserve">
<g>
	<path fill="#1D284B" d="M59.702,75H6.895c-1.381,0-2.5-1.119-2.5-2.5v-70c0-1.381,1.119-2.5,2.5-2.5h61.211
		c1.381,0,2.5,1.119,2.5,2.5v55.438c0,1.381-1.119,2.5-2.5,2.5s-2.5-1.119-2.5-2.5V5H9.395v65h50.308c1.381,0,2.5,1.119,2.5,2.5
		S61.083,75,59.702,75z"/>
	<g>
		<path fill="#1D284B" d="M57.911,19.597H17.09c-1.381,0-2.5-1.119-2.5-2.5s1.119-2.5,2.5-2.5h40.821c1.381,0,2.5,1.119,2.5,2.5
			S59.292,19.597,57.911,19.597z"/>
		<path fill="#1D284B" d="M57.911,33.199H17.09c-1.381,0-2.5-1.119-2.5-2.5s1.119-2.5,2.5-2.5h40.821c1.381,0,2.5,1.119,2.5,2.5
			S59.292,33.199,57.911,33.199z"/>
		<path fill="#1D284B" d="M57.911,46.801H17.09c-1.381,0-2.5-1.119-2.5-2.5s1.119-2.5,2.5-2.5h40.821c1.381,0,2.5,1.119,2.5,2.5
			S59.292,46.801,57.911,46.801z"/>
		<path fill="#1D284B" d="M42.421,60.403H17.09c-1.381,0-2.5-1.119-2.5-2.5s1.119-2.5,2.5-2.5h25.331c1.381,0,2.5,1.119,2.5,2.5
			S43.802,60.403,42.421,60.403z"/>
	</g>
</g>
</svg>
