<?xml version="1.0" encoding="UTF-8"?>
<svg xmlns="http://www.w3.org/2000/svg" version="1.1" viewBox="0 0 300 129.3">
  <defs>
    <style>
      .cls-1 {
        fill: #595757;
      }

      .cls-2 {
        fill: #dfc44a;
      }

      .cls-3 {
        fill: #008360;
      }

      .cls-4 {
        fill: #fff;
      }

      .cls-5 {
        fill: #b2cf58;
      }

      .cls-6 {
        fill: #129b3b;
      }

      .cls-7 {
        mix-blend-mode: screen;
        opacity: .2;
      }

      .cls-8 {
        isolation: isolate;
      }

      .cls-9 {
        fill: #4e9c54;
      }
    </style>
  </defs>
  <!-- Generator: Adobe Illustrator 28.7.10, SVG Export Plug-In . SVG Version: 1.2.0 Build 236)  -->
  <g class="cls-8">
    <g id="_圖層_1" data-name="圖層_1">
      <g>
        <g>
          <path class="cls-4" d="M136.2,90.1h-5v-4.9h4c.2,0,.2-.1.2-.3v-.6c0-.2,0-.3-.2-.3h-4v-4.7h4.4c.2,0,.2-.1.2-.3v-.6c0-.2,0-.3-.2-.3h-4.4v-3.5c0-.3,0-.4.2-.4.1,0,.2-.1.2-.3s-.5-.2-1.5-.2-.3,0-.3.2v4.2h-2.6c.1-.5.2-1,.4-1.6,0-.2,0-.3.2-.3.1,0,.2-.1.2-.2s0-.2-.2-.3l-1.4-.5s0,0,0,.2c-.1,1-.3,1.9-.4,2.5-.1.6-.3,1.2-.5,1.7-.3,1-.7,1.8-1.1,2.4,0,0,0,0,0,.2s0,0,.1.1c.3,0,.5.2.8.3.1,0,.3,0,.4,0,.3-.4.5-.9.7-1.4.2-.6.4-1.2.6-1.8h2.9v4.7h-3.9c-.2,0-.2.1-.2.3v.6c0,.2,0,.3.2.3h3.9v4.9h-5.2c-.2,0-.2.1-.2.3v.7c0,.2,0,.3.2.3h11.7c.2,0,.2-.1.2-.3v-.7c0-.2,0-.3-.2-.3ZM118.4,77.6c-.1,1.5-.3,2.7-.5,3.5-.2.8-.4,1.6-.7,2.2,0,.1,0,.2.2.2.3,0,.7.1,1.2.3,0,0,0,0,.1-.2.2-.5.3-1,.5-1.5.2-.9.4-2.1.5-3.5,0-.2.1-.3.3-.5.2,0,.2-.2.2-.3s-.5-.3-1.5-.5c-.1,0-.2,0-.2.3ZM124.6,80.2c-.3-1-.6-2-1-3,0,0-.1,0-.2,0-.6.3-.9.5-.9.6.3.8.6,1.9.9,3.2.3,0,.7-.2,1.1-.5,0,0,.1-.1.1-.3ZM120.7,73.4c-.2,0-.3,0-.3.2v18.2c0,.1.1.2.3.2h.8c.2,0,.3,0,.3-.2v-17.5c0-.3,0-.4.2-.4.1,0,.2-.1.2-.3s-.5-.2-1.5-.2ZM172.6,49.8l-1.4,6.2c-.4,1.7-.6,2.8-.6,3.3,0,1,.3,1.8,1,2.4.7.6,1.8.9,3.2.9s1.5,0,2.2-.2l.6-3.1c-.7,0-1.2.1-1.4.1-.5,0-.9,0-1.1-.3-.2-.2-.3-.4-.3-.8s.1-.8.4-2l1.4-6.5h2.5l.6-3.2h-2.5l1.1-5.4-4.8,2.9-.5,2.5h-2.1l-.6,3.2h2.1ZM108.4,74.5c0-.3,0-.4.2-.4.1,0,.2-.1.2-.3s-.5-.2-1.5-.2-.3,0-.3.2v1.7h-5.3c-.1,0-.2,0-.2.2v.6c0,.2,0,.2.2.2h8.2c-.1.5-.3.9-.5,1.4-.1.3-.3.6-.6,1h-2.2c-.1-.3-.3-.6-.4-.9-.2-.4-.5-.9-.9-1.5-.7.3-1,.6-1,.6.4.5.7,1,.9,1.5,0,0,0,.2.1.3h-2.9c-.2,0-.3,0-.3.3v10.1c0,.2.1.3.3.3h.8c.2,0,.3,0,.3-.3v-9.2h3.3v1.5h-2.5c-.1,0-.2,0-.2.3v.6c0,.2,0,.3.2.3h2.5v1.5h-1.8c-.2,0-.2,0-.2.3v4.3c0,.2,0,.2.2.2h.8c.2,0,.3,0,.3-.2v-.6h4c.2,0,.3,0,.3-.2v-3.5c0-.2-.1-.3-.3-.3h-1.8v-1.5h2.9c.1,0,.2,0,.2-.3v-.6c0-.2,0-.3-.2-.3h-2.9v-1.5h3.6v7.6c0,.2,0,.3-.2.4,0,0-.4.1-1,.1s-.1,0-.1,0c.3.6.4,1,.5,1.3,0,.1.1.2.3.2.6,0,1.1-.2,1.5-.3.4-.2.6-.5.6-.9v-9.4c0-.2-.1-.3-.4-.3h-2.5c.2-.4.4-.9.6-1.5,0-.1,0-.2.2-.2.1,0,.2-.1.2-.2s0-.2-.3-.3l-.7-.3h3.4c.1,0,.2,0,.2-.2v-.6c0-.2,0-.2-.2-.2h-5.4v-1ZM109,85.3v1.7h-2.9v-1.7h2.9ZM76.7,16.7l-9.9-1.8-.3-5.6-10.1-.4-.3-7S28.3,18.3,11.2,26.1l-9.1,1.7v10.9c-.2.3-.2.6-.2,1v79.1c0,4.8,3.8,8.7,8.6,8.7h67.9c4.7,0,8.6-3.9,8.6-8.7V24.2l-10.1-3-.2-4.5ZM145.5,62.6c.8,0,1.6-.2,2.4-.6.8-.4,1.5-.9,2.1-1.6,0,.6.2,1.2.4,1.8h4c-.2-.8-.3-1.6-.3-2.2s.2-2.1.6-3.9c.5-2.3.8-3.7.9-4.2,0-.5.1-1,.1-1.5,0-1.2-.5-2.2-1.4-3-1-.8-2.4-1.2-4.4-1.2s-3.4.4-4.6,1.2c-1.2.8-2,1.9-2.4,3.3l4.1.3c.2-.6.4-1,.9-1.3.4-.3,1-.5,1.7-.5s1.2.2,1.6.5c.4.3.5.7.5,1.1s0,.8-.3,1.4c-.7.2-2,.4-4,.6-2.4.2-4,.7-4.9,1.6-.9.9-1.4,2.1-1.4,3.6s.4,2.4,1.3,3.3c.8.9,1.9,1.3,3.2,1.3ZM145.7,56.2c.6-.5,2-.9,4.1-1.1.4,0,.8-.1,1-.2v.6c-.3,1-.6,1.8-.9,2.3-.3.5-.7.9-1.2,1.2-.6.3-1.2.5-1.8.5s-1-.2-1.4-.5c-.3-.3-.5-.8-.5-1.3s.2-1.1.7-1.4ZM98.4,61.7c1.4.6,3,.9,4.8.9,2.7,0,4.8-.7,6.3-2,1.5-1.3,2.3-3,2.3-4.9s-.5-2.8-1.5-3.8c-.7-.7-2.3-1.5-4.8-2.6-1.7-.7-2.7-1.3-3.2-1.7-.5-.4-.7-.9-.7-1.5s.3-1.2.8-1.6c.5-.4,1.4-.6,2.6-.6s2.2.3,2.8.8c.6.6,1,1.3,1.1,2.4l4.3-.2c-.1-2-.9-3.5-2.3-4.7-1.4-1.2-3.4-1.8-5.9-1.8s-4.4.6-5.7,1.8c-1.3,1.2-2,2.7-2,4.5s.2,1.9.7,2.7c.4.8,1.1,1.4,1.8,1.9.8.5,2,1.1,3.7,1.8,1.7.7,2.7,1.3,3.1,1.6.5.4.8,1,.8,1.6s-.3,1.4-1,1.9c-.7.5-1.7.8-3.2.8s-3-.4-3.6-1.2c-.4-.5-.6-1.4-.7-2.7l-4.2.2c0,1.4.2,2.7.8,3.8.6,1.1,1.5,2,2.9,2.6ZM179.2,78.6h-10.2c-.2,0-.3,0-.3.2v3.7c0,.1.1.2.3.2h10.2c.2,0,.3,0,.3-.2v-3.7c0-.2-.1-.2-.3-.2ZM171.7,81.9h-1.7v-2.5h1.7v2.5ZM174.9,81.9h-1.9v-2.5h1.9v2.5ZM178.2,81.9h-2v-2.5h2v2.5ZM179.5,75c0-.2,0-.3-.2-.3h-4.6v-.3c0-.2,0-.3.2-.4.1,0,.2-.1.2-.3s-.5-.2-1.4-.2-.2,0-.2.2v1h-4.6c-.1,0-.2,0-.2.3v.5c0,.2,0,.3.2.3h4.6v.9h-3.8c-.1,0-.2,0-.2.2v.5c0,.2,0,.3.2.3h8.9c.1,0,.2-.1.2-.3v-.5c0-.1,0-.2-.2-.2h-3.7v-.9h4.6c.1,0,.2-.1.2-.3v-.5ZM100.6,76.1c-.4-.3-.8-.6-1.3-1-.4-.3-1-.6-1.7-1,0,0-.1,0-.2.1-.4.5-.6.8-.6.9.3.1.8.3,1.3.7.6.4,1.2.8,1.8,1.3,0,0,.2-.3.6-.9,0,0,.1-.1.1-.2ZM97.2,78.1s0,0-.2.1c-.4.5-.6.8-.6.9.3.1.8.4,1.3.8.7.5,1.3,1,1.9,1.5,0,0,.2-.3.6-.9,0,0,0-.2,0-.2-.4-.4-.8-.7-1.3-1.1-.4-.4-1-.7-1.7-1.2ZM114,90.1c-2.3.4-4.3.6-5.9.6h-4.3c-.7,0-1.3,0-1.8-.1-.4,0-.8-.2-1.1-.4-.2-.1-.4-.3-.5-.5-.1-.3-.2-.6-.2-1.1v-5.3c0-.2-.1-.2-.3-.2h-3.7c-.2,0-.2.1-.2.3v.6c0,.2,0,.3.2.3h2.5v4.2c0,.2,0,.3,0,.4-1.2.8-2.1,1.4-2.9,1.7,0,.2,0,.3.1.4.4.7.7,1,.8,1s.1,0,.2-.1c.1-.3.9-1,2.2-2,0,0,0,0,.2,0h0c.3.6.5.9.7,1.2.3.2.7.4,1.1.6.4.1.9.3,1.3.3.5,0,.9.1,1.4.1h10c.2,0,.3-.1.3-.3,0-.6.2-1.1.4-1.6,0,0,0,0-.2,0s-.2,0-.3,0ZM294.8,77.2c0,0-.2-.2-.4-.3.5,0,.9-.2,1.1-.5.2-.3.4-.6.4-.9s0-.6-.2-.8c-.1-.2-.3-.4-.6-.5-.2,0-.6-.1-1.1-.1h-2.3v5.3h.7v-2.3h.8c.2,0,.3,0,.4,0,.1,0,.2,0,.3.1.1,0,.2.2.4.4.1.2.3.4.5.7l.7,1.1h.9l-.9-1.4c-.2-.3-.4-.5-.6-.7ZM293.8,76.4h-1.5v-1.8h1.7c.4,0,.7,0,.9.2.2.2.3.4.3.6s0,.3-.1.5c0,.1-.2.3-.4.3-.2,0-.4,0-.7,0ZM226.9,46.3c-1.9,0-3.4.4-4.6,1.2-1.2.8-2,1.9-2.4,3.3l4.1.3c.2-.6.4-1,.9-1.3.4-.3,1-.5,1.7-.5s1.2.2,1.6.5c.4.3.5.7.5,1.1s0,.8-.3,1.4c-.7.2-2,.4-4,.6-2.4.2-4,.7-4.9,1.6-.9.9-1.4,2.1-1.4,3.6s.4,2.4,1.3,3.3c.8.9,1.9,1.3,3.2,1.3s1.6-.2,2.4-.6c.8-.4,1.5-.9,2.1-1.6,0,.6.2,1.2.4,1.8h4c-.2-.8-.3-1.6-.3-2.2s.2-2.1.6-3.9c.5-2.3.8-3.7.9-4.2,0-.5.1-1,.1-1.5,0-1.2-.5-2.2-1.4-3-1-.8-2.4-1.2-4.4-1.2ZM227.7,55.5c-.2,1-.5,1.8-.7,2.3-.3.5-.7.9-1.3,1.2-.6.3-1.1.5-1.8.5s-1-.2-1.4-.5c-.3-.3-.5-.8-.5-1.3s.2-1.1.7-1.4c.6-.5,2-.9,4.1-1.1.4,0,.7-.1,1-.2v.6ZM249.7,40.7l-1.8,8.1c-1.1-1.7-2.7-2.6-4.8-2.6s-4.3,1-5.7,3c-1.4,2-2.2,4.3-2.2,6.8s.5,3.8,1.5,4.9c1,1.1,2.3,1.7,4,1.7s1.8-.2,2.5-.5,1.5-.9,2.3-1.6l-.4,1.7h4l4.7-21.5h-4.2ZM246.1,56.3c-.4,1.1-.9,1.9-1.6,2.4-.7.5-1.4.8-2.2.8s-1.5-.3-2.1-.9c-.6-.6-.9-1.5-.9-2.6,0-1.6.4-3.1,1.2-4.4.8-1.4,1.8-2,3.1-2s1.5.3,2.1,1c.6.7.9,1.6.9,2.7s-.2,2-.6,3.1ZM210.4,46.3c-3,0-5.3,1.1-6.9,3.4-1.2,1.7-1.8,3.6-1.8,5.7s.7,4,2,5.3c1.3,1.3,3,2,5.1,2s2.9-.4,4.1-1.1c1.2-.8,2.2-1.9,2.9-3.4l-3.8-.6c-.8,1.5-1.9,2.2-3.3,2.2s-1.6-.3-2.2-.9c-.6-.6-.9-1.5-.9-2.5s0-.2,0-.4h10.5c.2-.8.3-1.7.3-2.8,0-2.1-.6-3.8-1.7-5-1.1-1.2-2.6-1.8-4.5-1.8ZM212.8,53.2h-6.5c.2-1.3.7-2.3,1.4-2.9.7-.7,1.5-1,2.3-1s1.6.3,2.1.9c.5.6.8,1.5.8,2.6s0,.2,0,.4ZM197.5,41.2c-.9-.3-2.2-.5-3.9-.5h-9.6l-4.5,21.5h4.5l1.9-8.9h1.8c1.1,0,1.8.1,2.2.4.7.5,1.3,1.4,1.9,2.8,1.1,2.6,1.9,4.5,2.3,5.7h4.8c-1.2-3.1-2.3-5.5-3.3-7.1-.5-.8-1-1.5-1.6-2,2.2-.3,3.9-1,5-2.2,1.1-1.2,1.6-2.7,1.6-4.5s-.3-2.4-.8-3.3c-.6-.9-1.3-1.5-2.2-1.9ZM195.5,48.3c-.4.6-1.1,1-1.8,1.3-.8.3-2.4.4-4.8.4h-2.4l1.2-5.7h4.9c1.3,0,2.2.1,2.6.4.6.4,1,1,1,1.7s-.2,1.3-.7,1.9ZM253.1,62.3h4.2l3.3-15.6h-4.2l-3.3,15.6ZM293.6,72.2c-2.5,0-4.5,2-4.5,4.5s2,4.5,4.5,4.5,4.5-2,4.5-4.5-2-4.5-4.5-4.5ZM293.6,80.6c-2.1,0-3.9-1.7-3.9-3.9s1.7-3.9,3.9-3.9,3.9,1.7,3.9,3.9-1.7,3.9-3.9,3.9ZM292.7,66.2c.4-.5.8-1.2,1.1-2.2.3-.9.7-2.4,1.1-4.5l2.5-13h-4l-.6,2.7c-.5-1-1.1-1.7-2-2.3-.9-.5-1.8-.8-2.8-.8s-2.5.4-3.7,1.2c-1.2.8-2.1,1.9-2.8,3.5-.7,1.5-1,3.2-1,5s.5,3.6,1.5,4.7c1,1.1,2.2,1.6,3.7,1.6s3.2-.6,4.8-1.8l-.2.7c-.3,1.3-.5,2.1-.6,2.5-.3.6-.6,1.1-1.1,1.3-.6.4-1.3.5-2.3.5s-1,0-1.3-.2-.5-.4-.7-.6c-.1-.2-.2-.6-.2-1l-4.5-.6c0,.2,0,.4,0,.6,0,1.8.6,3,1.7,3.8,1.1.8,2.8,1.1,4.9,1.1s1.9,0,2.7-.2c.8-.2,1.6-.4,2.2-.8.6-.4,1.1-.8,1.5-1.3ZM289.7,58.2c-.7.6-1.4.8-2.2.8s-1.5-.3-2-.9c-.5-.6-.8-1.5-.8-2.7s.2-1.6.5-2.6c.4-1.2.9-2.1,1.5-2.7.6-.6,1.3-.9,2.1-.9s1.5.3,2.2,1c.6.7.9,1.6.9,2.6s-.2,1.9-.6,3c-.4,1-.9,1.8-1.6,2.4ZM177.7,90.6c-.3-.2-.7-.4-1.1-.6h1.9c.2,0,.3,0,.3-.2v-6c0-.2-.1-.2-.3-.2h-8.8c-.2,0-.3,0-.3.2v6c0,.2.1.2.3.2h2c-.4.3-.9.6-1.4.8-.5.2-1,.4-1.6.6-.1,0-.2,0-.2.1s0,.1.1.2c.2.2.3.3.4.5,0,.1.2.2.3.2,1.2-.4,2.3-.9,3.3-1.5,0,0,.2,0,.4,0s.2,0,.2-.1-.2-.3-.7-.7h3c-.3.2-.4.4-.4.5s0,0,.1.1c.7.5,1.9,1.1,3.4,1.7,0,0,.2,0,.2,0,.5-.5.8-.8.8-1s0,0-.2-.1c-.8-.2-1.4-.4-1.8-.6ZM170.7,84.6h6.7v1h-6.7v-1ZM170.7,86.4h6.7v1h-6.7v-1ZM170.7,89.1v-.9h6.7v.9h-6.7ZM135.2,46.3c-1.1,0-2.1.3-3.2.8-1,.5-1.8,1.2-2.3,2-.2-.9-.6-1.5-1.2-2-.6-.5-1.6-.7-2.7-.7-1.7,0-3.4.8-4.9,2.3l.4-1.9h-4l-3.3,15.6h4.2l1.5-7.2c.3-1.2.5-2,.6-2.4.3-.8.6-1.4,1-1.9.4-.5.8-.9,1.3-1.1.5-.3,1-.4,1.4-.4s.9.1,1.2.4c.3.3.4.6.4,1s-.1,1-.3,2.1l-2,9.4h4.2l1.5-7.1c.4-2,.9-3.4,1.6-4.2.8-1.1,1.8-1.7,2.9-1.7s.9.1,1.2.4c.3.3.4.6.4,1,0,.2-.2.8-.4,2l-2,9.5h4.2l2.1-9.5c.3-1.3.5-2.2.5-2.8,0-1.1-.3-2-1-2.7-.7-.7-1.7-1-2.9-1ZM274.1,46.3c-1,0-1.9.2-2.8.6-.9.4-1.8,1-2.8,1.9l.4-2.1h-4l-3.3,15.6h4.2l1.3-6.4c.4-1.9.8-3.1,1.1-3.7.4-.9,1-1.5,1.8-2.1.8-.5,1.5-.8,2.1-.8s1,.2,1.4.5c.3.3.5.7.5,1.3,0,.3-.2,1.1-.4,2.4l-1.9,8.8h4.2l1.9-8.8c.3-1.5.5-2.6.5-3.1,0-1.2-.4-2.2-1.1-3-.7-.7-1.8-1.1-3.1-1.1ZM257.7,40.7l-.8,3.8h4.2l.8-3.8h-4.2ZM162.6,57.4c.4-2,.8-3.4,1.3-4.4.4-.9,1-1.6,1.8-2.2.8-.5,1.5-.8,2.2-.8s.8,0,1.2.2l1.6-3.5c-.7-.3-1.3-.5-1.9-.5-1.7,0-3.3,1.1-4.8,3.4l.7-3h-4l-3.3,15.6h4.2l1-4.9ZM156.8,73.8h-6.7c-.2,0-.3,0-.3.3v5.7c0,.2.1.3.3.3h5.7v9.5c0,.4,0,.6-.3.8-.1.2-.6.2-1.4.2s-.1,0-.1.1c.3.6.4,1,.5,1.3,0,.1,0,.2.2.2.7,0,1.3-.3,1.8-.6.5-.4.7-.9.7-1.6v-16c0-.2-.1-.3-.4-.3ZM155.8,78.9h-4.6v-1.4h4.6v1.4ZM155.8,76.4h-4.6v-1.4h4.6v1.4ZM153.8,88.9c-.4,0-.8-.1-1.1-.3,0,0,0,0,0,.1,0,.5,0,.8,0,1,0,.1-.2.2-.3.2h-.8c-.6,0-1-.3-1-.8v-1.6h1.7c.2,0,.3,0,.3-.2v-3.7c.1,0,.2.1.3.2.4.2.7.3.9.3.2,0,.3,0,.4-.1.2-.2.4-.5.7-.7.1,0,.2-.1.2-.1s0,0-.1,0c-.4,0-.7-.1-1-.2-.4-.1-.8-.3-1-.5-.3-.2-.4-.4-.6-.6-.2-.2-.2-.5-.2-.8s-.1-.3-.3-.3h-3.7c-.2,0-.2,0-.2.3v.6c0,.2,0,.3.2.3h2.9s0,0,0,.1c.2.4.4.7.7,1,0,0,.2.2.3.3h-7c.4-.3.7-.6,1.1-1,0,0,.2-.1.5-.1.2,0,.3,0,.3-.1,0-.1,0-.2-.3-.3l-1.2-.5c0,0-.2,0-.2.2-.2.4-.6.7-1.1,1-.3.3-.8.6-1.4.9,0,0-.1,0-.1.1s0,0,.2,0c.2.1.5.2.8.3.1,0,.2.1.3.1s.2,0,.4-.1c.2,0,.3-.2.5-.3v3.7c0,.2.1.2.3.2h1.5c0,.3,0,.6,0,.8,0,.3-.2.5-.3.8-.1.2-.3.4-.5.5-.2.2-.4.3-.8.4-.4.1-.9.2-1.6.3,0,0,0,.1,0,.2.2.3.3.5.5.8,0,.1,0,.2.2.2.5-.1.9-.2,1.3-.4.5-.2.9-.4,1.2-.7.3-.3.6-.6.7-.9.2-.3.3-.7.4-1.1,0-.3,0-.6,0-1h1.4v2.4c0,.8.5,1.2,1.6,1.2h2.1c.3,0,.5-.1.6-.3.2-.3.3-.8.4-1.6,0-.1,0-.2-.2-.2ZM146.2,86.3v-1.8h5v1.8h-5ZM147.6,79.8v-5.7c0-.2-.1-.3-.3-.3h-6.7c-.2,0-.3,0-.3.3v17.7c0,.2.1.3.3.3h.8c.2,0,.3,0,.3-.3v-11.7h5.6c.2,0,.3,0,.3-.3ZM146.3,78.9h-4.6v-1.4h4.6v1.4ZM146.3,76.4h-4.6v-1.4h4.6v1.4ZM162.3,83.5c0,.2,0,.3.2.3h4.4c.2,0,.2,0,.2-.3v-.7c0-.2,0-.3-.2-.3h-4.4c-.2,0-.2,0-.2.3v.7ZM167.7,76.9h-6.1c-.2,0-.2.1-.2.3v.6c0,.2,0,.3.2.3h6.1c.2,0,.2-.1.2-.3v-.6c0-.2,0-.3-.2-.3ZM162.5,81h4.4c.2,0,.2-.1.2-.3v-.6c0-.2,0-.3-.2-.3h-4.4c-.2,0-.2.1-.2.3v.6c0,.2,0,.3.2.3ZM162.5,73.9c-.2,0-.2.1-.2.3v.6c0,.2,0,.3.2.3h4.4c.2,0,.2-.1.2-.3v-.6c0-.2,0-.3-.2-.3h-4.4ZM167.1,85.7h-5c-.2,0-.2,0-.2.2v5.8c0,.2,0,.3.2.3h.8c.2,0,.3,0,.3-.3v-1h2.9v.6c0,.2,0,.2.2.2h.8c.2,0,.3,0,.3-.2v-5.5c0-.2-.1-.2-.3-.2ZM166.1,89.5h-2.9v-2.6h2.9v2.6Z"/>
          <path class="cls-4" d="M78.4,129.3H10.5C4.7,129.3,0,124.5,0,118.7V39.6c0-.4,0-.8,0-1.2v-10.7c.2-.9.8-1.7,1.7-1.8l8.9-1.7C27.4,16.6,54.9.4,55.2.3c.6-.3,1.3-.3,1.9,0,.6.3,1,.9,1,1.6l.2,5.3,8.4.3c1,0,1.8.8,1.8,1.8l.2,4.1,8.4,1.5c.9.2,1.5.9,1.5,1.8v3.1c.1,0,8.9,2.6,8.9,2.6.8.2,1.3,1,1.3,1.8v94.6c0,5.8-4.7,10.5-10.5,10.5ZM4,29.3v9.3c-.1.1-.1.2-.2.3,0,.2,0,.4,0,.7v79.1c0,3.7,3,6.8,6.7,6.8h67.9c3.7,0,6.7-3,6.7-6.8V25.6l-8.7-2.6c-.8-.2-1.3-.9-1.3-1.7v-3c-.1,0-8.6-1.5-8.6-1.5-.9-.2-1.5-.9-1.5-1.8l-.2-3.9-8.4-.3c-1,0-1.8-.8-1.8-1.8l-.2-3.9c-7.4,4.3-28.6,16.4-42.4,22.7-.1,0-.3.1-.4.1l-7.6,1.4ZM169.4,94.4c-.7,0-1.4-.3-1.8-.9-.1,0-.3,0-.4,0h-.8c-.6,0-1.2-.2-1.5-.6-.4.6-1.1,1-1.9,1h-.8c-1.2,0-2.1-.9-2.1-2.1v-5.8c0-.6.2-1.1.6-1.5-.1-.3-.2-.6-.2-.9v-.7c0-.4,0-.8.3-1.1-.2-.3-.3-.7-.3-1.1v-.6c0-.1,0-.2,0-.4-.6-.4-1-1.1-1-1.9v-.6c0-.8.4-1.5,1-1.9,0-.1,0-.3,0-.4v-.6c0-1.3.9-2.2,2.1-2.2h4.4c.7,0,1.3.3,1.7.9,0,0,0,0,.1,0h2.9c.3-.7,1.1-1.2,1.9-1.2s2.5,0,3.1,1.2h2.6c1.2,0,2,.9,2,2.1v.5c0,.8-.3,1.4-.7,1.7.5.4.7,1,.7,1.6v3.7c0,.6-.3,1.2-.7,1.6v5.6c.7.5.9,1.2.9,1.6,0,.9-.5,1.4-1.3,2.3-.4.4-.8.6-1.3.6s-.2,0-.5,0c-.1,0-.3,0-.4-.1-1.5-.6-2.7-1.2-3.6-1.7-.3.2-.6.4-1,.4-1.1.6-2.2,1.1-3.4,1.5-.2,0-.4,0-.6,0ZM169.2,93.3s0,0,0,0c0,0,0,0,0,0ZM154.7,94.1c-.8,0-1.5-.4-1.9-1.1h-1.9c-1.4,0-2.3-.5-2.8-1.2,0,0,0,0,0,0-.5.4-1.1.8-1.7,1-.6.2-1.1.3-1.7.5-.5.1-1,0-1.4-.2-.4.5-1,.8-1.8.8h-.8c-1.3,0-2.2-.9-2.2-2.1v-17.7c0-1.2.9-2.1,2.2-2.1h6.7c.5,0,1,.2,1.4.5.4-.3.9-.5,1.4-.5h6.7c1.5,0,2.3,1.1,2.3,2.1v16c0,1.3-.5,2.3-1.5,3.1,0,0-.1,0-.2.1-.7.4-1.5.7-2.5.8,0,0-.2,0-.2,0ZM121.5,94h-.8c-1.3,0-2.2-.9-2.2-2.1v-6.2c-.2,0-.3,0-.5,0-.4-.1-.7-.2-.9-.2-1.1-.3-1.8-1.1-1.8-2.1s0-.5.1-.7c.2-.6.5-1.2.6-2,.2-.7.3-1.8.4-3.2,0-1.1.9-2,2-2.1v-1.8c0-1.2.9-2.1,2.2-2.1s3.4,0,3.4,2.1-.1.9-.4,1.3v.3c.2,0,.4,0,.6.2,0-.2,0-.3,0-.5,0,0,0-.2,0-.2.3-1,1.5-1.8,2.6-1.5l1,.4c0-1.1,1-2,2.2-2s3.4,0,3.4,2.1-.1.9-.4,1.3v1h2.6c1.2,0,2.1.9,2.1,2.2v.6c0,1.3-.9,2.2-2.1,2.2h-2.6v.9h2.1c1.2,0,2.1,1,2.1,2.2v.6c0,1.3-.9,2.2-2.1,2.2h-2.1v1.1h3.1c1.2,0,2.1.9,2.1,2.2v.7c0,1.2-.9,2.2-2.1,2.2h-11.7c-.4,0-.8-.1-1.2-.3-.4.6-1.1,1.1-1.9,1.1ZM136.2,92h0,0ZM123.7,83.9v4.5c.3-.1.6-.2.9-.2h3.4v-1.1h-2c-1.2,0-2.1-1-2.1-2.2v-.6c0-.1,0-.2,0-.3,0,0,0,0-.1,0,0,0,0,0,0,0ZM127.9,82h0c0,0,0,0,0,0ZM118.4,77.6h0,0ZM131.3,72.2h0,0ZM131.3,72.2s0,0,0,0c0,0,0,0,0,0ZM121.8,72.1c0,0-.2,0-.3,0,0,0,.2,0,.3,0ZM113.7,94h-10c-.6,0-1.1,0-1.7-.1-.6,0-1.1-.2-1.6-.4-.6-.2-1.1-.5-1.5-.8,0,0,0,0-.1,0-.2.1-.3.2-.3.3,0,0,0,0,0,0-.4.7-1.1,1.1-1.8,1.1-1.2,0-1.8-.9-2.4-1.9-.3-.5-.4-.9-.4-1.4,0-.8.5-1.5,1.2-1.7.5-.2,1.1-.5,1.8-1v-1.7h-.7c-1.2,0-2.1-1-2.1-2.2v-.6c0-1.2.9-2.1,2-2.2-.2-.2-.4-.2-.5-.3-.7-.3-1.2-1-1.2-1.7s.4-1.3,1.1-2.1c0-.1.2-.2.3-.3-.6-.3-.9-.9-.9-1.6s.4-1.2,1-2c.6-.8,1.3-.9,1.7-.9s.6,0,.8.2c.8.4,1.4.8,1.9,1.1.1,0,.3.2.4.3.3-.2.6-.2,1-.2h3.4c.1-1.1,1-1.9,2.2-1.9s3.2,0,3.4,1.9h3.1c1.2,0,2,.9,2,2.1v.6c0,.8-.4,1.5-1,1.8.2.3.3.7.3,1v9.2c.7.3,1.2,1,1.2,1.8s0,.4,0,.5c-.1.4-.2.9-.3,1.4-.1,1.2-1,2-2.2,2ZM98.4,92.9h0ZM114.9,91.8s0,0,0,0c0,0,0,0,0,0ZM108.5,72.2h0,0ZM293.6,83.1c-3.5,0-6.4-2.9-6.4-6.4s2.9-6.4,6.4-6.4,6.4,2.9,6.4,6.4-2.9,6.4-6.4,6.4ZM286.3,70.5c-2.6,0-4.5-.5-6-1.5-1.1-.8-2.5-2.3-2.5-5.3s0-.6,0-.9c0-.5.3-.9.7-1.3.4-.3.9-.4,1.4-.4h0c-.7-1-1.1-2.3-1.3-3.8l-1.2,5.3c-.2.9-1,1.5-1.8,1.5h-4.2c-.6,0-1.1-.3-1.5-.7-.4-.4-.5-1-.4-1.6l1.9-8.8c.2-.9.3-1.5.4-1.9-.2,0-.5.1-1,.5-.5.3-.9.8-1.2,1.4-.1.2-.4.9-1,3.3l-1.3,6.4c-.2.9-.9,1.5-1.8,1.5h-4.2c-.6,0-1.1-.3-1.5-.7s-.5-1-.4-1.6l3.3-15.6c.2-.9,1-1.5,1.8-1.5h4c.5,0,.9.2,1.3.5.1,0,.3-.1.4-.2,1.1-.5,2.3-.7,3.5-.7,1.8,0,3.3.6,4.4,1.7,1,1,1.5,2.2,1.6,3.6.8-1.6,1.9-2.9,3.2-3.8,2.8-1.8,6-2,8.5-.4,0,0,0,0,0,0,.3-.5.9-.8,1.5-.8h4c.6,0,1.1.3,1.4.7.4.4.5,1,.4,1.6l-2.5,13c-.5,2.2-.9,3.8-1.2,4.8-.4,1.1-.8,2-1.3,2.7,0,0,0,0,0,0-.5.7-1.2,1.3-2.1,1.8-.8.5-1.7.8-2.8,1-1,.2-2,.3-3.1.3ZM281.9,65.3c.2.3.4.5.6.6.2.1.5.3.9.4-.2-.2-.3-.4-.5-.6,0-.1-.1-.2-.2-.3h-.8ZM292.7,66.2h0,0ZM291.7,58.9c.6.4.9,1.2.7,1.9l-.2.7c-.4,1.9-.6,2.5-.8,2.9-.2.4-.3.7-.5,1,0,0,.2-.2.3-.3.3-.4.5-.9.8-1.6.3-.8.6-2.3,1.1-4.3l2.1-10.7h-.2l-.3,1.3c-.1.7-.6,1.2-1.2,1.4.2.6.2,1.1.2,1.8,0,1.2-.2,2.4-.7,3.6-.3.9-.8,1.7-1.4,2.4ZM273.9,60.4h.3l1.6-7.3c.4-1.9.5-2.6.5-2.7,0-.9-.3-1.4-.6-1.6-.1-.1-.5-.5-1.3-.5.1,0,.2.2.3.2.5.5,1.1,1.3,1.1,2.7,0,.4-.1.9-.5,2.8l-1.4,6.6ZM263.9,60.4h.3l1-4.9c.6-2.8,1-3.8,1.3-4.2.2-.4.4-.8.7-1.1-.5-.4-.7-1-.7-1.6h-.2l-2.5,11.9ZM284.8,49.4c-.6.6-1.1,1.3-1.5,2.2-.6,1.3-.8,2.7-.8,4.3s.3,2.8,1,3.5c.5.5,1,.8,1.7,1-.4-.2-.8-.6-1.1-1-.8-1-1.2-2.3-1.2-3.9s.2-2,.6-3.1c.4-1.2.9-2.2,1.5-2.9ZM289.7,58.2h0,0ZM288.7,51.2c-.2,0-.4,0-.8.4-.3.3-.7.8-1.1,2-.2.8-.4,1.4-.4,2s.1,1.2.3,1.5c.5.6,1,.3,1.6-.2h0c.4-.3.8-.8,1-1.5.3-.8.4-1.6.4-2.3s-.2-1.2-.4-1.4c-.3-.4-.6-.4-.8-.4ZM240.7,64.5c-2.2,0-4-.8-5.3-2.3-1.1-1.2-1.8-3-2-5.1-.4,1.8-.4,2.6-.4,2.9,0,.5,0,1.1.3,1.7.2.6,0,1.2-.3,1.6s-.9.7-1.5.7h-4c-.5,0-1-.2-1.3-.5-.1,0-.3.1-.4.2-1,.5-2.1.7-3.2.7-1.8,0-3.3-.6-4.5-1.8-.6-.6-1.1-1.3-1.4-2.1-.7,1.1-1.6,1.9-2.7,2.6-1.5.9-3.2,1.4-5.1,1.4s-4.8-.9-6.4-2.6c-1.7-1.7-2.5-3.9-2.5-6.6s.1-2.1.4-3.1c-.8.9-1.8,1.5-3,2,1,1.8,2.2,4.2,3.4,7.3.2.6.2,1.2-.2,1.7-.4.5-.9.8-1.6.8h-4.8c-.8,0-1.5-.5-1.8-1.3-.4-1.2-1.1-3-2.2-5.5-.6-1.4-1.1-1.9-1.3-2,0,0-.2,0-1.1,0h-.3l-1.6,7.4c-.2.9-1,1.5-1.8,1.5h-4.5c-.4,0-.8-.1-1.1-.4-.2.2-.6.4-.9.5-.9.2-1.7.3-2.6.3-2,0-3.4-.4-4.5-1.3-1.1-.9-1.7-2.3-1.7-3.8s0-1.2.6-3.7l.9-3.9c-.5.3-1.1.4-1.7.2-.5-.2-1-.2-1.7.4-.5.4-.9.8-1.2,1.5-.2.5-.6,1.7-1.1,3.9l-1,4.9c-.2.9-1,1.5-1.8,1.5h-4.2c-.6,0-1.1-.3-1.5-.7,0,0,0,0,0,0,0,0,0,0,0,0-.4.5-.9.7-1.5.7h-4c-.5,0-1-.2-1.3-.5-.1,0-.3.1-.4.2-2.8,1.3-5.8.8-7.7-1.1-.9-.9-1.5-2.1-1.7-3.4l-.7,3.4c-.2.9-1,1.5-1.8,1.5h-4.2c-.6,0-1.1-.3-1.5-.7-.4-.4-.5-1-.4-1.6l2.2-10.6c-.3.1-.6.3-.9.8-.2.3-.7,1.2-1.2,3.5l-1.5,7.1c-.2.9-1,1.5-1.8,1.5h-4.2c-.6,0-1.1-.3-1.5-.7-.4-.4-.5-1-.4-1.6l2-9.4c.1-.5.2-.9.2-1.2,0,0-.1,0-.2,0-.3.1-.5.4-.7.6-.2.3-.5.8-.7,1.3,0,.1-.2.6-.5,2.2l-1.5,7.2c-.2.9-1,1.5-1.8,1.5h-4.2c-.6,0-1.1-.3-1.5-.7-.4-.4-.5-1-.4-1.6l.4-2.1c-.5.8-1.1,1.5-1.8,2.2-1.9,1.7-4.4,2.5-7.6,2.5s-4-.4-5.6-1.1c0,0,0,0,0,0-1.8-.8-3-2-3.8-3.5-.7-1.4-1-3-1-4.7,0-1,.8-1.8,1.8-1.8l4.2-.2c.2,0,.5,0,.7,0-.2-.1-.5-.3-.7-.4-1-.7-1.9-1.5-2.5-2.5-.6-1.1-.9-2.3-.9-3.7,0-2.4.9-4.3,2.6-5.9,1.7-1.5,4-2.3,7-2.3s5.4.7,7.1,2.2c1.8,1.5,2.8,3.5,3,6,0,.5-.1,1-.5,1.4-.3.4-.8.6-1.3.6l-4.3.2s0,0,0,0c1.5.8,2.2,1.3,2.5,1.7,1.2,1.1,1.9,2.6,2,4.3l1.8-8.7c.2-.9,1-1.5,1.8-1.5h4c.4,0,.8.1,1.2.4,1.1-.5,2.2-.8,3.4-.8s2.9.4,3.9,1.1c.2.2.4.3.5.5.3-.2.6-.4,1-.6,1.3-.7,2.6-1,4-1s3.2.5,4.2,1.5c1,1,1.6,2.4,1.6,4,.6-1.7,1.6-3,3.1-4,1.5-1,3.4-1.5,5.7-1.5s4.3.5,5.6,1.7c1.4,1.2,2.1,2.7,2.1,4.4s0,1.2-.1,1.8c0,.6-.4,2-.9,4.3-.5,2.3-.6,3.2-.6,3.5s0,0,0,0l2.9-13.9c.2-.9,1-1.5,1.8-1.5h4c.4,0,.9.2,1.2.4,1.5-.9,3.2-1,5-.4,0,0,.1,0,.2,0h.6l.2-1c.1-.5.4-1,.9-1.2l4.8-2.9c.6-.4,1.4-.4,2.1,0,.6.4.9,1.2.8,1.9l-.7,3.2h.2c.5,0,.9.2,1.3.5l1-4.9c.2-.9,1-1.5,1.8-1.5h9.6c1.9,0,3.4.2,4.5.6,1.3.5,2.4,1.4,3.2,2.6.8,1.2,1.1,2.6,1.1,4.3s0,1.2-.2,1.8c2-2.5,4.7-3.8,8.1-3.8s4.4.8,5.9,2.4c.8.9,1.4,1.9,1.8,3.2.6-1.7,1.7-3.1,3.1-4,1.5-1,3.4-1.5,5.7-1.5s4.3.5,5.6,1.7c1.4,1.2,2.1,2.7,2.1,4.4.4-.8.8-1.5,1.3-2.2,1.8-2.5,4.3-3.8,7.2-3.8s2.6.3,3.7.9l1.1-4.9c.2-.9,1-1.5,1.8-1.5h4.2c.6,0,1.1.3,1.5.7.3.3.4.7.4,1.2v-.4c.3-.9,1-1.5,1.9-1.5h4.2c.6,0,1.1.3,1.5.7.4.4.5,1,.4,1.6l-.8,3.8c0,.4-.3.7-.6,1,.2.4.2.7.1,1.1l-3.3,15.6c-.2.9-1,1.5-1.8,1.5h-4.2c-.6,0-1.1-.3-1.5-.7s-.5-1-.4-1.6l3.3-15.6c0-.4.3-.7.6-1-.1-.3-.2-.6-.1-.9l-4,18.3c-.2.9-1,1.5-1.8,1.5h-4c-.4,0-.7-.1-1-.3,0,0,0,0-.1,0-1,.4-2.1.6-3.3.6ZM173.8,48.4c0,0,.2.1.2.2.4.4.5,1,.4,1.6l-1.4,6.2c-.5,2.3-.5,2.8-.5,2.9,0,.6.2.8.3,1,.1,0,.5.3,1.5.4-.1,0-.2-.1-.3-.2-.6-.5-.9-1.3-.9-2.2s0-.6.4-2.4l1.4-6.5c.1-.7.6-1.2,1.2-1.4,0,0-.1-.1-.2-.2-.4-.4-.5-1-.4-1.6l.2-1.2-.5.3-.3,1.7c-.1.7-.6,1.2-1.2,1.4ZM239.6,49.6c-.2.2-.5.5-.7.8-1.2,1.7-1.8,3.6-1.8,5.7s.3,2.9,1,3.6c.5.5,1.1.9,1.8,1-.4-.2-.8-.5-1.1-.9-.9-1-1.4-2.3-1.4-3.9s.5-3.7,1.5-5.4c.2-.4.4-.7.7-1ZM143.5,56.1c-.3.4-.6,1-.6,1.9s.2,1.5.7,2c.3.3.7.5,1.1.6-.2-.1-.3-.2-.5-.4-.7-.7-1.1-1.6-1.1-2.6s.1-1.1.3-1.5ZM220.5,56.1c-.3.4-.6,1-.6,1.9s.2,1.5.7,2c.3.3.7.5,1.1.6-.2-.1-.3-.2-.5-.4-.7-.7-1.1-1.6-1.1-2.6s.1-1.1.3-1.5ZM99.2,60c.5.2,1,.4,1.6.5-1.1-.3-1.9-.8-2.6-1.5-.4-.5-.7-1.1-.9-2h-.5c0,.5.2.9.4,1.2.4.7,1,1.3,2,1.7h0ZM255.5,60.4h.3l2.5-11.9h-.3l-2.5,11.9ZM247.4,60.4h.2l3.9-17.8h-.3l-1.4,6.6c-.2.7-.8,1.3-1.5,1.5,0,0,0,0-.1,0,.3.7.5,1.6.5,2.5s-.2,2.5-.7,3.7c-.3.8-.7,1.6-1.2,2.2.4.3.6.8.7,1.3ZM229,60.4h.3c0-.1,0-.2,0-.3,0-.9.2-2.3.7-4.3.6-2.8.8-3.7.8-4.1,0-.4.1-.8.1-1.2,0-.6-.2-1.1-.8-1.5-.1,0-.2-.2-.3-.2.5.6.8,1.4.8,2.2s-.1,1.2-.3,1.9c-.1.4-.4.8-.8,1.1.3.4.4.9.3,1.4v.6c-.4,1.2-.7,2.2-1.1,2.8,0,.2-.2.3-.3.4.3.3.5.7.6,1.2,0,0,0,0,0,0ZM195.4,60.4h.6c-.8-1.8-1.5-3.2-2.1-4.3-.3-.4-.5-.8-.8-1.1.1.3.3.6.4.9.8,1.9,1.4,3.4,1.9,4.6ZM181.8,60.4h.6l1.6-7.4c.1-.7.7-1.2,1.3-1.4,0,0-.2-.2-.3-.3-.4-.4-.5-1-.4-1.6l1.2-5.7c.1-.6.6-1.1,1.1-1.4h-1.4l-3.7,17.8ZM159.8,60.4h.3l.7-3.4s0,0,0,0c.5-2.2.9-3.7,1.4-4.8.2-.4.4-.8.6-1.1-.5-.4-.8-1.1-.6-1.8l.2-.8h-.1l-2.5,11.9ZM151.9,60.4h.3c0-.1,0-.2,0-.3,0-.9.2-2.3.7-4.3.6-2.9.8-3.8.8-4.1,0-.4.1-.8.1-1.2,0-.6-.2-1.1-.8-1.5-.1,0-.2-.2-.3-.2.5.6.8,1.4.8,2.2s-.1,1.2-.3,1.9c-.1.4-.4.8-.8,1.1.3.4.4.9.3,1.4v.6c-.4,1.2-.7,2.2-1.1,2.8,0,.1-.2.3-.3.4.3.3.5.7.6,1.2,0,0,0,0,0,0ZM134.8,60.4h.4l1.7-8c.4-1.6.4-2.2.4-2.4,0-.8-.3-1.1-.5-1.3-.1-.1-.4-.4-1.2-.5,0,0,.1.1.2.2.4.4,1,1.2,1,2.4s0,.3,0,.4l-1.9,9.3ZM125.6,60.4h.3l1.2-5.6c.4-1.9.9-3.3,1.5-4.3-.3-.3-.6-.6-.6-1.1-.1-.5-.3-.8-.5-.9-.2-.2-.6-.3-1.1-.3,0,0,.1.1.2.2.7.6,1,1.5,1,2.4s0,.9-.4,2.5l-1.5,7.2ZM116.3,60.4h.3l1.2-5.7c.4-1.8.6-2.3.7-2.6.3-.8.7-1.6,1.1-2.2-.4-.4-.6-.9-.6-1.4h-.2l-2.5,11.9ZM101,43.2c-.2.1-.3.2-.5.4-.9.8-1.4,1.8-1.4,3.1s.1,1.3.4,1.8c.3.5.7.9,1.2,1.2.7.4,1.9,1,3.4,1.7,2.5,1.1,3.2,1.5,3.6,1.9.9.8,1.5,1.8,1.5,3s-.6,2.5-1.7,3.4c-.3.2-.6.4-1,.6.6-.2,1.2-.6,1.6-1,1.1-1,1.6-2.1,1.6-3.5s-.3-1.8-.9-2.4c-.2-.2-1.1-.9-4.2-2.2-2.4-1.1-3.3-1.6-3.7-2-.9-.7-1.4-1.8-1.4-3s.5-2.2,1.3-3ZM205.2,50.6s0,0-.1.1c-1,1.4-1.4,2.9-1.4,4.6s.2,2.3.8,3.1c-.3-.7-.4-1.5-.4-2.3s0-.3,0-.5c0-.6.3-1.1.7-1.4-.3-.4-.4-.9-.3-1.4.2-.9.4-1.6.7-2.3ZM224.6,57.4c-.5.2-.7.3-.7.3.3-.1.5-.2.7-.3ZM146.9,57.7h0c.3-.1.5-.2.7-.3-.5.1-.7.3-.7.3ZM208.5,57.7c.2,0,.6.1.9,0h-.9ZM177.8,57.4c.3,0,.6,0,.8.2l1.3-6c-.2,0-.4,0-.6,0h-1l-1.1,5c0,.3-.1.5-.1.7.2,0,.3,0,.5,0,0,0,.1,0,.2,0ZM243.7,51.3c-.2,0-.8,0-1.5,1.1-.6,1.1-.9,2.2-.9,3.5s.1,1.1.4,1.3c.5.5,1.1.4,1.8,0,.4-.3.7-.8,1-1.6.3-.9.5-1.7.5-2.4s-.1-1.1-.4-1.5c-.4-.4-.6-.4-.7-.4ZM100.1,53.5s0,0,.1,0c.4.3.6.8.6,1.3,0,1.3.3,1.6.3,1.6,0,0,.5.5,2.2.5s1.9-.3,2-.4c.3-.2.3-.3.3-.4,0,0-.1-.2-.1-.2,0,0-.5-.4-2.6-1.3-1.1-.5-2-.9-2.7-1.3ZM141,51.2c0,.6-.2,1.2-.4,2l-.2.8c.2-.3.4-.6.7-.8.3-.3.6-.5.9-.7-.3-.1-.6-.4-.8-.7-.1-.2-.2-.4-.3-.6ZM214.6,53.9h.2c0-.3,0-.6,0-.9,0-.8,0-1.5-.3-2.1.1.6.2,1.2.2,1.9s0,.3,0,.5c0,.2,0,.4-.1.6ZM190.5,51.9c.2,0,.3.2.4.3.4.3.8.7,1.2,1.1,0-.2,0-.5,0-.8,0-.3.2-.6.5-.8-.6,0-1.3.1-2.1.2ZM218.5,52c0,.3,0,.5,0,.8.2-.1.4-.3.6-.4-.2,0-.4-.2-.6-.4ZM209.3,51.3h1.2c-.2-.1-.5-.4-1.2,0ZM197,49.5h0c-.4.6-.9,1-1.5,1.4.9-.3,1.6-.7,2.1-1.2.8-.8,1.1-1.9,1.1-3.3s-.2-1.7-.6-2.3c-.3-.5-.8-.9-1.3-1.1-.3-.1-.9-.3-1.8-.3.4,0,.8.2,1.1.4,1.2.7,1.9,1.9,1.9,3.4s-.3,2.1-1,3ZM188.8,48.2h0c3,0,3.9-.2,4.1-.3.4-.2.7-.4,1-.7,0,0,0,0,0,0,.3-.4.3-.6.3-.8,0,0-.3-.2-1.6-.2h-3.4l-.4,2ZM105,45.7c-1.1,0-1.4.2-1.5.2,0,0,0,0,0,.2.2.2.7.6,2.8,1.5.4.2.8.4,1.2.5-.2-.3-.3-.6-.4-.9,0-.8-.4-1.1-.5-1.1-.3-.2-.9-.4-1.6-.4ZM108.4,42.8c.2.1.4.3.6.5.6.5,1,1.1,1.3,1.9h.5c-.3-.6-.7-1.1-1.2-1.5-.4-.3-.8-.6-1.3-.8ZM259.2,42.6h.3s-.3,0-.3,0Z"/>
        </g>
        <g>
          <path class="cls-3" d="M11.2,26.1L56.5,8.9l-.3-7S28.3,18.3,11.2,26.1Z"/>
          <g>
            <polygon class="cls-4" points="2.1 27.8 11.2 26.1 56.5 8.9 66.6 9.3 66.8 14.9 76.7 16.7 76.9 21.2 87 24.2 11.2 40 2.1 27.8"/>
            <path class="cls-9" d="M87,118.7c0,4.8-3.8,8.7-8.6,8.7H10.5c-4.7,0-8.6-3.9-8.6-8.7V39.6c0-4.8,3.8-1.4,8.6-1.4h67.9c4.7,0,8.6-3.3,8.6,1.4v79.1Z"/>
            <g>
              <path class="cls-4" d="M17.6,120.9h.8c0,.3.1.5.3.7.1.2.4.4.6.5.3.1.6.2,1,.2s.6,0,.9-.1c.2,0,.4-.2.6-.4.1-.2.2-.4.2-.5s0-.4-.2-.5c-.1-.2-.3-.3-.6-.4-.2,0-.6-.2-1.1-.3-.6-.1-1-.3-1.2-.4-.3-.2-.5-.4-.7-.6-.2-.2-.2-.5-.2-.8s0-.6.3-.9c.2-.3.5-.5.8-.6.4-.1.7-.2,1.2-.2s.9,0,1.3.2c.4.2.6.4.8.7.2.3.3.6.3,1h-.8c0-.3-.2-.6-.4-.9-.3-.2-.6-.3-1.1-.3s-.9,0-1.1.3c-.2.2-.4.4-.4.7s0,.4.2.6c.2.2.6.3,1.3.5.7.2,1.2.3,1.4.4.4.2.7.4.8.7.2.3.3.6.3.9s0,.7-.3,1c-.2.3-.5.5-.8.7-.4.2-.8.2-1.2.2s-1.1,0-1.5-.3c-.4-.2-.7-.4-.9-.8-.2-.3-.3-.7-.4-1.2Z"/>
              <path class="cls-4" d="M23.8,123v-4.7h.7v.7c.1-.2.3-.4.6-.6.2-.1.5-.2.8-.2s.6,0,.8.2c.2.1.4.3.5.6.4-.5.9-.8,1.4-.8s.8.1,1.1.4c.2.3.4.6.4,1.2v3.2h-.8v-2.9c0-.3,0-.5,0-.7,0-.1-.1-.3-.3-.3-.1,0-.3-.1-.5-.1-.3,0-.6.1-.8.3-.2.2-.3.6-.3,1v2.7h-.8v-3c0-.4,0-.6-.2-.8-.1-.2-.3-.3-.6-.3s-.4,0-.6.2c-.2.1-.3.3-.4.5,0,.2-.1.6-.1,1v2.4h-.8Z"/>
              <path class="cls-4" d="M34.3,122.4c-.3.3-.6.4-.8.5-.3.1-.6.2-.9.2-.5,0-.9-.1-1.2-.4-.3-.3-.4-.6-.4-1s0-.4.2-.6c.1-.2.2-.3.4-.5.2-.1.4-.2.6-.3.2,0,.4,0,.7-.1.6,0,1.1-.2,1.4-.3,0-.1,0-.2,0-.2,0-.3,0-.6-.2-.7-.2-.2-.5-.3-.9-.3s-.7,0-.8.2c-.2.1-.3.4-.4.7h-.8c0-.4.2-.7.3-.9.2-.2.4-.4.7-.5.3-.1.7-.2,1.1-.2s.7,0,1,.1c.2,0,.4.2.6.4.1.1.2.3.2.5,0,.1,0,.4,0,.7v1.1c0,.7,0,1.2,0,1.4,0,.2,0,.4.2.6h-.8c0-.2-.1-.4-.2-.6ZM34.3,120.6c-.3.1-.7.2-1.3.3-.3,0-.6,0-.7.2-.1,0-.2.1-.3.3,0,.1-.1.2-.1.4,0,.2,0,.4.2.5.2.1.4.2.7.2s.6,0,.8-.2.4-.3.5-.5c0-.2.1-.4.1-.8v-.3Z"/>
              <path class="cls-4" d="M36.3,123v-4.7h.7v.7c.2-.3.4-.6.5-.7.2-.1.3-.2.5-.2.3,0,.5,0,.8.3l-.3.7c-.2-.1-.4-.2-.6-.2s-.3,0-.5.2c-.1.1-.2.2-.3.4,0,.3-.1.6-.1.9v2.4h-.8Z"/>
              <path class="cls-4" d="M41,122.3v.7c-.1,0-.3,0-.5,0-.3,0-.5,0-.7-.1-.2,0-.3-.2-.3-.4,0-.1,0-.5,0-.9v-2.7h-.6v-.6h.6v-1.2l.8-.5v1.6h.8v.6h-.8v2.7c0,.2,0,.4,0,.4,0,0,0,.1.1.2,0,0,.2,0,.3,0s.2,0,.4,0Z"/>
              <path class="cls-4" d="M44.4,123v-6.4h2.9c.6,0,1,0,1.3.2.3.1.5.3.7.6.2.3.3.6.3,1s-.1.8-.4,1.2c-.3.3-.8.5-1.4.6.2.1.4.2.5.3.2.2.5.5.7.9l1.1,1.8h-1.1l-.9-1.3c-.2-.4-.5-.7-.6-.9-.2-.2-.3-.3-.4-.4-.1,0-.3-.1-.4-.2,0,0-.3,0-.5,0h-1v2.9h-.9ZM45.3,119.4h1.8c.4,0,.7,0,.9-.1.2,0,.4-.2.5-.4.1-.2.2-.4.2-.6,0-.3-.1-.6-.3-.8-.2-.2-.6-.3-1-.3h-2v2.1Z"/>
              <path class="cls-4" d="M54,121.5h.8c-.1.6-.4,1-.7,1.2-.4.3-.8.4-1.3.4s-1.2-.2-1.6-.6c-.4-.4-.6-1-.6-1.8s.2-1.4.6-1.8c.4-.4.9-.7,1.6-.7s1.1.2,1.5.6c.4.4.6,1,.6,1.8s0,.1,0,.2h-3.5c0,.5.2.9.4,1.2.3.3.6.4,1,.4s.5,0,.7-.2c.2-.2.4-.4.5-.7ZM51.4,120.2h2.6c0-.4-.1-.7-.3-.9-.3-.3-.6-.5-1-.5s-.7.1-.9.4c-.2.2-.4.6-.4,1Z"/>
              <path class="cls-4" d="M58.9,122.4c-.3.3-.6.4-.8.5-.3.1-.6.2-.9.2-.5,0-.9-.1-1.2-.4-.3-.3-.4-.6-.4-1s0-.4.2-.6c.1-.2.2-.3.4-.5.2-.1.4-.2.6-.3.2,0,.4,0,.7-.1.6,0,1.1-.2,1.4-.3,0-.1,0-.2,0-.2,0-.3,0-.6-.2-.7-.2-.2-.5-.3-.9-.3s-.7,0-.8.2c-.2.1-.3.4-.4.7h-.8c0-.4.2-.7.3-.9.2-.2.4-.4.7-.5.3-.1.7-.2,1.1-.2s.7,0,1,.1c.2,0,.4.2.6.4.1.1.2.3.2.5,0,.1,0,.4,0,.7v1.1c0,.7,0,1.2,0,1.4,0,.2,0,.4.2.6h-.8c0-.2-.1-.4-.2-.6ZM58.8,120.6c-.3.1-.7.2-1.3.3-.3,0-.6,0-.7.2-.1,0-.2.1-.3.3,0,.1-.1.2-.1.4,0,.2,0,.4.2.5.2.1.4.2.7.2s.6,0,.8-.2c.2-.1.4-.3.5-.5,0-.2.1-.4.1-.8v-.3Z"/>
              <path class="cls-4" d="M63.8,123v-.6c-.3.5-.7.7-1.3.7s-.7-.1-1-.3c-.3-.2-.6-.5-.7-.9-.2-.4-.3-.8-.3-1.3s0-.9.2-1.3c.2-.4.4-.7.7-.9.3-.2.7-.3,1-.3s.5,0,.7.2.4.3.5.5v-2.3h.8v6.4h-.7ZM61.3,120.6c0,.6.1,1,.4,1.3.3.3.6.4.9.4s.6-.1.9-.4c.2-.3.4-.7.4-1.3s-.1-1.1-.4-1.4c-.2-.3-.6-.4-.9-.4s-.6.1-.9.4c-.2.3-.4.7-.4,1.4Z"/>
              <path class="cls-4" d="M65.8,117.4v-.9h.8v.9h-.8ZM65.8,123v-4.7h.8v4.7h-.8Z"/>
              <path class="cls-4" d="M67.8,123v-4.7h.7v.7c.3-.5.8-.8,1.5-.8s.5,0,.8.2.4.2.5.4c.1.2.2.4.2.6,0,.1,0,.4,0,.8v2.9h-.8v-2.8c0-.3,0-.6,0-.7,0-.2-.2-.3-.3-.4-.2,0-.3-.1-.6-.1-.3,0-.6.1-.9.3-.2.2-.4.6-.4,1.2v2.5h-.8Z"/>
              <path class="cls-4" d="M72.7,123.4h.8c0,.3.1.5.3.6.2.1.5.2.8.2s.7,0,.9-.2c.2-.1.3-.4.4-.6,0-.2,0-.5,0-1-.3.4-.8.6-1.3.6s-1.1-.2-1.5-.7c-.4-.5-.5-1-.5-1.7s0-.9.2-1.2c.2-.4.4-.7.7-.9.3-.2.7-.3,1.1-.3s1,.2,1.4.7v-.6h.7v4c0,.7,0,1.2-.2,1.5-.1.3-.4.5-.7.7-.3.2-.7.3-1.2.3s-1-.1-1.3-.4c-.3-.3-.5-.6-.5-1.1ZM73.3,120.6c0,.6.1,1.1.4,1.3.2.3.6.4.9.4s.7-.1.9-.4c.2-.3.4-.7.4-1.3s-.1-1-.4-1.3c-.3-.3-.6-.4-.9-.4s-.7.1-.9.4c-.2.3-.4.7-.4,1.3Z"/>
            </g>
            <path class="cls-9" d="M2.1,27.8l6.7,7.2s37.3-9.9,78.1-10.8h0v21.2H1.9l.2-17.6Z"/>
            <path class="cls-9" d="M16.6,27.5s46.3-12.2,50.2-12.6l-.3-5.6S24.6,24.6,16.6,27.5Z"/>
            <path class="cls-5" d="M20.4,29.9s48.7-9.2,56.6-8.7l-.2-4.5s-51.1,11-56.4,13.2Z"/>
            <g>
              <g>
                <path class="cls-2" d="M11.2,54.4c-.3-1.5,1-2.8,1-3.2.1-1.3,1.1-2.4,2.2-3.2,1.9-1.5,3.8-3,5.6-4.6,1.3-1.1,2.4-2.6,4-2.8.3,0,.9,0,1.2-.2.6-.3,1.1-1.1,1.7-1.5.7-.5,1.2-.6,2.1-.8,1.4-.3,3-.7,4.4-1.2,1.5-.5,3-1,4.5-1.3,1.7-.4,3.4-.3,5.1-.3,2.3,0,4.5-.3,6.7-.3,1.1,0,2.1,0,3.2.3,1.8.4,3.4,1.5,5.3,1.9,1.1.2,2.1.4,3.2.6.6.1,1.3.2,1.9.5.7.4,1.3,1,2,1.4,1.7,1.2,2.9,2.9,4.5,4.2,1,.9,2.5,1.4,3.4,2.2.7.5,1.2,1.1,2,1.5.8.4,1.9.6,2.6,1.3.7.7,1.1,1.7,1.6,2.5.4.6.7,1,1,1.6.3.6.5,1.1.7,1.7.5,1,.8,1.4.3,2.2-.5.7-.2.7.4,1.7.4.7.4,1.2.6,1.9.4,1.1,1.1,2.1,1.5,3.2.3,1.1.4,2.3.6,3.4.3,1.7.9,3.5,1,5.2,0,.4.1,1,0,1.3-.2.5-.7.8-1,1.2-.5,1-.9,2.4-1.8,3.1-.5.4-.6,0-1.4,0-.6,0-1,.2-1.1.8-.2,1,0,2.3,0,3.4-.1,1.4-1,2.9-2.1,3.7-.6.4-1.3.4-1.8.9-.6.6-1,1.3-1.8,1.8-.9.5-1.9,1-2.9,1.4-.7.3-1.4.7-2.1.7-.6,0-1.2-.1-1.8-.1-1.8,0-3.1.8-5.1.4-.6-.1-1.3-.5-1.8-.9-1-.8-.7-1.6-1-2.7-.3-1.4-1.2-3.1-2-4.2-1.4-1.9.3-3.5.5-5.4.2-2.2-1.9-3.4-2.9-5-.4-.6-.9-1.7-.9-2.4,0-.6.6-.8.6-1.5-.1-1.3-2-.9-2.8-1.2-.4-.2-.7-.9-1.1-1.3-.5-.6-1-1.1-1.6-1.5-.7-.5-1.5-.7-2.2-1.1-.5-.2-1-.4-1.6-.3-.8.2-1.7,1.2-2.4,1.7-.9.6-1.7,1.3-2.6,2-.6.4-1.1,1-1.5,1.7-.3.5-.4,1.3-.9,1.7-1.7,1.3-1-1.3-1.2-2-.2-.5-.7-.3-1.2-.7-.5-.4-.5-1.3-1-1.8,0,0-.1-.2-.2-.3-.7.1-1.2,1.5-1.6,2-.4.5-.8,1.2-1.4,1.6-.5.4-1.1.5-1.6.8-.6.4-.7.7-1.2,1.4-.7,1.1-1.4.4-2.4,1-.5.3-.5.7-1.1.9-.6.2-1.3-.1-1.8-.3-1.2-.3-2.3-.1-3.6.1-1.7.3-2.7.4-4.3,0-1.2-.3-2.3-.2-3.6-.3-1.9-.1-2.5-2.1-2.5-3.9,0-1.1,0-2.1,0-3.1,0-.9-.4-1.7-.4-2.5,0,0-.6-1.4,1.4-3.2,2-1.7.5-.2-.1-1.3-.4-.6,1.1-2.8.8-4.5Z"/>
                <path class="cls-6" d="M63.7,91.4c-.4,0-.9,0-1.3-.2-.7-.2-1.4-.5-1.9-.9-.9-.7-1-1.5-1-2.2,0-.2,0-.5-.1-.8-.3-1.5-1.2-3.1-1.9-4.1-1.1-1.5-.5-2.8-.1-4,.2-.6.4-1.1.5-1.7,0-1.3-.7-2.2-1.6-3.2-.4-.5-.9-1-1.2-1.5-.4-.6-1-1.8-1-2.7,0-.5.2-.8.4-1,.2-.2.2-.3.2-.4,0-.4-.4-.5-1.4-.6-.4,0-.8,0-1.2-.2-.4-.2-.7-.6-.9-1-.1-.2-.2-.3-.3-.4-.5-.5-1-1-1.6-1.5-.4-.3-.9-.5-1.4-.8-.2,0-.5-.2-.7-.3-.4-.2-.8-.4-1.2-.3-.4,0-1,.6-1.5,1-.3.2-.5.4-.7.6-.9.6-1.7,1.3-2.6,2-.6.4-1,1-1.3,1.5,0,.2-.2.4-.2.6-.2.4-.3.9-.8,1.3-.4.3-.9.6-1.4.4-.6-.3-.6-1.1-.6-1.8,0-.3,0-.6,0-.7,0,0,0,0-.2-.1-.2,0-.5-.1-.9-.4-.3-.3-.5-.7-.6-1.1-.1-.3-.2-.6-.4-.7,0,0,0,0,0,0-.2.3-.5.8-.7,1.1-.1.2-.2.4-.3.6-.4.6-.9,1.3-1.5,1.7-.3.2-.7.4-1,.5-.2,0-.4.2-.7.3-.4.2-.5.4-.8.9,0,.1-.1.2-.2.4-.5.8-1.1.9-1.7.9-.3,0-.6,0-.9.2-.1,0-.2.2-.3.3-.2.2-.4.5-.8.6-.6.2-1.2,0-1.7-.1-.1,0-.3,0-.4-.1-1-.3-2.1-.1-3.4.1-1.9.4-3,.4-4.5,0-.8-.2-1.6-.2-2.5-.3-.3,0-.7,0-1,0-2.2-.1-3-2.3-3-4.3,0-1.1,0-2.1,0-3.1,0-.4-.1-.7-.2-1.1,0-.5-.2-.9-.2-1.4-.1-.4-.4-1.9,1.5-3.6l.2-.2c-.2,0-.3-.2-.5-.4-.3-.4,0-1,.2-1.9.3-.8.7-1.9.5-2.7h0c-.3-1.3.4-2.4.8-3,0-.1.2-.3.2-.4.1-1.2.9-2.4,2.3-3.5,1.9-1.5,3.8-3,5.6-4.6.3-.3.6-.6.9-.8,1-.9,2-1.9,3.3-2.1.1,0,.3,0,.4,0,.2,0,.5,0,.6,0,.3-.1.6-.4.9-.8.2-.2.5-.5.7-.7.8-.6,1.3-.7,2.1-.8h.2c1.5-.3,3-.7,4.3-1.2,1.5-.5,3-1,4.6-1.3,1.4-.3,2.7-.3,4-.3.4,0,.8,0,1.1,0,1,0,2,0,2.9-.1,1.2,0,2.5-.2,3.8-.1,1.1,0,2.2,0,3.3.3,1,.2,1.8.6,2.7,1,.8.4,1.7.8,2.6.9.4,0,.9.2,1.3.2.6.1,1.2.2,1.9.3.1,0,.3,0,.4,0,.5,0,1.1.2,1.6.5.4.2.7.5,1.1.8.3.2.6.5.9.7,1,.7,1.8,1.6,2.7,2.4.6.6,1.2,1.3,1.9,1.8.5.4,1.1.8,1.7,1.1.6.3,1.2.7,1.7,1.1.2.1.4.3.5.4.4.4.8.7,1.4,1,.3.1.6.2.9.4.6.2,1.3.5,1.8,1,.5.5.9,1.1,1.2,1.8.2.3.3.6.5.8.1.2.2.4.4.5.2.3.5.7.7,1.1.2.3.3.7.4,1,0,.2.2.5.3.7,0,.2.2.3.2.5.4.7.7,1.3,0,2.2-.1.2-.2.3-.2.3,0,0,.1.2.2.4,0,.1.2.3.3.5.3.5.4.9.5,1.4,0,.2,0,.4.2.7.2.5.4,1,.7,1.5.3.5.6,1.1.8,1.7.2.7.3,1.6.4,2.3,0,.4,0,.8.2,1.1.1.6.3,1.3.4,1.9.3,1.1.5,2.3.6,3.4v.3c0,.4,0,.9,0,1.2-.1.3-.4.6-.6.8-.2.2-.3.3-.4.5-.1.2-.2.4-.3.7-.4.9-.8,2-1.6,2.6-.5.4-.8.3-1.1.2-.2,0-.3,0-.6,0-.4,0-.5.1-.6.5-.1.5,0,1.2,0,1.9,0,.5,0,1,0,1.5-.1,1.5-1,3.1-2.3,4-.3.2-.7.4-1,.5-.3.1-.6.2-.8.4-.2.2-.4.4-.6.7-.3.4-.7.8-1.2,1.1-.9.5-1.9,1-2.9,1.4-.2,0-.4.2-.6.3-.5.2-1.1.5-1.8.6-.4,0-.7,0-1,0-.3,0-.5,0-.8,0-.6,0-1.2.1-1.8.3-.6.1-1.3.3-2,.3ZM45.9,62.8c.5,0,1,.2,1.4.4.2.1.4.2.7.3.6.2,1.1.5,1.7.9.6.5,1.2,1,1.7,1.6.1.2.3.3.4.5.2.3.4.6.5.7.2,0,.5.1.8.1.8,0,2.1.2,2.2,1.5,0,.5-.2.8-.4,1.1-.1.2-.2.3-.2.4,0,.6.4,1.5.8,2.2.3.5.7,1,1.1,1.4,1,1.1,2,2.2,1.9,3.9,0,.7-.3,1.4-.5,2-.4,1.1-.8,2,0,3.1.7,1,1.7,2.8,2.1,4.4,0,.3.1.6.1.9,0,.6.1,1,.7,1.5.4.3,1,.6,1.6.8,1.1.3,2,0,3-.1.6-.1,1.3-.3,2-.3.3,0,.6,0,.9,0,.3,0,.6,0,.9,0,.5,0,.9-.2,1.4-.5.2,0,.4-.2.6-.2,1-.4,2-.8,2.9-1.3.4-.2.7-.6,1-.9.2-.3.5-.5.7-.8.3-.3.8-.5,1.1-.6.3,0,.5-.2.8-.3,1-.8,1.8-2.1,1.9-3.3,0-.4,0-.9,0-1.4,0-.7,0-1.5,0-2.1.2-.8.7-1.2,1.6-1.2.3,0,.6,0,.7,0,.2,0,.2,0,.4,0,.6-.4,1-1.4,1.3-2.2.1-.3.2-.5.3-.7.1-.3.4-.5.6-.7.2-.2.3-.3.4-.5,0-.1,0-.6,0-.8v-.3c0-1-.3-2.1-.6-3.2-.2-.7-.3-1.3-.4-2,0-.4-.1-.8-.2-1.2,0-.7-.2-1.5-.4-2.2-.2-.5-.4-1-.7-1.5-.3-.5-.6-1.1-.8-1.6,0-.3-.1-.5-.2-.8,0-.4-.1-.7-.4-1.1-.1-.2-.2-.3-.3-.5-.4-.6-.6-1,0-1.7.3-.4.2-.5-.1-1.2,0-.1-.1-.3-.2-.5-.1-.2-.2-.5-.3-.7-.1-.3-.2-.6-.4-.9-.2-.3-.4-.6-.6-1-.1-.2-.3-.4-.4-.6-.2-.3-.3-.5-.5-.8-.3-.6-.7-1.2-1.1-1.6-.4-.4-.9-.6-1.5-.8-.3-.1-.7-.2-1-.4-.6-.3-1.1-.7-1.6-1.1-.2-.1-.3-.3-.5-.4-.4-.4-1-.7-1.6-1-.6-.4-1.3-.7-1.9-1.2-.7-.6-1.3-1.2-2-1.9-.8-.9-1.6-1.7-2.5-2.3-.3-.2-.7-.5-1-.7-.3-.2-.7-.5-1-.7-.3-.2-.8-.3-1.2-.4-.2,0-.3,0-.5,0-.6-.1-1.2-.2-1.8-.3-.5,0-.9-.2-1.4-.2-1-.2-1.9-.6-2.8-1-.8-.4-1.6-.7-2.5-.9-1-.2-2.1-.2-3.1-.2-1.3,0-2.5,0-3.7.1-1,0-2,.1-3,.1-.4,0-.8,0-1.1,0-1.3,0-2.6,0-3.8.3-1.6.4-3,.8-4.5,1.3-1.3.5-2.9.9-4.5,1.2h-.2c-.7.2-1.1.2-1.7.7-.2.1-.4.3-.6.6-.4.4-.7.8-1.2,1-.3.1-.6.1-.9.2-.1,0-.3,0-.4,0-1,.1-1.9,1-2.8,1.8-.3.3-.6.6-1,.9-1.9,1.6-3.7,3.1-5.7,4.6-.8.6-1.9,1.7-2,2.9,0,.2-.1.4-.3.7-.3.6-.9,1.5-.7,2.4.2,1.1-.2,2.3-.5,3.2-.1.4-.3,1-.3,1.1.1.1.3.2.5.1.2,0,.5,0,.6.3.2.3,0,.5-.5.9l-.6.5c-1.7,1.5-1.3,2.6-1.2,2.6,0,0,0,.1,0,.2,0,.4,0,.9.2,1.3,0,.4.2.8.2,1.2,0,1,0,2.1,0,3.2,0,.5,0,3.3,2.1,3.4.3,0,.7,0,1,0,.9,0,1.8,0,2.7.3,1.4.4,2.4.4,4.1,0,1.2-.2,2.5-.4,3.8-.1.1,0,.3,0,.4.1.4.1.8.3,1.1.1.2,0,.3-.2.4-.3.1-.2.3-.3.5-.5.5-.3.9-.3,1.3-.4.4,0,.7,0,.9-.5,0-.1.1-.2.2-.4.3-.5.5-.8,1.1-1.2.3-.2.5-.3.8-.4.3-.1.6-.2.8-.4.5-.4.9-1,1.2-1.5,0-.1.2-.3.3-.5.4-.7.9-1.6,1.6-1.7.2,0,.4,0,.5.2v.2c.4.3.6.6.7,1,.1.3.2.6.4.7.1.1.3.1.4.2.3,0,.7.2.9.7.1.3,0,.6,0,1.1,0,.3,0,.7,0,.9,0,0,.2,0,.4-.2.2-.2.3-.5.5-.9,0-.2.2-.5.3-.7.4-.6.9-1.3,1.6-1.8.9-.7,1.7-1.4,2.6-2,.2-.1.4-.3.7-.5.6-.5,1.2-1.1,1.9-1.2.2,0,.3,0,.5,0Z"/>
              </g>
              <g class="cls-7">
                <path class="cls-2" d="M11.2,54.4c-.3-1.5,1-2.8,1-3.2.1-1.3,1.1-2.4,2.2-3.2,1.9-1.5,3.8-3,5.6-4.6,1.3-1.1,2.4-2.6,4-2.8.3,0,.9,0,1.2-.2.6-.3,1.1-1.1,1.7-1.5.7-.5,1.2-.6,2.1-.8,1.4-.3,3-.7,4.4-1.2,1.5-.5,3-1,4.5-1.3,1.7-.4,3.4-.3,5.1-.3,2.3,0,4.5-.3,6.7-.3,1.1,0,2.1,0,3.2.3,1.8.4,3.4,1.5,5.3,1.9,1.1.2,2.1.4,3.2.6.6.1,1.3.2,1.9.5.7.4,1.3,1,2,1.4,1.7,1.2,2.9,2.9,4.5,4.2,1,.9,2.5,1.4,3.4,2.2.7.5,1.2,1.1,2,1.5.8.4,1.9.6,2.6,1.3.7.7,1.1,1.7,1.6,2.5.4.6.7,1,1,1.6.3.6.5,1.1.7,1.7.5,1,.8,1.4.3,2.2-.5.7-.2.7.4,1.7.4.7.4,1.2.6,1.9.4,1.1,1.1,2.1,1.5,3.2.3,1.1.4,2.3.6,3.4.3,1.7.9,3.5,1,5.2,0,.4.1,1,0,1.3-.2.5-.7.8-1,1.2-.5,1-.9,2.4-1.8,3.1-.5.4-.6,0-1.4,0-.6,0-1,.2-1.1.8-.2,1,0,2.3,0,3.4-.1,1.4-1,2.9-2.1,3.7-.6.4-1.3.4-1.8.9-.6.6-1,1.3-1.8,1.8-.9.5-1.9,1-2.9,1.4-.7.3-1.4.7-2.1.7-.6,0-1.2-.1-1.8-.1-1.8,0-3.1.8-5.1.4-.6-.1-1.3-.5-1.8-.9-1-.8-.7-1.6-1-2.7-.3-1.4-1.2-3.1-2-4.2-1.4-1.9.3-3.5.5-5.4.2-2.2-1.9-3.4-2.9-5-.4-.6-.9-1.7-.9-2.4,0-.6.6-.8.6-1.5-.1-1.3-2-.9-2.8-1.2-.4-.2-.7-.9-1.1-1.3-.5-.6-1-1.1-1.6-1.5-.7-.5-1.5-.7-2.2-1.1-.5-.2-1-.4-1.6-.3-.8.2-1.7,1.2-2.4,1.7-.9.6-1.7,1.3-2.6,2-.6.4-1.1,1-1.5,1.7-.3.5-.4,1.3-.9,1.7-1.7,1.3-1-1.3-1.2-2-.2-.5-.7-.3-1.2-.7-.5-.4-.5-1.3-1-1.8,0,0-.1-.2-.2-.3-.7.1-1.2,1.5-1.6,2-.4.5-.8,1.2-1.4,1.6-.5.4-1.1.5-1.6.8-.6.4-.7.7-1.2,1.4-.7,1.1-1.4.4-2.4,1-.5.3-.5.7-1.1.9-.6.2-1.3-.1-1.8-.3-1.2-.3-2.3-.1-3.6.1-1.7.3-2.7.4-4.3,0-1.2-.3-2.3-.2-3.6-.3-1.9-.1-2.5-2.1-2.5-3.9,0-1.1,0-2.1,0-3.1,0-.9-.4-1.7-.4-2.5,0,0-.6-1.4,1.4-3.2,2-1.7.5-.2-.1-1.3-.4-.6,1.1-2.8.8-4.5Z"/>
                <path class="cls-6" d="M63.7,91.4c-.4,0-.9,0-1.3-.2-.7-.2-1.4-.5-1.9-.9-.9-.7-1-1.5-1-2.2,0-.2,0-.5-.1-.8-.3-1.5-1.2-3.1-1.9-4.1-1.1-1.5-.5-2.8-.1-4,.2-.6.4-1.1.5-1.7,0-1.3-.7-2.2-1.6-3.2-.4-.5-.9-1-1.2-1.5-.4-.6-1-1.8-1-2.7,0-.5.2-.8.4-1,.2-.2.2-.3.2-.4,0-.4-.4-.5-1.4-.6-.4,0-.8,0-1.2-.2-.4-.2-.7-.6-.9-1-.1-.2-.2-.3-.3-.4-.5-.5-1-1-1.6-1.5-.4-.3-.9-.5-1.4-.8-.2,0-.5-.2-.7-.3-.4-.2-.8-.4-1.2-.3-.4,0-1,.6-1.5,1-.3.2-.5.4-.7.6-.9.6-1.7,1.3-2.6,2-.6.4-1,1-1.3,1.5,0,.2-.2.4-.2.6-.2.4-.3.9-.8,1.3-.4.3-.9.6-1.4.4-.6-.3-.6-1.1-.6-1.8,0-.3,0-.6,0-.7,0,0,0,0-.2-.1-.2,0-.5-.1-.9-.4-.3-.3-.5-.7-.6-1.1-.1-.3-.2-.6-.4-.7,0,0,0,0,0,0-.2.3-.5.8-.7,1.1-.1.2-.2.4-.3.6-.4.6-.9,1.3-1.5,1.7-.3.2-.7.4-1,.5-.2,0-.4.2-.7.3-.4.2-.5.4-.8.9,0,.1-.1.2-.2.4-.5.8-1.1.9-1.7.9-.3,0-.6,0-.9.2-.1,0-.2.2-.3.3-.2.2-.4.5-.8.6-.6.2-1.2,0-1.7-.1-.1,0-.3,0-.4-.1-1-.3-2.1-.1-3.4.1-1.9.4-3,.4-4.5,0-.8-.2-1.6-.2-2.5-.3-.3,0-.7,0-1,0-2.2-.1-3-2.3-3-4.3,0-1.1,0-2.1,0-3.1,0-.4-.1-.7-.2-1.1,0-.5-.2-.9-.2-1.4-.1-.4-.4-1.9,1.5-3.6l.2-.2c-.2,0-.3-.2-.5-.4-.3-.4,0-1,.2-1.9.3-.8.7-1.9.5-2.7h0c-.3-1.3.4-2.4.8-3,0-.1.2-.3.2-.4.1-1.2.9-2.4,2.3-3.5,1.9-1.5,3.8-3,5.6-4.6.3-.3.6-.6.9-.8,1-.9,2-1.9,3.3-2.1.1,0,.3,0,.4,0,.2,0,.5,0,.6,0,.3-.1.6-.4.9-.8.2-.2.5-.5.7-.7.8-.6,1.3-.7,2.1-.8h.2c1.5-.3,3-.7,4.3-1.2,1.5-.5,3-1,4.6-1.3,1.4-.3,2.7-.3,4-.3.4,0,.8,0,1.1,0,1,0,2,0,2.9-.1,1.2,0,2.5-.2,3.8-.1,1.1,0,2.2,0,3.3.3,1,.2,1.8.6,2.7,1,.8.4,1.7.8,2.6.9.4,0,.9.2,1.3.2.6.1,1.2.2,1.9.3.1,0,.3,0,.4,0,.5,0,1.1.2,1.6.5.4.2.7.5,1.1.8.3.2.6.5.9.7,1,.7,1.8,1.6,2.7,2.4.6.6,1.2,1.3,1.9,1.8.5.4,1.1.8,1.7,1.1.6.3,1.2.7,1.7,1.1.2.1.4.3.5.4.4.4.8.7,1.4,1,.3.1.6.2.9.4.6.2,1.3.5,1.8,1,.5.5.9,1.1,1.2,1.8.2.3.3.6.5.8.1.2.2.4.4.5.2.3.5.7.7,1.1.2.3.3.7.4,1,0,.2.2.5.3.7,0,.2.2.3.2.5.4.7.7,1.3,0,2.2-.1.2-.2.3-.2.3,0,0,.1.2.2.4,0,.1.2.3.3.5.3.5.4.9.5,1.4,0,.2,0,.4.2.7.2.5.4,1,.7,1.5.3.5.6,1.1.8,1.7.2.7.3,1.6.4,2.3,0,.4,0,.8.2,1.1.1.6.3,1.3.4,1.9.3,1.1.5,2.3.6,3.4v.3c0,.4,0,.9,0,1.2-.1.3-.4.6-.6.8-.2.2-.3.3-.4.5-.1.2-.2.4-.3.7-.4.9-.8,2-1.6,2.6-.5.4-.8.3-1.1.2-.2,0-.3,0-.6,0-.4,0-.5.1-.6.5-.1.5,0,1.2,0,1.9,0,.5,0,1,0,1.5-.1,1.5-1,3.1-2.3,4-.3.2-.7.4-1,.5-.3.1-.6.2-.8.4-.2.2-.4.4-.6.7-.3.4-.7.8-1.2,1.1-.9.5-1.9,1-2.9,1.4-.2,0-.4.2-.6.3-.5.2-1.1.5-1.8.6-.4,0-.7,0-1,0-.3,0-.5,0-.8,0-.6,0-1.2.1-1.8.3-.6.1-1.3.3-2,.3ZM45.9,62.8c.5,0,1,.2,1.4.4.2.1.4.2.7.3.6.2,1.1.5,1.7.9.6.5,1.2,1,1.7,1.6.1.2.3.3.4.5.2.3.4.6.5.7.2,0,.5.1.8.1.8,0,2.1.2,2.2,1.5,0,.5-.2.8-.4,1.1-.1.2-.2.3-.2.4,0,.6.4,1.5.8,2.2.3.5.7,1,1.1,1.4,1,1.1,2,2.2,1.9,3.9,0,.7-.3,1.4-.5,2-.4,1.1-.8,2,0,3.1.7,1,1.7,2.8,2.1,4.4,0,.3.1.6.1.9,0,.6.1,1,.7,1.5.4.3,1,.6,1.6.8,1.1.3,2,0,3-.1.6-.1,1.3-.3,2-.3.3,0,.6,0,.9,0,.3,0,.6,0,.9,0,.5,0,.9-.2,1.4-.5.2,0,.4-.2.6-.2,1-.4,2-.8,2.9-1.3.4-.2.7-.6,1-.9.2-.3.5-.5.7-.8.3-.3.8-.5,1.1-.6.3,0,.5-.2.8-.3,1-.8,1.8-2.1,1.9-3.3,0-.4,0-.9,0-1.4,0-.7,0-1.5,0-2.1.2-.8.7-1.2,1.6-1.2.3,0,.6,0,.7,0,.2,0,.2,0,.4,0,.6-.4,1-1.4,1.3-2.2.1-.3.2-.5.3-.7.1-.3.4-.5.6-.7.2-.2.3-.3.4-.5,0-.1,0-.6,0-.8v-.3c0-1-.3-2.1-.6-3.2-.2-.7-.3-1.3-.4-2,0-.4-.1-.8-.2-1.2,0-.7-.2-1.5-.4-2.2-.2-.5-.4-1-.7-1.5-.3-.5-.6-1.1-.8-1.6,0-.3-.1-.5-.2-.8,0-.4-.1-.7-.4-1.1-.1-.2-.2-.3-.3-.5-.4-.6-.6-1,0-1.7.3-.4.2-.5-.1-1.2,0-.1-.1-.3-.2-.5-.1-.2-.2-.5-.3-.7-.1-.3-.2-.6-.4-.9-.2-.3-.4-.6-.6-1-.1-.2-.3-.4-.4-.6-.2-.3-.3-.5-.5-.8-.3-.6-.7-1.2-1.1-1.6-.4-.4-.9-.6-1.5-.8-.3-.1-.7-.2-1-.4-.6-.3-1.1-.7-1.6-1.1-.2-.1-.3-.3-.5-.4-.4-.4-1-.7-1.6-1-.6-.4-1.3-.7-1.9-1.2-.7-.6-1.3-1.2-2-1.9-.8-.9-1.6-1.7-2.5-2.3-.3-.2-.7-.5-1-.7-.3-.2-.7-.5-1-.7-.3-.2-.8-.3-1.2-.4-.2,0-.3,0-.5,0-.6-.1-1.2-.2-1.8-.3-.5,0-.9-.2-1.4-.2-1-.2-1.9-.6-2.8-1-.8-.4-1.6-.7-2.5-.9-1-.2-2.1-.2-3.1-.2-1.3,0-2.5,0-3.7.1-1,0-2,.1-3,.1-.4,0-.8,0-1.1,0-1.3,0-2.6,0-3.8.3-1.6.4-3,.8-4.5,1.3-1.3.5-2.9.9-4.5,1.2h-.2c-.7.2-1.1.2-1.7.7-.2.1-.4.3-.6.6-.4.4-.7.8-1.2,1-.3.1-.6.1-.9.2-.1,0-.3,0-.4,0-1,.1-1.9,1-2.8,1.8-.3.3-.6.6-1,.9-1.9,1.6-3.7,3.1-5.7,4.6-.8.6-1.9,1.7-2,2.9,0,.2-.1.4-.3.7-.3.6-.9,1.5-.7,2.4.2,1.1-.2,2.3-.5,3.2-.1.4-.3,1-.3,1.1.1.1.3.2.5.1.2,0,.5,0,.6.3.2.3,0,.5-.5.9l-.6.5c-1.7,1.5-1.3,2.6-1.2,2.6,0,0,0,.1,0,.2,0,.4,0,.9.2,1.3,0,.4.2.8.2,1.2,0,1,0,2.1,0,3.2,0,.5,0,3.3,2.1,3.4.3,0,.7,0,1,0,.9,0,1.8,0,2.7.3,1.4.4,2.4.4,4.1,0,1.2-.2,2.5-.4,3.8-.1.1,0,.3,0,.4.1.4.1.8.3,1.1.1.2,0,.3-.2.4-.3.1-.2.3-.3.5-.5.5-.3.9-.3,1.3-.4.4,0,.7,0,.9-.5,0-.1.1-.2.2-.4.3-.5.5-.8,1.1-1.2.3-.2.5-.3.8-.4.3-.1.6-.2.8-.4.5-.4.9-1,1.2-1.5,0-.1.2-.3.3-.5.4-.7.9-1.6,1.6-1.7.2,0,.4,0,.5.2v.2c.4.3.6.6.7,1,.1.3.2.6.4.7.1.1.3.1.4.2.3,0,.7.2.9.7.1.3,0,.6,0,1.1,0,.3,0,.7,0,.9,0,0,.2,0,.4-.2.2-.2.3-.5.5-.9,0-.2.2-.5.3-.7.4-.6.9-1.3,1.6-1.8.9-.7,1.7-1.4,2.6-2,.2-.1.4-.3.7-.5.6-.5,1.2-1.1,1.9-1.2.2,0,.3,0,.5,0Z"/>
              </g>
              <path class="cls-6" d="M16.6,73.7l-.6-.7c.4-.3.8-.6,1.2-.9,1.9-1.3,3.2-2.3,3.4-4.7.1-1.9-.3-3.5-.8-5.2-.3-1.1-.6-2.2-.8-3.4-.6-4.5,3.3-9.4,8.1-10.3.2,0,4.7-.9,6.4.7.4.4.7,1,.5,2l-.9-.2c.1-.5,0-.9-.3-1.2-1-1-3.9-.8-5.5-.5-4.4.8-7.9,5.2-7.4,9.2.1,1.1.5,2.2.8,3.3.5,1.7,1,3.5.8,5.5-.2,2.8-1.8,4-3.8,5.4-.4.3-.8.5-1.2.9Z"/>
              <path class="cls-6" d="M29.3,48.7c-.3-1-.1-2.1.4-3.1.8-1.3,2.2-2.4,3.6-2.7l.2.9c-1.2.3-2.4,1.2-3,2.3-.3.6-.7,1.4-.4,2.4l-.9.3Z"/>
              <path class="cls-6" d="M31.4,69.8c-1.9,0-3.6-2.9-4.5-4.5l-.2-.3c-1.7-3-2-5.5-2-9.2h.9c0,3.6.3,6,1.9,8.8l.2.3c.7,1.1,2.4,4.2,3.8,4v.9s0,0-.1,0Z"/>
              <path class="cls-6" d="M35,55.1c-1.7,0-3.6-.6-5.1-1.4l.4-.8c.8.4,4.6,2.4,7.1.6,1.3-1,2.2-2.8,2.1-4.5,0-1.3-.6-2.3-1.5-2.9l.5-.8c1.2.8,1.9,2.1,2,3.7,0,2-.9,4.1-2.5,5.3-.9.6-1.9.9-3,.9Z"/>
              <path class="cls-6" d="M33.3,68c-.2-.2-.4-.3-.6-.4-.3-.1-.5-.3-.8-.6-.7-.9-.9-2.2-.6-4,.4-2,1.7-3.9,3.5-5,.4-.2.8-.4,1.3-.6.8-.3,1.5-.6,1.9-1.3.2-.4.3-1.1,0-1.4,0-.1-.1-.2-.3-.2v-.9c.5,0,.9.3,1.1.7.4.7.3,1.7,0,2.3-.5,1-1.5,1.4-2.4,1.7-.4.1-.8.3-1.1.5-1.5.9-2.8,2.6-3.1,4.3-.3,1.4-.1,2.5.4,3.2.2.2.3.3.5.4.2.1.5.2.8.5l-.6.7Z"/>
              <path class="cls-6" d="M18.7,55.6c-.6,0-1.1-.1-1.6-.4-1.6-.9-2.2-2.9-2.8-4.8-.3-.8-.5-1.6-.8-2.2l.8-.4c.3.6.6,1.5.9,2.4.5,1.7,1.1,3.5,2.3,4.2.7.3,1.5.4,2.5,0l.3.9c-.6.2-1.1.3-1.6.3Z"/>
              <path class="cls-6" d="M11.1,67.9c-.7,0-1.4,0-1.9-.3l.3-.9c1.2.4,4.4.2,6.1-1,.7-.5,1.1-1.2,1.1-1.9h.9c0,1-.5,2-1.5,2.7-1.3.9-3.4,1.4-5,1.4Z"/>
              <path class="cls-6" d="M13.9,66.9c-.9-3-.5-8.7,2.7-11.2l.6.7c-2.7,2.2-3.2,7.4-2.3,10.2l-.9.3Z"/>
              <path class="cls-6" d="M46.6,63.7v-.9c1.4-.1,1.8-3.1,1.8-4.6,0-.4,0-.8,0-1.2,0-1.5,0-2.9-.4-4.3-.4-1.6-1.3-3.1-2.1-4.5-.5-.9-1.2-1.6-1.9-2.3-1.2-1.4-2.5-2.8-2.6-4.7,0-1.8,1-5.1,2.4-6.4l.6.7c-1.1,1-2.2,4-2.1,5.7,0,1.5,1.2,2.8,2.4,4.1.7.8,1.4,1.6,1.9,2.4.9,1.6,1.8,3.1,2.3,4.8.4,1.5.4,3.1.4,4.6,0,.4,0,.8,0,1.2,0,.9,0,5.4-2.7,5.6Z"/>
              <path class="cls-6" d="M53.6,44.7c-.5,0-1.1,0-1.5-.3-1.3-.7-1.5-1.8-1.6-2.8,0-.4,0-.7-.2-1.1-.3-1-.8-1.5-1.6-1.7-2-.5-5.2,1.4-6.6,2.9l-.7-.6c1.5-1.7,5-3.8,7.5-3.2.8.2,1.8.7,2.3,2.4.1.4.2.8.2,1.2,0,.9.2,1.6,1.1,2.1.5.3,1.5.3,2.7,0,1.8-.4,2.1-1.4,2.5-3.2h.5c0,0,.5.2.5.2-.5,1.9-.9,3.4-3.3,4-.5.1-1.2.2-1.8.2Z"/>
              <path class="cls-6" d="M50.3,56.7c-.2,0-.5,0-.7,0-.2,0-.4,0-.6,0v-.9c.2,0,.4,0,.7,0,.9,0,1.6,0,2.4-.3,1.6-.7,3.4-2.8,3.4-4.5h.9c0,2.2-2.1,4.5-4,5.3-.7.3-1.4.4-2.1.4Z"/>
              <path class="cls-6" d="M57.3,51.5c-.3,0-.7,0-1.1,0-1.8-.3-4.3-2-4.2-4.3h.9c-.1,1.7,1.9,3.1,3.4,3.3,2.1.3,3.7-.3,4.8-1.9l.8.5c-1.1,1.6-2.6,2.4-4.6,2.4Z"/>
              <path class="cls-6" d="M42.5,65.5c-1.4,0-2.3-2-2.7-3.8-.3-1.7-.2-3.7,1.2-4.3l.4.9c-.7.3-.9,1.6-.6,3.2.3,1.7,1.1,3,1.8,3v.9Z"/>
              <path class="cls-6" d="M53.5,68.4c-1.1-2.5.4-3.7,2-4.9.5-.4,1.1-.9,1.6-1.4,1.4-1.5,2.9-2,5.3-1.9.4,0,.9,0,1.3.2,1.2.2,2.4.4,3.3-.1.9-.5,1.4-1.3,1.7-2.5.5-2.5-.7-5.8-2.1-7.7l-.2-.3c-1.4-1.7-2.3-3-2.4-5.3,0-.9,0-1.8,0-2.6,0-.8,0-1.7,0-2.5h.9c0,.8,0,1.7,0,2.5,0,.8,0,1.7,0,2.5,0,2.1.9,3.1,2.2,4.8l.2.3c1.5,2,2.9,5.6,2.3,8.4-.3,1.4-1,2.5-2.1,3.1-1.1.6-2.6.4-3.9.2-.4,0-.9-.1-1.3-.2-2.1-.2-3.3.3-4.5,1.6-.6.6-1.2,1.1-1.7,1.5-1.7,1.4-2.5,2.1-1.7,3.8l-.9.4Z"/>
              <path class="cls-6" d="M79.4,67.7h-.9c.1-5.1-3.6-9.1-9.1-9.9v-.9c6.1.8,10.2,5.2,10.1,10.8Z"/>
              <path class="cls-6" d="M85.2,72.7c-1.5,0-2-1.4-2.4-2.5-.1-.3-.2-.5-.3-.7-.6-1.2-.9-1.4-2.3-1.6-1.8-.2-2.2.5-2.8,1.7-.3.7-.7,1.5-1.5,2.1l-.6-.7c.6-.5.9-1.2,1.2-1.8.6-1.2,1.2-2.5,3.7-2.2,1.7.2,2.2.6,3,2.1.1.2.2.5.3.8.4,1.1.8,2,1.6,1.9v.9s0,0,0,0Z"/>
              <path class="cls-6" d="M63.7,91.1c-.8,0-1.4-.4-1.8-1-1.9-2.9,0-11,.5-12.4.4-1.2,1.1-1.7,1.8-2.3.3-.2.6-.5.9-.8,1.1-1.2,1.7-2.6,2-4.9.3-2.8,0-4.6-2.6-6.6l-.3-.2c-1-.7-1.9-1.4-3.1-1.6v-.9c1.5.2,2.6,1,3.6,1.7l.3.2c3,2.2,3.4,4.5,3,7.4-.2,1.8-.7,3.8-2.3,5.4-.3.3-.7.6-1,.9-.7.6-1.2,1-1.5,1.9-.6,1.6-2.2,9.2-.6,11.5.3.4.6.6,1.1.6v.9Z"/>
              <path class="cls-6" d="M71.1,89.8c-1.3-1.4-2-5.4-2.1-6.6-.2-1.5-.4-4.2.7-5.4.3-.3,1-.6,1.7-.9.9-.4,2.1-.8,2.2-1.4,0,0,0-.3-.2-.7l.8-.6c.4.5.5,1,.4,1.5-.3,1-1.6,1.5-2.8,2-.6.2-1.2.5-1.4.7-.9.9-.6,3.5-.5,4.7.2,1.9.9,5.1,1.9,6.1l-.7.6Z"/>
              <path class="cls-6" d="M77.4,75.9c-1.3,0-2.7-.4-4.1-1.2-2-1.1-2.2-2.5-2.5-4,0-.3-.1-.7-.2-1l.9-.2c0,.4.2.7.2,1.1.3,1.4.5,2.5,2.1,3.4,2.1,1.2,4.3,1.4,5.9.5l.5.8c-.8.5-1.7.7-2.7.7Z"/>
              <path class="cls-6" d="M65.2,75c-3.3-1.1-4.5-5.3-4.3-7.8h.9c-.2,2.4,1,6.1,3.7,6.9l-.3.9Z"/>
              <path class="cls-6" d="M68.8,53.1c-.3,0-.5,0-.8-.1l.2-.9c.6.2,1.1,0,1.6-.3.8-.7,1.1-2.1,1-3.2h.9c.1,1.2-.2,2.9-1.3,3.9-.5.4-1,.6-1.6.6Z"/>
              <path class="cls-6" d="M67.2,60.6c-1.4,0-3.1-1.5-3.9-2.5-.9-1-.8-2.1-.8-3.1v-.5s.9,0,.9,0v.5c0,1,0,1.7.6,2.5.9,1.1,2.5,2.4,3.5,2.1l.3.9c-.2,0-.4,0-.6,0Z"/>
              <path class="cls-6" d="M69.9,85.5c-2.8-.4-4.7-.8-6.6-3.6l.8-.5c1.6,2.4,3.1,2.8,5.9,3.2v.9Z"/>
            </g>
            <g>
              <path class="cls-4" d="M30.6,86.4c0,2.5-.5,4.5-1.5,6.1-1,1.5-2.5,2.3-4.4,2.3v-2.7c1.9,0,2.9-1.9,2.9-5.6h-2.9v-5.9h5.9v5.9Z"/>
              <path class="cls-4" d="M52.4,86.4c0,2.5-.5,4.5-1.5,6.1-1,1.5-2.5,2.3-4.4,2.3v-2.7c1.9,0,2.9-1.9,2.9-5.6h-2.9v-5.9h5.9v5.9Z"/>
              <path class="cls-4" d="M38.8,112.5c-.3,0-.7,0-.9-.3l-8.7-5,1.9-3.2,7.6,4.5,10.6-6.9,2.1,3.1-11.5,7.6c-.3.2-.7.3-1,.3Z"/>
            </g>
            <g>
              <path class="cls-9" d="M94.8,55.3l4.2-.2c0,1.3.3,2.2.7,2.7.6.8,1.8,1.1,3.6,1.1s2.5-.3,3.1-.8c.6-.5,1-1.1,1-1.9s-.3-1.2-.8-1.6c-.4-.3-1.4-.8-3.1-1.6-1.7-.7-2.9-1.3-3.7-1.8-.8-.5-1.4-1.1-1.8-1.9-.4-.8-.7-1.7-.7-2.7,0-1.8.7-3.3,2-4.5,1.3-1.2,3.2-1.8,5.7-1.8s4.5.6,5.9,1.8c1.4,1.2,2.2,2.8,2.3,4.7l-4.3.2c-.1-1-.5-1.8-1.1-2.4-.6-.5-1.6-.8-2.8-.8s-2.1.2-2.6.6c-.5.4-.8,1-.8,1.6s.2,1.1.7,1.5c.5.4,1.5,1,3.2,1.7,2.5,1.1,4.1,1.9,4.7,2.6,1,1,1.5,2.2,1.5,3.8s-.8,3.5-2.3,4.9c-1.5,1.3-3.6,2-6.3,2s-3.5-.3-4.8-.9c-1.4-.6-2.3-1.5-2.9-2.6-.6-1.1-.8-2.4-.8-3.8Z"/>
              <path class="cls-2" d="M117.3,46.6h4l-.4,1.9c1.5-1.5,3.2-2.3,4.9-2.3s2.1.2,2.7.7c.6.5,1,1.2,1.2,2,.5-.8,1.3-1.4,2.3-2,1-.5,2.1-.8,3.1-.8s2.2.3,2.9,1c.7.7,1,1.5,1,2.6s-.1,1.5-.4,2.8l-2,9.5h-4.2l2-9.5c.2-1.2.4-1.9.4-2,0-.4-.1-.8-.4-1-.3-.3-.7-.4-1.2-.4-1,0-2,.6-2.8,1.7-.6.8-1.1,2.2-1.5,4.2l-1.5,7.1h-4.2l2-9.4c.2-1.1.3-1.8.3-2.1s-.1-.7-.4-1c-.3-.3-.7-.4-1.2-.4s-.9.1-1.4.4c-.5.3-.9.7-1.3,1.1-.4.5-.7,1.1-.9,1.9-.1.4-.3,1.2-.6,2.4l-1.5,7.2h-4.2l3.3-15.6Z"/>
              <path class="cls-2" d="M146.9,51.1l-4.1-.4c.5-1.4,1.3-2.5,2.5-3.3,1.2-.8,2.7-1.2,4.7-1.2s3.5.4,4.5,1.2c1,.8,1.4,1.8,1.4,3s0,1-.1,1.5c0,.5-.4,1.9-.9,4.2-.4,1.9-.6,3.2-.6,3.9s.1,1.4.4,2.2h-4.1c-.2-.6-.3-1.2-.3-1.8-.6.7-1.3,1.2-2.1,1.6-.8.4-1.6.6-2.4.6-1.3,0-2.4-.4-3.2-1.3-.8-.8-1.3-1.9-1.3-3.3s.5-2.7,1.4-3.6c.9-.9,2.6-1.4,5-1.6,2-.2,3.4-.4,4-.6.2-.6.3-1.1.3-1.4s-.2-.8-.5-1.1c-.4-.3-.9-.5-1.6-.5s-1.4.2-1.8.5c-.4.3-.7.7-.9,1.3ZM150.9,55c-.3,0-.6.1-1,.2-2.1.3-3.5.6-4.1,1.1-.5.4-.7.8-.7,1.4s.2.9.5,1.2c.4.3.8.5,1.4.5s1.2-.2,1.8-.5c.6-.3,1-.7,1.3-1.2.3-.5.5-1.2.7-2.3v-.6Z"/>
              <path class="cls-2" d="M160.7,46.6h3.9l-.6,3c1.5-2.3,3.1-3.4,4.8-3.4s1.3.2,2,.5l-1.6,3.5c-.4-.1-.8-.2-1.2-.2-.7,0-1.5.3-2.2.8-.8.6-1.3,1.3-1.8,2.2-.4.9-.8,2.4-1.3,4.4l-1,4.9h-4.2l3.3-15.6Z"/>
              <path class="cls-2" d="M170.5,49.8l.6-3.1h2.1l.5-2.5,4.8-2.9-1.1,5.4h2.6l-.6,3.1h-2.6l-1.4,6.5c-.2,1.2-.4,1.9-.4,2,0,.3.1.6.3.8.2.2.6.3,1.1.3s.7,0,1.4-.1l-.7,3.1c-.7.1-1.5.2-2.2.2-1.5,0-2.6-.3-3.3-.9-.7-.6-1-1.4-1-2.4s.2-1.6.5-3.3l1.3-6.3h-2Z"/>
              <path class="cls-9" d="M184,62.3h-4.4l4.5-21.6h9.6c1.6,0,2.9.2,3.8.5.9.3,1.7,1,2.2,1.9.6.9.8,2,.8,3.3,0,1.8-.5,3.3-1.6,4.5-1.1,1.2-2.8,1.9-5,2.2.6.5,1.1,1.2,1.6,2,1,1.7,2.1,4.1,3.3,7.1h-4.8c-.4-1.2-1.1-3.1-2.3-5.7-.6-1.4-1.3-2.3-1.9-2.8-.4-.3-1.2-.4-2.2-.4h-1.8l-1.9,8.9ZM186.6,50.1h2.4c2.4,0,4-.1,4.7-.4.8-.3,1.4-.7,1.8-1.3.4-.6.7-1.2.7-1.9s-.3-1.4-1-1.8c-.4-.2-1.2-.4-2.5-.4h-4.9l-1.2,5.8Z"/>
              <path class="cls-2" d="M216.4,55.8h-10.6c0,.2,0,.3,0,.4,0,1,.3,1.9.9,2.5.6.6,1.3,1,2.2,1,1.4,0,2.5-.7,3.3-2.2l3.8.6c-.7,1.5-1.7,2.7-2.9,3.4-1.2.8-2.6,1.1-4.1,1.1s-3.8-.7-5.1-2c-1.3-1.3-2-3.1-2-5.3s.6-4,1.8-5.7c1.6-2.3,3.9-3.4,6.9-3.4s3.4.6,4.6,1.8c1.1,1.2,1.7,2.8,1.7,5s0,1.9-.3,2.8ZM212.9,53.2c0-.2,0-.3,0-.4,0-1.2-.3-2-.8-2.6-.5-.6-1.2-.9-2.1-.9s-1.7.3-2.3,1c-.7.7-1.2,1.6-1.4,2.9h6.6Z"/>
              <path class="cls-2" d="M223.9,51.1l-4.1-.4c.5-1.4,1.3-2.5,2.5-3.3,1.2-.8,2.7-1.2,4.7-1.2s3.5.4,4.5,1.2c1,.8,1.4,1.8,1.4,3s0,1-.1,1.5c0,.5-.4,1.9-.9,4.2-.4,1.9-.6,3.2-.6,3.9s.1,1.4.4,2.2h-4.1c-.2-.6-.3-1.2-.3-1.8-.6.7-1.3,1.2-2.1,1.6-.8.4-1.6.6-2.4.6-1.3,0-2.4-.4-3.2-1.3-.8-.8-1.3-1.9-1.3-3.3s.5-2.7,1.4-3.6c.9-.9,2.6-1.4,5-1.6,2-.2,3.4-.4,4-.6.2-.6.3-1.1.3-1.4s-.2-.8-.5-1.1c-.4-.3-.9-.5-1.6-.5s-1.4.2-1.8.5c-.4.3-.7.7-.9,1.3ZM227.9,55c-.3,0-.6.1-1,.2-2.1.3-3.5.6-4.1,1.1-.5.4-.7.8-.7,1.4s.2.9.5,1.2c.4.3.8.5,1.4.5s1.2-.2,1.8-.5c.6-.3,1-.7,1.3-1.2.3-.5.5-1.2.7-2.3v-.6Z"/>
              <path class="cls-2" d="M249.2,62.3h-4l.4-1.7c-.8.7-1.5,1.3-2.3,1.6-.7.3-1.6.5-2.5.5-1.6,0-2.9-.6-3.9-1.7-1-1.1-1.5-2.7-1.5-4.9s.7-4.8,2.1-6.8c1.4-2,3.3-3,5.6-3s3.7.8,4.7,2.5l1.7-8.1h4.2l-4.5,21.6ZM239.4,55.9c0,1.1.3,2,.8,2.6.6.6,1.3.9,2.1.9s1.5-.3,2.1-.8c.7-.5,1.2-1.3,1.6-2.4.4-1.1.6-2.1.6-3.1s-.3-2-.9-2.7c-.6-.7-1.3-1-2.1-1-1.2,0-2.3.7-3,2.1-.8,1.4-1.2,2.9-1.2,4.5Z"/>
              <path class="cls-2" d="M256.4,46.6h4.2l-3.3,15.6h-4.2l3.3-15.6ZM257.6,40.7h4.2l-.8,3.8h-4.2l.8-3.8Z"/>
              <path class="cls-2" d="M264.8,46.6h4l-.4,2c1-.9,1.9-1.5,2.8-1.8.9-.4,1.8-.6,2.7-.6s2.3.4,3,1.1c.7.7,1.1,1.7,1.1,2.9s-.2,1.6-.5,3.1l-1.8,8.8h-4.2l1.9-8.9c.3-1.3.4-2.1.4-2.4,0-.5-.2-1-.5-1.3-.3-.3-.8-.5-1.3-.5s-1.3.3-2.1.8c-.8.5-1.3,1.2-1.8,2.1-.3.6-.7,1.8-1.1,3.7l-1.3,6.4h-4.2l3.3-15.6Z"/>
              <path class="cls-2" d="M279.7,63.1l4.5.6c0,.5,0,.8.2,1,.1.2.4.4.7.6.3.2.8.2,1.3.2.9,0,1.6-.2,2.1-.5.4-.3.7-.7,1-1.3.2-.4.4-1.2.6-2.5v-.7c-1.3,1.2-2.8,1.8-4.4,1.8s-2.8-.5-3.8-1.6c-1-1.1-1.5-2.7-1.5-4.7s.3-3.5,1-5c.7-1.5,1.6-2.7,2.8-3.5s2.4-1.2,3.7-1.2,2,.3,2.9.8c.9.5,1.5,1.3,2,2.3l.6-2.8h4l-2.7,13c-.4,2.1-.8,3.6-1.1,4.5-.3.9-.7,1.6-1,2.1-.4.5-.9,1-1.5,1.3-.6.4-1.3.6-2.1.8-.8.2-1.7.2-2.6.2-2.2,0-3.9-.4-5-1.1-1.1-.8-1.7-2-1.7-3.8s0-.4,0-.6ZM284.6,55.5c0,1.2.3,2.1.8,2.7.5.6,1.2.9,2,.9s1.4-.3,2.1-.8c.7-.6,1.2-1.4,1.6-2.4.4-1,.6-2,.6-3s-.3-2-.9-2.7c-.6-.7-1.3-1-2.1-1s-1.4.3-2.1.9c-.6.6-1.2,1.5-1.6,2.8-.3,1-.5,1.8-.5,2.6Z"/>
            </g>
            <g>
              <path class="cls-9" d="M96.2,83h3.7c.2,0,.3,0,.3.2v5.3c0,.5,0,.8.2,1.1.1.2.3.4.5.5.3.2.7.3,1.1.4.5,0,1.1.1,1.8.1h4.3c1.7,0,3.7-.2,5.9-.6.1,0,.2,0,.3,0s.2,0,.2,0c-.2.5-.3,1.1-.4,1.6,0,.2-.1.3-.3.3h-10c-.5,0-1,0-1.4-.1-.5,0-.9-.2-1.3-.3-.4-.1-.7-.3-1.1-.6-.2-.2-.5-.6-.7-1.1h0c0,0-.1,0-.2,0-1.3,1-2.1,1.7-2.2,2,0,0,0,.1-.2.1s-.3-.3-.8-1c0-.1-.1-.3-.1-.4.8-.3,1.8-.9,2.9-1.7,0,0,0-.2,0-.4v-4.2h-2.5c-.2,0-.2-.1-.2-.3v-.6c0-.2,0-.3.2-.3ZM97.2,78.1c.7.4,1.3.8,1.7,1.2.5.4,1,.8,1.3,1.1,0,0,0,0,0,.2-.4.6-.6.9-.6.9-.6-.6-1.2-1.1-1.9-1.5-.5-.4-1-.6-1.3-.8,0,0,.2-.4.6-.9,0,0,.1-.1.2-.1ZM97.6,74.1c.7.3,1.3.7,1.7,1,.5.4,1,.7,1.3,1,0,0,0,0-.1.2-.4.6-.6.9-.6.9-.6-.5-1.2-.9-1.8-1.3-.5-.3-.9-.6-1.3-.7,0,0,.2-.4.6-.9,0,0,.1-.1.2-.1ZM107.3,73.5c1,0,1.5,0,1.5.2s0,.3-.2.3c-.1,0-.2.2-.2.4v1h5.4c.1,0,.2,0,.2.2v.6c0,.2,0,.2-.2.2h-3.4l.7.3c.2,0,.3.2.3.3s0,.1-.2.2c-.1,0-.2,0-.2.2-.2.6-.4,1.1-.6,1.5h2.5c.3,0,.4,0,.4.3v9.4c0,.4-.2.7-.6.9-.4.2-.9.3-1.5.3-.1,0-.2,0-.3-.2,0-.3-.2-.7-.5-1.3,0,0,0,0,.1,0,.6,0,.9,0,1-.1.1,0,.2-.2.2-.4v-7.6h-3.6v1.5h2.9c.1,0,.2,0,.2.3v.6c0,.2,0,.3-.2.3h-2.9v1.5h1.8c.2,0,.3,0,.3.3v3.5c0,.2-.1.2-.3.2h-4v.6c0,.2-.1.2-.3.2h-.8c-.2,0-.2,0-.2-.2v-4.3c0-.2,0-.3.2-.3h1.8v-1.5h-2.5c-.1,0-.2,0-.2-.3v-.6c0-.2,0-.3.2-.3h2.5v-1.5h-3.3v9.2c0,.2-.1.3-.3.3h-.8c-.2,0-.3,0-.3-.3v-10.1c0-.2.1-.3.3-.3h2.9c0,0,0-.2-.1-.3-.2-.5-.5-1-.9-1.5,0,0,.3-.3,1-.6.4.5.7,1,.9,1.5.2.3.3.6.4.9h2.2c.3-.4.5-.7.6-1,.3-.4.4-.9.5-1.3h0s-8.2,0-8.2,0c-.1,0-.2,0-.2-.2v-.6c0-.2,0-.2.2-.2h5.3v-1.7c0-.2.1-.2.3-.2ZM106,87h2.9v-1.7h-2.9v1.7Z"/>
              <path class="cls-9" d="M118.6,77.3c1,.2,1.5.4,1.5.5s0,.3-.2.3c-.2.1-.2.3-.3.5-.1,1.4-.3,2.6-.5,3.5-.1.5-.3,1-.5,1.5,0,.1-.1.2-.1.2-.4-.1-.8-.2-1.2-.3-.1,0-.2,0-.2-.2.3-.7.5-1.4.7-2.2.2-.8.4-2,.5-3.5,0-.2,0-.3.2-.3ZM120.7,73.4c1,0,1.5,0,1.5.2s0,.3-.2.3c-.1,0-.2.2-.2.4v17.5c0,.1-.1.2-.3.2h-.8c-.2,0-.3,0-.3-.2v-18.2c0-.2.1-.2.3-.2ZM123.3,77.2c.1,0,.2,0,.2,0,.4.9.7,1.9,1,3,0,.2,0,.3-.1.3-.5.3-.9.5-1.1.5-.3-1.3-.6-2.3-.9-3.2,0-.1.3-.3.9-.6ZM126.3,75l1.4.5c.1.1.2.2.2.3s0,.2-.2.2c-.1,0-.2,0-.2.3-.1.6-.2,1.2-.4,1.6h2.6v-4.2c0-.2.1-.2.3-.2,1,0,1.5,0,1.5.2s0,.3-.2.3c-.1,0-.2.2-.2.4v3.5h4.4c.2,0,.2.1.2.3v.6c0,.2,0,.3-.2.3h-4.4v4.7h4c.2,0,.2.1.2.3v.6c0,.2,0,.3-.2.3h-4v4.9h5c.2,0,.2.1.2.3v.7c0,.2,0,.3-.2.3h-11.7c-.2,0-.2-.1-.2-.3v-.7c0-.2,0-.3.2-.3h5.2v-4.9h-3.9c-.2,0-.2-.1-.2-.3v-.6c0-.2,0-.3.2-.3h3.9v-4.7h-2.9c-.2.6-.4,1.2-.6,1.8-.2.5-.5,1-.7,1.4-.2,0-.3,0-.4,0-.3-.1-.5-.2-.8-.3,0,0-.1,0-.1-.1,0,0,0-.1,0-.2.4-.6.7-1.4,1.1-2.4.2-.5.3-1.1.5-1.7.2-.6.3-1.5.4-2.5,0-.1,0-.2,0-.2Z"/>
              <path class="cls-9" d="M140.6,73.8h6.7c.2,0,.3,0,.3.3v5.7c0,.2-.1.3-.3.3h-5.6v11.7c0,.2-.1.3-.3.3h-.8c-.2,0-.3,0-.3-.3v-17.7c0-.2.1-.3.3-.3ZM141.7,76.4h4.6v-1.4h-4.6v1.4ZM141.7,78.9h4.6v-1.4h-4.6v1.4ZM145.4,81.2l1.2.5c.2,0,.3.2.3.3s0,.1-.3.1c-.3,0-.4,0-.5.1-.4.4-.8.7-1.1,1h7c-.1,0-.2-.2-.3-.3-.3-.3-.6-.6-.7-1,0,0,0,0,0-.1h-2.9c-.2,0-.2-.1-.2-.3v-.6c0-.2,0-.3.2-.3h3.7c.2,0,.3,0,.3.3,0,.3,0,.6.2.8.1.2.3.4.6.6.2.2.6.3,1,.5.3,0,.6.2,1,.2,0,0,.1,0,.1,0s0,0-.2.1c-.2.2-.4.5-.7.7,0,0-.2.1-.4.1-.3,0-.6-.2-.9-.3-.1,0-.2-.1-.3-.2v3.7c0,.2-.1.2-.3.2h-1.7v1.6c0,.5.3.8,1,.8h.8c.1,0,.2,0,.3-.2,0-.1,0-.4,0-1,0,0,0-.1,0-.1.3.2.7.3,1.1.3.2,0,.2,0,.2.2-.1.8-.2,1.3-.4,1.6-.1.2-.3.3-.6.3h-2.1c-1.1,0-1.6-.4-1.6-1.2v-2.4h-1.4c0,.4,0,.7,0,1,0,.4-.2.7-.4,1.1-.1.3-.4.6-.7.9-.3.3-.7.5-1.2.7-.4.1-.8.2-1.3.4-.1,0-.2,0-.2-.2-.2-.2-.4-.5-.5-.8,0,0,0-.1,0-.2.7-.1,1.2-.2,1.6-.3.3-.1.6-.2.8-.4.2-.1.4-.3.5-.5.1-.2.2-.5.3-.8,0-.2,0-.4,0-.8h-1.5c-.2,0-.3,0-.3-.2v-3.7c-.2.1-.3.2-.5.3-.2,0-.3.1-.4.1s-.2,0-.3-.1c-.3-.1-.5-.2-.8-.3-.1,0-.2,0-.2,0,0,0,0,0,.1-.1.6-.3,1.1-.7,1.4-.9.5-.3.8-.7,1.1-1,0-.1.1-.2.2-.2ZM151.2,86.3v-1.8h-5v1.8h5ZM150.1,73.8h6.7c.3,0,.4,0,.4.3v16c0,.7-.2,1.2-.7,1.6-.5.3-1.1.5-1.8.6-.1,0-.2,0-.2-.2,0-.3-.2-.7-.5-1.3,0,0,0-.1.1-.1.8,0,1.3,0,1.4-.2.2-.2.3-.4.3-.8v-9.5h-5.7c-.2,0-.3,0-.3-.3v-5.7c0-.2.1-.3.3-.3ZM151.2,76.4h4.6v-1.4h-4.6v1.4ZM151.2,78.9h4.6v-1.4h-4.6v1.4Z"/>
              <path class="cls-9" d="M161.6,76.9h6.1c.2,0,.2.1.2.3v.6c0,.2,0,.3-.2.3h-6.1c-.2,0-.2-.1-.2-.3v-.6c0-.2,0-.3.2-.3ZM162.1,85.7h5c.2,0,.3,0,.3.2v5.5c0,.2-.1.2-.3.2h-.8c-.2,0-.2,0-.2-.2v-.6h-2.9v1c0,.2-.1.3-.3.3h-.8c-.2,0-.2,0-.2-.3v-5.8c0-.2,0-.2.2-.2ZM162.5,73.9h4.4c.2,0,.2.1.2.3v.6c0,.2,0,.3-.2.3h-4.4c-.2,0-.2-.1-.2-.3v-.6c0-.2,0-.3.2-.3ZM162.5,79.7h4.4c.2,0,.2.1.2.3v.6c0,.2,0,.3-.2.3h-4.4c-.2,0-.2-.1-.2-.3v-.6c0-.2,0-.3.2-.3ZM162.5,82.6h4.4c.2,0,.2,0,.2.3v.7c0,.2,0,.3-.2.3h-4.4c-.2,0-.2,0-.2-.3v-.7c0-.2,0-.3.2-.3ZM163.2,89.5h2.9v-2.6h-2.9v2.6ZM169.7,83.6h8.8c.2,0,.3,0,.3.2v6c0,.2-.1.2-.3.2h-1.9c.4.2.7.4,1.1.6.4.2,1,.4,1.8.6.1,0,.2.1.2.1,0,.1-.3.4-.8,1,0,0-.1,0-.2,0-1.5-.6-2.7-1.2-3.4-1.7,0,0-.1,0-.1-.1,0,0,.1-.2.4-.5h-3c.5.4.7.6.7.7,0,0,0,.1-.2.1-.3,0-.4,0-.4,0-1.1.6-2.2,1.1-3.3,1.5-.1,0-.3,0-.3-.2,0-.2-.2-.3-.4-.5,0,0-.1-.2-.1-.2s0,0,.2-.1c.6-.2,1.2-.4,1.6-.6.5-.2.9-.5,1.4-.8h-2c-.2,0-.3,0-.3-.2v-6c0-.2.1-.2.3-.2ZM168.8,74.8h4.6v-1c0-.1,0-.2.2-.2,1,0,1.4,0,1.4.2s0,.3-.2.3c-.1,0-.2.1-.2.4v.3h4.6c.1,0,.2,0,.2.3v.5c0,.2,0,.3-.2.3h-4.6v.9h3.7c.1,0,.2,0,.2.2v.5c0,.2,0,.3-.2.3h-8.9c-.1,0-.2-.1-.2-.3v-.5c0-.1,0-.2.2-.2h3.8v-.9h-4.6c-.1,0-.2-.1-.2-.3v-.5c0-.2,0-.3.2-.3ZM169,78.6h10.2c.2,0,.3,0,.3.2v3.7c0,.1-.1.2-.3.2h-10.2c-.2,0-.3,0-.3-.2v-3.7c0-.2.1-.2.3-.2ZM171.7,81.9v-2.5h-1.7v2.5h1.7ZM170.7,85.5h6.7v-1h-6.7v1ZM170.7,87.3h6.7v-1h-6.7v1ZM177.4,89.1v-.9h-6.7v.9h6.7ZM174.9,81.9v-2.5h-1.9v2.5h1.9ZM178.2,81.9v-2.5h-2v2.5h2Z"/>
            </g>
            <g>
              <path class="cls-1" d="M297.5,76.7c0,2.1-1.7,3.9-3.9,3.9s-3.9-1.7-3.9-3.9,1.7-3.9,3.9-3.9,3.9,1.7,3.9,3.9ZM293.6,72.2c-2.5,0-4.5,2-4.5,4.5s2,4.5,4.5,4.5,4.5-2,4.5-4.5-2-4.5-4.5-4.5Z"/>
              <path class="cls-1" d="M291.6,79.4v-5.3h2.3c.5,0,.8,0,1.1.1.2,0,.4.3.6.5.1.2.2.5.2.8s-.1.7-.4.9c-.2.3-.6.4-1.1.5.2,0,.3.2.4.3.2.2.4.4.6.7l.9,1.4h-.9l-.7-1.1c-.2-.3-.4-.6-.5-.7-.1-.2-.3-.3-.4-.4-.1,0-.2-.1-.3-.1,0,0-.2,0-.4,0h-.8v2.3h-.7ZM292.3,76.4h1.5c.3,0,.6,0,.7,0,.2,0,.3-.2.4-.3,0-.1.1-.3.1-.5,0-.2,0-.5-.3-.6-.2-.2-.5-.2-.9-.2h-1.7v1.8Z"/>
            </g>
          </g>
        </g>
      </g>
    </g>
  </g>
</svg>