<?xml version="1.0" encoding="utf-8"?>
<!-- Generator: Adobe Illustrator 16.0.0, SVG Export Plug-In . SVG Version: 6.00 Build 0)  -->
<!DOCTYPE svg PUBLIC "-//W3C//DTD SVG 1.1//EN" "http://www.w3.org/Graphics/SVG/1.1/DTD/svg11.dtd">
<svg version="1.1" xmlns="http://www.w3.org/2000/svg" xmlns:xlink="http://www.w3.org/1999/xlink" x="0px" y="0px" width="800px"
	 height="800px" viewBox="0 0 800 800" enable-background="new 0 0 800 800" xml:space="preserve">
<g id="圖層_1" display="none">
	<image display="inline" overflow="visible" width="800" height="800" xlink:href="../../../ebook-1129/image/bg/nopic-bg.png" >
	</image>
</g>
<g id="圖層_2">
	<text transform="matrix(1 0 0 1 38.2603 1275.6309)" font-family="'MicrosoftYaHei'" font-size="160.5">阅读真好</text>
	<g>
		<path fill="#E71E18" d="M511.665,191.097c0.872,1.448,1.792,2.844,2.783,4.179c0.31,0.42,0.801,0.601,1.021,1.089
			c0.681,1.508,1.316,3.065,1.958,4.615h31.166c2.205-1.907,4.416-3.797,6.69-5.485c0.586-0.436,2.481,0.848,2.494,1.414
			c0.037,1.43-0.045,2.907-0.44,4.071h8.764c-0.156-0.085-0.289-0.195-0.453-0.268c-0.722-0.318-1.415-2.168-1.623-3.495
			c-0.265-1.701-0.024-3.585,0-5.388c0.788,0.909,1.565,1.836,2.365,2.722c0.769,0.855,1.49,2.121,2.349,2.413
			c1.755,0.596,2.783,2.161,3.6,4.016h39.676v28.238c0.705-0.411,1.586-0.691,2.273-1.117c-0.128,1.38,0.053,3.131-0.435,4.076
			c-1.83,3.552-0.143,5.414,1.495,6.33c1.341,0.748,2.354,1.793,3.122,3.096V192.63c-0.711-0.517-1.425-1.031-2.142-1.534H595.24
			c-0.655,0.866-1.179,1.601-1.746,2.187c-0.077,0.078-0.518-0.679-0.792-1.049c0.234-0.387,0.481-0.752,0.721-1.138h-63.212
			c-0.034,0.426-0.07,0.853-0.108,1.28c-0.404-0.104-0.812-0.206-1.22-0.307l0.13-0.973H511.665z M493.265,599.667
			c0.564,0.535,1.064,2.803,0.779,3.608c-0.705,1.986-0.977,3.841-1.008,5.628h69.908c0.236-0.311,0.497-0.599,0.742-0.899
			c0.139,0.284,0.361,0.613,0.499,0.899h54.285v-9.438c-1.481-1.52-2.981-4.875-2.587-6.723c0.132-0.621,1.055-1.493,1.118-1.407
			c0.491,0.681,0.981,1.404,1.469,2.117v-102.96c-0.511-0.919-1.22-1.798-1.309-2.804c-0.122-1.389,0.36-2.902,0.821-5.922
			c0.175,0.404,0.329,0.719,0.487,1.055v-83.746c-0.398,0.393-0.868,0.834-1.368,0.906c-0.838,0.121-2.189-0.07-2.513-0.879
			c-0.896-2.246-1.747-4.537-2.575-6.848v39.197c0.443-0.617,0.927-1.176,1.436-1.628c0.187-0.167,0.875,0.978,1.644,1.89
			c-1.166,1.56-2.022,2.705-2.878,3.852c-0.053-0.142-0.133-0.306-0.201-0.465v79.822c0.973,0.629,1.929,1.315,2.891,1.985
			c-0.04,0.424-0.082,0.844-0.122,1.266c-0.702,0.329-1.613,1.242-2.07,0.864c-0.253-0.206-0.466-0.524-0.698-0.788v5.258
			c0.301,0.306,0.586,0.603,0.948,0.957c-0.38,0.485-0.697,0.979-0.948,1.331v73.223h-119.57
			C492.726,599.214,493.005,599.419,493.265,599.667z M355.407,200.98c1.156-2.501,2.323-4.988,3.436-7.528
			c1.691-3.856,4.034-1.591,5.615-0.686c2.051,1.169,0.556,3.716-0.16,5.785c-0.323,0.932-0.68,1.727-1.066,2.429h58.721
			c-1.386-2.479-3.142-3.653-5.32-4.211c-1.561-0.399-3.324-2.901-4.466-5.672h-30.809c0.373,1.466,0.246,3.968-0.324,5.059
			c-0.636,1.218-2.47,1.727-3.597,1.329c-0.798-0.283-1.55-2.472-1.86-4.026c-0.153-0.771-0.284-1.556-0.406-2.361h-32.12
			c0.742,1.502,1.479,3.011,2.17,4.568c0.947,2.14,0.708,4.076-0.379,5.315H355.407z M504.268,194.021
			c-0.353,0.188-1.053-0.55-1.418-1.121c-0.382-0.603-0.765-1.204-1.149-1.803h-36.842c0.978,0.944,2.011,1.824,2.896,2.914
			c1.211,1.485,2.349,3.228,3.221,5.167c0.146,0.321,0.061,1.075-0.124,1.803h40.418c-0.356-0.497-0.674-1.046-0.897-1.599
			C508.936,195.816,507.721,192.182,504.268,194.021z M612.015,381.279c1.087,1.77,1.955,3.881,2.824,5.941
			c1.156,2.738,2.235,5.554,3.33,8.354c0.102,0.264,0.183,0.55,0.302,1.006V247.508c-2.491-1.313-4.497-3.861-6.456-6.697v68.658
			c0.27,0.37,0.479,0.742,0.477,1.108c-0.003,0.548-0.201,1.101-0.477,1.728V381.279z M613.697,348.375
			c0.789-1.617,1.577-3.233,2.892-5.922C617.034,346.783,616.379,348.563,613.697,348.375z M615.309,334.743
			c0.321,0.538,0.973,1.247,0.901,1.59c-0.308,1.436-0.835,2.765-1.575,5.038c-0.755-1.742-1.461-2.861-1.333-3.17
			C613.833,336.915,614.617,335.874,615.309,334.743z M343.798,599.02h-19.205c0.282,1.671,0.326,4.15,0.384,8.035
			c-2.024-3.002-2.096-9.036-5.73-5.952c-0.212-0.693-0.421-1.389-0.631-2.083h-33.87c-0.106,0.152-0.217,0.301-0.323,0.408
			c-2.513,2.479-5.052,4.902-7.671,7.094c-0.578,0.48-1.638,0.264-2.25-0.258c-0.417-0.354-0.701-1.874-0.591-2.739
			c0.19-1.503,0.393-3.01,0.62-4.505h-82.754c-0.015,0.026-0.026,0.045-0.037,0.071c-0.008-0.026-0.014-0.045-0.022-0.071h-3.736
			v-47.474c-0.467,1.849-1.029,3.792-1.697,6.234c-0.694-1.58-1.267-2.348-1.171-2.76c0.556-2.446,1.267-4.812,1.924-7.205
			c0.259,0.293,0.639,0.647,0.944,0.964v-91.426c-0.314,1.436-0.669,2.864-0.817,4.339c-0.403,4.023-1.267,7.291-4.095,8.396
			c-0.008,0.05-0.014,0.098-0.019,0.146l-0.154,0.12l0.084-0.224c0.032-0.01,0.058-0.03,0.088-0.043
			c0.843-5.895,1.593-11.827,2.622-17.646c0.196-1.123,1.489-1.796,2.291-2.671v-38.494c-0.176-0.508-0.287-0.991-0.242-1.315
			c0.04-0.279,0.146-0.543,0.242-0.811V200.98h129.394c-0.349-2.781-0.705-5.56-1.055-8.339c0.329-0.148,0.658-0.298,0.989-0.446
			c1.757,2.518,2.664,5.274,0.97,8.786h8.724c2.019-1.547,4.858-1.489,7.003,0h7.867c-0.294-0.725-0.467-1.702-0.642-2.647
			c-0.451-2.422-0.944-4.828-1.427-7.236H181.524v90.967c0.487,0.591,1.086,1.374,1.724,2.075c-0.689,1.021-1.23,2.039-1.724,2.842
			v20.989c0.207-0.362,0.413-0.723,0.575-1.085c0.496,1.131,1.381,2.244,1.399,3.391c0.034,2.254-0.413,4.525-0.66,6.79
			c-0.421,0.045-0.844,0.089-1.261,0.134c-0.017-0.12-0.038-0.24-0.054-0.359v105.853c0.684,0.197,1.367,0.394,2.051,0.591
			c0.043,0.422,0.086,0.844,0.13,1.266c-0.724,0.527-1.455,1.029-2.181,1.551v11.331c0.483,1.061,0.499,1.838,0,2.637v63.092
			c1.219,1.263,2.82,2.248,1.441,5.553c-0.476-0.488-0.958-0.966-1.441-1.444v66.222c0.878-1.354,1.754-2.712,2.629-4.067
			c0.949,1.536,1.9,3.072,2.852,4.607c-0.859,1.043-1.715,2.087-2.874,3.497c-1.044-1.241-1.836-2.181-2.608-3.098v34.475h21.778
			c0.958-0.758,1.956-1.282,2.856-1.319c0.276,0.243,0.854,0.744,1.517,1.319h13.025c-1.044-1.058-2.078-2.131-3.012-3.384
			c-0.706-0.952-0.94-2.721-1.389-4.12c0.997-0.438,1.983-1.095,3-1.229c0.633-0.083,1.326,0.578,1.97,0.981
			c3.215,1.998,6.446,3.936,9.614,6.094c0.646,0.337,1.304,0.994,1.958,1.658h110.439c-1.104-2.148-2.558-3.096-4.948-1.062
			c-0.581,0.496-1.652-0.367-2.498-0.6c0.274-1.116,0.343-2.871,0.846-3.246C339.064,602.23,341.449,600.602,343.798,599.02z
			 M332.724,191.162c0.885,1.609,1.574,2.868,2.269,4.13c-0.389,0.448-0.962,1.409-1.14,1.263c-1-0.835-1.906-1.939-2.844-2.949
			C331.446,192.985,331.881,192.364,332.724,191.162z M185.543,350.313c0.413,0.348,0.832,0.697,1.246,1.049
			c-0.536,1.183-1.056,2.383-1.639,3.51c-0.032,0.066-0.848-0.664-0.832-0.713C184.689,352.852,185.118,351.586,185.543,350.313z
			 M182.542,533.193c-0.268-0.646-0.647-1.257-0.753-1.959c-0.048-0.297,0.565-1.208,0.729-1.127
			c0.423,0.207,0.766,0.812,1.449,1.625C183.29,532.428,182.919,532.81,182.542,533.193z M625.739,520.979
			c1.298-0.608,2.598-1.225,3.896-1.84c0.558,3.467,1.404,6.911,1.519,10.415c0.046,1.315-1.466,3.233-2.536,4.035
			c-1.666,1.247-1.84-1.008-2.379-2.874c-0.147-0.512-0.326-1.007-0.5-1.503v78.174c0.09,0.117,0.206,0.203,0.275,0.342
			c0.249,0.53,0.129,1.466,0.143,2.257c0.021,0.014,0.046,0.021,0.068,0.036c0.038,0.037,0.078,0.073,0.118,0.11
			c0.074-0.005,0.15,0,0.217,0.034c1.044,0.535,2.078,1.087,3.117,1.635c-0.133,0.351-0.265,0.702-0.397,1.053
			c-0.981-0.906-1.959-1.816-2.937-2.722c-0.063,0.002-0.128,0.008-0.188,0.003c-0.002-0.046,0.002-0.101,0.002-0.149
			c-0.132-0.079-0.275-0.148-0.418-0.216v10.256h-73.668c-0.519,1.854-1.16,3.727-2.004,6.347c-1.098-2.007-2.036-3.491-1.961-3.621
			c0.541-0.951,1.123-1.848,1.717-2.726h-54.296c0.074,0.191,0.141,0.384,0.212,0.577c1.458,3.984,2.009,8.718,3.244,12.924
			c0.298,1.007,0.639,1.98,0.955,2.975h76.408c2.306-3.034,5.113-5.446,7.576-8.287l1.276,2.177c-1.352,2.035-2.675,4.119-4.05,6.11
			H636.5v-78.979c-0.58-1.42-1.292-2.831-1.746-4.319c-0.391-1.282-0.329-2.883-0.472-4.339c0.742,0.495,1.492,0.959,2.218,1.501
			v-54.208c-3.875-7.006-6.795-15.259-10.761-22.494V520.979z M571.747,632.104c-0.617-0.733-0.988-1.174-1.356-1.612
			c0.496-0.613,0.952-1.35,1.515-1.77c0.189-0.144,0.635,0.508,0.965,0.796C572.545,630.264,572.223,631.011,571.747,632.104z
			 M633.284,600.497c0.688-0.715,1.547-1.031,2.328-1.532c0.205,1.669,0.947,3.915,0.5,4.891c-1.006,2.203-2.603,3.778-4.451,6.278
			c-2.013-2.516-3.922-3.911-4.734-6.211c-0.719-2.043-0.377-5.122-0.17-7.681c0.069-0.844,1.172-1.49,1.802-2.227
			c0.361,0.994,0.876,1.929,1.05,2.993C630.102,600.093,630.267,603.624,633.284,600.497z M435.14,200.98h20.255
			c0.679-3.339,1.396-6.658,2.244-9.883h-38.875c0.437,0.545,0.882,1.074,1.311,1.629c3.689,4.781,8.646,4.061,12.76,6.939
			C433.491,200.124,434.436,200.456,435.14,200.98z M502.653,163.5c-0.131,0.691-0.26,1.383-0.394,2.067
			c-0.699,3.59-0.215,5.91,1.838,8.189c1.364,1.52,2.699,3.83,3.292,6.218h13.239c-0.143-0.868-0.157-1.976-0.534-2.406
			c-1.162-1.32-2.707-1.908-3.764-3.363c-1.023-1.409-1.938-3.393-2.294-5.38c-0.151-0.838,1.393-3.468,1.938-3.32
			c2.205,0.596,4.554,1.41,6.39,3.231c1.202,1.192,1.608,4.256,2.617,7.208c-0.733,1.311-1.335,2.947-2.108,4.03h14.469
			c-0.296-0.509-0.659-1.006-1.174-1.478c-1.008-0.929,0.827-5.364,2.274-5.401c2.602-0.065,4.466,3.215,4.27,6.879h34.992
			c0.259-2.809,0.407-5.067,0.861-7.129c0.325-1.474,1.27-3.21,2.166-3.611c0.626-0.28,2.246,1.348,2.358,2.392
			c0.196,1.787-0.08,4.272-0.822,5.579c-0.619,1.09-1.507,1.871-2.581,2.769h15.569c-1.171-0.369-2.337-0.75-3.533-1.026
			c-0.845-0.196-1.502-2.327-2.244-3.559c1.224-1.594,2.449-3.191,3.673-4.789c4.066,2.672,7.512,4.833,10.899,7.191
			c1.002,0.699,1.983,1.47,2.985,2.182h18.703v11.702c2.216,1.858,4.607,3.235,6.865,4.994c0.662,0.515,1.093,1.738,1.627,2.638
			c-0.763,0.76-1.486,2.012-2.298,2.16c-0.989,0.181-2.149-0.26-3.059-0.964c-1.044-0.812-2.089-1.616-3.136-2.422v31.235
			c0.921-0.879,1.871-1.64,2.867-2.116c2.215-1.059,4.167-1.915,4.963-5.727c0.154-0.733,1.086-1.523,1.635-1.482
			c0.379,0.028,0.74,1.004,1.296,2.081V163.5H502.653z M550.772,170.251c-0.842,1.653-1.732,3.331-2.804,4.605
			c-0.604,0.724-1.612,0.663-2.438,0.955c0.014-1.174-0.293-2.755,0.09-3.45c1.505-2.737,3.181-5.277,4.92-7.678
			c0.285-0.399,1.189,0.241,2.255,0.517C551.923,167.417,551.441,168.943,550.772,170.251z M617.835,177.694
			c-0.113-2.106-0.228-4.21-0.34-6.316l0.844-0.361c0.186,2.063,0.387,4.126,0.509,6.2
			C618.854,177.329,618.19,177.533,617.835,177.694z M494.349,631.79c-0.024-4.464-1.314-8.123-2.611-11.766H328.742
			c0.854,5.219,0.779,5.24,3.79,2.938c0.727-0.556,1.475-1.046,2.211-1.565c0.302,0.511,0.605,1.022,0.907,1.533
			c-1.609,2.083-3.115,4.429-4.888,6.107c-0.613,0.583-2.062-0.098-2.831-0.888c-1.246-1.288-2.365-2.99-3.304-4.804
			c-0.429-0.838-0.906-2.346-1.081-3.322h-29.454c-0.002,0.001-0.005,0.003-0.005,0.006c-0.003-0.003-0.006-0.005-0.006-0.006
			h-12.903c2.134,2.445,4.438,3.998,7.798,1.657c-2.146,3.627-4.103,6.325-6.979,2.229c-0.649-0.923-1.753-1.225-2.685-1.531
			c-2.049-0.669-3.049-1.1-3.478-2.354h-72.565c-0.14,0.882-0.541,1.401-1.569,0.864c-0.291-0.154-0.589-0.472-0.87-0.864h-25.33
			c-1.177,1.303-2.346,2.637-3.586,3.791c-1.882,1.751-3.84,3.319-5.797,4.878c-0.857,0.687-1.742,1.294-2.619,1.92v5.887h41.769
			c-2.624-4.893-6.69-4.572-10.44-5.711c-0.946-0.288-2,0.143-2.912-0.256c-0.924-0.4-1.736-1.415-2.6-2.161
			c0.745-1.412,1.469-3.969,2.237-4.001c1.679-0.072,3.613,0.584,5.013,1.966c1.689,1.662,3.006,1.834,4.97,1.233
			c2.966-0.907,6.093-0.657,9.155-0.714c2.094-0.039,2.686,2.349,2.349,4.834c-0.414,3.011,0.085,4.29,1.075,4.81h11.44
			c0.118-1.446,0.449-3.098,0.888-4.008c1.1-2.269,2.585-1.283,3.796,0.947c0.633,1.164,1.922,1.432,2.765,2.405
			c0.185,0.211,0.379,0.432,0.572,0.655h34.904c0.144-0.657,0.278-1.32,0.419-1.978c0.286-0.104,0.573-0.207,0.858-0.309
			c0,0.759,0.012,1.521,0.022,2.286h175.199c-1-1.299-1.998-2.597-2.995-3.893c0.281-0.552,0.566-1.102,0.849-1.654
			c1.188,1.433,2.375,2.862,3.56,4.295c-0.204,0.417-0.406,0.834-0.609,1.252h50.568c-0.124-0.377-0.249-0.757-0.362-1.136
			C495.594,634.045,494.356,632.982,494.349,631.79z M237.599,634.413c-0.223-0.405-1.243-2.12-1.195-2.2
			c1.495-2.289,3.081-4.446,4.73-6.471c0.058-0.073,1.309,1.349,1.343,2.14C242.623,631.303,240.436,634.556,237.599,634.413z
			 M294.782,630.546c-0.313-0.624-0.593-1.183-0.872-1.74c0.354-0.213,0.768-0.715,1.046-0.576c0.404,0.199,0.705,0.862,1.05,1.329
			C295.67,629.828,295.333,630.1,294.782,630.546z M360.929,631.308c-0.335-0.082-0.67-0.161-1.004-0.24
			c0.148-2.475,0.217-4.966,0.493-7.407c0.062-0.546,0.822-0.911,1.262-1.36c0.236,0.819,0.758,1.74,0.652,2.436
			C361.989,626.972,361.415,629.123,360.929,631.308z M372.621,635.737c-0.58-1.006-1.661-2.068-1.617-3.005
			c0.064-1.302,0.971-2.509,1.518-3.756c0.609,0.731,1.215,1.467,2.183,2.631C373.798,633.405,373.21,634.571,372.621,635.737z
			 M381.193,628.219c-0.557-0.71-0.985-1.645-1.458-2.505c0.414-0.377,0.929-1.186,1.226-1.032c0.525,0.265,0.922,1.128,1.626,2.089
			C381.915,627.485,381.286,628.339,381.193,628.219z M452.688,630.905c-1.282-0.094-2.565-0.307-3.848-0.497l0.383-2.473
			c1.232,0.454,2.469,0.9,3.688,1.432C452.935,629.377,452.752,630.909,452.688,630.905z M460.052,627.874
			c-0.607-2.075-1.215-3.23-1.036-3.706c0.554-1.486,1.401-2.718,2.134-4.049c0.345,0.761,1.081,1.742,0.961,2.239
			C461.727,623.96,461.023,625.379,460.052,627.874z M634.407,226.697c-2.666,2.962-5.45,5.678-8.186,8.49
			c-0.16,0.165-0.321,0.393-0.482,0.592v14.807c0.43,0.917,0.802,2.145,1.229,3.891c0.257,1.063,0.146,2.337,0.207,3.514
			c-0.435-0.081-0.96-0.045-1.437-0.068v211.045c2.058-0.269,3.587,0.997,4.798,3.951c1.978,4.819,3.954,9.64,5.963,14.427v-99.683
			c-0.185,0.014-0.373,0.023-0.525-0.014c-0.476-0.113-1.239-2.023-1.095-2.791c0.454-2.465,1.013-4.889,1.62-7.283V252.111
			c-1.043-1.641-2.062-3.332-3.085-5.01c0.291-0.334,0.615-1.005,0.87-0.95c0.923,0.203,1.638,0.72,2.215,1.472v-24.598
			C635.785,224.411,635.208,225.808,634.407,226.697z M392.813,606.56c0.918-2.58,1.924-5.092,2.986-7.54h-16.444
			c-0.159,0.402-0.313,0.789-0.462,1.169c-0.349-0.383-0.693-0.785-1.046-1.169h-20.053c-0.562,0.061-1.125,0.145-1.689,0.202
			c-0.249,0.025-0.501-0.066-0.758-0.202h-4.684c0.006,0.01,0.016,0.019,0.021,0.03c0.247,0.8-0.398,3.026-1.02,3.538
			c-2.049,1.675-2.673,3.838-2.553,6.315h45.391C392.528,608.055,392.576,607.227,392.813,606.56z M418.918,608.471
			c0.095,0.148,0.196,0.288,0.295,0.433h69.688c-0.341-2.37-0.582-4.782-0.779-7.178c-0.069-0.857,0.18-1.779,0.462-2.706h-29.063
			c0.466,0.692,0.933,1.368,1.41,1.971c-0.086,0.446-0.17,0.892-0.257,1.336c-1.583-0.454-3.185-0.783-4.74-1.392
			c-1.434-0.56-2.848-1.268-4.267-1.915h-4.774c-0.313,0.755-0.405,1.945-0.217,3.73c0.508,4.842-0.128,5.348-2.99,3.286
			c-1.617-1.164-3.227-2.348-4.849-3.527c0.057-0.203,0.088-0.73,0.263-0.88c1.039-0.904,2.097-1.753,3.149-2.609h-41.822
			c1.669,3.018,4.378,3.192,7.04,3.531c0.036,0.688,0.08,1.378,0.121,2.067c-1.135,0.104-2.401,0.764-3.374,0.209
			c-3.732-2.123-6.947-2.732-9.08,3.944c-0.02,0.052-0.067,0.081-0.088,0.132h23.631
			C418.76,608.755,418.839,608.625,418.918,608.471z M171.234,617.771c-0.021-0.046-0.042-0.092-0.064-0.136
			c-1.483-0.39-3.392,0.233-3.631-3.249c-0.044-0.655,0.721-1.44,1.114-2.167c0.84,1.806,1.68,3.611,2.518,5.416
			c0.048,0.013,0.098,0.017,0.144,0.03l-0.074,0.118c1.007,0.268,2.015,0.537,3.021,0.806v-16.54
			c-1.251,0.003-2.54,0.274-3.742-0.099c-0.748-0.233-1.363-1.446-2.041-2.219c0.609-0.745,1.229-2.149,1.82-2.118
			c1.334,0.065,2.696,0.539,3.962,0.212v-42.717c-0.281-0.634-0.567-1.267-0.824-1.924c-0.029-0.069,0.453-0.709,0.824-1.135
			V445.859c-0.49,0.235-1.002,0.454-1.566,0.629c0.521-2.154,1.031-4.314,1.566-6.463v-8.315c-0.207-0.079-0.393-0.165-0.652-0.218
			c-0.427-0.085-0.779-1.016-1.166-1.557c0.604-0.914,1.211-1.822,1.818-2.737v-76.739c-0.039-0.023-0.072-0.047-0.111-0.067
			c-0.938,0.788-1.996,1.661-3.042,2.569c-0.939,0.818-1.827,2.164-2.81,2.352c-0.701,0.134-1.527-1.268-2.296-1.986
			c0.53-0.779,0.97-1.884,1.601-2.284c2.205-1.397,4.421-2.746,6.658-4.03V203.474c-0.126,0.103-0.244,0.231-0.369,0.328
			c-0.439,0.338-2.931-3.187-2.762-3.776c0.719-2.497,1.779-4.8,3.13-7.822v-12.229h42.57c0.021-0.3,0.052-0.603,0.125-0.891
			c0.443-1.74,1.237-3.35,2.064-4.754c0.684-1.161,1.647-1.938,2.486-2.885c0.334,1.274,0.558,2.654,1.023,3.802
			c0.625,1.532,1.305,3.042,2.073,4.729h19.048c0.026-1.076,0.135-2.261,0.116-3.278c0.978,0.597,2.028,1.017,2.92,1.834
			c0.481,0.438,0.95,0.929,1.427,1.444h123.012c-1.706-4.278-5.243-7.175-4.118-14.996c2.95,5.703,6.149,5.659,9.558,4.472
			c0.911-0.316,2.075-0.568,2.805,0.04c0.669,0.558,1.246,2.352,1.204,3.542c-0.027,0.679-1.343,1.367-2.135,1.808
			c-0.318,0.176-0.803-0.248-1.19-0.481c-2.81-1.697-4.235-0.351-4.313,4.375c-0.008,0.411-0.122,0.821-0.297,1.241h122.849
			c-1.444-3.004-2.865-6.039-4.379-8.96c-0.459-0.886-1.493-1.17-2.302-1.493c-0.338-0.134-0.811,0.607-1.174,0.511
			c-1.378-0.353-2.731-0.887-4.098-1.354c0.896-1.799,1.566-4.458,2.74-5.178H451.82c0.054,0.365,0.107,0.729,0.16,1.095
			c-2.203,0.902-4.388,2.003-6.627,2.585c-0.631,0.164-1.431-1.187-2.154-1.844c0.356-0.538,0.702-1.323,1.059-1.835h-42.695
			c1.277,2.55,2.57,5.083,3.843,7.641c0.663,1.335,1.532,2.596,1.846,4.114c0.234,1.15-0.258,2.656-0.425,4.002
			c-0.71-0.469-1.739-0.634-2.068-1.456c-1.327-3.332-3.239-1.352-4.892-1.55c-1.942-0.232-3.193-0.952-1.454-4.088
			c1.538-2.771,1.413-5.574,0.533-8.664h-11.167c0.22,0.314,0.407,0.614,0.387,0.666c-0.504,1.295-1.153,2.464-1.982,4.11
			c-0.784-1.283-1.195-1.954-1.606-2.624c0.554-0.726,1.1-1.467,1.67-2.151h-79.032c-0.461,0.575-0.912,1.095-1.272,0.974
			c-0.589-0.201-1.153-0.566-1.712-0.974h-73.721l0.407,1.277c0.912-0.333,1.817-0.828,2.742-0.947
			c0.813-0.107,1.651,0.205,2.481,0.331c-0.429,1.242-0.679,3.249-1.313,3.587c-2.329,1.247-4.773,2.038-7.209,2.665
			c-0.204,0.052-1.168-3.268-0.957-3.544c1.047-1.363,2.322-2.314,3.542-3.369h-34.497c0.575,1.587,1.146,3.182,1.824,4.603
			c0.356,0.738-0.037,3.129-0.588,3.839c-0.541,0.698-1.861,0.68-2.598,0.164c-1.108-0.772-2.11-2.093-2.974-3.455
			c-1.084-1.709-2.163-3.434-3.245-5.152H163.5v36.275c3.78-1.718,6.897-6.383,10.613-9.764c-0.249,1.94-0.19,2.757-0.429,3.136
			c-2.92,4.647-6.446,8.65-6.786,15.955c-0.012,0.287-1.838,0.707-2.768,0.489c-0.211-0.048-0.417-0.166-0.63-0.235v49.996
			c1.076,0.326,2.195,0.551,3.297,0.84c0.515,0.136,1.008,0.686,1.453,1.166c0.185,0.203,0.225,0.729,0.196,0.623
			c-1.787,1.038-3.447,1.776-4.946,2.807v130.932c0.366,0.016,0.729,0.051,1.108,0.035c0.636-0.031,1.303,1.539,1.956,2.366
			c-0.637,0.638-1.227,1.665-1.914,1.843c-0.379,0.097-0.769,0.178-1.15,0.266v10.99c0.214,0.169,0.439,0.345,0.657,0.514
			c-0.096,0.463-0.19,0.927-0.286,1.391H163.5v20.24c0.573-0.664,1.15-1.231,1.76-1.314c2.213-0.303,5.095,3.661,5.007,7.395
			c-0.681,0.585-2.155,2.641-2.688,2.174c-1.471-1.287-2.776-3.017-4.079-4.743v103.255c0.954-1.111,1.828-2.45,2.656-4.026
			c0.413-0.8,1.413-0.887,2.142-1.303c0.185,1.12,0.578,2.264,0.524,3.354c-0.179,3.687-1.036,6.581-3.867,7.065
			c-0.483,0.081-0.974,0.24-1.455,0.41v22.735c0.753,3.743,1.347,7.574,1.627,11.587c0.271,3.792,1.83,7.371,2.804,11.045
			l-1.481,1.255c-0.877-2.631-1.948-5.156-2.584-7.918c-0.148-0.643-0.244-1.318-0.366-1.976v16.889
			c0.254,0.439,0.461,0.805,0.439,0.84c-0.141,0.223-0.299,0.447-0.439,0.669v26.859c0.535-0.617,1.081-1.211,1.598-1.862
			C167.168,623.143,169.194,620.438,171.234,617.771z M393.694,172.69c0.066-0.088,0.557,0.585,1.087,1.169
			c-0.487,0.68-0.806,1.278-1.22,1.589c-0.113,0.087-0.769-0.83-0.719-1.021C393.007,173.766,393.334,173.154,393.694,172.69z
			 M361.432,175.78c0.661-0.154,1.393,0.409,2.813,0.921c-1.153,1.125-1.665,2.025-2.152,1.999
			c-0.698-0.034-1.379-0.752-2.067-1.179C360.492,176.909,360.918,175.9,361.432,175.78z M339.361,163.975
			c0.146-0.163,0.89,0.938,1.357,1.454c-1.227,2.13-2.454,4.262-3.762,6.531c-1.237-1.268-1.746-1.79-2.26-2.313
			C336.238,167.725,337.749,165.752,339.361,163.975z M327.179,170.371c0.126,0.047,0.329,0.024,0.376,0.146
			c0.806,1.976,1.59,3.97,2.38,5.958c-0.36,0.222-0.97,0.753-1.044,0.618c-0.988-1.871-1.903-3.83-2.836-5.771
			C326.431,171.005,326.802,170.689,327.179,170.371z M170.644,295.881c0.708,1.529,1.583,2.953,2.038,4.641
			c0.194,0.709-0.499,1.98-1.217,4.492c-0.846-3.189-1.445-4.958-1.741-6.839C169.627,297.559,170.314,296.654,170.644,295.881z
			 M497.309,172.907c0.918-3.212,1.888-6.269,2.317-9.407h-4.793c0.283,1.063,0.552,2.14,0.849,3.189
			C496.253,168.74,496.77,170.833,497.309,172.907z"/>
		<text transform="matrix(1 0 0 1 242.5698 354.918)"><tspan x="0" y="0" fill="#E71E18" font-family="'MicrosoftYaHei-Bold'" font-size="149.9345" letter-spacing="7">閱讀</tspan><tspan x="0" y="179.921" fill="#E71E18" font-family="'MicrosoftYaHei-Bold'" font-size="149.9345" letter-spacing="7">真好</tspan></text>
	</g>
</g>
</svg>
