<?xml version="1.0" encoding="utf-8"?>
<!-- Generator: Adobe Illustrator 16.0.0, SVG Export Plug-In . SVG Version: 6.00 Build 0)  -->
<!DOCTYPE svg PUBLIC "-//W3C//DTD SVG 1.1//EN" "http://www.w3.org/Graphics/SVG/1.1/DTD/svg11.dtd">
<svg version="1.1" xmlns="http://www.w3.org/2000/svg" xmlns:xlink="http://www.w3.org/1999/xlink" x="0px" y="0px" width="800px"
	 height="800px" viewBox="0 0 800 800" enable-background="new 0 0 800 800" xml:space="preserve">
<g id="圖層_1" display="none">
	<image display="inline" overflow="visible" width="800" height="800" xlink:href="../../../ebook-1129/image/bg/nopic-bg.png" >
	</image>
</g>
<g id="圖層_2">
	<text transform="matrix(1 0 0 1 38.2603 1275.6309)" font-family="'MicrosoftYaHei'" font-size="160.5">阅读真好</text>
	<g>
		<path fill="#1C9CD4" d="M449.838,631.244c-16.914,3.645-35.84-14.953-52.452-15.152c-17.143-0.207-36.529,17.809-52.815,13.859
			c-16.54-4.014-25.526-28.98-40.624-36.496c-15.164-7.549-40.484,0.322-53.608-10.387c-13.063-10.658-10.435-37.016-20.904-50.436
			c-10.312-13.215-36.567-17.053-43.815-32.585c-7.026-15.059,6.795-37.607,3.152-54.523c-3.646-16.914-25.531-31.768-25.332-48.387
			c0.207-17.143,22.555-31.455,26.505-47.74c4.017-16.543-9.236-39.479-1.724-54.572c7.549-15.164,33.863-18.42,44.575-31.547
			c10.66-13.064,8.562-39.514,21.985-49.988c13.211-10.308,38.296-1.874,53.831-9.122c15.06-7.024,24.641-31.768,41.555-35.412
			c16.917-3.645,35.837,14.953,52.453,15.152c17.141,0.207,36.53-17.807,52.813-13.857c16.542,4.016,25.531,28.982,40.623,36.495
			c15.164,7.549,40.486-0.319,53.612,10.389c13.063,10.659,10.431,37.017,20.902,50.438c10.308,13.215,36.571,17.049,43.815,32.584
			c7.024,15.059-6.796,37.609-3.151,54.523c3.645,16.916,25.527,31.773,25.326,48.388c-0.202,17.142-22.555,31.456-26.502,47.739
			c-4.018,16.541,9.238,39.479,1.721,54.574c-7.544,15.161-33.861,18.417-44.569,31.542c-10.66,13.063-8.565,39.518-21.987,49.986
			c-13.211,10.311-38.296,1.877-53.831,9.125C476.335,602.857,466.75,627.602,449.838,631.244z"/>
		<path fill="#EBBA18" d="M399.999,636.551c-17.302,0-31.88-22.164-48.083-25.859c-16.71-3.811-39.46,9.715-54.544,2.422
			c-15.327-7.412-18.852-33.709-32.024-44.236c-13.233-10.572-39.645-8.211-50.22-21.445c-10.523-13.172-2.4-38.385-9.81-53.713
			c-7.293-15.088-32.155-24.369-35.966-41.08c-3.696-16.199,14.567-35.332,14.567-52.638c0-17.302-18.263-36.435-14.567-52.633
			c3.812-16.714,28.673-25.998,35.966-41.086c7.412-15.328-0.713-40.54,9.811-53.712c10.574-13.232,36.986-10.874,50.219-21.447
			c13.174-10.527,16.7-36.825,32.024-44.235c15.084-7.295,37.834,6.234,54.544,2.423c16.203-3.695,30.781-25.861,48.083-25.861
			c17.306,0,31.887,22.166,48.082,25.861c16.716,3.812,39.462-9.714,54.552-2.42c15.324,7.407,18.848,33.709,32.021,44.232
			c13.233,10.575,39.646,8.215,50.217,21.447c10.526,13.172,2.402,38.388,9.811,53.714c7.292,15.086,32.155,24.37,35.968,41.084
			c3.697,16.198-14.566,35.331-14.566,52.633c0,17.306,18.264,36.435,14.566,52.638c-3.813,16.711-28.676,25.992-35.968,41.084
			c-7.409,15.324,0.713,40.537-9.811,53.711c-10.576,13.232-36.983,10.871-50.222,21.447c-13.17,10.523-16.695,36.824-32.022,44.232
			c-15.087,7.293-37.831-6.232-54.545-2.422C431.886,614.387,417.305,636.551,399.999,636.551z"/>
		<g>
			<path fill="#FFFFFF" d="M399.999,602.52c-111.669,0-202.52-90.848-202.52-202.519c0-111.668,90.851-202.521,202.52-202.521
				c111.671,0,202.521,90.853,202.521,202.521C602.521,511.672,511.67,602.52,399.999,602.52z"/>
			<path fill="#1C9CD4" d="M209.352,400.001c0-105.291,85.356-190.648,190.647-190.648c105.289,0,190.648,85.357,190.648,190.648
				c0,105.29-85.359,190.646-190.648,190.646C294.708,590.646,209.352,505.291,209.352,400.001z"/>
		</g>
		<text transform="matrix(1 0 0 1 301.3394 371.7466)"><tspan x="0" y="0" fill="#FFFFFF" font-family="'MicrosoftYaHei-Bold'" font-size="93.9626" letter-spacing="4">閱讀</tspan><tspan x="0" y="112.755" fill="#FFFFFF" font-family="'MicrosoftYaHei-Bold'" font-size="93.9626" letter-spacing="4">真好</tspan></text>
		<g>
			<path fill="#EBBA18" d="M408.326,233.108c0-5.221-4.232-9.45-9.448-9.45c-5.22,0-9.45,4.229-9.45,9.45
				c0,5.215,4.23,9.449,9.45,9.449C404.094,242.558,408.326,238.323,408.326,233.108z"/>
			<path fill="#EBBA18" d="M350.742,240.323c-1.784-4.9-7.21-7.431-12.114-5.645c-4.899,1.785-7.43,7.208-5.643,12.106
				c1.784,4.905,7.207,7.437,12.106,5.649C349.995,250.65,352.525,245.227,350.742,240.323z"/>
			<path fill="#EBBA18" d="M299.102,266.804c-3.355-4-9.316-4.52-13.316-1.166c-3.996,3.355-4.513,9.313-1.161,13.31
				c3.352,3.998,9.313,4.519,13.308,1.165C301.933,276.757,302.455,270.799,299.102,266.804z"/>
			<path fill="#EBBA18" d="M259.631,309.345c-4.522-2.611-10.299-1.061-12.911,3.46c-2.607,4.516-1.06,10.295,3.461,12.906
				c4.519,2.606,10.294,1.06,12.902-3.46C265.697,317.73,264.145,311.952,259.631,309.345z"/>
			<path fill="#EBBA18" d="M237.088,362.819c-5.141-0.903-10.037,2.527-10.944,7.668c-0.909,5.137,2.521,10.037,7.663,10.944
				c5.141,0.905,10.037-2.526,10.945-7.665C245.66,368.626,242.226,363.726,237.088,362.819z"/>
			<path fill="#EBBA18" d="M234.196,420.783c-5.138,0.905-8.572,5.802-7.664,10.948c0.909,5.136,5.804,8.564,10.946,7.662
				c5.137-0.909,8.572-5.81,7.665-10.948C244.233,423.31,239.338,419.875,234.196,420.783z"/>
			<circle fill="#EBBA18" cx="256.029" cy="484.419" r="9.449"/>
			<path fill="#EBBA18" d="M286.348,522.495c-3.356,4-2.833,9.959,1.161,13.313c4,3.354,9.956,2.833,13.312-1.167
				c3.357-3.996,2.834-9.954-1.165-13.309C295.66,517.977,289.7,518.5,286.348,522.495z"/>
			<circle fill="#EBBA18" cx="343.976" cy="557.211" r="9.448"/>
			<path fill="#EBBA18" d="M391.673,566.895c0,5.214,4.233,9.447,9.449,9.447c5.221,0,9.45-4.233,9.45-9.447
				c0-5.221-4.229-9.448-9.45-9.448C395.907,557.446,391.673,561.674,391.673,566.895z"/>
			<path fill="#EBBA18" d="M449.26,559.675c1.781,4.904,7.203,7.433,12.106,5.648c4.905-1.785,7.435-7.207,5.649-12.112
				c-1.786-4.902-7.209-7.429-12.111-5.646C449.999,549.351,447.474,554.771,449.26,559.675z"/>
			<path fill="#EBBA18" d="M500.9,533.198c3.353,3.997,9.312,4.519,13.31,1.166c3.998-3.356,4.521-9.317,1.165-13.311
				c-3.353-4-9.313-4.519-13.313-1.165C498.066,523.239,497.544,529.2,500.9,533.198z"/>
			<path fill="#EBBA18" d="M540.373,490.657c4.519,2.606,10.295,1.06,12.906-3.459c2.608-4.522,1.061-10.298-3.462-12.908
				c-4.518-2.61-10.295-1.058-12.905,3.461C534.303,482.266,535.852,488.049,540.373,490.657z"/>
			<path fill="#EBBA18" d="M562.911,437.179c5.138,0.907,10.042-2.527,10.946-7.663c0.907-5.139-2.526-10.043-7.663-10.946
				c-5.138-0.905-10.038,2.526-10.947,7.664C554.343,431.369,557.773,436.276,562.911,437.179z"/>
			<path fill="#EBBA18" d="M565.803,379.218c5.139-0.909,8.568-5.809,7.663-10.944c-0.906-5.137-5.807-8.571-10.944-7.665
				c-5.138,0.904-8.572,5.805-7.663,10.947C555.762,376.692,560.667,380.124,565.803,379.218z"/>
			<path fill="#EBBA18" d="M548.695,323.761c4.518-2.606,6.069-8.387,3.456-12.906c-2.606-4.518-8.385-6.066-12.904-3.457
				c-4.519,2.613-6.065,8.387-3.459,12.906C538.396,324.825,544.177,326.372,548.695,323.761z"/>
			<path fill="#EBBA18" d="M513.652,277.501c3.355-3.994,2.832-9.953-1.162-13.311c-4-3.351-9.96-2.83-13.313,1.164
				c-3.357,4-2.833,9.958,1.166,13.313C504.338,282.021,510.299,281.501,513.652,277.501z"/>
			<path fill="#EBBA18" d="M464.902,246.018c1.786-4.902-0.744-10.324-5.648-12.106c-4.898-1.786-10.322,0.739-12.106,5.645
				c-1.785,4.902,0.744,10.327,5.644,12.111C457.695,253.453,463.117,250.923,464.902,246.018z"/>
		</g>
	</g>
</g>
</svg>
