<?xml version="1.0" encoding="utf-8"?>
<!-- Generator: Adobe Illustrator 26.5.3, SVG Export Plug-In . SVG Version: 6.00 Build 0)  -->
<svg version="1.1" id="圖層_1" xmlns="http://www.w3.org/2000/svg" xmlns:xlink="http://www.w3.org/1999/xlink" x="0px" y="0px"
	 viewBox="0 0 1297.2 114.6" style="enable-background:new 0 0 1297.2 114.6;" xml:space="preserve">
<style type="text/css">
	.st0{fill:#FCC900;}
	.st1{fill:url(#SVGID_1_);}
	.st2{fill:url(#SVGID_00000017475005620587780310000007276470148995550637_);}
	.st3{fill:url(#SVGID_00000046304608308991451310000013249865206862466204_);}
	.st4{fill:url(#SVGID_00000043418161484678371690000010689391741287411893_);}
	.st5{fill:url(#SVGID_00000023987578519980345290000010811977094153810611_);}
	.st6{fill:#E66C22;}
</style>
<g>
	<path class="st0" d="M526.4,2.1c-10-0.5-19.9-0.9-29.7-1.2c0.2,0.4,0.3,0.8,0.5,1.2H526.4z"/>
	<path class="st0" d="M404.9,0.7c-4,0.1-8,0.3-11.9,0.5c-6.6,0.3-13.1,0.6-19.5,1h32.1C405.4,1.6,405.1,1.2,404.9,0.7z"/>
	<linearGradient id="SVGID_1_" gradientUnits="userSpaceOnUse" x1="84.3675" y1="77.3073" x2="1405.6193" y2="80.0145">
		<stop  offset="0" style="stop-color:#EE7202"/>
		<stop  offset="0.1879" style="stop-color:#F39800"/>
		<stop  offset="0.4434" style="stop-color:#F49D00;stop-opacity:0.6854"/>
		<stop  offset="0.8075" style="stop-color:#F6AC19;stop-opacity:0.237"/>
		<stop  offset="1" style="stop-color:#F8B62D;stop-opacity:0"/>
	</linearGradient>
	<path class="st1" d="M921,43.5c6.5,23.5,10.8,47.3,12.7,71.2h119c-1.9-19.6-5.7-39-11.3-58.2C1004.2,52.5,963.8,48.4,921,43.5z"/>
	
		<linearGradient id="SVGID_00000181050799687544823720000011378301513558254722_" gradientUnits="userSpaceOnUse" x1="84.355" y1="88.3811" x2="1405.5966" y2="91.0884">
		<stop  offset="0" style="stop-color:#EE7202"/>
		<stop  offset="0.1879" style="stop-color:#F39800"/>
		<stop  offset="0.4434" style="stop-color:#F49D00;stop-opacity:0.6854"/>
		<stop  offset="0.8075" style="stop-color:#F6AC19;stop-opacity:0.237"/>
		<stop  offset="1" style="stop-color:#F8B62D;stop-opacity:0"/>
	</linearGradient>
	<path style="fill:url(#SVGID_00000181050799687544823720000011378301513558254722_);" d="M1254.5,90.4
		c-29.9-10.5-71.7-17.6-123-23.9c3.4,16,5.8,32,7.1,48.2h158.6C1288.7,105.4,1274.2,97.2,1254.5,90.4z"/>
	
		<linearGradient id="SVGID_00000090982378748421442030000003446342470603259299_" gradientUnits="userSpaceOnUse" x1="84.3929" y1="65.055" x2="1405.6455" y2="67.7622">
		<stop  offset="0" style="stop-color:#EE7202"/>
		<stop  offset="0.1879" style="stop-color:#F39800"/>
		<stop  offset="0.4434" style="stop-color:#F49D00;stop-opacity:0.6854"/>
		<stop  offset="0.8075" style="stop-color:#F6AC19;stop-opacity:0.237"/>
		<stop  offset="1" style="stop-color:#F8B62D;stop-opacity:0"/>
	</linearGradient>
	<path style="fill:url(#SVGID_00000090982378748421442030000003446342470603259299_);" d="M708.1,18.1
		c11.1,31.6,18.1,63.9,20.7,96.5l119,0c-2.7-27.7-9.1-55.3-19.2-82.1C789.8,27.8,749.5,22.8,708.1,18.1z"/>
	
		<linearGradient id="SVGID_00000101802524223455418110000003188952475537397636_" gradientUnits="userSpaceOnUse" x1="84.4078" y1="57.4591" x2="1405.6655" y2="60.1663">
		<stop  offset="0" style="stop-color:#EE7202"/>
		<stop  offset="0.1879" style="stop-color:#F39800"/>
		<stop  offset="0.4434" style="stop-color:#F49D00;stop-opacity:0.6854"/>
		<stop  offset="0.8075" style="stop-color:#F6AC19;stop-opacity:0.237"/>
		<stop  offset="1" style="stop-color:#F8B62D;stop-opacity:0"/>
	</linearGradient>
	<path style="fill:url(#SVGID_00000101802524223455418110000003188952475537397636_);" d="M523.9,114.6h119
		c-3.6-36.2-13.4-72-29.4-106.3c-29.6-2.6-58.7-4.8-87.1-6.2h-29.1C511.9,38.7,520.8,76.5,523.9,114.6z"/>
	
		<linearGradient id="SVGID_00000035518637559736916380000013641196058617563039_" gradientUnits="userSpaceOnUse" x1="84.4081" y1="58.1191" x2="1405.6566" y2="60.8263">
		<stop  offset="0" style="stop-color:#EE7202"/>
		<stop  offset="0.1879" style="stop-color:#F39800"/>
		<stop  offset="0.4434" style="stop-color:#F49D00;stop-opacity:0.6854"/>
		<stop  offset="0.8075" style="stop-color:#F6AC19;stop-opacity:0.237"/>
		<stop  offset="1" style="stop-color:#F8B62D;stop-opacity:0"/>
	</linearGradient>
	<path style="fill:url(#SVGID_00000035518637559736916380000013641196058617563039_);" d="M405.6,2.1h-32.1
		c-70.9,4.1-134.9,15-189.4,29C124.6,46.4,76.5,65.5,43.2,83.2C23.1,94.1,8.5,104.4,0,114.6l438,0C434.3,76.3,423.5,38.3,405.6,2.1z
		"/>
	<path class="st6" d="M497.2,2.1c-0.2-0.4-0.3-0.8-0.5-1.2c-31.5-1.1-62.2-1.2-91.8-0.2c0.2,0.5,0.5,1,0.7,1.4H497.2z"/>
	<path class="st6" d="M405.6,2.1c17.8,36.2,28.6,74.1,32.4,112.5h85.9c-3.1-38.1-12-75.9-26.7-112.5H405.6z"/>
	<path class="st6" d="M648.9,11.7c-11.9-1.2-23.7-2.3-35.4-3.4c16.1,34.3,25.9,70.1,29.4,106.3h85.9c-2.7-32.6-9.6-64.9-20.7-96.5
		C688.6,15.9,668.8,13.7,648.9,11.7z"/>
	<path class="st6" d="M904.7,41.6c-24.6-2.8-50.1-5.9-76.1-9.1c10.1,26.8,16.5,54.4,19.2,82.1h85.9c-2-23.9-6.2-47.7-12.7-71.2
		C915.6,42.8,910.2,42.2,904.7,41.6z"/>
	<path class="st6" d="M1041.5,56.4c5.6,19.2,9.3,38.6,11.3,58.2h85.9c-1.3-16.1-3.7-32.2-7.1-48.2c-5.8-0.7-11.8-1.4-17.9-2.2
		C1091.2,61.7,1067,59.1,1041.5,56.4z"/>
</g>
</svg>
