<?xml version="1.0" encoding="UTF-8"?>
<svg xmlns="http://www.w3.org/2000/svg" version="1.1" xmlns:xlink="http://www.w3.org/1999/xlink" viewBox="0 0 70 33.6">
  <defs>
    <style>
      .cls-1 {
        fill: #fe5200;
      }

      .cls-2 {
        fill: #ffea92;
      }
    </style>
  </defs>
  <!-- Generator: Adobe Illustrator 28.7.2, SVG Export Plug-In . SVG Version: 1.2.0 Build 154)  -->
  <g>
    <g id="_圖層_1" data-name="圖層_1">
      <g>
        <g>
          <path class="cls-2" d="M-21.8,162.2c1.2,25.2-92.2-12.7-92.2-12.7l15.1-16.4-7.7-27.5s61.8,35.4,84.7,21.7v34.9h0Z"/>
          <path class="cls-1" d="M-35.7,171.8c-25.6,0-76.1-20.4-78.7-21.4-.3,0-.5-.4-.6-.7-.1-.3,0-.7.2-.9l14.7-16-7.5-27c0-.4,0-.8.3-1.1.3-.2.8-.3,1.1-.1.6.4,61.5,34.9,83.7,21.7.3-.2.7-.2,1,0s.5.5.5.9v34.9c0,3-1,5.4-3.3,7.1-2.4,1.9-6.4,2.6-11.4,2.6ZM-112.3,149.1c10,4,73.2,28.3,87,18.5,1.8-1.2,2.6-3,2.4-5.4h0v-33.3c-21.8,10.5-71.1-15.3-82.1-21.3l7,25.2c.1.3,0,.7-.2.9,0,0-14.1,15.4-14.1,15.4Z"/>
        </g>
        <g>
          <path class="cls-1" d="M-21.8,162.2c-10.3-24.1-39.2,8.6-43.3-10.8-4.2-19.6-10.1-47.3-10.1-47.3l53.4,23.2v34.9Z"/>
          <path class="cls-1" d="M-21.8,163.2c-.4,0-.8-.2-.9-.6-5.1-12.1-15-9-24.6-6.1-5.8,1.8-11.2,3.5-14.9,1.3-1.9-1.1-3.2-3.2-3.9-6.2-4.2-19.6-10.1-47.3-10.1-47.3,0-.4,0-.7.3-1,.3-.2.7-.3,1-.1l53.5,23.1c.4.2.6.5.6.9v35c0,.5-.3.9-.8,1,0,0-.2,0-.2,0ZM-34.7,151.9c4.5,0,8.7,1.5,11.9,6.3v-30.3l-51.1-22.1c1.4,6.6,6.2,28.9,9.7,45.4.5,2.5,1.5,4.1,2.9,4.9,3,1.7,8,.2,13.3-1.5,4.3-1.3,8.9-2.7,13.3-2.7Z"/>
        </g>
        <g>
          <path class="cls-2" d="M91.8,162c-1.2,25.3,92.2-12.6,92.2-12.6l-15.1-16.3,7.6-27.5s-61.8,35.4-84.7,21.7v34.7Z"/>
          <path class="cls-1" d="M105.8,171.7c-5,0-9.1-.8-11.6-2.6-2.3-1.6-3.4-4-3.3-7.1v-34.7c0-.4.2-.7.5-.9s.7-.2,1,0c22.2,13.3,83.1-21.3,83.7-21.7.4-.2.8-.2,1.1.1.3.2.5.7.3,1.1l-7.5,27,14.7,15.9c.2.2.3.6.2.9-.1.3-.3.6-.6.7-2.5,1-52.9,21.3-78.5,21.3h0ZM92.8,128.9v33.1h0c-.1,2.4.7,4.2,2.5,5.4,13.9,9.8,77-14.5,87-18.5l-14.1-15.2c-.2-.3-.3-.6-.2-.9l7-25.2c-9.1,5-44.9,23.8-69.3,23.8s-9.2-.7-12.9-2.5h0ZM91.8,162h0Z"/>
        </g>
        <g>
          <path class="cls-1" d="M91.8,162c10.2-24.1,39.1,8.5,43.3-10.8,4.2-19.5,10.1-47.2,10.1-47.2l-53.4,23.1v34.9h0Z"/>
          <path class="cls-1" d="M91.8,163h-.2c-.5,0-.8-.5-.8-1v-34.8c0-.4.2-.8.6-.9l53.4-23.1c.3-.1.7-.1,1,.1s.4.6.3,1c0,0-6,27.7-10.1,47.2-.7,3-1.9,5.1-3.9,6.2-3.7,2.2-9.2.5-14.9-1.3-9.6-3-19.5-6-24.6,6.1,0,.3-.4.5-.8.5ZM92.8,127.8v30.2c6.2-9.4,16.6-6.2,25.1-3.6,5.3,1.6,10.3,3.2,13.3,1.5,1.4-.8,2.4-2.5,2.9-4.9,3.5-16.4,8.3-38.7,9.7-45.3l-51,22.1h0Z"/>
        </g>
        <g>
          <path class="cls-2" d="M135.1,151.4c-2.1-8.8-5.8-7.9-8.7-8.4-58.7-10.7-119-11-177.8-.9-4.6.8-13.3,1.9-13.7,9.3-3.4-15.8-6.8-31.5-10.1-47.3-1.5-6.7,9.3-8.5,14-9.4,63.7-11.1,128.9-11.1,192.6,0,4.6.8,11.3,1.6,13.8,9.3-3.4,15.9-6.7,31.6-10.1,47.4h0Z"/>
          <path class="cls-1" d="M-65.1,152.4c-.5,0-.9-.3-1-.8-1.7-7.8-3.3-15.6-5-23.4-1.7-8-3.4-15.9-5.1-23.9-.4-1.7,0-3.2.8-4.5,2.6-3.9,9.8-5.3,13.7-6h.4c64-11.3,129-11.3,193-.1h.6c4.5.9,11.4,2,13.9,10,.1.2.1.3,0,.5-1.4,6.7-2.8,13.4-4.3,20.1-1.9,9.1-3.8,18.2-5.8,27.3-.1.5-.5.8-1,.8h0c-.5,0-.9-.3-1-.8-1.7-7-4.1-7.3-6.7-7.5-.4,0-.8,0-1.2-.2-58.8-10.7-118.5-11.1-177.5-.9l-.7.2c-6,1-11.9,2.5-12.2,8.3,0,.4-.4.8-.9.9h0ZM35,133.6c30.6,0,61.2,2.8,91.6,8.3h1.1c2.4.2,5.2.5,7.3,5.4,1.7-7.9,3.3-15.7,5-23.6,1.4-6.6,2.8-13.2,4.2-19.9-2.2-6.6-7.8-7.5-12.3-8.3h-.6c-63.8-11.1-128.5-11.1-192.3,0h-.3c-3.6.8-10.3,2.1-12.4,5.2-.6.9-.8,1.9-.5,3,1.7,8,3.4,15.9,5.1,23.9,1.3,6.7,2.7,13.2,4.1,19.7,2.6-4.4,8.9-5.5,12.7-6.2h.7c28.7-5,57.7-7.5,86.6-7.5Z"/>
        </g>
      </g>
      <rect class="cls-2" x="-62.3" y="-67.6" width="27.1" height="27.1"/>
      <rect class="cls-1" x="-22.9" y="-67.6" width="27.1" height="27.1"/>
      <image width="1920" height="700" transform="translate(-1043.9 -786.1)" xlink:href="ribbon-1.png"/>
      <g>
        <g>
          <g>
            <path class="cls-2" d="M52.1,30c-.4,9.7,17.6-4.5,17.6-4.5l-4.4-6.3,3.3-10.6s-12,13.4-16.3,8l-.3,13.4Z"/>
            <path class="cls-1" d="M54.8,33.6c-.6,0-1.1,0-1.5-.3-1-.5-1.5-1.6-1.4-3.3l.3-13.4c0-.1,0-.2.2-.2,0,0,.2,0,.3,0,.6.8,1.4,1.1,2.4,1.2,0,0,0,0,.1,0,5.1,0,13.3-9.1,13.4-9.2,0,0,.2-.1.3,0,0,0,.1.2.1.3l-3.3,10.5,4.3,6.2c0,.1,0,.2,0,.3-.5.4-10.1,8-15.1,8ZM52.6,17.2l-.3,12.8h0c0,1.5.3,2.5,1.1,2.9,3.6,1.8,14.4-6.3,15.9-7.5l-4.2-6.2c0,0,0-.1,0-.2l3-9.6c-2.2,2.3-8.6,8.6-13,8.6,0,0,0,0-.1,0-.9,0-1.7-.3-2.3-.9ZM52.1,30h0,0Z"/>
          </g>
          <g>
            <path class="cls-1" d="M52.2,30c2.1-9.2,7.4,3.4,8.4-4,1-7.5,2.3-18.2,2.3-18.2l-10.4,8.7s-.2,9.4-.3,13.5h0Z"/>
            <path class="cls-1" d="M52.2,30.4h0c0,0-.1-.2-.1-.4l.3-13.4c0-.2,0-.3.1-.3l10.4-8.7c0,0,.1,0,.2,0s0,.2,0,.4c0,0-1.4,10.7-2.3,18.2-.2,1.2-.4,2-.8,2.4-.7.8-1.8.2-2.8-.6-1.8-1.2-3.7-2.4-4.8,2.3,0,.1,0,.2-.2.2ZM52.6,16.8l-.2,11.6c1.3-3.6,3.2-2.3,4.8-1.3,1,.6,1.9,1.3,2.5.6.3-.3.5-1,.6-1.9.8-6.3,1.9-14.9,2.2-17.4l-9.9,8.3h0Z"/>
          </g>
        </g>
        <g>
          <g>
            <path class="cls-2" d="M17.6,16.6C13.3,22,1.3,8.6,1.3,8.6l3.3,10.6L.2,25.5s18,14.2,17.6,4.5l-.3-13.4Z"/>
            <path class="cls-1" d="M15.2,33.6c-5,0-14.7-7.6-15.1-8,0,0-.1-.2,0-.3l4.3-6.2L1.1,8.7c0-.1,0-.2.1-.3,0,0,.2,0,.3,0,0,0,8.3,9.2,13.4,9.2s0,0,.1,0c1,0,1.8-.4,2.4-1.2,0,0,.2-.1.3,0,0,0,.2.1.2.2l.3,13.4c0,1.7-.4,2.8-1.4,3.3-.4.2-.9.3-1.5.3ZM.6,25.4c1.5,1.2,12.3,9.3,15.9,7.5.8-.4,1.2-1.4,1.1-2.9l-.3-12.8c-.6.6-1.4.9-2.3.9,0,0,0,0-.1,0-4.4,0-10.9-6.3-13-8.6l3,9.6c0,0,0,.1,0,.2L.6,25.4Z"/>
          </g>
          <g>
            <path class="cls-1" d="M17.8,30c0-4-.3-13.4-.3-13.5L7.2,7.9s1.3,10.7,2.3,18.2c1,7.4,6.2-5.3,8.4,4h0Z"/>
            <path class="cls-1" d="M17.7,30.2c-1.1-4.6-2.9-3.4-4.8-2.3-1.1.7-2.1,1.4-2.8.6-.4-.4-.6-1.2-.8-2.4-.9-7.5-2.3-18.2-2.3-18.2,0-.2,0-.3,0-.4s.1,0,.2,0l10.4,8.7c0,0,.1.2.1.3l.3,13.4c0,.2,0,.4-.1.4h0c0,0-.2,0-.2-.2ZM17.4,16.8L7.4,8.5c.3,2.5,1.4,11.1,2.2,17.4.1.9.3,1.6.6,1.9.6.6,1.5,0,2.5-.6,1.6-1,3.6-2.3,4.8,1.3l-.2-11.6h0Z"/>
          </g>
        </g>
        <g>
          <g>
            <path class="cls-2" d="M35,.2c8.1,0,16.3,1.1,24.3,3.4,1.2.4,3.9,1.1,3.5,3.9-.8,6.5-1.7,13-2.6,19.5-.1-3.1-2.3-3.5-3.5-3.8-7.2-2-14.5-3-21.8-3"/>
            <path class="cls-1" d="M60.3,27.3h0c-.1,0-.2-.1-.2-.2,0-2.7-1.9-3.2-3.1-3.6h-.2c-7.2-2.1-14.5-3.1-21.8-3.1s-.2-.1-.2-.2.1-.2.2-.2c7.3,0,14.7,1,21.9,3h.2c.9.3,2.5.8,3.2,2.5l.2-1.7c.7-5.4,1.4-10.8,2.1-16.2.3-2.5-2-3.2-3.2-3.6h-.1C51.3,1.6,43.1.5,35,.5c-.1,0-.2-.1-.2-.2S34.9,0,35,0h0c8.1,0,16.3,1.2,24.4,3.4h.1c1.3.4,4,1.3,3.6,4.1-.7,5.4-1.4,10.8-2.1,16.2l-.4,3.3c0,.1-.1.2-.2.2Z"/>
          </g>
          <g>
            <path class="cls-2" d="M35,20.2c-7.3,0-14.6,1-21.8,3-1.2.3-3.4.8-3.5,3.8-.9-6.5-1.7-13-2.6-19.5-.4-2.8,2.4-3.5,3.5-3.9C18.7,1.4,26.9.2,35,.2"/>
            <path class="cls-1" d="M9.7,27.3c-.1,0-.2,0-.2-.2l-.4-3c-.7-5.5-1.5-11-2.2-16.6-.4-2.9,2.3-3.7,3.6-4.1h.1C18.7,1.2,26.8,0,35,0h0c.1,0,.2.1.2.2s-.1.2-.2.2c-8.1,0-16.3,1.2-24.2,3.4h-.1c-1.3.4-3.6,1.1-3.2,3.6.7,5.5,1.4,11,2.2,16.6l.2,1.4c.6-1.8,2.2-2.2,3.2-2.5h.2c7.2-2.1,14.6-3.1,21.9-3.1s.2.1.2.2-.1.2-.2.2c-7.3,0-14.6,1-21.8,3h-.2c-1.2.4-3,.9-3.1,3.6,0,.1-.1.2-.2.2h0Z"/>
          </g>
        </g>
      </g>
    </g>
  </g>
</svg>