<?xml version="1.0" encoding="utf-8"?>
<!-- Generator: Adobe Illustrator 26.3.1, SVG Export Plug-In . SVG Version: 6.00 Build 0)  -->
<svg version="1.1" id="圖層_1" xmlns="http://www.w3.org/2000/svg" xmlns:xlink="http://www.w3.org/1999/xlink" x="0px" y="0px"
	 viewBox="0 0 250 250" style="enable-background:new 0 0 250 250;" xml:space="preserve">
<style type="text/css">
	.st0{fill-rule:evenodd;clip-rule:evenodd;fill:#352E2A;}
	.st1{fill-rule:evenodd;clip-rule:evenodd;fill:#F2C756;}
	.st2{fill-rule:evenodd;clip-rule:evenodd;fill:#EBCD99;stroke:#2F2E2B;stroke-width:6;stroke-miterlimit:10;}
	.st3{fill-rule:evenodd;clip-rule:evenodd;fill:#2F2E2B;}
	.st4{fill:#2F2E2B;}
</style>
<circle class="st0" cx="125" cy="125" r="125"/>
<circle class="st1" cx="125" cy="125" r="113.9"/>
<circle class="st2" cx="125" cy="125" r="98.8"/>
<g>
	<path class="st3" d="M153.1,129.4c-8-6.2-17.2-9-27.2-9.2c-7.8-0.2-15.1-1.8-21.7-6.2c-11.8-7.9-13.1-22-2.5-31.3
		c9.2-8.1,20.2-10,31.9-7.3c11.9,2.8,20.8,8.9,22.1,22.4c0.3,2.9,3,4.8,5.6,4.4c2.7-0.4,4.6-2.7,4.4-5.7c-0.4-6.1-2.3-11.6-6.1-16.4
		c-6.1-7.9-14.3-12.5-23.9-14.6c-3.5-0.8-5.6-2.6-5.7-6.5c-0.1-3-2.5-5.1-5.2-5c-2.6,0.1-4.8,2-4.9,5c-0.1,3.9-2.1,5.7-5.7,6.5
		c-5.7,1.2-10.8,3.6-15.7,6.8c-18.2,12-19.2,35.2-2.1,48.7c8,6.3,17.3,9.2,27.5,9.5c7.8,0.2,15.1,1.8,21.7,6.2
		c6.4,4.2,9.7,10.3,9.7,16.5c-1.5,13.1-10.9,18.9-22.7,21.6c-6.2,1.4-12.2,1.6-17.8,0.2c-3.6-1-7-2.4-10.1-4.5
		c-5.8-3.9-9.8-9-10.4-16.3c-0.3-3.9-2.6-6.2-5.6-5.9c-3.1,0.4-4.8,3-4.5,6.9c0.6,7.2,3.5,13.3,8.5,18.4c1.6,1.6,3.2,3.1,5,4.4l0,0
		c0,0,0.1,0,0.1,0.1c0.7,0.5,1.5,1,2.3,1.4c4.1,2.4,8.5,4.3,13.3,5.3c3.6,0.8,5.6,2.6,5.7,6.5c0.1,2.9,2.3,4.9,4.9,5s5.1-2,5.2-5
		c0.1-3.9,2.1-5.9,5.7-6.5c8.6-1.4,16.2-4.7,20.6-9.6C169.2,162.4,169.8,142.4,153.1,129.4z"/>
	<path class="st4" d="M124.2,206.7c-0.2,0-0.4,0-0.6,0c-7.3-0.3-13.2-5.3-14.7-12.2c-4.8-1.3-9.5-3.2-14-5.9c-1-0.6-2-1.2-2.9-1.8
		l0,0c-0.2-0.1-0.4-0.3-0.6-0.4c-2.1-1.5-4.1-3.3-6.2-5.5c-6.8-7.1-10.7-15.5-11.4-25c-0.8-9.7,4.9-17.2,13.9-18.3
		c4.1-0.5,8.2,0.7,11.3,3.3c3.5,2.8,5.6,7.2,6.1,12.2c0.2,2.4,1.1,5.2,5.7,8.4c1.9,1.3,4.2,2.3,6.8,3c3.8,0.9,8.1,0.8,12.8-0.2
		c11.8-2.7,13.8-7.4,14.4-11.8c-0.2-2.7-1.9-5.2-4.9-7.2c-4.3-2.8-9.4-4.3-16.1-4.4c-12.9-0.3-24.3-4.3-33.8-11.7
		c-10.8-8.5-16.7-20.8-16.2-33.6c0.5-12.9,7.5-24.6,19-32.3c5.4-3.6,11.1-6.2,17-7.7c1.5-6.9,7.4-12,14.7-12.2
		c4.2-0.2,8.1,1.3,11.2,4.2c2.3,2.2,3.9,5,4.6,8.1c11.5,3,20.8,9.1,27.7,17.9c5,6.4,7.8,14,8.3,22.3c0.5,8.5-5.1,15.6-13.4,16.9
		c-4.2,0.6-8.5-0.5-11.8-3.1c-3.4-2.6-5.5-6.5-5.9-10.8c-0.6-6.1-3.2-10.6-13.9-13.1c-9-2.1-16.4-0.5-22.5,4.9
		c-1.7,1.5-3.8,4-3.6,7.2c0.2,2.7,1.9,5.3,5,7.3c4.3,2.9,9.4,4.3,16,4.5c12.9,0.3,24.2,4.2,33.5,11.5l0,0
		c10.3,8,16.2,18.9,16.7,30.6c0.5,11.4-4.4,22.6-13.3,31c-5.5,5.8-13.8,10-23.7,12c-0.7,3-2.3,5.8-4.6,7.9
		C131.9,205.2,128.1,206.7,124.2,206.7z"/>
</g>
<path class="st1" d="M153.1,129.4c-8-6.2-17.2-9-27.2-9.2c-7.8-0.2-15.1-1.8-21.7-6.2c-11.8-7.9-13.1-22-2.5-31.3
	c9.2-8.1,20.2-10,31.9-7.3c11.9,2.8,20.8,8.9,22.1,22.4c0.3,2.9,3,4.8,5.6,4.4c2.7-0.4,4.6-2.7,4.4-5.7c-0.4-6.1-2.3-11.6-6.1-16.4
	c-6.1-7.9-14.3-12.5-23.9-14.6c-3.5-0.8-5.6-2.6-5.7-6.5c-0.1-3-2.5-5.1-5.2-5c-2.6,0.1-4.8,2-4.9,5c-0.1,3.9-2.1,5.7-5.7,6.5
	c-5.7,1.2-10.8,3.6-15.7,6.8c-18.2,12-19.2,35.2-2.1,48.7c8,6.3,17.3,9.2,27.5,9.5c7.8,0.2,15.1,1.8,21.7,6.2
	c6.4,4.2,9.7,10.3,9.7,16.5c-1.5,13.1-10.9,18.9-22.7,21.6c-6.2,1.4-12.2,1.6-17.8,0.2c-3.6-1-7-2.4-10.1-4.5
	c-5.8-3.9-9.8-9-10.4-16.3c-0.3-3.9-2.6-6.2-5.6-5.9c-3.1,0.4-4.8,3-4.5,6.9c0.6,7.2,3.5,13.3,8.5,18.4c1.6,1.6,3.2,3.1,5,4.4l0,0
	c0,0,0.1,0,0.1,0.1c0.7,0.5,1.5,1,2.3,1.4c4.1,2.4,8.5,4.3,13.3,5.3c3.6,0.8,5.6,2.6,5.7,6.5c0.1,2.9,2.3,4.9,4.9,5s5.1-2,5.2-5
	c0.1-3.9,2.1-5.9,5.7-6.5c8.6-1.4,16.2-4.7,20.6-9.6C169.2,162.4,169.8,142.4,153.1,129.4z"/>
</svg>
