<?xml version="1.0" encoding="utf-8"?>
<!-- Generator: Adobe Illustrator 26.5.0, SVG Export Plug-In . SVG Version: 6.00 Build 0)  -->
<svg version="1.1" id="圖層_1" xmlns="http://www.w3.org/2000/svg" xmlns:xlink="http://www.w3.org/1999/xlink" x="0px" y="0px"
	 viewBox="0 0 300 300" style="enable-background:new 0 0 300 300;" xml:space="preserve">
<style type="text/css">
	.st0{fill:#FFFFFF;}
</style>
<path class="st0" d="M150,0C67.2,0,0,67.2,0,150s67.2,150,150,150s150-67.2,150-150S232.8,0,150,0z M150,281
	c-72.3,0-131-58.7-131-131S77.7,19,150,19s131,58.7,131,131S222.3,281,150,281z"/>
<g>
	<g>
		<g>
			<path class="st0" d="M106.8,42.8l-34,58.9c-3.8,6.7,1,15,8.7,15h68c7.7,0,12.5-8.3,8.7-15l-34-58.9
				C120.3,36.1,110.7,36.1,106.8,42.8z"/>
			<path class="st0" d="M106.8,42.8l-34,58.9c-3.8,6.7,1,15,8.7,15h68c7.7,0,12.5-8.3,8.7-15l-34-58.9
				C120.3,36.1,110.7,36.1,106.8,42.8z"/>
		</g>
		<g>
			<path class="st0" d="M119.4,170.1h-7.8c-5.5,0-10-4.5-10-10V89.5c0-5.5,4.5-10,10-10h7.8c5.5,0,10,4.5,10,10V160
				C129.4,165.6,124.9,170.1,119.4,170.1z"/>
			<path class="st0" d="M119.4,170.6h-7.8c-5.8,0-10.5-4.7-10.5-10.5V89.5c0-5.8,4.7-10.5,10.5-10.5h7.8c5.8,0,10.5,4.7,10.5,10.5
				V160C129.9,165.9,125.2,170.6,119.4,170.6z M111.6,80c-5.2,0-9.5,4.3-9.5,9.5V160c0,5.2,4.3,9.5,9.5,9.5h7.8
				c5.2,0,9.5-4.3,9.5-9.5V89.5c0-5.2-4.3-9.5-9.5-9.5H111.6z"/>
		</g>
	</g>
	<g>
		<g>
			<path class="st0" d="M193.2,257.2l34-58.9c3.8-6.7-1-15-8.7-15h-68c-7.7,0-12.5,8.3-8.7,15l34,58.9
				C179.7,263.9,189.3,263.9,193.2,257.2z"/>
			<path class="st0" d="M193.2,257.2l34-58.9c3.8-6.7-1-15-8.7-15h-68c-7.7,0-12.5,8.3-8.7,15l34,58.9
				C179.7,263.9,189.3,263.9,193.2,257.2z"/>
		</g>
		<g>
			<path class="st0" d="M180.6,129.9h7.8c5.5,0,10,4.5,10,10v70.5c0,5.5-4.5,10-10,10h-7.8c-5.5,0-10-4.5-10-10v-70.5
				C170.6,134.4,175.1,129.9,180.6,129.9z"/>
			<path class="st0" d="M188.4,221h-7.8c-5.8,0-10.5-4.7-10.5-10.5V140c0-5.8,4.7-10.5,10.5-10.5h7.8c5.8,0,10.5,4.7,10.5,10.5v70.5
				C198.9,216.2,194.2,221,188.4,221z M180.6,130.4c-5.2,0-9.5,4.3-9.5,9.5v70.5c0,5.2,4.3,9.5,9.5,9.5h7.8c5.2,0,9.5-4.3,9.5-9.5
				v-70.5c0-5.2-4.3-9.5-9.5-9.5H180.6z"/>
		</g>
	</g>
</g>
</svg>
