<?xml version="1.0" encoding="utf-8"?>
<!-- Generator: Adobe Illustrator 26.5.3, SVG Export Plug-In . SVG Version: 6.00 Build 0)  -->
<svg version="1.1" id="圖層_1" xmlns="http://www.w3.org/2000/svg" xmlns:xlink="http://www.w3.org/1999/xlink" x="0px" y="0px"
	 viewBox="0 0 90 90" style="enable-background:new 0 0 90 90;" xml:space="preserve">
<style type="text/css">
	.st0{fill:#FFFFFF;}
	.st1{enable-background:new    ;}
</style>
<circle cx="137.6" cy="45" r="45"/>
<text transform="matrix(1 0 0 1 -221.7529 -33.4232)" class="st0" style="font-family:'NotoSans-BoldItalic'; font-size:69.0212px; letter-spacing:1;">Level</text>
<text transform="matrix(1 0 0 1 -89.7776 57.099)" class="st0" style="font-family:'NotoSans-BoldItalic'; font-size:21.2899px;">or 12+</text>
<text transform="matrix(1 0 0 1 -300.6143 143.248)" style="fill:#E60012; font-family:'NotoSans-BoldItalic'; font-size:53.7669px;">1</text>
<text transform="matrix(1 0 0 1 -268.6143 143.248)" style="fill:#E60012; font-family:'NotoSans-BoldItalic'; font-size:53.7669px;">2</text>
<text transform="matrix(1 0 0 1 -236.6143 143.248)" style="fill:#E60012; font-family:'NotoSans-BoldItalic'; font-size:53.7669px;">3</text>
<text transform="matrix(1 0 0 1 -204.6143 143.248)" style="fill:#E60012; font-family:'NotoSans-BoldItalic'; font-size:53.7669px;">4</text>
<text transform="matrix(1 0 0 1 -172.6143 143.248)" style="fill:#E60012; font-family:'NotoSans-BoldItalic'; font-size:53.7669px;">5</text>
<text transform="matrix(1 0 0 1 -140.6143 143.248)" style="fill:#E60012; font-family:'NotoSans-BoldItalic'; font-size:53.7669px;">6</text>
<text transform="matrix(1 0 0 1 -108.6143 143.248)" style="fill:#E60012; font-family:'NotoSans-BoldItalic'; font-size:53.7669px;">7</text>
<text transform="matrix(1 0 0 1 -76.6143 143.248)" style="fill:#E60012; font-family:'NotoSans-BoldItalic'; font-size:53.7669px;">8</text>
<text transform="matrix(1 0 0 1 -44.6143 143.248)" style="fill:#E60012; font-family:'NotoSans-BoldItalic'; font-size:53.7669px;">9</text>
<g>
	<g>
		<path class="st0" d="M18,25.5l3.1-14.6h3L21.7,23h5l-0.5,2.5H18z"/>
		<path class="st0" d="M34.5,25.7c-1.4,0-2.5-0.3-3.2-1.1c-0.8-0.8-1.1-1.8-1.1-3.2s0.3-2.6,0.8-3.7c0.5-1.1,1.3-2,2.3-2.6
			c1-0.6,2-0.9,3.2-0.9c1.2,0,2.1,0.3,2.8,0.8c0.7,0.5,1,1.3,1,2.3c0,1.2-0.5,2.2-1.7,2.9c-1.1,0.7-2.7,1-4.8,1h-0.5v0.2v0.2
			c0,0.6,0.2,1,0.5,1.4c0.3,0.3,0.9,0.5,1.5,0.5s1.1-0.1,1.6-0.2c0.4-0.1,1-0.3,1.7-0.7v2.3C37.2,25.4,35.9,25.7,34.5,25.7z
			 M36.1,16.3c-0.6,0-1.1,0.3-1.7,0.8c-0.5,0.5-0.9,1.2-1,1.9h0.4c1,0,1.8-0.2,2.4-0.5c0.6-0.3,0.9-0.8,0.9-1.3S36.8,16.3,36.1,16.3
			z"/>
		<path class="st0" d="M46,22.6c0.4-1.2,0.7-1.9,0.9-2.3l3-5.9H53l-6,11.1h-3.2l-1.4-11.1h3l0.4,5.8C45.9,21.1,45.9,21.9,46,22.6
			C45.9,22.6,46,22.6,46,22.6z"/>
		<path class="st0" d="M58.2,25.7c-1.4,0-2.5-0.3-3.2-1.1c-0.8-0.8-1.1-1.8-1.1-3.2s0.3-2.6,0.8-3.7c0.5-1.1,1.3-2,2.3-2.6
			c1-0.6,2-0.9,3.2-0.9c1.2,0,2.1,0.3,2.8,0.8c0.7,0.5,1,1.3,1,2.3c0,1.2-0.5,2.2-1.7,2.9s-2.7,1-4.8,1h-0.5v0.2v0.2
			c0,0.6,0.2,1,0.5,1.4c0.3,0.3,0.9,0.5,1.5,0.5c0.6,0,1.1-0.1,1.6-0.2c0.4-0.1,1-0.3,1.7-0.7v2.3C60.9,25.4,59.6,25.7,58.2,25.7z
			 M59.8,16.3c-0.6,0-1.1,0.3-1.7,0.8c-0.5,0.5-0.9,1.2-1,1.9h0.4c1,0,1.8-0.2,2.4-0.5c0.6-0.3,0.9-0.8,0.9-1.3
			C60.8,16.6,60.5,16.3,59.8,16.3z"/>
		<path class="st0" d="M68.7,25.5h-3l3.3-15.6h3L68.7,25.5z"/>
	</g>
	<g class="st1">
		<path class="st0" d="M26.6,73.6c0,1.3-0.2,2.4-0.6,3.4c-0.4,1-1,1.7-1.8,2.3c-0.8,0.5-1.8,0.8-2.9,0.8c-1.2,0-2.1-0.4-2.8-1.1
			c-0.7-0.7-1.1-1.7-1.1-2.8c0-1.3,0.2-2.4,0.6-3.4c0.4-1,1.1-1.8,1.9-2.3c0.8-0.6,1.8-0.8,2.9-0.8c1.2,0,2.1,0.4,2.8,1.1
			C26.2,71.4,26.6,72.3,26.6,73.6z M23.8,73.6c0-1.2-0.4-1.8-1.3-1.8c-0.5,0-0.9,0.2-1.2,0.6c-0.4,0.4-0.7,0.9-0.9,1.6
			c-0.2,0.7-0.3,1.4-0.3,2.2c0,1.1,0.5,1.7,1.4,1.7c0.5,0,0.9-0.2,1.2-0.6c0.4-0.4,0.6-0.9,0.8-1.5C23.7,75.1,23.8,74.4,23.8,73.6z"
			/>
		<path class="st0" d="M35.5,69.6c0.4,0,0.6,0,0.9,0.1l-0.6,2.6c-0.3-0.1-0.6-0.1-0.9-0.1c-0.7,0-1.3,0.3-1.8,0.8
			c-0.5,0.6-0.9,1.3-1.1,2.4l-1,4.5h-2.7l2.1-10.1h2.1l-0.2,1.9h0.1C33.3,70.3,34.3,69.6,35.5,69.6z"/>
		<path class="st0" d="M47.8,79.9H45l1.6-7.5c0.2-0.9,0.4-1.8,0.7-2.6c-0.1,0-0.2,0.2-0.6,0.4c-0.3,0.2-1.1,0.7-2.4,1.5l-1.2-1.9
			l5.1-3.1h2.3L47.8,79.9z"/>
		<path class="st0" d="M60.6,79.9h-8.7l0.4-1.9l4.3-3.8c1.1-1,1.8-1.7,2.2-2.3c0.4-0.6,0.6-1.1,0.6-1.6c0-0.5-0.1-0.8-0.4-1
			c-0.2-0.2-0.6-0.4-1-0.4c-0.4,0-0.8,0.1-1.2,0.3c-0.4,0.2-0.9,0.6-1.6,1.1L54,68.3c0.8-0.7,1.6-1.2,2.3-1.4
			c0.7-0.3,1.5-0.4,2.3-0.4c1.1,0,2.1,0.3,2.7,0.9c0.7,0.6,1,1.4,1,2.3c0,0.6-0.1,1.3-0.4,1.8c-0.2,0.6-0.6,1.1-1.1,1.7
			c-0.5,0.6-1.3,1.3-2.4,2.2l-2.4,2v0.1h5.1L60.6,79.9z"/>
		<path class="st0" d="M67.3,74.4H64v-2h3.3V69h2v3.3h3.3v2h-3.3v3.3h-2V74.4z"/>
	</g>
	<g class="st1">
		<path class="st0" d="M33.3,62.4h-7l4.1-19c0.5-2.4,1.1-4.5,1.7-6.5c-0.2,0.1-0.6,0.5-1.4,1s-2.8,1.9-6,3.9l-3-4.9l12.9-7.9h5.7
			L33.3,62.4z"/>
		<path class="st0" d="M64.2,62.4h-22l1-4.9L54,47.9c2.8-2.4,4.6-4.4,5.7-5.8s1.6-2.8,1.6-4.1c0-1.1-0.3-2-1-2.6
			c-0.6-0.6-1.5-0.9-2.5-0.9s-2,0.3-3.1,0.8c-1,0.5-2.4,1.4-3.9,2.7l-3.3-4.6c2-1.7,3.9-3,5.7-3.7c1.8-0.7,3.7-1,5.7-1
			c2.9,0,5.2,0.8,6.9,2.3c1.7,1.5,2.5,3.5,2.5,5.9c0,1.7-0.3,3.1-1,4.6c-0.6,1.5-1.4,2.7-2.7,4.2c-1.2,1.4-3.3,3.3-6.1,5.6l-6.2,5
			v0.3h13L64.2,62.4z"/>
	</g>
</g>
</svg>
