<?xml version="1.0" encoding="utf-8"?>
<!-- Generator: Adobe Illustrator 26.5.3, SVG Export Plug-In . SVG Version: 6.00 Build 0)  -->
<svg version="1.1" id="圖層_1" xmlns="http://www.w3.org/2000/svg" xmlns:xlink="http://www.w3.org/1999/xlink" x="0px" y="0px"
	 viewBox="0 0 90 90" style="enable-background:new 0 0 90 90;" xml:space="preserve">
<style type="text/css">
	.st0{fill:#FFFFFF;}
	.st1{enable-background:new    ;}
</style>
<circle cx="154" cy="48" r="45"/>
<g>
	<path class="st0" d="M13,35l3.6-16.8h3.5l-2.9,13.9H23L22.4,35H13z"/>
	<path class="st0" d="M31.9,35.2c-1.6,0-2.9-0.4-3.7-1.3c-0.9-0.9-1.3-2.1-1.3-3.7s0.3-3,0.9-4.3s1.5-2.3,2.6-3s2.3-1,3.7-1
		c1.4,0,2.4,0.3,3.2,0.9s1.1,1.5,1.1,2.6c0,1.4-0.6,2.5-1.9,3.3c-1.3,0.8-3.1,1.2-5.5,1.2h-0.6v0.2v0.2c0,0.7,0.2,1.2,0.6,1.6
		s1,0.6,1.7,0.6s1.3-0.1,1.8-0.2c0.5-0.1,1.2-0.4,2-0.8v2.6C35,34.9,33.5,35.2,31.9,35.2z M33.8,24.4c-0.7,0-1.3,0.3-1.9,0.9
		s-1,1.4-1.2,2.2h0.5c1.2,0,2.1-0.2,2.8-0.6s1-0.9,1-1.5S34.6,24.4,33.8,24.4z"/>
	<path class="st0" d="M45.1,31.6c0.5-1.4,0.8-2.2,1-2.6l3.4-6.8h3.7L46.3,35h-3.7L41,22.2h3.4l0.5,6.7C45,29.9,45,30.8,45.1,31.6
		C45,31.6,45.1,31.6,45.1,31.6z"/>
	<path class="st0" d="M59.2,35.2c-1.6,0-2.9-0.4-3.7-1.3c-0.9-0.9-1.3-2.1-1.3-3.7s0.3-3,0.9-4.3c0.6-1.3,1.5-2.3,2.6-3s2.3-1,3.7-1
		s2.4,0.3,3.2,0.9c0.8,0.6,1.1,1.5,1.1,2.6c0,1.4-0.6,2.5-1.9,3.3c-1.3,0.8-3.1,1.2-5.5,1.2h-0.6v0.2v0.2c0,0.7,0.2,1.2,0.6,1.6
		c0.4,0.4,1,0.6,1.7,0.6s1.3-0.1,1.8-0.2c0.5-0.1,1.2-0.4,2-0.8v2.6C62.3,34.9,60.8,35.2,59.2,35.2z M61,24.4
		c-0.7,0-1.3,0.3-1.9,0.9c-0.6,0.6-1,1.4-1.2,2.2h0.5c1.2,0,2.1-0.2,2.8-0.6s1-0.9,1-1.5C62.2,24.8,61.8,24.4,61,24.4z"/>
	<path class="st0" d="M71.2,35h-3.5l3.8-17.9H75L71.2,35z"/>
</g>
<text transform="matrix(1 0 0 1 -221.7529 -33.4232)" class="st0" style="font-family:'NotoSans-BoldItalic'; font-size:69.0212px; letter-spacing:2;">Level</text>
<text transform="matrix(1 0 0 1 -300.6143 143.248)" style="fill:#E60012; font-family:'NotoSans-BoldItalic'; font-size:53.7669px;">1</text>
<text transform="matrix(1 0 0 1 -268.6143 143.248)" style="fill:#E60012; font-family:'NotoSans-BoldItalic'; font-size:53.7669px;">2</text>
<text transform="matrix(1 0 0 1 -236.6143 143.248)" style="fill:#E60012; font-family:'NotoSans-BoldItalic'; font-size:53.7669px;">3</text>
<text transform="matrix(1 0 0 1 -204.6143 143.248)" style="fill:#E60012; font-family:'NotoSans-BoldItalic'; font-size:53.7669px;">4</text>
<text transform="matrix(1 0 0 1 -172.6143 143.248)" style="fill:#E60012; font-family:'NotoSans-BoldItalic'; font-size:53.7669px;">5</text>
<text transform="matrix(1 0 0 1 -140.6143 143.248)" style="fill:#E60012; font-family:'NotoSans-BoldItalic'; font-size:53.7669px;">6</text>
<text transform="matrix(1 0 0 1 -108.6143 143.248)" style="fill:#E60012; font-family:'NotoSans-BoldItalic'; font-size:53.7669px;">7</text>
<text transform="matrix(1 0 0 1 -76.6143 143.248)" style="fill:#E60012; font-family:'NotoSans-BoldItalic'; font-size:53.7669px;">8</text>
<text transform="matrix(1 0 0 1 -44.6143 143.248)" style="fill:#E60012; font-family:'NotoSans-BoldItalic'; font-size:53.7669px;">9</text>
<g class="st1">
	<path class="st0" d="M31.5,80.3h-8l4.7-21.8c0.6-2.7,1.3-5.2,2-7.5c-0.2,0.1-0.7,0.6-1.6,1.2s-3.2,2.2-6.9,4.5l-3.5-5.6L33,42h6.5
		L31.5,80.3z"/>
	<path class="st0" d="M67,80.3H41.7l1.1-5.6l12.5-11.1c3.2-2.8,5.3-5,6.5-6.7c1.2-1.7,1.8-3.2,1.8-4.7c0-1.3-0.4-2.3-1.1-3
		s-1.7-1-2.9-1c-1.2,0-2.3,0.3-3.6,0.9c-1.2,0.6-2.7,1.6-4.5,3.1l-3.8-5.3c2.3-2,4.5-3.4,6.6-4.2c2.1-0.8,4.3-1.2,6.6-1.2
		c3.3,0,6,0.9,7.9,2.6c1.9,1.7,2.9,4,2.9,6.8c0,1.9-0.4,3.6-1.1,5.3S69,59.3,67.5,61c-1.4,1.6-3.8,3.8-7,6.4l-7.1,5.8v0.3h14.9
		L67,80.3z"/>
</g>
</svg>
