<?xml version="1.0" encoding="utf-8"?>
<!-- Generator: Adobe Illustrator 26.5.3, SVG Export Plug-In . SVG Version: 6.00 Build 0)  -->
<svg version="1.1" id="圖層_1" xmlns="http://www.w3.org/2000/svg" xmlns:xlink="http://www.w3.org/1999/xlink" x="0px" y="0px"
	 viewBox="0 0 200 61.7" style="enable-background:new 0 0 200 61.7;" xml:space="preserve">
<style type="text/css">
	.st0{fill:#EBB02E;}
	.st1{fill:#8E3A2D;}
	.st2{fill:#40220F;}
	.st3{enable-background:new    ;}
	.st4{fill:#FFFFFF;}
</style>
<g>
	<g>
		<g>
			<path class="st0" d="M0,47.2c0,8.1,6.4,14.5,14.5,14.5h171c8.1,0,14.5-6.4,14.5-14.5V14.5C200,6.4,193.6,0,185.5,0h-171
				C6.4,0,0,6.4,0,14.5V47.2z"/>
		</g>
		<g>
			<path class="st1" d="M140.9,55.4c0,2-1.4,3.5-3.5,3.5s-3.5-1.4-3.5-3.5s1.4-3.5,3.5-3.5C139.4,51.9,140.9,53.3,140.9,55.4z"/>
			<path class="st1" d="M166.1,55.4c0,2-1.4,3.5-3.5,3.5s-3.5-1.4-3.5-3.5s1.4-3.5,3.5-3.5C164.3,51.9,166.1,53.3,166.1,55.4z"/>
			<path class="st1" d="M65.2,55.4c0,2-1.4,3.5-3.5,3.5s-3.5-1.4-3.5-3.5s1.4-3.5,3.5-3.5C63.8,51.9,65.2,53.3,65.2,55.4z"/>
			<path class="st1" d="M90.4,55.4c0,2-1.4,3.5-3.5,3.5c-2,0-3.5-1.4-3.5-3.5s1.4-3.5,3.5-3.5C89,51.9,90.4,53.3,90.4,55.4z"/>
			<path class="st1" d="M115.7,55.4c0,2-1.4,3.5-3.5,3.5c-2,0-3.5-1.4-3.5-3.5s1.4-3.5,3.5-3.5C114.2,51.9,115.7,53.3,115.7,55.4z"
				/>
			<path class="st1" d="M40,55.4c0,2-1.4,3.5-3.5,3.5S33,57.4,33,55.4s1.4-3.5,3.5-3.5C38.6,51.9,40,53.3,40,55.4z"/>
			<path class="st1" d="M140.9,6.4c0,2-1.4,3.5-3.5,3.5s-3.5-1.4-3.5-3.5s1.4-3.5,3.5-3.5S140.9,4.3,140.9,6.4z"/>
			<path class="st1" d="M166.1,6.4c0,2-1.4,3.5-3.5,3.5s-3.5-1.4-3.5-3.5s1.4-3.5,3.5-3.5C164.3,2.9,166.1,4.3,166.1,6.4z"/>
			<path class="st1" d="M65.2,6.4c0,2-1.4,3.5-3.5,3.5s-3.5-1.4-3.5-3.5s1.4-3.5,3.5-3.5S65.2,4.3,65.2,6.4z"/>
			<path class="st1" d="M90.4,6.4c0,2-1.4,3.5-3.5,3.5c-2,0-3.5-1.4-3.5-3.5s1.4-3.5,3.5-3.5C89,2.9,90.4,4.3,90.4,6.4z"/>
			<path class="st1" d="M115.7,6.4c0,2-1.4,3.5-3.5,3.5c-2,0-3.5-1.4-3.5-3.5s1.4-3.5,3.5-3.5C114.2,2.9,115.7,4.3,115.7,6.4z"/>
			<path class="st1" d="M40,6.4c0,2-1.4,3.5-3.5,3.5S33,8.4,33,6.4s1.4-3.5,3.5-3.5S40,4.3,40,6.4z"/>
			<path class="st1" d="M195.7,30.7c0,2-1.4,3.5-3.5,3.5s-3.5-1.4-3.5-3.5s1.4-3.5,3.5-3.5C194.2,27.2,195.7,28.7,195.7,30.7z"/>
			<path class="st1" d="M191.2,54.2c0,2-1.4,3.5-3.4,3.5c-2,0-3.4-1.4-3.4-3.5s1.4-3.5,3.4-3.5C189.5,50.7,191.2,52.2,191.2,54.2z"
				/>
			<path class="st1" d="M191.3,7.2c0,2-1.4,3.5-3.5,3.5s-3.5-1.4-3.5-3.5s1.4-3.5,3.5-3.5C189.6,4.1,191.3,5.5,191.3,7.2z"/>
			<path class="st1" d="M3.5,30.7c0,2,1.4,3.5,3.5,3.5s3.5-1.4,3.5-3.5S9,27.2,7,27.2C4.9,27.2,3.5,28.7,3.5,30.7z"/>
			<path class="st1" d="M8.1,54.2c0,2,1.4,3.5,3.5,3.5s3.5-1.4,3.5-3.5s-1.4-3.5-3.5-3.5S8.1,52.2,8.1,54.2z"/>
			<path class="st1" d="M8.1,7.2c0,2,1.4,3.5,3.5,3.5s3.5-1.4,3.5-3.5s-1.4-3.5-3.5-3.5C9.6,4.1,8.1,5.5,8.1,7.2z"/>
		</g>
	</g>
	<g>
		<path class="st2" d="M14.2,40.1c0,4.6,5.5,8.2,12.4,8.2h146.7c7,0,12.4-3.6,12.4-8.2V21.5c0-4.6-5.5-8.2-12.4-8.2H26.6
			c-7,0-12.4,3.6-12.4,8.2V40.1z"/>
	</g>
	<g class="st3">
		<path class="st4" d="M21.6,41.3l4.2-20H30l-3.5,16.5h7l-0.7,3.5H21.6z"/>
		<path class="st4" d="M43.9,41.6c-1.9,0-3.4-0.5-4.5-1.5c-1.1-1-1.6-2.5-1.6-4.4c0-1.9,0.4-3.6,1.1-5.2c0.8-1.6,1.8-2.7,3.1-3.6
			c1.3-0.8,2.7-1.2,4.4-1.2c1.6,0,2.9,0.4,3.8,1.1c0.9,0.7,1.4,1.8,1.4,3.1c0,1.7-0.8,3-2.3,3.9c-1.5,0.9-3.7,1.4-6.5,1.4H42l0,0.3
			v0.3c0,0.8,0.2,1.5,0.7,2c0.5,0.5,1.1,0.7,2,0.7c0.8,0,1.5-0.1,2.2-0.3c0.6-0.2,1.4-0.5,2.3-0.9v3.1
			C47.6,41.2,45.8,41.6,43.9,41.6z M46.1,28.7c-0.8,0-1.6,0.4-2.3,1.1c-0.7,0.7-1.2,1.6-1.4,2.7h0.6c1.4,0,2.5-0.2,3.3-0.7
			c0.8-0.4,1.2-1,1.2-1.8C47.5,29.1,47.1,28.7,46.1,28.7z"/>
		<path class="st4" d="M59.4,37.2c0.6-1.6,1-2.6,1.2-3l4.1-8.1h4.4l-8.3,15.3h-4.4L54.5,26h4l0.6,8c0.1,1.2,0.1,2.3,0.1,3.2H59.4z"
			/>
		<path class="st4" d="M75.9,41.6c-1.9,0-3.4-0.5-4.5-1.5c-1.1-1-1.6-2.5-1.6-4.4c0-1.9,0.4-3.6,1.1-5.2c0.8-1.6,1.8-2.7,3.1-3.6
			s2.7-1.2,4.4-1.2c1.6,0,2.9,0.4,3.8,1.1s1.4,1.8,1.4,3.1c0,1.7-0.8,3-2.3,3.9c-1.5,0.9-3.7,1.4-6.5,1.4H74l0,0.3v0.3
			c0,0.8,0.2,1.5,0.7,2c0.5,0.5,1.1,0.7,2,0.7c0.8,0,1.5-0.1,2.2-0.3c0.6-0.2,1.4-0.5,2.3-0.9v3.1C79.7,41.2,77.9,41.6,75.9,41.6z
			 M78.2,28.7c-0.8,0-1.6,0.4-2.3,1.1c-0.7,0.7-1.2,1.6-1.4,2.7h0.6c1.4,0,2.5-0.2,3.3-0.7c0.8-0.4,1.2-1,1.2-1.8
			C79.6,29.1,79.1,28.7,78.2,28.7z"/>
		<path class="st4" d="M90.1,41.3h-4.1L90.4,20h4.1L90.1,41.3z"/>
		<path class="st4" d="M118.6,27.5c0,2.8-0.4,5.3-1.1,7.5c-0.7,2.2-1.8,3.8-3.1,4.9c-1.3,1.1-2.8,1.7-4.6,1.7
			c-1.8,0-3.2-0.6-4.1-1.7c-0.9-1.1-1.4-2.8-1.4-5c0-2.7,0.4-5.1,1.1-7.2c0.8-2.1,1.8-3.8,3.1-5c1.3-1.2,2.8-1.7,4.6-1.7
			C116.8,21,118.6,23.2,118.6,27.5z M112.8,24.4c-0.7,0-1.4,0.5-2,1.4c-0.6,0.9-1.2,2.3-1.6,4.1c-0.4,1.8-0.7,3.5-0.7,5
			c0,1,0.1,1.8,0.4,2.4c0.3,0.5,0.7,0.8,1.3,0.8c0.7,0,1.4-0.5,2.1-1.5c0.6-1,1.2-2.3,1.6-4.1c0.4-1.8,0.6-3.5,0.6-5.3
			c0-1-0.1-1.7-0.4-2.2C113.7,24.6,113.3,24.4,112.8,24.4z"/>
		<path class="st4" d="M129.4,41.3h-4.2l2.5-11.3c0.3-1.4,0.7-2.7,1-3.9c-0.1,0.1-0.4,0.3-0.8,0.6c-0.5,0.4-1.7,1.1-3.6,2.3
			l-1.8-2.9l7.7-4.8h3.4L129.4,41.3z"/>
		<path class="st4" d="M137.2,35.5l0.7-3.4h7.2l-0.7,3.4H137.2z"/>
		<path class="st4" d="M162,27.5c0,2.8-0.4,5.3-1.1,7.5c-0.7,2.2-1.8,3.8-3.1,4.9c-1.3,1.1-2.8,1.7-4.6,1.7c-1.8,0-3.2-0.6-4.1-1.7
			c-0.9-1.1-1.4-2.8-1.4-5c0-2.7,0.4-5.1,1.1-7.2c0.8-2.1,1.8-3.8,3.1-5c1.3-1.2,2.8-1.7,4.6-1.7C160.2,21,162,23.2,162,27.5z
			 M156.2,24.4c-0.7,0-1.4,0.5-2,1.4c-0.6,0.9-1.2,2.3-1.6,4.1c-0.4,1.8-0.7,3.5-0.7,5c0,1,0.1,1.8,0.4,2.4c0.3,0.5,0.7,0.8,1.3,0.8
			c0.7,0,1.4-0.5,2.1-1.5c0.6-1,1.2-2.3,1.6-4.1c0.4-1.8,0.6-3.5,0.6-5.3c0-1-0.1-1.7-0.4-2.2C157.2,24.6,156.8,24.4,156.2,24.4z"/>
		<path class="st4" d="M178.4,27.6c0,2.6-0.5,5-1.4,7.3c-0.9,2.3-2.1,4-3.6,5.1c-1.5,1.1-3.3,1.6-5.5,1.6c-1.2,0-2.3-0.1-3.3-0.4
			v-3.5c1,0.4,2,0.6,3.1,0.6c1.6,0,2.9-0.5,3.9-1.4c1-0.9,1.8-2.5,2.3-4.7h-0.1c-1,1.4-2.4,2.2-4,2.2c-1.5,0-2.6-0.5-3.4-1.4
			c-0.8-0.9-1.2-2.2-1.2-3.9c0-1.5,0.3-2.9,1-4.2c0.7-1.3,1.6-2.2,2.7-2.8c1.1-0.6,2.4-0.9,3.9-0.9c1.8,0,3.3,0.6,4.2,1.7
			C177.9,23.8,178.4,25.4,178.4,27.6z M172.3,24.4c-0.6,0-1.1,0.2-1.6,0.6c-0.5,0.4-0.8,0.9-1.1,1.6c-0.3,0.7-0.4,1.4-0.4,2.1
			c0,0.8,0.2,1.4,0.5,1.8c0.3,0.4,0.8,0.6,1.4,0.6c0.5,0,1.1-0.2,1.5-0.5c0.5-0.3,0.8-0.8,1.1-1.4c0.3-0.6,0.4-1.3,0.4-2.2
			c0-0.8-0.2-1.4-0.5-1.9C173.5,24.6,173,24.4,172.3,24.4z"/>
	</g>
</g>
</svg>
