<?xml version="1.0" encoding="utf-8"?>
<!-- Generator: Adobe Illustrator 26.5.3, SVG Export Plug-In . SVG Version: 6.00 Build 0)  -->
<svg version="1.1" id="圖層_1" xmlns="http://www.w3.org/2000/svg" xmlns:xlink="http://www.w3.org/1999/xlink" x="0px" y="0px"
	 viewBox="0 0 90 90" style="enable-background:new 0 0 90 90;" xml:space="preserve">
<style type="text/css">
	.st0{fill:#FFFFFF;}
	.st1{enable-background:new    ;}
</style>
<circle cx="154" cy="48" r="45"/>
<g>
	<path class="st0" d="M13,35l3.6-16.8h3.5l-2.9,13.9H23L22.4,35H13z"/>
	<path class="st0" d="M31.9,35.2c-1.6,0-2.9-0.4-3.7-1.3c-0.9-0.9-1.3-2.1-1.3-3.7s0.3-3,0.9-4.3s1.5-2.3,2.6-3s2.3-1,3.7-1
		c1.4,0,2.4,0.3,3.2,0.9s1.1,1.5,1.1,2.6c0,1.4-0.6,2.5-1.9,3.3c-1.3,0.8-3.1,1.2-5.5,1.2h-0.6v0.2v0.2c0,0.7,0.2,1.2,0.6,1.6
		s1,0.6,1.7,0.6s1.3-0.1,1.8-0.2c0.5-0.1,1.2-0.4,2-0.8v2.6C35,34.9,33.5,35.2,31.9,35.2z M33.8,24.4c-0.7,0-1.3,0.3-1.9,0.9
		s-1,1.4-1.2,2.2h0.5c1.2,0,2.1-0.2,2.8-0.6s1-0.9,1-1.5S34.6,24.4,33.8,24.4z"/>
	<path class="st0" d="M45.1,31.6c0.5-1.4,0.8-2.2,1-2.6l3.4-6.8h3.7L46.3,35h-3.7L41,22.2h3.4l0.5,6.7C45,29.9,45,30.8,45.1,31.6
		C45,31.6,45.1,31.6,45.1,31.6z"/>
	<path class="st0" d="M59.2,35.2c-1.6,0-2.9-0.4-3.7-1.3c-0.9-0.9-1.3-2.1-1.3-3.7s0.3-3,0.9-4.3c0.6-1.3,1.5-2.3,2.6-3s2.3-1,3.7-1
		s2.4,0.3,3.2,0.9c0.8,0.6,1.1,1.5,1.1,2.6c0,1.4-0.6,2.5-1.9,3.3c-1.3,0.8-3.1,1.2-5.5,1.2h-0.6v0.2v0.2c0,0.7,0.2,1.2,0.6,1.6
		c0.4,0.4,1,0.6,1.7,0.6s1.3-0.1,1.8-0.2c0.5-0.1,1.2-0.4,2-0.8v2.6C62.3,34.9,60.8,35.2,59.2,35.2z M61,24.4
		c-0.7,0-1.3,0.3-1.9,0.9c-0.6,0.6-1,1.4-1.2,2.2h0.5c1.2,0,2.1-0.2,2.8-0.6s1-0.9,1-1.5C62.2,24.8,61.8,24.4,61,24.4z"/>
	<path class="st0" d="M71.2,35h-3.5l3.8-17.9H75L71.2,35z"/>
</g>
<text transform="matrix(1 0 0 1 -221.7529 -33.4232)" class="st0" style="font-family:'NotoSans-BoldItalic'; font-size:69.0212px; letter-spacing:2;">Level</text>
<text transform="matrix(1 0 0 1 -300.6143 143.248)" style="fill:#E60012; font-family:'NotoSans-BoldItalic'; font-size:53.7669px;">1</text>
<text transform="matrix(1 0 0 1 -268.6143 143.248)" style="fill:#E60012; font-family:'NotoSans-BoldItalic'; font-size:53.7669px;">2</text>
<text transform="matrix(1 0 0 1 -236.6143 143.248)" style="fill:#E60012; font-family:'NotoSans-BoldItalic'; font-size:53.7669px;">3</text>
<text transform="matrix(1 0 0 1 -204.6143 143.248)" style="fill:#E60012; font-family:'NotoSans-BoldItalic'; font-size:53.7669px;">4</text>
<text transform="matrix(1 0 0 1 -172.6143 143.248)" style="fill:#E60012; font-family:'NotoSans-BoldItalic'; font-size:53.7669px;">5</text>
<text transform="matrix(1 0 0 1 -140.6143 143.248)" style="fill:#E60012; font-family:'NotoSans-BoldItalic'; font-size:53.7669px;">6</text>
<text transform="matrix(1 0 0 1 -108.6143 143.248)" style="fill:#E60012; font-family:'NotoSans-BoldItalic'; font-size:53.7669px;">7</text>
<text transform="matrix(1 0 0 1 -76.6143 143.248)" style="fill:#E60012; font-family:'NotoSans-BoldItalic'; font-size:53.7669px;">8</text>
<text transform="matrix(1 0 0 1 -44.6143 143.248)" style="fill:#E60012; font-family:'NotoSans-BoldItalic'; font-size:53.7669px;">9</text>
<g class="st1">
	<path class="st0" d="M31.3,80.4h-8L28,58.6c0.6-2.7,1.3-5.2,2-7.5c-0.2,0.1-0.7,0.6-1.6,1.2c-0.9,0.7-3.2,2.2-6.9,4.5L18,51.1
		L32.9,42h6.5L31.3,80.4z"/>
	<path class="st0" d="M72,53.8c0,5.4-0.7,10.2-2.1,14.4c-1.4,4.2-3.4,7.4-5.9,9.5c-2.5,2.1-5.4,3.2-8.8,3.2c-3.5,0-6.1-1.1-7.9-3.2
		c-1.8-2.1-2.7-5.3-2.7-9.6c0-5.1,0.7-9.7,2.2-13.8c1.4-4.1,3.4-7.3,6-9.5c2.5-2.2,5.5-3.3,8.8-3.3C68.5,41.4,72,45.5,72,53.8z
		 M60.8,48c-1.4,0-2.7,0.9-3.9,2.7s-2.2,4.5-3.1,7.9c-0.8,3.5-1.3,6.7-1.3,9.7c0,2,0.2,3.5,0.7,4.6c0.5,1,1.3,1.5,2.6,1.5
		c1.4,0,2.8-0.9,4-2.8c1.2-1.9,2.2-4.5,3-7.9c0.8-3.4,1.2-6.8,1.2-10.1c0-1.9-0.3-3.4-0.8-4.3S61.9,48,60.8,48z"/>
</g>
<text transform="matrix(1 0 0 1 86.9702 143.248)" class="st0" style="font-family:'NotoSans-BoldItalic'; font-size:53.7669px;">10</text>
<text transform="matrix(1 0 0 1 142.9306 143.248)" class="st0" style="font-family:'NotoSans-BoldItalic'; font-size:53.7669px;">10</text>
</svg>
