<?xml version="1.0" encoding="utf-8"?>
<!-- Generator: Adobe Illustrator 26.3.1, SVG Export Plug-In . SVG Version: 6.00 Build 0)  -->
<svg version="1.1" id="圖層_1" xmlns="http://www.w3.org/2000/svg" xmlns:xlink="http://www.w3.org/1999/xlink" x="0px" y="0px"
	 viewBox="0 0 600 87.2" style="enable-background:new 0 0 600 87.2;" xml:space="preserve">
<text transform="matrix(1 0 0 1 87.4042 -101.793)" style="font-family:'NotoSansTC-Medium-90ms-RKSJ-H'; font-size:25.931px; letter-spacing:1;">現在就進來我們的英文閱讀樂園吧!</text>
<g>
	<image style="overflow:visible;" width="445" height="38" xlink:href="7387578.png"  transform="matrix(1 0 0 1 77.4 -101.6284)">
	</image>
	<g>
		<image style="overflow:visible;" width="438" height="35" xlink:href="7387579.png"  transform="matrix(1 0 0 1 81.4 -98.6284)">
		</image>
		<g>
			<text transform="matrix(1 0 0 1 87.4044 -81.8282)" style="font-family:'NotoSansTC-Medium-90ms-RKSJ-H'; font-size:11.639px;">Enjoy your English reading experience with SmartReading-English!</text>
		</g>
	</g>
</g>
<image style="overflow:visible;" width="437" height="25" xlink:href="738757F.png"  transform="matrix(0.9686 0 0 0.9686 93.6958 97.0813)">
</image>
<image style="overflow:visible;" width="430" height="19" xlink:href="738757A.png"  transform="matrix(0.9686 0 0 0.9686 97.5701 99.987)">
</image>
<g>
	<path d="M100.8,104h4.9v1.1h-3.6v2.3h3.1v1.1h-3.1v2.7h3.7v1.1h-5V104z"/>
	<path d="M108.3,106.2h1.1l0.1,0.9h0c0.6-0.6,1.2-1,2.1-1c1.3,0,1.9,0.9,1.9,2.5v3.9h-1.3v-3.8c0-1.1-0.3-1.5-1.1-1.5
		c-0.6,0-1,0.3-1.5,0.8v4.4h-1.3V106.2z"/>
	<path d="M114.7,114.9l0.2-1c0.2,0,0.4,0.1,0.6,0.1c0.6,0,0.7-0.4,0.7-1.2v-6.7h1.3v6.7c0,1.3-0.5,2.2-1.9,2.2
		C115.2,115.1,114.9,115,114.7,114.9z M116.1,104.2c0-0.5,0.3-0.8,0.8-0.8c0.5,0,0.8,0.3,0.8,0.8c0,0.5-0.3,0.8-0.8,0.8
		C116.4,105,116.1,104.7,116.1,104.2z"/>
	<path d="M119.9,109.3c0-2.1,1.4-3.3,2.9-3.3s2.9,1.2,2.9,3.3s-1.4,3.3-2.9,3.3S119.9,111.3,119.9,109.3z M124.4,109.3
		c0-1.3-0.6-2.2-1.6-2.2c-1,0-1.6,0.9-1.6,2.2c0,1.3,0.6,2.2,1.6,2.2C123.8,111.5,124.4,110.6,124.4,109.3z"/>
	<path d="M127.6,114.9l0.2-1c0.1,0,0.3,0.1,0.5,0.1c0.7,0,1.1-0.5,1.3-1.2l0.1-0.4l-2.5-6.2h1.3l1.2,3.2c0.2,0.6,0.4,1.2,0.6,1.8
		h0.1c0.2-0.6,0.3-1.2,0.5-1.8l1-3.2h1.3l-2.3,6.6c-0.5,1.3-1.1,2.2-2.5,2.2C128,115,127.8,114.9,127.6,114.9z"/>
	<path d="M138,114.9l0.2-1c0.1,0,0.3,0.1,0.5,0.1c0.7,0,1.1-0.5,1.3-1.2l0.1-0.4l-2.5-6.2h1.3l1.2,3.2c0.2,0.6,0.4,1.2,0.6,1.8h0.1
		c0.2-0.6,0.3-1.2,0.5-1.8l1-3.2h1.3l-2.3,6.6c-0.5,1.3-1.1,2.2-2.5,2.2C138.4,115,138.2,114.9,138,114.9z"/>
	<path d="M144.9,109.3c0-2.1,1.4-3.3,2.9-3.3c1.5,0,2.9,1.2,2.9,3.3s-1.4,3.3-2.9,3.3C146.3,112.5,144.9,111.3,144.9,109.3z
		 M149.5,109.3c0-1.3-0.6-2.2-1.6-2.2c-1,0-1.6,0.9-1.6,2.2c0,1.3,0.6,2.2,1.6,2.2C148.9,111.5,149.5,110.6,149.5,109.3z"/>
	<path d="M153.1,110.1v-3.9h1.3v3.8c0,1.1,0.3,1.5,1,1.5c0.6,0,1-0.3,1.5-0.9v-4.3h1.3v6.2h-1.1l-0.1-0.9h0c-0.6,0.7-1.2,1.1-2,1.1
		C153.7,112.5,153.1,111.7,153.1,110.1z"/>
	<path d="M161,106.2h1.1l0.1,1.1h0c0.4-0.8,1.1-1.3,1.8-1.3c0.3,0,0.5,0,0.7,0.1l-0.2,1.1c-0.2-0.1-0.4-0.1-0.6-0.1
		c-0.5,0-1.1,0.4-1.5,1.3v3.9H161V106.2z"/>
	<path d="M170,104h4.9v1.1h-3.6v2.3h3.1v1.1h-3.1v2.7h3.7v1.1h-5V104z"/>
	<path d="M177.5,106.2h1.1l0.1,0.9h0c0.6-0.6,1.2-1,2.1-1c1.3,0,1.9,0.9,1.9,2.5v3.9h-1.3v-3.8c0-1.1-0.3-1.5-1.1-1.5
		c-0.6,0-1,0.3-1.5,0.8v4.4h-1.3V106.2z"/>
	<path d="M185,113.5c0-0.5,0.3-1,0.9-1.4v-0.1c-0.3-0.2-0.6-0.5-0.6-1c0-0.5,0.4-0.9,0.7-1.2v0c-0.4-0.3-0.8-0.9-0.8-1.7
		c0-1.4,1.1-2.2,2.4-2.2c0.4,0,0.7,0.1,0.9,0.2h2.2v1h-1.2c0.2,0.2,0.4,0.7,0.4,1.1c0,1.4-1,2.1-2.3,2.1c-0.3,0-0.6-0.1-0.9-0.2
		c-0.2,0.2-0.3,0.4-0.3,0.7c0,0.4,0.2,0.6,1,0.6h1.1c1.5,0,2.2,0.5,2.2,1.5c0,1.2-1.3,2.2-3.3,2.2C186.1,115.2,185,114.6,185,113.5z
		 M189.6,113.2c0-0.5-0.4-0.7-1.2-0.7h-0.9c-0.3,0-0.6,0-0.8-0.1c-0.4,0.3-0.5,0.6-0.5,0.9c0,0.6,0.6,1,1.7,1
		C188.9,114.3,189.6,113.8,189.6,113.2z M188.8,108.2c0-0.8-0.5-1.3-1.2-1.3c-0.7,0-1.2,0.5-1.2,1.3c0,0.8,0.5,1.3,1.2,1.3
		S188.8,109.1,188.8,108.2z"/>
	<path d="M192.8,110.9v-7.6h1.3v7.6c0,0.4,0.1,0.5,0.3,0.5c0.1,0,0.1,0,0.2,0l0.2,1c-0.2,0.1-0.4,0.1-0.7,0.1
		C193.2,112.5,192.8,111.9,192.8,110.9z"/>
	<path d="M196.9,104.2c0-0.5,0.3-0.8,0.8-0.8c0.5,0,0.8,0.3,0.8,0.8c0,0.5-0.3,0.8-0.8,0.8C197.2,105,196.9,104.7,196.9,104.2z
		 M197.1,106.2h1.3v6.2h-1.3V106.2z"/>
	<path d="M200.5,111.7l0.6-0.8c0.6,0.4,1.1,0.7,1.8,0.7c0.7,0,1.1-0.4,1.1-0.8c0-0.6-0.7-0.8-1.4-1.1c-0.8-0.3-1.8-0.8-1.8-1.8
		c0-1,0.8-1.8,2.2-1.8c0.8,0,1.5,0.3,2,0.7l-0.6,0.8c-0.4-0.3-0.9-0.5-1.4-0.5c-0.7,0-1,0.3-1,0.8c0,0.5,0.6,0.7,1.3,1
		c0.9,0.3,1.8,0.7,1.8,1.9c0,1-0.8,1.9-2.4,1.9C202,112.5,201.1,112.2,200.5,111.7z"/>
	<path d="M207.4,103.4h1.3v2.4l-0.1,1.2c0.5-0.5,1.2-1,2-1c1.3,0,1.9,0.9,1.9,2.5v3.9h-1.3v-3.8c0-1.1-0.3-1.5-1.1-1.5
		c-0.6,0-1,0.3-1.5,0.8v4.4h-1.3V103.4z"/>
	<path d="M218.7,106.2h1.1l0.1,1.1h0c0.4-0.8,1.1-1.3,1.8-1.3c0.3,0,0.5,0,0.7,0.1l-0.2,1.1c-0.2-0.1-0.4-0.1-0.6-0.1
		c-0.5,0-1.1,0.4-1.5,1.3v3.9h-1.3V106.2z"/>
	<path d="M223.6,109.3c0-2,1.4-3.3,2.8-3.3c1.7,0,2.5,1.2,2.5,2.9c0,0.3,0,0.5-0.1,0.7h-4c0.1,1.2,0.8,1.9,1.9,1.9
		c0.6,0,1-0.2,1.5-0.5l0.5,0.8c-0.6,0.4-1.3,0.7-2.1,0.7C224.9,112.5,223.6,111.3,223.6,109.3z M227.9,108.7c0-1.1-0.5-1.7-1.4-1.7
		c-0.8,0-1.5,0.6-1.6,1.7H227.9z"/>
	<path d="M230.7,110.7c0-1.3,1.1-2,3.7-2.3c0-0.7-0.3-1.4-1.2-1.4c-0.7,0-1.3,0.3-1.8,0.6l-0.5-0.9c0.6-0.4,1.5-0.8,2.5-0.8
		c1.6,0,2.3,1,2.3,2.6v3.7h-1.1l-0.1-0.7h0c-0.6,0.5-1.2,0.9-2,0.9C231.5,112.5,230.7,111.8,230.7,110.7z M234.5,110.8v-1.5
		c-1.8,0.2-2.5,0.7-2.5,1.4c0,0.6,0.4,0.9,1,0.9C233.5,111.5,234,111.2,234.5,110.8z"/>
	<path d="M238,109.3c0-2,1.3-3.3,2.7-3.3c0.7,0,1.2,0.3,1.7,0.7l-0.1-1v-2.3h1.3v9h-1.1l-0.1-0.7h0c-0.5,0.5-1.1,0.8-1.8,0.8
		C239.1,112.5,238,111.3,238,109.3z M242.3,110.7v-3c-0.5-0.4-0.9-0.6-1.4-0.6c-0.9,0-1.6,0.8-1.6,2.2c0,1.4,0.6,2.2,1.5,2.2
		C241.4,111.5,241.9,111.2,242.3,110.7z"/>
	<path d="M246.3,104.2c0-0.5,0.3-0.8,0.8-0.8c0.5,0,0.8,0.3,0.8,0.8c0,0.5-0.3,0.8-0.8,0.8C246.6,105,246.3,104.7,246.3,104.2z
		 M246.4,106.2h1.3v6.2h-1.3V106.2z"/>
	<path d="M250.5,106.2h1.1l0.1,0.9h0c0.6-0.6,1.2-1,2.1-1c1.3,0,1.9,0.9,1.9,2.5v3.9h-1.3v-3.8c0-1.1-0.3-1.5-1.1-1.5
		c-0.6,0-1,0.3-1.5,0.8v4.4h-1.3V106.2z"/>
	<path d="M258,113.5c0-0.5,0.3-1,0.9-1.4v-0.1c-0.3-0.2-0.6-0.5-0.6-1c0-0.5,0.4-0.9,0.7-1.2v0c-0.4-0.3-0.8-0.9-0.8-1.7
		c0-1.4,1.1-2.2,2.4-2.2c0.4,0,0.7,0.1,0.9,0.2h2.2v1h-1.2c0.2,0.2,0.4,0.7,0.4,1.1c0,1.4-1,2.1-2.3,2.1c-0.3,0-0.6-0.1-0.9-0.2
		c-0.2,0.2-0.3,0.4-0.3,0.7c0,0.4,0.2,0.6,1,0.6h1.1c1.5,0,2.2,0.5,2.2,1.5c0,1.2-1.3,2.2-3.3,2.2C259.1,115.2,258,114.6,258,113.5z
		 M262.6,113.2c0-0.5-0.4-0.7-1.2-0.7h-0.9c-0.3,0-0.6,0-0.8-0.1c-0.4,0.3-0.5,0.6-0.5,0.9c0,0.6,0.6,1,1.7,1
		C261.8,114.3,262.6,113.8,262.6,113.2z M261.8,108.2c0-0.8-0.5-1.3-1.2-1.3s-1.2,0.5-1.2,1.3c0,0.8,0.5,1.3,1.2,1.3
		C261.3,109.6,261.8,109.1,261.8,108.2z"/>
	<path d="M268.8,109.3c0-2,1.4-3.3,2.8-3.3c1.7,0,2.5,1.2,2.5,2.9c0,0.3,0,0.5-0.1,0.7h-4c0.1,1.2,0.8,1.9,1.9,1.9
		c0.6,0,1-0.2,1.5-0.5l0.5,0.8c-0.6,0.4-1.3,0.7-2.1,0.7C270.1,112.5,268.8,111.3,268.8,109.3z M273,108.7c0-1.1-0.5-1.7-1.4-1.7
		c-0.8,0-1.5,0.6-1.6,1.7H273z"/>
	<path d="M277.5,109.1l-1.9-3h1.4l0.7,1.2c0.2,0.4,0.4,0.7,0.6,1.1h0c0.2-0.4,0.4-0.7,0.5-1.1l0.7-1.2h1.4l-1.9,3.1l2,3.1h-1.4
		l-0.8-1.3c-0.2-0.4-0.4-0.7-0.6-1.1h-0.1c-0.2,0.4-0.4,0.7-0.6,1.1l-0.7,1.3h-1.4L277.5,109.1z"/>
	<path d="M283.1,106.2h1.1l0.1,0.7h0c0.5-0.5,1.2-0.8,1.9-0.8c1.6,0,2.5,1.3,2.5,3.2c0,2.1-1.3,3.4-2.7,3.4c-0.6,0-1.1-0.2-1.6-0.7
		l0,1.1v2h-1.3V106.2z M287.4,109.2c0-1.3-0.4-2.1-1.5-2.1c-0.5,0-1,0.2-1.5,0.8v3c0.5,0.4,1,0.6,1.3,0.6
		C286.7,111.5,287.4,110.7,287.4,109.2z"/>
	<path d="M290.7,109.3c0-2,1.4-3.3,2.8-3.3c1.7,0,2.5,1.2,2.5,2.9c0,0.3,0,0.5-0.1,0.7h-4c0.1,1.2,0.8,1.9,1.9,1.9
		c0.6,0,1-0.2,1.5-0.5l0.5,0.8c-0.6,0.4-1.3,0.7-2.1,0.7C292,112.5,290.7,111.3,290.7,109.3z M294.9,108.7c0-1.1-0.5-1.7-1.4-1.7
		c-0.8,0-1.5,0.6-1.6,1.7H294.9z"/>
	<path d="M298.3,106.2h1.1l0.1,1.1h0c0.4-0.8,1.1-1.3,1.8-1.3c0.3,0,0.5,0,0.7,0.1l-0.2,1.1c-0.2-0.1-0.4-0.1-0.6-0.1
		c-0.5,0-1.1,0.4-1.5,1.3v3.9h-1.3V106.2z"/>
	<path d="M303.7,104.2c0-0.5,0.3-0.8,0.8-0.8c0.5,0,0.8,0.3,0.8,0.8c0,0.5-0.3,0.8-0.8,0.8C304,105,303.7,104.7,303.7,104.2z
		 M303.8,106.2h1.3v6.2h-1.3V106.2z"/>
	<path d="M307.5,109.3c0-2,1.4-3.3,2.8-3.3c1.7,0,2.5,1.2,2.5,2.9c0,0.3,0,0.5-0.1,0.7h-4c0.1,1.2,0.8,1.9,1.9,1.9
		c0.6,0,1-0.2,1.5-0.5l0.5,0.8c-0.6,0.4-1.3,0.7-2.1,0.7C308.8,112.5,307.5,111.3,307.5,109.3z M311.7,108.7c0-1.1-0.5-1.7-1.4-1.7
		c-0.8,0-1.5,0.6-1.6,1.7H311.7z"/>
	<path d="M315.1,106.2h1.1l0.1,0.9h0c0.6-0.6,1.2-1,2.1-1c1.3,0,1.9,0.9,1.9,2.5v3.9H319v-3.8c0-1.1-0.3-1.5-1.1-1.5
		c-0.6,0-1,0.3-1.5,0.8v4.4h-1.3V106.2z"/>
	<path d="M322.6,109.3c0-2.1,1.4-3.3,3.1-3.3c0.8,0,1.4,0.3,1.8,0.7l-0.6,0.8c-0.3-0.3-0.7-0.5-1.1-0.5c-1.1,0-1.8,0.9-1.8,2.2
		c0,1.3,0.7,2.2,1.8,2.2c0.5,0,1-0.2,1.4-0.6l0.5,0.9c-0.6,0.5-1.3,0.8-2,0.8C323.9,112.5,322.6,111.3,322.6,109.3z"/>
	<path d="M329,109.3c0-2,1.4-3.3,2.8-3.3c1.7,0,2.5,1.2,2.5,2.9c0,0.3,0,0.5-0.1,0.7h-4c0.1,1.2,0.8,1.9,1.9,1.9
		c0.6,0,1-0.2,1.5-0.5l0.5,0.8c-0.6,0.4-1.3,0.7-2.1,0.7C330.4,112.5,329,111.3,329,109.3z M333.3,108.7c0-1.1-0.5-1.7-1.4-1.7
		c-0.8,0-1.5,0.6-1.6,1.7H333.3z"/>
	<path d="M339.4,106.2h1.3l0.8,3.4c0.1,0.6,0.2,1.2,0.3,1.8h0c0.1-0.6,0.3-1.2,0.4-1.8l0.9-3.4h1.2l0.9,3.4c0.1,0.6,0.3,1.2,0.4,1.8
		h0c0.1-0.6,0.2-1.2,0.4-1.8l0.8-3.4h1.2l-1.6,6.2H345l-0.8-3.1c-0.1-0.6-0.3-1.2-0.4-1.8h-0.1c-0.1,0.6-0.2,1.2-0.4,1.8l-0.8,3.1
		h-1.5L339.4,106.2z"/>
	<path d="M350.1,104.2c0-0.5,0.3-0.8,0.8-0.8c0.5,0,0.8,0.3,0.8,0.8c0,0.5-0.3,0.8-0.8,0.8C350.5,105,350.1,104.7,350.1,104.2z
		 M350.3,106.2h1.3v6.2h-1.3V106.2z"/>
	<path d="M354.6,110.4v-3.1h-0.9v-1l1-0.1l0.1-1.7h1.1v1.7h1.6v1h-1.6v3.2c0,0.7,0.3,1.1,0.9,1.1c0.2,0,0.5-0.1,0.7-0.1l0.2,1
		c-0.4,0.1-0.8,0.2-1.2,0.2C355.1,112.5,354.6,111.7,354.6,110.4z"/>
	<path d="M359.7,103.4h1.3v2.4L361,107c0.5-0.5,1.2-1,2-1c1.3,0,1.9,0.9,1.9,2.5v3.9h-1.3v-3.8c0-1.1-0.3-1.5-1.1-1.5
		c-0.6,0-1,0.3-1.5,0.8v4.4h-1.3V103.4z"/>
	<path d="M370.5,111.3l0.8-0.9c0.6,0.6,1.4,1,2.2,1c1,0,1.6-0.5,1.6-1.2c0-0.8-0.6-1-1.3-1.3l-1.2-0.5c-0.8-0.3-1.7-1-1.7-2.2
		c0-1.3,1.2-2.3,2.7-2.3c1,0,1.9,0.4,2.5,1.1l-0.7,0.8c-0.5-0.5-1.1-0.7-1.8-0.7c-0.8,0-1.4,0.4-1.4,1.1c0,0.7,0.7,1,1.3,1.3
		l1.1,0.5c1,0.4,1.7,1,1.7,2.3c0,1.3-1.1,2.4-2.9,2.4C372.3,112.5,371.3,112.1,370.5,111.3z"/>
	<path d="M378.7,106.2h1.1l0.1,0.9h0c0.5-0.6,1.2-1,1.9-1c0.9,0,1.4,0.4,1.7,1.1c0.6-0.7,1.2-1.1,2-1.1c1.3,0,1.9,0.9,1.9,2.5v3.9
		h-1.3v-3.8c0-1.1-0.3-1.5-1-1.5c-0.4,0-0.9,0.3-1.4,0.8v4.4h-1.3v-3.8c0-1.1-0.3-1.5-1-1.5c-0.4,0-0.9,0.3-1.4,0.8v4.4h-1.3V106.2z
		"/>
	<path d="M389.9,110.7c0-1.3,1.1-2,3.7-2.3c0-0.7-0.3-1.4-1.2-1.4c-0.7,0-1.3,0.3-1.8,0.6l-0.5-0.9c0.6-0.4,1.5-0.8,2.5-0.8
		c1.5,0,2.3,1,2.3,2.6v3.7h-1.1l-0.1-0.7h0c-0.6,0.5-1.2,0.9-2,0.9C390.6,112.5,389.9,111.8,389.9,110.7z M393.6,110.8v-1.5
		c-1.8,0.2-2.5,0.7-2.5,1.4c0,0.6,0.4,0.9,1,0.9C392.6,111.5,393.1,111.2,393.6,110.8z"/>
	<path d="M397.6,106.2h1.1l0.1,1.1h0c0.4-0.8,1.1-1.3,1.8-1.3c0.3,0,0.5,0,0.7,0.1l-0.2,1.1c-0.2-0.1-0.4-0.1-0.6-0.1
		c-0.5,0-1.1,0.4-1.5,1.3v3.9h-1.3V106.2z"/>
	<path d="M403.2,110.4v-3.1h-0.9v-1l1-0.1l0.1-1.7h1.1v1.7h1.6v1h-1.6v3.2c0,0.7,0.3,1.1,0.9,1.1c0.2,0,0.5-0.1,0.7-0.1l0.2,1
		c-0.4,0.1-0.8,0.2-1.2,0.2C403.7,112.5,403.2,111.7,403.2,110.4z"/>
	<path d="M408.5,104h2.7c1.7,0,3,0.6,3,2.4c0,1.3-0.7,2.1-1.7,2.4l2,3.5H413l-1.9-3.4h-1.3v3.4h-1.3V104z M411.1,108
		c1.2,0,1.9-0.5,1.9-1.5s-0.7-1.4-1.9-1.4h-1.3v2.9H411.1z"/>
	<path d="M416.1,109.3c0-2,1.4-3.3,2.8-3.3c1.7,0,2.5,1.2,2.5,2.9c0,0.3,0,0.5-0.1,0.7h-4c0.1,1.2,0.8,1.9,1.9,1.9
		c0.6,0,1-0.2,1.5-0.5l0.5,0.8c-0.6,0.4-1.3,0.7-2.1,0.7C417.4,112.5,416.1,111.3,416.1,109.3z M420.3,108.7c0-1.1-0.5-1.7-1.4-1.7
		c-0.8,0-1.5,0.6-1.6,1.7H420.3z"/>
	<path d="M423.2,110.7c0-1.3,1.1-2,3.7-2.3c0-0.7-0.3-1.4-1.2-1.4c-0.7,0-1.3,0.3-1.8,0.6l-0.5-0.9c0.6-0.4,1.5-0.8,2.5-0.8
		c1.5,0,2.3,1,2.3,2.6v3.7h-1.1l-0.1-0.7h0c-0.6,0.5-1.2,0.9-2,0.9C424,112.5,423.2,111.8,423.2,110.7z M426.9,110.8v-1.5
		c-1.8,0.2-2.5,0.7-2.5,1.4c0,0.6,0.4,0.9,1,0.9C426,111.5,426.4,111.2,426.9,110.8z"/>
	<path d="M430.5,109.3c0-2,1.3-3.3,2.7-3.3c0.7,0,1.2,0.3,1.7,0.7l-0.1-1v-2.3h1.3v9H435l-0.1-0.7h0c-0.5,0.5-1.1,0.8-1.8,0.8
		C431.5,112.5,430.5,111.3,430.5,109.3z M434.8,110.7v-3c-0.5-0.4-0.9-0.6-1.4-0.6c-0.9,0-1.6,0.8-1.6,2.2c0,1.4,0.6,2.2,1.5,2.2
		C433.9,111.5,434.4,111.2,434.8,110.7z"/>
	<path d="M438.7,104.2c0-0.5,0.3-0.8,0.8-0.8c0.5,0,0.8,0.3,0.8,0.8c0,0.5-0.3,0.8-0.8,0.8C439.1,105,438.7,104.7,438.7,104.2z
		 M438.9,106.2h1.3v6.2h-1.3V106.2z"/>
	<path d="M443,106.2h1.1l0.1,0.9h0c0.6-0.6,1.2-1,2.1-1c1.3,0,1.9,0.9,1.9,2.5v3.9h-1.3v-3.8c0-1.1-0.3-1.5-1.1-1.5
		c-0.6,0-1,0.3-1.5,0.8v4.4H443V106.2z"/>
	<path d="M450.5,113.5c0-0.5,0.3-1,0.9-1.4v-0.1c-0.3-0.2-0.6-0.5-0.6-1c0-0.5,0.4-0.9,0.7-1.2v0c-0.4-0.3-0.8-0.9-0.8-1.7
		c0-1.4,1.1-2.2,2.4-2.2c0.4,0,0.7,0.1,0.9,0.2h2.2v1H455c0.2,0.2,0.4,0.7,0.4,1.1c0,1.4-1,2.1-2.3,2.1c-0.3,0-0.6-0.1-0.9-0.2
		c-0.2,0.2-0.3,0.4-0.3,0.7c0,0.4,0.2,0.6,1,0.6h1.1c1.5,0,2.2,0.5,2.2,1.5c0,1.2-1.3,2.2-3.3,2.2
		C451.5,115.2,450.5,114.6,450.5,113.5z M455,113.2c0-0.5-0.4-0.7-1.2-0.7h-0.9c-0.3,0-0.6,0-0.8-0.1c-0.4,0.3-0.5,0.6-0.5,0.9
		c0,0.6,0.6,1,1.7,1C454.3,114.3,455,113.8,455,113.2z M454.3,108.2c0-0.8-0.5-1.3-1.2-1.3c-0.7,0-1.2,0.5-1.2,1.3
		c0,0.8,0.5,1.3,1.2,1.3C453.7,109.6,454.3,109.1,454.3,108.2z"/>
	<path d="M457.8,108.7h3v1h-3V108.7z"/>
	<path d="M463.3,104h4.9v1.1h-3.6v2.3h3.1v1.1h-3.1v2.7h3.7v1.1h-5V104z"/>
	<path d="M470.8,106.2h1.1l0.1,0.9h0c0.6-0.6,1.2-1,2.1-1c1.3,0,1.9,0.9,1.9,2.5v3.9h-1.3v-3.8c0-1.1-0.3-1.5-1.1-1.5
		c-0.6,0-1,0.3-1.5,0.8v4.4h-1.3V106.2z"/>
	<path d="M478.3,113.5c0-0.5,0.3-1,0.9-1.4v-0.1c-0.3-0.2-0.6-0.5-0.6-1c0-0.5,0.4-0.9,0.7-1.2v0c-0.4-0.3-0.8-0.9-0.8-1.7
		c0-1.4,1.1-2.2,2.4-2.2c0.4,0,0.7,0.1,0.9,0.2h2.2v1h-1.2c0.2,0.2,0.4,0.7,0.4,1.1c0,1.4-1,2.1-2.3,2.1c-0.3,0-0.6-0.1-0.9-0.2
		c-0.2,0.2-0.3,0.4-0.3,0.7c0,0.4,0.2,0.6,1,0.6h1.1c1.5,0,2.2,0.5,2.2,1.5c0,1.2-1.3,2.2-3.3,2.2
		C479.4,115.2,478.3,114.6,478.3,113.5z M482.9,113.2c0-0.5-0.4-0.7-1.2-0.7h-0.9c-0.3,0-0.6,0-0.8-0.1c-0.4,0.3-0.5,0.6-0.5,0.9
		c0,0.6,0.6,1,1.7,1C482.1,114.3,482.9,113.8,482.9,113.2z M482.1,108.2c0-0.8-0.5-1.3-1.2-1.3c-0.7,0-1.2,0.5-1.2,1.3
		c0,0.8,0.5,1.3,1.2,1.3C481.5,109.6,482.1,109.1,482.1,108.2z"/>
	<path d="M486.1,110.9v-7.6h1.3v7.6c0,0.4,0.1,0.5,0.3,0.5c0.1,0,0.1,0,0.2,0l0.2,1c-0.2,0.1-0.4,0.1-0.7,0.1
		C486.5,112.5,486.1,111.9,486.1,110.9z"/>
	<path d="M490.2,104.2c0-0.5,0.3-0.8,0.8-0.8c0.5,0,0.8,0.3,0.8,0.8c0,0.5-0.3,0.8-0.8,0.8C490.5,105,490.2,104.7,490.2,104.2z
		 M490.3,106.2h1.3v6.2h-1.3V106.2z"/>
	<path d="M493.8,111.7l0.6-0.8c0.6,0.4,1.1,0.7,1.8,0.7c0.7,0,1.1-0.4,1.1-0.8c0-0.6-0.7-0.8-1.4-1.1c-0.8-0.3-1.8-0.8-1.8-1.8
		c0-1,0.8-1.8,2.2-1.8c0.8,0,1.5,0.3,2,0.7l-0.6,0.8c-0.4-0.3-0.9-0.5-1.4-0.5c-0.7,0-1,0.3-1,0.8c0,0.5,0.6,0.7,1.3,1
		c0.9,0.3,1.8,0.7,1.8,1.9c0,1-0.8,1.9-2.4,1.9C495.2,112.5,494.4,112.2,493.8,111.7z"/>
	<path d="M500.7,103.4h1.3v2.4l-0.1,1.2c0.5-0.5,1.2-1,2-1c1.3,0,1.9,0.9,1.9,2.5v3.9h-1.3v-3.8c0-1.1-0.3-1.5-1.1-1.5
		c-0.6,0-1,0.3-1.5,0.8v4.4h-1.3V103.4z"/>
	<path d="M508.7,111.6c0-0.5,0.4-0.9,0.9-0.9c0.5,0,0.9,0.4,0.9,0.9c0,0.5-0.4,0.9-0.9,0.9C509,112.5,508.7,112.2,508.7,111.6z
		 M508.9,105.2l0-1.3h1.3l0,1.3l-0.2,4.5h-0.9L508.9,105.2z"/>
</g>
<g>
	<g>
		<g>
			
				<image style="overflow:visible;" width="20" height="22" xlink:href="738757B.png"  transform="matrix(1.4052 0 0 1.4052 1.2646 53.2659)">
			</image>
			<g>
				
					<image style="overflow:visible;" width="12" height="16" xlink:href="7387576.png"  transform="matrix(1.4052 0 0 1.4052 6.8852 57.4814)">
				</image>
				<g>
					<path d="M12.2,62.9h6.9v1.6h-5.1v3.3h4.3v1.6h-4.3v3.8h5.2v1.6h-7.1V62.9z"/>
				</g>
			</g>
		</g>
		<g>
			
				<image style="overflow:visible;" width="18" height="20" xlink:href="7387577.png"  transform="matrix(1.4052 0 0 1.4052 13.911 56.0762)">
			</image>
			<g>
				
					<image style="overflow:visible;" width="12" height="14" xlink:href="7387588.png"  transform="matrix(1.4052 0 0 1.4052 18.1265 60.2917)">
				</image>
				<g>
					<path d="M22.8,65.9h1.5l0.1,1.2h0c0.8-0.8,1.7-1.4,2.9-1.4c1.9,0,2.7,1.2,2.7,3.5v5.5h-1.8v-5.3c0-1.5-0.4-2.1-1.5-2.1
						c-0.8,0-1.4,0.4-2.1,1.2v6.2h-1.8V65.9z"/>
				</g>
			</g>
		</g>
		<g>
			
				<image style="overflow:visible;" width="17" height="24" xlink:href="738758B.png"  transform="matrix(1.4052 0 0 1.4052 22.3419 53.2659)">
			</image>
			<g>
				
					<image style="overflow:visible;" width="10" height="18" xlink:href="B28FAA7.png"  transform="matrix(1.4052 0 0 1.4052 26.5574 57.4814)">
				</image>
				<g>
					<path d="M31.7,78.2l0.3-1.4c0.2,0.1,0.5,0.1,0.8,0.1c0.8,0,1-0.6,1-1.6v-9.4h1.8v9.4c0,1.8-0.7,3.1-2.6,3.1
						C32.5,78.4,32.1,78.3,31.7,78.2z M33.7,63.2c0-0.7,0.5-1.1,1.1-1.1c0.7,0,1.1,0.4,1.1,1.1c0,0.7-0.5,1.1-1.1,1.1
						C34.1,64.3,33.7,63.8,33.7,63.2z"/>
				</g>
			</g>
		</g>
		<g>
			
				<image style="overflow:visible;" width="19" height="20" xlink:href="B28FAA5.png"  transform="matrix(1.4052 0 0 1.4052 29.3677 56.0762)">
			</image>
			<g>
				
					<image style="overflow:visible;" width="13" height="14" xlink:href="B28FAA3.png"  transform="matrix(1.4052 0 0 1.4052 33.5831 60.2917)">
				</image>
				<g>
					<path d="M39.1,70.3c0-2.9,2-4.6,4.1-4.6c2.2,0,4.1,1.7,4.1,4.6c0,2.9-2,4.6-4.1,4.6C41,74.8,39.1,73.2,39.1,70.3z M45.4,70.3
						c0-1.8-0.9-3.1-2.2-3.1c-1.4,0-2.2,1.2-2.2,3.1c0,1.9,0.9,3.1,2.2,3.1C44.6,73.3,45.4,72.1,45.4,70.3z"/>
				</g>
			</g>
		</g>
		<g>
			
				<image style="overflow:visible;" width="20" height="22" xlink:href="B28FABD.png"  transform="matrix(1.4052 0 0 1.4052 39.2037 56.0762)">
			</image>
			<g>
				
					<image style="overflow:visible;" width="13" height="16" xlink:href="B28FABF.png"  transform="matrix(1.4052 0 0 1.4052 44.8243 60.2917)">
				</image>
				<g>
					<path d="M49.8,78.1l0.4-1.4c0.2,0,0.4,0.1,0.6,0.1c1,0,1.5-0.7,1.8-1.6l0.2-0.6l-3.5-8.7h1.9l1.6,4.5c0.3,0.8,0.5,1.7,0.8,2.5
						h0.1c0.2-0.8,0.5-1.7,0.7-2.5l1.4-4.5h1.8l-3.2,9.3c-0.7,1.9-1.6,3.1-3.5,3.1C50.5,78.3,50.1,78.2,49.8,78.1z"/>
				</g>
			</g>
		</g>
		<g>
			
				<image style="overflow:visible;" width="21" height="22" xlink:href="B28FAA2.png"  transform="matrix(1.4052 0 0 1.4052 53.2553 56.0762)">
			</image>
			<g>
				
					<image style="overflow:visible;" width="13" height="16" xlink:href="B28FAA1.png"  transform="matrix(1.4052 0 0 1.4052 58.8759 60.2917)">
				</image>
				<g>
					<path d="M64.4,78.1l0.4-1.4c0.2,0,0.4,0.1,0.6,0.1c1,0,1.5-0.7,1.8-1.6l0.2-0.6L64,65.9h1.9l1.6,4.5c0.3,0.8,0.5,1.7,0.8,2.5
						h0.1c0.2-0.8,0.5-1.7,0.7-2.5l1.4-4.5h1.8L69,75.2c-0.7,1.9-1.6,3.1-3.4,3.1C65.1,78.3,64.7,78.2,64.4,78.1z"/>
				</g>
			</g>
		</g>
		<g>
			
				<image style="overflow:visible;" width="19" height="20" xlink:href="B28FAA6.png"  transform="matrix(1.4052 0 0 1.4052 64.4965 56.0762)">
			</image>
			<g>
				
					<image style="overflow:visible;" width="13" height="14" xlink:href="B28FAA0.png"  transform="matrix(1.4052 0 0 1.4052 68.7119 60.2917)">
				</image>
				<g>
					<path d="M74.3,70.3c0-2.9,2-4.6,4.1-4.6s4.1,1.7,4.1,4.6c0,2.9-2,4.6-4.1,4.6S74.3,73.2,74.3,70.3z M80.6,70.3
						c0-1.8-0.9-3.1-2.2-3.1c-1.4,0-2.2,1.2-2.2,3.1c0,1.9,0.9,3.1,2.2,3.1C79.8,73.3,80.6,72.1,80.6,70.3z"/>
				</g>
			</g>
		</g>
		<g>
			
				<image style="overflow:visible;" width="18" height="20" xlink:href="B28FAAE.png"  transform="matrix(1.4052 0 0 1.4052 77.1428 56.0762)">
			</image>
			<g>
				
					<image style="overflow:visible;" width="12" height="14" xlink:href="B28FAC6.png"  transform="matrix(1.4052 0 0 1.4052 81.3583 60.2917)">
				</image>
				<g>
					<path d="M85.7,71.4v-5.5h1.8v5.3c0,1.5,0.4,2.1,1.5,2.1c0.8,0,1.4-0.4,2.1-1.3v-6.1h1.8v8.7h-1.5l-0.1-1.3h0
						c-0.8,0.9-1.7,1.5-2.8,1.5C86.5,74.8,85.7,73.6,85.7,71.4z"/>
				</g>
			</g>
		</g>
		<g>
			
				<image style="overflow:visible;" width="16" height="20" xlink:href="B28FAC5.png"  transform="matrix(1.4052 0 0 1.4052 88.3841 56.0762)">
			</image>
			<g>
				
					<image style="overflow:visible;" width="10" height="14" xlink:href="B28FAC2.png"  transform="matrix(1.4052 0 0 1.4052 92.5995 60.2917)">
				</image>
				<g>
					<path d="M96.9,65.9h1.5l0.1,1.6h0c0.6-1.1,1.5-1.8,2.5-1.8c0.4,0,0.7,0.1,1,0.2l-0.3,1.6c-0.3-0.1-0.5-0.1-0.9-0.1
						c-0.7,0-1.6,0.5-2.1,1.9v5.5h-1.8V65.9z"/>
				</g>
			</g>
		</g>
		<g>
			
				<image style="overflow:visible;" width="19" height="22" xlink:href="B28FACD.png"  transform="matrix(1.4052 0 0 1.4052 99.6253 53.2659)">
			</image>
			<g>
				
					<image style="overflow:visible;" width="12" height="16" xlink:href="B28FACE.png"  transform="matrix(1.4052 0 0 1.4052 105.2459 57.4814)">
				</image>
				<g>
					<path d="M109.5,62.9h6.9v1.6h-5.1v3.3h4.3v1.6h-4.3v3.8h5.2v1.6h-7.1V62.9z"/>
				</g>
			</g>
		</g>
		<g>
			
				<image style="overflow:visible;" width="18" height="20" xlink:href="B28FACC.png"  transform="matrix(1.4052 0 0 1.4052 110.8665 56.0762)">
			</image>
			<g>
				
					<image style="overflow:visible;" width="12" height="14" xlink:href="B28FAC3.png"  transform="matrix(1.4052 0 0 1.4052 115.082 60.2917)">
				</image>
				<g>
					<path d="M120.1,65.9h1.5l0.1,1.2h0c0.8-0.8,1.7-1.4,2.9-1.4c1.9,0,2.7,1.2,2.7,3.5v5.5h-1.8v-5.3c0-1.5-0.4-2.1-1.5-2.1
						c-0.8,0-1.4,0.4-2.1,1.2v6.2h-1.8V65.9z"/>
				</g>
			</g>
		</g>
		<g>
			
				<image style="overflow:visible;" width="20" height="22" xlink:href="B28FAC4.png"  transform="matrix(1.4052 0 0 1.4052 120.7026 56.0762)">
			</image>
			<g>
				
					<image style="overflow:visible;" width="12" height="16" xlink:href="B28FAC7.png"  transform="matrix(1.4052 0 0 1.4052 126.3232 60.2917)">
				</image>
				<g>
					<path d="M130.5,76.3c0-0.7,0.5-1.4,1.3-1.9v-0.1c-0.4-0.3-0.8-0.7-0.8-1.4c0-0.7,0.5-1.3,1-1.6v-0.1c-0.6-0.5-1.2-1.3-1.2-2.3
						c0-2,1.6-3.1,3.4-3.1c0.5,0,0.9,0.1,1.3,0.2h3.1v1.4h-1.7c0.3,0.3,0.6,0.9,0.6,1.6c0,1.9-1.4,3-3.3,3c-0.4,0-0.8-0.1-1.2-0.3
						c-0.3,0.3-0.5,0.5-0.5,0.9c0,0.5,0.4,0.9,1.5,0.9h1.6c2.1,0,3.1,0.6,3.1,2.1c0,1.7-1.8,3.1-4.6,3.1
						C132.1,78.6,130.5,77.8,130.5,76.3z M137,75.8c0-0.7-0.6-1-1.6-1H134c-0.4,0-0.8,0-1.2-0.1c-0.5,0.4-0.7,0.8-0.7,1.3
						c0,0.9,0.9,1.4,2.3,1.4C136,77.4,137,76.6,137,75.8z M135.9,68.8c0-1.2-0.7-1.8-1.7-1.8s-1.7,0.7-1.7,1.8
						c0,1.2,0.7,1.9,1.7,1.9C135.1,70.7,135.9,70,135.9,68.8z"/>
				</g>
			</g>
		</g>
		<g>
			
				<image style="overflow:visible;" width="17" height="22" xlink:href="B28FAFB.png"  transform="matrix(1.4052 0 0 1.4052 130.5386 53.2659)">
			</image>
			<g>
				
					<image style="overflow:visible;" width="9" height="16" xlink:href="B28FAE9.png"  transform="matrix(1.4052 0 0 1.4052 136.1592 57.4814)">
				</image>
				<g>
					<path d="M141.6,72.6V62h1.8v10.7c0,0.5,0.2,0.7,0.4,0.7c0.1,0,0.1,0,0.3,0l0.2,1.4c-0.2,0.1-0.5,0.1-1,0.1
						C142,74.8,141.6,74,141.6,72.6z"/>
				</g>
			</g>
		</g>
		<g>
			
				<image style="overflow:visible;" width="16" height="22" xlink:href="B28FAE7.png"  transform="matrix(1.4052 0 0 1.4052 137.5644 53.2659)">
			</image>
			<g>
				
					<image style="overflow:visible;" width="9" height="16" xlink:href="B28FAD9.png"  transform="matrix(1.4052 0 0 1.4052 141.7798 57.4814)">
				</image>
				<g>
					<path d="M147.3,63.2c0-0.7,0.5-1.1,1.1-1.1c0.7,0,1.1,0.4,1.1,1.1c0,0.7-0.5,1.1-1.1,1.1C147.7,64.3,147.3,63.8,147.3,63.2z
						 M147.5,65.9h1.8v8.7h-1.8V65.9z"/>
				</g>
			</g>
		</g>
		<g>
			
				<image style="overflow:visible;" width="20" height="20" xlink:href="B28FADB.png"  transform="matrix(1.4052 0 0 1.4052 141.7798 56.0762)">
			</image>
			<g>
				
					<image style="overflow:visible;" width="12" height="14" xlink:href="B28FAD8.png"  transform="matrix(1.4052 0 0 1.4052 147.4005 60.2917)">
				</image>
				<g>
					<path d="M152.3,73.6l0.9-1.2c0.8,0.6,1.5,1,2.5,1c1,0,1.5-0.5,1.5-1.2c0-0.8-1-1.1-1.9-1.5c-1.2-0.4-2.5-1.1-2.5-2.5
						c0-1.5,1.2-2.6,3.1-2.6c1.2,0,2.1,0.5,2.8,1l-0.9,1.1c-0.6-0.4-1.2-0.8-1.9-0.8c-1,0-1.4,0.5-1.4,1.1c0,0.7,0.9,1,1.8,1.4
						c1.2,0.5,2.6,1,2.6,2.7c0,1.5-1.2,2.7-3.3,2.7C154.4,74.8,153.2,74.3,152.3,73.6z"/>
				</g>
			</g>
		</g>
		<g>
			
				<image style="overflow:visible;" width="20" height="22" xlink:href="B28FADF.png"  transform="matrix(1.4052 0 0 1.4052 151.6159 53.2659)">
			</image>
			<g>
				
					<image style="overflow:visible;" width="12" height="16" xlink:href="B28FADA.png"  transform="matrix(1.4052 0 0 1.4052 157.2365 57.4814)">
				</image>
				<g>
					<path d="M162.1,62h1.8v3.4l-0.1,1.7c0.8-0.7,1.6-1.4,2.8-1.4c1.9,0,2.7,1.2,2.7,3.5v5.5h-1.8v-5.3c0-1.5-0.4-2.1-1.5-2.1
						c-0.8,0-1.4,0.4-2.1,1.2v6.2h-1.8V62z"/>
				</g>
			</g>
		</g>
		<g>
			
				<image style="overflow:visible;" width="18" height="20" xlink:href="B28FAD6.png"  transform="matrix(1.4052 0 0 1.4052 168.4777 56.0762)">
			</image>
			<g>
				
					<image style="overflow:visible;" width="11" height="14" xlink:href="B28FAD7.png"  transform="matrix(1.4052 0 0 1.4052 172.6932 60.2917)">
				</image>
				<g>
					<path d="M177.9,65.9h1.5l0.1,1.6h0c0.6-1.1,1.5-1.8,2.5-1.8c0.4,0,0.7,0.1,1,0.2l-0.3,1.6c-0.3-0.1-0.5-0.1-0.9-0.1
						c-0.7,0-1.6,0.5-2.1,1.9v5.5h-1.8V65.9z"/>
				</g>
			</g>
		</g>
		<g>
			
				<image style="overflow:visible;" width="18" height="20" xlink:href="B28FB27.png"  transform="matrix(1.4052 0 0 1.4052 175.5035 56.0762)">
			</image>
			<g>
				
					<image style="overflow:visible;" width="12" height="14" xlink:href="B28FB34.png"  transform="matrix(1.4052 0 0 1.4052 179.719 60.2917)">
				</image>
				<g>
					<path d="M184.8,70.3c0-2.8,2-4.6,4-4.6c2.3,0,3.6,1.7,3.6,4.1c0,0.4,0,0.7-0.1,0.9h-5.7c0.1,1.7,1.2,2.7,2.7,2.7
						c0.8,0,1.4-0.2,2.1-0.7l0.6,1.2c-0.8,0.5-1.8,0.9-3,0.9C186.7,74.8,184.8,73.2,184.8,70.3z M190.8,69.5c0-1.5-0.7-2.4-2-2.4
						c-1.1,0-2.1,0.8-2.2,2.4H190.8z"/>
				</g>
			</g>
		</g>
		<g>
			
				<image style="overflow:visible;" width="19" height="20" xlink:href="B28FB37.png"  transform="matrix(1.4052 0 0 1.4052 183.9344 56.0762)">
			</image>
			<g>
				
					<image style="overflow:visible;" width="12" height="14" xlink:href="B28FB35.png"  transform="matrix(1.4052 0 0 1.4052 189.555 60.2917)">
				</image>
				<g>
					<path d="M194.8,72.3c0-1.9,1.6-2.8,5.2-3.2c0-1-0.4-1.9-1.7-1.9c-0.9,0-1.8,0.4-2.5,0.9l-0.7-1.2c0.9-0.6,2.1-1.1,3.5-1.1
						c2.2,0,3.2,1.4,3.2,3.7v5.3h-1.5l-0.1-1h-0.1c-0.8,0.7-1.7,1.2-2.8,1.2C195.9,74.8,194.8,73.9,194.8,72.3z M200.1,72.4v-2.1
						c-2.6,0.3-3.5,1-3.5,2c0,0.9,0.6,1.2,1.4,1.2C198.7,73.4,199.3,73,200.1,72.4z"/>
				</g>
			</g>
		</g>
		<g>
			
				<image style="overflow:visible;" width="20" height="22" xlink:href="B28FB33.png"  transform="matrix(1.4052 0 0 1.4052 195.1756 53.2659)">
			</image>
			<g>
				
					<image style="overflow:visible;" width="12" height="16" xlink:href="B28FB0C.png"  transform="matrix(1.4052 0 0 1.4052 200.7962 57.4814)">
				</image>
				<g>
					<path d="M205.1,70.3c0-2.8,1.8-4.6,3.8-4.6c1,0,1.6,0.4,2.4,1l-0.1-1.4V62h1.8v12.7h-1.5l-0.1-1h-0.1c-0.7,0.7-1.6,1.2-2.5,1.2
						C206.5,74.8,205.1,73.2,205.1,70.3z M211.1,72.3V68c-0.7-0.6-1.3-0.8-1.9-0.8c-1.2,0-2.2,1.2-2.2,3.1c0,2,0.8,3.1,2.1,3.1
						C209.8,73.3,210.5,73,211.1,72.3z"/>
				</g>
			</g>
		</g>
		<g>
			
				<image style="overflow:visible;" width="16" height="22" xlink:href="B28FB0F.png"  transform="matrix(1.4052 0 0 1.4052 206.4169 53.2659)">
			</image>
			<g>
				
					<image style="overflow:visible;" width="8" height="16" xlink:href="B28FB0D.png"  transform="matrix(1.4052 0 0 1.4052 212.0375 57.4814)">
				</image>
				<g>
					<path d="M216.6,63.2c0-0.7,0.5-1.1,1.1-1.1c0.7,0,1.1,0.4,1.1,1.1c0,0.7-0.5,1.1-1.1,1.1C217.1,64.3,216.6,63.8,216.6,63.2z
						 M216.9,65.9h1.8v8.7h-1.8V65.9z"/>
				</g>
			</g>
		</g>
		<g>
			
				<image style="overflow:visible;" width="18" height="20" xlink:href="B28FB13.png"  transform="matrix(1.4052 0 0 1.4052 213.4426 56.0762)">
			</image>
			<g>
				
					<image style="overflow:visible;" width="12" height="14" xlink:href="B28FB14.png"  transform="matrix(1.4052 0 0 1.4052 217.6581 60.2917)">
				</image>
				<g>
					<path d="M222.6,65.9h1.5l0.1,1.2h0c0.8-0.8,1.7-1.4,2.9-1.4c1.9,0,2.7,1.2,2.7,3.5v5.5h-1.8v-5.3c0-1.5-0.4-2.1-1.5-2.1
						c-0.8,0-1.4,0.4-2.1,1.2v6.2h-1.8V65.9z"/>
				</g>
			</g>
		</g>
		<g>
			
				<image style="overflow:visible;" width="20" height="22" xlink:href="B28FB17.png"  transform="matrix(1.4052 0 0 1.4052 223.2787 56.0762)">
			</image>
			<g>
				
					<image style="overflow:visible;" width="13" height="16" xlink:href="B28FB73.png"  transform="matrix(1.4052 0 0 1.4052 227.4941 60.2917)">
				</image>
				<g>
					<path d="M233.1,76.3c0-0.7,0.5-1.4,1.3-1.9v-0.1c-0.4-0.3-0.8-0.7-0.8-1.4c0-0.7,0.5-1.3,1-1.6v-0.1c-0.6-0.5-1.2-1.3-1.2-2.3
						c0-2,1.6-3.1,3.4-3.1c0.5,0,0.9,0.1,1.3,0.2h3.1v1.4h-1.7c0.3,0.3,0.6,0.9,0.6,1.6c0,1.9-1.4,3-3.3,3c-0.4,0-0.8-0.1-1.2-0.3
						c-0.3,0.3-0.5,0.5-0.5,0.9c0,0.5,0.4,0.9,1.5,0.9h1.6c2.1,0,3.1,0.6,3.1,2.1c0,1.7-1.8,3.1-4.6,3.1
						C234.6,78.6,233.1,77.8,233.1,76.3z M239.5,75.8c0-0.7-0.6-1-1.6-1h-1.3c-0.4,0-0.8,0-1.2-0.1c-0.5,0.4-0.7,0.8-0.7,1.3
						c0,0.9,0.9,1.4,2.3,1.4C238.5,77.4,239.5,76.6,239.5,75.8z M238.4,68.8c0-1.2-0.7-1.8-1.7-1.8s-1.7,0.7-1.7,1.8
						c0,1.2,0.7,1.9,1.7,1.9C237.7,70.7,238.4,70,238.4,68.8z"/>
				</g>
			</g>
		</g>
		<g>
			
				<image style="overflow:visible;" width="19" height="20" xlink:href="B28FB71.png"  transform="matrix(1.4052 0 0 1.4052 238.7354 56.0762)">
			</image>
			<g>
				
					<image style="overflow:visible;" width="13" height="14" xlink:href="B28FB77.png"  transform="matrix(1.4052 0 0 1.4052 242.9508 60.2917)">
				</image>
				<g>
					<path d="M248.3,70.3c0-2.8,2-4.6,4-4.6c2.3,0,3.6,1.7,3.6,4.1c0,0.4,0,0.7-0.1,0.9h-5.7c0.1,1.7,1.2,2.7,2.7,2.7
						c0.8,0,1.4-0.2,2.1-0.7l0.6,1.2c-0.8,0.5-1.8,0.9-3,0.9C250.2,74.8,248.3,73.2,248.3,70.3z M254.2,69.5c0-1.5-0.7-2.4-2-2.4
						c-1.1,0-2.1,0.8-2.2,2.4H254.2z"/>
				</g>
			</g>
		</g>
		<g>
			
				<image style="overflow:visible;" width="20" height="20" xlink:href="B28FB72.png"  transform="matrix(1.4052 0 0 1.4052 247.1663 56.0762)">
			</image>
			<g>
				
					<image style="overflow:visible;" width="13" height="14" xlink:href="B28FB7D.png"  transform="matrix(1.4052 0 0 1.4052 252.7869 60.2917)">
				</image>
				<g>
					<path d="M260.6,70.1l-2.6-4.2h2l1,1.7c0.3,0.5,0.5,1,0.8,1.5h0.1c0.2-0.5,0.5-1,0.7-1.5l0.9-1.7h1.9l-2.6,4.4l2.8,4.4h-2
						l-1.1-1.9c-0.3-0.5-0.6-1-0.9-1.5h-0.1c-0.3,0.5-0.5,1-0.8,1.5l-1,1.9h-1.9L260.6,70.1z"/>
				</g>
			</g>
		</g>
		<g>
			
				<image style="overflow:visible;" width="20" height="22" xlink:href="B28FB7E.png"  transform="matrix(1.4052 0 0 1.4052 258.4075 56.0762)">
			</image>
			<g>
				
					<image style="overflow:visible;" width="12" height="16" xlink:href="B28FB7F.png"  transform="matrix(1.4052 0 0 1.4052 264.0281 60.2917)">
				</image>
				<g>
					<path d="M268.4,65.9h1.5l0.1,1h0c0.8-0.6,1.7-1.2,2.7-1.2c2.2,0,3.4,1.8,3.4,4.5c0,3-1.8,4.7-3.8,4.7c-0.8,0-1.6-0.4-2.3-1
						l0.1,1.5v2.8h-1.8V65.9z M274.4,70.1c0-1.8-0.6-3-2.1-3c-0.7,0-1.3,0.4-2.1,1.1v4.3c0.7,0.6,1.4,0.8,1.9,0.8
						C273.4,73.3,274.4,72.2,274.4,70.1z"/>
				</g>
			</g>
		</g>
		<g>
			
				<image style="overflow:visible;" width="19" height="20" xlink:href="B28FB74.png"  transform="matrix(1.4052 0 0 1.4052 269.6487 56.0762)">
			</image>
			<g>
				
					<image style="overflow:visible;" width="13" height="14" xlink:href="B28FB75.png"  transform="matrix(1.4052 0 0 1.4052 273.8642 60.2917)">
				</image>
				<g>
					<path d="M279,70.3c0-2.8,2-4.6,4-4.6c2.3,0,3.6,1.7,3.6,4.1c0,0.4,0,0.7-0.1,0.9h-5.7c0.1,1.7,1.2,2.7,2.7,2.7
						c0.8,0,1.4-0.2,2.1-0.7l0.6,1.2c-0.8,0.5-1.8,0.9-3,0.9C280.9,74.8,279,73.2,279,70.3z M285,69.5c0-1.5-0.7-2.4-2-2.4
						c-1.1,0-2.1,0.8-2.2,2.4H285z"/>
				</g>
			</g>
		</g>
		<g>
			
				<image style="overflow:visible;" width="17" height="20" xlink:href="B28FB76.png"  transform="matrix(1.4052 0 0 1.4052 280.8899 56.0762)">
			</image>
			<g>
				
					<image style="overflow:visible;" width="11" height="14" xlink:href="B28FB5A.png"  transform="matrix(1.4052 0 0 1.4052 285.1054 60.2917)">
				</image>
				<g>
					<path d="M289.8,65.9h1.5l0.1,1.6h0c0.6-1.1,1.5-1.8,2.5-1.8c0.4,0,0.7,0.1,1,0.2l-0.3,1.6c-0.3-0.1-0.5-0.1-0.9-0.1
						c-0.7,0-1.6,0.5-2.1,1.9v5.5h-1.8V65.9z"/>
				</g>
			</g>
		</g>
		<g>
			
				<image style="overflow:visible;" width="17" height="22" xlink:href="B28FB59.png"  transform="matrix(1.4052 0 0 1.4052 286.5105 53.2659)">
			</image>
			<g>
				
					<image style="overflow:visible;" width="9" height="16" xlink:href="B28FB56.png"  transform="matrix(1.4052 0 0 1.4052 292.1311 57.4814)">
				</image>
				<g>
					<path d="M297.3,63.2c0-0.7,0.5-1.1,1.1-1.1c0.7,0,1.1,0.4,1.1,1.1c0,0.7-0.5,1.1-1.1,1.1C297.7,64.3,297.3,63.8,297.3,63.2z
						 M297.5,65.9h1.8v8.7h-1.8V65.9z"/>
				</g>
			</g>
		</g>
		<g>
			
				<image style="overflow:visible;" width="19" height="20" xlink:href="B28FB29.png"  transform="matrix(1.4052 0 0 1.4052 292.1311 56.0762)">
			</image>
			<g>
				
					<image style="overflow:visible;" width="12" height="14" xlink:href="B28FB2A.png"  transform="matrix(1.4052 0 0 1.4052 297.7517 60.2917)">
				</image>
				<g>
					<path d="M302.6,70.3c0-2.8,2-4.6,4-4.6c2.3,0,3.6,1.7,3.6,4.1c0,0.4,0,0.7-0.1,0.9h-5.7c0.1,1.7,1.2,2.7,2.7,2.7
						c0.8,0,1.4-0.2,2.1-0.7l0.6,1.2c-0.8,0.5-1.8,0.9-3,0.9C304.5,74.8,302.6,73.2,302.6,70.3z M308.6,69.5c0-1.5-0.7-2.4-2-2.4
						c-1.1,0-2.1,0.8-2.2,2.4H308.6z"/>
				</g>
			</g>
		</g>
		<g>
			
				<image style="overflow:visible;" width="18" height="20" xlink:href="B28FB28.png"  transform="matrix(1.4052 0 0 1.4052 304.7775 56.0762)">
			</image>
			<g>
				
					<image style="overflow:visible;" width="12" height="14" xlink:href="B28FB2E.png"  transform="matrix(1.4052 0 0 1.4052 308.993 60.2917)">
				</image>
				<g>
					<path d="M313.4,65.9h1.5l0.1,1.2h0c0.8-0.8,1.7-1.4,2.9-1.4c1.9,0,2.7,1.2,2.7,3.5v5.5h-1.8v-5.3c0-1.5-0.4-2.1-1.5-2.1
						c-0.8,0-1.4,0.4-2.1,1.2v6.2h-1.8V65.9z"/>
				</g>
			</g>
		</g>
		<g>
			
				<image style="overflow:visible;" width="18" height="20" xlink:href="B28FB2B.png"  transform="matrix(1.4052 0 0 1.4052 314.6136 56.0762)">
			</image>
			<g>
				
					<image style="overflow:visible;" width="12" height="14" xlink:href="B28FB26.png"  transform="matrix(1.4052 0 0 1.4052 318.829 60.2917)">
				</image>
				<g>
					<path d="M323.9,70.3c0-2.9,2-4.6,4.3-4.6c1.1,0,1.9,0.4,2.6,1l-0.9,1.2c-0.5-0.4-1-0.7-1.6-0.7c-1.5,0-2.5,1.2-2.5,3.1
						c0,1.9,1,3.1,2.5,3.1c0.7,0,1.4-0.4,1.9-0.8l0.8,1.2c-0.8,0.7-1.8,1.1-2.8,1.1C325.7,74.8,323.9,73.2,323.9,70.3z"/>
				</g>
			</g>
		</g>
		<g>
			
				<image style="overflow:visible;" width="18" height="20" xlink:href="B28FB25.png"  transform="matrix(1.4052 0 0 1.4052 324.4496 56.0762)">
			</image>
			<g>
				
					<image style="overflow:visible;" width="12" height="14" xlink:href="B28FBCD.png"  transform="matrix(1.4052 0 0 1.4052 328.6651 60.2917)">
				</image>
				<g>
					<path d="M332.9,70.3c0-2.8,2-4.6,4-4.6c2.3,0,3.6,1.7,3.6,4.1c0,0.4,0,0.7-0.1,0.9h-5.7c0.1,1.7,1.2,2.7,2.7,2.7
						c0.8,0,1.4-0.2,2.1-0.7l0.6,1.2c-0.8,0.5-1.8,0.9-3,0.9C334.8,74.8,332.9,73.2,332.9,70.3z M338.9,69.5c0-1.5-0.7-2.4-2-2.4
						c-1.1,0-2.1,0.8-2.2,2.4H338.9z"/>
				</g>
			</g>
		</g>
		<g>
			
				<image style="overflow:visible;" width="23" height="20" xlink:href="B28FBCB.png"  transform="matrix(1.4052 0 0 1.4052 337.096 56.0762)">
			</image>
			<g>
				
					<image style="overflow:visible;" width="16" height="14" xlink:href="B28FBC5.png"  transform="matrix(1.4052 0 0 1.4052 342.7166 60.2917)">
				</image>
				<g>
					<path d="M347.5,65.9h1.8l1.2,4.7c0.2,0.9,0.3,1.7,0.5,2.5h0.1c0.2-0.8,0.4-1.7,0.6-2.5l1.2-4.7h1.7l1.3,4.7
						c0.2,0.9,0.4,1.7,0.6,2.5h0.1c0.2-0.8,0.3-1.6,0.5-2.5l1.1-4.7h1.7l-2.3,8.7h-2.2l-1.1-4.3c-0.2-0.8-0.4-1.6-0.6-2.5h-0.1
						c-0.2,0.9-0.3,1.7-0.6,2.5l-1.1,4.3h-2.1L347.5,65.9z"/>
				</g>
			</g>
		</g>
		<g>
			
				<image style="overflow:visible;" width="16" height="22" xlink:href="B28FBC7.png"  transform="matrix(1.4052 0 0 1.4052 352.5527 53.2659)">
			</image>
			<g>
				
					<image style="overflow:visible;" width="8" height="16" xlink:href="B28FBC4.png"  transform="matrix(1.4052 0 0 1.4052 358.1733 57.4814)">
				</image>
				<g>
					<path d="M362.6,63.2c0-0.7,0.5-1.1,1.1-1.1c0.7,0,1.1,0.4,1.1,1.1c0,0.7-0.5,1.1-1.1,1.1C363.1,64.3,362.6,63.8,362.6,63.2z
						 M362.8,65.9h1.8v8.7h-1.8V65.9z"/>
				</g>
			</g>
		</g>
		<g>
			
				<image style="overflow:visible;" width="19" height="21" xlink:href="B28FBDB.png"  transform="matrix(1.4052 0 0 1.4052 356.7681 54.6711)">
			</image>
			<g>
				
					<image style="overflow:visible;" width="11" height="15" xlink:href="B28FBDD.png"  transform="matrix(1.4052 0 0 1.4052 362.3888 58.8865)">
				</image>
				<g>
					<path d="M368.9,71.8v-4.4h-1.3V66l1.4-0.1l0.2-2.4h1.5v2.4h2.3v1.5h-2.3v4.4c0,1,0.4,1.6,1.3,1.6c0.3,0,0.7-0.1,0.9-0.2
						l0.3,1.4c-0.5,0.2-1.1,0.3-1.7,0.3C369.5,74.8,368.9,73.6,368.9,71.8z"/>
				</g>
			</g>
		</g>
		<g>
			
				<image style="overflow:visible;" width="20" height="22" xlink:href="B28FBDF.png"  transform="matrix(1.4052 0 0 1.4052 365.1991 53.2659)">
			</image>
			<g>
				
					<image style="overflow:visible;" width="12" height="16" xlink:href="B28FBDC.png"  transform="matrix(1.4052 0 0 1.4052 370.8197 57.4814)">
				</image>
				<g>
					<path d="M376.1,62h1.8v3.4l-0.1,1.7c0.8-0.7,1.6-1.4,2.8-1.4c1.9,0,2.7,1.2,2.7,3.5v5.5h-1.8v-5.3c0-1.5-0.4-2.1-1.5-2.1
						c-0.8,0-1.4,0.4-2.1,1.2v6.2h-1.8V62z"/>
				</g>
			</g>
		</g>
		<g>
			
				<image style="overflow:visible;" width="21" height="22" xlink:href="B28FBC6.png"  transform="matrix(1.4052 0 0 1.4052 380.6557 53.2659)">
			</image>
			<g>
				
					<image style="overflow:visible;" width="13" height="16" xlink:href="B28FBE0.png"  transform="matrix(1.4052 0 0 1.4052 386.2763 57.4814)">
				</image>
				<g>
					<path d="M391.2,73.1l1.1-1.3c0.8,0.8,2,1.4,3.1,1.4c1.4,0,2.2-0.7,2.2-1.7c0-1.1-0.8-1.4-1.9-1.9l-1.6-0.7
						c-1.1-0.5-2.4-1.4-2.4-3.1c0-1.8,1.6-3.2,3.8-3.2c1.4,0,2.7,0.6,3.5,1.5l-1,1.2c-0.7-0.7-1.5-1-2.6-1c-1.2,0-2,0.6-2,1.5
						c0,1,0.9,1.4,1.9,1.8l1.6,0.7c1.4,0.6,2.4,1.4,2.4,3.2c0,1.9-1.6,3.4-4.1,3.4C393.8,74.8,392.3,74.2,391.2,73.1z"/>
				</g>
			</g>
		</g>
		<g>
			
				<image style="overflow:visible;" width="22" height="20" xlink:href="B28FBE3.png"  transform="matrix(1.4052 0 0 1.4052 393.3021 56.0762)">
			</image>
			<g>
				
					<image style="overflow:visible;" width="16" height="14" xlink:href="B28FBE1.png"  transform="matrix(1.4052 0 0 1.4052 397.5175 60.2917)">
				</image>
				<g>
					<path d="M402.7,65.9h1.5l0.1,1.2h0c0.7-0.8,1.6-1.4,2.7-1.4c1.3,0,2,0.6,2.4,1.6c0.9-0.9,1.7-1.6,2.8-1.6
						c1.8,0,2.7,1.2,2.7,3.5v5.5h-1.8v-5.3c0-1.5-0.5-2.1-1.5-2.1c-0.6,0-1.2,0.4-2,1.2v6.2H408v-5.3c0-1.5-0.5-2.1-1.5-2.1
						c-0.6,0-1.2,0.4-2,1.2v6.2h-1.8V65.9z"/>
				</g>
			</g>
		</g>
		<g>
			
				<image style="overflow:visible;" width="19" height="20" xlink:href="B28FBE7.png"  transform="matrix(1.4052 0 0 1.4052 407.3536 56.0762)">
			</image>
			<g>
				
					<image style="overflow:visible;" width="12" height="14" xlink:href="B28FBE2.png"  transform="matrix(1.4052 0 0 1.4052 412.9742 60.2917)">
				</image>
				<g>
					<path d="M418.4,72.3c0-1.9,1.6-2.8,5.2-3.2c0-1-0.4-1.9-1.7-1.9c-0.9,0-1.8,0.4-2.5,0.9l-0.7-1.2c0.9-0.6,2.1-1.1,3.5-1.1
						c2.2,0,3.2,1.4,3.2,3.7v5.3H424l-0.1-1h-0.1c-0.8,0.7-1.7,1.2-2.8,1.2C419.5,74.8,418.4,73.9,418.4,72.3z M423.6,72.4v-2.1
						c-2.6,0.3-3.5,1-3.5,2c0,0.9,0.6,1.2,1.4,1.2C422.3,73.4,422.9,73,423.6,72.4z"/>
				</g>
			</g>
		</g>
		<g>
			
				<image style="overflow:visible;" width="18" height="20" xlink:href="B28FBED.png"  transform="matrix(1.4052 0 0 1.4052 420 56.0762)">
			</image>
			<g>
				
					<image style="overflow:visible;" width="11" height="14" xlink:href="B28FBEE.png"  transform="matrix(1.4052 0 0 1.4052 424.2155 60.2917)">
				</image>
				<g>
					<path d="M429.2,65.9h1.5l0.1,1.6h0c0.6-1.1,1.5-1.8,2.5-1.8c0.4,0,0.7,0.1,1,0.2l-0.3,1.6c-0.3-0.1-0.5-0.1-0.9-0.1
						c-0.7,0-1.6,0.5-2.1,1.9v5.5h-1.8V65.9z"/>
				</g>
			</g>
		</g>
		<g>
			
				<image style="overflow:visible;" width="19" height="21" xlink:href="B28FBEF.png"  transform="matrix(1.4052 0 0 1.4052 425.6206 54.6711)">
			</image>
			<g>
				
					<image style="overflow:visible;" width="11" height="15" xlink:href="B28FBE4.png"  transform="matrix(1.4052 0 0 1.4052 431.2412 58.8865)">
				</image>
				<g>
					<path d="M437.2,71.8v-4.4h-1.3V66l1.4-0.1l0.2-2.4h1.5v2.4h2.3v1.5H439v4.4c0,1,0.4,1.6,1.3,1.6c0.3,0,0.7-0.1,0.9-0.2l0.3,1.4
						c-0.5,0.2-1.1,0.3-1.7,0.3C437.9,74.8,437.2,73.6,437.2,71.8z"/>
				</g>
			</g>
		</g>
		<g>
			
				<image style="overflow:visible;" width="21" height="22" xlink:href="B28FBE5.png"  transform="matrix(1.4052 0 0 1.4052 434.0515 53.2659)">
			</image>
			<g>
				
					<image style="overflow:visible;" width="13" height="16" xlink:href="B28FB8F.png"  transform="matrix(1.4052 0 0 1.4052 439.6721 57.4814)">
				</image>
				<g>
					<path d="M444.6,62.9h3.8c2.4,0,4.2,0.9,4.2,3.4c0,1.8-1,2.9-2.4,3.4l2.9,5H451l-2.7-4.7h-1.9v4.7h-1.8V62.9z M448.2,68.4
						c1.7,0,2.6-0.7,2.6-2.1s-0.9-1.9-2.6-1.9h-1.8v4H448.2z"/>
				</g>
			</g>
		</g>
		<g>
			
				<image style="overflow:visible;" width="18" height="20" xlink:href="B28FB8D.png"  transform="matrix(1.4052 0 0 1.4052 446.6979 56.0762)">
			</image>
			<g>
				
					<image style="overflow:visible;" width="12" height="14" xlink:href="B28FB8B.png"  transform="matrix(1.4052 0 0 1.4052 450.9133 60.2917)">
				</image>
				<g>
					<path d="M455.2,70.3c0-2.8,2-4.6,4-4.6c2.3,0,3.6,1.7,3.6,4.1c0,0.4,0,0.7-0.1,0.9H457c0.1,1.7,1.2,2.7,2.7,2.7
						c0.8,0,1.4-0.2,2.1-0.7l0.6,1.2c-0.8,0.5-1.8,0.9-3,0.9C457.1,74.8,455.2,73.2,455.2,70.3z M461.2,69.5c0-1.5-0.7-2.4-2-2.4
						c-1.1,0-2.1,0.8-2.2,2.4H461.2z"/>
				</g>
			</g>
		</g>
		<g>
			
				<image style="overflow:visible;" width="19" height="20" xlink:href="B28FB85.png"  transform="matrix(1.4052 0 0 1.4052 456.5339 56.0762)">
			</image>
			<g>
				
					<image style="overflow:visible;" width="12" height="14" xlink:href="B28FB87.png"  transform="matrix(1.4052 0 0 1.4052 460.7494 60.2917)">
				</image>
				<g>
					<path d="M465.3,72.3c0-1.9,1.6-2.8,5.2-3.2c0-1-0.4-1.9-1.7-1.9c-0.9,0-1.8,0.4-2.5,0.9l-0.7-1.2c0.9-0.6,2.1-1.1,3.5-1.1
						c2.2,0,3.2,1.4,3.2,3.7v5.3h-1.5l-0.1-1h-0.1c-0.8,0.7-1.7,1.2-2.8,1.2C466.3,74.8,465.3,73.9,465.3,72.3z M470.5,72.4v-2.1
						c-2.6,0.3-3.5,1-3.5,2c0,0.9,0.6,1.2,1.4,1.2C469.2,73.4,469.8,73,470.5,72.4z"/>
				</g>
			</g>
		</g>
		<g>
			
				<image style="overflow:visible;" width="21" height="22" xlink:href="B28FBBA.png"  transform="matrix(1.4052 0 0 1.4052 464.9649 53.2659)">
			</image>
			<g>
				
					<image style="overflow:visible;" width="13" height="16" xlink:href="B28FBBB.png"  transform="matrix(1.4052 0 0 1.4052 470.5855 57.4814)">
				</image>
				<g>
					<path d="M475.5,70.3c0-2.8,1.8-4.6,3.8-4.6c1,0,1.6,0.4,2.4,1l-0.1-1.4V62h1.8v12.7h-1.5l-0.1-1h-0.1c-0.7,0.7-1.6,1.2-2.5,1.2
						C476.9,74.8,475.5,73.2,475.5,70.3z M481.6,72.3V68c-0.7-0.6-1.3-0.8-1.9-0.8c-1.2,0-2.2,1.2-2.2,3.1c0,2,0.8,3.1,2.1,3.1
						C480.3,73.3,480.9,73,481.6,72.3z"/>
				</g>
			</g>
		</g>
		<g>
			
				<image style="overflow:visible;" width="17" height="22" xlink:href="B28FBBD.png"  transform="matrix(1.4052 0 0 1.4052 476.2061 53.2659)">
			</image>
			<g>
				
					<image style="overflow:visible;" width="9" height="16" xlink:href="B28FBBF.png"  transform="matrix(1.4052 0 0 1.4052 481.8267 57.4814)">
				</image>
				<g>
					<path d="M487.1,63.2c0-0.7,0.5-1.1,1.1-1.1c0.7,0,1.1,0.4,1.1,1.1c0,0.7-0.5,1.1-1.1,1.1C487.6,64.3,487.1,63.8,487.1,63.2z
						 M487.3,65.9h1.8v8.7h-1.8V65.9z"/>
				</g>
			</g>
		</g>
		<g>
			
				<image style="overflow:visible;" width="19" height="20" xlink:href="B28FBB8.png"  transform="matrix(1.4052 0 0 1.4052 484.637 56.0762)">
			</image>
			<g>
				
					<image style="overflow:visible;" width="12" height="14" xlink:href="9CEC3B55.png"  transform="matrix(1.4052 0 0 1.4052 488.8524 60.2917)">
				</image>
				<g>
					<path d="M493.1,65.9h1.5l0.1,1.2h0c0.8-0.8,1.7-1.4,2.9-1.4c1.9,0,2.7,1.2,2.7,3.5v5.5h-1.8v-5.3c0-1.5-0.4-2.1-1.5-2.1
						c-0.8,0-1.4,0.4-2.1,1.2v6.2h-1.8V65.9z"/>
				</g>
			</g>
		</g>
		<g>
			
				<image style="overflow:visible;" width="21" height="22" xlink:href="9CEC3B57.png"  transform="matrix(1.4052 0 0 1.4052 493.0679 56.0762)">
			</image>
			<g>
				
					<image style="overflow:visible;" width="13" height="16" xlink:href="9CEC3B54.png"  transform="matrix(1.4052 0 0 1.4052 498.6885 60.2917)">
				</image>
				<g>
					<path d="M503.5,76.3c0-0.7,0.5-1.4,1.3-1.9v-0.1c-0.4-0.3-0.8-0.7-0.8-1.4c0-0.7,0.5-1.3,1-1.6v-0.1c-0.6-0.5-1.2-1.3-1.2-2.3
						c0-2,1.6-3.1,3.4-3.1c0.5,0,0.9,0.1,1.3,0.2h3.1v1.4h-1.7c0.3,0.3,0.6,0.9,0.6,1.6c0,1.9-1.4,3-3.3,3c-0.4,0-0.8-0.1-1.2-0.3
						c-0.3,0.3-0.5,0.5-0.5,0.9c0,0.5,0.3,0.9,1.5,0.9h1.6c2.1,0,3.1,0.6,3.1,2.1c0,1.7-1.8,3.1-4.6,3.1
						C505.1,78.6,503.5,77.8,503.5,76.3z M510,75.8c0-0.7-0.6-1-1.6-1H507c-0.4,0-0.8,0-1.2-0.1c-0.5,0.4-0.7,0.8-0.7,1.3
						c0,0.9,0.9,1.4,2.3,1.4C509,77.4,510,76.6,510,75.8z M508.9,68.8c0-1.2-0.7-1.8-1.7-1.8c-0.9,0-1.7,0.7-1.7,1.8
						c0,1.2,0.7,1.9,1.7,1.9C508.1,70.7,508.9,70,508.9,68.8z"/>
				</g>
			</g>
		</g>
		<g>
			
				<image style="overflow:visible;" width="16" height="14" xlink:href="9CEC3B53.png"  transform="matrix(1.4052 0 0 1.4052 504.3091 60.2917)">
			</image>
			<g>
				
					<image style="overflow:visible;" width="10" height="8" xlink:href="9CEC3B5D.png"  transform="matrix(1.4052 0 0 1.4052 508.5246 64.5071)">
				</image>
				<g>
					<path d="M513.9,69.5h4.2v1.4h-4.2V69.5z"/>
				</g>
			</g>
		</g>
		<g>
			
				<image style="overflow:visible;" width="20" height="22" xlink:href="9CEC3B5F.png"  transform="matrix(1.4052 0 0 1.4052 511.3349 53.2659)">
			</image>
			<g>
				
					<image style="overflow:visible;" width="12" height="16" xlink:href="9CEC3B5C.png"  transform="matrix(1.4052 0 0 1.4052 516.9555 57.4814)">
				</image>
				<g>
					<path d="M521.6,62.9h6.9v1.6h-5.1v3.3h4.3v1.6h-4.3v3.8h5.2v1.6h-7.1V62.9z"/>
				</g>
			</g>
		</g>
		<g>
			
				<image style="overflow:visible;" width="18" height="20" xlink:href="9CEC3B56.png"  transform="matrix(1.4052 0 0 1.4052 522.5761 56.0762)">
			</image>
			<g>
				
					<image style="overflow:visible;" width="12" height="14" xlink:href="9CEC3B49.png"  transform="matrix(1.4052 0 0 1.4052 526.7916 60.2917)">
				</image>
				<g>
					<path d="M532.2,65.9h1.5l0.1,1.2h0c0.8-0.8,1.7-1.4,2.9-1.4c1.9,0,2.7,1.2,2.7,3.5v5.5h-1.8v-5.3c0-1.5-0.4-2.1-1.5-2.1
						c-0.8,0-1.4,0.4-2.1,1.2v6.2h-1.8V65.9z"/>
				</g>
			</g>
		</g>
		<g>
			
				<image style="overflow:visible;" width="21" height="22" xlink:href="9CEC3B4A.png"  transform="matrix(1.4052 0 0 1.4052 532.4122 56.0762)">
			</image>
			<g>
				
					<image style="overflow:visible;" width="13" height="16" xlink:href="9CEC3B38.png"  transform="matrix(1.4052 0 0 1.4052 538.0328 60.2917)">
				</image>
				<g>
					<path d="M542.6,76.3c0-0.7,0.5-1.4,1.3-1.9v-0.1c-0.4-0.3-0.8-0.7-0.8-1.4c0-0.7,0.5-1.3,1-1.6v-0.1c-0.6-0.5-1.2-1.3-1.2-2.3
						c0-2,1.6-3.1,3.4-3.1c0.5,0,0.9,0.1,1.3,0.2h3.1v1.4H549c0.3,0.3,0.6,0.9,0.6,1.6c0,1.9-1.4,3-3.3,3c-0.4,0-0.8-0.1-1.2-0.3
						c-0.3,0.3-0.5,0.5-0.5,0.9c0,0.5,0.3,0.9,1.5,0.9h1.6c2.1,0,3.1,0.6,3.1,2.1c0,1.7-1.8,3.1-4.6,3.1
						C544.2,78.6,542.6,77.8,542.6,76.3z M549.1,75.8c0-0.7-0.6-1-1.6-1h-1.3c-0.4,0-0.8,0-1.2-0.1c-0.5,0.4-0.7,0.8-0.7,1.3
						c0,0.9,0.9,1.4,2.3,1.4C548.1,77.4,549.1,76.6,549.1,75.8z M548,68.8c0-1.2-0.7-1.8-1.7-1.8c-0.9,0-1.7,0.7-1.7,1.8
						c0,1.2,0.7,1.9,1.7,1.9C547.2,70.7,548,70,548,68.8z"/>
				</g>
			</g>
		</g>
		<g>
			
				<image style="overflow:visible;" width="16" height="22" xlink:href="9CEC3B27.png"  transform="matrix(1.4052 0 0 1.4052 543.6534 53.2659)">
			</image>
			<g>
				
					<image style="overflow:visible;" width="9" height="16" xlink:href="9CEC3B28.png"  transform="matrix(1.4052 0 0 1.4052 549.274 57.4814)">
				</image>
				<g>
					<path d="M553.6,72.6V62h1.8v10.7c0,0.5,0.2,0.7,0.4,0.7c0.1,0,0.1,0,0.3,0l0.2,1.4c-0.2,0.1-0.5,0.1-1,0.1
						C554.1,74.8,553.6,74,553.6,72.6z"/>
				</g>
			</g>
		</g>
		<g>
			
				<image style="overflow:visible;" width="16" height="22" xlink:href="9CEC3B2B.png"  transform="matrix(1.4052 0 0 1.4052 549.274 53.2659)">
			</image>
			<g>
				
					<image style="overflow:visible;" width="8" height="16" xlink:href="9CEC3B29.png"  transform="matrix(1.4052 0 0 1.4052 554.8946 57.4814)">
				</image>
				<g>
					<path d="M559.3,63.2c0-0.7,0.5-1.1,1.1-1.1c0.7,0,1.1,0.4,1.1,1.1c0,0.7-0.5,1.1-1.1,1.1C559.8,64.3,559.3,63.8,559.3,63.2z
						 M559.6,65.9h1.8v8.7h-1.8V65.9z"/>
				</g>
			</g>
		</g>
		<g>
			
				<image style="overflow:visible;" width="18" height="20" xlink:href="9CEC3B2F.png"  transform="matrix(1.4052 0 0 1.4052 554.8946 56.0762)">
			</image>
			<g>
				
					<image style="overflow:visible;" width="12" height="14" xlink:href="9CEC3B2A.png"  transform="matrix(1.4052 0 0 1.4052 559.11 60.2917)">
				</image>
				<g>
					<path d="M564.4,73.6l0.9-1.2c0.8,0.6,1.5,1,2.5,1c1,0,1.5-0.5,1.5-1.2c0-0.8-1-1.1-1.9-1.5c-1.2-0.4-2.5-1.1-2.5-2.5
						c0-1.5,1.2-2.6,3.1-2.6c1.2,0,2.1,0.5,2.8,1l-0.9,1.1c-0.6-0.4-1.2-0.8-1.9-0.8c-1,0-1.4,0.5-1.4,1.1c0,0.7,0.9,1,1.8,1.4
						c1.2,0.5,2.6,1,2.6,2.7c0,1.5-1.2,2.7-3.3,2.7C566.5,74.8,565.3,74.3,564.4,73.6z"/>
				</g>
			</g>
		</g>
		<g>
			
				<image style="overflow:visible;" width="20" height="22" xlink:href="9CEC3B25.png"  transform="matrix(1.4052 0 0 1.4052 563.3255 53.2659)">
			</image>
			<g>
				
					<image style="overflow:visible;" width="12" height="16" xlink:href="9CEC3B26.png"  transform="matrix(1.4052 0 0 1.4052 568.9461 57.4814)">
				</image>
				<g>
					<path d="M574.1,62h1.8v3.4l-0.1,1.7c0.8-0.7,1.6-1.4,2.8-1.4c1.9,0,2.7,1.2,2.7,3.5v5.5h-1.8v-5.3c0-1.5-0.4-2.1-1.5-2.1
						c-0.8,0-1.4,0.4-2.1,1.2v6.2h-1.8V62z"/>
				</g>
			</g>
		</g>
		<g>
			
				<image style="overflow:visible;" width="17" height="22" xlink:href="9CEC3B24.png"  transform="matrix(1.4052 0 0 1.4052 574.5667 53.2659)">
			</image>
			<g>
				
					<image style="overflow:visible;" width="9" height="16" xlink:href="9CEC3B03.png"  transform="matrix(1.4052 0 0 1.4052 580.1873 57.4814)">
				</image>
				<g>
					<path d="M585.3,73.6c0-0.8,0.5-1.3,1.2-1.3c0.7,0,1.2,0.5,1.2,1.3c0,0.7-0.5,1.3-1.2,1.3C585.9,74.8,585.3,74.3,585.3,73.6z
						 M585.7,64.5l0-1.9h1.8l-0.1,1.9l-0.3,6.4h-1.2L585.7,64.5z"/>
				</g>
			</g>
		</g>
		<path d="M12.2,62.9h6.9v1.6h-5.1v3.3h4.3v1.6h-4.3v3.8h5.2v1.6h-7.1V62.9z"/>
		<path d="M22.8,65.9h1.5l0.1,1.2h0c0.8-0.8,1.7-1.4,2.9-1.4c1.9,0,2.7,1.2,2.7,3.5v5.5h-1.8v-5.3c0-1.5-0.4-2.1-1.5-2.1
			c-0.8,0-1.4,0.4-2.1,1.2v6.2h-1.8V65.9z"/>
		<path d="M31.7,78.2l0.3-1.4c0.2,0.1,0.5,0.1,0.8,0.1c0.8,0,1-0.6,1-1.6v-9.4h1.8v9.4c0,1.8-0.7,3.1-2.6,3.1
			C32.5,78.4,32.1,78.3,31.7,78.2z M33.7,63.2c0-0.7,0.5-1.1,1.1-1.1c0.7,0,1.1,0.4,1.1,1.1c0,0.7-0.5,1.1-1.1,1.1
			C34.1,64.3,33.7,63.8,33.7,63.2z"/>
		<path d="M39.1,70.3c0-2.9,2-4.6,4.1-4.6c2.2,0,4.1,1.7,4.1,4.6c0,2.9-2,4.6-4.1,4.6C41,74.8,39.1,73.2,39.1,70.3z M45.4,70.3
			c0-1.8-0.9-3.1-2.2-3.1c-1.4,0-2.2,1.2-2.2,3.1c0,1.9,0.9,3.1,2.2,3.1C44.6,73.3,45.4,72.1,45.4,70.3z"/>
		<path d="M49.8,78.1l0.4-1.4c0.2,0,0.4,0.1,0.6,0.1c1,0,1.5-0.7,1.8-1.6l0.2-0.6l-3.5-8.7h1.9l1.6,4.5c0.3,0.8,0.5,1.7,0.8,2.5h0.1
			c0.2-0.8,0.5-1.7,0.7-2.5l1.4-4.5h1.8l-3.2,9.3c-0.7,1.9-1.6,3.1-3.5,3.1C50.5,78.3,50.1,78.2,49.8,78.1z"/>
		<path d="M64.4,78.1l0.4-1.4c0.2,0,0.4,0.1,0.6,0.1c1,0,1.5-0.7,1.8-1.6l0.2-0.6L64,65.9h1.9l1.6,4.5c0.3,0.8,0.5,1.7,0.8,2.5h0.1
			c0.2-0.8,0.5-1.7,0.7-2.5l1.4-4.5h1.8L69,75.2c-0.7,1.9-1.6,3.1-3.4,3.1C65.1,78.3,64.7,78.2,64.4,78.1z"/>
		<path d="M74.3,70.3c0-2.9,2-4.6,4.1-4.6s4.1,1.7,4.1,4.6c0,2.9-2,4.6-4.1,4.6S74.3,73.2,74.3,70.3z M80.6,70.3
			c0-1.8-0.9-3.1-2.2-3.1c-1.4,0-2.2,1.2-2.2,3.1c0,1.9,0.9,3.1,2.2,3.1C79.8,73.3,80.6,72.1,80.6,70.3z"/>
		<path d="M85.7,71.4v-5.5h1.8v5.3c0,1.5,0.4,2.1,1.5,2.1c0.8,0,1.4-0.4,2.1-1.3v-6.1h1.8v8.7h-1.5l-0.1-1.3h0
			c-0.8,0.9-1.7,1.5-2.8,1.5C86.5,74.8,85.7,73.6,85.7,71.4z"/>
		<path d="M96.9,65.9h1.5l0.1,1.6h0c0.6-1.1,1.5-1.8,2.5-1.8c0.4,0,0.7,0.1,1,0.2l-0.3,1.6c-0.3-0.1-0.5-0.1-0.9-0.1
			c-0.7,0-1.6,0.5-2.1,1.9v5.5h-1.8V65.9z"/>
		<path d="M109.5,62.9h6.9v1.6h-5.1v3.3h4.3v1.6h-4.3v3.8h5.2v1.6h-7.1V62.9z"/>
		<path d="M120.1,65.9h1.5l0.1,1.2h0c0.8-0.8,1.7-1.4,2.9-1.4c1.9,0,2.7,1.2,2.7,3.5v5.5h-1.8v-5.3c0-1.5-0.4-2.1-1.5-2.1
			c-0.8,0-1.4,0.4-2.1,1.2v6.2h-1.8V65.9z"/>
		<path d="M130.5,76.3c0-0.7,0.5-1.4,1.3-1.9v-0.1c-0.4-0.3-0.8-0.7-0.8-1.4c0-0.7,0.5-1.3,1-1.6v-0.1c-0.6-0.5-1.2-1.3-1.2-2.3
			c0-2,1.6-3.1,3.4-3.1c0.5,0,0.9,0.1,1.3,0.2h3.1v1.4h-1.7c0.3,0.3,0.6,0.9,0.6,1.6c0,1.9-1.4,3-3.3,3c-0.4,0-0.8-0.1-1.2-0.3
			c-0.3,0.3-0.5,0.5-0.5,0.9c0,0.5,0.4,0.9,1.5,0.9h1.6c2.1,0,3.1,0.6,3.1,2.1c0,1.7-1.8,3.1-4.6,3.1
			C132.1,78.6,130.5,77.8,130.5,76.3z M137,75.8c0-0.7-0.6-1-1.6-1H134c-0.4,0-0.8,0-1.2-0.1c-0.5,0.4-0.7,0.8-0.7,1.3
			c0,0.9,0.9,1.4,2.3,1.4C136,77.4,137,76.6,137,75.8z M135.9,68.8c0-1.2-0.7-1.8-1.7-1.8s-1.7,0.7-1.7,1.8c0,1.2,0.7,1.9,1.7,1.9
			C135.1,70.7,135.9,70,135.9,68.8z"/>
		<path d="M141.6,72.6V62h1.8v10.7c0,0.5,0.2,0.7,0.4,0.7c0.1,0,0.1,0,0.3,0l0.2,1.4c-0.2,0.1-0.5,0.1-1,0.1
			C142,74.8,141.6,74,141.6,72.6z"/>
		<path d="M147.3,63.2c0-0.7,0.5-1.1,1.1-1.1c0.7,0,1.1,0.4,1.1,1.1c0,0.7-0.5,1.1-1.1,1.1C147.7,64.3,147.3,63.8,147.3,63.2z
			 M147.5,65.9h1.8v8.7h-1.8V65.9z"/>
		<path d="M152.3,73.6l0.9-1.2c0.8,0.6,1.5,1,2.5,1c1,0,1.5-0.5,1.5-1.2c0-0.8-1-1.1-1.9-1.5c-1.2-0.4-2.5-1.1-2.5-2.5
			c0-1.5,1.2-2.6,3.1-2.6c1.2,0,2.1,0.5,2.8,1l-0.9,1.1c-0.6-0.4-1.2-0.8-1.9-0.8c-1,0-1.4,0.5-1.4,1.1c0,0.7,0.9,1,1.8,1.4
			c1.2,0.5,2.6,1,2.6,2.7c0,1.5-1.2,2.7-3.3,2.7C154.4,74.8,153.2,74.3,152.3,73.6z"/>
		<path d="M162.1,62h1.8v3.4l-0.1,1.7c0.8-0.7,1.6-1.4,2.8-1.4c1.9,0,2.7,1.2,2.7,3.5v5.5h-1.8v-5.3c0-1.5-0.4-2.1-1.5-2.1
			c-0.8,0-1.4,0.4-2.1,1.2v6.2h-1.8V62z"/>
		<path d="M177.9,65.9h1.5l0.1,1.6h0c0.6-1.1,1.5-1.8,2.5-1.8c0.4,0,0.7,0.1,1,0.2l-0.3,1.6c-0.3-0.1-0.5-0.1-0.9-0.1
			c-0.7,0-1.6,0.5-2.1,1.9v5.5h-1.8V65.9z"/>
		<path d="M184.8,70.3c0-2.8,2-4.6,4-4.6c2.3,0,3.6,1.7,3.6,4.1c0,0.4,0,0.7-0.1,0.9h-5.7c0.1,1.7,1.2,2.7,2.7,2.7
			c0.8,0,1.4-0.2,2.1-0.7l0.6,1.2c-0.8,0.5-1.8,0.9-3,0.9C186.7,74.8,184.8,73.2,184.8,70.3z M190.8,69.5c0-1.5-0.7-2.4-2-2.4
			c-1.1,0-2.1,0.8-2.2,2.4H190.8z"/>
		<path d="M194.8,72.3c0-1.9,1.6-2.8,5.2-3.2c0-1-0.4-1.9-1.7-1.9c-0.9,0-1.8,0.4-2.5,0.9l-0.7-1.2c0.9-0.6,2.1-1.1,3.5-1.1
			c2.2,0,3.2,1.4,3.2,3.7v5.3h-1.5l-0.1-1h-0.1c-0.8,0.7-1.7,1.2-2.8,1.2C195.9,74.8,194.8,73.9,194.8,72.3z M200.1,72.4v-2.1
			c-2.6,0.3-3.5,1-3.5,2c0,0.9,0.6,1.2,1.4,1.2C198.7,73.4,199.3,73,200.1,72.4z"/>
		<path d="M205.1,70.3c0-2.8,1.8-4.6,3.8-4.6c1,0,1.6,0.4,2.4,1l-0.1-1.4V62h1.8v12.7h-1.5l-0.1-1h-0.1c-0.7,0.7-1.6,1.2-2.5,1.2
			C206.5,74.8,205.1,73.2,205.1,70.3z M211.1,72.3V68c-0.7-0.6-1.3-0.8-1.9-0.8c-1.2,0-2.2,1.2-2.2,3.1c0,2,0.8,3.1,2.1,3.1
			C209.8,73.3,210.5,73,211.1,72.3z"/>
		<path d="M216.6,63.2c0-0.7,0.5-1.1,1.1-1.1c0.7,0,1.1,0.4,1.1,1.1c0,0.7-0.5,1.1-1.1,1.1C217.1,64.3,216.6,63.8,216.6,63.2z
			 M216.9,65.9h1.8v8.7h-1.8V65.9z"/>
		<path d="M222.6,65.9h1.5l0.1,1.2h0c0.8-0.8,1.7-1.4,2.9-1.4c1.9,0,2.7,1.2,2.7,3.5v5.5h-1.8v-5.3c0-1.5-0.4-2.1-1.5-2.1
			c-0.8,0-1.4,0.4-2.1,1.2v6.2h-1.8V65.9z"/>
		<path d="M233.1,76.3c0-0.7,0.5-1.4,1.3-1.9v-0.1c-0.4-0.3-0.8-0.7-0.8-1.4c0-0.7,0.5-1.3,1-1.6v-0.1c-0.6-0.5-1.2-1.3-1.2-2.3
			c0-2,1.6-3.1,3.4-3.1c0.5,0,0.9,0.1,1.3,0.2h3.1v1.4h-1.7c0.3,0.3,0.6,0.9,0.6,1.6c0,1.9-1.4,3-3.3,3c-0.4,0-0.8-0.1-1.2-0.3
			c-0.3,0.3-0.5,0.5-0.5,0.9c0,0.5,0.4,0.9,1.5,0.9h1.6c2.1,0,3.1,0.6,3.1,2.1c0,1.7-1.8,3.1-4.6,3.1
			C234.6,78.6,233.1,77.8,233.1,76.3z M239.5,75.8c0-0.7-0.6-1-1.6-1h-1.3c-0.4,0-0.8,0-1.2-0.1c-0.5,0.4-0.7,0.8-0.7,1.3
			c0,0.9,0.9,1.4,2.3,1.4C238.5,77.4,239.5,76.6,239.5,75.8z M238.4,68.8c0-1.2-0.7-1.8-1.7-1.8s-1.7,0.7-1.7,1.8
			c0,1.2,0.7,1.9,1.7,1.9C237.7,70.7,238.4,70,238.4,68.8z"/>
		<path d="M248.3,70.3c0-2.8,2-4.6,4-4.6c2.3,0,3.6,1.7,3.6,4.1c0,0.4,0,0.7-0.1,0.9h-5.7c0.1,1.7,1.2,2.7,2.7,2.7
			c0.8,0,1.4-0.2,2.1-0.7l0.6,1.2c-0.8,0.5-1.8,0.9-3,0.9C250.2,74.8,248.3,73.2,248.3,70.3z M254.2,69.5c0-1.5-0.7-2.4-2-2.4
			c-1.1,0-2.1,0.8-2.2,2.4H254.2z"/>
		<path d="M260.6,70.1l-2.6-4.2h2l1,1.7c0.3,0.5,0.5,1,0.8,1.5h0.1c0.2-0.5,0.5-1,0.7-1.5l0.9-1.7h1.9l-2.6,4.4l2.8,4.4h-2l-1.1-1.9
			c-0.3-0.5-0.6-1-0.9-1.5h-0.1c-0.3,0.5-0.5,1-0.8,1.5l-1,1.9h-1.9L260.6,70.1z"/>
		<path d="M268.4,65.9h1.5l0.1,1h0c0.8-0.6,1.7-1.2,2.7-1.2c2.2,0,3.4,1.8,3.4,4.5c0,3-1.8,4.7-3.8,4.7c-0.8,0-1.6-0.4-2.3-1
			l0.1,1.5v2.8h-1.8V65.9z M274.4,70.1c0-1.8-0.6-3-2.1-3c-0.7,0-1.3,0.4-2.1,1.1v4.3c0.7,0.6,1.4,0.8,1.9,0.8
			C273.4,73.3,274.4,72.2,274.4,70.1z"/>
		<path d="M279,70.3c0-2.8,2-4.6,4-4.6c2.3,0,3.6,1.7,3.6,4.1c0,0.4,0,0.7-0.1,0.9h-5.7c0.1,1.7,1.2,2.7,2.7,2.7
			c0.8,0,1.4-0.2,2.1-0.7l0.6,1.2c-0.8,0.5-1.8,0.9-3,0.9C280.9,74.8,279,73.2,279,70.3z M285,69.5c0-1.5-0.7-2.4-2-2.4
			c-1.1,0-2.1,0.8-2.2,2.4H285z"/>
		<path d="M289.8,65.9h1.5l0.1,1.6h0c0.6-1.1,1.5-1.8,2.5-1.8c0.4,0,0.7,0.1,1,0.2l-0.3,1.6c-0.3-0.1-0.5-0.1-0.9-0.1
			c-0.7,0-1.6,0.5-2.1,1.9v5.5h-1.8V65.9z"/>
		<path d="M297.3,63.2c0-0.7,0.5-1.1,1.1-1.1c0.7,0,1.1,0.4,1.1,1.1c0,0.7-0.5,1.1-1.1,1.1C297.7,64.3,297.3,63.8,297.3,63.2z
			 M297.5,65.9h1.8v8.7h-1.8V65.9z"/>
		<path d="M302.6,70.3c0-2.8,2-4.6,4-4.6c2.3,0,3.6,1.7,3.6,4.1c0,0.4,0,0.7-0.1,0.9h-5.7c0.1,1.7,1.2,2.7,2.7,2.7
			c0.8,0,1.4-0.2,2.1-0.7l0.6,1.2c-0.8,0.5-1.8,0.9-3,0.9C304.5,74.8,302.6,73.2,302.6,70.3z M308.6,69.5c0-1.5-0.7-2.4-2-2.4
			c-1.1,0-2.1,0.8-2.2,2.4H308.6z"/>
		<path d="M313.4,65.9h1.5l0.1,1.2h0c0.8-0.8,1.7-1.4,2.9-1.4c1.9,0,2.7,1.2,2.7,3.5v5.5h-1.8v-5.3c0-1.5-0.4-2.1-1.5-2.1
			c-0.8,0-1.4,0.4-2.1,1.2v6.2h-1.8V65.9z"/>
		<path d="M323.9,70.3c0-2.9,2-4.6,4.3-4.6c1.1,0,1.9,0.4,2.6,1l-0.9,1.2c-0.5-0.4-1-0.7-1.6-0.7c-1.5,0-2.5,1.2-2.5,3.1
			c0,1.9,1,3.1,2.5,3.1c0.7,0,1.4-0.4,1.9-0.8l0.8,1.2c-0.8,0.7-1.8,1.1-2.8,1.1C325.7,74.8,323.9,73.2,323.9,70.3z"/>
		<path d="M332.9,70.3c0-2.8,2-4.6,4-4.6c2.3,0,3.6,1.7,3.6,4.1c0,0.4,0,0.7-0.1,0.9h-5.7c0.1,1.7,1.2,2.7,2.7,2.7
			c0.8,0,1.4-0.2,2.1-0.7l0.6,1.2c-0.8,0.5-1.8,0.9-3,0.9C334.8,74.8,332.9,73.2,332.9,70.3z M338.9,69.5c0-1.5-0.7-2.4-2-2.4
			c-1.1,0-2.1,0.8-2.2,2.4H338.9z"/>
		<path d="M347.5,65.9h1.8l1.2,4.7c0.2,0.9,0.3,1.7,0.5,2.5h0.1c0.2-0.8,0.4-1.7,0.6-2.5l1.2-4.7h1.7l1.3,4.7
			c0.2,0.9,0.4,1.7,0.6,2.5h0.1c0.2-0.8,0.3-1.6,0.5-2.5l1.1-4.7h1.7l-2.3,8.7h-2.2l-1.1-4.3c-0.2-0.8-0.4-1.6-0.6-2.5h-0.1
			c-0.2,0.9-0.3,1.7-0.6,2.5l-1.1,4.3h-2.1L347.5,65.9z"/>
		<path d="M362.6,63.2c0-0.7,0.5-1.1,1.1-1.1c0.7,0,1.1,0.4,1.1,1.1c0,0.7-0.5,1.1-1.1,1.1C363.1,64.3,362.6,63.8,362.6,63.2z
			 M362.8,65.9h1.8v8.7h-1.8V65.9z"/>
		<path d="M368.9,71.8v-4.4h-1.3V66l1.4-0.1l0.2-2.4h1.5v2.4h2.3v1.5h-2.3v4.4c0,1,0.4,1.6,1.3,1.6c0.3,0,0.7-0.1,0.9-0.2l0.3,1.4
			c-0.5,0.2-1.1,0.3-1.7,0.3C369.5,74.8,368.9,73.6,368.9,71.8z"/>
		<path d="M376.1,62h1.8v3.4l-0.1,1.7c0.8-0.7,1.6-1.4,2.8-1.4c1.9,0,2.7,1.2,2.7,3.5v5.5h-1.8v-5.3c0-1.5-0.4-2.1-1.5-2.1
			c-0.8,0-1.4,0.4-2.1,1.2v6.2h-1.8V62z"/>
		<path d="M391.2,73.1l1.1-1.3c0.8,0.8,2,1.4,3.1,1.4c1.4,0,2.2-0.7,2.2-1.7c0-1.1-0.8-1.4-1.9-1.9l-1.6-0.7
			c-1.1-0.5-2.4-1.4-2.4-3.1c0-1.8,1.6-3.2,3.8-3.2c1.4,0,2.7,0.6,3.5,1.5l-1,1.2c-0.7-0.7-1.5-1-2.6-1c-1.2,0-2,0.6-2,1.5
			c0,1,0.9,1.4,1.9,1.8l1.6,0.7c1.4,0.6,2.4,1.4,2.4,3.2c0,1.9-1.6,3.4-4.1,3.4C393.8,74.8,392.3,74.2,391.2,73.1z"/>
		<path d="M402.7,65.9h1.5l0.1,1.2h0c0.7-0.8,1.6-1.4,2.7-1.4c1.3,0,2,0.6,2.4,1.6c0.9-0.9,1.7-1.6,2.8-1.6c1.8,0,2.7,1.2,2.7,3.5
			v5.5h-1.8v-5.3c0-1.5-0.5-2.1-1.5-2.1c-0.6,0-1.2,0.4-2,1.2v6.2H408v-5.3c0-1.5-0.5-2.1-1.5-2.1c-0.6,0-1.2,0.4-2,1.2v6.2h-1.8
			V65.9z"/>
		<path d="M418.4,72.3c0-1.9,1.6-2.8,5.2-3.2c0-1-0.4-1.9-1.7-1.9c-0.9,0-1.8,0.4-2.5,0.9l-0.7-1.2c0.9-0.6,2.1-1.1,3.5-1.1
			c2.2,0,3.2,1.4,3.2,3.7v5.3H424l-0.1-1h-0.1c-0.8,0.7-1.7,1.2-2.8,1.2C419.5,74.8,418.4,73.9,418.4,72.3z M423.6,72.4v-2.1
			c-2.6,0.3-3.5,1-3.5,2c0,0.9,0.6,1.2,1.4,1.2C422.3,73.4,422.9,73,423.6,72.4z"/>
		<path d="M429.2,65.9h1.5l0.1,1.6h0c0.6-1.1,1.5-1.8,2.5-1.8c0.4,0,0.7,0.1,1,0.2l-0.3,1.6c-0.3-0.1-0.5-0.1-0.9-0.1
			c-0.7,0-1.6,0.5-2.1,1.9v5.5h-1.8V65.9z"/>
		<path d="M437.2,71.8v-4.4h-1.3V66l1.4-0.1l0.2-2.4h1.5v2.4h2.3v1.5H439v4.4c0,1,0.4,1.6,1.3,1.6c0.3,0,0.7-0.1,0.9-0.2l0.3,1.4
			c-0.5,0.2-1.1,0.3-1.7,0.3C437.9,74.8,437.2,73.6,437.2,71.8z"/>
		<path d="M444.6,62.9h3.8c2.4,0,4.2,0.9,4.2,3.4c0,1.8-1,2.9-2.4,3.4l2.9,5H451l-2.7-4.7h-1.9v4.7h-1.8V62.9z M448.2,68.4
			c1.7,0,2.6-0.7,2.6-2.1s-0.9-1.9-2.6-1.9h-1.8v4H448.2z"/>
		<path d="M455.2,70.3c0-2.8,2-4.6,4-4.6c2.3,0,3.6,1.7,3.6,4.1c0,0.4,0,0.7-0.1,0.9H457c0.1,1.7,1.2,2.7,2.7,2.7
			c0.8,0,1.4-0.2,2.1-0.7l0.6,1.2c-0.8,0.5-1.8,0.9-3,0.9C457.1,74.8,455.2,73.2,455.2,70.3z M461.2,69.5c0-1.5-0.7-2.4-2-2.4
			c-1.1,0-2.1,0.8-2.2,2.4H461.2z"/>
		<path d="M465.3,72.3c0-1.9,1.6-2.8,5.2-3.2c0-1-0.4-1.9-1.7-1.9c-0.9,0-1.8,0.4-2.5,0.9l-0.7-1.2c0.9-0.6,2.1-1.1,3.5-1.1
			c2.2,0,3.2,1.4,3.2,3.7v5.3h-1.5l-0.1-1h-0.1c-0.8,0.7-1.7,1.2-2.8,1.2C466.3,74.8,465.3,73.9,465.3,72.3z M470.5,72.4v-2.1
			c-2.6,0.3-3.5,1-3.5,2c0,0.9,0.6,1.2,1.4,1.2C469.2,73.4,469.8,73,470.5,72.4z"/>
		<path d="M475.5,70.3c0-2.8,1.8-4.6,3.8-4.6c1,0,1.6,0.4,2.4,1l-0.1-1.4V62h1.8v12.7h-1.5l-0.1-1h-0.1c-0.7,0.7-1.6,1.2-2.5,1.2
			C476.9,74.8,475.5,73.2,475.5,70.3z M481.6,72.3V68c-0.7-0.6-1.3-0.8-1.9-0.8c-1.2,0-2.2,1.2-2.2,3.1c0,2,0.8,3.1,2.1,3.1
			C480.3,73.3,480.9,73,481.6,72.3z"/>
		<path d="M487.1,63.2c0-0.7,0.5-1.1,1.1-1.1c0.7,0,1.1,0.4,1.1,1.1c0,0.7-0.5,1.1-1.1,1.1C487.6,64.3,487.1,63.8,487.1,63.2z
			 M487.3,65.9h1.8v8.7h-1.8V65.9z"/>
		<path d="M493.1,65.9h1.5l0.1,1.2h0c0.8-0.8,1.7-1.4,2.9-1.4c1.9,0,2.7,1.2,2.7,3.5v5.5h-1.8v-5.3c0-1.5-0.4-2.1-1.5-2.1
			c-0.8,0-1.4,0.4-2.1,1.2v6.2h-1.8V65.9z"/>
		<path d="M503.5,76.3c0-0.7,0.5-1.4,1.3-1.9v-0.1c-0.4-0.3-0.8-0.7-0.8-1.4c0-0.7,0.5-1.3,1-1.6v-0.1c-0.6-0.5-1.2-1.3-1.2-2.3
			c0-2,1.6-3.1,3.4-3.1c0.5,0,0.9,0.1,1.3,0.2h3.1v1.4h-1.7c0.3,0.3,0.6,0.9,0.6,1.6c0,1.9-1.4,3-3.3,3c-0.4,0-0.8-0.1-1.2-0.3
			c-0.3,0.3-0.5,0.5-0.5,0.9c0,0.5,0.3,0.9,1.5,0.9h1.6c2.1,0,3.1,0.6,3.1,2.1c0,1.7-1.8,3.1-4.6,3.1
			C505.1,78.6,503.5,77.8,503.5,76.3z M510,75.8c0-0.7-0.6-1-1.6-1H507c-0.4,0-0.8,0-1.2-0.1c-0.5,0.4-0.7,0.8-0.7,1.3
			c0,0.9,0.9,1.4,2.3,1.4C509,77.4,510,76.6,510,75.8z M508.9,68.8c0-1.2-0.7-1.8-1.7-1.8c-0.9,0-1.7,0.7-1.7,1.8
			c0,1.2,0.7,1.9,1.7,1.9C508.1,70.7,508.9,70,508.9,68.8z"/>
		<path d="M513.9,69.5h4.2v1.4h-4.2V69.5z"/>
		<path d="M521.6,62.9h6.9v1.6h-5.1v3.3h4.3v1.6h-4.3v3.8h5.2v1.6h-7.1V62.9z"/>
		<path d="M532.2,65.9h1.5l0.1,1.2h0c0.8-0.8,1.7-1.4,2.9-1.4c1.9,0,2.7,1.2,2.7,3.5v5.5h-1.8v-5.3c0-1.5-0.4-2.1-1.5-2.1
			c-0.8,0-1.4,0.4-2.1,1.2v6.2h-1.8V65.9z"/>
		<path d="M542.6,76.3c0-0.7,0.5-1.4,1.3-1.9v-0.1c-0.4-0.3-0.8-0.7-0.8-1.4c0-0.7,0.5-1.3,1-1.6v-0.1c-0.6-0.5-1.2-1.3-1.2-2.3
			c0-2,1.6-3.1,3.4-3.1c0.5,0,0.9,0.1,1.3,0.2h3.1v1.4H549c0.3,0.3,0.6,0.9,0.6,1.6c0,1.9-1.4,3-3.3,3c-0.4,0-0.8-0.1-1.2-0.3
			c-0.3,0.3-0.5,0.5-0.5,0.9c0,0.5,0.3,0.9,1.5,0.9h1.6c2.1,0,3.1,0.6,3.1,2.1c0,1.7-1.8,3.1-4.6,3.1
			C544.2,78.6,542.6,77.8,542.6,76.3z M549.1,75.8c0-0.7-0.6-1-1.6-1h-1.3c-0.4,0-0.8,0-1.2-0.1c-0.5,0.4-0.7,0.8-0.7,1.3
			c0,0.9,0.9,1.4,2.3,1.4C548.1,77.4,549.1,76.6,549.1,75.8z M548,68.8c0-1.2-0.7-1.8-1.7-1.8c-0.9,0-1.7,0.7-1.7,1.8
			c0,1.2,0.7,1.9,1.7,1.9C547.2,70.7,548,70,548,68.8z"/>
		<path d="M553.6,72.6V62h1.8v10.7c0,0.5,0.2,0.7,0.4,0.7c0.1,0,0.1,0,0.3,0l0.2,1.4c-0.2,0.1-0.5,0.1-1,0.1
			C554.1,74.8,553.6,74,553.6,72.6z"/>
		<path d="M559.3,63.2c0-0.7,0.5-1.1,1.1-1.1c0.7,0,1.1,0.4,1.1,1.1c0,0.7-0.5,1.1-1.1,1.1C559.8,64.3,559.3,63.8,559.3,63.2z
			 M559.6,65.9h1.8v8.7h-1.8V65.9z"/>
		<path d="M564.4,73.6l0.9-1.2c0.8,0.6,1.5,1,2.5,1c1,0,1.5-0.5,1.5-1.2c0-0.8-1-1.1-1.9-1.5c-1.2-0.4-2.5-1.1-2.5-2.5
			c0-1.5,1.2-2.6,3.1-2.6c1.2,0,2.1,0.5,2.8,1l-0.9,1.1c-0.6-0.4-1.2-0.8-1.9-0.8c-1,0-1.4,0.5-1.4,1.1c0,0.7,0.9,1,1.8,1.4
			c1.2,0.5,2.6,1,2.6,2.7c0,1.5-1.2,2.7-3.3,2.7C566.5,74.8,565.3,74.3,564.4,73.6z"/>
		<path d="M574.1,62h1.8v3.4l-0.1,1.7c0.8-0.7,1.6-1.4,2.8-1.4c1.9,0,2.7,1.2,2.7,3.5v5.5h-1.8v-5.3c0-1.5-0.4-2.1-1.5-2.1
			c-0.8,0-1.4,0.4-2.1,1.2v6.2h-1.8V62z"/>
		<path d="M585.3,73.6c0-0.8,0.5-1.3,1.2-1.3c0.7,0,1.2,0.5,1.2,1.3c0,0.7-0.5,1.3-1.2,1.3C585.9,74.8,585.3,74.3,585.3,73.6z
			 M585.7,64.5l0-1.9h1.8l-0.1,1.9l-0.3,6.4h-1.2L585.7,64.5z"/>
	</g>
	<g>
		<g>
			
				<image style="overflow:visible;" width="39" height="35" xlink:href="9CEC3B05.png"  transform="matrix(1.4052 0 0 1.4052 0 1.5889)">
			</image>
			<g>
				
					<image style="overflow:visible;" width="31" height="29" xlink:href="9CEC3B07.png"  transform="matrix(1.4052 0 0 1.4052 5.6206 5.8043)">
				</image>
				<g>
					<path d="M23.8,32.4c-4.4,1.3-9.1,2.7-12.7,3.7L10.3,33c1.5-0.3,3.3-0.8,5.3-1.3v-7.9h-4.2v-3h4.2v-6.9h-4.6v-3h12.1v3h-4.4v6.9
						h4v3h-4v7l4.5-1.3L23.8,32.4z M39.9,38.3c0.7,0,0.9-0.5,1-4.1c0.6,0.5,1.9,1,2.8,1.2c-0.3,4.5-1.1,5.7-3.4,5.7h-3.1
						c-2.8,0-3.5-0.9-3.5-3.9v-7.5h-2.9c-0.6,5.7-2.4,9.6-9.6,11.8c-0.3-0.8-1.2-2.1-1.8-2.7c6.3-1.7,7.7-4.7,8.2-9.1h-2.9V10.4
						h16.8v19.5h-4.6v7.4c0,1,0.1,1.1,0.9,1.1H39.9z M27.8,16h10.5v-2.9H27.8V16z M27.8,21.6h10.5v-3H27.8V21.6z M27.8,27.1h10.5v-3
						H27.8V27.1z"/>
				</g>
			</g>
		</g>
		<g>
			
				<image style="overflow:visible;" width="38" height="36" xlink:href="9CEC3B02.png"  transform="matrix(1.4052 0 0 1.4052 37.9391 0.1837)">
			</image>
			<g>
				
					<image style="overflow:visible;" width="30" height="30" xlink:href="9CEC3B01.png"  transform="matrix(1.4052 0 0 1.4052 43.5597 4.3992)">
				</image>
				<g>
					<path d="M80.5,14.1v3.2h-19c-1.2,2.5-2.6,4.9-4.2,7.1v17h-3.3V28.2c-1.1,1.1-2.4,2.2-3.7,3.1c-0.4-0.9-1.1-2.3-1.6-3.1
						c3.9-2.7,6.9-6.6,9.1-10.9h-8.1v-3.2h9.6c0.7-1.7,1.3-3.5,1.7-5.2l3.4,0.8c-0.5,1.5-1,2.9-1.5,4.4H80.5z M71.6,37.5h8.9v3.1
						H59.3v-3.1h8.9v-9.1h-7.6v-3h7.6v-6.4h3.3v6.4h7.5v3h-7.5V37.5z"/>
				</g>
			</g>
		</g>
		<g>
			
				<image style="overflow:visible;" width="38" height="36" xlink:href="9CEC3BFD.png"  transform="matrix(1.4052 0 0 1.4052 77.2834 0.1837)">
			</image>
			<g>
				
					<image style="overflow:visible;" width="31" height="30" xlink:href="9CEC3BFF.png"  transform="matrix(1.4052 0 0 1.4052 81.4988 4.3992)">
				</image>
				<g>
					<path d="M92.8,29.4c-0.8,3.3-2.1,6.7-3.5,8.9c-0.5-0.4-1.7-1.2-2.3-1.6c1.5-2,2.5-5,3.1-7.9L92.8,29.4z M103.3,16h-16v-2.9h7.1
						C94,12,93.5,10.6,93,9.5l3-0.7c0.6,1.3,1.4,3,1.8,4.2h5.5V16z M97.2,27.3v10.8c0,1.3-0.2,2.2-1.1,2.6c-1,0.5-2.2,0.5-4,0.5
						c-0.1-0.8-0.5-2-0.9-2.7c1.2,0,2.3,0,2.7,0c0.4,0,0.5-0.1,0.5-0.5V27.3h-5.2v-8.9H102v8.9H97.2z M91.9,24.7h7V21h-7V24.7z
						 M100.5,28.4c1.1,1.9,2.2,4.5,2.7,6.2l-2.5,1.1c-0.4-1.7-1.4-4.3-2.5-6.3L100.5,28.4z M115.7,38.2c0.4,0,0.7,0,0.9-0.2
						c0.2-0.1,0.4-0.4,0.5-1c0.1-0.6,0.1-2.1,0.1-3.9c0.6,0.6,1.7,1.1,2.6,1.4c-0.1,1.6-0.2,3.5-0.4,4.2c-0.3,0.7-0.7,1.2-1.2,1.5
						c-0.5,0.3-1.4,0.4-2.1,0.4h-2.2c-0.8,0-1.7-0.2-2.3-0.7c-0.6-0.5-0.8-1.1-0.8-3.5v-12c-1,6.6-3,12.8-7.5,17
						c-0.5-0.6-1.5-1.5-2.4-2c5-4.4,6.7-11.3,7.3-18.5h-4.4v-3h4.5c0.2-3,0.2-6.1,0.2-9h3.1c0,2.9-0.1,5.9-0.2,9h7.8v3h-8
						c-0.1,0.8-0.2,1.6-0.2,2.3h2.7v13.5c0,0.7,0,1.1,0.2,1.2c0.2,0.1,0.4,0.2,0.7,0.2H115.7z M116,17.1c-0.6-1.5-2.2-3.8-3.5-5.4
						l2.2-1.2c1.4,1.6,3,3.7,3.7,5.2L116,17.1z"/>
				</g>
			</g>
		</g>
		<g>
			
				<image style="overflow:visible;" width="38" height="36" xlink:href="9CEC3B00.png"  transform="matrix(1.4052 0 0 1.4052 113.8173 0.1837)">
			</image>
			<g>
				
					<image style="overflow:visible;" width="31" height="30" xlink:href="9CEC3B06.png"  transform="matrix(1.4052 0 0 1.4052 119.4379 4.3992)">
				</image>
				<g>
					<path d="M134.7,26.2c-0.5,3-1.2,5.6-2.2,7.8c2.3,3.5,6.4,4,12.4,4c3.7,0,9.1-0.2,12.9-0.5c-0.5,0.7-0.9,2.2-1.1,3.1
						c-3.4,0.2-7.9,0.3-11.9,0.3c-6.7,0-10.9-0.7-13.6-4.4c-1.3,2.2-2.9,3.8-4.6,5c-0.4-0.6-1.5-1.8-2.2-2.2c3.4-2.1,5.7-5.8,6.9-11
						h-3.5c-0.9,0-1.8,0.2-2.1,0.5c-0.2-0.7-0.8-2.2-1.1-2.8c0.5-0.1,1.1-0.4,1.7-1.1c0.7-0.7,2.6-3.2,4-5.2h-5.2v-2.7h7.3l0.4-0.2
						l2.1,1c-1.4,2-3.8,5.5-5.8,7.9h3.4l0.5-0.1L134.7,26.2z M130.8,16.1c-1-1.5-2.9-3.9-4.5-5.6l2.5-1.5c1.6,1.7,3.6,3.9,4.6,5.3
						L130.8,16.1z M137.4,20.6c-0.8,1.1-1.6,2.1-2.4,3c-0.3-0.6-1.2-2-1.7-2.6c2.8-2.9,5.3-7.3,6.8-11.8l2.8,0.8
						c-0.6,1.6-1.2,3.2-2,4.7h6.2c-0.5-1.4-1.2-3-2-4.4l2.8-0.8c0.9,1.6,1.9,3.8,2.4,5.2h5.9v2.7h-7.4v3.1h6.2v2.5h-6.2V26h6.3v2.5
						h-6.3v3.2h8v2.7h-19.4V20.6z M145.9,17.3h-5.5v3.1h5.5V17.3z M145.9,22.9h-5.5V26h5.5V22.9z M145.9,28.5h-5.5v3.2h5.5V28.5z"/>
				</g>
			</g>
		</g>
		<g>
			
				<image style="overflow:visible;" width="37" height="36" xlink:href="9CEC3B0C.png"  transform="matrix(1.4052 0 0 1.4052 153.1616 0.1837)">
			</image>
			<g>
				
					<image style="overflow:visible;" width="31" height="30" xlink:href="9CEC3B22.png"  transform="matrix(1.4052 0 0 1.4052 157.377 4.3992)">
				</image>
				<g>
					<path d="M192.4,29.3c-1.1-1.2-3.2-3-5.1-4.6c-0.8,1.4-1.7,2.7-2.8,3.6c-0.6-0.5-1.8-1.3-2.7-1.7c3.2,4.4,8.4,8.4,13.7,10.3
						c-0.8,0.7-1.9,2.1-2.5,3c-4.6-2.1-9-5.6-12.3-9.8v11.3h-3.5V30.2c-3.4,4.1-7.8,7.6-12.2,9.7c-0.5-0.8-1.6-2.2-2.3-2.8
						c5.7-2.3,11.4-7,14.5-11.9v-8.4h-13.2v-3.2h13.2V8.9h3.5v4.7h13.6v3.2h-13.6V25c0.3,0.5,0.6,1,1,1.5c2.4-2.1,4.1-5.5,4.8-9.2
						l3.2,0.6c-0.3,1.4-0.7,2.7-1.2,4c2.2,1.7,4.7,3.7,6.1,5.1L192.4,29.3z M173.3,18c-0.4,1.4-0.8,2.7-1.3,4
						c1.4,1.2,2.9,2.6,3.8,3.5l-2.2,2.3c-0.6-0.8-1.7-1.9-2.9-3c-1.2,2.1-2.6,3.9-4.3,5.2c-0.5-0.6-1.8-1.7-2.5-2.2
						c3.2-2.3,5.3-6.1,6.3-10.5L173.3,18z"/>
				</g>
			</g>
		</g>
		<g>
			
				<image style="overflow:visible;" width="38" height="36" xlink:href="9CEC3B2D.png"  transform="matrix(1.4052 0 0 1.4052 191.1007 0.1837)">
			</image>
			<g>
				
					<image style="overflow:visible;" width="30" height="30" xlink:href="9CEC3B2E.png"  transform="matrix(1.4052 0 0 1.4052 196.7213 4.3992)">
				</image>
				<g>
					<path d="M231.5,24.9c-1.6,2.9-3.6,5.6-6,8c1.2,3.3,2.5,5.3,4,5.3c0.9,0,1.3-1.7,1.5-6.1c0.7,0.8,1.9,1.6,2.8,1.8
						c-0.6,6-1.7,7.6-4.5,7.6c-2.7,0-4.8-2.3-6.3-6.1c-2.2,1.9-4.5,3.5-7,4.8c-0.5-0.8-1.4-1.9-2.3-2.7c2.9-1.3,5.7-3.2,8.2-5.4
						c-0.8-2.9-1.5-6.3-1.9-9.9h-7.8v5L218,26l0.2,2.9c-2,0.5-4.1,1-6.2,1.4v7c0,1.9-0.5,2.9-1.7,3.4c-1.2,0.5-3.2,0.6-6.1,0.6
						c-0.2-0.9-0.7-2.4-1.2-3.3c2.2,0.1,4.2,0.1,4.8,0c0.6,0,0.8-0.2,0.8-0.8v-6.3c-2.5,0.5-4.8,1-6.8,1.5l-0.9-3.3
						c2.1-0.4,4.8-0.8,7.8-1.4v-5.6h-7.2v-3.1h7.2v-4.9c-2.1,0.4-4.2,0.6-6.1,0.9c-0.2-0.7-0.6-2-1-2.7c4.9-0.7,10.5-1.9,14-3.1
						l2.3,2.8c-1.7,0.6-3.8,1.1-5.8,1.5v5.6h7.5c-0.3-3.2-0.4-6.5-0.5-9.9h3.4c0,3.4,0.1,6.8,0.4,9.9H233v3.1h-9.7
						c0.4,2.7,0.8,5,1.3,7.2c1.6-1.8,3-3.8,4-5.8L231.5,24.9z M229.7,17.6c-1-1.7-3.3-4.2-5.3-6l2.5-1.7c2,1.7,4.4,4.1,5.5,5.8
						L229.7,17.6z"/>
				</g>
			</g>
		</g>
		<g>
			
				<image style="overflow:visible;" width="38" height="36" xlink:href="9CEC3B2C.png"  transform="matrix(1.4052 0 0 1.4052 227.6347 0.1837)">
			</image>
			<g>
				
					<image style="overflow:visible;" width="30" height="30" xlink:href="9CEC3B23.png"  transform="matrix(1.4052 0 0 1.4052 233.2553 4.3992)">
				</image>
				<g>
					<path d="M248.7,9.9c-0.8,2.3-1.7,4.7-2.8,7v24.5h-3.1V22.6c-0.9,1.5-1.8,2.8-2.8,3.9c-0.3-0.8-1.1-2.7-1.6-3.5
						c2.9-3.4,5.7-8.7,7.3-14L248.7,9.9z M258.6,23.9h-6.6v17.4h-3V10.9h9.7V23.9z M251.9,13.4v2.7h4.1v-2.7H251.9z M256,21.4v-2.9
						h-4.1v2.9H256z M270.5,37.4c0,1.9-0.4,2.9-1.7,3.4c-1.3,0.5-3.4,0.6-6.7,0.6c-0.1-0.9-0.7-2.3-1.1-3.2c2.4,0.1,4.8,0.1,5.5,0.1
						c0.6,0,0.9-0.2,0.9-0.9V23.9h-7v-13h10.1V37.4z M263.1,13.4v2.7h4.3v-2.7H263.1z M267.4,21.4v-2.9h-4.3v2.9H267.4z"/>
				</g>
			</g>
		</g>
		<g>
			
				<image style="overflow:visible;" width="36" height="36" xlink:href="9CEC3B35.png"  transform="matrix(1.4052 0 0 1.4052 268.3841 0.1837)">
			</image>
			<g>
				
					<image style="overflow:visible;" width="28" height="30" xlink:href="9CEC3B36.png"  transform="matrix(1.4052 0 0 1.4052 274.0047 4.3992)">
				</image>
				<g>
					<path d="M308.6,14.4c0,0,0,1.1,0,1.6c-0.5,16-0.9,21.5-2.3,23.2c-0.9,1.2-1.7,1.5-3.1,1.7c-1.2,0.1-3.3,0.1-5.3,0
						c-0.1-0.9-0.5-2.3-1.1-3.2c2.3,0.2,4.3,0.2,5.2,0.2c0.7,0,1.1-0.1,1.5-0.6c1.1-1.2,1.6-6.5,2.1-19.9h-8.4
						c-1,2.3-2.1,4.3-3.2,5.9c-0.5-0.5-1.8-1.4-2.6-1.8v16.2h-9.6v2.7h-3V14.6h4c0.5-1.7,1-4,1.2-5.7l3.6,0.6
						c-0.6,1.8-1.3,3.6-1.8,5.1h5.7v6.7c2.3-3,4.2-7.8,5.3-12.4l3.2,0.7c-0.4,1.6-0.9,3.3-1.5,4.8H308.6z M281.8,17.5v6.7h6.6v-6.7
						H281.8z M288.3,34.9v-7.8h-6.6v7.8H288.3z M300.1,32.1c-1-2.2-3.3-5.6-5.2-8.2l2.6-1.5c1.9,2.4,4.3,5.8,5.3,7.9L300.1,32.1z"/>
				</g>
			</g>
		</g>
		<g>
			
				<image style="overflow:visible;" width="38" height="36" xlink:href="9CEC3B37.png"  transform="matrix(1.4052 0 0 1.4052 304.918 0.1837)">
			</image>
			<g>
				
					<image style="overflow:visible;" width="30" height="30" xlink:href="9CEC3B39.png"  transform="matrix(1.4052 0 0 1.4052 310.5386 4.3992)">
				</image>
				<g>
					<path d="M332.2,31.3c-1.4,4.2-5.3,7.8-15.2,10.1c-0.4-0.7-1.2-2-2-2.7c8.5-1.8,12.1-4.4,13.6-7.4h-13.1v-3h3.8v-8.5h10.2v-3.2
						h3.4v3.2h10.9v8.5h3.5v3H332.2z M322.6,15.1h-6.3v-2.8h6.3V9h3.3v3.3h4.6v2.8h-4.6v3.3h-3.3V15.1z M329.5,28.3
						c0.1-0.6,0.1-1.2,0.1-1.8v-3.9h-7.1v5.6H329.5z M333.6,31.9c4.6,1.8,10.8,4.7,13.9,6.9l-1.7,2.7c-3-2.1-9.2-5.3-13.8-7.2
						L333.6,31.9z M337.3,15.1h-5v-2.8h5V9h3.3v3.3h6.1v2.8h-6.1v3.2h-3.3V15.1z M332.9,22.7v3.9c0,0.6,0,1.1-0.1,1.7h7.6v-5.6
						H332.9z"/>
				</g>
			</g>
		</g>
		<g>
			
				<image style="overflow:visible;" width="38" height="36" xlink:href="9CEC3B3B.png"  transform="matrix(1.4052 0 0 1.4052 342.8571 0.1837)">
			</image>
			<g>
				
					<image style="overflow:visible;" width="30" height="30" xlink:href="9CEC3B48.png"  transform="matrix(1.4052 0 0 1.4052 348.4778 4.3992)">
				</image>
				<g>
					<path d="M380,18.2c-1.9,5.3-4.5,9.7-7.8,13.2c3.8,3.1,8.4,5.4,13.8,6.7c-0.7,0.7-1.7,2.1-2.2,3c-5.6-1.5-10.3-4-14.2-7.4
						c-3.9,3.3-8.7,5.8-14.5,7.6c-0.4-0.8-1.4-2.4-2.1-3.2c5.7-1.5,10.3-3.7,14.1-6.8c-3.4-3.6-6.1-8.1-8-13.2h-5.5V15H369
						c-0.4-1.5-1.4-3.7-2.4-5.3l3.5-1c1,1.7,2.2,3.9,2.6,5.4l-3.1,1h15.9v3.2H380z M362.6,18.2c1.7,4.2,4.1,7.8,7.1,10.9
						c2.9-3,5.1-6.6,6.7-10.9H362.6z"/>
				</g>
			</g>
		</g>
		<g>
			
				<image style="overflow:visible;" width="34" height="35" xlink:href="9CEC3B4B.png"  transform="matrix(1.4052 0 0 1.4052 383.6066 1.5889)">
			</image>
			<g>
				
					<image style="overflow:visible;" width="28" height="29" xlink:href="9CEC3B52.png"  transform="matrix(1.4052 0 0 1.4052 387.822 5.8043)">
				</image>
				<g>
					<path d="M396,20.4v21h-3.1V10.2h13.1v10.3H396z M396,12.4v1.8h7v-1.8H396z M403,18.2v-2h-7v2H403z M422.3,37.6
						c0,1.6-0.3,2.4-1.3,3c-1,0.5-2.5,0.6-4.6,0.6c-0.1-0.6-0.3-1.5-0.6-2.2c-0.5,0.5-1,0.7-1.9,0.7h-2.7c-2.5,0-3-0.7-3-3.2v-3.6
						h-2.4c-0.6,3.6-2.1,5.8-6.7,7.3c-0.3-0.7-1-1.8-1.6-2.2c3.8-1,5.1-2.5,5.5-5.1h-2.2v-6c-0.6,0.4-1.3,0.8-1.9,1.1
						c-0.5-0.5-1.3-1.3-1.9-1.7c2.5-1.2,5.3-3.3,6.7-5.1l2.6,0.8c-1.1,1.5-2.6,2.9-4.3,4.1h11.5c-1.5-1.2-3.4-2.5-5-3.5l1.8-1.3
						c2.5,1.5,5.7,3.8,7.3,5.3l-1.9,1.6c-0.4-0.5-1-1-1.6-1.6v6.3h-3v3.5c0,0.7,0.1,0.8,0.7,0.8h1.9c0.6,0,0.7-0.3,0.8-2.5
						c0.5,0.4,1.6,0.8,2.4,1c-0.1,1.1-0.2,1.9-0.5,2.5c1.1,0,2,0,2.3,0c0.5,0,0.6-0.2,0.6-0.6V20.4h-10.3V10.2h13.5V37.6z
						 M403.4,30.8h7.8v-2.8h-7.8V30.8z M411.9,12.4v1.9h7.2v-1.9H411.9z M419.1,18.2v-1.9h-7.2v1.9H419.1z"/>
				</g>
			</g>
		</g>
		<g>
			
				<image style="overflow:visible;" width="37" height="36" xlink:href="9CEC3B47.png"  transform="matrix(1.4052 0 0 1.4052 420.1405 0.1837)">
			</image>
			<g>
				
					<image style="overflow:visible;" width="30" height="30" xlink:href="9CEC3B59.png"  transform="matrix(1.4052 0 0 1.4052 424.356 4.3992)">
				</image>
				<g>
					<path d="M440.8,17.4h-11.4v-2.6h5.7c-0.7-1.3-1.9-3.2-3-4.5l2.8-1.1c1.3,1.4,2.6,3.3,3.2,4.6l-2.3,1.1h5V17.4z M440.2,26.9
						h-9.7v-2.6h9.7V26.9z M439.9,39.4h-6.5V41h-2.6V29.1h9.1V39.4z M430.8,22.2v-2.6h9.1v2.6H430.8z M433.4,31.7v5.1h3.9v-5.1
						H433.4z M455.1,36.3c2.5,1,5.2,2.2,6.9,3l-1.8,2.2c-1.7-1-4.6-2.4-7.2-3.5l1.3-1.7h-6.5l2.3,1.3c-2,1.5-5.2,3-7.9,3.8
						c-0.5-0.6-1.5-1.5-2.1-2c2.5-0.7,5.5-2,7.1-3.1h-4V25.9h17v10.4H455.1z M449.7,12.9h-7.9v-2.2h7.9V8.9h3.2v1.8h8.4v2.2h-8.4
						v1.5h7.5v2.1H443v-2.1h6.7V12.9z M442,17.6h19v7.2h-19V17.6z M444.7,23h3v-3.6h-3V23z M446,29h11.1v-1.3H446V29z M446,31.7
						h11.1v-1.3H446V31.7z M446,34.5h11.1v-1.4H446V34.5z M453.1,23v-3.6h-3.4V23H453.1z M458.3,19.4h-3.1V23h3.1V19.4z"/>
				</g>
			</g>
		</g>
		<g>
			
				<image style="overflow:visible;" width="38" height="36" xlink:href="9CEC3B5B.png"  transform="matrix(1.4052 0 0 1.4052 456.6745 0.1837)">
			</image>
			<g>
				
					<image style="overflow:visible;" width="30" height="30" xlink:href="9CEC3B58.png"  transform="matrix(1.4052 0 0 1.4052 462.2951 4.3992)">
				</image>
				<g>
					<path d="M480.5,33.4c-2.5,3-7,5.7-11.2,6.9c-0.5-0.9-1.5-2.1-2.2-2.8c4-0.9,8.4-2.9,10.7-5.3L480.5,33.4z M485.4,28.5h14.1v2.7
						h-14.1v10.1h-3.3V31.2H468v-2.7h14.2v-1.9h3.3V28.5z M476.3,26.7c0-0.5-0.1-1-0.2-1.6c-5.5,0.8-6.4,1-7,1.3
						c-0.1-0.5-0.5-1.8-0.8-2.5c0.7-0.1,1.3-0.8,2.2-1.9c0.4-0.5,1.3-1.7,2.4-3.2c-2.6,0.3-3.2,0.5-3.6,0.7
						c-0.1-0.5-0.6-1.8-0.8-2.4c0.4-0.1,0.9-0.7,1.4-1.5c0.5-0.7,2.1-3.6,2.9-6.4l2.6,1c-0.9,2.2-2.2,4.6-3.4,6.5l2.5-0.2
						c0.6-1.1,1.2-2.2,1.7-3.2l2.4,1.3c-1.8,3.1-4,6.3-6.3,8.9l3.6-0.4c-0.2-0.8-0.4-1.7-0.5-2.4l2.2-0.5c0.5,1.9,1.1,4.4,1.3,6
						L476.3,26.7z M488.5,25.7h-9.4V12.1h2.8c0.3-1.1,0.6-2.5,0.7-3.4l3,0.5c-0.4,1-0.8,2-1.1,2.9h4V25.7z M485.6,14.6h-3.7v3.1h3.7
						V14.6z M485.6,20h-3.7v3.2h3.7V20z M489.4,32c3.4,1.7,7.8,4.3,10.1,6.1l-2.1,2.4c-2.1-1.8-6.5-4.6-9.9-6.5L489.4,32z
						 M497.3,27.1c-0.1-0.5-0.2-0.9-0.3-1.5c-5.5,0.7-6.5,0.9-7.1,1.2c-0.1-0.5-0.5-1.8-0.8-2.6c0.7-0.1,1.3-0.9,2.2-1.8
						c0.5-0.5,1.4-1.7,2.5-3.3c-3,0.4-3.7,0.6-4.1,0.8c-0.1-0.6-0.5-1.9-0.8-2.5c0.5-0.1,0.9-0.7,1.4-1.5c0.5-0.8,2.2-3.8,3-6.6
						l2.7,0.8c-1,2.3-2.3,4.8-3.6,6.8l3-0.3c0.6-1,1.1-2,1.6-3l2.5,1.3c-1.9,3.2-4.2,6.4-6.5,8.9l3.6-0.4c-0.2-0.8-0.4-1.5-0.6-2.2
						l2.2-0.6c0.6,1.8,1.2,4.1,1.5,5.7L497.3,27.1z"/>
				</g>
			</g>
		</g>
		<g>
			
				<image style="overflow:visible;" width="36" height="35" xlink:href="9CEC3B5A.png"  transform="matrix(1.4052 0 0 1.4052 496.0187 1.5889)">
			</image>
			<g>
				
					<image style="overflow:visible;" width="28" height="29" xlink:href="9CEC3B51.png"  transform="matrix(1.4052 0 0 1.4052 501.6393 5.8043)">
				</image>
				<g>
					<path d="M536.6,10.4v31h-3.2V40h-23.2v1.4H507v-31H536.6z M533.3,37.1V13.4h-23.2v23.7H533.3z M523,32.5c-0.1,0.6-0.1,1.5,0,2
						c-6.3,1.7-7.3,1.9-7.8,2.3c-0.1-0.6-0.5-1.5-0.8-1.9c0.5-0.2,1.3-0.6,1.3-1.9v-2c-1.1,0.4-2.3,0.8-3.4,1.1
						c-0.3-0.5-1.1-1.5-1.6-1.9c2.5-0.6,5.3-1.5,7.5-2.5h-4.5v-5.1H530v5.1h-8c-1.1,0.8-2.4,1.6-3.8,2.3v3.6L523,32.5z M531.8,21.4
						h-20.2v-1.9h8.5v-1.8h-6.7v-1.9h6.7V14h3v1.7h7v1.9h-7v1.8h8.7V21.4z M516.4,26.2h10.6v-2h-10.6V26.2z M531.9,29.6
						c-1.1,0.8-2.4,1.6-3.5,2.2c1.4,1,2.7,1.9,3.7,2.8l-2.2,1.3c-1.9-1.7-5.9-4.5-9-6.4l2-1.2c1.1,0.7,2.4,1.5,3.7,2.3
						c1.2-0.7,2.5-1.6,3.3-2.2L531.9,29.6z"/>
				</g>
			</g>
		</g>
		<g>
			
				<image style="overflow:visible;" width="36" height="34" xlink:href="9CEC3B50.png"  transform="matrix(1.4052 0 0 1.4052 535.363 1.5889)">
			</image>
			<g>
				
					<image style="overflow:visible;" width="30" height="28" xlink:href="9CEC3B7C.png"  transform="matrix(1.4052 0 0 1.4052 539.5784 5.8043)">
				</image>
				<g>
					<path d="M554.7,32.2h-6.8v3.3h-3V12.1h9.8V32.2z M547.9,15.2v13.9h3.8V15.2H547.9z M570.8,37.8c1.9,0,2.3-0.9,2.5-4.7
						c0.8,0.5,2.1,1.1,3,1.2c-0.5,4.9-1.5,6.5-5.3,6.5h-8c-4.2,0-5.6-1-5.6-5.5V11.1h17.5v18.8h-3.2v-2.2h-11.1v7.5
						c0,2.1,0.4,2.5,2.6,2.5H570.8z M560.6,14.2v10.6h4V14.2H560.6z M571.7,14.2h-4.1v10.6h4.1V14.2z"/>
				</g>
			</g>
		</g>
		<g>
			
				<image style="overflow:visible;" width="19" height="32" xlink:href="9CEC3B73.png"  transform="matrix(1.4052 0 0 1.4052 573.3021 2.994)">
			</image>
			<g>
				
					<image style="overflow:visible;" width="11" height="26" xlink:href="9CEC3B74.png"  transform="matrix(1.4052 0 0 1.4052 578.9227 7.2095)">
				</image>
				<g>
					<path d="M583.6,36.3c0-1.7,1.2-2.9,2.7-2.9c1.6,0,2.8,1.2,2.8,2.9c0,1.7-1.2,2.8-2.8,2.8C584.7,39.1,583.6,37.9,583.6,36.3z
						 M584.4,16.1l-0.1-4.2h4.1l-0.1,4.2l-0.6,14.2h-2.7L584.4,16.1z"/>
				</g>
			</g>
		</g>
		<path d="M23.8,32.4c-4.4,1.3-9.1,2.7-12.7,3.7L10.3,33c1.5-0.3,3.3-0.8,5.3-1.3v-7.9h-4.2v-3h4.2v-6.9h-4.6v-3h12.1v3h-4.4v6.9h4
			v3h-4v7l4.5-1.3L23.8,32.4z M39.9,38.3c0.7,0,0.9-0.5,1-4.1c0.6,0.5,1.9,1,2.8,1.2c-0.3,4.5-1.1,5.7-3.4,5.7h-3.1
			c-2.8,0-3.5-0.9-3.5-3.9v-7.5h-2.9c-0.6,5.7-2.4,9.6-9.6,11.8c-0.3-0.8-1.2-2.1-1.8-2.7c6.3-1.7,7.7-4.7,8.2-9.1h-2.9V10.4h16.8
			v19.5h-4.6v7.4c0,1,0.1,1.1,0.9,1.1H39.9z M27.8,16h10.5v-2.9H27.8V16z M27.8,21.6h10.5v-3H27.8V21.6z M27.8,27.1h10.5v-3H27.8
			V27.1z"/>
		<path d="M80.5,14.1v3.2h-19c-1.2,2.5-2.6,4.9-4.2,7.1v17h-3.3V28.2c-1.1,1.1-2.4,2.2-3.7,3.1c-0.4-0.9-1.1-2.3-1.6-3.1
			c3.9-2.7,6.9-6.6,9.1-10.9h-8.1v-3.2h9.6c0.7-1.7,1.3-3.5,1.7-5.2l3.4,0.8c-0.5,1.5-1,2.9-1.5,4.4H80.5z M71.6,37.5h8.9v3.1H59.3
			v-3.1h8.9v-9.1h-7.6v-3h7.6v-6.4h3.3v6.4h7.5v3h-7.5V37.5z"/>
		<path d="M92.8,29.4c-0.8,3.3-2.1,6.7-3.5,8.9c-0.5-0.4-1.7-1.2-2.3-1.6c1.5-2,2.5-5,3.1-7.9L92.8,29.4z M103.3,16h-16v-2.9h7.1
			C94,12,93.5,10.6,93,9.5l3-0.7c0.6,1.3,1.4,3,1.8,4.2h5.5V16z M97.2,27.3v10.8c0,1.3-0.2,2.2-1.1,2.6c-1,0.5-2.2,0.5-4,0.5
			c-0.1-0.8-0.5-2-0.9-2.7c1.2,0,2.3,0,2.7,0c0.4,0,0.5-0.1,0.5-0.5V27.3h-5.2v-8.9H102v8.9H97.2z M91.9,24.7h7V21h-7V24.7z
			 M100.5,28.4c1.1,1.9,2.2,4.5,2.7,6.2l-2.5,1.1c-0.4-1.7-1.4-4.3-2.5-6.3L100.5,28.4z M115.7,38.2c0.4,0,0.7,0,0.9-0.2
			c0.2-0.1,0.4-0.4,0.5-1c0.1-0.6,0.1-2.1,0.1-3.9c0.6,0.6,1.7,1.1,2.6,1.4c-0.1,1.6-0.2,3.5-0.4,4.2c-0.3,0.7-0.7,1.2-1.2,1.5
			c-0.5,0.3-1.4,0.4-2.1,0.4h-2.2c-0.8,0-1.7-0.2-2.3-0.7c-0.6-0.5-0.8-1.1-0.8-3.5v-12c-1,6.6-3,12.8-7.5,17
			c-0.5-0.6-1.5-1.5-2.4-2c5-4.4,6.7-11.3,7.3-18.5h-4.4v-3h4.5c0.2-3,0.2-6.1,0.2-9h3.1c0,2.9-0.1,5.9-0.2,9h7.8v3h-8
			c-0.1,0.8-0.2,1.6-0.2,2.3h2.7v13.5c0,0.7,0,1.1,0.2,1.2c0.2,0.1,0.4,0.2,0.7,0.2H115.7z M116,17.1c-0.6-1.5-2.2-3.8-3.5-5.4
			l2.2-1.2c1.4,1.6,3,3.7,3.7,5.2L116,17.1z"/>
		<path d="M134.7,26.2c-0.5,3-1.2,5.6-2.2,7.8c2.3,3.5,6.4,4,12.4,4c3.7,0,9.1-0.2,12.9-0.5c-0.5,0.7-0.9,2.2-1.1,3.1
			c-3.4,0.2-7.9,0.3-11.9,0.3c-6.7,0-10.9-0.7-13.6-4.4c-1.3,2.2-2.9,3.8-4.6,5c-0.4-0.6-1.5-1.8-2.2-2.2c3.4-2.1,5.7-5.8,6.9-11
			h-3.5c-0.9,0-1.8,0.2-2.1,0.5c-0.2-0.7-0.8-2.2-1.1-2.8c0.5-0.1,1.1-0.4,1.7-1.1c0.7-0.7,2.6-3.2,4-5.2h-5.2v-2.7h7.3l0.4-0.2
			l2.1,1c-1.4,2-3.8,5.5-5.8,7.9h3.4l0.5-0.1L134.7,26.2z M130.8,16.1c-1-1.5-2.9-3.9-4.5-5.6l2.5-1.5c1.6,1.7,3.6,3.9,4.6,5.3
			L130.8,16.1z M137.4,20.6c-0.8,1.1-1.6,2.1-2.4,3c-0.3-0.6-1.2-2-1.7-2.6c2.8-2.9,5.3-7.3,6.8-11.8l2.8,0.8
			c-0.6,1.6-1.2,3.2-2,4.7h6.2c-0.5-1.4-1.2-3-2-4.4l2.8-0.8c0.9,1.6,1.9,3.8,2.4,5.2h5.9v2.7h-7.4v3.1h6.2v2.5h-6.2V26h6.3v2.5
			h-6.3v3.2h8v2.7h-19.4V20.6z M145.9,17.3h-5.5v3.1h5.5V17.3z M145.9,22.9h-5.5V26h5.5V22.9z M145.9,28.5h-5.5v3.2h5.5V28.5z"/>
		<path d="M192.4,29.3c-1.1-1.2-3.2-3-5.1-4.6c-0.8,1.4-1.7,2.7-2.8,3.6c-0.6-0.5-1.8-1.3-2.7-1.7c3.2,4.4,8.4,8.4,13.7,10.3
			c-0.8,0.7-1.9,2.1-2.5,3c-4.6-2.1-9-5.6-12.3-9.8v11.3h-3.5V30.2c-3.4,4.1-7.8,7.6-12.2,9.7c-0.5-0.8-1.6-2.2-2.3-2.8
			c5.7-2.3,11.4-7,14.5-11.9v-8.4h-13.2v-3.2h13.2V8.9h3.5v4.7h13.6v3.2h-13.6V25c0.3,0.5,0.6,1,1,1.5c2.4-2.1,4.1-5.5,4.8-9.2
			l3.2,0.6c-0.3,1.4-0.7,2.7-1.2,4c2.2,1.7,4.7,3.7,6.1,5.1L192.4,29.3z M173.3,18c-0.4,1.4-0.8,2.7-1.3,4c1.4,1.2,2.9,2.6,3.8,3.5
			l-2.2,2.3c-0.6-0.8-1.7-1.9-2.9-3c-1.2,2.1-2.6,3.9-4.3,5.2c-0.5-0.6-1.8-1.7-2.5-2.2c3.2-2.3,5.3-6.1,6.3-10.5L173.3,18z"/>
		<path d="M231.5,24.9c-1.6,2.9-3.6,5.6-6,8c1.2,3.3,2.5,5.3,4,5.3c0.9,0,1.3-1.7,1.5-6.1c0.7,0.8,1.9,1.6,2.8,1.8
			c-0.6,6-1.7,7.6-4.5,7.6c-2.7,0-4.8-2.3-6.3-6.1c-2.2,1.9-4.5,3.5-7,4.8c-0.5-0.8-1.4-1.9-2.3-2.7c2.9-1.3,5.7-3.2,8.2-5.4
			c-0.8-2.9-1.5-6.3-1.9-9.9h-7.8v5L218,26l0.2,2.9c-2,0.5-4.1,1-6.2,1.4v7c0,1.9-0.5,2.9-1.7,3.4c-1.2,0.5-3.2,0.6-6.1,0.6
			c-0.2-0.9-0.7-2.4-1.2-3.3c2.2,0.1,4.2,0.1,4.8,0c0.6,0,0.8-0.2,0.8-0.8v-6.3c-2.5,0.5-4.8,1-6.8,1.5l-0.9-3.3
			c2.1-0.4,4.8-0.8,7.8-1.4v-5.6h-7.2v-3.1h7.2v-4.9c-2.1,0.4-4.2,0.6-6.1,0.9c-0.2-0.7-0.6-2-1-2.7c4.9-0.7,10.5-1.9,14-3.1
			l2.3,2.8c-1.7,0.6-3.8,1.1-5.8,1.5v5.6h7.5c-0.3-3.2-0.4-6.5-0.5-9.9h3.4c0,3.4,0.1,6.8,0.4,9.9H233v3.1h-9.7
			c0.4,2.7,0.8,5,1.3,7.2c1.6-1.8,3-3.8,4-5.8L231.5,24.9z M229.7,17.6c-1-1.7-3.3-4.2-5.3-6l2.5-1.7c2,1.7,4.4,4.1,5.5,5.8
			L229.7,17.6z"/>
		<path d="M248.7,9.9c-0.8,2.3-1.7,4.7-2.8,7v24.5h-3.1V22.6c-0.9,1.5-1.8,2.8-2.8,3.9c-0.3-0.8-1.1-2.7-1.6-3.5
			c2.9-3.4,5.7-8.7,7.3-14L248.7,9.9z M258.6,23.9h-6.6v17.4h-3V10.9h9.7V23.9z M251.9,13.4v2.7h4.1v-2.7H251.9z M256,21.4v-2.9
			h-4.1v2.9H256z M270.5,37.4c0,1.9-0.4,2.9-1.7,3.4c-1.3,0.5-3.4,0.6-6.7,0.6c-0.1-0.9-0.7-2.3-1.1-3.2c2.4,0.1,4.8,0.1,5.5,0.1
			c0.6,0,0.9-0.2,0.9-0.9V23.9h-7v-13h10.1V37.4z M263.1,13.4v2.7h4.3v-2.7H263.1z M267.4,21.4v-2.9h-4.3v2.9H267.4z"/>
		<path d="M308.6,14.4c0,0,0,1.1,0,1.6c-0.5,16-0.9,21.5-2.3,23.2c-0.9,1.2-1.7,1.5-3.1,1.7c-1.2,0.1-3.3,0.1-5.3,0
			c-0.1-0.9-0.5-2.3-1.1-3.2c2.3,0.2,4.3,0.2,5.2,0.2c0.7,0,1.1-0.1,1.5-0.6c1.1-1.2,1.6-6.5,2.1-19.9h-8.4c-1,2.3-2.1,4.3-3.2,5.9
			c-0.5-0.5-1.8-1.4-2.6-1.8v16.2h-9.6v2.7h-3V14.6h4c0.5-1.7,1-4,1.2-5.7l3.6,0.6c-0.6,1.8-1.3,3.6-1.8,5.1h5.7v6.7
			c2.3-3,4.2-7.8,5.3-12.4l3.2,0.7c-0.4,1.6-0.9,3.3-1.5,4.8H308.6z M281.8,17.5v6.7h6.6v-6.7H281.8z M288.3,34.9v-7.8h-6.6v7.8
			H288.3z M300.1,32.1c-1-2.2-3.3-5.6-5.2-8.2l2.6-1.5c1.9,2.4,4.3,5.8,5.3,7.9L300.1,32.1z"/>
		<path d="M332.2,31.3c-1.4,4.2-5.3,7.8-15.2,10.1c-0.4-0.7-1.2-2-2-2.7c8.5-1.8,12.1-4.4,13.6-7.4h-13.1v-3h3.8v-8.5h10.2v-3.2h3.4
			v3.2h10.9v8.5h3.5v3H332.2z M322.6,15.1h-6.3v-2.8h6.3V9h3.3v3.3h4.6v2.8h-4.6v3.3h-3.3V15.1z M329.5,28.3
			c0.1-0.6,0.1-1.2,0.1-1.8v-3.9h-7.1v5.6H329.5z M333.6,31.9c4.6,1.8,10.8,4.7,13.9,6.9l-1.7,2.7c-3-2.1-9.2-5.3-13.8-7.2
			L333.6,31.9z M337.3,15.1h-5v-2.8h5V9h3.3v3.3h6.1v2.8h-6.1v3.2h-3.3V15.1z M332.9,22.7v3.9c0,0.6,0,1.1-0.1,1.7h7.6v-5.6H332.9z"
			/>
		<path d="M380,18.2c-1.9,5.3-4.5,9.7-7.8,13.2c3.8,3.1,8.4,5.4,13.8,6.7c-0.7,0.7-1.7,2.1-2.2,3c-5.6-1.5-10.3-4-14.2-7.4
			c-3.9,3.3-8.7,5.8-14.5,7.6c-0.4-0.8-1.4-2.4-2.1-3.2c5.7-1.5,10.3-3.7,14.1-6.8c-3.4-3.6-6.1-8.1-8-13.2h-5.5V15H369
			c-0.4-1.5-1.4-3.7-2.4-5.3l3.5-1c1,1.7,2.2,3.9,2.6,5.4l-3.1,1h15.9v3.2H380z M362.6,18.2c1.7,4.2,4.1,7.8,7.1,10.9
			c2.9-3,5.1-6.6,6.7-10.9H362.6z"/>
		<path d="M396,20.4v21h-3.1V10.2h13.1v10.3H396z M396,12.4v1.8h7v-1.8H396z M403,18.2v-2h-7v2H403z M422.3,37.6
			c0,1.6-0.3,2.4-1.3,3c-1,0.5-2.5,0.6-4.6,0.6c-0.1-0.6-0.3-1.5-0.6-2.2c-0.5,0.5-1,0.7-1.9,0.7h-2.7c-2.5,0-3-0.7-3-3.2v-3.6h-2.4
			c-0.6,3.6-2.1,5.8-6.7,7.3c-0.3-0.7-1-1.8-1.6-2.2c3.8-1,5.1-2.5,5.5-5.1h-2.2v-6c-0.6,0.4-1.3,0.8-1.9,1.1
			c-0.5-0.5-1.3-1.3-1.9-1.7c2.5-1.2,5.3-3.3,6.7-5.1l2.6,0.8c-1.1,1.5-2.6,2.9-4.3,4.1h11.5c-1.5-1.2-3.4-2.5-5-3.5l1.8-1.3
			c2.5,1.5,5.7,3.8,7.3,5.3l-1.9,1.6c-0.4-0.5-1-1-1.6-1.6v6.3h-3v3.5c0,0.7,0.1,0.8,0.7,0.8h1.9c0.6,0,0.7-0.3,0.8-2.5
			c0.5,0.4,1.6,0.8,2.4,1c-0.1,1.1-0.2,1.9-0.5,2.5c1.1,0,2,0,2.3,0c0.5,0,0.6-0.2,0.6-0.6V20.4h-10.3V10.2h13.5V37.6z M403.4,30.8
			h7.8v-2.8h-7.8V30.8z M411.9,12.4v1.9h7.2v-1.9H411.9z M419.1,18.2v-1.9h-7.2v1.9H419.1z"/>
		<path d="M440.8,17.4h-11.4v-2.6h5.7c-0.7-1.3-1.9-3.2-3-4.5l2.8-1.1c1.3,1.4,2.6,3.3,3.2,4.6l-2.3,1.1h5V17.4z M440.2,26.9h-9.7
			v-2.6h9.7V26.9z M439.9,39.4h-6.5V41h-2.6V29.1h9.1V39.4z M430.8,22.2v-2.6h9.1v2.6H430.8z M433.4,31.7v5.1h3.9v-5.1H433.4z
			 M455.1,36.3c2.5,1,5.2,2.2,6.9,3l-1.8,2.2c-1.7-1-4.6-2.4-7.2-3.5l1.3-1.7h-6.5l2.3,1.3c-2,1.5-5.2,3-7.9,3.8
			c-0.5-0.6-1.5-1.5-2.1-2c2.5-0.7,5.5-2,7.1-3.1h-4V25.9h17v10.4H455.1z M449.7,12.9h-7.9v-2.2h7.9V8.9h3.2v1.8h8.4v2.2h-8.4v1.5
			h7.5v2.1H443v-2.1h6.7V12.9z M442,17.6h19v7.2h-19V17.6z M444.7,23h3v-3.6h-3V23z M446,29h11.1v-1.3H446V29z M446,31.7h11.1v-1.3
			H446V31.7z M446,34.5h11.1v-1.4H446V34.5z M453.1,23v-3.6h-3.4V23H453.1z M458.3,19.4h-3.1V23h3.1V19.4z"/>
		<path d="M480.5,33.4c-2.5,3-7,5.7-11.2,6.9c-0.5-0.9-1.5-2.1-2.2-2.8c4-0.9,8.4-2.9,10.7-5.3L480.5,33.4z M485.4,28.5h14.1v2.7
			h-14.1v10.1h-3.3V31.2H468v-2.7h14.2v-1.9h3.3V28.5z M476.3,26.7c0-0.5-0.1-1-0.2-1.6c-5.5,0.8-6.4,1-7,1.3
			c-0.1-0.5-0.5-1.8-0.8-2.5c0.7-0.1,1.3-0.8,2.2-1.9c0.4-0.5,1.3-1.7,2.4-3.2c-2.6,0.3-3.2,0.5-3.6,0.7c-0.1-0.5-0.6-1.8-0.8-2.4
			c0.4-0.1,0.9-0.7,1.4-1.5c0.5-0.7,2.1-3.6,2.9-6.4l2.6,1c-0.9,2.2-2.2,4.6-3.4,6.5l2.5-0.2c0.6-1.1,1.2-2.2,1.7-3.2l2.4,1.3
			c-1.8,3.1-4,6.3-6.3,8.9l3.6-0.4c-0.2-0.8-0.4-1.7-0.5-2.4l2.2-0.5c0.5,1.9,1.1,4.4,1.3,6L476.3,26.7z M488.5,25.7h-9.4V12.1h2.8
			c0.3-1.1,0.6-2.5,0.7-3.4l3,0.5c-0.4,1-0.8,2-1.1,2.9h4V25.7z M485.6,14.6h-3.7v3.1h3.7V14.6z M485.6,20h-3.7v3.2h3.7V20z
			 M489.4,32c3.4,1.7,7.8,4.3,10.1,6.1l-2.1,2.4c-2.1-1.8-6.5-4.6-9.9-6.5L489.4,32z M497.3,27.1c-0.1-0.5-0.2-0.9-0.3-1.5
			c-5.5,0.7-6.5,0.9-7.1,1.2c-0.1-0.5-0.5-1.8-0.8-2.6c0.7-0.1,1.3-0.9,2.2-1.8c0.5-0.5,1.4-1.7,2.5-3.3c-3,0.4-3.7,0.6-4.1,0.8
			c-0.1-0.6-0.5-1.9-0.8-2.5c0.5-0.1,0.9-0.7,1.4-1.5c0.5-0.8,2.2-3.8,3-6.6l2.7,0.8c-1,2.3-2.3,4.8-3.6,6.8l3-0.3
			c0.6-1,1.1-2,1.6-3l2.5,1.3c-1.9,3.2-4.2,6.4-6.5,8.9l3.6-0.4c-0.2-0.8-0.4-1.5-0.6-2.2l2.2-0.6c0.6,1.8,1.2,4.1,1.5,5.7
			L497.3,27.1z"/>
		<path d="M536.6,10.4v31h-3.2V40h-23.2v1.4H507v-31H536.6z M533.3,37.1V13.4h-23.2v23.7H533.3z M523,32.5c-0.1,0.6-0.1,1.5,0,2
			c-6.3,1.7-7.3,1.9-7.8,2.3c-0.1-0.6-0.5-1.5-0.8-1.9c0.5-0.2,1.3-0.6,1.3-1.9v-2c-1.1,0.4-2.3,0.8-3.4,1.1
			c-0.3-0.5-1.1-1.5-1.6-1.9c2.5-0.6,5.3-1.5,7.5-2.5h-4.5v-5.1H530v5.1h-8c-1.1,0.8-2.4,1.6-3.8,2.3v3.6L523,32.5z M531.8,21.4
			h-20.2v-1.9h8.5v-1.8h-6.7v-1.9h6.7V14h3v1.7h7v1.9h-7v1.8h8.7V21.4z M516.4,26.2h10.6v-2h-10.6V26.2z M531.9,29.6
			c-1.1,0.8-2.4,1.6-3.5,2.2c1.4,1,2.7,1.9,3.7,2.8l-2.2,1.3c-1.9-1.7-5.9-4.5-9-6.4l2-1.2c1.1,0.7,2.4,1.5,3.7,2.3
			c1.2-0.7,2.5-1.6,3.3-2.2L531.9,29.6z"/>
		<path d="M554.7,32.2h-6.8v3.3h-3V12.1h9.8V32.2z M547.9,15.2v13.9h3.8V15.2H547.9z M570.8,37.8c1.9,0,2.3-0.9,2.5-4.7
			c0.8,0.5,2.1,1.1,3,1.2c-0.5,4.9-1.5,6.5-5.3,6.5h-8c-4.2,0-5.6-1-5.6-5.5V11.1h17.5v18.8h-3.2v-2.2h-11.1v7.5
			c0,2.1,0.4,2.5,2.6,2.5H570.8z M560.6,14.2v10.6h4V14.2H560.6z M571.7,14.2h-4.1v10.6h4.1V14.2z"/>
		<path d="M583.6,36.3c0-1.7,1.2-2.9,2.7-2.9c1.6,0,2.8,1.2,2.8,2.9c0,1.7-1.2,2.8-2.8,2.8C584.7,39.1,583.6,37.9,583.6,36.3z
			 M584.4,16.1l-0.1-4.2h4.1l-0.1,4.2l-0.6,14.2h-2.7L584.4,16.1z"/>
	</g>
</g>
</svg>
