<?xml version="1.0" encoding="utf-8"?>
<!-- Generator: Adobe Illustrator 26.3.1, SVG Export Plug-In . SVG Version: 6.00 Build 0)  -->
<svg version="1.1" id="圖層_1" xmlns="http://www.w3.org/2000/svg" xmlns:xlink="http://www.w3.org/1999/xlink" x="0px" y="0px"
	 viewBox="0 0 425.2 61.8" style="enable-background:new 0 0 425.2 61.8;" xml:space="preserve">
<text transform="matrix(1 0 0 1 4.167557e-03 -114.4912)" style="font-family:'NotoSansTC-Medium-90ms-RKSJ-H'; font-size:25.931px; letter-spacing:1;">現在就進來我們的英文閱讀樂園吧!</text>
<g>
	<image style="overflow:visible;" width="445" height="38" xlink:href="738757C.png"  transform="matrix(1 0 0 1 -10 -114.3266)">
	</image>
	<g>
		<image style="overflow:visible;" width="438" height="35" xlink:href="7387572.png"  transform="matrix(1 0 0 1 -6 -111.3266)">
		</image>
		<g>
			
				<text transform="matrix(1 0 0 1 4.439175e-03 -94.5264)" style="font-family:'NotoSansTC-Medium-90ms-RKSJ-H'; font-size:11.639px;">Enjoy your English reading experience with SmartReading-English!</text>
		</g>
	</g>
</g>
<image style="overflow:visible;" width="437" height="25" xlink:href="7387573.png"  transform="matrix(0.9686 0 0 0.9686 6.2958 84.3831)">
</image>
<image style="overflow:visible;" width="430" height="19" xlink:href="7387570.png"  transform="matrix(0.9686 0 0 0.9686 10.1701 87.2888)">
</image>
<g>
	<path d="M13.4,91.4h4.9v1.1h-3.6v2.3h3.1v1.1h-3.1v2.7h3.7v1.1h-5V91.4z"/>
	<path d="M20.9,93.5H22l0.1,0.9h0c0.6-0.6,1.2-1,2.1-1c1.3,0,1.9,0.9,1.9,2.5v3.9h-1.3v-3.8c0-1.1-0.3-1.5-1.1-1.5
		c-0.6,0-1,0.3-1.5,0.8v4.4h-1.3V93.5z"/>
	<path d="M27.3,102.2l0.2-1c0.2,0,0.4,0.1,0.6,0.1c0.6,0,0.7-0.4,0.7-1.2v-6.7h1.3v6.7c0,1.3-0.5,2.2-1.9,2.2
		C27.8,102.4,27.5,102.3,27.3,102.2z M28.7,91.5c0-0.5,0.3-0.8,0.8-0.8c0.5,0,0.8,0.3,0.8,0.8c0,0.5-0.3,0.8-0.8,0.8
		C29,92.3,28.7,92,28.7,91.5z"/>
	<path d="M32.5,96.6c0-2.1,1.4-3.3,2.9-3.3c1.5,0,2.9,1.2,2.9,3.3c0,2.1-1.4,3.3-2.9,3.3C33.9,99.8,32.5,98.6,32.5,96.6z M37,96.6
		c0-1.3-0.6-2.2-1.6-2.2c-1,0-1.6,0.9-1.6,2.2c0,1.3,0.6,2.2,1.6,2.2C36.4,98.8,37,97.9,37,96.6z"/>
	<path d="M40.2,102.2l0.2-1c0.1,0,0.3,0.1,0.5,0.1c0.7,0,1.1-0.5,1.3-1.2l0.1-0.4l-2.5-6.2h1.3l1.2,3.2c0.2,0.6,0.4,1.2,0.6,1.8h0.1
		c0.2-0.6,0.3-1.2,0.5-1.8l1-3.2h1.3l-2.3,6.6c-0.5,1.3-1.1,2.2-2.5,2.2C40.6,102.3,40.4,102.2,40.2,102.2z"/>
	<path d="M50.6,102.2l0.2-1c0.1,0,0.3,0.1,0.5,0.1c0.7,0,1.1-0.5,1.3-1.2l0.1-0.4l-2.5-6.2h1.3l1.2,3.2c0.2,0.6,0.4,1.2,0.6,1.8h0.1
		c0.2-0.6,0.3-1.2,0.5-1.8l1-3.2h1.3l-2.3,6.6c-0.5,1.3-1.1,2.2-2.5,2.2C51,102.3,50.8,102.2,50.6,102.2z"/>
	<path d="M57.5,96.6c0-2.1,1.4-3.3,2.9-3.3s2.9,1.2,2.9,3.3c0,2.1-1.4,3.3-2.9,3.3S57.5,98.6,57.5,96.6z M62.1,96.6
		c0-1.3-0.6-2.2-1.6-2.2c-1,0-1.6,0.9-1.6,2.2c0,1.3,0.6,2.2,1.6,2.2C61.5,98.8,62.1,97.9,62.1,96.6z"/>
	<path d="M65.7,97.4v-3.9H67v3.8c0,1.1,0.3,1.5,1,1.5c0.6,0,1-0.3,1.5-0.9v-4.3h1.3v6.2h-1.1l-0.1-0.9h0c-0.6,0.7-1.2,1.1-2,1.1
		C66.3,99.8,65.7,99,65.7,97.4z"/>
	<path d="M73.6,93.5h1.1l0.1,1.1h0c0.4-0.8,1.1-1.3,1.8-1.3c0.3,0,0.5,0,0.7,0.1l-0.2,1.1c-0.2-0.1-0.4-0.1-0.6-0.1
		c-0.5,0-1.1,0.4-1.5,1.3v3.9h-1.3V93.5z"/>
	<path d="M82.6,91.4h4.9v1.1h-3.6v2.3H87v1.1h-3.1v2.7h3.7v1.1h-5V91.4z"/>
	<path d="M90.1,93.5h1.1l0.1,0.9h0c0.6-0.6,1.2-1,2.1-1c1.3,0,1.9,0.9,1.9,2.5v3.9H94v-3.8c0-1.1-0.3-1.5-1.1-1.5
		c-0.6,0-1,0.3-1.5,0.8v4.4h-1.3V93.5z"/>
	<path d="M97.6,100.8c0-0.5,0.3-1,0.9-1.4v-0.1c-0.3-0.2-0.6-0.5-0.6-1c0-0.5,0.4-0.9,0.7-1.2v0c-0.4-0.3-0.8-0.9-0.8-1.7
		c0-1.4,1.1-2.2,2.4-2.2c0.4,0,0.7,0.1,0.9,0.2h2.2v1h-1.2c0.2,0.2,0.4,0.7,0.4,1.1c0,1.4-1,2.1-2.3,2.1c-0.3,0-0.6-0.1-0.9-0.2
		c-0.2,0.2-0.3,0.4-0.3,0.7c0,0.4,0.2,0.6,1,0.6h1.1c1.5,0,2.2,0.5,2.2,1.5c0,1.2-1.3,2.2-3.3,2.2C98.7,102.5,97.6,101.9,97.6,100.8
		z M102.2,100.5c0-0.5-0.4-0.7-1.2-0.7h-0.9c-0.3,0-0.6,0-0.8-0.1c-0.4,0.3-0.5,0.6-0.5,0.9c0,0.6,0.6,1,1.7,1
		C101.5,101.6,102.2,101.1,102.2,100.5z M101.4,95.5c0-0.8-0.5-1.3-1.2-1.3S99,94.7,99,95.5c0,0.8,0.5,1.3,1.2,1.3
		C100.9,96.9,101.4,96.4,101.4,95.5z"/>
	<path d="M105.4,98.2v-7.6h1.3v7.6c0,0.4,0.1,0.5,0.3,0.5c0.1,0,0.1,0,0.2,0l0.2,1c-0.2,0.1-0.4,0.1-0.7,0.1
		C105.8,99.8,105.4,99.2,105.4,98.2z"/>
	<path d="M109.5,91.5c0-0.5,0.3-0.8,0.8-0.8c0.5,0,0.8,0.3,0.8,0.8c0,0.5-0.3,0.8-0.8,0.8C109.8,92.3,109.5,92,109.5,91.5z
		 M109.7,93.5h1.3v6.2h-1.3V93.5z"/>
	<path d="M113.1,99l0.6-0.8c0.6,0.4,1.1,0.7,1.8,0.7c0.7,0,1.1-0.4,1.1-0.8c0-0.6-0.7-0.8-1.4-1.1c-0.8-0.3-1.8-0.8-1.8-1.8
		c0-1,0.8-1.8,2.2-1.8c0.8,0,1.5,0.3,2,0.7l-0.6,0.8c-0.4-0.3-0.9-0.5-1.4-0.5c-0.7,0-1,0.3-1,0.8c0,0.5,0.6,0.7,1.3,1
		c0.9,0.3,1.8,0.7,1.8,1.9c0,1-0.8,1.9-2.4,1.9C114.6,99.8,113.7,99.5,113.1,99z"/>
	<path d="M120,90.7h1.3v2.4l-0.1,1.2c0.5-0.5,1.2-1,2-1c1.3,0,1.9,0.9,1.9,2.5v3.9h-1.3v-3.8c0-1.1-0.3-1.5-1.1-1.5
		c-0.6,0-1,0.3-1.5,0.8v4.4H120V90.7z"/>
	<path d="M131.3,93.5h1.1l0.1,1.1h0c0.4-0.8,1.1-1.3,1.8-1.3c0.3,0,0.5,0,0.7,0.1l-0.2,1.1c-0.2-0.1-0.4-0.1-0.6-0.1
		c-0.5,0-1.1,0.4-1.5,1.3v3.9h-1.3V93.5z"/>
	<path d="M136.2,96.6c0-2,1.4-3.3,2.8-3.3c1.7,0,2.5,1.2,2.5,2.9c0,0.3,0,0.5-0.1,0.7h-4c0.1,1.2,0.8,1.9,1.9,1.9
		c0.6,0,1-0.2,1.5-0.5l0.5,0.8c-0.6,0.4-1.3,0.7-2.1,0.7C137.5,99.8,136.2,98.6,136.2,96.6z M140.5,96c0-1.1-0.5-1.7-1.4-1.7
		c-0.8,0-1.5,0.6-1.6,1.7H140.5z"/>
	<path d="M143.3,98c0-1.3,1.1-2,3.7-2.3c0-0.7-0.3-1.4-1.2-1.4c-0.7,0-1.3,0.3-1.8,0.6l-0.5-0.9c0.6-0.4,1.5-0.8,2.5-0.8
		c1.6,0,2.3,1,2.3,2.6v3.7h-1.1l-0.1-0.7h0c-0.6,0.5-1.2,0.9-2,0.9C144.1,99.8,143.3,99.1,143.3,98z M147.1,98.1v-1.5
		c-1.8,0.2-2.5,0.7-2.5,1.4c0,0.6,0.4,0.9,1,0.9C146.1,98.8,146.6,98.5,147.1,98.1z"/>
	<path d="M150.6,96.6c0-2,1.3-3.3,2.7-3.3c0.7,0,1.2,0.3,1.7,0.7l-0.1-1v-2.3h1.3v9h-1.1l-0.1-0.7h0c-0.5,0.5-1.1,0.8-1.8,0.8
		C151.7,99.8,150.6,98.6,150.6,96.6z M154.9,98v-3c-0.5-0.4-0.9-0.6-1.4-0.6c-0.9,0-1.6,0.8-1.6,2.2c0,1.4,0.6,2.2,1.5,2.2
		C154,98.8,154.5,98.5,154.9,98z"/>
	<path d="M158.9,91.5c0-0.5,0.3-0.8,0.8-0.8c0.5,0,0.8,0.3,0.8,0.8c0,0.5-0.3,0.8-0.8,0.8C159.2,92.3,158.9,92,158.9,91.5z
		 M159,93.5h1.3v6.2H159V93.5z"/>
	<path d="M163.1,93.5h1.1l0.1,0.9h0c0.6-0.6,1.2-1,2.1-1c1.3,0,1.9,0.9,1.9,2.5v3.9H167v-3.8c0-1.1-0.3-1.5-1.1-1.5
		c-0.6,0-1,0.3-1.5,0.8v4.4h-1.3V93.5z"/>
	<path d="M170.6,100.8c0-0.5,0.3-1,0.9-1.4v-0.1c-0.3-0.2-0.6-0.5-0.6-1c0-0.5,0.4-0.9,0.7-1.2v0c-0.4-0.3-0.8-0.9-0.8-1.7
		c0-1.4,1.1-2.2,2.4-2.2c0.4,0,0.7,0.1,0.9,0.2h2.2v1h-1.2c0.2,0.2,0.4,0.7,0.4,1.1c0,1.4-1,2.1-2.3,2.1c-0.3,0-0.6-0.1-0.9-0.2
		c-0.2,0.2-0.3,0.4-0.3,0.7c0,0.4,0.2,0.6,1,0.6h1.1c1.5,0,2.2,0.5,2.2,1.5c0,1.2-1.3,2.2-3.3,2.2
		C171.7,102.5,170.6,101.9,170.6,100.8z M175.2,100.5c0-0.5-0.4-0.7-1.2-0.7h-0.9c-0.3,0-0.6,0-0.8-0.1c-0.4,0.3-0.5,0.6-0.5,0.9
		c0,0.6,0.6,1,1.7,1C174.4,101.6,175.2,101.1,175.2,100.5z M174.4,95.5c0-0.8-0.5-1.3-1.2-1.3c-0.7,0-1.2,0.5-1.2,1.3
		c0,0.8,0.5,1.3,1.2,1.3C173.9,96.9,174.4,96.4,174.4,95.5z"/>
	<path d="M181.4,96.6c0-2,1.4-3.3,2.8-3.3c1.7,0,2.5,1.2,2.5,2.9c0,0.3,0,0.5-0.1,0.7h-4c0.1,1.2,0.8,1.9,1.9,1.9
		c0.6,0,1-0.2,1.5-0.5l0.5,0.8c-0.6,0.4-1.3,0.7-2.1,0.7C182.7,99.8,181.4,98.6,181.4,96.6z M185.6,96c0-1.1-0.5-1.7-1.4-1.7
		c-0.8,0-1.5,0.6-1.6,1.7H185.6z"/>
	<path d="M190.1,96.4l-1.9-3h1.4l0.7,1.2c0.2,0.4,0.4,0.7,0.6,1.1h0c0.2-0.4,0.4-0.7,0.5-1.1l0.7-1.2h1.4l-1.9,3.1l2,3.1h-1.4
		l-0.8-1.3c-0.2-0.4-0.4-0.7-0.6-1.1h-0.1c-0.2,0.4-0.4,0.7-0.6,1.1l-0.7,1.3h-1.4L190.1,96.4z"/>
	<path d="M195.7,93.5h1.1l0.1,0.7h0c0.5-0.5,1.2-0.8,1.9-0.8c1.6,0,2.5,1.3,2.5,3.2c0,2.1-1.3,3.4-2.7,3.4c-0.6,0-1.1-0.2-1.6-0.7
		l0,1.1v2h-1.3V93.5z M200,96.5c0-1.3-0.4-2.1-1.5-2.1c-0.5,0-1,0.2-1.5,0.8v3c0.5,0.4,1,0.6,1.3,0.6C199.3,98.8,200,98,200,96.5z"
		/>
	<path d="M203.3,96.6c0-2,1.4-3.3,2.8-3.3c1.7,0,2.5,1.2,2.5,2.9c0,0.3,0,0.5-0.1,0.7h-4c0.1,1.2,0.8,1.9,1.9,1.9
		c0.6,0,1-0.2,1.5-0.5l0.5,0.8c-0.6,0.4-1.3,0.7-2.1,0.7C204.6,99.8,203.3,98.6,203.3,96.6z M207.5,96c0-1.1-0.5-1.7-1.4-1.7
		c-0.8,0-1.5,0.6-1.6,1.7H207.5z"/>
	<path d="M210.9,93.5h1.1l0.1,1.1h0c0.4-0.8,1.1-1.3,1.8-1.3c0.3,0,0.5,0,0.7,0.1l-0.2,1.1c-0.2-0.1-0.4-0.1-0.6-0.1
		c-0.5,0-1.1,0.4-1.5,1.3v3.9h-1.3V93.5z"/>
	<path d="M216.3,91.5c0-0.5,0.3-0.8,0.8-0.8c0.5,0,0.8,0.3,0.8,0.8c0,0.5-0.3,0.8-0.8,0.8C216.6,92.3,216.3,92,216.3,91.5z
		 M216.4,93.5h1.3v6.2h-1.3V93.5z"/>
	<path d="M220.1,96.6c0-2,1.4-3.3,2.8-3.3c1.7,0,2.5,1.2,2.5,2.9c0,0.3,0,0.5-0.1,0.7h-4c0.1,1.2,0.8,1.9,1.9,1.9
		c0.6,0,1-0.2,1.5-0.5l0.5,0.8c-0.6,0.4-1.3,0.7-2.1,0.7C221.4,99.8,220.1,98.6,220.1,96.6z M224.3,96c0-1.1-0.5-1.7-1.4-1.7
		c-0.8,0-1.5,0.6-1.6,1.7H224.3z"/>
	<path d="M227.7,93.5h1.1l0.1,0.9h0c0.6-0.6,1.2-1,2.1-1c1.3,0,1.9,0.9,1.9,2.5v3.9h-1.3v-3.8c0-1.1-0.3-1.5-1.1-1.5
		c-0.6,0-1,0.3-1.5,0.8v4.4h-1.3V93.5z"/>
	<path d="M235.2,96.6c0-2.1,1.4-3.3,3.1-3.3c0.8,0,1.4,0.3,1.8,0.7l-0.6,0.8c-0.3-0.3-0.7-0.5-1.1-0.5c-1.1,0-1.8,0.9-1.8,2.2
		c0,1.3,0.7,2.2,1.8,2.2c0.5,0,1-0.2,1.4-0.6l0.5,0.9c-0.6,0.5-1.3,0.8-2,0.8C236.5,99.8,235.2,98.6,235.2,96.6z"/>
	<path d="M241.6,96.6c0-2,1.4-3.3,2.8-3.3c1.7,0,2.5,1.2,2.5,2.9c0,0.3,0,0.5-0.1,0.7h-4c0.1,1.2,0.8,1.9,1.9,1.9
		c0.6,0,1-0.2,1.5-0.5l0.5,0.8c-0.6,0.4-1.3,0.7-2.1,0.7C243,99.8,241.6,98.6,241.6,96.6z M245.9,96c0-1.1-0.5-1.7-1.4-1.7
		c-0.8,0-1.5,0.6-1.6,1.7H245.9z"/>
	<path d="M252,93.5h1.3l0.8,3.4c0.1,0.6,0.2,1.2,0.3,1.8h0c0.1-0.6,0.3-1.2,0.4-1.8l0.9-3.4h1.2l0.9,3.4c0.1,0.6,0.3,1.2,0.4,1.8h0
		c0.1-0.6,0.2-1.2,0.4-1.8l0.8-3.4h1.2l-1.6,6.2h-1.6l-0.8-3.1c-0.1-0.6-0.3-1.2-0.4-1.8h-0.1c-0.1,0.6-0.2,1.2-0.4,1.8l-0.8,3.1
		h-1.5L252,93.5z"/>
	<path d="M262.7,91.5c0-0.5,0.3-0.8,0.8-0.8c0.5,0,0.8,0.3,0.8,0.8c0,0.5-0.3,0.8-0.8,0.8C263.1,92.3,262.7,92,262.7,91.5z
		 M262.9,93.5h1.3v6.2h-1.3V93.5z"/>
	<path d="M267.2,97.7v-3.1h-0.9v-1l1-0.1l0.1-1.7h1.1v1.7h1.6v1h-1.6v3.2c0,0.7,0.3,1.1,0.9,1.1c0.2,0,0.5-0.1,0.7-0.1l0.2,1
		c-0.4,0.1-0.8,0.2-1.2,0.2C267.7,99.8,267.2,99,267.2,97.7z"/>
	<path d="M272.3,90.7h1.3v2.4l-0.1,1.2c0.5-0.5,1.2-1,2-1c1.3,0,1.9,0.9,1.9,2.5v3.9h-1.3v-3.8c0-1.1-0.3-1.5-1.1-1.5
		c-0.6,0-1,0.3-1.5,0.8v4.4h-1.3V90.7z"/>
	<path d="M283.1,98.6l0.8-0.9c0.6,0.6,1.4,1,2.2,1c1,0,1.6-0.5,1.6-1.2c0-0.8-0.6-1-1.3-1.3l-1.2-0.5c-0.8-0.3-1.7-1-1.7-2.2
		c0-1.3,1.2-2.3,2.7-2.3c1,0,1.9,0.4,2.5,1.1l-0.7,0.8c-0.5-0.5-1.1-0.7-1.8-0.7c-0.8,0-1.4,0.4-1.4,1.1c0,0.7,0.7,1,1.3,1.3
		l1.1,0.5c1,0.4,1.7,1,1.7,2.3c0,1.3-1.1,2.4-2.9,2.4C284.9,99.8,283.9,99.4,283.1,98.6z"/>
	<path d="M291.3,93.5h1.1l0.1,0.9h0c0.5-0.6,1.2-1,1.9-1c0.9,0,1.4,0.4,1.7,1.1c0.6-0.7,1.2-1.1,2-1.1c1.3,0,1.9,0.9,1.9,2.5v3.9
		h-1.3v-3.8c0-1.1-0.3-1.5-1-1.5c-0.4,0-0.9,0.3-1.4,0.8v4.4H295v-3.8c0-1.1-0.3-1.5-1-1.5c-0.4,0-0.9,0.3-1.4,0.8v4.4h-1.3V93.5z"
		/>
	<path d="M302.5,98c0-1.3,1.1-2,3.7-2.3c0-0.7-0.3-1.4-1.2-1.4c-0.7,0-1.3,0.3-1.8,0.6l-0.5-0.9c0.6-0.4,1.5-0.8,2.5-0.8
		c1.5,0,2.3,1,2.3,2.6v3.7h-1.1l-0.1-0.7h0c-0.6,0.5-1.2,0.9-2,0.9C303.2,99.8,302.5,99.1,302.5,98z M306.2,98.1v-1.5
		c-1.8,0.2-2.5,0.7-2.5,1.4c0,0.6,0.4,0.9,1,0.9C305.2,98.8,305.7,98.5,306.2,98.1z"/>
	<path d="M310.2,93.5h1.1l0.1,1.1h0c0.4-0.8,1.1-1.3,1.8-1.3c0.3,0,0.5,0,0.7,0.1l-0.2,1.1c-0.2-0.1-0.4-0.1-0.6-0.1
		c-0.5,0-1.1,0.4-1.5,1.3v3.9h-1.3V93.5z"/>
	<path d="M315.8,97.7v-3.1h-0.9v-1l1-0.1l0.1-1.7h1.1v1.7h1.6v1h-1.6v3.2c0,0.7,0.3,1.1,0.9,1.1c0.2,0,0.5-0.1,0.7-0.1l0.2,1
		c-0.4,0.1-0.8,0.2-1.2,0.2C316.3,99.8,315.8,99,315.8,97.7z"/>
	<path d="M321.1,91.4h2.7c1.7,0,3,0.6,3,2.4c0,1.3-0.7,2.1-1.7,2.4l2,3.5h-1.5l-1.9-3.4h-1.3v3.4h-1.3V91.4z M323.7,95.3
		c1.2,0,1.9-0.5,1.9-1.5s-0.7-1.4-1.9-1.4h-1.3v2.9H323.7z"/>
	<path d="M328.7,96.6c0-2,1.4-3.3,2.8-3.3c1.7,0,2.5,1.2,2.5,2.9c0,0.3,0,0.5-0.1,0.7h-4c0.1,1.2,0.8,1.9,1.9,1.9
		c0.6,0,1-0.2,1.5-0.5l0.5,0.8c-0.6,0.4-1.3,0.7-2.1,0.7C330,99.8,328.7,98.6,328.7,96.6z M332.9,96c0-1.1-0.5-1.7-1.4-1.7
		c-0.8,0-1.5,0.6-1.6,1.7H332.9z"/>
	<path d="M335.8,98c0-1.3,1.1-2,3.7-2.3c0-0.7-0.3-1.4-1.2-1.4c-0.7,0-1.3,0.3-1.8,0.6l-0.5-0.9c0.6-0.4,1.5-0.8,2.5-0.8
		c1.5,0,2.3,1,2.3,2.6v3.7h-1.1l-0.1-0.7h0c-0.6,0.5-1.2,0.9-2,0.9C336.6,99.8,335.8,99.1,335.8,98z M339.5,98.1v-1.5
		c-1.8,0.2-2.5,0.7-2.5,1.4c0,0.6,0.4,0.9,1,0.9C338.6,98.8,339,98.5,339.5,98.1z"/>
	<path d="M343.1,96.6c0-2,1.3-3.3,2.7-3.3c0.7,0,1.2,0.3,1.7,0.7l-0.1-1v-2.3h1.3v9h-1.1l-0.1-0.7h0c-0.5,0.5-1.1,0.8-1.8,0.8
		C344.1,99.8,343.1,98.6,343.1,96.6z M347.4,98v-3c-0.5-0.4-0.9-0.6-1.4-0.6c-0.9,0-1.6,0.8-1.6,2.2c0,1.4,0.6,2.2,1.5,2.2
		C346.5,98.8,347,98.5,347.4,98z"/>
	<path d="M351.3,91.5c0-0.5,0.3-0.8,0.8-0.8c0.5,0,0.8,0.3,0.8,0.8c0,0.5-0.3,0.8-0.8,0.8C351.7,92.3,351.3,92,351.3,91.5z
		 M351.5,93.5h1.3v6.2h-1.3V93.5z"/>
	<path d="M355.6,93.5h1.1l0.1,0.9h0c0.6-0.6,1.2-1,2.1-1c1.3,0,1.9,0.9,1.9,2.5v3.9h-1.3v-3.8c0-1.1-0.3-1.5-1.1-1.5
		c-0.6,0-1,0.3-1.5,0.8v4.4h-1.3V93.5z"/>
	<path d="M363.1,100.8c0-0.5,0.3-1,0.9-1.4v-0.1c-0.3-0.2-0.6-0.5-0.6-1c0-0.5,0.4-0.9,0.7-1.2v0c-0.4-0.3-0.8-0.9-0.8-1.7
		c0-1.4,1.1-2.2,2.4-2.2c0.4,0,0.7,0.1,0.9,0.2h2.2v1h-1.2c0.2,0.2,0.4,0.7,0.4,1.1c0,1.4-1,2.1-2.3,2.1c-0.3,0-0.6-0.1-0.9-0.2
		c-0.2,0.2-0.3,0.4-0.3,0.7c0,0.4,0.2,0.6,1,0.6h1.1c1.5,0,2.2,0.5,2.2,1.5c0,1.2-1.3,2.2-3.3,2.2
		C364.1,102.5,363.1,101.9,363.1,100.8z M367.6,100.5c0-0.5-0.4-0.7-1.2-0.7h-0.9c-0.3,0-0.6,0-0.8-0.1c-0.4,0.3-0.5,0.6-0.5,0.9
		c0,0.6,0.6,1,1.7,1C366.9,101.6,367.6,101.1,367.6,100.5z M366.9,95.5c0-0.8-0.5-1.3-1.2-1.3c-0.7,0-1.2,0.5-1.2,1.3
		c0,0.8,0.5,1.3,1.2,1.3C366.3,96.9,366.9,96.4,366.9,95.5z"/>
	<path d="M370.4,96h3v1h-3V96z"/>
	<path d="M375.9,91.4h4.9v1.1h-3.6v2.3h3.1v1.1h-3.1v2.7h3.7v1.1h-5V91.4z"/>
	<path d="M383.4,93.5h1.1l0.1,0.9h0c0.6-0.6,1.2-1,2.1-1c1.3,0,1.9,0.9,1.9,2.5v3.9h-1.3v-3.8c0-1.1-0.3-1.5-1.1-1.5
		c-0.6,0-1,0.3-1.5,0.8v4.4h-1.3V93.5z"/>
	<path d="M390.9,100.8c0-0.5,0.3-1,0.9-1.4v-0.1c-0.3-0.2-0.6-0.5-0.6-1c0-0.5,0.4-0.9,0.7-1.2v0c-0.4-0.3-0.8-0.9-0.8-1.7
		c0-1.4,1.1-2.2,2.4-2.2c0.4,0,0.7,0.1,0.9,0.2h2.2v1h-1.2c0.2,0.2,0.4,0.7,0.4,1.1c0,1.4-1,2.1-2.3,2.1c-0.3,0-0.6-0.1-0.9-0.2
		c-0.2,0.2-0.3,0.4-0.3,0.7c0,0.4,0.2,0.6,1,0.6h1.1c1.5,0,2.2,0.5,2.2,1.5c0,1.2-1.3,2.2-3.3,2.2
		C392,102.5,390.9,101.9,390.9,100.8z M395.5,100.5c0-0.5-0.4-0.7-1.2-0.7h-0.9c-0.3,0-0.6,0-0.8-0.1c-0.4,0.3-0.5,0.6-0.5,0.9
		c0,0.6,0.6,1,1.7,1C394.7,101.6,395.5,101.1,395.5,100.5z M394.7,95.5c0-0.8-0.5-1.3-1.2-1.3c-0.7,0-1.2,0.5-1.2,1.3
		c0,0.8,0.5,1.3,1.2,1.3C394.1,96.9,394.7,96.4,394.7,95.5z"/>
	<path d="M398.7,98.2v-7.6h1.3v7.6c0,0.4,0.1,0.5,0.3,0.5c0.1,0,0.1,0,0.2,0l0.2,1c-0.2,0.1-0.4,0.1-0.7,0.1
		C399.1,99.8,398.7,99.2,398.7,98.2z"/>
	<path d="M402.8,91.5c0-0.5,0.3-0.8,0.8-0.8c0.5,0,0.8,0.3,0.8,0.8c0,0.5-0.3,0.8-0.8,0.8C403.1,92.3,402.8,92,402.8,91.5z
		 M402.9,93.5h1.3v6.2h-1.3V93.5z"/>
	<path d="M406.4,99l0.6-0.8c0.6,0.4,1.1,0.7,1.8,0.7c0.7,0,1.1-0.4,1.1-0.8c0-0.6-0.7-0.8-1.4-1.1c-0.8-0.3-1.8-0.8-1.8-1.8
		c0-1,0.8-1.8,2.2-1.8c0.8,0,1.5,0.3,2,0.7l-0.6,0.8c-0.4-0.3-0.9-0.5-1.4-0.5c-0.7,0-1,0.3-1,0.8c0,0.5,0.6,0.7,1.3,1
		c0.9,0.3,1.8,0.7,1.8,1.9c0,1-0.8,1.9-2.4,1.9C407.8,99.8,407,99.5,406.4,99z"/>
	<path d="M413.3,90.7h1.3v2.4l-0.1,1.2c0.5-0.5,1.2-1,2-1c1.3,0,1.9,0.9,1.9,2.5v3.9h-1.3v-3.8c0-1.1-0.3-1.5-1.1-1.5
		c-0.6,0-1,0.3-1.5,0.8v4.4h-1.3V90.7z"/>
	<path d="M421.3,98.9c0-0.5,0.4-0.9,0.9-0.9c0.5,0,0.9,0.4,0.9,0.9c0,0.5-0.4,0.9-0.9,0.9C421.6,99.8,421.3,99.5,421.3,98.9z
		 M421.5,92.5l0-1.3h1.3l0,1.3l-0.2,4.5h-0.9L421.5,92.5z"/>
</g>
<g>
	<g>
		<g>
			
				<image style="overflow:visible;" width="20" height="22" xlink:href="7387571.png"  transform="matrix(1 0 0 1 5.116065e-05 37.7768)">
			</image>
			<g>
				
					<image style="overflow:visible;" width="12" height="16" xlink:href="738756E.png"  transform="matrix(1 0 0 1 4.0001 40.7768)">
				</image>
				<g>
					<path d="M7.8,44.6h4.9v1.1H9.1v2.3h3.1v1.1H9.1v2.7h3.7V53h-5V44.6z"/>
				</g>
			</g>
		</g>
		<g>
			<image style="overflow:visible;" width="18" height="20" xlink:href="738756F.png"  transform="matrix(1 0 0 1 9 39.7768)">
			</image>
			<g>
				<image style="overflow:visible;" width="12" height="14" xlink:href="7387589.png"  transform="matrix(1 0 0 1 12 42.7768)">
				</image>
				<g>
					<path d="M15.3,46.8h1.1l0.1,0.9h0c0.6-0.6,1.2-1,2.1-1c1.3,0,1.9,0.9,1.9,2.5V53h-1.3v-3.8c0-1.1-0.3-1.5-1.1-1.5
						c-0.6,0-1,0.3-1.5,0.8V53h-1.3V46.8z"/>
				</g>
			</g>
		</g>
		<g>
			<image style="overflow:visible;" width="17" height="24" xlink:href="738758A.png"  transform="matrix(1 0 0 1 15 37.7768)">
			</image>
			<g>
				<image style="overflow:visible;" width="10" height="18" xlink:href="B28FABC.png"  transform="matrix(1 0 0 1 18 40.7768)">
				</image>
				<g>
					<path d="M21.7,55.5l0.2-1c0.2,0,0.4,0.1,0.6,0.1c0.6,0,0.7-0.4,0.7-1.2v-6.7h1.3v6.7c0,1.3-0.5,2.2-1.9,2.2
						C22.2,55.7,21.9,55.6,21.7,55.5z M23.1,44.8c0-0.5,0.3-0.8,0.8-0.8c0.5,0,0.8,0.3,0.8,0.8c0,0.5-0.3,0.8-0.8,0.8
						C23.4,45.6,23.1,45.3,23.1,44.8z"/>
				</g>
			</g>
		</g>
		<g>
			<image style="overflow:visible;" width="19" height="20" xlink:href="B28FABE.png"  transform="matrix(1 0 0 1 20 39.7768)">
			</image>
			<g>
				<image style="overflow:visible;" width="13" height="14" xlink:href="B28FABB.png"  transform="matrix(1 0 0 1 23 42.7768)">
				</image>
				<g>
					<path d="M26.9,49.9c0-2.1,1.4-3.3,2.9-3.3s2.9,1.2,2.9,3.3s-1.4,3.3-2.9,3.3S26.9,51.9,26.9,49.9z M31.4,49.9
						c0-1.3-0.6-2.2-1.6-2.2c-1,0-1.6,0.9-1.6,2.2c0,1.3,0.6,2.2,1.6,2.2C30.8,52.1,31.4,51.2,31.4,49.9z"/>
				</g>
			</g>
		</g>
		<g>
			<image style="overflow:visible;" width="20" height="22" xlink:href="B28FAA4.png"  transform="matrix(1 0 0 1 27 39.7768)">
			</image>
			<g>
				<image style="overflow:visible;" width="13" height="16" xlink:href="B28FAA9.png"  transform="matrix(1 0 0 1 31 42.7768)">
				</image>
				<g>
					<path d="M34.6,55.5l0.2-1c0.1,0,0.3,0.1,0.5,0.1c0.7,0,1.1-0.5,1.3-1.2l0.1-0.4l-2.5-6.2h1.3l1.2,3.2c0.2,0.6,0.4,1.2,0.6,1.8
						h0.1c0.2-0.6,0.3-1.2,0.5-1.8l1-3.2h1.3l-2.3,6.6c-0.5,1.3-1.1,2.2-2.5,2.2C35,55.6,34.8,55.5,34.6,55.5z"/>
				</g>
			</g>
		</g>
		<g>
			<image style="overflow:visible;" width="21" height="22" xlink:href="B28FAAA.png"  transform="matrix(1 0 0 1 37 39.7768)">
			</image>
			<g>
				<image style="overflow:visible;" width="13" height="16" xlink:href="B28FAAB.png"  transform="matrix(1 0 0 1 41 42.7768)">
				</image>
				<g>
					<path d="M45,55.5l0.2-1c0.1,0,0.3,0.1,0.5,0.1c0.7,0,1.1-0.5,1.3-1.2l0.1-0.4l-2.5-6.2H46l1.2,3.2c0.2,0.6,0.4,1.2,0.6,1.8h0.1
						c0.2-0.6,0.3-1.2,0.5-1.8l1-3.2h1.3l-2.3,6.6c-0.5,1.3-1.1,2.2-2.5,2.2C45.4,55.6,45.2,55.5,45,55.5z"/>
				</g>
			</g>
		</g>
		<g>
			<image style="overflow:visible;" width="19" height="20" xlink:href="B28FAAC.png"  transform="matrix(1 0 0 1 45 39.7768)">
			</image>
			<g>
				<image style="overflow:visible;" width="13" height="14" xlink:href="B28FAAD.png"  transform="matrix(1 0 0 1 48 42.7768)">
				</image>
				<g>
					<path d="M52,49.9c0-2.1,1.4-3.3,2.9-3.3s2.9,1.2,2.9,3.3s-1.4,3.3-2.9,3.3S52,51.9,52,49.9z M56.5,49.9c0-1.3-0.6-2.2-1.6-2.2
						c-1,0-1.6,0.9-1.6,2.2c0,1.3,0.6,2.2,1.6,2.2C55.9,52.1,56.5,51.2,56.5,49.9z"/>
				</g>
			</g>
		</g>
		<g>
			<image style="overflow:visible;" width="18" height="20" xlink:href="B28FAAF.png"  transform="matrix(1 0 0 1 54 39.7768)">
			</image>
			<g>
				<image style="overflow:visible;" width="12" height="14" xlink:href="B28FACA.png"  transform="matrix(1 0 0 1 57 42.7768)">
				</image>
				<g>
					<path d="M60.1,50.7v-3.9h1.3v3.8c0,1.1,0.3,1.5,1,1.5c0.6,0,1-0.3,1.5-0.9v-4.3h1.3V53h-1.1L64.1,52h0c-0.6,0.7-1.2,1.1-2,1.1
						C60.7,53.1,60.1,52.3,60.1,50.7z"/>
				</g>
			</g>
		</g>
		<g>
			<image style="overflow:visible;" width="16" height="20" xlink:href="B28FACB.png"  transform="matrix(1 0 0 1 62 39.7768)">
			</image>
			<g>
				<image style="overflow:visible;" width="10" height="14" xlink:href="B28FACF.png"  transform="matrix(1 0 0 1 65 42.7768)">
				</image>
				<g>
					<path d="M68,46.8h1.1l0.1,1.1h0c0.4-0.8,1.1-1.3,1.8-1.3c0.3,0,0.5,0,0.7,0.1l-0.2,1.1c-0.2-0.1-0.4-0.1-0.6-0.1
						c-0.5,0-1.1,0.4-1.5,1.3V53H68V46.8z"/>
				</g>
			</g>
		</g>
		<g>
			<image style="overflow:visible;" width="19" height="22" xlink:href="B28FAC9.png"  transform="matrix(1 0 0 1 70 37.7768)">
			</image>
			<g>
				<image style="overflow:visible;" width="12" height="16" xlink:href="B28FAC8.png"  transform="matrix(1 0 0 1 74 40.7768)">
				</image>
				<g>
					<path d="M77,44.6h4.9v1.1h-3.6v2.3h3.1v1.1h-3.1v2.7h3.7V53h-5V44.6z"/>
				</g>
			</g>
		</g>
		<g>
			<image style="overflow:visible;" width="18" height="20" xlink:href="B28FAF7.png"  transform="matrix(1 0 0 1 78 39.7768)">
			</image>
			<g>
				<image style="overflow:visible;" width="12" height="14" xlink:href="B28FAF8.png"  transform="matrix(1 0 0 1 81 42.7768)">
				</image>
				<g>
					<path d="M84.5,46.8h1.1l0.1,0.9h0c0.6-0.6,1.2-1,2.1-1c1.3,0,1.9,0.9,1.9,2.5V53h-1.3v-3.8c0-1.1-0.3-1.5-1.1-1.5
						c-0.6,0-1,0.3-1.5,0.8V53h-1.3V46.8z"/>
				</g>
			</g>
		</g>
		<g>
			<image style="overflow:visible;" width="20" height="22" xlink:href="B28FAF9.png"  transform="matrix(1 0 0 1 85 39.7768)">
			</image>
			<g>
				<image style="overflow:visible;" width="12" height="16" xlink:href="B28FAFA.png"  transform="matrix(1 0 0 1 89 42.7768)">
				</image>
				<g>
					<path d="M92,54.1c0-0.5,0.3-1,0.9-1.4v-0.1c-0.3-0.2-0.6-0.5-0.6-1c0-0.5,0.4-0.9,0.7-1.2v0c-0.4-0.3-0.8-0.9-0.8-1.7
						c0-1.4,1.1-2.2,2.4-2.2c0.4,0,0.7,0.1,0.9,0.2h2.2v1h-1.2c0.2,0.2,0.4,0.7,0.4,1.1c0,1.4-1,2.1-2.3,2.1c-0.3,0-0.6-0.1-0.9-0.2
						c-0.2,0.2-0.3,0.4-0.3,0.7c0,0.4,0.2,0.6,1,0.6h1.1c1.5,0,2.2,0.5,2.2,1.5c0,1.2-1.3,2.2-3.3,2.2C93.1,55.8,92,55.2,92,54.1z
						 M96.6,53.8c0-0.5-0.4-0.7-1.2-0.7h-0.9c-0.3,0-0.6,0-0.8-0.1c-0.4,0.3-0.5,0.6-0.5,0.9c0,0.6,0.6,1,1.7,1
						C95.9,54.9,96.6,54.4,96.6,53.8z M95.8,48.8c0-0.8-0.5-1.3-1.2-1.3s-1.2,0.5-1.2,1.3c0,0.8,0.5,1.3,1.2,1.3
						S95.8,49.7,95.8,48.8z"/>
				</g>
			</g>
		</g>
		<g>
			<image style="overflow:visible;" width="17" height="22" xlink:href="B28FAFF.png"  transform="matrix(1 0 0 1 92 37.7768)">
			</image>
			<g>
				<image style="overflow:visible;" width="9" height="16" xlink:href="B28FAE8.png"  transform="matrix(1 0 0 1 96 40.7768)">
				</image>
				<g>
					<path d="M99.8,51.5V44h1.3v7.6c0,0.4,0.1,0.5,0.3,0.5c0.1,0,0.1,0,0.2,0l0.2,1c-0.2,0.1-0.4,0.1-0.7,0.1
						C100.2,53.1,99.8,52.5,99.8,51.5z"/>
				</g>
			</g>
		</g>
		<g>
			<image style="overflow:visible;" width="16" height="22" xlink:href="B28FADC.png"  transform="matrix(1 0 0 1 97 37.7768)">
			</image>
			<g>
				<image style="overflow:visible;" width="9" height="16" xlink:href="B28FADD.png"  transform="matrix(1 0 0 1 100 40.7768)">
				</image>
				<g>
					<path d="M103.9,44.8c0-0.5,0.3-0.8,0.8-0.8c0.5,0,0.8,0.3,0.8,0.8c0,0.5-0.3,0.8-0.8,0.8C104.2,45.6,103.9,45.3,103.9,44.8z
						 M104.1,46.8h1.3V53h-1.3V46.8z"/>
				</g>
			</g>
		</g>
		<g>
			<image style="overflow:visible;" width="20" height="20" xlink:href="B28FADE.png"  transform="matrix(1 0 0 1 100 39.7768)">
			</image>
			<g>
				<image style="overflow:visible;" width="12" height="14" xlink:href="B28FAD3.png"  transform="matrix(1 0 0 1 104 42.7768)">
				</image>
				<g>
					<path d="M107.5,52.3l0.6-0.8c0.6,0.4,1.1,0.7,1.8,0.7c0.7,0,1.1-0.4,1.1-0.8c0-0.6-0.7-0.8-1.4-1.1c-0.8-0.3-1.8-0.8-1.8-1.8
						c0-1,0.8-1.8,2.2-1.8c0.8,0,1.5,0.3,2,0.7l-0.6,0.8c-0.4-0.3-0.9-0.5-1.4-0.5c-0.7,0-1,0.3-1,0.8c0,0.5,0.6,0.7,1.3,1
						c0.9,0.3,1.8,0.7,1.8,1.9c0,1-0.8,1.9-2.4,1.9C109,53.1,108.1,52.8,107.5,52.3z"/>
				</g>
			</g>
		</g>
		<g>
			<image style="overflow:visible;" width="20" height="22" xlink:href="B28FAD4.png"  transform="matrix(1 0 0 1 107 37.7768)">
			</image>
			<g>
				<image style="overflow:visible;" width="12" height="16" xlink:href="B28FAD5.png"  transform="matrix(1 0 0 1 111 40.7768)">
				</image>
				<g>
					<path d="M114.4,44h1.3v2.4l-0.1,1.2c0.5-0.5,1.2-1,2-1c1.3,0,1.9,0.9,1.9,2.5V53h-1.3v-3.8c0-1.1-0.3-1.5-1.1-1.5
						c-0.6,0-1,0.3-1.5,0.8V53h-1.3V44z"/>
				</g>
			</g>
		</g>
		<g>
			<image style="overflow:visible;" width="18" height="20" xlink:href="B28FAD2.png"  transform="matrix(1 0 0 1 119 39.7768)">
			</image>
			<g>
				<image style="overflow:visible;" width="11" height="14" xlink:href="B28FAD1.png"  transform="matrix(1 0 0 1 122 42.7768)">
				</image>
				<g>
					<path d="M125.7,46.8h1.1l0.1,1.1h0c0.4-0.8,1.1-1.3,1.8-1.3c0.3,0,0.5,0,0.7,0.1l-0.2,1.1c-0.2-0.1-0.4-0.1-0.6-0.1
						c-0.5,0-1.1,0.4-1.5,1.3V53h-1.3V46.8z"/>
				</g>
			</g>
		</g>
		<g>
			<image style="overflow:visible;" width="18" height="20" xlink:href="B28FB2C.png"  transform="matrix(1 0 0 1 124 39.7768)">
			</image>
			<g>
				<image style="overflow:visible;" width="12" height="14" xlink:href="B28FB36.png"  transform="matrix(1 0 0 1 127 42.7768)">
				</image>
				<g>
					<path d="M130.6,49.9c0-2,1.4-3.3,2.8-3.3c1.7,0,2.5,1.2,2.5,2.9c0,0.3,0,0.5-0.1,0.7h-4c0.1,1.2,0.8,1.9,1.9,1.9
						c0.6,0,1-0.2,1.5-0.5l0.5,0.8c-0.6,0.4-1.3,0.7-2.1,0.7C132,53.1,130.6,51.9,130.6,49.9z M134.9,49.3c0-1.1-0.5-1.7-1.4-1.7
						c-0.8,0-1.5,0.6-1.6,1.7H134.9z"/>
				</g>
			</g>
		</g>
		<g>
			<image style="overflow:visible;" width="19" height="20" xlink:href="B28FB31.png"  transform="matrix(1 0 0 1 130 39.7768)">
			</image>
			<g>
				<image style="overflow:visible;" width="12" height="14" xlink:href="B28FB32.png"  transform="matrix(1 0 0 1 134 42.7768)">
				</image>
				<g>
					<path d="M137.8,51.3c0-1.3,1.1-2,3.7-2.3c0-0.7-0.3-1.4-1.2-1.4c-0.7,0-1.3,0.3-1.8,0.6l-0.5-0.9c0.6-0.4,1.5-0.8,2.5-0.8
						c1.6,0,2.3,1,2.3,2.6V53h-1.1l-0.1-0.7h0c-0.6,0.5-1.2,0.9-2,0.9C138.5,53.1,137.8,52.4,137.8,51.3z M141.5,51.4v-1.5
						c-1.8,0.2-2.5,0.7-2.5,1.4c0,0.6,0.4,0.9,1,0.9C140.5,52.1,141,51.8,141.5,51.4z"/>
				</g>
			</g>
		</g>
		<g>
			<image style="overflow:visible;" width="20" height="22" xlink:href="B28FB30.png"  transform="matrix(1 0 0 1 138 37.7768)">
			</image>
			<g>
				<image style="overflow:visible;" width="12" height="16" xlink:href="B28FB0E.png"  transform="matrix(1 0 0 1 142 40.7768)">
				</image>
				<g>
					<path d="M145,49.9c0-2,1.3-3.3,2.7-3.3c0.7,0,1.2,0.3,1.7,0.7l-0.1-1V44h1.3v9h-1.1l-0.1-0.7h0c-0.5,0.5-1.1,0.8-1.8,0.8
						C146.1,53.1,145,51.9,145,49.9z M149.3,51.3v-3c-0.5-0.4-0.9-0.6-1.4-0.6c-0.9,0-1.6,0.8-1.6,2.2c0,1.4,0.6,2.2,1.5,2.2
						C148.4,52.1,148.9,51.8,149.3,51.3z"/>
				</g>
			</g>
		</g>
		<g>
			<image style="overflow:visible;" width="16" height="22" xlink:href="B28FB11.png"  transform="matrix(1 0 0 1 146 37.7768)">
			</image>
			<g>
				<image style="overflow:visible;" width="8" height="16" xlink:href="B28FB12.png"  transform="matrix(1 0 0 1 150 40.7768)">
				</image>
				<g>
					<path d="M153.3,44.8c0-0.5,0.3-0.8,0.8-0.8c0.5,0,0.8,0.3,0.8,0.8c0,0.5-0.3,0.8-0.8,0.8C153.6,45.6,153.3,45.3,153.3,44.8z
						 M153.4,46.8h1.3V53h-1.3V46.8z"/>
				</g>
			</g>
		</g>
		<g>
			<image style="overflow:visible;" width="18" height="20" xlink:href="B28FB10.png"  transform="matrix(1 0 0 1 151 39.7768)">
			</image>
			<g>
				<image style="overflow:visible;" width="12" height="14" xlink:href="B28FB15.png"  transform="matrix(1 0 0 1 154 42.7768)">
				</image>
				<g>
					<path d="M157.5,46.8h1.1l0.1,0.9h0c0.6-0.6,1.2-1,2.1-1c1.3,0,1.9,0.9,1.9,2.5V53h-1.3v-3.8c0-1.1-0.3-1.5-1.1-1.5
						c-0.6,0-1,0.3-1.5,0.8V53h-1.3V46.8z"/>
				</g>
			</g>
		</g>
		<g>
			<image style="overflow:visible;" width="20" height="22" xlink:href="B28FB16.png"  transform="matrix(1 0 0 1 158 39.7768)">
			</image>
			<g>
				<image style="overflow:visible;" width="13" height="16" xlink:href="B28FB79.png"  transform="matrix(1 0 0 1 161 42.7768)">
				</image>
				<g>
					<path d="M165,54.1c0-0.5,0.3-1,0.9-1.4v-0.1c-0.3-0.2-0.6-0.5-0.6-1c0-0.5,0.4-0.9,0.7-1.2v0c-0.4-0.3-0.8-0.9-0.8-1.7
						c0-1.4,1.1-2.2,2.4-2.2c0.4,0,0.7,0.1,0.9,0.2h2.2v1h-1.2c0.2,0.2,0.4,0.7,0.4,1.1c0,1.4-1,2.1-2.3,2.1c-0.3,0-0.6-0.1-0.9-0.2
						c-0.2,0.2-0.3,0.4-0.3,0.7c0,0.4,0.2,0.6,1,0.6h1.1c1.5,0,2.2,0.5,2.2,1.5c0,1.2-1.3,2.2-3.3,2.2C166.1,55.8,165,55.2,165,54.1
						z M169.6,53.8c0-0.5-0.4-0.7-1.2-0.7h-0.9c-0.3,0-0.6,0-0.8-0.1c-0.4,0.3-0.5,0.6-0.5,0.9c0,0.6,0.6,1,1.7,1
						C168.8,54.9,169.6,54.4,169.6,53.8z M168.8,48.8c0-0.8-0.5-1.3-1.2-1.3c-0.7,0-1.2,0.5-1.2,1.3c0,0.8,0.5,1.3,1.2,1.3
						C168.3,50.2,168.8,49.7,168.8,48.8z"/>
				</g>
			</g>
		</g>
		<g>
			<image style="overflow:visible;" width="19" height="20" xlink:href="B28FB7A.png"  transform="matrix(1 0 0 1 169 39.7768)">
			</image>
			<g>
				<image style="overflow:visible;" width="13" height="14" xlink:href="B28FB7B.png"  transform="matrix(1 0 0 1 172 42.7768)">
				</image>
				<g>
					<path d="M175.8,49.9c0-2,1.4-3.3,2.8-3.3c1.7,0,2.5,1.2,2.5,2.9c0,0.3,0,0.5-0.1,0.7h-4c0.1,1.2,0.8,1.9,1.9,1.9
						c0.6,0,1-0.2,1.5-0.5l0.5,0.8c-0.6,0.4-1.3,0.7-2.1,0.7C177.1,53.1,175.8,51.9,175.8,49.9z M180,49.3c0-1.1-0.5-1.7-1.4-1.7
						c-0.8,0-1.5,0.6-1.6,1.7H180z"/>
				</g>
			</g>
		</g>
		<g>
			<image style="overflow:visible;" width="20" height="20" xlink:href="B28FB7C.png"  transform="matrix(1 0 0 1 175 39.7768)">
			</image>
			<g>
				<image style="overflow:visible;" width="13" height="14" xlink:href="B28FB78.png"  transform="matrix(1 0 0 1 179 42.7768)">
				</image>
				<g>
					<path d="M184.5,49.7l-1.9-3h1.4l0.7,1.2c0.2,0.4,0.4,0.7,0.6,1.1h0c0.2-0.4,0.4-0.7,0.5-1.1l0.7-1.2h1.4l-1.9,3.1l2,3.1h-1.4
						l-0.8-1.3c-0.2-0.4-0.4-0.7-0.6-1.1h-0.1c-0.2,0.4-0.4,0.7-0.6,1.1l-0.7,1.3h-1.4L184.5,49.7z"/>
				</g>
			</g>
		</g>
		<g>
			<image style="overflow:visible;" width="20" height="22" xlink:href="B28FB06.png"  transform="matrix(1 0 0 1 183 39.7768)">
			</image>
			<g>
				<image style="overflow:visible;" width="12" height="16" xlink:href="B28FB07.png"  transform="matrix(1 0 0 1 187 42.7768)">
				</image>
				<g>
					<path d="M190.1,46.8h1.1l0.1,0.7h0c0.5-0.5,1.2-0.8,1.9-0.8c1.6,0,2.5,1.3,2.5,3.2c0,2.1-1.3,3.4-2.7,3.4
						c-0.6,0-1.1-0.2-1.6-0.7l0,1.1v2h-1.3V46.8z M194.4,49.8c0-1.3-0.4-2.1-1.5-2.1c-0.5,0-1,0.2-1.5,0.8v3c0.5,0.4,1,0.6,1.3,0.6
						C193.7,52.1,194.4,51.3,194.4,49.8z"/>
				</g>
			</g>
		</g>
		<g>
			<image style="overflow:visible;" width="19" height="20" xlink:href="B28FB08.png"  transform="matrix(1 0 0 1 191 39.7768)">
			</image>
			<g>
				<image style="overflow:visible;" width="13" height="14" xlink:href="B28FB09.png"  transform="matrix(1 0 0 1 194 42.7768)">
				</image>
				<g>
					<path d="M197.7,49.9c0-2,1.4-3.3,2.8-3.3c1.7,0,2.5,1.2,2.5,2.9c0,0.3,0,0.5-0.1,0.7h-4c0.1,1.2,0.8,1.9,1.9,1.9
						c0.6,0,1-0.2,1.5-0.5l0.5,0.8c-0.6,0.4-1.3,0.7-2.1,0.7C199,53.1,197.7,51.9,197.7,49.9z M201.9,49.3c0-1.1-0.5-1.7-1.4-1.7
						c-0.8,0-1.5,0.6-1.6,1.7H201.9z"/>
				</g>
			</g>
		</g>
		<g>
			<image style="overflow:visible;" width="17" height="20" xlink:href="B28FB0A.png"  transform="matrix(1 0 0 1 199 39.7768)">
			</image>
			<g>
				<image style="overflow:visible;" width="11" height="14" xlink:href="B28FB5B.png"  transform="matrix(1 0 0 1 202 42.7768)">
				</image>
				<g>
					<path d="M205.3,46.8h1.1l0.1,1.1h0c0.4-0.8,1.1-1.3,1.8-1.3c0.3,0,0.5,0,0.7,0.1l-0.2,1.1c-0.2-0.1-0.4-0.1-0.6-0.1
						c-0.5,0-1.1,0.4-1.5,1.3V53h-1.3V46.8z"/>
				</g>
			</g>
		</g>
		<g>
			<image style="overflow:visible;" width="17" height="22" xlink:href="B28FB58.png"  transform="matrix(1 0 0 1 203 37.7768)">
			</image>
			<g>
				<image style="overflow:visible;" width="9" height="16" xlink:href="B28FB57.png"  transform="matrix(1 0 0 1 207 40.7768)">
				</image>
				<g>
					<path d="M210.7,44.8c0-0.5,0.3-0.8,0.8-0.8c0.5,0,0.8,0.3,0.8,0.8c0,0.5-0.3,0.8-0.8,0.8C211,45.6,210.7,45.3,210.7,44.8z
						 M210.8,46.8h1.3V53h-1.3V46.8z"/>
				</g>
			</g>
		</g>
		<g>
			<image style="overflow:visible;" width="19" height="20" xlink:href="B28FB2D.png"  transform="matrix(1 0 0 1 207 39.7768)">
			</image>
			<g>
				<image style="overflow:visible;" width="12" height="14" xlink:href="B28FB2F.png"  transform="matrix(1 0 0 1 211 42.7768)">
				</image>
				<g>
					<path d="M214.5,49.9c0-2,1.4-3.3,2.8-3.3c1.7,0,2.5,1.2,2.5,2.9c0,0.3,0,0.5-0.1,0.7h-4c0.1,1.2,0.8,1.9,1.9,1.9
						c0.6,0,1-0.2,1.5-0.5l0.5,0.8c-0.6,0.4-1.3,0.7-2.1,0.7C215.8,53.1,214.5,51.9,214.5,49.9z M218.7,49.3c0-1.1-0.5-1.7-1.4-1.7
						c-0.8,0-1.5,0.6-1.6,1.7H218.7z"/>
				</g>
			</g>
		</g>
		<g>
			<image style="overflow:visible;" width="18" height="20" xlink:href="B28FB23.png"  transform="matrix(1 0 0 1 216 39.7768)">
			</image>
			<g>
				<image style="overflow:visible;" width="12" height="14" xlink:href="B28FB24.png"  transform="matrix(1 0 0 1 219 42.7768)">
				</image>
				<g>
					<path d="M222.2,46.8h1.1l0.1,0.9h0c0.6-0.6,1.2-1,2.1-1c1.3,0,1.9,0.9,1.9,2.5V53H226v-3.8c0-1.1-0.3-1.5-1.1-1.5
						c-0.6,0-1,0.3-1.5,0.8V53h-1.3V46.8z"/>
				</g>
			</g>
		</g>
		<g>
			<image style="overflow:visible;" width="18" height="20" xlink:href="B28FB21.png"  transform="matrix(1 0 0 1 223 39.7768)">
			</image>
			<g>
				<image style="overflow:visible;" width="12" height="14" xlink:href="B28FB22.png"  transform="matrix(1 0 0 1 226 42.7768)">
				</image>
				<g>
					<path d="M229.6,49.9c0-2.1,1.4-3.3,3.1-3.3c0.8,0,1.4,0.3,1.8,0.7l-0.6,0.8c-0.3-0.3-0.7-0.5-1.1-0.5c-1.1,0-1.8,0.9-1.8,2.2
						c0,1.3,0.7,2.2,1.8,2.2c0.5,0,1-0.2,1.4-0.6l0.5,0.9c-0.6,0.5-1.3,0.8-2,0.8C230.9,53.1,229.6,51.9,229.6,49.9z"/>
				</g>
			</g>
		</g>
		<g>
			<image style="overflow:visible;" width="18" height="20" xlink:href="B28FB20.png"  transform="matrix(1 0 0 1 230 39.7768)">
			</image>
			<g>
				<image style="overflow:visible;" width="12" height="14" xlink:href="B28FBCC.png"  transform="matrix(1 0 0 1 233 42.7768)">
				</image>
				<g>
					<path d="M236,49.9c0-2,1.4-3.3,2.8-3.3c1.7,0,2.5,1.2,2.5,2.9c0,0.3,0,0.5-0.1,0.7h-4c0.1,1.2,0.8,1.9,1.9,1.9
						c0.6,0,1-0.2,1.5-0.5l0.5,0.8c-0.6,0.4-1.3,0.7-2.1,0.7C237.4,53.1,236,51.9,236,49.9z M240.3,49.3c0-1.1-0.5-1.7-1.4-1.7
						c-0.8,0-1.5,0.6-1.6,1.7H240.3z"/>
				</g>
			</g>
		</g>
		<g>
			<image style="overflow:visible;" width="23" height="20" xlink:href="B28FBC0.png"  transform="matrix(1 0 0 1 239 39.7768)">
			</image>
			<g>
				<image style="overflow:visible;" width="16" height="14" xlink:href="B28FBC1.png"  transform="matrix(1 0 0 1 243 42.7768)">
				</image>
				<g>
					<path d="M246.4,46.8h1.3l0.8,3.4c0.1,0.6,0.2,1.2,0.3,1.8h0c0.1-0.6,0.3-1.2,0.4-1.8l0.9-3.4h1.2l0.9,3.4
						c0.1,0.6,0.3,1.2,0.4,1.8h0c0.1-0.6,0.2-1.2,0.4-1.8l0.8-3.4h1.2l-1.6,6.2H252l-0.8-3.1c-0.1-0.6-0.3-1.2-0.4-1.8h-0.1
						c-0.1,0.6-0.2,1.2-0.4,1.8l-0.8,3.1h-1.5L246.4,46.8z"/>
				</g>
			</g>
		</g>
		<g>
			<image style="overflow:visible;" width="16" height="22" xlink:href="B28FBC2.png"  transform="matrix(1 0 0 1 250 37.7768)">
			</image>
			<g>
				<image style="overflow:visible;" width="8" height="16" xlink:href="B28FBC3.png"  transform="matrix(1 0 0 1 254 40.7768)">
				</image>
				<g>
					<path d="M257.1,44.8c0-0.5,0.3-0.8,0.8-0.8c0.5,0,0.8,0.3,0.8,0.8c0,0.5-0.3,0.8-0.8,0.8C257.5,45.6,257.1,45.3,257.1,44.8z
						 M257.3,46.8h1.3V53h-1.3V46.8z"/>
				</g>
			</g>
		</g>
		<g>
			<image style="overflow:visible;" width="19" height="21" xlink:href="B28FBDE.png"  transform="matrix(1 0 0 1 253 38.7768)">
			</image>
			<g>
				<image style="overflow:visible;" width="11" height="15" xlink:href="B28FBC9.png"  transform="matrix(1 0 0 1 257 41.7768)">
				</image>
				<g>
					<path d="M261.6,50.9v-3.1h-0.9v-1l1-0.1l0.1-1.7h1.1v1.7h1.6v1h-1.6V51c0,0.7,0.3,1.1,0.9,1.1c0.2,0,0.5-0.1,0.7-0.1l0.2,1
						c-0.4,0.1-0.8,0.2-1.2,0.2C262.1,53.1,261.6,52.3,261.6,50.9z"/>
				</g>
			</g>
		</g>
		<g>
			<image style="overflow:visible;" width="20" height="22" xlink:href="B28FBCA.png"  transform="matrix(1 0 0 1 259 37.7768)">
			</image>
			<g>
				<image style="overflow:visible;" width="12" height="16" xlink:href="B28FBC8.png"  transform="matrix(1 0 0 1 263 40.7768)">
				</image>
				<g>
					<path d="M266.7,44h1.3v2.4l-0.1,1.2c0.5-0.5,1.2-1,2-1c1.3,0,1.9,0.9,1.9,2.5V53h-1.3v-3.8c0-1.1-0.3-1.5-1.1-1.5
						c-0.6,0-1,0.3-1.5,0.8V53h-1.3V44z"/>
				</g>
			</g>
		</g>
		<g>
			<image style="overflow:visible;" width="21" height="22" xlink:href="B28FBCE.png"  transform="matrix(1 0 0 1 270 37.7768)">
			</image>
			<g>
				<image style="overflow:visible;" width="13" height="16" xlink:href="B28FBE6.png"  transform="matrix(1 0 0 1 274 40.7768)">
				</image>
				<g>
					<path d="M277.5,51.9l0.8-0.9c0.6,0.6,1.4,1,2.2,1c1,0,1.6-0.5,1.6-1.2c0-0.8-0.6-1-1.3-1.3l-1.2-0.5c-0.8-0.3-1.7-1-1.7-2.2
						c0-1.3,1.2-2.3,2.7-2.3c1,0,1.9,0.4,2.5,1.1l-0.7,0.8c-0.5-0.5-1.1-0.7-1.8-0.7c-0.8,0-1.4,0.4-1.4,1.1c0,0.7,0.7,1,1.3,1.3
						l1.1,0.5c1,0.4,1.7,1,1.7,2.3c0,1.3-1.1,2.4-2.9,2.4C279.3,53.1,278.3,52.7,277.5,51.9z"/>
				</g>
			</g>
		</g>
		<g>
			<image style="overflow:visible;" width="22" height="20" xlink:href="B28FBE9.png"  transform="matrix(1 0 0 1 279 39.7768)">
			</image>
			<g>
				<image style="overflow:visible;" width="16" height="14" xlink:href="B28FBEA.png"  transform="matrix(1 0 0 1 282 42.7768)">
				</image>
				<g>
					<path d="M285.7,46.8h1.1l0.1,0.9h0c0.5-0.6,1.2-1,1.9-1c0.9,0,1.4,0.4,1.7,1.1c0.6-0.7,1.2-1.1,2-1.1c1.3,0,1.9,0.9,1.9,2.5V53
						h-1.3v-3.8c0-1.1-0.3-1.5-1-1.5c-0.4,0-0.9,0.3-1.4,0.8V53h-1.3v-3.8c0-1.1-0.3-1.5-1-1.5c-0.4,0-0.9,0.3-1.4,0.8V53h-1.3V46.8
						z"/>
				</g>
			</g>
		</g>
		<g>
			<image style="overflow:visible;" width="19" height="20" xlink:href="B28FBEB.png"  transform="matrix(1 0 0 1 289 39.7768)">
			</image>
			<g>
				<image style="overflow:visible;" width="12" height="14" xlink:href="B28FBEC.png"  transform="matrix(1 0 0 1 293 42.7768)">
				</image>
				<g>
					<path d="M296.9,51.3c0-1.3,1.1-2,3.7-2.3c0-0.7-0.3-1.4-1.2-1.4c-0.7,0-1.3,0.3-1.8,0.6l-0.5-0.9c0.6-0.4,1.5-0.8,2.5-0.8
						c1.5,0,2.3,1,2.3,2.6V53h-1.1l-0.1-0.7h0c-0.6,0.5-1.2,0.9-2,0.9C297.6,53.1,296.9,52.4,296.9,51.3z M300.6,51.4v-1.5
						c-1.8,0.2-2.5,0.7-2.5,1.4c0,0.6,0.4,0.9,1,0.9C299.6,52.1,300.1,51.8,300.6,51.4z"/>
				</g>
			</g>
		</g>
		<g>
			<image style="overflow:visible;" width="18" height="20" xlink:href="B28FBE8.png"  transform="matrix(1 0 0 1 298 39.7768)">
			</image>
			<g>
				<image style="overflow:visible;" width="11" height="14" xlink:href="B28FBD6.png"  transform="matrix(1 0 0 1 301 42.7768)">
				</image>
				<g>
					<path d="M304.6,46.8h1.1l0.1,1.1h0c0.4-0.8,1.1-1.3,1.8-1.3c0.3,0,0.5,0,0.7,0.1l-0.2,1.1c-0.2-0.1-0.4-0.1-0.6-0.1
						c-0.5,0-1.1,0.4-1.5,1.3V53h-1.3V46.8z"/>
				</g>
			</g>
		</g>
		<g>
			<image style="overflow:visible;" width="19" height="21" xlink:href="B28FBD7.png"  transform="matrix(1 0 0 1 302 38.7768)">
			</image>
			<g>
				<image style="overflow:visible;" width="11" height="15" xlink:href="B28FBD8.png"  transform="matrix(1 0 0 1 306 41.7768)">
				</image>
				<g>
					<path d="M310.2,50.9v-3.1h-0.9v-1l1-0.1l0.1-1.7h1.1v1.7h1.6v1h-1.6V51c0,0.7,0.3,1.1,0.9,1.1c0.2,0,0.5-0.1,0.7-0.1l0.2,1
						c-0.4,0.1-0.8,0.2-1.2,0.2C310.7,53.1,310.2,52.3,310.2,50.9z"/>
				</g>
			</g>
		</g>
		<g>
			<image style="overflow:visible;" width="21" height="22" xlink:href="B28FBD9.png"  transform="matrix(1 0 0 1 308 37.7768)">
			</image>
			<g>
				<image style="overflow:visible;" width="13" height="16" xlink:href="B28FB8E.png"  transform="matrix(1 0 0 1 312 40.7768)">
				</image>
				<g>
					<path d="M315.5,44.6h2.7c1.7,0,3,0.6,3,2.4c0,1.3-0.7,2.1-1.7,2.4l2,3.5H320l-1.9-3.4h-1.3V53h-1.3V44.6z M318.1,48.6
						c1.2,0,1.9-0.5,1.9-1.5s-0.7-1.4-1.9-1.4h-1.3v2.9H318.1z"/>
				</g>
			</g>
		</g>
		<g>
			<image style="overflow:visible;" width="18" height="20" xlink:href="B28FB8A.png"  transform="matrix(1 0 0 1 317 39.7768)">
			</image>
			<g>
				<image style="overflow:visible;" width="12" height="14" xlink:href="B28FB89.png"  transform="matrix(1 0 0 1 320 42.7768)">
				</image>
				<g>
					<path d="M323.1,49.9c0-2,1.4-3.3,2.8-3.3c1.7,0,2.5,1.2,2.5,2.9c0,0.3,0,0.5-0.1,0.7h-4c0.1,1.2,0.8,1.9,1.9,1.9
						c0.6,0,1-0.2,1.5-0.5l0.5,0.8c-0.6,0.4-1.3,0.7-2.1,0.7C324.4,53.1,323.1,51.9,323.1,49.9z M327.3,49.3c0-1.1-0.5-1.7-1.4-1.7
						c-0.8,0-1.5,0.6-1.6,1.7H327.3z"/>
				</g>
			</g>
		</g>
		<g>
			<image style="overflow:visible;" width="19" height="20" xlink:href="B28FB86.png"  transform="matrix(1 0 0 1 324 39.7768)">
			</image>
			<g>
				<image style="overflow:visible;" width="12" height="14" xlink:href="B28FBB9.png"  transform="matrix(1 0 0 1 327 42.7768)">
				</image>
				<g>
					<path d="M330.2,51.3c0-1.3,1.1-2,3.7-2.3c0-0.7-0.3-1.4-1.2-1.4c-0.7,0-1.3,0.3-1.8,0.6l-0.5-0.9c0.6-0.4,1.5-0.8,2.5-0.8
						c1.5,0,2.3,1,2.3,2.6V53h-1.1l-0.1-0.7h0c-0.6,0.5-1.2,0.9-2,0.9C331,53.1,330.2,52.4,330.2,51.3z M333.9,51.4v-1.5
						c-1.8,0.2-2.5,0.7-2.5,1.4c0,0.6,0.4,0.9,1,0.9C333,52.1,333.4,51.8,333.9,51.4z"/>
				</g>
			</g>
		</g>
		<g>
			<image style="overflow:visible;" width="21" height="22" xlink:href="B28FBBE.png"  transform="matrix(1 0 0 1 330 37.7768)">
			</image>
			<g>
				<image style="overflow:visible;" width="13" height="16" xlink:href="B28FBBC.png"  transform="matrix(1 0 0 1 334 40.7768)">
				</image>
				<g>
					<path d="M337.5,49.9c0-2,1.3-3.3,2.7-3.3c0.7,0,1.2,0.3,1.7,0.7l-0.1-1V44h1.3v9H342l-0.1-0.7h0c-0.5,0.5-1.1,0.8-1.8,0.8
						C338.5,53.1,337.5,51.9,337.5,49.9z M341.8,51.3v-3c-0.5-0.4-0.9-0.6-1.4-0.6c-0.9,0-1.6,0.8-1.6,2.2c0,1.4,0.6,2.2,1.5,2.2
						C340.9,52.1,341.4,51.8,341.8,51.3z"/>
				</g>
			</g>
		</g>
		<g>
			<image style="overflow:visible;" width="17" height="22" xlink:href="B28FBB4.png"  transform="matrix(1 0 0 1 338 37.7768)">
			</image>
			<g>
				<image style="overflow:visible;" width="9" height="16" xlink:href="B28FBB5.png"  transform="matrix(1 0 0 1 342 40.7768)">
				</image>
				<g>
					<path d="M345.8,44.8c0-0.5,0.3-0.8,0.8-0.8c0.5,0,0.8,0.3,0.8,0.8c0,0.5-0.3,0.8-0.8,0.8C346.1,45.6,345.8,45.3,345.8,44.8z
						 M345.9,46.8h1.3V53h-1.3V46.8z"/>
				</g>
			</g>
		</g>
		<g>
			<image style="overflow:visible;" width="19" height="20" xlink:href="B28FBB6.png"  transform="matrix(1 0 0 1 344 39.7768)">
			</image>
			<g>
				<image style="overflow:visible;" width="12" height="14" xlink:href="9CEC3B5E.png"  transform="matrix(1 0 0 1 347 42.7768)">
				</image>
				<g>
					<path d="M350,46.8h1.1l0.1,0.9h0c0.6-0.6,1.2-1,2.1-1c1.3,0,1.9,0.9,1.9,2.5V53h-1.3v-3.8c0-1.1-0.3-1.5-1.1-1.5
						c-0.6,0-1,0.3-1.5,0.8V53H350V46.8z"/>
				</g>
			</g>
		</g>
		<g>
			<image style="overflow:visible;" width="21" height="22" xlink:href="9CEC3B42.png"  transform="matrix(1 0 0 1 350 39.7768)">
			</image>
			<g>
				<image style="overflow:visible;" width="13" height="16" xlink:href="9CEC3B43.png"  transform="matrix(1 0 0 1 354 42.7768)">
				</image>
				<g>
					<path d="M357.5,54.1c0-0.5,0.3-1,0.9-1.4v-0.1c-0.3-0.2-0.6-0.5-0.6-1c0-0.5,0.4-0.9,0.7-1.2v0c-0.4-0.3-0.8-0.9-0.8-1.7
						c0-1.4,1.1-2.2,2.4-2.2c0.4,0,0.7,0.1,0.9,0.2h2.2v1H362c0.2,0.2,0.4,0.7,0.4,1.1c0,1.4-1,2.1-2.3,2.1c-0.3,0-0.6-0.1-0.9-0.2
						c-0.2,0.2-0.3,0.4-0.3,0.7c0,0.4,0.2,0.6,1,0.6h1.1c1.5,0,2.2,0.5,2.2,1.5c0,1.2-1.3,2.2-3.3,2.2
						C358.5,55.8,357.5,55.2,357.5,54.1z M362,53.8c0-0.5-0.4-0.7-1.2-0.7h-0.9c-0.3,0-0.6,0-0.8-0.1c-0.4,0.3-0.5,0.6-0.5,0.9
						c0,0.6,0.6,1,1.7,1C361.3,54.9,362,54.4,362,53.8z M361.3,48.8c0-0.8-0.5-1.3-1.2-1.3c-0.7,0-1.2,0.5-1.2,1.3
						c0,0.8,0.5,1.3,1.2,1.3C360.7,50.2,361.3,49.7,361.3,48.8z"/>
				</g>
			</g>
		</g>
		<g>
			<image style="overflow:visible;" width="16" height="14" xlink:href="9CEC3B44.png"  transform="matrix(1 0 0 1 358 42.7768)">
			</image>
			<g>
				<image style="overflow:visible;" width="10" height="8" xlink:href="9CEC3B45.png"  transform="matrix(1 0 0 1 361 45.7768)">
				</image>
				<g>
					<path d="M364.8,49.3h3v1h-3V49.3z"/>
				</g>
			</g>
		</g>
		<g>
			<image style="overflow:visible;" width="20" height="22" xlink:href="9CEC3B46.png"  transform="matrix(1 0 0 1 363 37.7768)">
			</image>
			<g>
				<image style="overflow:visible;" width="12" height="16" xlink:href="9CEC3B41.png"  transform="matrix(1 0 0 1 367 40.7768)">
				</image>
				<g>
					<path d="M370.3,44.6h4.9v1.1h-3.6v2.3h3.1v1.1h-3.1v2.7h3.7V53h-5V44.6z"/>
				</g>
			</g>
		</g>
		<g>
			<image style="overflow:visible;" width="18" height="20" xlink:href="9CEC3B4C.png"  transform="matrix(1 0 0 1 371 39.7768)">
			</image>
			<g>
				<image style="overflow:visible;" width="12" height="14" xlink:href="9CEC3B4D.png"  transform="matrix(1 0 0 1 374 42.7768)">
				</image>
				<g>
					<path d="M377.8,46.8h1.1l0.1,0.9h0c0.6-0.6,1.2-1,2.1-1c1.3,0,1.9,0.9,1.9,2.5V53h-1.3v-3.8c0-1.1-0.3-1.5-1.1-1.5
						c-0.6,0-1,0.3-1.5,0.8V53h-1.3V46.8z"/>
				</g>
			</g>
		</g>
		<g>
			<image style="overflow:visible;" width="21" height="22" xlink:href="9CEC3B4E.png"  transform="matrix(1 0 0 1 378 39.7768)">
			</image>
			<g>
				<image style="overflow:visible;" width="13" height="16" xlink:href="9CEC3B20.png"  transform="matrix(1 0 0 1 382 42.7768)">
				</image>
				<g>
					<path d="M385.3,54.1c0-0.5,0.3-1,0.9-1.4v-0.1c-0.3-0.2-0.6-0.5-0.6-1c0-0.5,0.4-0.9,0.7-1.2v0c-0.4-0.3-0.8-0.9-0.8-1.7
						c0-1.4,1.1-2.2,2.4-2.2c0.4,0,0.7,0.1,0.9,0.2h2.2v1h-1.2c0.2,0.2,0.4,0.7,0.4,1.1c0,1.4-1,2.1-2.3,2.1c-0.3,0-0.6-0.1-0.9-0.2
						c-0.2,0.2-0.3,0.4-0.3,0.7c0,0.4,0.2,0.6,1,0.6h1.1c1.5,0,2.2,0.5,2.2,1.5c0,1.2-1.3,2.2-3.3,2.2
						C386.4,55.8,385.3,55.2,385.3,54.1z M389.9,53.8c0-0.5-0.4-0.7-1.2-0.7h-0.9c-0.3,0-0.6,0-0.8-0.1c-0.4,0.3-0.5,0.6-0.5,0.9
						c0,0.6,0.6,1,1.7,1C389.1,54.9,389.9,54.4,389.9,53.8z M389.1,48.8c0-0.8-0.5-1.3-1.2-1.3c-0.7,0-1.2,0.5-1.2,1.3
						c0,0.8,0.5,1.3,1.2,1.3C388.5,50.2,389.1,49.7,389.1,48.8z"/>
				</g>
			</g>
		</g>
		<g>
			<image style="overflow:visible;" width="16" height="22" xlink:href="9CEC3B21.png"  transform="matrix(1 0 0 1 386 37.7768)">
			</image>
			<g>
				<image style="overflow:visible;" width="9" height="16" xlink:href="9CEC3BD8.png"  transform="matrix(1 0 0 1 390 40.7768)">
				</image>
				<g>
					<path d="M393.1,51.5V44h1.3v7.6c0,0.4,0.1,0.5,0.3,0.5c0.1,0,0.1,0,0.2,0l0.2,1c-0.2,0.1-0.4,0.1-0.7,0.1
						C393.5,53.1,393.1,52.5,393.1,51.5z"/>
				</g>
			</g>
		</g>
		<g>
			<image style="overflow:visible;" width="16" height="22" xlink:href="9CEC3BD9.png"  transform="matrix(1 0 0 1 390 37.7768)">
			</image>
			<g>
				<image style="overflow:visible;" width="8" height="16" xlink:href="9CEC3BDA.png"  transform="matrix(1 0 0 1 394 40.7768)">
				</image>
				<g>
					<path d="M397.2,44.8c0-0.5,0.3-0.8,0.8-0.8c0.5,0,0.8,0.3,0.8,0.8c0,0.5-0.3,0.8-0.8,0.8C397.5,45.6,397.2,45.3,397.2,44.8z
						 M397.3,46.8h1.3V53h-1.3V46.8z"/>
				</g>
			</g>
		</g>
		<g>
			<image style="overflow:visible;" width="18" height="20" xlink:href="9CEC3BDB.png"  transform="matrix(1 0 0 1 394 39.7768)">
			</image>
			<g>
				<image style="overflow:visible;" width="12" height="14" xlink:href="9CEC3BDC.png"  transform="matrix(1 0 0 1 397 42.7768)">
				</image>
				<g>
					<path d="M400.8,52.3l0.6-0.8c0.6,0.4,1.1,0.7,1.8,0.7c0.7,0,1.1-0.4,1.1-0.8c0-0.6-0.7-0.8-1.4-1.1c-0.8-0.3-1.8-0.8-1.8-1.8
						c0-1,0.8-1.8,2.2-1.8c0.8,0,1.5,0.3,2,0.7l-0.6,0.8c-0.4-0.3-0.9-0.5-1.4-0.5c-0.7,0-1,0.3-1,0.8c0,0.5,0.6,0.7,1.3,1
						c0.9,0.3,1.8,0.7,1.8,1.9c0,1-0.8,1.9-2.4,1.9C402.2,53.1,401.4,52.8,400.8,52.3z"/>
				</g>
			</g>
		</g>
		<g>
			<image style="overflow:visible;" width="20" height="22" xlink:href="9CEC3BDD.png"  transform="matrix(1 0 0 1 400 37.7768)">
			</image>
			<g>
				
					<image style="overflow:visible;" width="12" height="16" xlink:href="9CEC3BDE.png"  transform="matrix(1 0 0 1 403.9999 40.7768)">
				</image>
				<g>
					<path d="M407.7,44h1.3v2.4l-0.1,1.2c0.5-0.5,1.2-1,2-1c1.3,0,1.9,0.9,1.9,2.5V53h-1.3v-3.8c0-1.1-0.3-1.5-1.1-1.5
						c-0.6,0-1,0.3-1.5,0.8V53h-1.3V44z"/>
				</g>
			</g>
		</g>
		<g>
			
				<image style="overflow:visible;" width="17" height="22" xlink:href="9CEC3BDF.png"  transform="matrix(1 0 0 1 407.9999 37.7768)">
			</image>
			<g>
				
					<image style="overflow:visible;" width="9" height="16" xlink:href="9CEC3B04.png"  transform="matrix(1 0 0 1 411.9999 40.7768)">
				</image>
				<g>
					<path d="M415.7,52.2c0-0.5,0.4-0.9,0.9-0.9c0.5,0,0.9,0.4,0.9,0.9c0,0.5-0.4,0.9-0.9,0.9C416,53.1,415.7,52.8,415.7,52.2z
						 M415.9,45.8l0-1.3h1.3l0,1.3l-0.2,4.5h-0.9L415.9,45.8z"/>
				</g>
			</g>
		</g>
		<path d="M7.8,44.6h4.9v1.1H9.1v2.3h3.1v1.1H9.1v2.7h3.7V53h-5V44.6z"/>
		<path d="M15.3,46.8h1.1l0.1,0.9h0c0.6-0.6,1.2-1,2.1-1c1.3,0,1.9,0.9,1.9,2.5V53h-1.3v-3.8c0-1.1-0.3-1.5-1.1-1.5
			c-0.6,0-1,0.3-1.5,0.8V53h-1.3V46.8z"/>
		<path d="M21.7,55.5l0.2-1c0.2,0,0.4,0.1,0.6,0.1c0.6,0,0.7-0.4,0.7-1.2v-6.7h1.3v6.7c0,1.3-0.5,2.2-1.9,2.2
			C22.2,55.7,21.9,55.6,21.7,55.5z M23.1,44.8c0-0.5,0.3-0.8,0.8-0.8c0.5,0,0.8,0.3,0.8,0.8c0,0.5-0.3,0.8-0.8,0.8
			C23.4,45.6,23.1,45.3,23.1,44.8z"/>
		<path d="M26.9,49.9c0-2.1,1.4-3.3,2.9-3.3s2.9,1.2,2.9,3.3s-1.4,3.3-2.9,3.3S26.9,51.9,26.9,49.9z M31.4,49.9
			c0-1.3-0.6-2.2-1.6-2.2c-1,0-1.6,0.9-1.6,2.2c0,1.3,0.6,2.2,1.6,2.2C30.8,52.1,31.4,51.2,31.4,49.9z"/>
		<path d="M34.6,55.5l0.2-1c0.1,0,0.3,0.1,0.5,0.1c0.7,0,1.1-0.5,1.3-1.2l0.1-0.4l-2.5-6.2h1.3l1.2,3.2c0.2,0.6,0.4,1.2,0.6,1.8h0.1
			c0.2-0.6,0.3-1.2,0.5-1.8l1-3.2h1.3l-2.3,6.6c-0.5,1.3-1.1,2.2-2.5,2.2C35,55.6,34.8,55.5,34.6,55.5z"/>
		<path d="M45,55.5l0.2-1c0.1,0,0.3,0.1,0.5,0.1c0.7,0,1.1-0.5,1.3-1.2l0.1-0.4l-2.5-6.2H46l1.2,3.2c0.2,0.6,0.4,1.2,0.6,1.8h0.1
			c0.2-0.6,0.3-1.2,0.5-1.8l1-3.2h1.3l-2.3,6.6c-0.5,1.3-1.1,2.2-2.5,2.2C45.4,55.6,45.2,55.5,45,55.5z"/>
		<path d="M52,49.9c0-2.1,1.4-3.3,2.9-3.3s2.9,1.2,2.9,3.3s-1.4,3.3-2.9,3.3S52,51.9,52,49.9z M56.5,49.9c0-1.3-0.6-2.2-1.6-2.2
			c-1,0-1.6,0.9-1.6,2.2c0,1.3,0.6,2.2,1.6,2.2C55.9,52.1,56.5,51.2,56.5,49.9z"/>
		<path d="M60.1,50.7v-3.9h1.3v3.8c0,1.1,0.3,1.5,1,1.5c0.6,0,1-0.3,1.5-0.9v-4.3h1.3V53h-1.1L64.1,52h0c-0.6,0.7-1.2,1.1-2,1.1
			C60.7,53.1,60.1,52.3,60.1,50.7z"/>
		<path d="M68,46.8h1.1l0.1,1.1h0c0.4-0.8,1.1-1.3,1.8-1.3c0.3,0,0.5,0,0.7,0.1l-0.2,1.1c-0.2-0.1-0.4-0.1-0.6-0.1
			c-0.5,0-1.1,0.4-1.5,1.3V53H68V46.8z"/>
		<path d="M77,44.6h4.9v1.1h-3.6v2.3h3.1v1.1h-3.1v2.7h3.7V53h-5V44.6z"/>
		<path d="M84.5,46.8h1.1l0.1,0.9h0c0.6-0.6,1.2-1,2.1-1c1.3,0,1.9,0.9,1.9,2.5V53h-1.3v-3.8c0-1.1-0.3-1.5-1.1-1.5
			c-0.6,0-1,0.3-1.5,0.8V53h-1.3V46.8z"/>
		<path d="M92,54.1c0-0.5,0.3-1,0.9-1.4v-0.1c-0.3-0.2-0.6-0.5-0.6-1c0-0.5,0.4-0.9,0.7-1.2v0c-0.4-0.3-0.8-0.9-0.8-1.7
			c0-1.4,1.1-2.2,2.4-2.2c0.4,0,0.7,0.1,0.9,0.2h2.2v1h-1.2c0.2,0.2,0.4,0.7,0.4,1.1c0,1.4-1,2.1-2.3,2.1c-0.3,0-0.6-0.1-0.9-0.2
			c-0.2,0.2-0.3,0.4-0.3,0.7c0,0.4,0.2,0.6,1,0.6h1.1c1.5,0,2.2,0.5,2.2,1.5c0,1.2-1.3,2.2-3.3,2.2C93.1,55.8,92,55.2,92,54.1z
			 M96.6,53.8c0-0.5-0.4-0.7-1.2-0.7h-0.9c-0.3,0-0.6,0-0.8-0.1c-0.4,0.3-0.5,0.6-0.5,0.9c0,0.6,0.6,1,1.7,1
			C95.9,54.9,96.6,54.4,96.6,53.8z M95.8,48.8c0-0.8-0.5-1.3-1.2-1.3s-1.2,0.5-1.2,1.3c0,0.8,0.5,1.3,1.2,1.3S95.8,49.7,95.8,48.8z"
			/>
		<path d="M99.8,51.5V44h1.3v7.6c0,0.4,0.1,0.5,0.3,0.5c0.1,0,0.1,0,0.2,0l0.2,1c-0.2,0.1-0.4,0.1-0.7,0.1
			C100.2,53.1,99.8,52.5,99.8,51.5z"/>
		<path d="M103.9,44.8c0-0.5,0.3-0.8,0.8-0.8c0.5,0,0.8,0.3,0.8,0.8c0,0.5-0.3,0.8-0.8,0.8C104.2,45.6,103.9,45.3,103.9,44.8z
			 M104.1,46.8h1.3V53h-1.3V46.8z"/>
		<path d="M107.5,52.3l0.6-0.8c0.6,0.4,1.1,0.7,1.8,0.7c0.7,0,1.1-0.4,1.1-0.8c0-0.6-0.7-0.8-1.4-1.1c-0.8-0.3-1.8-0.8-1.8-1.8
			c0-1,0.8-1.8,2.2-1.8c0.8,0,1.5,0.3,2,0.7l-0.6,0.8c-0.4-0.3-0.9-0.5-1.4-0.5c-0.7,0-1,0.3-1,0.8c0,0.5,0.6,0.7,1.3,1
			c0.9,0.3,1.8,0.7,1.8,1.9c0,1-0.8,1.9-2.4,1.9C109,53.1,108.1,52.8,107.5,52.3z"/>
		<path d="M114.4,44h1.3v2.4l-0.1,1.2c0.5-0.5,1.2-1,2-1c1.3,0,1.9,0.9,1.9,2.5V53h-1.3v-3.8c0-1.1-0.3-1.5-1.1-1.5
			c-0.6,0-1,0.3-1.5,0.8V53h-1.3V44z"/>
		<path d="M125.7,46.8h1.1l0.1,1.1h0c0.4-0.8,1.1-1.3,1.8-1.3c0.3,0,0.5,0,0.7,0.1l-0.2,1.1c-0.2-0.1-0.4-0.1-0.6-0.1
			c-0.5,0-1.1,0.4-1.5,1.3V53h-1.3V46.8z"/>
		<path d="M130.6,49.9c0-2,1.4-3.3,2.8-3.3c1.7,0,2.5,1.2,2.5,2.9c0,0.3,0,0.5-0.1,0.7h-4c0.1,1.2,0.8,1.9,1.9,1.9
			c0.6,0,1-0.2,1.5-0.5l0.5,0.8c-0.6,0.4-1.3,0.7-2.1,0.7C132,53.1,130.6,51.9,130.6,49.9z M134.9,49.3c0-1.1-0.5-1.7-1.4-1.7
			c-0.8,0-1.5,0.6-1.6,1.7H134.9z"/>
		<path d="M137.8,51.3c0-1.3,1.1-2,3.7-2.3c0-0.7-0.3-1.4-1.2-1.4c-0.7,0-1.3,0.3-1.8,0.6l-0.5-0.9c0.6-0.4,1.5-0.8,2.5-0.8
			c1.6,0,2.3,1,2.3,2.6V53h-1.1l-0.1-0.7h0c-0.6,0.5-1.2,0.9-2,0.9C138.5,53.1,137.8,52.4,137.8,51.3z M141.5,51.4v-1.5
			c-1.8,0.2-2.5,0.7-2.5,1.4c0,0.6,0.4,0.9,1,0.9C140.5,52.1,141,51.8,141.5,51.4z"/>
		<path d="M145,49.9c0-2,1.3-3.3,2.7-3.3c0.7,0,1.2,0.3,1.7,0.7l-0.1-1V44h1.3v9h-1.1l-0.1-0.7h0c-0.5,0.5-1.1,0.8-1.8,0.8
			C146.1,53.1,145,51.9,145,49.9z M149.3,51.3v-3c-0.5-0.4-0.9-0.6-1.4-0.6c-0.9,0-1.6,0.8-1.6,2.2c0,1.4,0.6,2.2,1.5,2.2
			C148.4,52.1,148.9,51.8,149.3,51.3z"/>
		<path d="M153.3,44.8c0-0.5,0.3-0.8,0.8-0.8c0.5,0,0.8,0.3,0.8,0.8c0,0.5-0.3,0.8-0.8,0.8C153.6,45.6,153.3,45.3,153.3,44.8z
			 M153.4,46.8h1.3V53h-1.3V46.8z"/>
		<path d="M157.5,46.8h1.1l0.1,0.9h0c0.6-0.6,1.2-1,2.1-1c1.3,0,1.9,0.9,1.9,2.5V53h-1.3v-3.8c0-1.1-0.3-1.5-1.1-1.5
			c-0.6,0-1,0.3-1.5,0.8V53h-1.3V46.8z"/>
		<path d="M165,54.1c0-0.5,0.3-1,0.9-1.4v-0.1c-0.3-0.2-0.6-0.5-0.6-1c0-0.5,0.4-0.9,0.7-1.2v0c-0.4-0.3-0.8-0.9-0.8-1.7
			c0-1.4,1.1-2.2,2.4-2.2c0.4,0,0.7,0.1,0.9,0.2h2.2v1h-1.2c0.2,0.2,0.4,0.7,0.4,1.1c0,1.4-1,2.1-2.3,2.1c-0.3,0-0.6-0.1-0.9-0.2
			c-0.2,0.2-0.3,0.4-0.3,0.7c0,0.4,0.2,0.6,1,0.6h1.1c1.5,0,2.2,0.5,2.2,1.5c0,1.2-1.3,2.2-3.3,2.2C166.1,55.8,165,55.2,165,54.1z
			 M169.6,53.8c0-0.5-0.4-0.7-1.2-0.7h-0.9c-0.3,0-0.6,0-0.8-0.1c-0.4,0.3-0.5,0.6-0.5,0.9c0,0.6,0.6,1,1.7,1
			C168.8,54.9,169.6,54.4,169.6,53.8z M168.8,48.8c0-0.8-0.5-1.3-1.2-1.3c-0.7,0-1.2,0.5-1.2,1.3c0,0.8,0.5,1.3,1.2,1.3
			C168.3,50.2,168.8,49.7,168.8,48.8z"/>
		<path d="M175.8,49.9c0-2,1.4-3.3,2.8-3.3c1.7,0,2.5,1.2,2.5,2.9c0,0.3,0,0.5-0.1,0.7h-4c0.1,1.2,0.8,1.9,1.9,1.9
			c0.6,0,1-0.2,1.5-0.5l0.5,0.8c-0.6,0.4-1.3,0.7-2.1,0.7C177.1,53.1,175.8,51.9,175.8,49.9z M180,49.3c0-1.1-0.5-1.7-1.4-1.7
			c-0.8,0-1.5,0.6-1.6,1.7H180z"/>
		<path d="M184.5,49.7l-1.9-3h1.4l0.7,1.2c0.2,0.4,0.4,0.7,0.6,1.1h0c0.2-0.4,0.4-0.7,0.5-1.1l0.7-1.2h1.4l-1.9,3.1l2,3.1h-1.4
			l-0.8-1.3c-0.2-0.4-0.4-0.7-0.6-1.1h-0.1c-0.2,0.4-0.4,0.7-0.6,1.1l-0.7,1.3h-1.4L184.5,49.7z"/>
		<path d="M190.1,46.8h1.1l0.1,0.7h0c0.5-0.5,1.2-0.8,1.9-0.8c1.6,0,2.5,1.3,2.5,3.2c0,2.1-1.3,3.4-2.7,3.4c-0.6,0-1.1-0.2-1.6-0.7
			l0,1.1v2h-1.3V46.8z M194.4,49.8c0-1.3-0.4-2.1-1.5-2.1c-0.5,0-1,0.2-1.5,0.8v3c0.5,0.4,1,0.6,1.3,0.6
			C193.7,52.1,194.4,51.3,194.4,49.8z"/>
		<path d="M197.7,49.9c0-2,1.4-3.3,2.8-3.3c1.7,0,2.5,1.2,2.5,2.9c0,0.3,0,0.5-0.1,0.7h-4c0.1,1.2,0.8,1.9,1.9,1.9
			c0.6,0,1-0.2,1.5-0.5l0.5,0.8c-0.6,0.4-1.3,0.7-2.1,0.7C199,53.1,197.7,51.9,197.7,49.9z M201.9,49.3c0-1.1-0.5-1.7-1.4-1.7
			c-0.8,0-1.5,0.6-1.6,1.7H201.9z"/>
		<path d="M205.3,46.8h1.1l0.1,1.1h0c0.4-0.8,1.1-1.3,1.8-1.3c0.3,0,0.5,0,0.7,0.1l-0.2,1.1c-0.2-0.1-0.4-0.1-0.6-0.1
			c-0.5,0-1.1,0.4-1.5,1.3V53h-1.3V46.8z"/>
		<path d="M210.7,44.8c0-0.5,0.3-0.8,0.8-0.8c0.5,0,0.8,0.3,0.8,0.8c0,0.5-0.3,0.8-0.8,0.8C211,45.6,210.7,45.3,210.7,44.8z
			 M210.8,46.8h1.3V53h-1.3V46.8z"/>
		<path d="M214.5,49.9c0-2,1.4-3.3,2.8-3.3c1.7,0,2.5,1.2,2.5,2.9c0,0.3,0,0.5-0.1,0.7h-4c0.1,1.2,0.8,1.9,1.9,1.9
			c0.6,0,1-0.2,1.5-0.5l0.5,0.8c-0.6,0.4-1.3,0.7-2.1,0.7C215.8,53.1,214.5,51.9,214.5,49.9z M218.7,49.3c0-1.1-0.5-1.7-1.4-1.7
			c-0.8,0-1.5,0.6-1.6,1.7H218.7z"/>
		<path d="M222.2,46.8h1.1l0.1,0.9h0c0.6-0.6,1.2-1,2.1-1c1.3,0,1.9,0.9,1.9,2.5V53H226v-3.8c0-1.1-0.3-1.5-1.1-1.5
			c-0.6,0-1,0.3-1.5,0.8V53h-1.3V46.8z"/>
		<path d="M229.6,49.9c0-2.1,1.4-3.3,3.1-3.3c0.8,0,1.4,0.3,1.8,0.7l-0.6,0.8c-0.3-0.3-0.7-0.5-1.1-0.5c-1.1,0-1.8,0.9-1.8,2.2
			c0,1.3,0.7,2.2,1.8,2.2c0.5,0,1-0.2,1.4-0.6l0.5,0.9c-0.6,0.5-1.3,0.8-2,0.8C230.9,53.1,229.6,51.9,229.6,49.9z"/>
		<path d="M236,49.9c0-2,1.4-3.3,2.8-3.3c1.7,0,2.5,1.2,2.5,2.9c0,0.3,0,0.5-0.1,0.7h-4c0.1,1.2,0.8,1.9,1.9,1.9
			c0.6,0,1-0.2,1.5-0.5l0.5,0.8c-0.6,0.4-1.3,0.7-2.1,0.7C237.4,53.1,236,51.9,236,49.9z M240.3,49.3c0-1.1-0.5-1.7-1.4-1.7
			c-0.8,0-1.5,0.6-1.6,1.7H240.3z"/>
		<path d="M246.4,46.8h1.3l0.8,3.4c0.1,0.6,0.2,1.2,0.3,1.8h0c0.1-0.6,0.3-1.2,0.4-1.8l0.9-3.4h1.2l0.9,3.4c0.1,0.6,0.3,1.2,0.4,1.8
			h0c0.1-0.6,0.2-1.2,0.4-1.8l0.8-3.4h1.2l-1.6,6.2H252l-0.8-3.1c-0.1-0.6-0.3-1.2-0.4-1.8h-0.1c-0.1,0.6-0.2,1.2-0.4,1.8l-0.8,3.1
			h-1.5L246.4,46.8z"/>
		<path d="M257.1,44.8c0-0.5,0.3-0.8,0.8-0.8c0.5,0,0.8,0.3,0.8,0.8c0,0.5-0.3,0.8-0.8,0.8C257.5,45.6,257.1,45.3,257.1,44.8z
			 M257.3,46.8h1.3V53h-1.3V46.8z"/>
		<path d="M261.6,50.9v-3.1h-0.9v-1l1-0.1l0.1-1.7h1.1v1.7h1.6v1h-1.6V51c0,0.7,0.3,1.1,0.9,1.1c0.2,0,0.5-0.1,0.7-0.1l0.2,1
			c-0.4,0.1-0.8,0.2-1.2,0.2C262.1,53.1,261.6,52.3,261.6,50.9z"/>
		<path d="M266.7,44h1.3v2.4l-0.1,1.2c0.5-0.5,1.2-1,2-1c1.3,0,1.9,0.9,1.9,2.5V53h-1.3v-3.8c0-1.1-0.3-1.5-1.1-1.5
			c-0.6,0-1,0.3-1.5,0.8V53h-1.3V44z"/>
		<path d="M277.5,51.9l0.8-0.9c0.6,0.6,1.4,1,2.2,1c1,0,1.6-0.5,1.6-1.2c0-0.8-0.6-1-1.3-1.3l-1.2-0.5c-0.8-0.3-1.7-1-1.7-2.2
			c0-1.3,1.2-2.3,2.7-2.3c1,0,1.9,0.4,2.5,1.1l-0.7,0.8c-0.5-0.5-1.1-0.7-1.8-0.7c-0.8,0-1.4,0.4-1.4,1.1c0,0.7,0.7,1,1.3,1.3
			l1.1,0.5c1,0.4,1.7,1,1.7,2.3c0,1.3-1.1,2.4-2.9,2.4C279.3,53.1,278.3,52.7,277.5,51.9z"/>
		<path d="M285.7,46.8h1.1l0.1,0.9h0c0.5-0.6,1.2-1,1.9-1c0.9,0,1.4,0.4,1.7,1.1c0.6-0.7,1.2-1.1,2-1.1c1.3,0,1.9,0.9,1.9,2.5V53
			h-1.3v-3.8c0-1.1-0.3-1.5-1-1.5c-0.4,0-0.9,0.3-1.4,0.8V53h-1.3v-3.8c0-1.1-0.3-1.5-1-1.5c-0.4,0-0.9,0.3-1.4,0.8V53h-1.3V46.8z"
			/>
		<path d="M296.9,51.3c0-1.3,1.1-2,3.7-2.3c0-0.7-0.3-1.4-1.2-1.4c-0.7,0-1.3,0.3-1.8,0.6l-0.5-0.9c0.6-0.4,1.5-0.8,2.5-0.8
			c1.5,0,2.3,1,2.3,2.6V53h-1.1l-0.1-0.7h0c-0.6,0.5-1.2,0.9-2,0.9C297.6,53.1,296.9,52.4,296.9,51.3z M300.6,51.4v-1.5
			c-1.8,0.2-2.5,0.7-2.5,1.4c0,0.6,0.4,0.9,1,0.9C299.6,52.1,300.1,51.8,300.6,51.4z"/>
		<path d="M304.6,46.8h1.1l0.1,1.1h0c0.4-0.8,1.1-1.3,1.8-1.3c0.3,0,0.5,0,0.7,0.1l-0.2,1.1c-0.2-0.1-0.4-0.1-0.6-0.1
			c-0.5,0-1.1,0.4-1.5,1.3V53h-1.3V46.8z"/>
		<path d="M310.2,50.9v-3.1h-0.9v-1l1-0.1l0.1-1.7h1.1v1.7h1.6v1h-1.6V51c0,0.7,0.3,1.1,0.9,1.1c0.2,0,0.5-0.1,0.7-0.1l0.2,1
			c-0.4,0.1-0.8,0.2-1.2,0.2C310.7,53.1,310.2,52.3,310.2,50.9z"/>
		<path d="M315.5,44.6h2.7c1.7,0,3,0.6,3,2.4c0,1.3-0.7,2.1-1.7,2.4l2,3.5H320l-1.9-3.4h-1.3V53h-1.3V44.6z M318.1,48.6
			c1.2,0,1.9-0.5,1.9-1.5s-0.7-1.4-1.9-1.4h-1.3v2.9H318.1z"/>
		<path d="M323.1,49.9c0-2,1.4-3.3,2.8-3.3c1.7,0,2.5,1.2,2.5,2.9c0,0.3,0,0.5-0.1,0.7h-4c0.1,1.2,0.8,1.9,1.9,1.9
			c0.6,0,1-0.2,1.5-0.5l0.5,0.8c-0.6,0.4-1.3,0.7-2.1,0.7C324.4,53.1,323.1,51.9,323.1,49.9z M327.3,49.3c0-1.1-0.5-1.7-1.4-1.7
			c-0.8,0-1.5,0.6-1.6,1.7H327.3z"/>
		<path d="M330.2,51.3c0-1.3,1.1-2,3.7-2.3c0-0.7-0.3-1.4-1.2-1.4c-0.7,0-1.3,0.3-1.8,0.6l-0.5-0.9c0.6-0.4,1.5-0.8,2.5-0.8
			c1.5,0,2.3,1,2.3,2.6V53h-1.1l-0.1-0.7h0c-0.6,0.5-1.2,0.9-2,0.9C331,53.1,330.2,52.4,330.2,51.3z M333.9,51.4v-1.5
			c-1.8,0.2-2.5,0.7-2.5,1.4c0,0.6,0.4,0.9,1,0.9C333,52.1,333.4,51.8,333.9,51.4z"/>
		<path d="M337.5,49.9c0-2,1.3-3.3,2.7-3.3c0.7,0,1.2,0.3,1.7,0.7l-0.1-1V44h1.3v9H342l-0.1-0.7h0c-0.5,0.5-1.1,0.8-1.8,0.8
			C338.5,53.1,337.5,51.9,337.5,49.9z M341.8,51.3v-3c-0.5-0.4-0.9-0.6-1.4-0.6c-0.9,0-1.6,0.8-1.6,2.2c0,1.4,0.6,2.2,1.5,2.2
			C340.9,52.1,341.4,51.8,341.8,51.3z"/>
		<path d="M345.8,44.8c0-0.5,0.3-0.8,0.8-0.8c0.5,0,0.8,0.3,0.8,0.8c0,0.5-0.3,0.8-0.8,0.8C346.1,45.6,345.8,45.3,345.8,44.8z
			 M345.9,46.8h1.3V53h-1.3V46.8z"/>
		<path d="M350,46.8h1.1l0.1,0.9h0c0.6-0.6,1.2-1,2.1-1c1.3,0,1.9,0.9,1.9,2.5V53h-1.3v-3.8c0-1.1-0.3-1.5-1.1-1.5
			c-0.6,0-1,0.3-1.5,0.8V53H350V46.8z"/>
		<path d="M357.5,54.1c0-0.5,0.3-1,0.9-1.4v-0.1c-0.3-0.2-0.6-0.5-0.6-1c0-0.5,0.4-0.9,0.7-1.2v0c-0.4-0.3-0.8-0.9-0.8-1.7
			c0-1.4,1.1-2.2,2.4-2.2c0.4,0,0.7,0.1,0.9,0.2h2.2v1H362c0.2,0.2,0.4,0.7,0.4,1.1c0,1.4-1,2.1-2.3,2.1c-0.3,0-0.6-0.1-0.9-0.2
			c-0.2,0.2-0.3,0.4-0.3,0.7c0,0.4,0.2,0.6,1,0.6h1.1c1.5,0,2.2,0.5,2.2,1.5c0,1.2-1.3,2.2-3.3,2.2
			C358.5,55.8,357.5,55.2,357.5,54.1z M362,53.8c0-0.5-0.4-0.7-1.2-0.7h-0.9c-0.3,0-0.6,0-0.8-0.1c-0.4,0.3-0.5,0.6-0.5,0.9
			c0,0.6,0.6,1,1.7,1C361.3,54.9,362,54.4,362,53.8z M361.3,48.8c0-0.8-0.5-1.3-1.2-1.3c-0.7,0-1.2,0.5-1.2,1.3
			c0,0.8,0.5,1.3,1.2,1.3C360.7,50.2,361.3,49.7,361.3,48.8z"/>
		<path d="M364.8,49.3h3v1h-3V49.3z"/>
		<path d="M370.3,44.6h4.9v1.1h-3.6v2.3h3.1v1.1h-3.1v2.7h3.7V53h-5V44.6z"/>
		<path d="M377.8,46.8h1.1l0.1,0.9h0c0.6-0.6,1.2-1,2.1-1c1.3,0,1.9,0.9,1.9,2.5V53h-1.3v-3.8c0-1.1-0.3-1.5-1.1-1.5
			c-0.6,0-1,0.3-1.5,0.8V53h-1.3V46.8z"/>
		<path d="M385.3,54.1c0-0.5,0.3-1,0.9-1.4v-0.1c-0.3-0.2-0.6-0.5-0.6-1c0-0.5,0.4-0.9,0.7-1.2v0c-0.4-0.3-0.8-0.9-0.8-1.7
			c0-1.4,1.1-2.2,2.4-2.2c0.4,0,0.7,0.1,0.9,0.2h2.2v1h-1.2c0.2,0.2,0.4,0.7,0.4,1.1c0,1.4-1,2.1-2.3,2.1c-0.3,0-0.6-0.1-0.9-0.2
			c-0.2,0.2-0.3,0.4-0.3,0.7c0,0.4,0.2,0.6,1,0.6h1.1c1.5,0,2.2,0.5,2.2,1.5c0,1.2-1.3,2.2-3.3,2.2
			C386.4,55.8,385.3,55.2,385.3,54.1z M389.9,53.8c0-0.5-0.4-0.7-1.2-0.7h-0.9c-0.3,0-0.6,0-0.8-0.1c-0.4,0.3-0.5,0.6-0.5,0.9
			c0,0.6,0.6,1,1.7,1C389.1,54.9,389.9,54.4,389.9,53.8z M389.1,48.8c0-0.8-0.5-1.3-1.2-1.3c-0.7,0-1.2,0.5-1.2,1.3
			c0,0.8,0.5,1.3,1.2,1.3C388.5,50.2,389.1,49.7,389.1,48.8z"/>
		<path d="M393.1,51.5V44h1.3v7.6c0,0.4,0.1,0.5,0.3,0.5c0.1,0,0.1,0,0.2,0l0.2,1c-0.2,0.1-0.4,0.1-0.7,0.1
			C393.5,53.1,393.1,52.5,393.1,51.5z"/>
		<path d="M397.2,44.8c0-0.5,0.3-0.8,0.8-0.8c0.5,0,0.8,0.3,0.8,0.8c0,0.5-0.3,0.8-0.8,0.8C397.5,45.6,397.2,45.3,397.2,44.8z
			 M397.3,46.8h1.3V53h-1.3V46.8z"/>
		<path d="M400.8,52.3l0.6-0.8c0.6,0.4,1.1,0.7,1.8,0.7c0.7,0,1.1-0.4,1.1-0.8c0-0.6-0.7-0.8-1.4-1.1c-0.8-0.3-1.8-0.8-1.8-1.8
			c0-1,0.8-1.8,2.2-1.8c0.8,0,1.5,0.3,2,0.7l-0.6,0.8c-0.4-0.3-0.9-0.5-1.4-0.5c-0.7,0-1,0.3-1,0.8c0,0.5,0.6,0.7,1.3,1
			c0.9,0.3,1.8,0.7,1.8,1.9c0,1-0.8,1.9-2.4,1.9C402.2,53.1,401.4,52.8,400.8,52.3z"/>
		<path d="M407.7,44h1.3v2.4l-0.1,1.2c0.5-0.5,1.2-1,2-1c1.3,0,1.9,0.9,1.9,2.5V53h-1.3v-3.8c0-1.1-0.3-1.5-1.1-1.5
			c-0.6,0-1,0.3-1.5,0.8V53h-1.3V44z"/>
		<path d="M415.7,52.2c0-0.5,0.4-0.9,0.9-0.9c0.5,0,0.9,0.4,0.9,0.9c0,0.5-0.4,0.9-0.9,0.9C416,53.1,415.7,52.8,415.7,52.2z
			 M415.9,45.8l0-1.3h1.3l0,1.3l-0.2,4.5h-0.9L415.9,45.8z"/>
	</g>
	<g>
		<g>
			<image style="overflow:visible;" width="39" height="35" xlink:href="9CEC3BFC.png"  transform="matrix(1 0 0 1 -0.8999 1)">
			</image>
			<g>
				<image style="overflow:visible;" width="31" height="29" xlink:href="9CEC3BFE.png"  transform="matrix(1 0 0 1 3.1001 4)">
				</image>
				<g>
					<path d="M16.1,23c-3.1,1-6.5,1.9-9,2.6l-0.6-2.2c1.1-0.2,2.4-0.6,3.8-1v-5.6h-3v-2.2h3V9.7H7V7.5h8.6v2.2h-3.1v4.9h2.8v2.2
						h-2.8v5l3.2-0.9L16.1,23z M27.5,27.2c0.5,0,0.6-0.4,0.7-2.9c0.5,0.4,1.4,0.7,2,0.9c-0.2,3.2-0.8,4.1-2.4,4.1h-2.2
						c-2,0-2.5-0.7-2.5-2.7v-5.3H21c-0.5,4-1.7,6.8-6.8,8.4c-0.2-0.6-0.8-1.5-1.3-1.9c4.5-1.2,5.5-3.3,5.8-6.5h-2.1V7.3h12v13.9
						h-3.3v5.3c0,0.7,0.1,0.8,0.6,0.8H27.5z M18.9,11.3h7.5V9.2h-7.5V11.3z M18.9,15.2h7.5v-2.1h-7.5V15.2z M18.9,19.1h7.5V17h-7.5
						V19.1z"/>
				</g>
			</g>
		</g>
		<g>
			<image style="overflow:visible;" width="38" height="36" xlink:href="9CEC3BFA.png"  transform="matrix(1 0 0 1 26.1001 0)">
			</image>
			<g>
				<image style="overflow:visible;" width="30" height="30" xlink:href="9CEC3BFB.png"  transform="matrix(1 0 0 1 30.1 3)">
				</image>
				<g>
					<path d="M56.4,9.9v2.2H42.8c-0.9,1.8-1.8,3.5-3,5.1v12.1h-2.3v-9.4c-0.8,0.8-1.7,1.5-2.6,2.2c-0.3-0.6-0.8-1.6-1.2-2.2
						c2.8-1.9,4.9-4.7,6.5-7.8h-5.8V9.9h6.8c0.5-1.2,0.9-2.5,1.2-3.7l2.4,0.6c-0.3,1-0.7,2.1-1.1,3.1H56.4z M50,26.6h6.3v2.2h-15
						v-2.2h6.3v-6.5h-5.4v-2.2h5.4v-4.5H50v4.5h5.4v2.2H50V26.6z"/>
				</g>
			</g>
		</g>
		<g>
			<image style="overflow:visible;" width="38" height="36" xlink:href="9CEC3B08.png"  transform="matrix(1 0 0 1 54.1 0)">
			</image>
			<g>
				<image style="overflow:visible;" width="31" height="30" xlink:href="9CEC3B09.png"  transform="matrix(1 0 0 1 57.1 3)">
				</image>
				<g>
					<path d="M65.2,20.8c-0.6,2.3-1.5,4.8-2.5,6.3c-0.4-0.3-1.2-0.9-1.7-1.1c1-1.4,1.8-3.6,2.2-5.6L65.2,20.8z M72.6,11.3H61.2V9.2
						h5c-0.3-0.8-0.6-1.8-1-2.5l2.1-0.5c0.5,0.9,1,2.1,1.3,3h3.9V11.3z M68.2,19.3V27c0,1-0.2,1.5-0.8,1.8c-0.7,0.3-1.6,0.4-2.9,0.4
						c-0.1-0.6-0.4-1.4-0.7-1.9c0.8,0,1.6,0,1.9,0c0.3,0,0.4-0.1,0.4-0.3v-7.7h-3.7V13h9.2v6.3H68.2z M64.5,17.5h5v-2.6h-5V17.5z
						 M70.6,20.1c0.8,1.4,1.6,3.2,1.9,4.4l-1.8,0.8c-0.3-1.2-1-3.1-1.8-4.5L70.6,20.1z M81.5,27c0.3,0,0.5,0,0.6-0.1
						c0.2-0.1,0.3-0.3,0.3-0.7c0.1-0.5,0.1-1.5,0.1-2.7c0.4,0.4,1.2,0.8,1.8,1c-0.1,1.2-0.2,2.5-0.3,3c-0.2,0.5-0.5,0.9-0.9,1.1
						c-0.4,0.2-1,0.3-1.5,0.3h-1.6c-0.6,0-1.2-0.2-1.6-0.5c-0.4-0.4-0.6-0.8-0.6-2.5v-8.6c-0.7,4.7-2.1,9.1-5.4,12.1
						c-0.4-0.5-1.1-1.1-1.7-1.4c3.5-3.1,4.8-8.1,5.2-13.2h-3.1v-2.1h3.2c0.1-2.2,0.1-4.3,0.1-6.4h2.2c0,2-0.1,4.2-0.2,6.4h5.5v2.1
						h-5.7c-0.1,0.6-0.1,1.1-0.2,1.7h1.9V26c0,0.5,0,0.8,0.2,0.9c0.1,0.1,0.3,0.1,0.5,0.1H81.5z M81.6,12c-0.5-1.1-1.5-2.7-2.5-3.9
						l1.5-0.9c1,1.1,2.1,2.6,2.6,3.7L81.6,12z"/>
				</g>
			</g>
		</g>
		<g>
			<image style="overflow:visible;" width="38" height="36" xlink:href="9CEC3B0A.png"  transform="matrix(1 0 0 1 80.1 0)">
			</image>
			<g>
				<image style="overflow:visible;" width="31" height="30" xlink:href="9CEC3B0B.png"  transform="matrix(1 0 0 1 84.1 3)">
				</image>
				<g>
					<path d="M95,18.5c-0.4,2.1-0.9,4-1.6,5.5c1.6,2.5,4.5,2.8,8.8,2.8c2.6,0,6.5-0.1,9.2-0.4c-0.4,0.5-0.7,1.6-0.8,2.2
						c-2.4,0.2-5.6,0.2-8.4,0.2c-4.8,0-7.8-0.5-9.7-3.1c-0.9,1.5-2,2.7-3.3,3.5c-0.3-0.5-1.1-1.3-1.5-1.6c2.4-1.5,4.1-4.1,4.9-7.8
						h-2.5c-0.6,0-1.3,0.2-1.5,0.4c-0.1-0.5-0.6-1.6-0.8-2c0.4-0.1,0.8-0.3,1.2-0.8c0.5-0.5,1.8-2.2,2.8-3.7h-3.7V12h5.2l0.3-0.1
						l1.5,0.7c-1,1.4-2.7,3.9-4.1,5.6h2.4l0.4-0.1L95,18.5z M92.2,11.3c-0.7-1-2.1-2.8-3.2-4l1.8-1.1C91.9,7.4,93.3,9,94,10
						L92.2,11.3z M96.9,14.5c-0.6,0.8-1.1,1.5-1.7,2.1c-0.2-0.4-0.8-1.4-1.2-1.9c2-2.1,3.8-5.2,4.9-8.4l2,0.6
						c-0.4,1.1-0.9,2.2-1.4,3.3h4.4c-0.3-1-0.9-2.2-1.4-3.1l2-0.6c0.7,1.2,1.4,2.7,1.7,3.7h4.2v1.9H105v2.2h4.4v1.8H105v2.2h4.5v1.8
						H105v2.3h5.7v1.9H96.9V14.5z M102.9,12.2H99v2.2h3.9V12.2z M102.9,16.2H99v2.2h3.9V16.2z M102.9,20.2H99v2.3h3.9V20.2z"/>
				</g>
			</g>
		</g>
		<g>
			<image style="overflow:visible;" width="37" height="36" xlink:href="9CEC3B0D.png"  transform="matrix(1 0 0 1 108.1 0)">
			</image>
			<g>
				<image style="overflow:visible;" width="31" height="30" xlink:href="9CEC3B30.png"  transform="matrix(1 0 0 1 111.1 3)">
				</image>
				<g>
					<path d="M136,20.7c-0.8-0.9-2.2-2.1-3.6-3.3c-0.6,1-1.2,1.9-2,2.6c-0.4-0.3-1.3-0.9-1.9-1.2c2.3,3.1,6,5.9,9.8,7.4
						c-0.6,0.5-1.4,1.5-1.8,2.1c-3.3-1.5-6.4-4-8.8-7v8h-2.5v-7.9c-2.4,2.9-5.5,5.4-8.7,6.9c-0.4-0.6-1.1-1.5-1.7-2
						c4.1-1.6,8.1-5,10.4-8.5v-6h-9.4V9.5h9.4V6.2h2.5v3.3h9.7v2.3h-9.7v5.9c0.2,0.4,0.5,0.7,0.7,1.1c1.7-1.5,2.9-3.9,3.5-6.5
						l2.3,0.4c-0.2,1-0.5,1.9-0.9,2.8c1.5,1.2,3.4,2.6,4.4,3.6L136,20.7z M122.4,12.7c-0.3,1-0.6,1.9-0.9,2.8c1,0.9,2.1,1.8,2.7,2.5
						l-1.6,1.7c-0.5-0.6-1.2-1.4-2.1-2.1c-0.8,1.5-1.9,2.7-3,3.7c-0.4-0.4-1.3-1.2-1.8-1.5c2.2-1.7,3.8-4.3,4.5-7.5L122.4,12.7z"/>
				</g>
			</g>
		</g>
		<g>
			<image style="overflow:visible;" width="38" height="36" xlink:href="9CEC3B31.png"  transform="matrix(1 0 0 1 135.1 0)">
			</image>
			<g>
				<image style="overflow:visible;" width="30" height="30" xlink:href="9CEC3B32.png"  transform="matrix(1 0 0 1 139.1 3)">
				</image>
				<g>
					<path d="M163.9,17.6c-1.1,2.1-2.6,4-4.3,5.7c0.8,2.3,1.8,3.8,2.8,3.8c0.6,0,0.9-1.2,1-4.4c0.5,0.6,1.3,1.1,2,1.3
						c-0.4,4.3-1.2,5.4-3.2,5.4c-1.9,0-3.4-1.7-4.5-4.4c-1.6,1.3-3.2,2.5-5,3.4c-0.4-0.6-1-1.4-1.6-1.9c2.1-1,4-2.3,5.8-3.9
						c-0.6-2-1-4.5-1.3-7.1H150v3.5l4.2-0.8l0.2,2.1c-1.4,0.3-2.9,0.7-4.4,1v5c0,1.4-0.3,2.1-1.2,2.4c-0.9,0.4-2.3,0.5-4.3,0.5
						c-0.1-0.7-0.5-1.7-0.9-2.4c1.5,0.1,3,0.1,3.4,0c0.5,0,0.6-0.2,0.6-0.6V22c-1.8,0.4-3.4,0.7-4.9,1l-0.7-2.3
						c1.5-0.3,3.4-0.6,5.5-1v-4h-5.1v-2.2h5.1V10c-1.5,0.3-3,0.5-4.3,0.6c-0.1-0.5-0.4-1.4-0.7-1.9c3.5-0.5,7.5-1.3,10-2.2l1.6,2
						c-1.2,0.4-2.7,0.8-4.2,1.1v4h5.3c-0.2-2.3-0.3-4.6-0.3-7h2.4c0,2.4,0.1,4.8,0.3,7h7.2v2.2H158c0.3,1.9,0.6,3.6,0.9,5.1
						c1.1-1.3,2.1-2.7,2.9-4.1L163.9,17.6z M162.6,12.4c-0.7-1.2-2.3-3-3.8-4.3l1.8-1.2c1.4,1.2,3.1,2.9,3.9,4.1L162.6,12.4z"/>
				</g>
			</g>
		</g>
		<g>
			<image style="overflow:visible;" width="38" height="36" xlink:href="9CEC3B33.png"  transform="matrix(1 0 0 1 161.1 0)">
			</image>
			<g>
				<image style="overflow:visible;" width="30" height="30" xlink:href="9CEC3B34.png"  transform="matrix(1 0 0 1 165.1 3)">
				</image>
				<g>
					<path d="M176.1,6.9c-0.6,1.7-1.2,3.4-2,5v17.4h-2.2V16c-0.7,1-1.3,2-2,2.8c-0.2-0.6-0.8-1.9-1.2-2.5c2.1-2.4,4-6.2,5.2-10
						L176.1,6.9z M183.1,16.9h-4.7v12.4h-2.2V7.6h6.9V16.9z M178.4,9.4v1.9h2.9V9.4H178.4z M181.3,15.1v-2h-2.9v2H181.3z
						 M191.6,26.5c0,1.4-0.3,2-1.2,2.4c-0.9,0.4-2.4,0.4-4.8,0.4c-0.1-0.6-0.5-1.6-0.8-2.3c1.7,0.1,3.4,0.1,3.9,0.1
						c0.5,0,0.6-0.2,0.6-0.6v-9.6h-5V7.6h7.2V26.5z M186.3,9.4v1.9h3V9.4H186.3z M189.4,15.1v-2h-3v2H189.4z"/>
				</g>
			</g>
		</g>
		<g>
			<image style="overflow:visible;" width="36" height="36" xlink:href="9CEC3B3D.png"  transform="matrix(1 0 0 1 190.1 0)">
			</image>
			<g>
				<image style="overflow:visible;" width="28" height="30" xlink:href="9CEC3B3E.png"  transform="matrix(1 0 0 1 194.1 3)">
				</image>
				<g>
					<path d="M218.7,10.1c0,0,0,0.8,0,1.1c-0.4,11.4-0.7,15.3-1.7,16.5c-0.6,0.8-1.2,1.1-2.2,1.2c-0.9,0.1-2.4,0.1-3.8,0
						c-0.1-0.6-0.3-1.6-0.8-2.3c1.6,0.1,3.1,0.2,3.7,0.2c0.5,0,0.8-0.1,1.1-0.4c0.8-0.8,1.1-4.6,1.5-14.1h-5.9
						c-0.7,1.6-1.5,3.1-2.3,4.2c-0.4-0.4-1.3-1-1.8-1.3v11.6h-6.8v1.9h-2.1V10.3h2.8c0.4-1.2,0.7-2.9,0.9-4.1l2.5,0.4
						c-0.4,1.3-0.9,2.6-1.3,3.7h4V15c1.7-2.2,3-5.5,3.8-8.8l2.3,0.5c-0.3,1.2-0.6,2.3-1,3.4H218.7z M199.6,12.3v4.8h4.7v-4.8H199.6z
						 M204.3,24.7v-5.6h-4.7v5.6H204.3z M212.7,22.7c-0.7-1.5-2.3-4-3.7-5.8l1.8-1c1.3,1.7,3,4.1,3.8,5.6L212.7,22.7z"/>
				</g>
			</g>
		</g>
		<g>
			<image style="overflow:visible;" width="38" height="36" xlink:href="9CEC3B3F.png"  transform="matrix(1 0 0 1 216.1 0)">
			</image>
			<g>
				<image style="overflow:visible;" width="30" height="30" xlink:href="9CEC3B3A.png"  transform="matrix(1 0 0 1 220.1 3)">
				</image>
				<g>
					<path d="M235.5,22.2c-1,3-3.8,5.5-10.8,7.2c-0.3-0.5-0.9-1.4-1.4-1.9c6.1-1.3,8.6-3.1,9.6-5.3h-9.3V20h2.7v-6h7.3v-2.3h2.4V14
						h7.7v6h2.5v2.2H235.5z M228.7,10.6h-4.5v-2h4.5V6.2h2.3v2.4h3.3v2h-3.3v2.3h-2.3V10.6z M233.6,20c0.1-0.4,0.1-0.8,0.1-1.3V16
						h-5v4H233.6z M236.5,22.5c3.2,1.3,7.7,3.4,9.9,4.9l-1.2,1.9c-2.1-1.5-6.5-3.8-9.8-5.1L236.5,22.5z M239.1,10.6h-3.6v-2h3.6V6.2
						h2.4v2.3h4.3v2h-4.3v2.3h-2.4V10.6z M236,16v2.8c0,0.4,0,0.8-0.1,1.2h5.4v-4H236z"/>
				</g>
			</g>
		</g>
		<g>
			<image style="overflow:visible;" width="38" height="36" xlink:href="9CEC3B3C.png"  transform="matrix(1 0 0 1 243.1 0)">
			</image>
			<g>
				<image style="overflow:visible;" width="30" height="30" xlink:href="9CEC3B65.png"  transform="matrix(1 0 0 1 247.1 3)">
				</image>
				<g>
					<path d="M269.5,12.8c-1.3,3.8-3.2,6.9-5.6,9.4c2.7,2.2,6,3.8,9.9,4.8c-0.5,0.5-1.2,1.5-1.6,2.2c-4-1.1-7.4-2.9-10.1-5.2
						c-2.8,2.4-6.2,4.1-10.3,5.4c-0.3-0.6-1-1.7-1.5-2.2c4.1-1.1,7.4-2.6,10-4.8c-2.4-2.6-4.3-5.7-5.7-9.4h-3.9v-2.3h10.9
						c-0.3-1-1-2.6-1.7-3.8l2.5-0.7c0.7,1.2,1.5,2.8,1.9,3.8l-2.2,0.7h11.3v2.3H269.5z M257.1,12.8c1.2,3,2.9,5.6,5,7.8
						c2-2.1,3.6-4.7,4.7-7.8H257.1z"/>
				</g>
			</g>
		</g>
		<g>
			<image style="overflow:visible;" width="34" height="35" xlink:href="9CEC3B66.png"  transform="matrix(1 0 0 1 272.1 1)">
			</image>
			<g>
				<image style="overflow:visible;" width="28" height="29" xlink:href="9CEC3B67.png"  transform="matrix(1 0 0 1 275.1 4)">
				</image>
				<g>
					<path d="M280.9,14.4v14.9h-2.2V7.1h9.3v7.3H280.9z M280.9,8.7V10h5V8.7H280.9z M285.9,12.8v-1.4h-5v1.4H285.9z M299.6,26.6
						c0,1.2-0.2,1.7-0.9,2.1c-0.7,0.4-1.8,0.4-3.3,0.4c-0.1-0.4-0.2-1-0.4-1.6c-0.3,0.4-0.7,0.5-1.4,0.5h-1.9
						c-1.8,0-2.1-0.5-2.1-2.2v-2.5h-1.7c-0.4,2.6-1.5,4.2-4.7,5.2c-0.2-0.5-0.7-1.3-1.1-1.6c2.7-0.7,3.6-1.8,3.9-3.6h-1.6V19
						c-0.5,0.3-0.9,0.6-1.4,0.8c-0.4-0.4-1-0.9-1.4-1.2c1.8-0.9,3.8-2.3,4.7-3.7l1.8,0.6c-0.8,1-1.9,2.1-3,2.9h8.2
						c-1.1-0.9-2.4-1.8-3.6-2.5l1.3-1c1.8,1.1,4,2.7,5.2,3.8l-1.4,1.1c-0.3-0.4-0.7-0.7-1.2-1.1v4.5h-2.1v2.5c0,0.5,0.1,0.6,0.5,0.6
						h1.3c0.4,0,0.5-0.2,0.6-1.8c0.4,0.3,1.2,0.6,1.7,0.7c-0.1,0.8-0.2,1.4-0.4,1.8c0.8,0,1.4,0,1.7,0c0.3,0,0.4-0.1,0.4-0.5V14.4
						h-7.3V7.2h9.6V26.6z M286.2,21.8h5.6v-2h-5.6V21.8z M292.3,8.7v1.3h5.1V8.7H292.3z M297.4,12.8v-1.4h-5.1v1.4H297.4z"/>
				</g>
			</g>
		</g>
		<g>
			<image style="overflow:visible;" width="37" height="36" xlink:href="9CEC3B68.png"  transform="matrix(1 0 0 1 298.1 0)">
			</image>
			<g>
				<image style="overflow:visible;" width="30" height="30" xlink:href="9CEC3B69.png"  transform="matrix(1 0 0 1 301.1 3)">
				</image>
				<g>
					<path d="M312.8,12.2h-8.1v-1.9h4.1c-0.5-0.9-1.3-2.2-2.1-3.2l2-0.8c0.9,1,1.8,2.3,2.3,3.2l-1.7,0.8h3.6V12.2z M312.4,19h-6.9
						v-1.8h6.9V19z M312.2,27.9h-4.6V29h-1.9v-8.5h6.5V27.9z M305.7,15.6v-1.8h6.5v1.8H305.7z M307.5,22.4v3.7h2.7v-3.7H307.5z
						 M323,25.7c1.8,0.7,3.7,1.6,4.9,2.1l-1.3,1.6c-1.2-0.7-3.3-1.7-5.1-2.5l0.9-1.2h-4.7l1.6,1c-1.4,1.1-3.7,2.1-5.6,2.7
						c-0.4-0.4-1-1.1-1.5-1.4c1.8-0.5,3.9-1.4,5-2.2h-2.8v-7.4h12.1v7.4H323z M319.2,9h-5.6V7.5h5.6V6.2h2.3v1.3h6V9h-6v1.1h5.3v1.5
						h-12.3v-1.5h4.8V9z M313.7,12.4h13.6v5.1h-13.6V12.4z M315.6,16.3h2.1v-2.6h-2.1V16.3z M316.5,20.5h7.9v-0.9h-7.9V20.5z
						 M316.5,22.4h7.9v-0.9h-7.9V22.4z M316.5,24.4h7.9v-1h-7.9V24.4z M321.6,16.3v-2.6h-2.4v2.6H321.6z M325.3,13.7h-2.2v2.6h2.2
						V13.7z"/>
				</g>
			</g>
		</g>
		<g>
			<image style="overflow:visible;" width="38" height="36" xlink:href="9CEC3B6A.png"  transform="matrix(1 0 0 1 324.1 0)">
			</image>
			<g>
				<image style="overflow:visible;" width="30" height="30" xlink:href="9CEC3B6B.png"  transform="matrix(1 0 0 1 328.1 3)">
				</image>
				<g>
					<path d="M341.1,23.6c-1.8,2.2-5,4-8,4.9c-0.4-0.6-1-1.5-1.6-2c2.9-0.6,6-2.1,7.6-3.8L341.1,23.6z M344.6,20.1h10v1.9h-10v7.2
						h-2.3v-7.2h-10.1v-1.9h10.1v-1.4h2.3V20.1z M338.1,18.9c0-0.3-0.1-0.7-0.2-1.1c-3.9,0.6-4.6,0.7-5,0.9
						c-0.1-0.4-0.4-1.3-0.6-1.8c0.5-0.1,1-0.6,1.6-1.3c0.3-0.4,1-1.2,1.7-2.3c-1.8,0.2-2.3,0.4-2.6,0.5c-0.1-0.4-0.4-1.3-0.6-1.7
						c0.3-0.1,0.7-0.5,1-1c0.3-0.5,1.5-2.6,2.1-4.6l1.8,0.7c-0.7,1.6-1.5,3.3-2.4,4.6l1.8-0.2c0.5-0.8,0.9-1.5,1.2-2.3l1.7,0.9
						c-1.3,2.2-2.9,4.5-4.5,6.3l2.6-0.3c-0.1-0.6-0.3-1.2-0.4-1.7l1.6-0.3c0.4,1.4,0.8,3.1,0.9,4.3L338.1,18.9z M346.7,18.1H340V8.5
						h2c0.2-0.8,0.4-1.8,0.5-2.4l2.1,0.4c-0.3,0.7-0.6,1.4-0.8,2.1h2.8V18.1z M344.7,10.3H342v2.2h2.6V10.3z M344.7,14.1H342v2.2
						h2.6V14.1z M347.4,22.6c2.4,1.2,5.5,3.1,7.2,4.4l-1.5,1.7c-1.5-1.3-4.6-3.3-7.1-4.6L347.4,22.6z M353,19.1
						c-0.1-0.3-0.1-0.7-0.2-1.1c-3.9,0.5-4.6,0.7-5,0.8c-0.1-0.4-0.4-1.3-0.6-1.8c0.5-0.1,1-0.6,1.6-1.3c0.3-0.4,1-1.2,1.8-2.3
						c-2.1,0.3-2.6,0.4-2.9,0.6c-0.1-0.4-0.4-1.3-0.6-1.8c0.4-0.1,0.7-0.5,1-1.1c0.4-0.6,1.5-2.7,2.1-4.7L352,7
						c-0.7,1.7-1.6,3.5-2.5,4.8l2.1-0.2c0.4-0.7,0.8-1.4,1.2-2.1l1.8,1c-1.3,2.2-3,4.5-4.6,6.3l2.6-0.3c-0.1-0.6-0.3-1.1-0.5-1.6
						l1.5-0.4c0.4,1.3,0.9,2.9,1.1,4.1L353,19.1z"/>
				</g>
			</g>
		</g>
		<g>
			<image style="overflow:visible;" width="36" height="35" xlink:href="9CEC3B6C.png"  transform="matrix(1 0 0 1 352.1 1)">
			</image>
			<g>
				<image style="overflow:visible;" width="28" height="29" xlink:href="9CEC3B6D.png"  transform="matrix(1 0 0 1 356.1 4)">
				</image>
				<g>
					<path d="M380.9,7.3v22.1h-2.3v-1h-16.5v1h-2.2V7.3H380.9z M378.7,26.3V9.4h-16.5v16.9H378.7z M371.3,23c-0.1,0.4-0.1,1.1,0,1.4
						c-4.5,1.2-5.2,1.4-5.6,1.7c-0.1-0.4-0.4-1.1-0.6-1.3c0.4-0.2,0.9-0.4,0.9-1.4V22c-0.8,0.3-1.6,0.6-2.4,0.8
						c-0.2-0.4-0.8-1-1.1-1.4c1.8-0.4,3.8-1.1,5.3-1.8h-3.2v-3.7h11.6v3.7h-5.7c-0.8,0.6-1.7,1.1-2.7,1.6v2.6L371.3,23z M377.6,15.1
						h-14.4v-1.4h6.1v-1.3h-4.7V11h4.7V9.8h2.1V11h5v1.4h-5v1.3h6.2V15.1z M366.6,18.5h7.6v-1.4h-7.6V18.5z M377.7,20.9
						c-0.8,0.6-1.7,1.1-2.5,1.5c1,0.7,1.9,1.4,2.6,2l-1.5,0.9c-1.4-1.2-4.2-3.2-6.4-4.5l1.4-0.8c0.8,0.5,1.7,1,2.6,1.6
						c0.9-0.5,1.8-1.1,2.3-1.6L377.7,20.9z"/>
				</g>
			</g>
		</g>
		<g>
			<image style="overflow:visible;" width="36" height="34" xlink:href="9CEC3B6E.png"  transform="matrix(1 0 0 1 380.1 1)">
			</image>
			<g>
				<image style="overflow:visible;" width="30" height="28" xlink:href="9CEC3B7D.png"  transform="matrix(1 0 0 1 383.1 4)">
				</image>
				<g>
					<path d="M393.9,22.8H389v2.3h-2.1V8.5h7V22.8z M389,10.7v9.9h2.7v-9.9H389z M405.3,26.8c1.4,0,1.6-0.7,1.8-3.4
						c0.6,0.4,1.5,0.8,2.1,0.9c-0.4,3.5-1.1,4.6-3.8,4.6h-5.7c-3,0-4-0.7-4-3.9V7.8h12.5v13.4H406v-1.5h-7.9V25
						c0,1.5,0.3,1.8,1.8,1.8H405.3z M398.1,10v7.6h2.8V10H398.1z M406,10H403v7.6h2.9V10z"/>
				</g>
			</g>
		</g>
		<g>
			<image style="overflow:visible;" width="19" height="32" xlink:href="9CEC3B72.png"  transform="matrix(1 0 0 1 407.0999 2)">
			</image>
			<g>
				<image style="overflow:visible;" width="11" height="26" xlink:href="9CEC3B75.png"  transform="matrix(1 0 0 1 411.0999 5)">
				</image>
				<g>
					<path d="M414.4,25.7c0-1.2,0.8-2.1,1.9-2.1c1.1,0,2,0.9,2,2.1c0,1.2-0.9,2-2,2C415.2,27.7,414.4,26.9,414.4,25.7z M415,11.4
						l-0.1-3h2.9l-0.1,3l-0.4,10.1h-1.9L415,11.4z"/>
				</g>
			</g>
		</g>
		<path d="M16.1,23c-3.1,1-6.5,1.9-9,2.6l-0.6-2.2c1.1-0.2,2.4-0.6,3.8-1v-5.6h-3v-2.2h3V9.7H7V7.5h8.6v2.2h-3.1v4.9h2.8v2.2h-2.8v5
			l3.2-0.9L16.1,23z M27.5,27.2c0.5,0,0.6-0.4,0.7-2.9c0.5,0.4,1.4,0.7,2,0.9c-0.2,3.2-0.8,4.1-2.4,4.1h-2.2c-2,0-2.5-0.7-2.5-2.7
			v-5.3H21c-0.5,4-1.7,6.8-6.8,8.4c-0.2-0.6-0.8-1.5-1.3-1.9c4.5-1.2,5.5-3.3,5.8-6.5h-2.1V7.3h12v13.9h-3.3v5.3
			c0,0.7,0.1,0.8,0.6,0.8H27.5z M18.9,11.3h7.5V9.2h-7.5V11.3z M18.9,15.2h7.5v-2.1h-7.5V15.2z M18.9,19.1h7.5V17h-7.5V19.1z"/>
		<path d="M56.4,9.9v2.2H42.8c-0.9,1.8-1.8,3.5-3,5.1v12.1h-2.3v-9.4c-0.8,0.8-1.7,1.5-2.6,2.2c-0.3-0.6-0.8-1.6-1.2-2.2
			c2.8-1.9,4.9-4.7,6.5-7.8h-5.8V9.9h6.8c0.5-1.2,0.9-2.5,1.2-3.7l2.4,0.6c-0.3,1-0.7,2.1-1.1,3.1H56.4z M50,26.6h6.3v2.2h-15v-2.2
			h6.3v-6.5h-5.4v-2.2h5.4v-4.5H50v4.5h5.4v2.2H50V26.6z"/>
		<path d="M65.2,20.8c-0.6,2.3-1.5,4.8-2.5,6.3c-0.4-0.3-1.2-0.9-1.7-1.1c1-1.4,1.8-3.6,2.2-5.6L65.2,20.8z M72.6,11.3H61.2V9.2h5
			c-0.3-0.8-0.6-1.8-1-2.5l2.1-0.5c0.5,0.9,1,2.1,1.3,3h3.9V11.3z M68.2,19.3V27c0,1-0.2,1.5-0.8,1.8c-0.7,0.3-1.6,0.4-2.9,0.4
			c-0.1-0.6-0.4-1.4-0.7-1.9c0.8,0,1.6,0,1.9,0c0.3,0,0.4-0.1,0.4-0.3v-7.7h-3.7V13h9.2v6.3H68.2z M64.5,17.5h5v-2.6h-5V17.5z
			 M70.6,20.1c0.8,1.4,1.6,3.2,1.9,4.4l-1.8,0.8c-0.3-1.2-1-3.1-1.8-4.5L70.6,20.1z M81.5,27c0.3,0,0.5,0,0.6-0.1
			c0.2-0.1,0.3-0.3,0.3-0.7c0.1-0.5,0.1-1.5,0.1-2.7c0.4,0.4,1.2,0.8,1.8,1c-0.1,1.2-0.2,2.5-0.3,3c-0.2,0.5-0.5,0.9-0.9,1.1
			c-0.4,0.2-1,0.3-1.5,0.3h-1.6c-0.6,0-1.2-0.2-1.6-0.5c-0.4-0.4-0.6-0.8-0.6-2.5v-8.6c-0.7,4.7-2.1,9.1-5.4,12.1
			c-0.4-0.5-1.1-1.1-1.7-1.4c3.5-3.1,4.8-8.1,5.2-13.2h-3.1v-2.1h3.2c0.1-2.2,0.1-4.3,0.1-6.4h2.2c0,2-0.1,4.2-0.2,6.4h5.5v2.1h-5.7
			c-0.1,0.6-0.1,1.1-0.2,1.7h1.9V26c0,0.5,0,0.8,0.2,0.9c0.1,0.1,0.3,0.1,0.5,0.1H81.5z M81.6,12c-0.5-1.1-1.5-2.7-2.5-3.9l1.5-0.9
			c1,1.1,2.1,2.6,2.6,3.7L81.6,12z"/>
		<path d="M95,18.5c-0.4,2.1-0.9,4-1.6,5.5c1.6,2.5,4.5,2.8,8.8,2.8c2.6,0,6.5-0.1,9.2-0.4c-0.4,0.5-0.7,1.6-0.8,2.2
			c-2.4,0.2-5.6,0.2-8.4,0.2c-4.8,0-7.8-0.5-9.7-3.1c-0.9,1.5-2,2.7-3.3,3.5c-0.3-0.5-1.1-1.3-1.5-1.6c2.4-1.5,4.1-4.1,4.9-7.8h-2.5
			c-0.6,0-1.3,0.2-1.5,0.4c-0.1-0.5-0.6-1.6-0.8-2c0.4-0.1,0.8-0.3,1.2-0.8c0.5-0.5,1.8-2.2,2.8-3.7h-3.7V12h5.2l0.3-0.1l1.5,0.7
			c-1,1.4-2.7,3.9-4.1,5.6h2.4l0.4-0.1L95,18.5z M92.2,11.3c-0.7-1-2.1-2.8-3.2-4l1.8-1.1C91.9,7.4,93.3,9,94,10L92.2,11.3z
			 M96.9,14.5c-0.6,0.8-1.1,1.5-1.7,2.1c-0.2-0.4-0.8-1.4-1.2-1.9c2-2.1,3.8-5.2,4.9-8.4l2,0.6c-0.4,1.1-0.9,2.2-1.4,3.3h4.4
			c-0.3-1-0.9-2.2-1.4-3.1l2-0.6c0.7,1.2,1.4,2.7,1.7,3.7h4.2v1.9H105v2.2h4.4v1.8H105v2.2h4.5v1.8H105v2.3h5.7v1.9H96.9V14.5z
			 M102.9,12.2H99v2.2h3.9V12.2z M102.9,16.2H99v2.2h3.9V16.2z M102.9,20.2H99v2.3h3.9V20.2z"/>
		<path d="M136,20.7c-0.8-0.9-2.2-2.1-3.6-3.3c-0.6,1-1.2,1.9-2,2.6c-0.4-0.3-1.3-0.9-1.9-1.2c2.3,3.1,6,5.9,9.8,7.4
			c-0.6,0.5-1.4,1.5-1.8,2.1c-3.3-1.5-6.4-4-8.8-7v8h-2.5v-7.9c-2.4,2.9-5.5,5.4-8.7,6.9c-0.4-0.6-1.1-1.5-1.7-2
			c4.1-1.6,8.1-5,10.4-8.5v-6h-9.4V9.5h9.4V6.2h2.5v3.3h9.7v2.3h-9.7v5.9c0.2,0.4,0.5,0.7,0.7,1.1c1.7-1.5,2.9-3.9,3.5-6.5l2.3,0.4
			c-0.2,1-0.5,1.9-0.9,2.8c1.5,1.2,3.4,2.6,4.4,3.6L136,20.7z M122.4,12.7c-0.3,1-0.6,1.9-0.9,2.8c1,0.9,2.1,1.8,2.7,2.5l-1.6,1.7
			c-0.5-0.6-1.2-1.4-2.1-2.1c-0.8,1.5-1.9,2.7-3,3.7c-0.4-0.4-1.3-1.2-1.8-1.5c2.2-1.7,3.8-4.3,4.5-7.5L122.4,12.7z"/>
		<path d="M163.9,17.6c-1.1,2.1-2.6,4-4.3,5.7c0.8,2.3,1.8,3.8,2.8,3.8c0.6,0,0.9-1.2,1-4.4c0.5,0.6,1.3,1.1,2,1.3
			c-0.4,4.3-1.2,5.4-3.2,5.4c-1.9,0-3.4-1.7-4.5-4.4c-1.6,1.3-3.2,2.5-5,3.4c-0.4-0.6-1-1.4-1.6-1.9c2.1-1,4-2.3,5.8-3.9
			c-0.6-2-1-4.5-1.3-7.1H150v3.5l4.2-0.8l0.2,2.1c-1.4,0.3-2.9,0.7-4.4,1v5c0,1.4-0.3,2.1-1.2,2.4c-0.9,0.4-2.3,0.5-4.3,0.5
			c-0.1-0.7-0.5-1.7-0.9-2.4c1.5,0.1,3,0.1,3.4,0c0.5,0,0.6-0.2,0.6-0.6V22c-1.8,0.4-3.4,0.7-4.9,1l-0.7-2.3c1.5-0.3,3.4-0.6,5.5-1
			v-4h-5.1v-2.2h5.1V10c-1.5,0.3-3,0.5-4.3,0.6c-0.1-0.5-0.4-1.4-0.7-1.9c3.5-0.5,7.5-1.3,10-2.2l1.6,2c-1.2,0.4-2.7,0.8-4.2,1.1v4
			h5.3c-0.2-2.3-0.3-4.6-0.3-7h2.4c0,2.4,0.1,4.8,0.3,7h7.2v2.2H158c0.3,1.9,0.6,3.6,0.9,5.1c1.1-1.3,2.1-2.7,2.9-4.1L163.9,17.6z
			 M162.6,12.4c-0.7-1.2-2.3-3-3.8-4.3l1.8-1.2c1.4,1.2,3.1,2.9,3.9,4.1L162.6,12.4z"/>
		<path d="M176.1,6.9c-0.6,1.7-1.2,3.4-2,5v17.4h-2.2V16c-0.7,1-1.3,2-2,2.8c-0.2-0.6-0.8-1.9-1.2-2.5c2.1-2.4,4-6.2,5.2-10
			L176.1,6.9z M183.1,16.9h-4.7v12.4h-2.2V7.6h6.9V16.9z M178.4,9.4v1.9h2.9V9.4H178.4z M181.3,15.1v-2h-2.9v2H181.3z M191.6,26.5
			c0,1.4-0.3,2-1.2,2.4c-0.9,0.4-2.4,0.4-4.8,0.4c-0.1-0.6-0.5-1.6-0.8-2.3c1.7,0.1,3.4,0.1,3.9,0.1c0.5,0,0.6-0.2,0.6-0.6v-9.6h-5
			V7.6h7.2V26.5z M186.3,9.4v1.9h3V9.4H186.3z M189.4,15.1v-2h-3v2H189.4z"/>
		<path d="M218.7,10.1c0,0,0,0.8,0,1.1c-0.4,11.4-0.7,15.3-1.7,16.5c-0.6,0.8-1.2,1.1-2.2,1.2c-0.9,0.1-2.4,0.1-3.8,0
			c-0.1-0.6-0.3-1.6-0.8-2.3c1.6,0.1,3.1,0.2,3.7,0.2c0.5,0,0.8-0.1,1.1-0.4c0.8-0.8,1.1-4.6,1.5-14.1h-5.9
			c-0.7,1.6-1.5,3.1-2.3,4.2c-0.4-0.4-1.3-1-1.8-1.3v11.6h-6.8v1.9h-2.1V10.3h2.8c0.4-1.2,0.7-2.9,0.9-4.1l2.5,0.4
			c-0.4,1.3-0.9,2.6-1.3,3.7h4V15c1.7-2.2,3-5.5,3.8-8.8l2.3,0.5c-0.3,1.2-0.6,2.3-1,3.4H218.7z M199.6,12.3v4.8h4.7v-4.8H199.6z
			 M204.3,24.7v-5.6h-4.7v5.6H204.3z M212.7,22.7c-0.7-1.5-2.3-4-3.7-5.8l1.8-1c1.3,1.7,3,4.1,3.8,5.6L212.7,22.7z"/>
		<path d="M235.5,22.2c-1,3-3.8,5.5-10.8,7.2c-0.3-0.5-0.9-1.4-1.4-1.9c6.1-1.3,8.6-3.1,9.6-5.3h-9.3V20h2.7v-6h7.3v-2.3h2.4V14h7.7
			v6h2.5v2.2H235.5z M228.7,10.6h-4.5v-2h4.5V6.2h2.3v2.4h3.3v2h-3.3v2.3h-2.3V10.6z M233.6,20c0.1-0.4,0.1-0.8,0.1-1.3V16h-5v4
			H233.6z M236.5,22.5c3.2,1.3,7.7,3.4,9.9,4.9l-1.2,1.9c-2.1-1.5-6.5-3.8-9.8-5.1L236.5,22.5z M239.1,10.6h-3.6v-2h3.6V6.2h2.4v2.3
			h4.3v2h-4.3v2.3h-2.4V10.6z M236,16v2.8c0,0.4,0,0.8-0.1,1.2h5.4v-4H236z"/>
		<path d="M269.5,12.8c-1.3,3.8-3.2,6.9-5.6,9.4c2.7,2.2,6,3.8,9.9,4.8c-0.5,0.5-1.2,1.5-1.6,2.2c-4-1.1-7.4-2.9-10.1-5.2
			c-2.8,2.4-6.2,4.1-10.3,5.4c-0.3-0.6-1-1.7-1.5-2.2c4.1-1.1,7.4-2.6,10-4.8c-2.4-2.6-4.3-5.7-5.7-9.4h-3.9v-2.3h10.9
			c-0.3-1-1-2.6-1.7-3.8l2.5-0.7c0.7,1.2,1.5,2.8,1.9,3.8l-2.2,0.7h11.3v2.3H269.5z M257.1,12.8c1.2,3,2.9,5.6,5,7.8
			c2-2.1,3.6-4.7,4.7-7.8H257.1z"/>
		<path d="M280.9,14.4v14.9h-2.2V7.1h9.3v7.3H280.9z M280.9,8.7V10h5V8.7H280.9z M285.9,12.8v-1.4h-5v1.4H285.9z M299.6,26.6
			c0,1.2-0.2,1.7-0.9,2.1c-0.7,0.4-1.8,0.4-3.3,0.4c-0.1-0.4-0.2-1-0.4-1.6c-0.3,0.4-0.7,0.5-1.4,0.5h-1.9c-1.8,0-2.1-0.5-2.1-2.2
			v-2.5h-1.7c-0.4,2.6-1.5,4.2-4.7,5.2c-0.2-0.5-0.7-1.3-1.1-1.6c2.7-0.7,3.6-1.8,3.9-3.6h-1.6V19c-0.5,0.3-0.9,0.6-1.4,0.8
			c-0.4-0.4-1-0.9-1.4-1.2c1.8-0.9,3.8-2.3,4.7-3.7l1.8,0.6c-0.8,1-1.9,2.1-3,2.9h8.2c-1.1-0.9-2.4-1.8-3.6-2.5l1.3-1
			c1.8,1.1,4,2.7,5.2,3.8l-1.4,1.1c-0.3-0.4-0.7-0.7-1.2-1.1v4.5h-2.1v2.5c0,0.5,0.1,0.6,0.5,0.6h1.3c0.4,0,0.5-0.2,0.6-1.8
			c0.4,0.3,1.2,0.6,1.7,0.7c-0.1,0.8-0.2,1.4-0.4,1.8c0.8,0,1.4,0,1.7,0c0.3,0,0.4-0.1,0.4-0.5V14.4h-7.3V7.2h9.6V26.6z M286.2,21.8
			h5.6v-2h-5.6V21.8z M292.3,8.7v1.3h5.1V8.7H292.3z M297.4,12.8v-1.4h-5.1v1.4H297.4z"/>
		<path d="M312.8,12.2h-8.1v-1.9h4.1c-0.5-0.9-1.3-2.2-2.1-3.2l2-0.8c0.9,1,1.8,2.3,2.3,3.2l-1.7,0.8h3.6V12.2z M312.4,19h-6.9v-1.8
			h6.9V19z M312.2,27.9h-4.6V29h-1.9v-8.5h6.5V27.9z M305.7,15.6v-1.8h6.5v1.8H305.7z M307.5,22.4v3.7h2.7v-3.7H307.5z M323,25.7
			c1.8,0.7,3.7,1.6,4.9,2.1l-1.3,1.6c-1.2-0.7-3.3-1.7-5.1-2.5l0.9-1.2h-4.7l1.6,1c-1.4,1.1-3.7,2.1-5.6,2.7c-0.4-0.4-1-1.1-1.5-1.4
			c1.8-0.5,3.9-1.4,5-2.2h-2.8v-7.4h12.1v7.4H323z M319.2,9h-5.6V7.5h5.6V6.2h2.3v1.3h6V9h-6v1.1h5.3v1.5h-12.3v-1.5h4.8V9z
			 M313.7,12.4h13.6v5.1h-13.6V12.4z M315.6,16.3h2.1v-2.6h-2.1V16.3z M316.5,20.5h7.9v-0.9h-7.9V20.5z M316.5,22.4h7.9v-0.9h-7.9
			V22.4z M316.5,24.4h7.9v-1h-7.9V24.4z M321.6,16.3v-2.6h-2.4v2.6H321.6z M325.3,13.7h-2.2v2.6h2.2V13.7z"/>
		<path d="M341.1,23.6c-1.8,2.2-5,4-8,4.9c-0.4-0.6-1-1.5-1.6-2c2.9-0.6,6-2.1,7.6-3.8L341.1,23.6z M344.6,20.1h10v1.9h-10v7.2h-2.3
			v-7.2h-10.1v-1.9h10.1v-1.4h2.3V20.1z M338.1,18.9c0-0.3-0.1-0.7-0.2-1.1c-3.9,0.6-4.6,0.7-5,0.9c-0.1-0.4-0.4-1.3-0.6-1.8
			c0.5-0.1,1-0.6,1.6-1.3c0.3-0.4,1-1.2,1.7-2.3c-1.8,0.2-2.3,0.4-2.6,0.5c-0.1-0.4-0.4-1.3-0.6-1.7c0.3-0.1,0.7-0.5,1-1
			c0.3-0.5,1.5-2.6,2.1-4.6l1.8,0.7c-0.7,1.6-1.5,3.3-2.4,4.6l1.8-0.2c0.5-0.8,0.9-1.5,1.2-2.3l1.7,0.9c-1.3,2.2-2.9,4.5-4.5,6.3
			l2.6-0.3c-0.1-0.6-0.3-1.2-0.4-1.7l1.6-0.3c0.4,1.4,0.8,3.1,0.9,4.3L338.1,18.9z M346.7,18.1H340V8.5h2c0.2-0.8,0.4-1.8,0.5-2.4
			l2.1,0.4c-0.3,0.7-0.6,1.4-0.8,2.1h2.8V18.1z M344.7,10.3H342v2.2h2.6V10.3z M344.7,14.1H342v2.2h2.6V14.1z M347.4,22.6
			c2.4,1.2,5.5,3.1,7.2,4.4l-1.5,1.7c-1.5-1.3-4.6-3.3-7.1-4.6L347.4,22.6z M353,19.1c-0.1-0.3-0.1-0.7-0.2-1.1
			c-3.9,0.5-4.6,0.7-5,0.8c-0.1-0.4-0.4-1.3-0.6-1.8c0.5-0.1,1-0.6,1.6-1.3c0.3-0.4,1-1.2,1.8-2.3c-2.1,0.3-2.6,0.4-2.9,0.6
			c-0.1-0.4-0.4-1.3-0.6-1.8c0.4-0.1,0.7-0.5,1-1.1c0.4-0.6,1.5-2.7,2.1-4.7L352,7c-0.7,1.7-1.6,3.5-2.5,4.8l2.1-0.2
			c0.4-0.7,0.8-1.4,1.2-2.1l1.8,1c-1.3,2.2-3,4.5-4.6,6.3l2.6-0.3c-0.1-0.6-0.3-1.1-0.5-1.6l1.5-0.4c0.4,1.3,0.9,2.9,1.1,4.1
			L353,19.1z"/>
		<path d="M380.9,7.3v22.1h-2.3v-1h-16.5v1h-2.2V7.3H380.9z M378.7,26.3V9.4h-16.5v16.9H378.7z M371.3,23c-0.1,0.4-0.1,1.1,0,1.4
			c-4.5,1.2-5.2,1.4-5.6,1.7c-0.1-0.4-0.4-1.1-0.6-1.3c0.4-0.2,0.9-0.4,0.9-1.4V22c-0.8,0.3-1.6,0.6-2.4,0.8c-0.2-0.4-0.8-1-1.1-1.4
			c1.8-0.4,3.8-1.1,5.3-1.8h-3.2v-3.7h11.6v3.7h-5.7c-0.8,0.6-1.7,1.1-2.7,1.6v2.6L371.3,23z M377.6,15.1h-14.4v-1.4h6.1v-1.3h-4.7
			V11h4.7V9.8h2.1V11h5v1.4h-5v1.3h6.2V15.1z M366.6,18.5h7.6v-1.4h-7.6V18.5z M377.7,20.9c-0.8,0.6-1.7,1.1-2.5,1.5
			c1,0.7,1.9,1.4,2.6,2l-1.5,0.9c-1.4-1.2-4.2-3.2-6.4-4.5l1.4-0.8c0.8,0.5,1.7,1,2.6,1.6c0.9-0.5,1.8-1.1,2.3-1.6L377.7,20.9z"/>
		<path d="M393.9,22.8H389v2.3h-2.1V8.5h7V22.8z M389,10.7v9.9h2.7v-9.9H389z M405.3,26.8c1.4,0,1.6-0.7,1.8-3.4
			c0.6,0.4,1.5,0.8,2.1,0.9c-0.4,3.5-1.1,4.6-3.8,4.6h-5.7c-3,0-4-0.7-4-3.9V7.8h12.5v13.4H406v-1.5h-7.9V25c0,1.5,0.3,1.8,1.8,1.8
			H405.3z M398.1,10v7.6h2.8V10H398.1z M406,10H403v7.6h2.9V10z"/>
		<path d="M414.4,25.7c0-1.2,0.8-2.1,1.9-2.1c1.1,0,2,0.9,2,2.1c0,1.2-0.9,2-2,2C415.2,27.7,414.4,26.9,414.4,25.7z M415,11.4
			l-0.1-3h2.9l-0.1,3l-0.4,10.1h-1.9L415,11.4z"/>
	</g>
</g>
</svg>
