<?xml version="1.0" encoding="utf-8"?>
<!-- Generator: Adobe Illustrator 26.3.1, SVG Export Plug-In . SVG Version: 6.00 Build 0)  -->
<svg version="1.1" id="圖層_1" xmlns="http://www.w3.org/2000/svg" xmlns:xlink="http://www.w3.org/1999/xlink" x="0px" y="0px"
	 viewBox="0 0 425.2 53.6" style="enable-background:new 0 0 425.2 53.6;" xml:space="preserve">
<text transform="matrix(1 0 0 1 4.167557e-03 -118.5946)" style="font-family:'NotoSansTC-Medium-90ms-RKSJ-H'; font-size:25.931px; letter-spacing:1;">現在就進來我們的英文閱讀樂園吧!</text>
<g>
	<image style="overflow:visible;" width="445" height="38" xlink:href="7387578.png"  transform="matrix(1 0 0 1 -10 -118.43)">
	</image>
	<g>
		<image style="overflow:visible;" width="438" height="35" xlink:href="7387579.png"  transform="matrix(1 0 0 1 -6 -115.43)">
		</image>
		<g>
			
				<text transform="matrix(1 0 0 1 4.439175e-03 -98.6298)" style="font-family:'NotoSansTC-Medium-90ms-RKSJ-H'; font-size:11.639px;">Enjoy your English reading experience with SmartReading-English!</text>
		</g>
	</g>
</g>
<g>
	<g>
		
			<image style="overflow:visible;" width="437" height="25" xlink:href="738757F.png"  transform="matrix(0.9686 0 0 0.9686 -0.1 29.3559)">
		</image>
		<g>
			
				<image style="overflow:visible;" width="430" height="19" xlink:href="738757A.png"  transform="matrix(0.9686 0 0 0.9686 3.7743 32.2616)">
			</image>
			<g>
				<path d="M7,36.3h4.9v1.1H8.3v2.3h3.1v1.1H8.3v2.7H12v1.1H7V36.3z"/>
				<path d="M14.5,38.4h1.1l0.1,0.9h0c0.6-0.6,1.2-1,2.1-1c1.3,0,1.9,0.9,1.9,2.5v3.9h-1.3v-3.8c0-1.1-0.3-1.5-1.1-1.5
					c-0.6,0-1,0.3-1.5,0.8v4.4h-1.3V38.4z"/>
				<path d="M20.9,47.2l0.2-1c0.2,0,0.4,0.1,0.6,0.1c0.6,0,0.7-0.4,0.7-1.2v-6.7h1.3v6.7c0,1.3-0.5,2.2-1.9,2.2
					C21.4,47.3,21.1,47.3,20.9,47.2z M22.3,36.5c0-0.5,0.3-0.8,0.8-0.8c0.5,0,0.8,0.3,0.8,0.8c0,0.5-0.3,0.8-0.8,0.8
					C22.6,37.3,22.3,37,22.3,36.5z"/>
				<path d="M26.1,41.6c0-2.1,1.4-3.3,2.9-3.3c1.5,0,2.9,1.2,2.9,3.3s-1.4,3.3-2.9,3.3C27.5,44.8,26.1,43.6,26.1,41.6z M30.6,41.6
					c0-1.3-0.6-2.2-1.6-2.2c-1,0-1.6,0.9-1.6,2.2c0,1.3,0.6,2.2,1.6,2.2C30,43.7,30.6,42.9,30.6,41.6z"/>
				<path d="M33.8,47.1l0.2-1c0.1,0,0.3,0.1,0.5,0.1c0.7,0,1.1-0.5,1.3-1.2l0.1-0.4l-2.5-6.2h1.3l1.2,3.2c0.2,0.6,0.4,1.2,0.6,1.8
					h0.1c0.2-0.6,0.3-1.2,0.5-1.8l1-3.2h1.3L37,45c-0.5,1.3-1.1,2.2-2.5,2.2C34.2,47.3,34,47.2,33.8,47.1z"/>
				<path d="M44.2,47.1l0.2-1c0.1,0,0.3,0.1,0.5,0.1c0.7,0,1.1-0.5,1.3-1.2l0.1-0.4l-2.5-6.2h1.3l1.2,3.2c0.2,0.6,0.4,1.2,0.6,1.8
					h0.1c0.2-0.6,0.3-1.2,0.5-1.8l1-3.2h1.3L47.4,45c-0.5,1.3-1.1,2.2-2.5,2.2C44.6,47.3,44.4,47.2,44.2,47.1z"/>
				<path d="M51.2,41.6c0-2.1,1.4-3.3,2.9-3.3c1.5,0,2.9,1.2,2.9,3.3s-1.4,3.3-2.9,3.3C52.5,44.8,51.2,43.6,51.2,41.6z M55.7,41.6
					c0-1.3-0.6-2.2-1.6-2.2c-1,0-1.6,0.9-1.6,2.2c0,1.3,0.6,2.2,1.6,2.2C55.1,43.7,55.7,42.9,55.7,41.6z"/>
				<path d="M59.3,42.4v-3.9h1.3v3.8c0,1.1,0.3,1.5,1,1.5c0.6,0,1-0.3,1.5-0.9v-4.3h1.3v6.2h-1.1l-0.1-0.9h0c-0.6,0.7-1.2,1.1-2,1.1
					C59.9,44.8,59.3,43.9,59.3,42.4z"/>
				<path d="M67.2,38.4h1.1l0.1,1.1h0c0.4-0.8,1.1-1.3,1.8-1.3c0.3,0,0.5,0,0.7,0.1l-0.2,1.1c-0.2-0.1-0.4-0.1-0.6-0.1
					c-0.5,0-1.1,0.4-1.5,1.3v3.9h-1.3V38.4z"/>
				<path d="M76.2,36.3h4.9v1.1h-3.6v2.3h3.1v1.1h-3.1v2.7h3.7v1.1h-5V36.3z"/>
				<path d="M83.7,38.4h1.1l0.1,0.9h0c0.6-0.6,1.2-1,2.1-1c1.3,0,1.9,0.9,1.9,2.5v3.9h-1.3v-3.8c0-1.1-0.3-1.5-1.1-1.5
					c-0.6,0-1,0.3-1.5,0.8v4.4h-1.3V38.4z"/>
				<path d="M91.2,45.8c0-0.5,0.3-1,0.9-1.4v-0.1c-0.3-0.2-0.6-0.5-0.6-1c0-0.5,0.4-0.9,0.7-1.2v0c-0.4-0.3-0.8-0.9-0.8-1.7
					c0-1.4,1.1-2.2,2.4-2.2c0.4,0,0.7,0.1,0.9,0.2h2.2v1h-1.2c0.2,0.2,0.4,0.7,0.4,1.1c0,1.4-1,2.1-2.3,2.1c-0.3,0-0.6-0.1-0.9-0.2
					c-0.2,0.2-0.3,0.4-0.3,0.7c0,0.4,0.2,0.6,1,0.6h1.1c1.5,0,2.2,0.5,2.2,1.5c0,1.2-1.3,2.2-3.3,2.2C92.3,47.5,91.2,46.9,91.2,45.8
					z M95.8,45.5c0-0.5-0.4-0.7-1.2-0.7h-0.9c-0.3,0-0.6,0-0.8-0.1c-0.4,0.3-0.5,0.6-0.5,0.9c0,0.6,0.6,1,1.7,1
					C95.1,46.6,95.8,46.1,95.8,45.5z M95,40.5c0-0.8-0.5-1.3-1.2-1.3s-1.2,0.5-1.2,1.3c0,0.8,0.5,1.3,1.2,1.3
					C94.5,41.9,95,41.3,95,40.5z"/>
				<path d="M99,43.2v-7.6h1.3v7.6c0,0.4,0.1,0.5,0.3,0.5c0.1,0,0.1,0,0.2,0l0.2,1c-0.2,0.1-0.4,0.1-0.7,0.1
					C99.4,44.8,99,44.2,99,43.2z"/>
				<path d="M103.1,36.5c0-0.5,0.3-0.8,0.8-0.8c0.5,0,0.8,0.3,0.8,0.8c0,0.5-0.3,0.8-0.8,0.8C103.4,37.3,103.1,37,103.1,36.5z
					 M103.3,38.4h1.3v6.2h-1.3V38.4z"/>
				<path d="M106.7,44l0.6-0.8c0.6,0.4,1.1,0.7,1.8,0.7c0.7,0,1.1-0.4,1.1-0.8c0-0.6-0.7-0.8-1.4-1.1c-0.8-0.3-1.8-0.8-1.8-1.8
					c0-1,0.8-1.8,2.2-1.8c0.8,0,1.5,0.3,2,0.7l-0.6,0.8c-0.4-0.3-0.9-0.5-1.4-0.5c-0.7,0-1,0.3-1,0.8c0,0.5,0.6,0.7,1.3,1
					c0.9,0.3,1.8,0.7,1.8,1.9c0,1-0.8,1.9-2.4,1.9C108.2,44.8,107.3,44.4,106.7,44z"/>
				<path d="M113.6,35.6h1.3V38l-0.1,1.2c0.5-0.5,1.2-1,2-1c1.3,0,1.9,0.9,1.9,2.5v3.9h-1.3v-3.8c0-1.1-0.3-1.5-1.1-1.5
					c-0.6,0-1,0.3-1.5,0.8v4.4h-1.3V35.6z"/>
				<path d="M124.9,38.4h1.1l0.1,1.1h0c0.4-0.8,1.1-1.3,1.8-1.3c0.3,0,0.5,0,0.7,0.1l-0.2,1.1c-0.2-0.1-0.4-0.1-0.6-0.1
					c-0.5,0-1.1,0.4-1.5,1.3v3.9h-1.3V38.4z"/>
				<path d="M129.8,41.6c0-2,1.4-3.3,2.8-3.3c1.7,0,2.5,1.2,2.5,2.9c0,0.3,0,0.5-0.1,0.7h-4c0.1,1.2,0.8,1.9,1.9,1.9
					c0.6,0,1-0.2,1.5-0.5l0.5,0.8c-0.6,0.4-1.3,0.7-2.1,0.7C131.2,44.8,129.8,43.6,129.8,41.6z M134.1,41c0-1.1-0.5-1.7-1.4-1.7
					c-0.8,0-1.5,0.6-1.6,1.7H134.1z"/>
				<path d="M137,43c0-1.3,1.1-2,3.7-2.3c0-0.7-0.3-1.4-1.2-1.4c-0.7,0-1.3,0.3-1.8,0.6l-0.5-0.9c0.6-0.4,1.5-0.8,2.5-0.8
					c1.6,0,2.3,1,2.3,2.6v3.7h-1.1l-0.1-0.7h0c-0.6,0.5-1.2,0.9-2,0.9C137.7,44.8,137,44.1,137,43z M140.7,43.1v-1.5
					c-1.8,0.2-2.5,0.7-2.5,1.4c0,0.6,0.4,0.9,1,0.9C139.7,43.8,140.2,43.5,140.7,43.1z"/>
				<path d="M144.2,41.6c0-2,1.3-3.3,2.7-3.3c0.7,0,1.2,0.3,1.7,0.7l-0.1-1v-2.3h1.3v9h-1.1l-0.1-0.7h0c-0.5,0.5-1.1,0.8-1.8,0.8
					C145.3,44.8,144.2,43.6,144.2,41.6z M148.5,43v-3c-0.5-0.4-0.9-0.6-1.4-0.6c-0.9,0-1.6,0.8-1.6,2.2c0,1.4,0.6,2.2,1.5,2.2
					C147.6,43.7,148.1,43.5,148.5,43z"/>
				<path d="M152.5,36.5c0-0.5,0.3-0.8,0.8-0.8c0.5,0,0.8,0.3,0.8,0.8c0,0.5-0.3,0.8-0.8,0.8C152.8,37.3,152.5,37,152.5,36.5z
					 M152.6,38.4h1.3v6.2h-1.3V38.4z"/>
				<path d="M156.7,38.4h1.1l0.1,0.9h0c0.6-0.6,1.2-1,2.1-1c1.3,0,1.9,0.9,1.9,2.5v3.9h-1.3v-3.8c0-1.1-0.3-1.5-1.1-1.5
					c-0.6,0-1,0.3-1.5,0.8v4.4h-1.3V38.4z"/>
				<path d="M164.2,45.8c0-0.5,0.3-1,0.9-1.4v-0.1c-0.3-0.2-0.6-0.5-0.6-1c0-0.5,0.4-0.9,0.7-1.2v0c-0.4-0.3-0.8-0.9-0.8-1.7
					c0-1.4,1.1-2.2,2.4-2.2c0.4,0,0.7,0.1,0.9,0.2h2.2v1h-1.2c0.2,0.2,0.4,0.7,0.4,1.1c0,1.4-1,2.1-2.3,2.1c-0.3,0-0.6-0.1-0.9-0.2
					c-0.2,0.2-0.3,0.4-0.3,0.7c0,0.4,0.2,0.6,1,0.6h1.1c1.5,0,2.2,0.5,2.2,1.5c0,1.2-1.3,2.2-3.3,2.2
					C165.3,47.5,164.2,46.9,164.2,45.8z M168.8,45.5c0-0.5-0.4-0.7-1.2-0.7h-0.9c-0.3,0-0.6,0-0.8-0.1c-0.4,0.3-0.5,0.6-0.5,0.9
					c0,0.6,0.6,1,1.7,1C168,46.6,168.8,46.1,168.8,45.5z M168,40.5c0-0.8-0.5-1.3-1.2-1.3c-0.7,0-1.2,0.5-1.2,1.3
					c0,0.8,0.5,1.3,1.2,1.3C167.5,41.9,168,41.3,168,40.5z"/>
				<path d="M175,41.6c0-2,1.4-3.3,2.8-3.3c1.7,0,2.5,1.2,2.5,2.9c0,0.3,0,0.5-0.1,0.7h-4c0.1,1.2,0.8,1.9,1.9,1.9
					c0.6,0,1-0.2,1.5-0.5l0.5,0.8c-0.6,0.4-1.3,0.7-2.1,0.7C176.3,44.8,175,43.6,175,41.6z M179.2,41c0-1.1-0.5-1.7-1.4-1.7
					c-0.8,0-1.5,0.6-1.6,1.7H179.2z"/>
				<path d="M183.7,41.4l-1.9-3h1.4l0.7,1.2c0.2,0.4,0.4,0.7,0.6,1.1h0c0.2-0.4,0.4-0.7,0.5-1.1l0.7-1.2h1.4l-1.9,3.1l2,3.1h-1.4
					l-0.8-1.3c-0.2-0.4-0.4-0.7-0.6-1.1h-0.1c-0.2,0.4-0.4,0.7-0.6,1.1l-0.7,1.3h-1.4L183.7,41.4z"/>
				<path d="M189.3,38.4h1.1l0.1,0.7h0c0.5-0.5,1.2-0.8,1.9-0.8c1.6,0,2.5,1.3,2.5,3.2c0,2.1-1.3,3.4-2.7,3.4
					c-0.6,0-1.1-0.2-1.6-0.7l0,1.1v2h-1.3V38.4z M193.6,41.5c0-1.3-0.4-2.1-1.5-2.1c-0.5,0-1,0.2-1.5,0.8v3c0.5,0.4,1,0.6,1.3,0.6
					C192.9,43.7,193.6,42.9,193.6,41.5z"/>
				<path d="M196.9,41.6c0-2,1.4-3.3,2.8-3.3c1.7,0,2.5,1.2,2.5,2.9c0,0.3,0,0.5-0.1,0.7h-4c0.1,1.2,0.8,1.9,1.9,1.9
					c0.6,0,1-0.2,1.5-0.5l0.5,0.8c-0.6,0.4-1.3,0.7-2.1,0.7C198.2,44.8,196.9,43.6,196.9,41.6z M201.1,41c0-1.1-0.5-1.7-1.4-1.7
					c-0.8,0-1.5,0.6-1.6,1.7H201.1z"/>
				<path d="M204.5,38.4h1.1l0.1,1.1h0c0.4-0.8,1.1-1.3,1.8-1.3c0.3,0,0.5,0,0.7,0.1l-0.2,1.1c-0.2-0.1-0.4-0.1-0.6-0.1
					c-0.5,0-1.1,0.4-1.5,1.3v3.9h-1.3V38.4z"/>
				<path d="M209.9,36.5c0-0.5,0.3-0.8,0.8-0.8c0.5,0,0.8,0.3,0.8,0.8c0,0.5-0.3,0.8-0.8,0.8C210.2,37.3,209.9,37,209.9,36.5z
					 M210,38.4h1.3v6.2H210V38.4z"/>
				<path d="M213.7,41.6c0-2,1.4-3.3,2.8-3.3c1.7,0,2.5,1.2,2.5,2.9c0,0.3,0,0.5-0.1,0.7h-4c0.1,1.2,0.8,1.9,1.9,1.9
					c0.6,0,1-0.2,1.5-0.5l0.5,0.8c-0.6,0.4-1.3,0.7-2.1,0.7C215,44.8,213.7,43.6,213.7,41.6z M217.9,41c0-1.1-0.5-1.7-1.4-1.7
					c-0.8,0-1.5,0.6-1.6,1.7H217.9z"/>
				<path d="M221.4,38.4h1.1l0.1,0.9h0c0.6-0.6,1.2-1,2.1-1c1.3,0,1.9,0.9,1.9,2.5v3.9h-1.3v-3.8c0-1.1-0.3-1.5-1.1-1.5
					c-0.6,0-1,0.3-1.5,0.8v4.4h-1.3V38.4z"/>
				<path d="M228.8,41.6c0-2.1,1.4-3.3,3.1-3.3c0.8,0,1.4,0.3,1.8,0.7l-0.6,0.8c-0.3-0.3-0.7-0.5-1.1-0.5c-1.1,0-1.8,0.9-1.8,2.2
					c0,1.3,0.7,2.2,1.8,2.2c0.5,0,1-0.2,1.4-0.6l0.5,0.9c-0.6,0.5-1.3,0.8-2,0.8C230.1,44.8,228.8,43.6,228.8,41.6z"/>
				<path d="M235.2,41.6c0-2,1.4-3.3,2.8-3.3c1.7,0,2.5,1.2,2.5,2.9c0,0.3,0,0.5-0.1,0.7h-4c0.1,1.2,0.8,1.9,1.9,1.9
					c0.6,0,1-0.2,1.5-0.5l0.5,0.8c-0.6,0.4-1.3,0.7-2.1,0.7C236.6,44.8,235.2,43.6,235.2,41.6z M239.5,41c0-1.1-0.5-1.7-1.4-1.7
					c-0.8,0-1.5,0.6-1.6,1.7H239.5z"/>
				<path d="M245.6,38.4h1.3l0.8,3.4c0.1,0.6,0.2,1.2,0.3,1.8h0c0.1-0.6,0.3-1.2,0.4-1.8l0.9-3.4h1.2l0.9,3.4
					c0.1,0.6,0.3,1.2,0.4,1.8h0c0.1-0.6,0.2-1.2,0.4-1.8l0.8-3.4h1.2l-1.6,6.2h-1.6l-0.8-3.1c-0.1-0.6-0.3-1.2-0.4-1.8H250
					c-0.1,0.6-0.2,1.2-0.4,1.8l-0.8,3.1h-1.5L245.6,38.4z"/>
				<path d="M256.3,36.5c0-0.5,0.3-0.8,0.8-0.8c0.5,0,0.8,0.3,0.8,0.8c0,0.5-0.3,0.8-0.8,0.8C256.7,37.3,256.3,37,256.3,36.5z
					 M256.5,38.4h1.3v6.2h-1.3V38.4z"/>
				<path d="M260.8,42.6v-3.1h-0.9v-1l1-0.1l0.1-1.7h1.1v1.7h1.6v1h-1.6v3.2c0,0.7,0.3,1.1,0.9,1.1c0.2,0,0.5-0.1,0.7-0.1l0.2,1
					c-0.4,0.1-0.8,0.2-1.2,0.2C261.3,44.8,260.8,43.9,260.8,42.6z"/>
				<path d="M265.9,35.6h1.3V38l-0.1,1.2c0.5-0.5,1.2-1,2-1c1.3,0,1.9,0.9,1.9,2.5v3.9h-1.3v-3.8c0-1.1-0.3-1.5-1.1-1.5
					c-0.6,0-1,0.3-1.5,0.8v4.4h-1.3V35.6z"/>
				<path d="M276.7,43.6l0.8-0.9c0.6,0.6,1.4,1,2.2,1c1,0,1.6-0.5,1.6-1.2c0-0.8-0.6-1-1.3-1.3l-1.2-0.5c-0.8-0.3-1.7-1-1.7-2.2
					c0-1.3,1.2-2.3,2.7-2.3c1,0,1.9,0.4,2.5,1.1l-0.7,0.8c-0.5-0.5-1.1-0.7-1.8-0.7c-0.8,0-1.4,0.4-1.4,1.1c0,0.7,0.7,1,1.3,1.3
					l1.1,0.5c1,0.4,1.7,1,1.7,2.3c0,1.3-1.1,2.4-2.9,2.4C278.5,44.8,277.5,44.4,276.7,43.6z"/>
				<path d="M284.9,38.4h1.1l0.1,0.9h0c0.5-0.6,1.2-1,1.9-1c0.9,0,1.4,0.4,1.7,1.1c0.6-0.7,1.2-1.1,2-1.1c1.3,0,1.9,0.9,1.9,2.5v3.9
					h-1.3v-3.8c0-1.1-0.3-1.5-1-1.5c-0.4,0-0.9,0.3-1.4,0.8v4.4h-1.3v-3.8c0-1.1-0.3-1.5-1-1.5c-0.4,0-0.9,0.3-1.4,0.8v4.4h-1.3
					V38.4z"/>
				<path d="M296.1,43c0-1.3,1.1-2,3.7-2.3c0-0.7-0.3-1.4-1.2-1.4c-0.7,0-1.3,0.3-1.8,0.6l-0.5-0.9c0.6-0.4,1.5-0.8,2.5-0.8
					c1.5,0,2.3,1,2.3,2.6v3.7H300l-0.1-0.7h0c-0.6,0.5-1.2,0.9-2,0.9C296.8,44.8,296.1,44.1,296.1,43z M299.8,43.1v-1.5
					c-1.8,0.2-2.5,0.7-2.5,1.4c0,0.6,0.4,0.9,1,0.9C298.8,43.8,299.3,43.5,299.8,43.1z"/>
				<path d="M303.8,38.4h1.1l0.1,1.1h0c0.4-0.8,1.1-1.3,1.8-1.3c0.3,0,0.5,0,0.7,0.1l-0.2,1.1c-0.2-0.1-0.4-0.1-0.6-0.1
					c-0.5,0-1.1,0.4-1.5,1.3v3.9h-1.3V38.4z"/>
				<path d="M309.5,42.6v-3.1h-0.9v-1l1-0.1l0.1-1.7h1.1v1.7h1.6v1h-1.6v3.2c0,0.7,0.3,1.1,0.9,1.1c0.2,0,0.5-0.1,0.7-0.1l0.2,1
					c-0.4,0.1-0.8,0.2-1.2,0.2C309.9,44.8,309.5,43.9,309.5,42.6z"/>
				<path d="M314.7,36.3h2.7c1.7,0,3,0.6,3,2.4c0,1.3-0.7,2.1-1.7,2.4l2,3.5h-1.5l-1.9-3.4H316v3.4h-1.3V36.3z M317.3,40.3
					c1.2,0,1.9-0.5,1.9-1.5s-0.7-1.4-1.9-1.4H316v2.9H317.3z"/>
				<path d="M322.3,41.6c0-2,1.4-3.3,2.8-3.3c1.7,0,2.5,1.2,2.5,2.9c0,0.3,0,0.5-0.1,0.7h-4c0.1,1.2,0.8,1.9,1.9,1.9
					c0.6,0,1-0.2,1.5-0.5l0.5,0.8c-0.6,0.4-1.3,0.7-2.1,0.7C323.6,44.8,322.3,43.6,322.3,41.6z M326.5,41c0-1.1-0.5-1.7-1.4-1.7
					c-0.8,0-1.5,0.6-1.6,1.7H326.5z"/>
				<path d="M329.4,43c0-1.3,1.1-2,3.7-2.3c0-0.7-0.3-1.4-1.2-1.4c-0.7,0-1.3,0.3-1.8,0.6l-0.5-0.9c0.6-0.4,1.5-0.8,2.5-0.8
					c1.5,0,2.3,1,2.3,2.6v3.7h-1.1l-0.1-0.7h0c-0.6,0.5-1.2,0.9-2,0.9C330.2,44.8,329.4,44.1,329.4,43z M333.1,43.1v-1.5
					c-1.8,0.2-2.5,0.7-2.5,1.4c0,0.6,0.4,0.9,1,0.9C332.2,43.8,332.6,43.5,333.1,43.1z"/>
				<path d="M336.7,41.6c0-2,1.3-3.3,2.7-3.3c0.7,0,1.2,0.3,1.7,0.7l-0.1-1v-2.3h1.3v9h-1.1l-0.1-0.7h0c-0.5,0.5-1.1,0.8-1.8,0.8
					C337.7,44.8,336.7,43.6,336.7,41.6z M341,43v-3c-0.5-0.4-0.9-0.6-1.4-0.6c-0.9,0-1.6,0.8-1.6,2.2c0,1.4,0.6,2.2,1.5,2.2
					C340.1,43.7,340.6,43.5,341,43z"/>
				<path d="M345,36.5c0-0.5,0.3-0.8,0.8-0.8c0.5,0,0.8,0.3,0.8,0.8c0,0.5-0.3,0.8-0.8,0.8C345.3,37.3,345,37,345,36.5z M345.1,38.4
					h1.3v6.2h-1.3V38.4z"/>
				<path d="M349.2,38.4h1.1l0.1,0.9h0c0.6-0.6,1.2-1,2.1-1c1.3,0,1.9,0.9,1.9,2.5v3.9h-1.3v-3.8c0-1.1-0.3-1.5-1.1-1.5
					c-0.6,0-1,0.3-1.5,0.8v4.4h-1.3V38.4z"/>
				<path d="M356.7,45.8c0-0.5,0.3-1,0.9-1.4v-0.1c-0.3-0.2-0.6-0.5-0.6-1c0-0.5,0.4-0.9,0.7-1.2v0c-0.4-0.3-0.8-0.9-0.8-1.7
					c0-1.4,1.1-2.2,2.4-2.2c0.4,0,0.7,0.1,0.9,0.2h2.2v1h-1.2c0.2,0.2,0.4,0.7,0.4,1.1c0,1.4-1,2.1-2.3,2.1c-0.3,0-0.6-0.1-0.9-0.2
					c-0.2,0.2-0.3,0.4-0.3,0.7c0,0.4,0.2,0.6,1,0.6h1.1c1.5,0,2.2,0.5,2.2,1.5c0,1.2-1.3,2.2-3.3,2.2
					C357.7,47.5,356.7,46.9,356.7,45.8z M361.2,45.5c0-0.5-0.4-0.7-1.2-0.7h-0.9c-0.3,0-0.6,0-0.8-0.1c-0.4,0.3-0.5,0.6-0.5,0.9
					c0,0.6,0.6,1,1.7,1C360.5,46.6,361.2,46.1,361.2,45.5z M360.5,40.5c0-0.8-0.5-1.3-1.2-1.3c-0.7,0-1.2,0.5-1.2,1.3
					c0,0.8,0.5,1.3,1.2,1.3C359.9,41.9,360.5,41.3,360.5,40.5z"/>
				<path d="M364,41h3v1h-3V41z"/>
				<path d="M369.5,36.3h4.9v1.1h-3.6v2.3h3.1v1.1h-3.1v2.7h3.7v1.1h-5V36.3z"/>
				<path d="M377,38.4h1.1l0.1,0.9h0c0.6-0.6,1.2-1,2.1-1c1.3,0,1.9,0.9,1.9,2.5v3.9h-1.3v-3.8c0-1.1-0.3-1.5-1.1-1.5
					c-0.6,0-1,0.3-1.5,0.8v4.4H377V38.4z"/>
				<path d="M384.5,45.8c0-0.5,0.3-1,0.9-1.4v-0.1c-0.3-0.2-0.6-0.5-0.6-1c0-0.5,0.4-0.9,0.7-1.2v0c-0.4-0.3-0.8-0.9-0.8-1.7
					c0-1.4,1.1-2.2,2.4-2.2c0.4,0,0.7,0.1,0.9,0.2h2.2v1H389c0.2,0.2,0.4,0.7,0.4,1.1c0,1.4-1,2.1-2.3,2.1c-0.3,0-0.6-0.1-0.9-0.2
					c-0.2,0.2-0.3,0.4-0.3,0.7c0,0.4,0.2,0.6,1,0.6h1.1c1.5,0,2.2,0.5,2.2,1.5c0,1.2-1.3,2.2-3.3,2.2
					C385.6,47.5,384.5,46.9,384.5,45.8z M389.1,45.5c0-0.5-0.4-0.7-1.2-0.7h-0.9c-0.3,0-0.6,0-0.8-0.1c-0.4,0.3-0.5,0.6-0.5,0.9
					c0,0.6,0.6,1,1.7,1C388.3,46.6,389.1,46.1,389.1,45.5z M388.3,40.5c0-0.8-0.5-1.3-1.2-1.3c-0.7,0-1.2,0.5-1.2,1.3
					c0,0.8,0.5,1.3,1.2,1.3C387.7,41.9,388.3,41.3,388.3,40.5z"/>
				<path d="M392.3,43.2v-7.6h1.3v7.6c0,0.4,0.1,0.5,0.3,0.5c0.1,0,0.1,0,0.2,0l0.2,1c-0.2,0.1-0.4,0.1-0.7,0.1
					C392.7,44.8,392.3,44.2,392.3,43.2z"/>
				<path d="M396.4,36.5c0-0.5,0.3-0.8,0.8-0.8c0.5,0,0.8,0.3,0.8,0.8c0,0.5-0.3,0.8-0.8,0.8C396.7,37.3,396.4,37,396.4,36.5z
					 M396.5,38.4h1.3v6.2h-1.3V38.4z"/>
				<path d="M400,44l0.6-0.8c0.6,0.4,1.1,0.7,1.8,0.7c0.7,0,1.1-0.4,1.1-0.8c0-0.6-0.7-0.8-1.4-1.1c-0.8-0.3-1.8-0.8-1.8-1.8
					c0-1,0.8-1.8,2.2-1.8c0.8,0,1.5,0.3,2,0.7l-0.6,0.8c-0.4-0.3-0.9-0.5-1.4-0.5c-0.7,0-1,0.3-1,0.8c0,0.5,0.6,0.7,1.3,1
					c0.9,0.3,1.8,0.7,1.8,1.9c0,1-0.8,1.9-2.4,1.9C401.4,44.8,400.6,44.4,400,44z"/>
				<path d="M406.9,35.6h1.3V38l-0.1,1.2c0.5-0.5,1.2-1,2-1c1.3,0,1.9,0.9,1.9,2.5v3.9h-1.3v-3.8c0-1.1-0.3-1.5-1.1-1.5
					c-0.6,0-1,0.3-1.5,0.8v4.4h-1.3V35.6z"/>
				<path d="M414.9,43.9c0-0.5,0.4-0.9,0.9-0.9c0.5,0,0.9,0.4,0.9,0.9c0,0.5-0.4,0.9-0.9,0.9C415.2,44.8,414.9,44.4,414.9,43.9z
					 M415.1,37.5l0-1.3h1.3l0,1.3l-0.2,4.5h-0.9L415.1,37.5z"/>
			</g>
		</g>
	</g>
	<g>
		<path d="M7,36.3h4.9v1.1H8.3v2.3h3.1v1.1H8.3v2.7H12v1.1H7V36.3z"/>
		<path d="M14.5,38.4h1.1l0.1,0.9h0c0.6-0.6,1.2-1,2.1-1c1.3,0,1.9,0.9,1.9,2.5v3.9h-1.3v-3.8c0-1.1-0.3-1.5-1.1-1.5
			c-0.6,0-1,0.3-1.5,0.8v4.4h-1.3V38.4z"/>
		<path d="M20.9,47.2l0.2-1c0.2,0,0.4,0.1,0.6,0.1c0.6,0,0.7-0.4,0.7-1.2v-6.7h1.3v6.7c0,1.3-0.5,2.2-1.9,2.2
			C21.4,47.3,21.1,47.3,20.9,47.2z M22.3,36.5c0-0.5,0.3-0.8,0.8-0.8c0.5,0,0.8,0.3,0.8,0.8c0,0.5-0.3,0.8-0.8,0.8
			C22.6,37.3,22.3,37,22.3,36.5z"/>
		<path d="M26.1,41.6c0-2.1,1.4-3.3,2.9-3.3c1.5,0,2.9,1.2,2.9,3.3s-1.4,3.3-2.9,3.3C27.5,44.8,26.1,43.6,26.1,41.6z M30.6,41.6
			c0-1.3-0.6-2.2-1.6-2.2c-1,0-1.6,0.9-1.6,2.2c0,1.3,0.6,2.2,1.6,2.2C30,43.7,30.6,42.9,30.6,41.6z"/>
		<path d="M33.8,47.1l0.2-1c0.1,0,0.3,0.1,0.5,0.1c0.7,0,1.1-0.5,1.3-1.2l0.1-0.4l-2.5-6.2h1.3l1.2,3.2c0.2,0.6,0.4,1.2,0.6,1.8h0.1
			c0.2-0.6,0.3-1.2,0.5-1.8l1-3.2h1.3L37,45c-0.5,1.3-1.1,2.2-2.5,2.2C34.2,47.3,34,47.2,33.8,47.1z"/>
		<path d="M44.2,47.1l0.2-1c0.1,0,0.3,0.1,0.5,0.1c0.7,0,1.1-0.5,1.3-1.2l0.1-0.4l-2.5-6.2h1.3l1.2,3.2c0.2,0.6,0.4,1.2,0.6,1.8h0.1
			c0.2-0.6,0.3-1.2,0.5-1.8l1-3.2h1.3L47.4,45c-0.5,1.3-1.1,2.2-2.5,2.2C44.6,47.3,44.4,47.2,44.2,47.1z"/>
		<path d="M51.2,41.6c0-2.1,1.4-3.3,2.9-3.3c1.5,0,2.9,1.2,2.9,3.3s-1.4,3.3-2.9,3.3C52.5,44.8,51.2,43.6,51.2,41.6z M55.7,41.6
			c0-1.3-0.6-2.2-1.6-2.2c-1,0-1.6,0.9-1.6,2.2c0,1.3,0.6,2.2,1.6,2.2C55.1,43.7,55.7,42.9,55.7,41.6z"/>
		<path d="M59.3,42.4v-3.9h1.3v3.8c0,1.1,0.3,1.5,1,1.5c0.6,0,1-0.3,1.5-0.9v-4.3h1.3v6.2h-1.1l-0.1-0.9h0c-0.6,0.7-1.2,1.1-2,1.1
			C59.9,44.8,59.3,43.9,59.3,42.4z"/>
		<path d="M67.2,38.4h1.1l0.1,1.1h0c0.4-0.8,1.1-1.3,1.8-1.3c0.3,0,0.5,0,0.7,0.1l-0.2,1.1c-0.2-0.1-0.4-0.1-0.6-0.1
			c-0.5,0-1.1,0.4-1.5,1.3v3.9h-1.3V38.4z"/>
		<path d="M76.2,36.3h4.9v1.1h-3.6v2.3h3.1v1.1h-3.1v2.7h3.7v1.1h-5V36.3z"/>
		<path d="M83.7,38.4h1.1l0.1,0.9h0c0.6-0.6,1.2-1,2.1-1c1.3,0,1.9,0.9,1.9,2.5v3.9h-1.3v-3.8c0-1.1-0.3-1.5-1.1-1.5
			c-0.6,0-1,0.3-1.5,0.8v4.4h-1.3V38.4z"/>
		<path d="M91.2,45.8c0-0.5,0.3-1,0.9-1.4v-0.1c-0.3-0.2-0.6-0.5-0.6-1c0-0.5,0.4-0.9,0.7-1.2v0c-0.4-0.3-0.8-0.9-0.8-1.7
			c0-1.4,1.1-2.2,2.4-2.2c0.4,0,0.7,0.1,0.9,0.2h2.2v1h-1.2c0.2,0.2,0.4,0.7,0.4,1.1c0,1.4-1,2.1-2.3,2.1c-0.3,0-0.6-0.1-0.9-0.2
			c-0.2,0.2-0.3,0.4-0.3,0.7c0,0.4,0.2,0.6,1,0.6h1.1c1.5,0,2.2,0.5,2.2,1.5c0,1.2-1.3,2.2-3.3,2.2C92.3,47.5,91.2,46.9,91.2,45.8z
			 M95.8,45.5c0-0.5-0.4-0.7-1.2-0.7h-0.9c-0.3,0-0.6,0-0.8-0.1c-0.4,0.3-0.5,0.6-0.5,0.9c0,0.6,0.6,1,1.7,1
			C95.1,46.6,95.8,46.1,95.8,45.5z M95,40.5c0-0.8-0.5-1.3-1.2-1.3s-1.2,0.5-1.2,1.3c0,0.8,0.5,1.3,1.2,1.3
			C94.5,41.9,95,41.3,95,40.5z"/>
		<path d="M99,43.2v-7.6h1.3v7.6c0,0.4,0.1,0.5,0.3,0.5c0.1,0,0.1,0,0.2,0l0.2,1c-0.2,0.1-0.4,0.1-0.7,0.1
			C99.4,44.8,99,44.2,99,43.2z"/>
		<path d="M103.1,36.5c0-0.5,0.3-0.8,0.8-0.8c0.5,0,0.8,0.3,0.8,0.8c0,0.5-0.3,0.8-0.8,0.8C103.4,37.3,103.1,37,103.1,36.5z
			 M103.3,38.4h1.3v6.2h-1.3V38.4z"/>
		<path d="M106.7,44l0.6-0.8c0.6,0.4,1.1,0.7,1.8,0.7c0.7,0,1.1-0.4,1.1-0.8c0-0.6-0.7-0.8-1.4-1.1c-0.8-0.3-1.8-0.8-1.8-1.8
			c0-1,0.8-1.8,2.2-1.8c0.8,0,1.5,0.3,2,0.7l-0.6,0.8c-0.4-0.3-0.9-0.5-1.4-0.5c-0.7,0-1,0.3-1,0.8c0,0.5,0.6,0.7,1.3,1
			c0.9,0.3,1.8,0.7,1.8,1.9c0,1-0.8,1.9-2.4,1.9C108.2,44.8,107.3,44.4,106.7,44z"/>
		<path d="M113.6,35.6h1.3V38l-0.1,1.2c0.5-0.5,1.2-1,2-1c1.3,0,1.9,0.9,1.9,2.5v3.9h-1.3v-3.8c0-1.1-0.3-1.5-1.1-1.5
			c-0.6,0-1,0.3-1.5,0.8v4.4h-1.3V35.6z"/>
		<path d="M124.9,38.4h1.1l0.1,1.1h0c0.4-0.8,1.1-1.3,1.8-1.3c0.3,0,0.5,0,0.7,0.1l-0.2,1.1c-0.2-0.1-0.4-0.1-0.6-0.1
			c-0.5,0-1.1,0.4-1.5,1.3v3.9h-1.3V38.4z"/>
		<path d="M129.8,41.6c0-2,1.4-3.3,2.8-3.3c1.7,0,2.5,1.2,2.5,2.9c0,0.3,0,0.5-0.1,0.7h-4c0.1,1.2,0.8,1.9,1.9,1.9
			c0.6,0,1-0.2,1.5-0.5l0.5,0.8c-0.6,0.4-1.3,0.7-2.1,0.7C131.2,44.8,129.8,43.6,129.8,41.6z M134.1,41c0-1.1-0.5-1.7-1.4-1.7
			c-0.8,0-1.5,0.6-1.6,1.7H134.1z"/>
		<path d="M137,43c0-1.3,1.1-2,3.7-2.3c0-0.7-0.3-1.4-1.2-1.4c-0.7,0-1.3,0.3-1.8,0.6l-0.5-0.9c0.6-0.4,1.5-0.8,2.5-0.8
			c1.6,0,2.3,1,2.3,2.6v3.7h-1.1l-0.1-0.7h0c-0.6,0.5-1.2,0.9-2,0.9C137.7,44.8,137,44.1,137,43z M140.7,43.1v-1.5
			c-1.8,0.2-2.5,0.7-2.5,1.4c0,0.6,0.4,0.9,1,0.9C139.7,43.8,140.2,43.5,140.7,43.1z"/>
		<path d="M144.2,41.6c0-2,1.3-3.3,2.7-3.3c0.7,0,1.2,0.3,1.7,0.7l-0.1-1v-2.3h1.3v9h-1.1l-0.1-0.7h0c-0.5,0.5-1.1,0.8-1.8,0.8
			C145.3,44.8,144.2,43.6,144.2,41.6z M148.5,43v-3c-0.5-0.4-0.9-0.6-1.4-0.6c-0.9,0-1.6,0.8-1.6,2.2c0,1.4,0.6,2.2,1.5,2.2
			C147.6,43.7,148.1,43.5,148.5,43z"/>
		<path d="M152.5,36.5c0-0.5,0.3-0.8,0.8-0.8c0.5,0,0.8,0.3,0.8,0.8c0,0.5-0.3,0.8-0.8,0.8C152.8,37.3,152.5,37,152.5,36.5z
			 M152.6,38.4h1.3v6.2h-1.3V38.4z"/>
		<path d="M156.7,38.4h1.1l0.1,0.9h0c0.6-0.6,1.2-1,2.1-1c1.3,0,1.9,0.9,1.9,2.5v3.9h-1.3v-3.8c0-1.1-0.3-1.5-1.1-1.5
			c-0.6,0-1,0.3-1.5,0.8v4.4h-1.3V38.4z"/>
		<path d="M164.2,45.8c0-0.5,0.3-1,0.9-1.4v-0.1c-0.3-0.2-0.6-0.5-0.6-1c0-0.5,0.4-0.9,0.7-1.2v0c-0.4-0.3-0.8-0.9-0.8-1.7
			c0-1.4,1.1-2.2,2.4-2.2c0.4,0,0.7,0.1,0.9,0.2h2.2v1h-1.2c0.2,0.2,0.4,0.7,0.4,1.1c0,1.4-1,2.1-2.3,2.1c-0.3,0-0.6-0.1-0.9-0.2
			c-0.2,0.2-0.3,0.4-0.3,0.7c0,0.4,0.2,0.6,1,0.6h1.1c1.5,0,2.2,0.5,2.2,1.5c0,1.2-1.3,2.2-3.3,2.2
			C165.3,47.5,164.2,46.9,164.2,45.8z M168.8,45.5c0-0.5-0.4-0.7-1.2-0.7h-0.9c-0.3,0-0.6,0-0.8-0.1c-0.4,0.3-0.5,0.6-0.5,0.9
			c0,0.6,0.6,1,1.7,1C168,46.6,168.8,46.1,168.8,45.5z M168,40.5c0-0.8-0.5-1.3-1.2-1.3c-0.7,0-1.2,0.5-1.2,1.3
			c0,0.8,0.5,1.3,1.2,1.3C167.5,41.9,168,41.3,168,40.5z"/>
		<path d="M175,41.6c0-2,1.4-3.3,2.8-3.3c1.7,0,2.5,1.2,2.5,2.9c0,0.3,0,0.5-0.1,0.7h-4c0.1,1.2,0.8,1.9,1.9,1.9
			c0.6,0,1-0.2,1.5-0.5l0.5,0.8c-0.6,0.4-1.3,0.7-2.1,0.7C176.3,44.8,175,43.6,175,41.6z M179.2,41c0-1.1-0.5-1.7-1.4-1.7
			c-0.8,0-1.5,0.6-1.6,1.7H179.2z"/>
		<path d="M183.7,41.4l-1.9-3h1.4l0.7,1.2c0.2,0.4,0.4,0.7,0.6,1.1h0c0.2-0.4,0.4-0.7,0.5-1.1l0.7-1.2h1.4l-1.9,3.1l2,3.1h-1.4
			l-0.8-1.3c-0.2-0.4-0.4-0.7-0.6-1.1h-0.1c-0.2,0.4-0.4,0.7-0.6,1.1l-0.7,1.3h-1.4L183.7,41.4z"/>
		<path d="M189.3,38.4h1.1l0.1,0.7h0c0.5-0.5,1.2-0.8,1.9-0.8c1.6,0,2.5,1.3,2.5,3.2c0,2.1-1.3,3.4-2.7,3.4c-0.6,0-1.1-0.2-1.6-0.7
			l0,1.1v2h-1.3V38.4z M193.6,41.5c0-1.3-0.4-2.1-1.5-2.1c-0.5,0-1,0.2-1.5,0.8v3c0.5,0.4,1,0.6,1.3,0.6
			C192.9,43.7,193.6,42.9,193.6,41.5z"/>
		<path d="M196.9,41.6c0-2,1.4-3.3,2.8-3.3c1.7,0,2.5,1.2,2.5,2.9c0,0.3,0,0.5-0.1,0.7h-4c0.1,1.2,0.8,1.9,1.9,1.9
			c0.6,0,1-0.2,1.5-0.5l0.5,0.8c-0.6,0.4-1.3,0.7-2.1,0.7C198.2,44.8,196.9,43.6,196.9,41.6z M201.1,41c0-1.1-0.5-1.7-1.4-1.7
			c-0.8,0-1.5,0.6-1.6,1.7H201.1z"/>
		<path d="M204.5,38.4h1.1l0.1,1.1h0c0.4-0.8,1.1-1.3,1.8-1.3c0.3,0,0.5,0,0.7,0.1l-0.2,1.1c-0.2-0.1-0.4-0.1-0.6-0.1
			c-0.5,0-1.1,0.4-1.5,1.3v3.9h-1.3V38.4z"/>
		<path d="M209.9,36.5c0-0.5,0.3-0.8,0.8-0.8c0.5,0,0.8,0.3,0.8,0.8c0,0.5-0.3,0.8-0.8,0.8C210.2,37.3,209.9,37,209.9,36.5z
			 M210,38.4h1.3v6.2H210V38.4z"/>
		<path d="M213.7,41.6c0-2,1.4-3.3,2.8-3.3c1.7,0,2.5,1.2,2.5,2.9c0,0.3,0,0.5-0.1,0.7h-4c0.1,1.2,0.8,1.9,1.9,1.9
			c0.6,0,1-0.2,1.5-0.5l0.5,0.8c-0.6,0.4-1.3,0.7-2.1,0.7C215,44.8,213.7,43.6,213.7,41.6z M217.9,41c0-1.1-0.5-1.7-1.4-1.7
			c-0.8,0-1.5,0.6-1.6,1.7H217.9z"/>
		<path d="M221.4,38.4h1.1l0.1,0.9h0c0.6-0.6,1.2-1,2.1-1c1.3,0,1.9,0.9,1.9,2.5v3.9h-1.3v-3.8c0-1.1-0.3-1.5-1.1-1.5
			c-0.6,0-1,0.3-1.5,0.8v4.4h-1.3V38.4z"/>
		<path d="M228.8,41.6c0-2.1,1.4-3.3,3.1-3.3c0.8,0,1.4,0.3,1.8,0.7l-0.6,0.8c-0.3-0.3-0.7-0.5-1.1-0.5c-1.1,0-1.8,0.9-1.8,2.2
			c0,1.3,0.7,2.2,1.8,2.2c0.5,0,1-0.2,1.4-0.6l0.5,0.9c-0.6,0.5-1.3,0.8-2,0.8C230.1,44.8,228.8,43.6,228.8,41.6z"/>
		<path d="M235.2,41.6c0-2,1.4-3.3,2.8-3.3c1.7,0,2.5,1.2,2.5,2.9c0,0.3,0,0.5-0.1,0.7h-4c0.1,1.2,0.8,1.9,1.9,1.9
			c0.6,0,1-0.2,1.5-0.5l0.5,0.8c-0.6,0.4-1.3,0.7-2.1,0.7C236.6,44.8,235.2,43.6,235.2,41.6z M239.5,41c0-1.1-0.5-1.7-1.4-1.7
			c-0.8,0-1.5,0.6-1.6,1.7H239.5z"/>
		<path d="M245.6,38.4h1.3l0.8,3.4c0.1,0.6,0.2,1.2,0.3,1.8h0c0.1-0.6,0.3-1.2,0.4-1.8l0.9-3.4h1.2l0.9,3.4c0.1,0.6,0.3,1.2,0.4,1.8
			h0c0.1-0.6,0.2-1.2,0.4-1.8l0.8-3.4h1.2l-1.6,6.2h-1.6l-0.8-3.1c-0.1-0.6-0.3-1.2-0.4-1.8H250c-0.1,0.6-0.2,1.2-0.4,1.8l-0.8,3.1
			h-1.5L245.6,38.4z"/>
		<path d="M256.3,36.5c0-0.5,0.3-0.8,0.8-0.8c0.5,0,0.8,0.3,0.8,0.8c0,0.5-0.3,0.8-0.8,0.8C256.7,37.3,256.3,37,256.3,36.5z
			 M256.5,38.4h1.3v6.2h-1.3V38.4z"/>
		<path d="M260.8,42.6v-3.1h-0.9v-1l1-0.1l0.1-1.7h1.1v1.7h1.6v1h-1.6v3.2c0,0.7,0.3,1.1,0.9,1.1c0.2,0,0.5-0.1,0.7-0.1l0.2,1
			c-0.4,0.1-0.8,0.2-1.2,0.2C261.3,44.8,260.8,43.9,260.8,42.6z"/>
		<path d="M265.9,35.6h1.3V38l-0.1,1.2c0.5-0.5,1.2-1,2-1c1.3,0,1.9,0.9,1.9,2.5v3.9h-1.3v-3.8c0-1.1-0.3-1.5-1.1-1.5
			c-0.6,0-1,0.3-1.5,0.8v4.4h-1.3V35.6z"/>
		<path d="M276.7,43.6l0.8-0.9c0.6,0.6,1.4,1,2.2,1c1,0,1.6-0.5,1.6-1.2c0-0.8-0.6-1-1.3-1.3l-1.2-0.5c-0.8-0.3-1.7-1-1.7-2.2
			c0-1.3,1.2-2.3,2.7-2.3c1,0,1.9,0.4,2.5,1.1l-0.7,0.8c-0.5-0.5-1.1-0.7-1.8-0.7c-0.8,0-1.4,0.4-1.4,1.1c0,0.7,0.7,1,1.3,1.3
			l1.1,0.5c1,0.4,1.7,1,1.7,2.3c0,1.3-1.1,2.4-2.9,2.4C278.5,44.8,277.5,44.4,276.7,43.6z"/>
		<path d="M284.9,38.4h1.1l0.1,0.9h0c0.5-0.6,1.2-1,1.9-1c0.9,0,1.4,0.4,1.7,1.1c0.6-0.7,1.2-1.1,2-1.1c1.3,0,1.9,0.9,1.9,2.5v3.9
			h-1.3v-3.8c0-1.1-0.3-1.5-1-1.5c-0.4,0-0.9,0.3-1.4,0.8v4.4h-1.3v-3.8c0-1.1-0.3-1.5-1-1.5c-0.4,0-0.9,0.3-1.4,0.8v4.4h-1.3V38.4z
			"/>
		<path d="M296.1,43c0-1.3,1.1-2,3.7-2.3c0-0.7-0.3-1.4-1.2-1.4c-0.7,0-1.3,0.3-1.8,0.6l-0.5-0.9c0.6-0.4,1.5-0.8,2.5-0.8
			c1.5,0,2.3,1,2.3,2.6v3.7H300l-0.1-0.7h0c-0.6,0.5-1.2,0.9-2,0.9C296.8,44.8,296.1,44.1,296.1,43z M299.8,43.1v-1.5
			c-1.8,0.2-2.5,0.7-2.5,1.4c0,0.6,0.4,0.9,1,0.9C298.8,43.8,299.3,43.5,299.8,43.1z"/>
		<path d="M303.8,38.4h1.1l0.1,1.1h0c0.4-0.8,1.1-1.3,1.8-1.3c0.3,0,0.5,0,0.7,0.1l-0.2,1.1c-0.2-0.1-0.4-0.1-0.6-0.1
			c-0.5,0-1.1,0.4-1.5,1.3v3.9h-1.3V38.4z"/>
		<path d="M309.5,42.6v-3.1h-0.9v-1l1-0.1l0.1-1.7h1.1v1.7h1.6v1h-1.6v3.2c0,0.7,0.3,1.1,0.9,1.1c0.2,0,0.5-0.1,0.7-0.1l0.2,1
			c-0.4,0.1-0.8,0.2-1.2,0.2C309.9,44.8,309.5,43.9,309.5,42.6z"/>
		<path d="M314.7,36.3h2.7c1.7,0,3,0.6,3,2.4c0,1.3-0.7,2.1-1.7,2.4l2,3.5h-1.5l-1.9-3.4H316v3.4h-1.3V36.3z M317.3,40.3
			c1.2,0,1.9-0.5,1.9-1.5s-0.7-1.4-1.9-1.4H316v2.9H317.3z"/>
		<path d="M322.3,41.6c0-2,1.4-3.3,2.8-3.3c1.7,0,2.5,1.2,2.5,2.9c0,0.3,0,0.5-0.1,0.7h-4c0.1,1.2,0.8,1.9,1.9,1.9
			c0.6,0,1-0.2,1.5-0.5l0.5,0.8c-0.6,0.4-1.3,0.7-2.1,0.7C323.6,44.8,322.3,43.6,322.3,41.6z M326.5,41c0-1.1-0.5-1.7-1.4-1.7
			c-0.8,0-1.5,0.6-1.6,1.7H326.5z"/>
		<path d="M329.4,43c0-1.3,1.1-2,3.7-2.3c0-0.7-0.3-1.4-1.2-1.4c-0.7,0-1.3,0.3-1.8,0.6l-0.5-0.9c0.6-0.4,1.5-0.8,2.5-0.8
			c1.5,0,2.3,1,2.3,2.6v3.7h-1.1l-0.1-0.7h0c-0.6,0.5-1.2,0.9-2,0.9C330.2,44.8,329.4,44.1,329.4,43z M333.1,43.1v-1.5
			c-1.8,0.2-2.5,0.7-2.5,1.4c0,0.6,0.4,0.9,1,0.9C332.2,43.8,332.6,43.5,333.1,43.1z"/>
		<path d="M336.7,41.6c0-2,1.3-3.3,2.7-3.3c0.7,0,1.2,0.3,1.7,0.7l-0.1-1v-2.3h1.3v9h-1.1l-0.1-0.7h0c-0.5,0.5-1.1,0.8-1.8,0.8
			C337.7,44.8,336.7,43.6,336.7,41.6z M341,43v-3c-0.5-0.4-0.9-0.6-1.4-0.6c-0.9,0-1.6,0.8-1.6,2.2c0,1.4,0.6,2.2,1.5,2.2
			C340.1,43.7,340.6,43.5,341,43z"/>
		<path d="M345,36.5c0-0.5,0.3-0.8,0.8-0.8c0.5,0,0.8,0.3,0.8,0.8c0,0.5-0.3,0.8-0.8,0.8C345.3,37.3,345,37,345,36.5z M345.1,38.4
			h1.3v6.2h-1.3V38.4z"/>
		<path d="M349.2,38.4h1.1l0.1,0.9h0c0.6-0.6,1.2-1,2.1-1c1.3,0,1.9,0.9,1.9,2.5v3.9h-1.3v-3.8c0-1.1-0.3-1.5-1.1-1.5
			c-0.6,0-1,0.3-1.5,0.8v4.4h-1.3V38.4z"/>
		<path d="M356.7,45.8c0-0.5,0.3-1,0.9-1.4v-0.1c-0.3-0.2-0.6-0.5-0.6-1c0-0.5,0.4-0.9,0.7-1.2v0c-0.4-0.3-0.8-0.9-0.8-1.7
			c0-1.4,1.1-2.2,2.4-2.2c0.4,0,0.7,0.1,0.9,0.2h2.2v1h-1.2c0.2,0.2,0.4,0.7,0.4,1.1c0,1.4-1,2.1-2.3,2.1c-0.3,0-0.6-0.1-0.9-0.2
			c-0.2,0.2-0.3,0.4-0.3,0.7c0,0.4,0.2,0.6,1,0.6h1.1c1.5,0,2.2,0.5,2.2,1.5c0,1.2-1.3,2.2-3.3,2.2
			C357.7,47.5,356.7,46.9,356.7,45.8z M361.2,45.5c0-0.5-0.4-0.7-1.2-0.7h-0.9c-0.3,0-0.6,0-0.8-0.1c-0.4,0.3-0.5,0.6-0.5,0.9
			c0,0.6,0.6,1,1.7,1C360.5,46.6,361.2,46.1,361.2,45.5z M360.5,40.5c0-0.8-0.5-1.3-1.2-1.3c-0.7,0-1.2,0.5-1.2,1.3
			c0,0.8,0.5,1.3,1.2,1.3C359.9,41.9,360.5,41.3,360.5,40.5z"/>
		<path d="M364,41h3v1h-3V41z"/>
		<path d="M369.5,36.3h4.9v1.1h-3.6v2.3h3.1v1.1h-3.1v2.7h3.7v1.1h-5V36.3z"/>
		<path d="M377,38.4h1.1l0.1,0.9h0c0.6-0.6,1.2-1,2.1-1c1.3,0,1.9,0.9,1.9,2.5v3.9h-1.3v-3.8c0-1.1-0.3-1.5-1.1-1.5
			c-0.6,0-1,0.3-1.5,0.8v4.4H377V38.4z"/>
		<path d="M384.5,45.8c0-0.5,0.3-1,0.9-1.4v-0.1c-0.3-0.2-0.6-0.5-0.6-1c0-0.5,0.4-0.9,0.7-1.2v0c-0.4-0.3-0.8-0.9-0.8-1.7
			c0-1.4,1.1-2.2,2.4-2.2c0.4,0,0.7,0.1,0.9,0.2h2.2v1H389c0.2,0.2,0.4,0.7,0.4,1.1c0,1.4-1,2.1-2.3,2.1c-0.3,0-0.6-0.1-0.9-0.2
			c-0.2,0.2-0.3,0.4-0.3,0.7c0,0.4,0.2,0.6,1,0.6h1.1c1.5,0,2.2,0.5,2.2,1.5c0,1.2-1.3,2.2-3.3,2.2
			C385.6,47.5,384.5,46.9,384.5,45.8z M389.1,45.5c0-0.5-0.4-0.7-1.2-0.7h-0.9c-0.3,0-0.6,0-0.8-0.1c-0.4,0.3-0.5,0.6-0.5,0.9
			c0,0.6,0.6,1,1.7,1C388.3,46.6,389.1,46.1,389.1,45.5z M388.3,40.5c0-0.8-0.5-1.3-1.2-1.3c-0.7,0-1.2,0.5-1.2,1.3
			c0,0.8,0.5,1.3,1.2,1.3C387.7,41.9,388.3,41.3,388.3,40.5z"/>
		<path d="M392.3,43.2v-7.6h1.3v7.6c0,0.4,0.1,0.5,0.3,0.5c0.1,0,0.1,0,0.2,0l0.2,1c-0.2,0.1-0.4,0.1-0.7,0.1
			C392.7,44.8,392.3,44.2,392.3,43.2z"/>
		<path d="M396.4,36.5c0-0.5,0.3-0.8,0.8-0.8c0.5,0,0.8,0.3,0.8,0.8c0,0.5-0.3,0.8-0.8,0.8C396.7,37.3,396.4,37,396.4,36.5z
			 M396.5,38.4h1.3v6.2h-1.3V38.4z"/>
		<path d="M400,44l0.6-0.8c0.6,0.4,1.1,0.7,1.8,0.7c0.7,0,1.1-0.4,1.1-0.8c0-0.6-0.7-0.8-1.4-1.1c-0.8-0.3-1.8-0.8-1.8-1.8
			c0-1,0.8-1.8,2.2-1.8c0.8,0,1.5,0.3,2,0.7l-0.6,0.8c-0.4-0.3-0.9-0.5-1.4-0.5c-0.7,0-1,0.3-1,0.8c0,0.5,0.6,0.7,1.3,1
			c0.9,0.3,1.8,0.7,1.8,1.9c0,1-0.8,1.9-2.4,1.9C401.4,44.8,400.6,44.4,400,44z"/>
		<path d="M406.9,35.6h1.3V38l-0.1,1.2c0.5-0.5,1.2-1,2-1c1.3,0,1.9,0.9,1.9,2.5v3.9h-1.3v-3.8c0-1.1-0.3-1.5-1.1-1.5
			c-0.6,0-1,0.3-1.5,0.8v4.4h-1.3V35.6z"/>
		<path d="M414.9,43.9c0-0.5,0.4-0.9,0.9-0.9c0.5,0,0.9,0.4,0.9,0.9c0,0.5-0.4,0.9-0.9,0.9C415.2,44.8,414.9,44.4,414.9,43.9z
			 M415.1,37.5l0-1.3h1.3l0,1.3l-0.2,4.5h-0.9L415.1,37.5z"/>
	</g>
</g>
<g>
	<g>
		
			<image style="overflow:visible;" width="439" height="37" xlink:href="738757B.png"  transform="matrix(0.9686 0 0 0.9686 -0.1 0)">
		</image>
		<g>
			
				<image style="overflow:visible;" width="432" height="31" xlink:href="7387576.png"  transform="matrix(0.9686 0 0 0.9686 3.7743 2.9057)">
			</image>
			<g>
				<path d="M16.3,23.5c-3.1,1-6.5,1.9-9,2.6l-0.6-2.2c1.1-0.2,2.4-0.6,3.8-1v-5.6h-3v-2.2h3v-4.9H7.2V8h8.6v2.2h-3.1v4.9h2.8v2.2
					h-2.8v5l3.2-0.9L16.3,23.5z M27.7,27.7c0.5,0,0.6-0.4,0.7-2.9c0.5,0.4,1.4,0.7,2,0.9c-0.2,3.2-0.8,4.1-2.4,4.1h-2.2
					c-2,0-2.5-0.7-2.5-2.7v-5.3h-2.1c-0.5,4-1.7,6.8-6.8,8.4c-0.2-0.6-0.8-1.5-1.3-1.9c4.5-1.2,5.5-3.3,5.8-6.5h-2.1V7.8h12v13.9
					h-3.3v5.3c0,0.7,0.1,0.8,0.6,0.8H27.7z M19.1,11.8h7.5V9.7h-7.5V11.8z M19.1,15.7h7.5v-2.1h-7.5V15.7z M19.1,19.7h7.5v-2.1h-7.5
					V19.7z"/>
				<path d="M56.6,10.4v2.2H43c-0.9,1.8-1.8,3.5-3,5.1v12.1h-2.3v-9.4c-0.8,0.8-1.7,1.5-2.6,2.2c-0.3-0.6-0.8-1.6-1.2-2.2
					c2.8-1.9,4.9-4.7,6.5-7.8h-5.8v-2.2h6.8c0.5-1.2,0.9-2.5,1.2-3.7l2.4,0.6c-0.3,1-0.7,2.1-1.1,3.1H56.6z M50.2,27.1h6.3v2.2h-15
					v-2.2h6.3v-6.5h-5.4v-2.2h5.4v-4.5h2.4v4.5h5.4v2.2h-5.4V27.1z"/>
				<path d="M65.4,21.3c-0.6,2.3-1.5,4.8-2.5,6.3c-0.4-0.3-1.2-0.9-1.7-1.1c1-1.4,1.8-3.6,2.2-5.6L65.4,21.3z M72.9,11.8H61.5V9.7h5
					c-0.3-0.8-0.6-1.8-1-2.5l2.1-0.5c0.5,0.9,1,2.1,1.3,3h3.9V11.8z M68.5,19.8v7.7c0,1-0.2,1.5-0.8,1.8c-0.7,0.3-1.6,0.4-2.9,0.4
					c-0.1-0.6-0.4-1.4-0.7-1.9c0.8,0,1.6,0,1.9,0c0.3,0,0.4-0.1,0.4-0.3v-7.7h-3.7v-6.3h9.2v6.3H68.5z M64.7,18h5v-2.6h-5V18z
					 M70.9,20.6c0.8,1.4,1.6,3.2,1.9,4.4L71,25.8c-0.3-1.2-1-3.1-1.8-4.5L70.9,20.6z M81.7,27.5c0.3,0,0.5,0,0.6-0.1
					c0.2-0.1,0.3-0.3,0.3-0.7c0.1-0.5,0.1-1.5,0.1-2.7c0.4,0.4,1.2,0.8,1.8,1c-0.1,1.2-0.2,2.5-0.3,3c-0.2,0.5-0.5,0.9-0.9,1.1
					c-0.4,0.2-1,0.3-1.5,0.3h-1.6c-0.6,0-1.2-0.2-1.6-0.5c-0.4-0.4-0.6-0.8-0.6-2.5v-8.6c-0.7,4.7-2.1,9.1-5.4,12.1
					c-0.4-0.5-1.1-1.1-1.7-1.4c3.5-3.1,4.8-8.1,5.2-13.2h-3.1v-2.1h3.2c0.1-2.2,0.1-4.3,0.1-6.4h2.2c0,2-0.1,4.2-0.2,6.4h5.5v2.1
					h-5.7c-0.1,0.6-0.1,1.1-0.2,1.7h1.9v9.6c0,0.5,0,0.8,0.2,0.9c0.1,0.1,0.3,0.1,0.5,0.1H81.7z M81.8,12.5
					c-0.5-1.1-1.5-2.7-2.5-3.9l1.5-0.9c1,1.1,2.1,2.6,2.6,3.7L81.8,12.5z"/>
				<path d="M95.2,19.1c-0.4,2.1-0.9,4-1.6,5.5c1.6,2.5,4.5,2.8,8.8,2.8c2.6,0,6.5-0.1,9.2-0.4c-0.4,0.5-0.7,1.6-0.8,2.2
					c-2.4,0.2-5.6,0.2-8.4,0.2c-4.8,0-7.8-0.5-9.7-3.1c-0.9,1.5-2,2.7-3.3,3.5c-0.3-0.5-1.1-1.3-1.5-1.6c2.4-1.5,4.1-4.1,4.9-7.8
					h-2.5c-0.6,0-1.3,0.2-1.5,0.4c-0.1-0.5-0.6-1.6-0.8-2c0.4-0.1,0.8-0.3,1.2-0.8c0.5-0.5,1.8-2.2,2.8-3.7h-3.7v-1.9h5.2l0.3-0.1
					l1.5,0.7c-1,1.4-2.7,3.9-4.1,5.6h2.4l0.4-0.1L95.2,19.1z M92.4,11.8c-0.7-1-2.1-2.8-3.2-4L91,6.7c1.2,1.2,2.5,2.8,3.2,3.8
					L92.4,11.8z M97.1,15c-0.6,0.8-1.1,1.5-1.7,2.1c-0.2-0.4-0.8-1.4-1.2-1.9c2-2.1,3.8-5.2,4.9-8.4l2,0.6c-0.4,1.1-0.9,2.2-1.4,3.3
					h4.4c-0.3-1-0.9-2.2-1.4-3.1l2-0.6c0.7,1.2,1.4,2.7,1.7,3.7h4.2v1.9h-5.2v2.2h4.4v1.8h-4.4v2.2h4.5v1.8h-4.5V23h5.7v1.9H97.1V15
					z M103.1,12.7h-3.9v2.2h3.9V12.7z M103.1,16.7h-3.9v2.2h3.9V16.7z M103.1,20.7h-3.9V23h3.9V20.7z"/>
				<path d="M136.3,21.2c-0.8-0.9-2.2-2.1-3.6-3.3c-0.6,1-1.2,1.9-2,2.6c-0.4-0.3-1.3-0.9-1.9-1.2c2.3,3.1,6,5.9,9.8,7.4
					c-0.6,0.5-1.4,1.5-1.8,2.1c-3.3-1.5-6.4-4-8.8-7v8h-2.5v-7.9c-2.4,2.9-5.5,5.4-8.7,6.9c-0.4-0.6-1.1-1.5-1.7-2
					c4.1-1.6,8.1-5,10.4-8.5v-6h-9.4v-2.3h9.4V6.7h2.5v3.3h9.7v2.3H128v5.9c0.2,0.4,0.5,0.7,0.7,1.1c1.7-1.5,2.9-3.9,3.5-6.5
					l2.3,0.4c-0.2,1-0.5,1.9-0.9,2.8c1.5,1.2,3.4,2.6,4.4,3.6L136.3,21.2z M122.6,13.2c-0.3,1-0.6,1.9-0.9,2.8
					c1,0.9,2.1,1.8,2.7,2.5l-1.6,1.7c-0.5-0.6-1.2-1.4-2.1-2.1c-0.8,1.5-1.9,2.7-3,3.7c-0.4-0.4-1.3-1.2-1.8-1.5
					c2.2-1.7,3.8-4.3,4.5-7.5L122.6,13.2z"/>
				<path d="M164.1,18.1c-1.1,2.1-2.6,4-4.3,5.7c0.8,2.3,1.8,3.8,2.8,3.8c0.6,0,0.9-1.2,1-4.4c0.5,0.6,1.3,1.1,2,1.3
					c-0.4,4.3-1.2,5.4-3.2,5.4c-1.9,0-3.4-1.7-4.5-4.4c-1.6,1.3-3.2,2.5-5,3.4c-0.4-0.6-1-1.4-1.6-1.9c2.1-1,4-2.3,5.8-3.9
					c-0.6-2-1-4.5-1.3-7.1h-5.6v3.5l4.2-0.8l0.2,2.1c-1.4,0.3-2.9,0.7-4.4,1v5c0,1.4-0.3,2.1-1.2,2.4c-0.9,0.4-2.3,0.5-4.3,0.5
					c-0.1-0.7-0.5-1.7-0.9-2.4c1.5,0.1,3,0.1,3.4,0c0.5,0,0.6-0.2,0.6-0.6v-4.5c-1.8,0.4-3.4,0.7-4.9,1l-0.7-2.3
					c1.5-0.3,3.4-0.6,5.5-1v-4h-5.1V14h5.1v-3.5c-1.5,0.3-3,0.5-4.3,0.6c-0.1-0.5-0.4-1.4-0.7-1.9c3.5-0.5,7.5-1.3,10-2.2l1.6,2
					c-1.2,0.4-2.7,0.8-4.2,1.1v4h5.3c-0.2-2.3-0.3-4.6-0.3-7h2.4c0,2.4,0.1,4.8,0.3,7h7.2v2.2h-6.9c0.3,1.9,0.6,3.6,0.9,5.1
					c1.1-1.3,2.1-2.7,2.9-4.1L164.1,18.1z M162.8,12.9c-0.7-1.2-2.3-3-3.8-4.3l1.8-1.2c1.4,1.2,3.1,2.9,3.9,4.1L162.8,12.9z"/>
				<path d="M176.3,7.4c-0.6,1.7-1.2,3.4-2,5v17.4h-2.2V16.5c-0.7,1-1.3,2-2,2.8c-0.2-0.6-0.8-1.9-1.2-2.5c2.1-2.4,4-6.2,5.2-10
					L176.3,7.4z M183.3,17.4h-4.7v12.4h-2.2V8.1h6.9V17.4z M178.6,9.9v1.9h2.9V9.9H178.6z M181.5,15.6v-2h-2.9v2H181.5z M191.8,27
					c0,1.4-0.3,2-1.2,2.4c-0.9,0.4-2.4,0.4-4.8,0.4c-0.1-0.6-0.5-1.6-0.8-2.3c1.7,0.1,3.4,0.1,3.9,0.1c0.5,0,0.6-0.2,0.6-0.6v-9.6
					h-5V8.1h7.2V27z M186.5,9.9v1.9h3V9.9H186.5z M189.6,15.6v-2h-3v2H189.6z"/>
				<path d="M219,10.6c0,0,0,0.8,0,1.1c-0.4,11.4-0.7,15.3-1.7,16.5c-0.6,0.8-1.2,1.1-2.2,1.2c-0.9,0.1-2.4,0.1-3.8,0
					c-0.1-0.6-0.3-1.6-0.8-2.3c1.6,0.1,3.1,0.2,3.7,0.2c0.5,0,0.8-0.1,1.1-0.4c0.8-0.8,1.1-4.6,1.5-14.1h-5.9
					c-0.7,1.6-1.5,3.1-2.3,4.2c-0.4-0.4-1.3-1-1.8-1.3v11.6h-6.8v1.9h-2.1V10.8h2.8c0.4-1.2,0.7-2.9,0.9-4.1l2.5,0.4
					c-0.4,1.3-0.9,2.6-1.3,3.7h4v4.8c1.7-2.2,3-5.5,3.8-8.8l2.3,0.5c-0.3,1.2-0.6,2.3-1,3.4H219z M199.8,12.8v4.8h4.7v-4.8H199.8z
					 M204.5,25.2v-5.6h-4.7v5.6H204.5z M212.9,23.2c-0.7-1.5-2.3-4-3.7-5.8l1.8-1c1.3,1.7,3,4.1,3.8,5.6L212.9,23.2z"/>
				<path d="M235.8,22.7c-1,3-3.8,5.5-10.8,7.2c-0.3-0.5-0.9-1.4-1.4-1.9c6.1-1.3,8.6-3.1,9.6-5.3h-9.3v-2.2h2.7v-6h7.3v-2.3h2.4
					v2.3h7.7v6h2.5v2.2H235.8z M228.9,11.1h-4.5v-2h4.5V6.8h2.3v2.4h3.3v2h-3.3v2.3h-2.3V11.1z M233.8,20.5c0.1-0.4,0.1-0.8,0.1-1.3
					v-2.7h-5v4H233.8z M236.7,23.1c3.2,1.3,7.7,3.4,9.9,4.9l-1.2,1.9c-2.1-1.5-6.5-3.8-9.8-5.1L236.7,23.1z M239.3,11.1h-3.6v-2h3.6
					V6.8h2.4v2.3h4.3v2h-4.3v2.3h-2.4V11.1z M236.3,16.5v2.8c0,0.4,0,0.8-0.1,1.2h5.4v-4H236.3z"/>
				<path d="M269.8,13.3c-1.3,3.8-3.2,6.9-5.6,9.4c2.7,2.2,6,3.8,9.9,4.8c-0.5,0.5-1.2,1.5-1.6,2.2c-4-1.1-7.4-2.9-10.1-5.2
					c-2.8,2.4-6.2,4.1-10.3,5.4c-0.3-0.6-1-1.7-1.5-2.2c4.1-1.1,7.4-2.6,10-4.8c-2.4-2.6-4.3-5.7-5.7-9.4H251v-2.3h10.9
					c-0.3-1-1-2.6-1.7-3.8l2.5-0.7c0.7,1.2,1.5,2.8,1.9,3.8l-2.2,0.7h11.3v2.3H269.8z M257.4,13.3c1.2,3,2.9,5.6,5,7.8
					c2-2.1,3.6-4.7,4.7-7.8H257.4z"/>
				<path d="M281.2,14.9v14.9H279V7.6h9.3v7.3H281.2z M281.2,9.2v1.3h5V9.2H281.2z M286.1,13.4v-1.4h-5v1.4H286.1z M299.8,27.1
					c0,1.2-0.2,1.7-0.9,2.1c-0.7,0.4-1.8,0.4-3.3,0.4c-0.1-0.4-0.2-1-0.4-1.6c-0.3,0.4-0.7,0.5-1.4,0.5H292c-1.8,0-2.1-0.5-2.1-2.2
					v-2.5h-1.7c-0.4,2.6-1.5,4.2-4.7,5.2c-0.2-0.5-0.7-1.3-1.1-1.6c2.7-0.7,3.6-1.8,3.9-3.6h-1.6v-4.3c-0.5,0.3-0.9,0.6-1.4,0.8
					c-0.4-0.4-1-0.9-1.4-1.2c1.8-0.9,3.8-2.3,4.7-3.7l1.8,0.6c-0.8,1-1.9,2.1-3,2.9h8.2c-1.1-0.9-2.4-1.8-3.6-2.5l1.3-1
					c1.8,1.1,4,2.7,5.2,3.8l-1.4,1.1c-0.3-0.4-0.7-0.7-1.2-1.1v4.5h-2.1v2.5c0,0.5,0.1,0.6,0.5,0.6h1.3c0.4,0,0.5-0.2,0.6-1.8
					c0.4,0.3,1.2,0.6,1.7,0.7c-0.1,0.8-0.2,1.4-0.4,1.8c0.8,0,1.4,0,1.7,0c0.3,0,0.4-0.1,0.4-0.5V14.9h-7.3V7.7h9.6V27.1z
					 M286.4,22.3h5.6v-2h-5.6V22.3z M292.5,9.2v1.3h5.1V9.2H292.5z M297.6,13.4V12h-5.1v1.4H297.6z"/>
				<path d="M313,12.8h-8.1v-1.9h4.1c-0.5-0.9-1.3-2.2-2.1-3.2l2-0.8c0.9,1,1.8,2.3,2.3,3.2l-1.7,0.8h3.6V12.8z M312.6,19.5h-6.9
					v-1.8h6.9V19.5z M312.4,28.4h-4.6v1.1h-1.9v-8.5h6.5V28.4z M305.9,16.2v-1.8h6.5v1.8H305.9z M307.7,23v3.7h2.7V23H307.7z
					 M323.2,26.2c1.8,0.7,3.7,1.6,4.9,2.1l-1.3,1.6c-1.2-0.7-3.3-1.7-5.1-2.5l0.9-1.2H318l1.6,1c-1.4,1.1-3.7,2.1-5.6,2.7
					c-0.4-0.4-1-1.1-1.5-1.4c1.8-0.5,3.9-1.4,5-2.2h-2.8v-7.4h12.1v7.4H323.2z M319.4,9.5h-5.6V8h5.6V6.7h2.3V8h6v1.5h-6v1.1h5.3V12
					h-12.3v-1.5h4.8V9.5z M313.9,12.9h13.6V18h-13.6V12.9z M315.8,16.8h2.1v-2.6h-2.1V16.8z M316.8,21h7.9v-0.9h-7.9V21z M316.8,23
					h7.9V22h-7.9V23z M316.8,24.9h7.9v-1h-7.9V24.9z M321.8,16.8v-2.6h-2.4v2.6H321.8z M325.5,14.2h-2.2v2.6h2.2V14.2z"/>
				<path d="M341.3,24.1c-1.8,2.2-5,4-8,4.9c-0.4-0.6-1-1.5-1.6-2c2.9-0.6,6-2.1,7.6-3.8L341.3,24.1z M344.8,20.6h10v1.9h-10v7.2
					h-2.3v-7.2h-10.1v-1.9h10.1v-1.4h2.3V20.6z M338.3,19.4c0-0.3-0.1-0.7-0.2-1.1c-3.9,0.6-4.6,0.7-5,0.9c-0.1-0.4-0.4-1.3-0.6-1.8
					c0.5-0.1,1-0.6,1.6-1.3c0.3-0.4,1-1.2,1.7-2.3c-1.8,0.2-2.3,0.4-2.6,0.5c-0.1-0.4-0.4-1.3-0.6-1.7c0.3-0.1,0.7-0.5,1-1
					c0.3-0.5,1.5-2.6,2.1-4.6l1.8,0.7c-0.7,1.6-1.5,3.3-2.4,4.6l1.8-0.2c0.5-0.8,0.9-1.5,1.2-2.3l1.7,0.9c-1.3,2.2-2.9,4.5-4.5,6.3
					l2.6-0.3c-0.1-0.6-0.3-1.2-0.4-1.7l1.6-0.3c0.4,1.4,0.8,3.1,0.9,4.3L338.3,19.4z M346.9,18.6h-6.7V9h2c0.2-0.8,0.4-1.8,0.5-2.4
					l2.1,0.4c-0.3,0.7-0.6,1.4-0.8,2.1h2.8V18.6z M344.9,10.8h-2.6V13h2.6V10.8z M344.9,14.6h-2.6v2.2h2.6V14.6z M347.6,23.2
					c2.4,1.2,5.5,3.1,7.2,4.4l-1.5,1.7c-1.5-1.3-4.6-3.3-7.1-4.6L347.6,23.2z M353.2,19.6c-0.1-0.3-0.1-0.7-0.2-1.1
					c-3.9,0.5-4.6,0.7-5,0.8c-0.1-0.4-0.4-1.3-0.6-1.8c0.5-0.1,1-0.6,1.6-1.3c0.3-0.4,1-1.2,1.8-2.3c-2.1,0.3-2.6,0.4-2.9,0.6
					c-0.1-0.4-0.4-1.3-0.6-1.8c0.4-0.1,0.7-0.5,1-1.1c0.4-0.6,1.5-2.7,2.1-4.7l1.9,0.6c-0.7,1.7-1.6,3.5-2.5,4.8l2.1-0.2
					c0.4-0.7,0.8-1.4,1.2-2.1l1.8,1c-1.3,2.2-3,4.5-4.6,6.3l2.6-0.3c-0.1-0.6-0.3-1.1-0.5-1.6l1.5-0.4c0.4,1.3,0.9,2.9,1.1,4.1
					L353.2,19.6z"/>
				<path d="M381.2,7.8v22.1h-2.3v-1h-16.5v1h-2.2V7.8H381.2z M378.9,26.8V9.9h-16.5v16.9H378.9z M371.5,23.5
					c-0.1,0.4-0.1,1.1,0,1.4c-4.5,1.2-5.2,1.4-5.6,1.7c-0.1-0.4-0.4-1.1-0.6-1.3c0.4-0.2,0.9-0.4,0.9-1.4v-1.4
					c-0.8,0.3-1.6,0.6-2.4,0.8c-0.2-0.4-0.8-1-1.1-1.4c1.8-0.4,3.8-1.1,5.3-1.8h-3.2v-3.7h11.6v3.7h-5.7c-0.8,0.6-1.7,1.1-2.7,1.6
					v2.6L371.5,23.5z M377.8,15.6h-14.4v-1.4h6.1v-1.3h-4.7v-1.4h4.7v-1.2h2.1v1.2h5v1.4h-5v1.3h6.2V15.6z M366.9,19h7.6v-1.4h-7.6
					V19z M377.9,21.4c-0.8,0.6-1.7,1.1-2.5,1.5c1,0.7,1.9,1.4,2.6,2l-1.5,0.9c-1.4-1.2-4.2-3.2-6.4-4.5l1.4-0.8
					c0.8,0.5,1.7,1,2.6,1.6c0.9-0.5,1.8-1.1,2.3-1.6L377.9,21.4z"/>
				<path d="M394.1,23.3h-4.8v2.3h-2.1V9h7V23.3z M389.3,11.2v9.9h2.7v-9.9H389.3z M405.5,27.3c1.4,0,1.6-0.7,1.8-3.4
					c0.6,0.4,1.5,0.8,2.1,0.9c-0.4,3.5-1.1,4.6-3.8,4.6H400c-3,0-4-0.7-4-3.9V8.3h12.5v13.4h-2.3v-1.5h-7.9v5.4
					c0,1.5,0.3,1.8,1.8,1.8H405.5z M398.3,10.5V18h2.8v-7.6H398.3z M406.2,10.5h-2.9V18h2.9V10.5z"/>
				<path d="M414.6,26.2c0-1.2,0.8-2.1,1.9-2.1c1.1,0,2,0.9,2,2.1c0,1.2-0.9,2-2,2C415.5,28.2,414.6,27.4,414.6,26.2z M415.2,11.9
					l-0.1-3h2.9l-0.1,3l-0.4,10.1h-1.9L415.2,11.9z"/>
			</g>
		</g>
	</g>
	<g>
		<path d="M16.3,23.5c-3.1,1-6.5,1.9-9,2.6l-0.6-2.2c1.1-0.2,2.4-0.6,3.8-1v-5.6h-3v-2.2h3v-4.9H7.2V8h8.6v2.2h-3.1v4.9h2.8v2.2
			h-2.8v5l3.2-0.9L16.3,23.5z M27.7,27.7c0.5,0,0.6-0.4,0.7-2.9c0.5,0.4,1.4,0.7,2,0.9c-0.2,3.2-0.8,4.1-2.4,4.1h-2.2
			c-2,0-2.5-0.7-2.5-2.7v-5.3h-2.1c-0.5,4-1.7,6.8-6.8,8.4c-0.2-0.6-0.8-1.5-1.3-1.9c4.5-1.2,5.5-3.3,5.8-6.5h-2.1V7.8h12v13.9h-3.3
			v5.3c0,0.7,0.1,0.8,0.6,0.8H27.7z M19.1,11.8h7.5V9.7h-7.5V11.8z M19.1,15.7h7.5v-2.1h-7.5V15.7z M19.1,19.7h7.5v-2.1h-7.5V19.7z"
			/>
		<path d="M56.6,10.4v2.2H43c-0.9,1.8-1.8,3.5-3,5.1v12.1h-2.3v-9.4c-0.8,0.8-1.7,1.5-2.6,2.2c-0.3-0.6-0.8-1.6-1.2-2.2
			c2.8-1.9,4.9-4.7,6.5-7.8h-5.8v-2.2h6.8c0.5-1.2,0.9-2.5,1.2-3.7l2.4,0.6c-0.3,1-0.7,2.1-1.1,3.1H56.6z M50.2,27.1h6.3v2.2h-15
			v-2.2h6.3v-6.5h-5.4v-2.2h5.4v-4.5h2.4v4.5h5.4v2.2h-5.4V27.1z"/>
		<path d="M65.4,21.3c-0.6,2.3-1.5,4.8-2.5,6.3c-0.4-0.3-1.2-0.9-1.7-1.1c1-1.4,1.8-3.6,2.2-5.6L65.4,21.3z M72.9,11.8H61.5V9.7h5
			c-0.3-0.8-0.6-1.8-1-2.5l2.1-0.5c0.5,0.9,1,2.1,1.3,3h3.9V11.8z M68.5,19.8v7.7c0,1-0.2,1.5-0.8,1.8c-0.7,0.3-1.6,0.4-2.9,0.4
			c-0.1-0.6-0.4-1.4-0.7-1.9c0.8,0,1.6,0,1.9,0c0.3,0,0.4-0.1,0.4-0.3v-7.7h-3.7v-6.3h9.2v6.3H68.5z M64.7,18h5v-2.6h-5V18z
			 M70.9,20.6c0.8,1.4,1.6,3.2,1.9,4.4L71,25.8c-0.3-1.2-1-3.1-1.8-4.5L70.9,20.6z M81.7,27.5c0.3,0,0.5,0,0.6-0.1
			c0.2-0.1,0.3-0.3,0.3-0.7c0.1-0.5,0.1-1.5,0.1-2.7c0.4,0.4,1.2,0.8,1.8,1c-0.1,1.2-0.2,2.5-0.3,3c-0.2,0.5-0.5,0.9-0.9,1.1
			c-0.4,0.2-1,0.3-1.5,0.3h-1.6c-0.6,0-1.2-0.2-1.6-0.5c-0.4-0.4-0.6-0.8-0.6-2.5v-8.6c-0.7,4.7-2.1,9.1-5.4,12.1
			c-0.4-0.5-1.1-1.1-1.7-1.4c3.5-3.1,4.8-8.1,5.2-13.2h-3.1v-2.1h3.2c0.1-2.2,0.1-4.3,0.1-6.4h2.2c0,2-0.1,4.2-0.2,6.4h5.5v2.1h-5.7
			c-0.1,0.6-0.1,1.1-0.2,1.7h1.9v9.6c0,0.5,0,0.8,0.2,0.9c0.1,0.1,0.3,0.1,0.5,0.1H81.7z M81.8,12.5c-0.5-1.1-1.5-2.7-2.5-3.9
			l1.5-0.9c1,1.1,2.1,2.6,2.6,3.7L81.8,12.5z"/>
		<path d="M95.2,19.1c-0.4,2.1-0.9,4-1.6,5.5c1.6,2.5,4.5,2.8,8.8,2.8c2.6,0,6.5-0.1,9.2-0.4c-0.4,0.5-0.7,1.6-0.8,2.2
			c-2.4,0.2-5.6,0.2-8.4,0.2c-4.8,0-7.8-0.5-9.7-3.1c-0.9,1.5-2,2.7-3.3,3.5c-0.3-0.5-1.1-1.3-1.5-1.6c2.4-1.5,4.1-4.1,4.9-7.8h-2.5
			c-0.6,0-1.3,0.2-1.5,0.4c-0.1-0.5-0.6-1.6-0.8-2c0.4-0.1,0.8-0.3,1.2-0.8c0.5-0.5,1.8-2.2,2.8-3.7h-3.7v-1.9h5.2l0.3-0.1l1.5,0.7
			c-1,1.4-2.7,3.9-4.1,5.6h2.4l0.4-0.1L95.2,19.1z M92.4,11.8c-0.7-1-2.1-2.8-3.2-4L91,6.7c1.2,1.2,2.5,2.8,3.2,3.8L92.4,11.8z
			 M97.1,15c-0.6,0.8-1.1,1.5-1.7,2.1c-0.2-0.4-0.8-1.4-1.2-1.9c2-2.1,3.8-5.2,4.9-8.4l2,0.6c-0.4,1.1-0.9,2.2-1.4,3.3h4.4
			c-0.3-1-0.9-2.2-1.4-3.1l2-0.6c0.7,1.2,1.4,2.7,1.7,3.7h4.2v1.9h-5.2v2.2h4.4v1.8h-4.4v2.2h4.5v1.8h-4.5V23h5.7v1.9H97.1V15z
			 M103.1,12.7h-3.9v2.2h3.9V12.7z M103.1,16.7h-3.9v2.2h3.9V16.7z M103.1,20.7h-3.9V23h3.9V20.7z"/>
		<path d="M136.3,21.2c-0.8-0.9-2.2-2.1-3.6-3.3c-0.6,1-1.2,1.9-2,2.6c-0.4-0.3-1.3-0.9-1.9-1.2c2.3,3.1,6,5.9,9.8,7.4
			c-0.6,0.5-1.4,1.5-1.8,2.1c-3.3-1.5-6.4-4-8.8-7v8h-2.5v-7.9c-2.4,2.9-5.5,5.4-8.7,6.9c-0.4-0.6-1.1-1.5-1.7-2
			c4.1-1.6,8.1-5,10.4-8.5v-6h-9.4v-2.3h9.4V6.7h2.5v3.3h9.7v2.3H128v5.9c0.2,0.4,0.5,0.7,0.7,1.1c1.7-1.5,2.9-3.9,3.5-6.5l2.3,0.4
			c-0.2,1-0.5,1.9-0.9,2.8c1.5,1.2,3.4,2.6,4.4,3.6L136.3,21.2z M122.6,13.2c-0.3,1-0.6,1.9-0.9,2.8c1,0.9,2.1,1.8,2.7,2.5l-1.6,1.7
			c-0.5-0.6-1.2-1.4-2.1-2.1c-0.8,1.5-1.9,2.7-3,3.7c-0.4-0.4-1.3-1.2-1.8-1.5c2.2-1.7,3.8-4.3,4.5-7.5L122.6,13.2z"/>
		<path d="M164.1,18.1c-1.1,2.1-2.6,4-4.3,5.7c0.8,2.3,1.8,3.8,2.8,3.8c0.6,0,0.9-1.2,1-4.4c0.5,0.6,1.3,1.1,2,1.3
			c-0.4,4.3-1.2,5.4-3.2,5.4c-1.9,0-3.4-1.7-4.5-4.4c-1.6,1.3-3.2,2.5-5,3.4c-0.4-0.6-1-1.4-1.6-1.9c2.1-1,4-2.3,5.8-3.9
			c-0.6-2-1-4.5-1.3-7.1h-5.6v3.5l4.2-0.8l0.2,2.1c-1.4,0.3-2.9,0.7-4.4,1v5c0,1.4-0.3,2.1-1.2,2.4c-0.9,0.4-2.3,0.5-4.3,0.5
			c-0.1-0.7-0.5-1.7-0.9-2.4c1.5,0.1,3,0.1,3.4,0c0.5,0,0.6-0.2,0.6-0.6v-4.5c-1.8,0.4-3.4,0.7-4.9,1l-0.7-2.3
			c1.5-0.3,3.4-0.6,5.5-1v-4h-5.1V14h5.1v-3.5c-1.5,0.3-3,0.5-4.3,0.6c-0.1-0.5-0.4-1.4-0.7-1.9c3.5-0.5,7.5-1.3,10-2.2l1.6,2
			c-1.2,0.4-2.7,0.8-4.2,1.1v4h5.3c-0.2-2.3-0.3-4.6-0.3-7h2.4c0,2.4,0.1,4.8,0.3,7h7.2v2.2h-6.9c0.3,1.9,0.6,3.6,0.9,5.1
			c1.1-1.3,2.1-2.7,2.9-4.1L164.1,18.1z M162.8,12.9c-0.7-1.2-2.3-3-3.8-4.3l1.8-1.2c1.4,1.2,3.1,2.9,3.9,4.1L162.8,12.9z"/>
		<path d="M176.3,7.4c-0.6,1.7-1.2,3.4-2,5v17.4h-2.2V16.5c-0.7,1-1.3,2-2,2.8c-0.2-0.6-0.8-1.9-1.2-2.5c2.1-2.4,4-6.2,5.2-10
			L176.3,7.4z M183.3,17.4h-4.7v12.4h-2.2V8.1h6.9V17.4z M178.6,9.9v1.9h2.9V9.9H178.6z M181.5,15.6v-2h-2.9v2H181.5z M191.8,27
			c0,1.4-0.3,2-1.2,2.4c-0.9,0.4-2.4,0.4-4.8,0.4c-0.1-0.6-0.5-1.6-0.8-2.3c1.7,0.1,3.4,0.1,3.9,0.1c0.5,0,0.6-0.2,0.6-0.6v-9.6h-5
			V8.1h7.2V27z M186.5,9.9v1.9h3V9.9H186.5z M189.6,15.6v-2h-3v2H189.6z"/>
		<path d="M219,10.6c0,0,0,0.8,0,1.1c-0.4,11.4-0.7,15.3-1.7,16.5c-0.6,0.8-1.2,1.1-2.2,1.2c-0.9,0.1-2.4,0.1-3.8,0
			c-0.1-0.6-0.3-1.6-0.8-2.3c1.6,0.1,3.1,0.2,3.7,0.2c0.5,0,0.8-0.1,1.1-0.4c0.8-0.8,1.1-4.6,1.5-14.1h-5.9
			c-0.7,1.6-1.5,3.1-2.3,4.2c-0.4-0.4-1.3-1-1.8-1.3v11.6h-6.8v1.9h-2.1V10.8h2.8c0.4-1.2,0.7-2.9,0.9-4.1l2.5,0.4
			c-0.4,1.3-0.9,2.6-1.3,3.7h4v4.8c1.7-2.2,3-5.5,3.8-8.8l2.3,0.5c-0.3,1.2-0.6,2.3-1,3.4H219z M199.8,12.8v4.8h4.7v-4.8H199.8z
			 M204.5,25.2v-5.6h-4.7v5.6H204.5z M212.9,23.2c-0.7-1.5-2.3-4-3.7-5.8l1.8-1c1.3,1.7,3,4.1,3.8,5.6L212.9,23.2z"/>
		<path d="M235.8,22.7c-1,3-3.8,5.5-10.8,7.2c-0.3-0.5-0.9-1.4-1.4-1.9c6.1-1.3,8.6-3.1,9.6-5.3h-9.3v-2.2h2.7v-6h7.3v-2.3h2.4v2.3
			h7.7v6h2.5v2.2H235.8z M228.9,11.1h-4.5v-2h4.5V6.8h2.3v2.4h3.3v2h-3.3v2.3h-2.3V11.1z M233.8,20.5c0.1-0.4,0.1-0.8,0.1-1.3v-2.7
			h-5v4H233.8z M236.7,23.1c3.2,1.3,7.7,3.4,9.9,4.9l-1.2,1.9c-2.1-1.5-6.5-3.8-9.8-5.1L236.7,23.1z M239.3,11.1h-3.6v-2h3.6V6.8
			h2.4v2.3h4.3v2h-4.3v2.3h-2.4V11.1z M236.3,16.5v2.8c0,0.4,0,0.8-0.1,1.2h5.4v-4H236.3z"/>
		<path d="M269.8,13.3c-1.3,3.8-3.2,6.9-5.6,9.4c2.7,2.2,6,3.8,9.9,4.8c-0.5,0.5-1.2,1.5-1.6,2.2c-4-1.1-7.4-2.9-10.1-5.2
			c-2.8,2.4-6.2,4.1-10.3,5.4c-0.3-0.6-1-1.7-1.5-2.2c4.1-1.1,7.4-2.6,10-4.8c-2.4-2.6-4.3-5.7-5.7-9.4H251v-2.3h10.9
			c-0.3-1-1-2.6-1.7-3.8l2.5-0.7c0.7,1.2,1.5,2.8,1.9,3.8l-2.2,0.7h11.3v2.3H269.8z M257.4,13.3c1.2,3,2.9,5.6,5,7.8
			c2-2.1,3.6-4.7,4.7-7.8H257.4z"/>
		<path d="M281.2,14.9v14.9H279V7.6h9.3v7.3H281.2z M281.2,9.2v1.3h5V9.2H281.2z M286.1,13.4v-1.4h-5v1.4H286.1z M299.8,27.1
			c0,1.2-0.2,1.7-0.9,2.1c-0.7,0.4-1.8,0.4-3.3,0.4c-0.1-0.4-0.2-1-0.4-1.6c-0.3,0.4-0.7,0.5-1.4,0.5H292c-1.8,0-2.1-0.5-2.1-2.2
			v-2.5h-1.7c-0.4,2.6-1.5,4.2-4.7,5.2c-0.2-0.5-0.7-1.3-1.1-1.6c2.7-0.7,3.6-1.8,3.9-3.6h-1.6v-4.3c-0.5,0.3-0.9,0.6-1.4,0.8
			c-0.4-0.4-1-0.9-1.4-1.2c1.8-0.9,3.8-2.3,4.7-3.7l1.8,0.6c-0.8,1-1.9,2.1-3,2.9h8.2c-1.1-0.9-2.4-1.8-3.6-2.5l1.3-1
			c1.8,1.1,4,2.7,5.2,3.8l-1.4,1.1c-0.3-0.4-0.7-0.7-1.2-1.1v4.5h-2.1v2.5c0,0.5,0.1,0.6,0.5,0.6h1.3c0.4,0,0.5-0.2,0.6-1.8
			c0.4,0.3,1.2,0.6,1.7,0.7c-0.1,0.8-0.2,1.4-0.4,1.8c0.8,0,1.4,0,1.7,0c0.3,0,0.4-0.1,0.4-0.5V14.9h-7.3V7.7h9.6V27.1z M286.4,22.3
			h5.6v-2h-5.6V22.3z M292.5,9.2v1.3h5.1V9.2H292.5z M297.6,13.4V12h-5.1v1.4H297.6z"/>
		<path d="M313,12.8h-8.1v-1.9h4.1c-0.5-0.9-1.3-2.2-2.1-3.2l2-0.8c0.9,1,1.8,2.3,2.3,3.2l-1.7,0.8h3.6V12.8z M312.6,19.5h-6.9v-1.8
			h6.9V19.5z M312.4,28.4h-4.6v1.1h-1.9v-8.5h6.5V28.4z M305.9,16.2v-1.8h6.5v1.8H305.9z M307.7,23v3.7h2.7V23H307.7z M323.2,26.2
			c1.8,0.7,3.7,1.6,4.9,2.1l-1.3,1.6c-1.2-0.7-3.3-1.7-5.1-2.5l0.9-1.2H318l1.6,1c-1.4,1.1-3.7,2.1-5.6,2.7c-0.4-0.4-1-1.1-1.5-1.4
			c1.8-0.5,3.9-1.4,5-2.2h-2.8v-7.4h12.1v7.4H323.2z M319.4,9.5h-5.6V8h5.6V6.7h2.3V8h6v1.5h-6v1.1h5.3V12h-12.3v-1.5h4.8V9.5z
			 M313.9,12.9h13.6V18h-13.6V12.9z M315.8,16.8h2.1v-2.6h-2.1V16.8z M316.8,21h7.9v-0.9h-7.9V21z M316.8,23h7.9V22h-7.9V23z
			 M316.8,24.9h7.9v-1h-7.9V24.9z M321.8,16.8v-2.6h-2.4v2.6H321.8z M325.5,14.2h-2.2v2.6h2.2V14.2z"/>
		<path d="M341.3,24.1c-1.8,2.2-5,4-8,4.9c-0.4-0.6-1-1.5-1.6-2c2.9-0.6,6-2.1,7.6-3.8L341.3,24.1z M344.8,20.6h10v1.9h-10v7.2h-2.3
			v-7.2h-10.1v-1.9h10.1v-1.4h2.3V20.6z M338.3,19.4c0-0.3-0.1-0.7-0.2-1.1c-3.9,0.6-4.6,0.7-5,0.9c-0.1-0.4-0.4-1.3-0.6-1.8
			c0.5-0.1,1-0.6,1.6-1.3c0.3-0.4,1-1.2,1.7-2.3c-1.8,0.2-2.3,0.4-2.6,0.5c-0.1-0.4-0.4-1.3-0.6-1.7c0.3-0.1,0.7-0.5,1-1
			c0.3-0.5,1.5-2.6,2.1-4.6l1.8,0.7c-0.7,1.6-1.5,3.3-2.4,4.6l1.8-0.2c0.5-0.8,0.9-1.5,1.2-2.3l1.7,0.9c-1.3,2.2-2.9,4.5-4.5,6.3
			l2.6-0.3c-0.1-0.6-0.3-1.2-0.4-1.7l1.6-0.3c0.4,1.4,0.8,3.1,0.9,4.3L338.3,19.4z M346.9,18.6h-6.7V9h2c0.2-0.8,0.4-1.8,0.5-2.4
			l2.1,0.4c-0.3,0.7-0.6,1.4-0.8,2.1h2.8V18.6z M344.9,10.8h-2.6V13h2.6V10.8z M344.9,14.6h-2.6v2.2h2.6V14.6z M347.6,23.2
			c2.4,1.2,5.5,3.1,7.2,4.4l-1.5,1.7c-1.5-1.3-4.6-3.3-7.1-4.6L347.6,23.2z M353.2,19.6c-0.1-0.3-0.1-0.7-0.2-1.1
			c-3.9,0.5-4.6,0.7-5,0.8c-0.1-0.4-0.4-1.3-0.6-1.8c0.5-0.1,1-0.6,1.6-1.3c0.3-0.4,1-1.2,1.8-2.3c-2.1,0.3-2.6,0.4-2.9,0.6
			c-0.1-0.4-0.4-1.3-0.6-1.8c0.4-0.1,0.7-0.5,1-1.1c0.4-0.6,1.5-2.7,2.1-4.7l1.9,0.6c-0.7,1.7-1.6,3.5-2.5,4.8l2.1-0.2
			c0.4-0.7,0.8-1.4,1.2-2.1l1.8,1c-1.3,2.2-3,4.5-4.6,6.3l2.6-0.3c-0.1-0.6-0.3-1.1-0.5-1.6l1.5-0.4c0.4,1.3,0.9,2.9,1.1,4.1
			L353.2,19.6z"/>
		<path d="M381.2,7.8v22.1h-2.3v-1h-16.5v1h-2.2V7.8H381.2z M378.9,26.8V9.9h-16.5v16.9H378.9z M371.5,23.5c-0.1,0.4-0.1,1.1,0,1.4
			c-4.5,1.2-5.2,1.4-5.6,1.7c-0.1-0.4-0.4-1.1-0.6-1.3c0.4-0.2,0.9-0.4,0.9-1.4v-1.4c-0.8,0.3-1.6,0.6-2.4,0.8
			c-0.2-0.4-0.8-1-1.1-1.4c1.8-0.4,3.8-1.1,5.3-1.8h-3.2v-3.7h11.6v3.7h-5.7c-0.8,0.6-1.7,1.1-2.7,1.6v2.6L371.5,23.5z M377.8,15.6
			h-14.4v-1.4h6.1v-1.3h-4.7v-1.4h4.7v-1.2h2.1v1.2h5v1.4h-5v1.3h6.2V15.6z M366.9,19h7.6v-1.4h-7.6V19z M377.9,21.4
			c-0.8,0.6-1.7,1.1-2.5,1.5c1,0.7,1.9,1.4,2.6,2l-1.5,0.9c-1.4-1.2-4.2-3.2-6.4-4.5l1.4-0.8c0.8,0.5,1.7,1,2.6,1.6
			c0.9-0.5,1.8-1.1,2.3-1.6L377.9,21.4z"/>
		<path d="M394.1,23.3h-4.8v2.3h-2.1V9h7V23.3z M389.3,11.2v9.9h2.7v-9.9H389.3z M405.5,27.3c1.4,0,1.6-0.7,1.8-3.4
			c0.6,0.4,1.5,0.8,2.1,0.9c-0.4,3.5-1.1,4.6-3.8,4.6H400c-3,0-4-0.7-4-3.9V8.3h12.5v13.4h-2.3v-1.5h-7.9v5.4c0,1.5,0.3,1.8,1.8,1.8
			H405.5z M398.3,10.5V18h2.8v-7.6H398.3z M406.2,10.5h-2.9V18h2.9V10.5z"/>
		<path d="M414.6,26.2c0-1.2,0.8-2.1,1.9-2.1c1.1,0,2,0.9,2,2.1c0,1.2-0.9,2-2,2C415.5,28.2,414.6,27.4,414.6,26.2z M415.2,11.9
			l-0.1-3h2.9l-0.1,3l-0.4,10.1h-1.9L415.2,11.9z"/>
	</g>
</g>
</svg>
