<?xml version="1.0" encoding="utf-8"?>
<!-- Generator: Adobe Illustrator 26.5.1, SVG Export Plug-In . SVG Version: 6.00 Build 0)  -->
<svg version="1.1" id="圖層_1" xmlns="http://www.w3.org/2000/svg" xmlns:xlink="http://www.w3.org/1999/xlink" x="0px" y="0px"
	 viewBox="0 0 30 30" style="enable-background:new 0 0 30 30;" xml:space="preserve">
<style type="text/css">
	.st0{fill:#FFFFFF;stroke:#000000;stroke-linecap:round;stroke-linejoin:round;stroke-miterlimit:10;}
	.st1{fill:#F7E956;stroke:#000000;stroke-linecap:round;stroke-linejoin:round;stroke-miterlimit:10;}
	.st2{fill:none;stroke:#000000;stroke-width:0.5;stroke-linecap:round;stroke-linejoin:round;stroke-miterlimit:10;}
	.st3{fill:#FFFFFF;}
	.st4{fill:#EEE15A;}
	.st5{fill:#F7E956;}
	.st6{fill:none;stroke:#000000;stroke-linecap:round;stroke-linejoin:round;stroke-miterlimit:10;}
</style>
<polyline class="st0" points="93,28.4 93,20.7 90.4,20.7 90.4,33.1 93,33.1 93,31 "/>
<polygon class="st1" points="90.4,20.7 93,20.7 93,26.6 90.4,26.6 "/>
<polyline class="st2" points="-9.7,23.5 -9.7,27.6 -11.6,27.6 -11.6,10.8 -9.7,10.8 -9.7,19.9 -11.6,19.9 "/>
<polygon class="st1" points="91.7,10.3 93.8,14.5 98.5,15.2 95.1,18.5 95.9,23.2 91.7,21 87.5,23.2 88.3,18.5 84.9,15.2 89.6,14.5 
	"/>
<g>
	<g>
		<polyline class="st3" points="52.7,36.4 45.5,43.6 47.4,45.5 59.6,33.3 57.7,31.4 53.7,35.4 		"/>
		<path d="M57.7,31L57.7,31c0.1,0,0.2,0,0.3,0.1l1.9,1.9c0.2,0.2,0.2,0.4,0,0.6L47.7,45.8c-0.2,0.2-0.4,0.2-0.6,0l-1.9-1.9
			c-0.2-0.2-0.2-0.4,0-0.6l7.2-7.2c0.2-0.2,0.4-0.2,0.6,0s0.2,0.4,0,0.6l-6.9,6.9l1.3,1.3L59,33.3L57.7,32L54,35.7
			c-0.2,0.2-0.4,0.2-0.6,0s-0.2-0.4,0-0.6l4-4C57.5,31,57.6,31,57.7,31z"/>
	</g>
	<g>
		<polygon class="st4" points="47.4,45.5 45.5,43.6 50.9,38.2 52.8,40.1 		"/>
		<path d="M51.1,37.6c0.1,0,0.2,0,0.3,0.1l1.9,1.9c0.1,0.1,0.1,0.2,0.1,0.3c0,0.1,0,0.2-0.1,0.3l-5.6,5.6c-0.2,0.2-0.4,0.2-0.6,0
			l-1.9-1.9c-0.2-0.2-0.2-0.4,0-0.6l5.6-5.6C50.9,37.7,51,37.6,51.1,37.6z M52.4,39.9l-1.3-1.3l-5,5l1.3,1.3L52.4,39.9z"/>
	</g>
	<g>
		<polygon class="st5" points="35.8,55.2 37.9,48.9 33.9,43.6 40.6,43.7 44.4,38.3 46.4,44.6 52.7,46.6 47.3,50.4 47.4,57 
			42.1,53.1 		"/>
		<path d="M44.4,37.9C44.4,37.9,44.5,37.9,44.4,37.9c0.2,0,0.3,0.1,0.4,0.3l1.9,6.1l6.1,1.9c0.1,0,0.3,0.2,0.3,0.3
			c0,0.2,0,0.3-0.2,0.4l-5.2,3.7l0.1,6.4c0,0.2-0.1,0.3-0.2,0.4c-0.1,0.1-0.3,0.1-0.4,0L42,53.5l-6.1,2.1c-0.1,0.1-0.3,0-0.4-0.1
			c-0.1-0.1-0.1-0.3-0.1-0.4l2.1-6.1l-3.8-5.1c-0.1-0.1-0.1-0.3,0-0.4c0.1-0.1,0.2-0.2,0.4-0.2l6.4,0.1l3.7-5.2
			C44.2,37.9,44.3,37.9,44.4,37.9z M51.8,46.7L46.3,45c-0.1,0-0.2-0.1-0.3-0.3l-1.7-5.6l-3.4,4.7c-0.1,0.1-0.2,0.2-0.3,0.2L34.8,44
			l3.5,4.7c0.1,0.1,0.1,0.2,0.1,0.4l-1.9,5.5l5.5-1.9c0.1,0,0.3,0,0.4,0.1l4.7,3.5l-0.1-5.8c0-0.1,0.1-0.3,0.2-0.3L51.8,46.7z"/>
	</g>
</g>
<g>
	<g>
		<polyline class="st3" points="50.5,1.2 59.7,-8 57.3,-10.4 41.6,5.2 44.1,7.7 49.2,2.5 		"/>
		<path d="M44.1,8.2L44.1,8.2c-0.1,0-0.3-0.1-0.4-0.2l-2.4-2.4c-0.2-0.2-0.2-0.5,0-0.7l15.7-15.7c0.2-0.2,0.5-0.2,0.7,0l2.4,2.4
			c0.2,0.2,0.2,0.5,0,0.7l-9.2,9.2c-0.2,0.2-0.5,0.2-0.7,0c-0.2-0.2-0.2-0.5,0-0.7L59-8l-1.7-1.7L42.4,5.2l1.7,1.7l4.8-4.8
			c0.2-0.2,0.5-0.2,0.7,0s0.2,0.5,0,0.7L44.4,8C44.3,8.1,44.2,8.2,44.1,8.2z"/>
	</g>
	<g>
		<polygon class="st4" points="57.3,-10.4 59.7,-8 52.8,-1.1 50.3,-3.4 		"/>
		<path d="M52.6-0.3c-0.1,0-0.3,0-0.4-0.1l-2.4-2.4c-0.1-0.1-0.2-0.2-0.2-0.4c0-0.1,0.1-0.3,0.2-0.4l7.2-7.2c0.2-0.2,0.5-0.2,0.7,0
			l2.4,2.4c0.2,0.2,0.2,0.5,0,0.7l-7.1,7.1C52.8-0.4,52.7-0.3,52.6-0.3z M50.9-3.3l1.7,1.7L59-8l-1.7-1.7L50.9-3.3z"/>
	</g>
	<g>
		<polygon class="st5" points="72.1,-22.8 69.4,-14.8 74.5,-8 66,-8.1 61.1,-1.1 58.6,-9.3 50.4,-11.8 57.4,-16.7 57.3,-25.2 
			64.1,-20.1 		"/>
		<path d="M61.1-0.6C61.1-0.6,61-0.6,61.1-0.6c-0.3,0-0.4-0.2-0.5-0.4l-2.4-7.9l-7.9-2.4c-0.2-0.1-0.3-0.2-0.4-0.4
			c0-0.2,0.1-0.4,0.2-0.5l6.7-4.8l-0.1-8.2c0-0.2,0.1-0.4,0.3-0.5c0.2-0.1,0.4-0.1,0.5,0l6.6,4.9l7.8-2.6c0.2-0.1,0.4,0,0.5,0.1
			c0.1,0.1,0.2,0.3,0.1,0.5L70-14.9l4.9,6.6c0.1,0.2,0.1,0.4,0,0.5c-0.1,0.2-0.3,0.3-0.5,0.3l-8.2-0.1l-4.8,6.7
			C61.4-0.7,61.3-0.6,61.1-0.6z M51.6-12l7.1,2.2c0.2,0.1,0.3,0.2,0.3,0.3l2.2,7.1l4.3-6.1c0.1-0.1,0.2-0.2,0.4-0.2l7.5,0.1l-4.5-6
			c-0.1-0.1-0.1-0.3-0.1-0.5l2.4-7.1l-7.1,2.4c-0.2,0.1-0.3,0-0.5-0.1l-6-4.5l0.1,7.5c0,0.2-0.1,0.3-0.2,0.4L51.6-12z"/>
	</g>
</g>
<g>
	<polygon class="st5" points="31.9,51.2 31.5,49.7 30.1,49.2 31.4,48.4 31.5,46.9 32.6,47.9 34.1,47.5 33.5,48.9 34.4,50.2 32.8,50 
			"/>
	<path d="M31.4,46.8C31.4,46.8,31.5,46.8,31.4,46.8c0,0,0.1,0,0.1,0l1.1,1l1.4-0.4c0,0,0.1,0,0.1,0c0,0,0,0.1,0,0.1l-0.6,1.4
		l0.8,1.2c0,0,0,0.1,0,0.1c0,0-0.1,0-0.1,0l-1.5-0.1l-0.9,1.1c0,0-0.1,0-0.1,0c0,0-0.1,0-0.1-0.1l-0.3-1.4l-1.4-0.5
		c0,0-0.1,0-0.1-0.1c0,0,0-0.1,0-0.1l1.3-0.8L31.4,46.8C31.4,46.8,31.4,46.8,31.4,46.8z M34,47.6L32.7,48c0,0-0.1,0-0.1,0l-1-0.9
		l-0.1,1.3c0,0,0,0.1,0,0.1l-1.1,0.7l1.2,0.5c0,0,0,0,0.1,0.1l0.3,1.3l0.9-1c0,0,0,0,0.1,0l1.3,0.1l-0.7-1.1c0,0,0-0.1,0-0.1
		L34,47.6z"/>
</g>
<g>
	<polygon class="st5" points="42,60.8 41.7,59.3 40.3,58.7 41.6,57.9 41.6,56.4 42.8,57.4 44.3,57 43.7,58.4 44.5,59.7 43,59.6 	"/>
	<path d="M41.6,56.3C41.6,56.3,41.6,56.3,41.6,56.3c0,0,0.1,0,0.1,0l1.1,1l1.4-0.4c0,0,0.1,0,0.1,0c0,0,0,0.1,0,0.1l-0.6,1.4
		l0.8,1.2c0,0,0,0.1,0,0.1c0,0-0.1,0-0.1,0L43,59.7l-0.9,1.1c0,0-0.1,0-0.1,0c0,0-0.1,0-0.1-0.1l-0.3-1.4l-1.4-0.5
		c0,0-0.1,0-0.1-0.1c0,0,0-0.1,0-0.1l1.3-0.8L41.6,56.3C41.6,56.3,41.6,56.3,41.6,56.3z M44.1,57.1l-1.3,0.3c0,0-0.1,0-0.1,0l-1-0.9
		l-0.1,1.3c0,0,0,0.1,0,0.1l-1.1,0.7l1.2,0.5c0,0,0,0,0.1,0.1l0.3,1.3l0.9-1c0,0,0,0,0.1,0l1.3,0.1l-0.7-1.1c0,0,0-0.1,0-0.1
		L44.1,57.1z"/>
</g>
<image style="overflow:visible;" width="512" height="512" xlink:href="../../../../../../Downloads/magic-wand.png"  transform="matrix(9.514233e-02 0 0 9.514233e-02 -22.1287 -68.2301)">
</image>
<line class="st6" x1="87.4" y1="-37.7" x2="87.4" y2="-28.7"/>
<line class="st6" x1="84.9" y1="-37" x2="78.5" y2="-30.6"/>
<path class="st3" d="M73.2-23.9c-0.3,0-0.5-0.1-0.7-0.3c-0.4-0.4-0.4-1,0-1.4l3.6-3.6c0.4-0.4,1-0.4,1.4,0s0.4,1,0,1.4l-3.6,3.6
	C73.7-24,73.5-23.9,73.2-23.9z"/>
<path class="st3" d="M77.1-16.1c-0.5,0-0.9-0.3-1-0.8c-0.1-0.5,0.3-1.1,0.8-1.2l2.7-0.5c0.5-0.1,1.1,0.3,1.2,0.8
	c0.1,0.5-0.3,1.1-0.8,1.2l-2.7,0.5C77.2-16.1,77.2-16.1,77.1-16.1z"/>
<path class="st3" d="M80.4-3.5c-0.2,0-0.3,0-0.5-0.1L75.6-6c-0.5-0.3-0.7-0.9-0.4-1.4C75.4-7.8,76-8,76.5-7.8l4.4,2.3
	c0.5,0.3,0.7,0.9,0.4,1.4C81.1-3.7,80.8-3.5,80.4-3.5z"/>
<path class="st3" d="M70.6,1.9c-0.4,0-0.7-0.2-0.9-0.5l-1.4-2.8c-0.2-0.5-0.1-1.1,0.4-1.3c0.5-0.3,1.1-0.1,1.3,0.4l1.4,2.8
	c0.2,0.5,0.1,1.1-0.4,1.3C70.9,1.9,70.8,1.9,70.6,1.9z"/>
<path class="st3" d="M64.4-29.1c0,0.5,0.3,0.9,0.8,1c0.5,0.1,1.1-0.3,1.2-0.8l0.5-2.7c0.1-0.5-0.3-1.1-0.8-1.2
	c-0.5-0.1-1.1,0.3-1.2,0.8l-0.5,2.7C64.4-29.2,64.4-29.2,64.4-29.1z"/>
<path class="st3" d="M51.8-32.3c0,0.2,0,0.3,0.1,0.5l2.4,4.4c0.3,0.5,0.9,0.7,1.4,0.4c0.5-0.3,0.7-0.9,0.4-1.4l-2.4-4.4
	c-0.3-0.5-0.9-0.7-1.4-0.4C52-33,51.8-32.7,51.8-32.3z"/>
<path class="st3" d="M46.5-22.5c0,0.4,0.2,0.7,0.6,0.9l2.8,1.4c0.5,0.2,1.1,0,1.3-0.5c0.2-0.5,0-1.1-0.5-1.3l-2.8-1.4
	c-0.5-0.2-1.1,0-1.3,0.5C46.5-22.8,46.5-22.6,46.5-22.5z"/>
<path d="M92.1,8.6c-0.1,0.1-0.3,0.2-0.4,0.2c-0.3,0-0.6-0.3-0.6-0.6l0-3c0-0.3,0.3-0.6,0.6-0.6s0.6,0.3,0.6,0.6l0,3
	C92.3,8.3,92.2,8.5,92.1,8.6z"/>
<path d="M97.1,10.2c-0.2,0.2-0.5,0.2-0.8,0.1c-0.3-0.2-0.3-0.6-0.1-0.8l0.9-1.4C97.3,7.9,97.7,7.8,98,8c0.3,0.2,0.3,0.6,0.1,0.8
	L97.1,10.2C97.1,10.2,97.1,10.2,97.1,10.2z"/>
<path d="M103.8,14c-0.1,0.1-0.2,0.1-0.2,0.1l-2.8,0.9c-0.3,0.1-0.6-0.1-0.7-0.4c-0.1-0.3,0.1-0.6,0.4-0.7l2.8-0.9
	c0.3-0.1,0.6,0.1,0.7,0.4C104,13.6,103.9,13.9,103.8,14z"/>
<path d="M101.9,20.4c-0.2,0.2-0.4,0.2-0.6,0.1L99.6,20c-0.3-0.1-0.5-0.4-0.4-0.8c0.1-0.3,0.4-0.5,0.8-0.4l1.8,0.6
	c0.3,0.1,0.5,0.4,0.4,0.8C102,20.3,102,20.3,101.9,20.4z"/>
<path d="M86.3,10.2c0.2,0.2,0.5,0.2,0.8,0.1c0.3-0.2,0.3-0.6,0.1-0.8l-1-1.3C86,7.9,85.6,7.8,85.4,8c-0.3,0.2-0.3,0.6-0.1,0.8
	L86.3,10.2C86.2,10.2,86.2,10.2,86.3,10.2z"/>
<path d="M79.6,14c0.1,0.1,0.2,0.1,0.2,0.1l2.8,0.8c0.3,0.1,0.6-0.1,0.7-0.4c0.1-0.3-0.1-0.6-0.4-0.7L80.2,13
	c-0.3-0.1-0.6,0.1-0.7,0.4C79.4,13.7,79.5,13.9,79.6,14z"/>
<path d="M81.5,20.4c0.2,0.2,0.4,0.2,0.6,0.1l1.8-0.6c0.3-0.1,0.5-0.4,0.4-0.8c-0.1-0.3-0.4-0.5-0.8-0.4l-1.8,0.6
	c-0.3,0.1-0.5,0.4-0.4,0.8C81.4,20.3,81.5,20.4,81.5,20.4z"/>
<g>
	<g>
		<polyline class="st3" points="23,4.7 16.2,11.6 18.4,13.8 29.4,2.8 27.2,0.6 25.3,2.5 		"/>
		<path d="M18.4,14.4L18.4,14.4c-0.2,0-0.3-0.1-0.4-0.2L15.8,12c-0.2-0.2-0.2-0.6,0-0.9l6.8-6.8c0.2-0.2,0.6-0.2,0.9,0
			c0.2,0.2,0.2,0.6,0,0.9l-6.4,6.4l1.3,1.3L28.5,2.8l-1.3-1.3l-1.4,1.4c-0.2,0.2-0.6,0.2-0.9,0c-0.2-0.2-0.2-0.6,0-0.9l1.8-1.8
			c0.2-0.2,0.6-0.2,0.9,0l2.2,2.2C29.9,2.5,30,2.7,30,2.8c0,0.2-0.1,0.3-0.2,0.4L18.9,14.2C18.8,14.3,18.6,14.4,18.4,14.4z"/>
	</g>
	<g>
		<polygon class="st5" points="18.4,13.8 16.2,11.6 21.4,6.4 23.6,8.6 		"/>
		<path d="M18.4,14.4L18.4,14.4c-0.2,0-0.3-0.1-0.4-0.2L15.8,12c-0.2-0.2-0.2-0.6,0-0.9L20.9,6c0.2-0.2,0.6-0.2,0.9,0l2.2,2.2
			c0.1,0.1,0.2,0.3,0.2,0.4c0,0.2-0.1,0.3-0.2,0.4l-5.2,5.2C18.8,14.3,18.6,14.4,18.4,14.4z M17.1,11.6l1.3,1.3l4.3-4.3l-1.4-1.3
			L17.1,11.6z"/>
	</g>
	<g>
		<polygon class="st5" points="8.1,21.9 10,16.3 6.4,11.5 12.4,11.6 15.8,6.7 17.6,12.4 23.3,14.2 18.4,17.6 18.5,23.6 13.7,20 		
			"/>
		<path d="M18.5,24.2c-0.1,0-0.3,0-0.4-0.1l-4.5-3.4l-5.3,1.8c-0.2,0.1-0.5,0-0.6-0.2c-0.2-0.2-0.2-0.4-0.2-0.6l1.8-5.3l-3.4-4.5
			c-0.1-0.2-0.2-0.4-0.1-0.7C6,11,6.2,10.9,6.4,10.9l5.6,0.1l3.2-4.6c0.1-0.2,0.4-0.3,0.6-0.3c0.2,0,0.4,0.2,0.5,0.4l1.7,5.4
			l5.4,1.7c0.2,0.1,0.4,0.3,0.4,0.5c0,0.2-0.1,0.5-0.3,0.6L19,17.9l0.1,5.6c0,0.2-0.1,0.5-0.3,0.6C18.7,24.2,18.6,24.2,18.5,24.2z
			 M13.7,19.4c0.1,0,0.3,0,0.4,0.1l3.8,2.8l-0.1-4.7c0-0.2,0.1-0.4,0.3-0.5l3.8-2.7L17.4,13C17.2,13,17,12.8,17,12.6l-1.4-4.5
			L12.9,12c-0.1,0.2-0.3,0.3-0.5,0.3l-4.7-0.1l2.8,3.8c0.1,0.2,0.2,0.4,0.1,0.6l-1.5,4.4l4.4-1.5C13.6,19.4,13.6,19.4,13.7,19.4z"/>
	</g>
	<path d="M6.2,23c0.2,0,0.4,0.1,0.5,0.2C7,23.5,7,24,6.7,24.3L4,27c-0.3,0.3-0.8,0.3-1.1,0s-0.3-0.8,0-1.1l2.7-2.7
		C5.8,23.1,6,23,6.2,23z"/>
	<path d="M3.3,17.2c0.4,0,0.7,0.3,0.7,0.6c0.1,0.4-0.2,0.8-0.6,0.9l-2,0.4c-0.4,0.1-0.8-0.2-0.9-0.6c-0.1-0.4,0.2-0.8,0.6-0.9l2-0.4
		C3.2,17.2,3.3,17.2,3.3,17.2z"/>
	<path d="M0.7,7.9c0.1,0,0.2,0,0.4,0.1l3.3,1.7c0.4,0.2,0.5,0.6,0.3,1c-0.2,0.4-0.6,0.5-1,0.3L0.4,9.3C0,9.1-0.1,8.7,0.1,8.3
		C0.2,8.1,0.5,7.9,0.7,7.9z"/>
	<path d="M8,3.9c0.3,0,0.5,0.1,0.7,0.4l1,2.1c0.2,0.4,0,0.8-0.3,1c-0.4,0.2-0.8,0-1-0.3L7.3,5c-0.2-0.4,0-0.8,0.3-1
		C7.8,3.9,7.9,3.9,8,3.9z"/>
	<path d="M12.9,26.7c0-0.4-0.3-0.7-0.6-0.7c-0.4-0.1-0.8,0.2-0.9,0.6l-0.3,2c-0.1,0.4,0.2,0.8,0.6,0.9c0.4,0.1,0.8-0.2,0.9-0.6
		l0.3-2C12.9,26.8,12.9,26.8,12.9,26.7z"/>
	<path d="M22.1,29.2c0-0.1,0-0.2-0.1-0.3l-1.8-3.3c-0.2-0.4-0.6-0.5-1-0.3c-0.4,0.2-0.5,0.6-0.3,1l1.8,3.3c0.2,0.4,0.6,0.5,1,0.3
		C21.9,29.8,22.1,29.5,22.1,29.2z"/>
	<path d="M26.1,21.9c0-0.3-0.2-0.5-0.4-0.7l-2.1-1c-0.4-0.2-0.8,0-1,0.3c-0.2,0.4,0,0.8,0.3,1l2.1,1c0.4,0.2,0.8,0,1-0.3
		C26,22.1,26.1,22,26.1,21.9z"/>
</g>
</svg>
