<?xml version="1.0" encoding="utf-8"?>
<!-- Generator: Adobe Illustrator 26.3.1, SVG Export Plug-In . SVG Version: 6.00 Build 0)  -->
<svg version="1.1" id="圖層_1" xmlns="http://www.w3.org/2000/svg" xmlns:xlink="http://www.w3.org/1999/xlink" x="0px" y="0px"
	 viewBox="0 0 90 90" style="enable-background:new 0 0 90 90;" xml:space="preserve">
<style type="text/css">
	.st0{stroke:#FFFFFF;stroke-width:12;stroke-linecap:round;stroke-linejoin:round;stroke-miterlimit:10;}
	.st1{fill:#E54F4F;stroke:#231815;stroke-width:5;stroke-linecap:round;stroke-linejoin:round;stroke-miterlimit:10;}
	.st2{fill:#6A6A6A;}
	.st3{fill:#494949;}
	.st4{fill:#FFFFFF;}
	.st5{fill:#E54F4F;}
	.st6{fill:#231815;}
</style>
<polygon class="st0" points="78.8,127.9 46.1,100.9 46.1,114.4 8.2,114.4 8.2,127.9 8.2,141.3 46.1,141.3 46.1,154.8 "/>
<polyline class="st1" points="22.4,114.4 8.2,114.4 8.2,127.9 8.2,141.3 46.1,141.3 46.1,154.8 78.8,127.9 46.1,100.9 46.1,114.4 
	30.3,114.4 "/>
<path class="st2" d="M-350.1,90.9c-0.6,0.1-1.2,0.2-1.4-0.6c0.5,0,1,0,1.5,0c0.3,0.2,0.3,0.3,0.2,0.4
	C-349.9,90.8-350,90.9-350.1,90.9z"/>
<path class="st3" d="M-350.1,90.9c0-0.2,0-0.4,0.1-0.6c0.5,0,1,0,1.5,0C-348.9,90.9-349.5,91-350.1,90.9z"/>
<path class="st3" d="M-333.5,90.9c-0.6,0.1-1.2,0.1-1.5-0.6c0.5,0,1,0,1.5,0c0.2,0.1,0.3,0.3,0.2,0.4
	C-333.4,90.8-333.5,90.9-333.5,90.9z"/>
<path class="st2" d="M-333.5,90.9c0-0.2,0-0.4,0-0.6c0.5,0,1,0,1.5,0C-332.3,91.1-332.9,91-333.5,90.9z"/>
<g>
	<path class="st4" d="M83.1,40.8l-32-26.4c-1.6-1.3-3.9-1.6-5.8-0.7c-1.9,0.9-3.1,2.8-3.1,4.9v7.7H10.3c-3,0-5.4,2.4-5.4,5.4v26.5
		c0,3,2.4,5.4,5.4,5.4h31.8v7.7c0,2.1,1.2,4,3.1,4.9c0.7,0.3,1.5,0.5,2.3,0.5c1.2,0,2.5-0.4,3.5-1.2l32-26.4c1.3-1,2-2.6,2-4.2
		S84.4,41.8,83.1,40.8z M81.3,47L49.2,73.3c-0.5,0.4-1,0.5-1.5,0.5c-0.4,0-0.7-0.1-1.1-0.3c-0.8-0.4-1.5-1.3-1.5-2.2V60.7H10.3
		c-1.4,0-2.4-1.1-2.4-2.4V31.8c0-1.4,1.1-2.4,2.4-2.4h14c1.4,0,2.4,1.1,2.4,2.4h2.9c0-1.4,1.1-2.4,2.4-2.4h13.1V18.6
		c0-0.9,0.5-1.8,1.5-2.2c0.8-0.4,1.9-0.3,2.6,0.4l32,26.4c0.5,0.5,0.9,1.2,0.9,1.9S81.8,46.5,81.3,47z"/>
	<path class="st5" d="M24.3,34.2H12.8v21.5h34.8c1.4,0,2.4,1.1,2.4,2.4v8L75.8,45L50.1,23.8v8c0,1.4-1.1,2.4-2.4,2.4H32.1
		c-1.4,0-2.4-1.1-2.4-2.4v0h-2.9C26.8,33.1,25.7,34.2,24.3,34.2z"/>
	<path class="st6" d="M49.3,16.8c-0.7-0.6-1.8-0.7-2.6-0.4c-0.9,0.4-1.5,1.3-1.5,2.2v10.7H32.1c-1.4,0-2.4,1.1-2.4,2.4v0
		c0,1.4,1.1,2.4,2.4,2.4h15.5c1.4,0,2.4-1.1,2.4-2.4v-8L75.8,45L50,66.1v-8c0-1.4-1.1-2.4-2.4-2.4H12.8V34.2h11.5
		c1.4,0,2.4-1.1,2.4-2.4c0-1.4-1.1-2.4-2.4-2.4h-14c-1.4,0-2.4,1.1-2.4,2.4v26.5c0,1.4,1.1,2.4,2.4,2.4h34.8v10.7
		c0,0.9,0.6,1.8,1.5,2.2c0.4,0.2,0.7,0.3,1.1,0.3c0.5,0,1.1-0.2,1.5-0.5L81.3,47c0.5-0.5,0.9-1.2,0.9-1.9s-0.4-1.5-0.9-1.9
		L49.3,16.8z"/>
</g>
</svg>
