<?xml version="1.0" encoding="utf-8"?>
<!-- Generator: Adobe Illustrator 26.1.0, SVG Export Plug-In . SVG Version: 6.00 Build 0)  -->
<svg version="1.1" id="圖層_1" xmlns="http://www.w3.org/2000/svg" xmlns:xlink="http://www.w3.org/1999/xlink" x="0px" y="0px"
	 viewBox="0 0 1920 223.72" style="enable-background:new 0 0 1920 223.72;" xml:space="preserve">
<style type="text/css">
	.st0{clip-path:url(#SVGID_00000061446784351349172970000001439559028952574354_);}
	.st1{fill:#FFFFFF;}
	.st2{fill:#B5B7B8;}
	.st3{fill:#E61F18;}
	.st4{fill:#A13127;}
	.st5{opacity:0.5;fill:#95979A;}
	.st6{opacity:0.8;fill:#95979A;}
	.st7{clip-path:url(#SVGID_00000044887422942505034200000006450492919818559362_);}
</style>
<g>
	<defs>
		<rect id="SVGID_1_" y="0" width="1920" height="223.72"/>
	</defs>
	<clipPath id="SVGID_00000080198798609382701140000013196926722257340056_">
		<use xlink:href="#SVGID_1_"  style="overflow:visible;"/>
	</clipPath>
	<g style="clip-path:url(#SVGID_00000080198798609382701140000013196926722257340056_);">
		<g>
			<g>
				<path class="st1" d="M1916.92,740.82V-97.39H2.12v838.36h0.62c-0.35,0.06-0.62,0.15-0.62,0.25c0,13.95,428.86,77.9,957.88,77.9
					c529.06,0,957.92-63.95,957.92-77.9C1917.92,741.09,1917.53,740.98,1916.92,740.82z"/>
				<path class="st2" d="M960,821.25c-302.62,0-554.37-21.14-677.53-33.72c-79-8.09-151.95-17.38-205.4-26.15
					C0,748.72,0,743.66,0,741.23c0-0.06,0-0.1,0.04-0.13C0,741.04,0,741,0,740.98V-97.39c0-1.18,0.96-2.12,2.12-2.12h1914.8
					c1.16,0,2.12,0.94,2.12,2.12v836.76c0.54,0.38,0.96,0.94,0.96,1.85c0,2.43,0,7.5-77.03,20.15
					c-53.45,8.77-126.4,18.05-205.4,26.15C1514.41,800.11,1262.66,821.25,960,821.25z M4.85,741.17
					C27.9,755.62,435.18,817.01,960,817.01c522.66,0,928.71-60.87,954.88-75.66c-0.04-0.17-0.08-0.35-0.08-0.52V-95.27H4.24v834.76
					c0.35,0.33,0.58,0.77,0.62,1.27C4.85,740.9,4.85,741.04,4.85,741.17z"/>
			</g>
			<g>
				<g>
					<path class="st3" d="M329.71-97.39v887.4c54.8,5.14,115.11,10.02,179.81,14.26V-97.39H329.71z"/>
					<path class="st4" d="M509.52,806.39h-0.12c-61.39-4.03-121.89-8.83-179.88-14.26c-1.08-0.12-1.93-1.02-1.93-2.12v-887.4
						c0-1.18,0.96-2.12,2.12-2.12h179.81c1.19,0,2.12,0.94,2.12,2.12v901.66c0,0.58-0.19,1.16-0.66,1.54
						C510.6,806.18,510.1,806.39,509.52,806.39z M331.83,788.09c56.65,5.3,115.72,9.98,175.61,13.93V-95.27H331.83V788.09z"/>
				</g>
				<g>
					<path class="st3" d="M689.36-97.39v911.08c57.84,2.29,117.96,3.97,179.81,4.82v-915.9H689.36z"/>
					<path class="st4" d="M869.17,820.63h-0.04c-59.34-0.81-119.88-2.43-179.85-4.82c-1.16-0.04-2.04-0.96-2.04-2.12V-97.39
						c0-1.18,0.93-2.12,2.12-2.12h179.81c1.16,0,2.12,0.94,2.12,2.12v915.9c0,0.56-0.23,1.1-0.62,1.5
						C870.25,820.4,869.75,820.63,869.17,820.63z M691.48,811.67c58.58,2.31,117.57,3.87,175.57,4.68V-95.27H691.48V811.67z"/>
				</g>
				<g>
					<path class="st3" d="M2.12-97.39v838.36h0.62c-0.35,0.06-0.62,0.15-0.62,0.25c0,4.95,54.22,16.22,147.78,28.69v-867.3H2.12z"/>
					<path class="st4" d="M149.9,772.04l-0.27-0.02c-44.58-5.93-82.31-11.87-109.13-17.17C0,746.81,0,743.44,0,741.23
						c0-0.06,0-0.1,0.04-0.13C0,741.04,0,741,0,740.98V-97.39c0-1.18,0.96-2.12,2.12-2.12H149.9c1.16,0,2.12,0.94,2.12,2.12v867.3
						c0,0.62-0.27,1.21-0.69,1.6C150.9,771.86,150.4,772.04,149.9,772.04z M4.85,741.13c6.67,3.99,48.29,13.7,142.93,26.38V-95.27
						H4.24v834.76c0.35,0.33,0.58,0.77,0.62,1.27C4.85,740.88,4.85,741.02,4.85,741.13z"/>
				</g>
				<g>
					<path class="st3" d="M1917.92,741.23c0-0.13-0.38-0.25-1-0.4V-97.39h-148.67v867.57
						C1862.97,757.6,1917.92,746.2,1917.92,741.23z"/>
					<path class="st4" d="M1768.24,772.31c-0.5,0-1-0.19-1.39-0.54c-0.46-0.4-0.73-0.96-0.73-1.58V-97.39
						c0-1.18,0.93-2.12,2.12-2.12h148.67c1.16,0,2.12,0.94,2.12,2.12v836.76c0.54,0.38,0.96,0.94,0.96,1.85c0,2.22,0,5.63-41,13.7
						c-27.17,5.35-65.36,11.37-110.48,17.36C1768.44,772.31,1768.36,772.31,1768.24,772.31z M1770.37-95.27v863.02
						c94.57-12.62,136.84-22.31,144.51-26.45c-0.04-0.15-0.08-0.31-0.08-0.48V-95.27H1770.37z"/>
				</g>
				<g>
					<path class="st3" d="M1408.63-97.39v901.77c64.66-4.22,124.97-9.06,179.81-14.2V-97.39H1408.63z"/>
					<path class="st4" d="M1408.63,806.51c-0.54,0-1.08-0.21-1.46-0.56c-0.42-0.4-0.69-0.96-0.69-1.56V-97.39
						c0-1.18,0.96-2.12,2.16-2.12h179.81c1.16,0,2.12,0.94,2.12,2.12v887.57c0,1.1-0.85,2.02-1.93,2.12
						c-58.03,5.41-118.57,10.19-179.88,14.2H1408.63z M1410.71-95.27v897.4c59.85-3.93,118.88-8.57,175.61-13.87V-95.27H1410.71z"/>
				</g>
				<g>
					<path class="st3" d="M1048.98-97.39v915.92c61.85-0.83,121.96-2.47,179.81-4.74V-97.39H1048.98z"/>
					<path class="st4" d="M1048.98,820.65c-0.54,0-1.08-0.23-1.5-0.62c-0.38-0.39-0.62-0.95-0.62-1.5V-97.39
						c0-1.18,0.96-2.12,2.12-2.12h179.81c1.2,0,2.12,0.94,2.12,2.12v911.18c0,1.14-0.89,2.06-2,2.12
						c-59.88,2.33-120.39,3.95-179.88,4.74H1048.98z M1051.1-95.27v911.64c58.11-0.79,117.19-2.35,175.57-4.64v-907H1051.1z"/>
				</g>
			</g>
		</g>
		<path class="st5" d="M1916.92,740.82V-97.39H2.12v838.36h0.62c-0.35,0.06-0.62,0.15-0.62,0.25c0,13.95,428.86,77.9,957.88,77.9
			c529.06,0,957.92-63.95,957.92-77.9C1917.92,741.09,1917.53,740.98,1916.92,740.82z M1102.47,769.92
			c-382.81,71.5-937.8-21.25-994.1-35.13c-56.3-13.89-58.5-103.99-58.5-103.99V168.7c-7.78-94.74,74.64-79,74.64-79
			c41.7,14.61,157.88,32.97,157.88,32.97c365.12,65.84,701.23,30.06,782.66,25.49c81.39-4.57,81.04,76.28,81.04,76.28
			s-5.51,314.18,0,437.48C1151.52,785.22,1102.47,769.92,1102.47,769.92z"/>
		<path class="st5" d="M1916.92,740.82V-97.39h-423.28V798.3c255.88-19.96,424.28-48.34,424.28-57.07
			C1917.92,741.09,1917.53,740.98,1916.92,740.82z"/>
		<path class="st6" d="M1916.92,740.82V-97.39h-223.04v876.71c139.81-15.92,224.05-31.93,224.05-38.09
			C1917.92,741.09,1917.53,740.98,1916.92,740.82z"/>
	</g>
</g>
<g>
	<defs>
		<rect id="SVGID_00000163788346330116602770000017515265368502512311_" x="-0.66" y="0" width="1921.33" height="223.72"/>
	</defs>
	<clipPath id="SVGID_00000003793278299826785360000001324006537168288936_">
		<use xlink:href="#SVGID_00000163788346330116602770000017515265368502512311_"  style="overflow:visible;"/>
	</clipPath>
	<g style="clip-path:url(#SVGID_00000003793278299826785360000001324006537168288936_);">
		<g>
			<g>
				<path class="st1" d="M1917.58,516.92v-838.79H1.46v838.94h0.62c-0.35,0.06-0.62,0.15-0.62,0.25
					c0,13.96,429.16,77.95,958.54,77.95c529.42,0,958.58-63.99,958.58-77.95C1918.58,517.19,1918.2,517.07,1917.58,516.92z"/>
				<path class="st2" d="M960,597.4c-302.83,0-554.76-21.15-678-33.74c-79.05-8.1-152.05-17.39-205.54-26.16
					c-77.12-12.67-77.12-17.74-77.12-20.17c0-0.06,0-0.1,0.04-0.13c-0.04-0.06-0.04-0.1-0.04-0.12v-838.94
					c0-1.18,0.96-2.12,2.12-2.12h1916.12c1.16,0,2.12,0.94,2.12,2.12v837.34c0.54,0.39,0.97,0.94,0.97,1.85
					c0,2.43,0,7.5-77.09,20.17c-53.49,8.77-126.49,18.07-205.54,26.16C1514.8,576.25,1262.87,597.4,960,597.4z M4.19,517.27
					c23.06,14.46,430.63,75.89,955.81,75.89c523.02,0,929.35-60.91,955.54-75.72c-0.04-0.17-0.08-0.35-0.08-0.52v-836.67H3.58
					v835.34c0.35,0.33,0.58,0.77,0.62,1.27C4.19,517,4.19,517.13,4.19,517.27z"/>
			</g>
			<g>
				<g>
					<path class="st3" d="M329.27-321.87v888.01c54.83,5.15,115.19,10.03,179.93,14.27v-902.28H329.27z"/>
					<path class="st4" d="M509.21,582.54h-0.12c-61.43-4.03-121.97-8.83-180.01-14.27c-1.08-0.12-1.93-1.02-1.93-2.12v-888.01
						c0-1.18,0.96-2.12,2.12-2.12h179.93c1.19,0,2.12,0.94,2.12,2.12v902.28c0,0.58-0.19,1.16-0.66,1.54
						C510.29,582.32,509.78,582.54,509.21,582.54z M331.39,564.22c56.69,5.3,115.8,9.99,175.73,13.94v-897.91H331.39V564.22z"/>
				</g>
				<g>
					<path class="st3" d="M689.18-321.87v911.71c57.88,2.29,118.04,3.97,179.93,4.82v-916.53H689.18z"/>
					<path class="st4" d="M869.11,596.78h-0.04c-59.39-0.81-119.97-2.43-179.97-4.82c-1.16-0.04-2.04-0.96-2.04-2.12v-911.71
						c0-1.18,0.93-2.12,2.12-2.12h179.93c1.16,0,2.12,0.94,2.12,2.12v916.53c0,0.56-0.23,1.1-0.62,1.5
						C870.19,596.55,869.69,596.78,869.11,596.78z M691.3,587.82c58.62,2.31,117.65,3.88,175.69,4.69v-912.25H691.3V587.82z"/>
				</g>
				<g>
					<path class="st3" d="M1.46-321.87v838.94h0.62c-0.35,0.06-0.62,0.15-0.62,0.25c0,4.96,54.26,16.24,147.89,28.71v-867.9H1.46z"
						/>
					<path class="st4" d="M149.34,548.16l-0.27-0.02c-44.62-5.94-82.37-11.88-109.21-17.18c-40.53-8.04-40.53-11.41-40.53-13.63
						c0-0.06,0-0.1,0.04-0.13c-0.04-0.06-0.04-0.1-0.04-0.12v-838.94c0-1.18,0.96-2.12,2.12-2.12h147.89c1.16,0,2.12,0.94,2.12,2.12
						v867.9c0,0.62-0.27,1.21-0.69,1.6C150.34,547.98,149.84,548.16,149.34,548.16z M4.19,517.23c6.67,3.99,48.32,13.71,143.03,26.4
						v-863.37H3.58v835.34c0.35,0.33,0.58,0.77,0.62,1.27C4.19,516.98,4.19,517.11,4.19,517.23z"/>
				</g>
				<g>
					<path class="st3" d="M1918.58,517.33c0-0.13-0.39-0.25-1-0.4v-838.79H1768.8v868.17
						C1863.59,533.71,1918.58,522.3,1918.58,517.33z"/>
					<path class="st4" d="M1768.8,548.43c-0.5,0-1-0.19-1.39-0.54c-0.46-0.4-0.73-0.97-0.73-1.58v-868.17
						c0-1.18,0.93-2.12,2.12-2.12h148.77c1.16,0,2.12,0.94,2.12,2.12v837.34c0.54,0.39,0.97,0.94,0.97,1.85
						c0,2.22,0,5.63-41.03,13.71c-27.19,5.36-65.4,11.37-110.56,17.37C1769,548.43,1768.92,548.43,1768.8,548.43z M1770.93-319.75
						v863.62c94.63-12.63,136.93-22.33,144.61-26.47c-0.04-0.15-0.08-0.31-0.08-0.48v-836.67H1770.93z"/>
				</g>
				<g>
					<path class="st3" d="M1408.94-321.87v902.4c64.71-4.22,125.06-9.06,179.93-14.21v-888.19H1408.94z"/>
					<path class="st4" d="M1408.94,582.65c-0.54,0-1.08-0.21-1.46-0.56c-0.42-0.4-0.69-0.96-0.69-1.56v-902.4
						c0-1.18,0.96-2.12,2.16-2.12h179.93c1.16,0,2.12,0.94,2.12,2.12v888.19c0,1.1-0.85,2.02-1.93,2.12
						c-58.07,5.42-118.66,10.2-180.01,14.21H1408.94z M1411.03-319.75v898.02c59.89-3.93,118.96-8.58,175.73-13.88v-884.14H1411.03z
						"/>
				</g>
				<g>
					<path class="st3" d="M1049.04-321.87v916.55c61.89-0.83,122.05-2.47,179.93-4.74v-911.81H1049.04z"/>
					<path class="st4" d="M1049.04,596.8c-0.54,0-1.08-0.23-1.5-0.62c-0.39-0.39-0.62-0.95-0.62-1.5v-916.55
						c0-1.18,0.97-2.12,2.12-2.12h179.93c1.2,0,2.12,0.94,2.12,2.12v911.81c0,1.14-0.89,2.06-2.01,2.12
						c-59.92,2.33-120.47,3.95-180.01,4.74H1049.04z M1051.16-319.75v912.27c58.15-0.79,117.27-2.35,175.69-4.65v-907.62H1051.16z"
						/>
				</g>
			</g>
		</g>
		<path class="st5" d="M1917.58,516.92v-838.79H1.46v838.94h0.62c-0.35,0.06-0.62,0.15-0.62,0.25c0,13.96,429.16,77.95,958.54,77.95
			c529.42,0,958.58-63.99,958.58-77.95C1918.58,517.19,1918.2,517.07,1917.58,516.92z M1102.56,546.04
			c-383.08,71.55-938.45-21.27-994.79-35.15c-56.34-13.9-58.54-104.06-58.54-104.06V-55.6c-7.79-94.8,74.7-79.05,74.7-79.05
			c41.72,14.62,157.99,32.99,157.99,32.99c365.38,65.88,701.72,30.08,783.2,25.51c81.44-4.57,81.1,76.33,81.1,76.33
			s-5.51,314.4,0,437.78C1151.65,561.34,1102.56,546.04,1102.56,546.04z"/>
		<path class="st5" d="M1917.58,516.92v-838.79h-423.57v896.3c256.05-19.97,424.57-48.38,424.57-57.11
			C1918.58,517.19,1918.2,517.07,1917.58,516.92z"/>
		<path class="st6" d="M1917.58,516.92v-838.79h-223.2v877.31c139.91-15.93,224.2-31.95,224.2-38.12
			C1918.58,517.19,1918.2,517.07,1917.58,516.92z"/>
	</g>
</g>
</svg>
