<?xml version="1.0" encoding="utf-8"?>
<!-- Generator: Adobe Illustrator 26.1.0, SVG Export Plug-In . SVG Version: 6.00 Build 0)  -->
<svg version="1.1" id="圖層_1" xmlns="http://www.w3.org/2000/svg" xmlns:xlink="http://www.w3.org/1999/xlink" x="0px" y="0px"
	 viewBox="0 0 1920 223.72" style="enable-background:new 0 0 1920 223.72;" xml:space="preserve">
<style type="text/css">
	.st0{clip-path:url(#SVGID_00000180365376826668714170000002764865980987131556_);}
	.st1{fill:#FFFFFF;}
	.st2{fill:#B5B7B8;}
	.st3{fill:#E61F18;}
	.st4{fill:#A13127;}
	.st5{opacity:0.5;fill:#95979A;}
	.st6{opacity:0.8;fill:#95979A;}
</style>
<g>
	<defs>
		<rect id="SVGID_1_" y="0" width="1920" height="223.72"/>
	</defs>
	<clipPath id="SVGID_00000137851992474738036450000017093788881610464422_">
		<use xlink:href="#SVGID_1_"  style="overflow:visible;"/>
	</clipPath>
	<g style="clip-path:url(#SVGID_00000137851992474738036450000017093788881610464422_);">
		<g>
			<g>
				<path class="st1" d="M1916.92,740.82V-97.39H2.12v838.36h0.62c-0.35,0.06-0.62,0.15-0.62,0.25c0,13.95,428.86,77.9,957.88,77.9
					c529.06,0,957.92-63.95,957.92-77.9C1917.92,741.09,1917.53,740.98,1916.92,740.82z"/>
				<path class="st2" d="M960,821.25c-302.62,0-554.37-21.14-677.53-33.72c-79-8.09-151.95-17.38-205.4-26.15
					C0,748.72,0,743.66,0,741.23c0-0.06,0-0.1,0.04-0.13C0,741.04,0,741,0,740.98V-97.39c0-1.18,0.96-2.12,2.12-2.12h1914.8
					c1.16,0,2.12,0.94,2.12,2.12v836.76c0.54,0.38,0.96,0.94,0.96,1.85c0,2.43,0,7.5-77.03,20.15
					c-53.45,8.77-126.4,18.05-205.4,26.15C1514.41,800.11,1262.66,821.25,960,821.25z M4.85,741.17
					C27.9,755.62,435.18,817.01,960,817.01c522.66,0,928.71-60.87,954.88-75.66c-0.04-0.17-0.08-0.35-0.08-0.52V-95.27H4.24v834.76
					c0.35,0.33,0.58,0.77,0.62,1.27C4.85,740.9,4.85,741.04,4.85,741.17z"/>
			</g>
			<g>
				<g>
					<path class="st3" d="M329.71-97.39v887.4c54.8,5.14,115.11,10.02,179.81,14.26V-97.39H329.71z"/>
					<path class="st4" d="M509.52,806.39h-0.12c-61.39-4.03-121.89-8.83-179.88-14.26c-1.08-0.12-1.93-1.02-1.93-2.12v-887.4
						c0-1.18,0.96-2.12,2.12-2.12h179.81c1.19,0,2.12,0.94,2.12,2.12v901.66c0,0.58-0.19,1.16-0.66,1.54
						C510.6,806.18,510.1,806.39,509.52,806.39z M331.83,788.09c56.65,5.3,115.72,9.98,175.61,13.93V-95.27H331.83V788.09z"/>
				</g>
				<g>
					<path class="st3" d="M689.36-97.39v911.08c57.84,2.29,117.96,3.97,179.81,4.82v-915.9H689.36z"/>
					<path class="st4" d="M869.17,820.63h-0.04c-59.34-0.81-119.88-2.43-179.85-4.82c-1.16-0.04-2.04-0.96-2.04-2.12V-97.39
						c0-1.18,0.93-2.12,2.12-2.12h179.81c1.16,0,2.12,0.94,2.12,2.12v915.9c0,0.56-0.23,1.1-0.62,1.5
						C870.25,820.4,869.75,820.63,869.17,820.63z M691.48,811.67c58.58,2.31,117.57,3.87,175.57,4.68V-95.27H691.48V811.67z"/>
				</g>
				<g>
					<path class="st3" d="M2.12-97.39v838.36h0.62c-0.35,0.06-0.62,0.15-0.62,0.25c0,4.95,54.22,16.22,147.78,28.69v-867.3H2.12z"/>
					<path class="st4" d="M149.9,772.04l-0.27-0.02c-44.58-5.93-82.31-11.87-109.13-17.17C0,746.81,0,743.44,0,741.23
						c0-0.06,0-0.1,0.04-0.13C0,741.04,0,741,0,740.98V-97.39c0-1.18,0.96-2.12,2.12-2.12H149.9c1.16,0,2.12,0.94,2.12,2.12v867.3
						c0,0.62-0.27,1.21-0.69,1.6C150.9,771.86,150.4,772.04,149.9,772.04z M4.85,741.13c6.67,3.99,48.29,13.7,142.93,26.38V-95.27
						H4.24v834.76c0.35,0.33,0.58,0.77,0.62,1.27C4.85,740.88,4.85,741.02,4.85,741.13z"/>
				</g>
				<g>
					<path class="st3" d="M1917.92,741.23c0-0.13-0.38-0.25-1-0.4V-97.39h-148.67v867.57
						C1862.97,757.6,1917.92,746.2,1917.92,741.23z"/>
					<path class="st4" d="M1768.24,772.31c-0.5,0-1-0.19-1.39-0.54c-0.46-0.4-0.73-0.96-0.73-1.58V-97.39
						c0-1.18,0.93-2.12,2.12-2.12h148.67c1.16,0,2.12,0.94,2.12,2.12v836.76c0.54,0.38,0.96,0.94,0.96,1.85c0,2.22,0,5.63-41,13.7
						c-27.17,5.35-65.36,11.37-110.48,17.36C1768.44,772.31,1768.36,772.31,1768.24,772.31z M1770.37-95.27v863.02
						c94.57-12.62,136.84-22.31,144.51-26.45c-0.04-0.15-0.08-0.31-0.08-0.48V-95.27H1770.37z"/>
				</g>
				<g>
					<path class="st3" d="M1408.63-97.39v901.77c64.66-4.22,124.97-9.06,179.81-14.2V-97.39H1408.63z"/>
					<path class="st4" d="M1408.63,806.51c-0.54,0-1.08-0.21-1.46-0.56c-0.42-0.4-0.69-0.96-0.69-1.56V-97.39
						c0-1.18,0.96-2.12,2.16-2.12h179.81c1.16,0,2.12,0.94,2.12,2.12v887.57c0,1.1-0.85,2.02-1.93,2.12
						c-58.03,5.41-118.57,10.19-179.88,14.2H1408.63z M1410.71-95.27v897.4c59.85-3.93,118.88-8.57,175.61-13.87V-95.27H1410.71z"/>
				</g>
				<g>
					<path class="st3" d="M1048.98-97.39v915.92c61.85-0.83,121.96-2.47,179.81-4.74V-97.39H1048.98z"/>
					<path class="st4" d="M1048.98,820.65c-0.54,0-1.08-0.23-1.5-0.62c-0.38-0.39-0.62-0.95-0.62-1.5V-97.39
						c0-1.18,0.96-2.12,2.12-2.12h179.81c1.2,0,2.12,0.94,2.12,2.12v911.18c0,1.14-0.89,2.06-2,2.12
						c-59.88,2.33-120.39,3.95-179.88,4.74H1048.98z M1051.1-95.27v911.64c58.11-0.79,117.19-2.35,175.57-4.64v-907H1051.1z"/>
				</g>
			</g>
		</g>
		<path class="st5" d="M1916.92,740.82V-97.39H2.12v838.36h0.62c-0.35,0.06-0.62,0.15-0.62,0.25c0,13.95,428.86,77.9,957.88,77.9
			c529.06,0,957.92-63.95,957.92-77.9C1917.92,741.09,1917.53,740.98,1916.92,740.82z M1102.47,769.92
			c-382.81,71.5-937.8-21.25-994.1-35.13c-56.3-13.89-58.5-103.99-58.5-103.99V168.7c-7.78-94.74,74.64-79,74.64-79
			c41.7,14.61,157.88,32.97,157.88,32.97c365.12,65.84,701.23,30.06,782.66,25.49c81.39-4.57,81.04,76.28,81.04,76.28
			s-5.51,314.18,0,437.48C1151.52,785.22,1102.47,769.92,1102.47,769.92z"/>
		<path class="st5" d="M1916.92,740.82V-97.39h-423.28V798.3c255.88-19.96,424.28-48.34,424.28-57.07
			C1917.92,741.09,1917.53,740.98,1916.92,740.82z"/>
		<path class="st6" d="M1916.92,740.82V-97.39h-223.04v876.71c139.81-15.92,224.05-31.93,224.05-38.09
			C1917.92,741.09,1917.53,740.98,1916.92,740.82z"/>
	</g>
</g>
</svg>
