<?xml version="1.0" encoding="utf-8"?>
<!-- Generator: Adobe Illustrator 26.5.3, SVG Export Plug-In . SVG Version: 6.00 Build 0)  -->
<svg version="1.1" id="圖層_1" xmlns="http://www.w3.org/2000/svg" xmlns:xlink="http://www.w3.org/1999/xlink" x="0px" y="0px"
	 viewBox="0 0 90 90" style="enable-background:new 0 0 90 90;" xml:space="preserve">
<style type="text/css">
	.st0{fill:#A73B31;}
	.st1{fill:#C74A3D;}
	.st2{fill:#923B2E;}
	.st3{fill:#D7A77D;}
	.st4{fill:#EF9826;}
	.st5{opacity:0.15;fill:#040000;}
	.st6{fill:#EEEEEE;}
	.st7{fill:#A0D4E6;}
	.st8{fill:#1F5054;}
	.st9{fill:#4E9CA2;}
	.st10{fill:none;stroke:#595757;stroke-linecap:round;stroke-linejoin:round;stroke-miterlimit:10;}
	.st11{fill:#5B3420;}
	.st12{fill:#F4B524;}
	.st13{fill:#40220F;}
	.st14{enable-background:new    ;}
	.st15{fill:#FFFFFF;}
	.st16{fill:#4B5F96;}
	.st17{fill:#5F78BA;}
	.st18{fill:#036EB8;}
	.st19{fill:none;stroke:#595757;stroke-miterlimit:10;}
	.st20{fill:#004E9D;}
</style>
<g>
	<g>
		<path class="st0" d="M40.9,3.6c-2.6,1.4-4.4,4.2-4.4,7.5c0,4.7,3.8,8.5,8.5,8.5c4.7,0,8.5-3.8,8.5-8.5c0-1.3-0.3-2.5-0.8-3.5
			c-1.2,0.7-2.6,1-4,1C45.2,8.6,42.3,6.6,40.9,3.6z"/>
		<path class="st1" d="M45,2.6c-1.5,0-2.8,0.4-4,1c1.3,2.9,4.3,4.9,7.7,4.9c1.5,0,2.8-0.4,4-1C51.3,4.7,48.4,2.6,45,2.6z"/>
	</g>
	<g>
		<rect x="17" y="28.9" class="st2" width="40" height="56.6"/>
		<rect x="33" y="28.9" class="st2" width="40" height="56.6"/>
		<g>
			<rect x="41" y="28.9" class="st3" width="8" height="56.6"/>
			<rect x="25" y="28.9" class="st3" width="8" height="56.6"/>
		</g>
		<g>
			<rect x="57" y="28.9" class="st3" width="8" height="56.6"/>
		</g>
	</g>
	<rect x="18.2" y="28.8" class="st4" width="53.6" height="33.8"/>
	<rect x="14.2" y="62.7" class="st4" width="61.6" height="4.4"/>
	<rect x="14.2" y="85.2" class="st2" width="61.6" height="2.2"/>
	<rect x="17" y="67" class="st5" width="56" height="2.4"/>
	<g>
		<polygon class="st6" points="33.4,28.8 19.6,49 19.6,61.1 41.7,28.8 		"/>
		<polygon class="st7" points="19.6,28.8 19.6,49 33.4,28.8 		"/>
		<polygon class="st7" points="70.3,28.8 41.7,28.8 19.6,61.1 19.6,62.1 49.4,62.1 70.3,31.6 		"/>
		<polygon class="st7" points="70.3,41.7 56.3,62.1 70.3,62.1 		"/>
		<polygon class="st6" points="70.3,31.6 49.4,62.1 56.3,62.1 70.3,41.7 		"/>
	</g>
	<g>
		<path class="st8" d="M45,54.4c-0.5,0-1.1,0.1-1.6,0.2c2.7,0.7,4.6,3,4.6,5.7c0,0.6-0.1,1.2-0.3,1.7h3.2c0.2-0.5,0.3-1.1,0.3-1.7
			C51.2,57.1,48.4,54.4,45,54.4z"/>
		<path class="st9" d="M43.4,54.6c-2.7,0.7-4.6,3-4.6,5.7c0,0.6,0.1,1.2,0.3,1.7h8.8c0.2-0.5,0.3-1.1,0.3-1.7
			C48,57.6,46.1,55.3,43.4,54.6z"/>
	</g>
	<g>
		<polygon class="st10" points="44.4,37.3 40.1,44 49.3,43.4 		"/>
		<path class="st11" d="M57.5,48.8c0,0.8-0.6,1.5-1.4,1.5H33.7c-0.8,0-1.4-0.7-1.4-1.5v-5.4c0-0.8,0.6-1.5,1.4-1.5h22.4
			c0.8,0,1.4,0.7,1.4,1.5V48.8z"/>
		<path class="st2" d="M57.6,48.3c0,0.8-0.6,1.4-1.4,1.4H34.1c-0.7,0-1.4-0.6-1.4-1.4V43c0-0.8,0.6-1.4,1.4-1.4h22.2
			c0.7,0,1.4,0.6,1.4,1.4V48.3z"/>
		<path class="st11" d="M45.2,37.3c0,0.4-0.3,0.8-0.7,0.8c-0.4,0-0.7-0.3-0.7-0.8s0.3-0.8,0.7-0.8C44.8,36.5,45.2,36.9,45.2,37.3z"
			/>
	</g>
	<rect x="17" y="29.9" class="st5" width="56" height="1.9"/>
	<g>
		<g>
			<path class="st12" d="M10.5,26.1c0,2.8,2.2,5,5,5h59c2.8,0,5-2.2,5-5V14.8c0-2.8-2.2-5-5-5h-59c-2.8,0-5,2.2-5,5V26.1z"/>
		</g>
		<g>
			<path class="st13" d="M15.8,21.7c0,2.8,2.2,5,5,5h48.4c2.8,0,5-2.2,5-5v-2.6c0-2.8-2.2-5-5-5H20.8c-2.8,0-5,2.2-5,5V21.7z"/>
		</g>
		<path class="st2" d="M59.1,28.9c0,0.7-0.5,1.2-1.2,1.2c-0.7,0-1.2-0.5-1.2-1.2s0.5-1.2,1.2-1.2C58.6,27.7,59.1,28.2,59.1,28.9z"/>
		<path class="st2" d="M67.8,28.9c0,0.7-0.5,1.2-1.2,1.2c-0.7,0-1.2-0.5-1.2-1.2s0.5-1.2,1.2-1.2C67.2,27.7,67.8,28.2,67.8,28.9z"/>
		<path class="st2" d="M33,28.9c0,0.7-0.5,1.2-1.2,1.2c-0.7,0-1.2-0.5-1.2-1.2c0-0.7,0.5-1.2,1.2-1.2C32.5,27.7,33,28.2,33,28.9z"/>
		<path class="st2" d="M41.7,28.9c0,0.7-0.5,1.2-1.2,1.2c-0.7,0-1.2-0.5-1.2-1.2s0.5-1.2,1.2-1.2C41.2,27.7,41.7,28.2,41.7,28.9z"/>
		<path class="st2" d="M50.4,28.9c0,0.7-0.5,1.2-1.2,1.2c-0.7,0-1.2-0.5-1.2-1.2s0.5-1.2,1.2-1.2C49.9,27.7,50.4,28.2,50.4,28.9z"/>
		<path class="st2" d="M24.3,28.9c0,0.7-0.5,1.2-1.2,1.2c-0.7,0-1.2-0.5-1.2-1.2c0-0.7,0.5-1.2,1.2-1.2
			C23.8,27.7,24.3,28.2,24.3,28.9z"/>
		<path class="st2" d="M59.1,12c0,0.7-0.5,1.2-1.2,1.2c-0.7,0-1.2-0.5-1.2-1.2s0.5-1.2,1.2-1.2C58.6,10.8,59.1,11.3,59.1,12z"/>
		<path class="st2" d="M67.8,12c0,0.7-0.5,1.2-1.2,1.2c-0.7,0-1.2-0.5-1.2-1.2s0.5-1.2,1.2-1.2C67.2,10.8,67.8,11.3,67.8,12z"/>
		<path class="st2" d="M33,12c0,0.7-0.5,1.2-1.2,1.2c-0.7,0-1.2-0.5-1.2-1.2s0.5-1.2,1.2-1.2C32.5,10.8,33,11.3,33,12z"/>
		<path class="st2" d="M41.7,12c0,0.7-0.5,1.2-1.2,1.2c-0.7,0-1.2-0.5-1.2-1.2s0.5-1.2,1.2-1.2C41.2,10.8,41.7,11.3,41.7,12z"/>
		<path class="st2" d="M50.4,12c0,0.7-0.5,1.2-1.2,1.2c-0.7,0-1.2-0.5-1.2-1.2s0.5-1.2,1.2-1.2C49.9,10.8,50.4,11.3,50.4,12z"/>
		<path class="st2" d="M24.3,12c0,0.7-0.5,1.2-1.2,1.2c-0.7,0-1.2-0.5-1.2-1.2s0.5-1.2,1.2-1.2C23.8,10.8,24.3,11.3,24.3,12z"/>
		<path class="st2" d="M78,20.4c0,0.7-0.5,1.2-1.2,1.2c-0.7,0-1.2-0.5-1.2-1.2s0.5-1.2,1.2-1.2C77.5,19.2,78,19.7,78,20.4z"/>
		<path class="st2" d="M76.5,28.5c0,0.7-0.5,1.2-1.2,1.2c-0.7,0-1.2-0.5-1.2-1.2s0.5-1.2,1.2-1.2C75.9,27.3,76.5,27.8,76.5,28.5z"/>
		<path class="st2" d="M76.5,12.3c0,0.7-0.5,1.2-1.2,1.2c-0.7,0-1.2-0.5-1.2-1.2s0.5-1.2,1.2-1.2C75.9,11.2,76.5,11.7,76.5,12.3z"/>
		<path class="st2" d="M11.7,20.4c0,0.7,0.5,1.2,1.2,1.2c0.7,0,1.2-0.5,1.2-1.2s-0.5-1.2-1.2-1.2C12.2,19.2,11.7,19.7,11.7,20.4z"/>
		<path class="st2" d="M13.3,28.5c0,0.7,0.5,1.2,1.2,1.2c0.7,0,1.2-0.5,1.2-1.2s-0.5-1.2-1.2-1.2C13.8,27.3,13.3,27.8,13.3,28.5z"/>
		<path class="st2" d="M13.3,12.3c0,0.7,0.5,1.2,1.2,1.2c0.7,0,1.2-0.5,1.2-1.2s-0.5-1.2-1.2-1.2C13.8,11.2,13.3,11.7,13.3,12.3z"/>
	</g>
	<g>
		<g class="st14">
			<path class="st15" d="M23.3,23.9l1.4-6.6h1.4l-1.2,5.5h2.3L27,23.9H23.3z"/>
			<path class="st15" d="M30.7,24c-0.6,0-1.1-0.2-1.5-0.5c-0.4-0.3-0.5-0.8-0.5-1.4c0-0.6,0.1-1.2,0.4-1.7c0.2-0.5,0.6-0.9,1-1.2
				c0.4-0.3,0.9-0.4,1.4-0.4c0.5,0,1,0.1,1.3,0.4s0.4,0.6,0.4,1c0,0.6-0.3,1-0.8,1.3c-0.5,0.3-1.2,0.5-2.2,0.5h-0.2l0,0.1v0.1
				c0,0.3,0.1,0.5,0.2,0.7c0.2,0.2,0.4,0.2,0.7,0.2c0.3,0,0.5,0,0.7-0.1c0.2-0.1,0.5-0.2,0.8-0.3v1C31.9,23.9,31.4,24,30.7,24z
				 M31.4,19.7c-0.3,0-0.5,0.1-0.8,0.4c-0.2,0.2-0.4,0.5-0.5,0.9h0.2c0.5,0,0.8-0.1,1.1-0.2c0.3-0.1,0.4-0.3,0.4-0.6
				C31.9,19.9,31.8,19.7,31.4,19.7z"/>
			<path class="st15" d="M35.9,22.5c0.2-0.5,0.3-0.9,0.4-1l1.3-2.7h1.5l-2.7,5.1h-1.5l-0.6-5.1h1.3l0.2,2.7
				C35.8,21.9,35.8,22.2,35.9,22.5L35.9,22.5z"/>
			<path class="st15" d="M41.3,24c-0.6,0-1.1-0.2-1.5-0.5c-0.4-0.3-0.5-0.8-0.5-1.4c0-0.6,0.1-1.2,0.4-1.7c0.2-0.5,0.6-0.9,1-1.2
				c0.4-0.3,0.9-0.4,1.4-0.4c0.5,0,1,0.1,1.3,0.4s0.4,0.6,0.4,1c0,0.6-0.3,1-0.8,1.3c-0.5,0.3-1.2,0.5-2.2,0.5h-0.2l0,0.1v0.1
				c0,0.3,0.1,0.5,0.2,0.7c0.2,0.2,0.4,0.2,0.7,0.2c0.3,0,0.5,0,0.7-0.1c0.2-0.1,0.5-0.2,0.8-0.3v1C42.6,23.9,42,24,41.3,24z
				 M42.1,19.7c-0.3,0-0.5,0.1-0.8,0.4c-0.2,0.2-0.4,0.5-0.5,0.9h0.2c0.5,0,0.8-0.1,1.1-0.2c0.3-0.1,0.4-0.3,0.4-0.6
				C42.6,19.9,42.4,19.7,42.1,19.7z"/>
			<path class="st15" d="M46,23.9h-1.4l1.5-7.1h1.4L46,23.9z"/>
		</g>
		<g class="st14">
			<path class="st15" d="M52.4,20.3c0,0.7-0.1,1.4-0.3,1.9c-0.2,0.6-0.5,1-0.8,1.3C51,23.8,50.6,24,50.2,24c-0.5,0-0.8-0.1-1.1-0.4
				c-0.2-0.3-0.4-0.7-0.4-1.3c0-0.7,0.1-1.3,0.3-1.9s0.5-1,0.8-1.3c0.3-0.3,0.7-0.5,1.2-0.5C52,18.6,52.4,19.2,52.4,20.3z
				 M50.9,19.5c-0.2,0-0.4,0.1-0.5,0.4c-0.2,0.2-0.3,0.6-0.4,1.1c-0.1,0.5-0.2,0.9-0.2,1.3c0,0.3,0,0.5,0.1,0.6
				c0.1,0.1,0.2,0.2,0.3,0.2c0.2,0,0.4-0.1,0.5-0.4c0.2-0.3,0.3-0.6,0.4-1.1c0.1-0.5,0.2-0.9,0.2-1.4c0-0.3,0-0.5-0.1-0.6
				C51.2,19.6,51.1,19.5,50.9,19.5z"/>
			<path class="st15" d="M54.9,23.9h-1.1l0.6-2.9c0.1-0.4,0.2-0.7,0.3-1c0,0-0.1,0.1-0.2,0.2c-0.1,0.1-0.4,0.3-0.9,0.6L53.1,20
				l2-1.2H56L54.9,23.9z"/>
			<path class="st15" d="M56.6,22.4l0.2-0.9h1.9l-0.2,0.9H56.6z"/>
			<path class="st15" d="M62.7,20.3c0,0.7-0.1,1.4-0.3,1.9c-0.2,0.6-0.5,1-0.8,1.3c-0.3,0.3-0.7,0.4-1.2,0.4c-0.5,0-0.8-0.1-1.1-0.4
				c-0.2-0.3-0.4-0.7-0.4-1.3c0-0.7,0.1-1.3,0.3-1.9c0.2-0.6,0.5-1,0.8-1.3c0.3-0.3,0.7-0.5,1.2-0.5C62.3,18.6,62.7,19.2,62.7,20.3z
				 M61.2,19.5c-0.2,0-0.4,0.1-0.5,0.4c-0.2,0.2-0.3,0.6-0.4,1.1c-0.1,0.5-0.2,0.9-0.2,1.3c0,0.3,0,0.5,0.1,0.6
				c0.1,0.1,0.2,0.2,0.3,0.2c0.2,0,0.4-0.1,0.5-0.4s0.3-0.6,0.4-1.1c0.1-0.5,0.2-0.9,0.2-1.4c0-0.3,0-0.5-0.1-0.6
				C61.5,19.6,61.4,19.5,61.2,19.5z"/>
			<path class="st15" d="M66.7,20.4c0,0.7-0.1,1.3-0.4,1.9c-0.2,0.6-0.5,1-0.9,1.3C65,23.8,64.5,24,63.9,24c-0.3,0-0.6,0-0.8-0.1
				v-0.9c0.3,0.1,0.5,0.1,0.8,0.1c0.4,0,0.7-0.1,1-0.4c0.3-0.2,0.5-0.6,0.6-1.2h0c-0.3,0.4-0.6,0.6-1,0.6c-0.4,0-0.7-0.1-0.9-0.4
				c-0.2-0.2-0.3-0.6-0.3-1c0-0.4,0.1-0.8,0.3-1.1c0.2-0.3,0.4-0.6,0.7-0.7c0.3-0.2,0.6-0.2,1-0.2c0.5,0,0.8,0.1,1.1,0.4
				C66.5,19.4,66.7,19.8,66.7,20.4z M65.1,19.5c-0.2,0-0.3,0.1-0.4,0.1c-0.1,0.1-0.2,0.2-0.3,0.4c-0.1,0.2-0.1,0.4-0.1,0.5
				c0,0.2,0,0.4,0.1,0.5c0.1,0.1,0.2,0.2,0.4,0.2c0.1,0,0.3,0,0.4-0.1c0.1-0.1,0.2-0.2,0.3-0.4c0.1-0.2,0.1-0.3,0.1-0.6
				c0-0.2,0-0.4-0.1-0.5C65.4,19.6,65.3,19.5,65.1,19.5z"/>
		</g>
	</g>
</g>
<g>
	<g>
		<path class="st16" d="M121.2,4.3c-2.6,1.4-4.4,4.2-4.4,7.5c0,4.7,3.8,8.5,8.5,8.5c4.7,0,8.5-3.8,8.5-8.5c0-1.3-0.3-2.5-0.8-3.5
			c-1.2,0.7-2.6,1-4,1C125.4,9.2,122.5,7.2,121.2,4.3z"/>
		<path class="st17" d="M125.2,3.3c-1.5,0-2.8,0.4-4,1c1.3,2.9,4.3,4.9,7.7,4.9c1.5,0,2.8-0.4,4-1C131.5,5.3,128.6,3.3,125.2,3.3z"
			/>
	</g>
	<g>
		<rect x="97.2" y="29.6" class="st18" width="40" height="56.6"/>
		<rect x="113.2" y="29.6" class="st18" width="40" height="56.6"/>
		<g>
			<rect x="121.2" y="29.6" class="st3" width="8" height="56.6"/>
			<rect x="105.2" y="29.6" class="st3" width="8" height="56.6"/>
		</g>
		<g>
			<rect x="137.2" y="29.6" class="st3" width="8" height="56.6"/>
		</g>
	</g>
	<rect x="98.4" y="29.5" class="st4" width="53.6" height="33.8"/>
	<rect x="94.4" y="63.3" class="st4" width="61.6" height="4.4"/>
	<rect x="94.4" y="85.9" class="st18" width="61.6" height="2.2"/>
	<rect x="97.2" y="67.7" class="st5" width="56" height="2.4"/>
	<g>
		<polygon class="st6" points="113.6,29.5 99.8,49.6 99.8,61.7 122,29.5 		"/>
		<polygon class="st7" points="99.8,29.5 99.8,49.6 113.6,29.5 		"/>
		<polygon class="st7" points="150.5,29.5 122,29.5 99.8,61.7 99.8,62.7 129.6,62.7 150.5,32.2 		"/>
		<polygon class="st7" points="150.5,42.3 136.5,62.7 150.5,62.7 		"/>
		<polygon class="st6" points="150.5,32.2 129.6,62.7 136.5,62.7 150.5,42.3 		"/>
	</g>
	<g>
		<path class="st8" d="M125.2,55.1c-0.5,0-1.1,0.1-1.6,0.2c2.7,0.7,4.6,3,4.6,5.7c0,0.6-0.1,1.2-0.3,1.7h3.2
			c0.2-0.5,0.3-1.1,0.3-1.7C131.4,57.7,128.6,55.1,125.2,55.1z"/>
		<path class="st9" d="M123.6,55.3c-2.7,0.7-4.6,3-4.6,5.7c0,0.6,0.1,1.2,0.3,1.7h8.8c0.2-0.5,0.3-1.1,0.3-1.7
			C128.2,58.3,126.3,55.9,123.6,55.3z"/>
	</g>
	<g>
		<polygon class="st19" points="124.6,37.9 120.3,44.6 129.5,44 		"/>
		<path class="st20" d="M137.7,49.5c0,0.8-0.6,1.5-1.4,1.5H114c-0.8,0-1.4-0.7-1.4-1.5V44c0-0.8,0.6-1.5,1.4-1.5h22.4
			c0.8,0,1.4,0.7,1.4,1.5V49.5z"/>
		<path class="st18" d="M137.8,48.9c0,0.8-0.6,1.4-1.4,1.4h-22.2c-0.7,0-1.4-0.6-1.4-1.4v-5.3c0-0.8,0.6-1.4,1.4-1.4h22.2
			c0.7,0,1.4,0.6,1.4,1.4V48.9z"/>
		<path class="st11" d="M125.4,37.9c0,0.4-0.3,0.8-0.7,0.8c-0.4,0-0.7-0.3-0.7-0.8c0-0.4,0.3-0.8,0.7-0.8
			C125,37.2,125.4,37.5,125.4,37.9z"/>
	</g>
	<rect x="95.7" y="30.5" class="st5" width="58.9" height="1.9"/>
	<g>
		<g>
			<path class="st12" d="M90.7,26.7c0,2.8,2.2,5,5,5h59c2.8,0,5-2.2,5-5V15.3c0-2.8-2.2-5-5-5h-59c-2.8,0-5,2.2-5,5V26.7z"/>
		</g>
		<g>
			<path class="st18" d="M95.2,13c0,0.7-0.5,1.2-1.2,1.2c-0.7,0-1.2-0.5-1.2-1.2c0-0.7,0.5-1.2,1.2-1.2C94.6,11.8,95.2,12.3,95.2,13
				z"/>
			<path class="st18" d="M157.6,13c0,0.7-0.5,1.2-1.2,1.2c-0.7,0-1.2-0.5-1.2-1.2c0-0.7,0.5-1.2,1.2-1.2
				C157.1,11.8,157.6,12.3,157.6,13z"/>
			<path class="st18" d="M139.7,13c0,0.7-0.5,1.2-1.2,1.2c-0.7,0-1.2-0.5-1.2-1.2c0-0.7,0.5-1.2,1.2-1.2
				C139.2,11.8,139.7,12.3,139.7,13z"/>
			<path class="st18" d="M148.7,13c0,0.7-0.5,1.2-1.2,1.2c-0.7,0-1.2-0.5-1.2-1.2c0-0.7,0.5-1.2,1.2-1.2
				C148.1,11.8,148.7,12.3,148.7,13z"/>
			<path class="st18" d="M139.7,29c0,0.7-0.5,1.2-1.2,1.2c-0.7,0-1.2-0.5-1.2-1.2s0.5-1.2,1.2-1.2C139.2,27.8,139.7,28.4,139.7,29z"
				/>
			<path class="st18" d="M148.7,29c0,0.7-0.5,1.2-1.2,1.2c-0.7,0-1.2-0.5-1.2-1.2s0.5-1.2,1.2-1.2C148.1,27.8,148.7,28.4,148.7,29z"
				/>
			<path class="st18" d="M95.2,21c0,0.7-0.5,1.2-1.2,1.2c-0.7,0-1.2-0.5-1.2-1.2c0-0.7,0.5-1.2,1.2-1.2C94.6,19.8,95.2,20.3,95.2,21
				z"/>
			<path class="st18" d="M157.6,21c0,0.7-0.5,1.2-1.2,1.2c-0.7,0-1.2-0.5-1.2-1.2s0.5-1.2,1.2-1.2C157.1,19.8,157.6,20.3,157.6,21z"
				/>
			<path class="st18" d="M157.6,29c0,0.7-0.5,1.2-1.2,1.2c-0.7,0-1.2-0.5-1.2-1.2s0.5-1.2,1.2-1.2C157.1,27.8,157.6,28.4,157.6,29z"
				/>
			<path class="st18" d="M95.2,29c0,0.7-0.5,1.2-1.2,1.2c-0.7,0-1.2-0.5-1.2-1.2s0.5-1.2,1.2-1.2C94.6,27.8,95.2,28.4,95.2,29z"/>
			<path class="st18" d="M113,13c0,0.7-0.5,1.2-1.2,1.2c-0.7,0-1.2-0.5-1.2-1.2c0-0.7,0.5-1.2,1.2-1.2C112.5,11.8,113,12.3,113,13z"
				/>
			<path class="st18" d="M121.9,13c0,0.7-0.5,1.2-1.2,1.2c-0.7,0-1.2-0.5-1.2-1.2c0-0.7,0.5-1.2,1.2-1.2
				C121.4,11.8,121.9,12.3,121.9,13z"/>
			<path class="st18" d="M130.8,13c0,0.7-0.5,1.2-1.2,1.2c-0.7,0-1.2-0.5-1.2-1.2c0-0.7,0.5-1.2,1.2-1.2
				C130.3,11.8,130.8,12.3,130.8,13z"/>
			<path class="st18" d="M104.1,13c0,0.7-0.5,1.2-1.2,1.2c-0.7,0-1.2-0.5-1.2-1.2c0-0.7,0.5-1.2,1.2-1.2
				C103.5,11.8,104.1,12.3,104.1,13z"/>
			<path class="st18" d="M113,29c0,0.7-0.5,1.2-1.2,1.2c-0.7,0-1.2-0.5-1.2-1.2s0.5-1.2,1.2-1.2C112.5,27.8,113,28.4,113,29z"/>
			<path class="st18" d="M121.9,29c0,0.7-0.5,1.2-1.2,1.2c-0.7,0-1.2-0.5-1.2-1.2s0.5-1.2,1.2-1.2C121.4,27.8,121.9,28.4,121.9,29z"
				/>
			<path class="st18" d="M130.8,29c0,0.7-0.5,1.2-1.2,1.2c-0.7,0-1.2-0.5-1.2-1.2s0.5-1.2,1.2-1.2C130.3,27.8,130.8,28.4,130.8,29z"
				/>
			<path class="st18" d="M104.1,29c0,0.7-0.5,1.2-1.2,1.2c-0.7,0-1.2-0.5-1.2-1.2s0.5-1.2,1.2-1.2C103.5,27.8,104.1,28.4,104.1,29z"
				/>
		</g>
		<g>
			<path class="st13" d="M96,22.3c0,2.8,2.2,5,5,5h48.4c2.8,0,5-2.2,5-5v-2.6c0-2.8-2.2-5-5-5H101c-2.8,0-5,2.2-5,5V22.3z"/>
		</g>
	</g>
	<g>
		<g class="st14">
			<path class="st15" d="M103.5,24.6l1.4-6.6h1.4l-1.2,5.5h2.3l-0.2,1.2H103.5z"/>
			<path class="st15" d="M110.9,24.7c-0.6,0-1.1-0.2-1.5-0.5c-0.4-0.3-0.5-0.8-0.5-1.4c0-0.6,0.1-1.2,0.4-1.7c0.2-0.5,0.6-0.9,1-1.2
				c0.4-0.3,0.9-0.4,1.4-0.4c0.5,0,1,0.1,1.3,0.4c0.3,0.2,0.4,0.6,0.4,1c0,0.6-0.3,1-0.8,1.3c-0.5,0.3-1.2,0.5-2.2,0.5h-0.2l0,0.1
				v0.1c0,0.3,0.1,0.5,0.2,0.7c0.2,0.2,0.4,0.2,0.7,0.2c0.3,0,0.5,0,0.7-0.1s0.5-0.2,0.8-0.3v1C112.1,24.6,111.6,24.7,110.9,24.7z
				 M111.6,20.5c-0.3,0-0.5,0.1-0.8,0.4c-0.2,0.2-0.4,0.5-0.5,0.9h0.2c0.5,0,0.8-0.1,1.1-0.2s0.4-0.3,0.4-0.6
				C112.1,20.6,112,20.5,111.6,20.5z"/>
			<path class="st15" d="M116.1,23.3c0.2-0.5,0.3-0.9,0.4-1l1.3-2.7h1.5l-2.7,5.1h-1.5l-0.6-5.1h1.3l0.2,2.7
				C116,22.6,116,23,116.1,23.3L116.1,23.3z"/>
			<path class="st15" d="M121.5,24.7c-0.6,0-1.1-0.2-1.5-0.5c-0.4-0.3-0.5-0.8-0.5-1.4c0-0.6,0.1-1.2,0.4-1.7c0.2-0.5,0.6-0.9,1-1.2
				c0.4-0.3,0.9-0.4,1.4-0.4c0.5,0,1,0.1,1.3,0.4c0.3,0.2,0.4,0.6,0.4,1c0,0.6-0.3,1-0.8,1.3c-0.5,0.3-1.2,0.5-2.2,0.5h-0.2l0,0.1
				v0.1c0,0.3,0.1,0.5,0.2,0.7c0.2,0.2,0.4,0.2,0.7,0.2c0.3,0,0.5,0,0.7-0.1s0.5-0.2,0.8-0.3v1C122.8,24.6,122.2,24.7,121.5,24.7z
				 M122.3,20.5c-0.3,0-0.5,0.1-0.8,0.4c-0.2,0.2-0.4,0.5-0.5,0.9h0.2c0.5,0,0.8-0.1,1.1-0.2s0.4-0.3,0.4-0.6
				C122.8,20.6,122.6,20.5,122.3,20.5z"/>
			<path class="st15" d="M126.2,24.6h-1.4l1.5-7.1h1.4L126.2,24.6z"/>
		</g>
		<g class="st14">
			<path class="st15" d="M131.1,24.6H130l0.6-2.9c0.1-0.4,0.2-0.7,0.3-1c0,0-0.1,0.1-0.2,0.2s-0.4,0.3-0.9,0.6l-0.5-0.8l2-1.2h0.9
				L131.1,24.6z"/>
			<path class="st15" d="M136.6,21.1c0,0.7-0.1,1.4-0.3,1.9c-0.2,0.6-0.5,1-0.8,1.3c-0.3,0.3-0.7,0.4-1.2,0.4
				c-0.5,0-0.8-0.1-1.1-0.4c-0.2-0.3-0.4-0.7-0.4-1.3c0-0.7,0.1-1.3,0.3-1.9c0.2-0.6,0.5-1,0.8-1.3c0.3-0.3,0.7-0.5,1.2-0.5
				C136.1,19.4,136.6,20,136.6,21.1z M135.1,20.3c-0.2,0-0.4,0.1-0.5,0.4c-0.2,0.2-0.3,0.6-0.4,1.1c-0.1,0.5-0.2,0.9-0.2,1.3
				c0,0.3,0,0.5,0.1,0.6c0.1,0.1,0.2,0.2,0.3,0.2c0.2,0,0.4-0.1,0.5-0.4c0.2-0.3,0.3-0.6,0.4-1.1c0.1-0.5,0.2-0.9,0.2-1.4
				c0-0.3,0-0.5-0.1-0.6C135.4,20.3,135.2,20.3,135.1,20.3z"/>
			<path class="st15" d="M136.8,23.1l0.2-0.9h1.9l-0.2,0.9H136.8z"/>
			<path class="st15" d="M141.4,24.6h-1.1l0.6-2.9c0.1-0.4,0.2-0.7,0.3-1c0,0-0.1,0.1-0.2,0.2s-0.4,0.3-0.9,0.6l-0.5-0.8l2-1.2h0.9
				L141.4,24.6z"/>
			<path class="st15" d="M146.2,24.6h-3.4l0.2-0.8l1.7-1.5c0.4-0.4,0.7-0.7,0.9-0.9c0.2-0.2,0.2-0.4,0.2-0.6c0-0.2,0-0.3-0.1-0.4
				s-0.2-0.1-0.4-0.1c-0.2,0-0.3,0-0.5,0.1c-0.2,0.1-0.4,0.2-0.6,0.4l-0.5-0.7c0.3-0.3,0.6-0.5,0.9-0.6c0.3-0.1,0.6-0.2,0.9-0.2
				c0.4,0,0.8,0.1,1.1,0.3c0.3,0.2,0.4,0.5,0.4,0.9c0,0.3,0,0.5-0.1,0.7c-0.1,0.2-0.2,0.4-0.4,0.7c-0.2,0.2-0.5,0.5-0.9,0.9l-1,0.8
				v0h2L146.2,24.6z"/>
		</g>
	</g>
</g>
</svg>
