<?xml version="1.0" encoding="utf-8"?>
<!-- Generator: Adobe Illustrator 26.5.3, SVG Export Plug-In . SVG Version: 6.00 Build 0)  -->
<svg version="1.1" id="圖層_1" xmlns="http://www.w3.org/2000/svg" xmlns:xlink="http://www.w3.org/1999/xlink" x="0px" y="0px"
	 viewBox="0 0 192.2 175" style="enable-background:new 0 0 192.2 175;" xml:space="preserve">
<style type="text/css">
	.st0{fill:#923B2E;}
	.st1{fill:#C74A3D;}
	.st2{fill:#D7A77D;}
	.st3{fill:#EF9826;}
	.st4{opacity:0.15;fill:#040000;enable-background:new    ;}
	.st5{fill:#EEEEEE;}
	.st6{fill:#A0D4E6;}
	.st7{fill:#1F5054;}
	.st8{fill:#4E9CA2;}
	.st9{fill:#F4B524;}
	.st10{fill:#40220F;}
	.st11{enable-background:new    ;}
	.st12{fill:#FFFFFF;}
</style>
<path class="st0" d="M114,12.6c-1.6,2.9-8.3,2.8-15.2-0.1C92,9.6,87.5,4.9,88.2,1.7c-6.5,3-11.1,9.6-11.1,17.3c0,10.5,8.5,19,19,19
	s19-8.5,19-19C115.1,16.7,114.7,14.6,114,12.6z"/>
<path class="st1" d="M114,12.6C111.3,5.3,104.3,0,96.1,0c-2.8,0-5.5,0.6-7.9,1.7C87.5,4.9,92,9.6,98.8,12.5
	C105.7,15.4,112.3,15.4,114,12.6z"/>
<polygon class="st0" points="122.9,44.3 69.3,44.3 33.5,44.3 33.5,170.8 69.3,170.8 122.9,170.8 158.7,170.8 158.7,44.3 "/>
<g>
	<rect x="87.2" y="44.3" class="st2" width="17.9" height="126.5"/>
	<rect x="51.4" y="44.3" class="st2" width="17.9" height="126.5"/>
</g>
<g>
	<rect x="122.9" y="44.3" class="st2" width="17.9" height="126.5"/>
</g>
<rect x="36.2" y="44" class="st3" width="119.8" height="75.5"/>
<rect x="27.3" y="119.8" class="st3" width="137.7" height="9.8"/>
<rect x="27.3" y="170.1" class="st0" width="137.7" height="4.9"/>
<rect x="33.5" y="129.4" class="st4" width="125.2" height="5.4"/>
<g>
	<polygon class="st5" points="70.2,44 39.3,89.2 39.3,116.2 88.7,44 	"/>
	<polygon class="st6" points="39.3,44 39.3,89.2 70.2,44 	"/>
	<polygon class="st6" points="152.7,44 88.7,44 39.3,116.2 39.3,118.5 105.9,118.5 152.7,50.3 	"/>
	<polygon class="st6" points="152.7,72.9 121.4,118.5 152.7,118.5 	"/>
	<polygon class="st5" points="152.7,50.3 105.9,118.5 121.4,118.5 152.7,72.9 	"/>
</g>
<g>
	<path class="st7" d="M96.1,101.2c-1.1,0-2.5,0.2-3.6,0.4c6,1.6,10.3,6.7,10.3,12.7c0,1.3-0.2,2.7-0.7,3.8h7.2
		c0.4-1.1,0.7-2.5,0.7-3.8C110,107.3,103.7,101.2,96.1,101.2z"/>
	<path class="st8" d="M92.5,101.7c-6,1.6-10.3,6.7-10.3,12.7c0,1.3,0.2,2.7,0.7,3.8h19.7c0.4-1.1,0.7-2.5,0.7-3.8
		C102.8,108.4,98.6,103.3,92.5,101.7z"/>
</g>
<rect x="33.5" y="46.5" class="st4" width="125.2" height="4.2"/>
<g>
	<g>
		<path class="st9" d="M0,68.2C0,76,6.1,82.1,13.9,82.1h164.4c7.8,0,13.9-6.1,13.9-13.9V36.7c0-7.8-6.1-13.9-13.9-13.9H13.9
			C6.1,22.8,0,28.9,0,36.7V68.2z"/>
	</g>
	<g>
		<path class="st0" d="M135.4,76c0,1.9-1.4,3.3-3.3,3.3s-3.3-1.4-3.3-3.3s1.4-3.3,3.3-3.3S135.4,74.1,135.4,76z"/>
		<path class="st0" d="M159.6,76c0,1.9-1.4,3.3-3.3,3.3c-1.9,0-3.3-1.4-3.3-3.3s1.4-3.3,3.3-3.3C157.9,72.7,159.6,74.1,159.6,76z"/>
		<path class="st0" d="M62.7,76c0,1.9-1.4,3.3-3.3,3.3c-2,0-3.4-1.3-3.4-3.3s1.4-3.3,3.3-3.3C61.3,72.7,62.7,74.1,62.7,76z"/>
		<path class="st0" d="M86.9,76c0,1.9-1.4,3.3-3.3,3.3S80.2,78,80.2,76s1.4-3.3,3.3-3.3S86.9,74.1,86.9,76z"/>
		<path class="st0" d="M111.1,76c0,1.9-1.4,3.3-3.3,3.3s-3.3-1.4-3.3-3.3s1.4-3.3,3.3-3.3S111.1,74.1,111.1,76z"/>
		<path class="st0" d="M38.4,76c0,1.9-1.4,3.3-3.3,3.3c-1.9,0-3.3-1.4-3.3-3.3s1.4-3.3,3.3-3.3S38.4,74.1,38.4,76z"/>
		<path class="st0" d="M135.4,28.9c0,1.9-1.4,3.3-3.3,3.3s-3.3-1.4-3.3-3.3s1.4-3.3,3.3-3.3S135.4,27,135.4,28.9z"/>
		<path class="st0" d="M159.6,28.9c0,1.9-1.4,3.3-3.3,3.3c-1.9,0-3.3-1.4-3.3-3.3s1.4-3.3,3.3-3.3C157.9,25.6,159.6,27,159.6,28.9z"
			/>
		<path class="st0" d="M62.7,28.9c0,1.9-1.4,3.3-3.3,3.3c-1.9,0-3.3-1.4-3.3-3.3s1.4-3.3,3.3-3.3C61.3,25.6,62.7,27,62.7,28.9z"/>
		<path class="st0" d="M86.9,28.9c0,1.9-1.4,3.3-3.3,3.3s-3.3-1.4-3.3-3.3s1.4-3.3,3.3-3.3S86.9,27,86.9,28.9z"/>
		<path class="st0" d="M111.1,28.9c0,1.9-1.4,3.3-3.3,3.3s-3.3-1.4-3.3-3.3s1.4-3.3,3.3-3.3S111.1,27,111.1,28.9z"/>
		<path class="st0" d="M38.4,28.9c0,1.9-1.4,3.3-3.3,3.3c-1.9,0-3.3-1.4-3.3-3.3s1.4-3.3,3.3-3.3C37,25.6,38.4,27,38.4,28.9z"/>
		<path class="st0" d="M188,52.3c0,1.9-1.4,3.3-3.3,3.3s-3.3-1.4-3.3-3.3s1.4-3.3,3.3-3.3S188,50.4,188,52.3z"/>
		<path class="st0" d="M183.8,74.9c0,1.9-1.4,3.3-3.3,3.3s-3.3-1.4-3.3-3.3s1.4-3.3,3.3-3.3C182.1,71.5,183.8,72.9,183.8,74.9z"/>
		<path class="st0" d="M183.9,29.8c0,1.9-1.4,3.3-3.3,3.3s-3.3-1.4-3.3-3.3s1.4-3.3,3.3-3.3C182.2,26.7,183.9,28.1,183.9,29.8z"/>
		<path class="st0" d="M3.3,52.3c0,1.9,1.4,3.3,3.3,3.3s3.3-1.4,3.3-3.3S8.6,49,6.7,49C4.7,49,3.3,50.4,3.3,52.3z"/>
		<path class="st0" d="M7.8,74.9c0,1.9,1.4,3.3,3.3,3.3s3.3-1.4,3.3-3.3s-1.4-3.3-3.3-3.3S7.8,72.9,7.8,74.9z"/>
		<path class="st0" d="M7.8,29.8c0,1.9,1.4,3.3,3.3,3.3s3.3-1.4,3.3-3.3s-1.4-3.3-3.3-3.3C9.2,26.7,7.8,28.1,7.8,29.8z"/>
	</g>
</g>
<g>
	<path class="st10" d="M13.6,61.3c0,4.4,5.3,7.9,12,7.9h141c6.7,0,12-3.5,12-7.9V43.5c0-4.4-5.3-7.9-12-7.9h-141
		c-6.7,0-12,3.5-12,7.9C13.6,43.5,13.6,61.3,13.6,61.3z"/>
</g>
<g class="st11">
	<path class="st12" d="M20.8,62.5l4.1-19.2h4l-3.4,15.8h6.7l-0.7,3.4H20.8z"/>
	<path class="st12" d="M42.2,62.7c-1.8,0-3.3-0.5-4.3-1.5s-1.5-2.4-1.5-4.2s0.4-3.5,1.1-5c0.7-1.5,1.7-2.6,2.9-3.4
		c1.2-0.8,2.6-1.2,4.2-1.2c1.5,0,2.8,0.4,3.6,1.1c0.9,0.7,1.3,1.7,1.3,2.9c0,1.6-0.7,2.9-2.2,3.8c-1.5,0.9-3.5,1.3-6.3,1.3h-0.7v0.3
		v0.3c0,0.8,0.2,1.4,0.7,1.9s1.1,0.7,1.9,0.7c0.8,0,1.5-0.1,2.1-0.2c0.6-0.2,1.4-0.5,2.3-0.9v3C45.8,62.4,44.1,62.7,42.2,62.7z
		 M44.3,50.4c-0.8,0-1.5,0.4-2.2,1.1C41.4,52.1,41,53,40.8,54h0.6c1.4,0,2.4-0.2,3.2-0.6s1.1-1,1.1-1.7
		C45.7,50.8,45.2,50.4,44.3,50.4z"/>
	<path class="st12" d="M57.1,58.5c0.6-1.5,0.9-2.5,1.2-2.9l3.9-7.8h4.2l-7.9,14.7h-4.2l-1.8-14.7h3.9l0.6,7.7
		C57.1,56.7,57.1,57.7,57.1,58.5L57.1,58.5z"/>
	<path class="st12" d="M73,62.7c-1.8,0-3.3-0.5-4.3-1.5s-1.5-2.4-1.5-4.2s0.4-3.5,1.1-5s1.7-2.6,2.9-3.4c1.2-0.8,2.6-1.2,4.2-1.2
		c1.5,0,2.8,0.4,3.6,1.1c0.9,0.7,1.3,1.7,1.3,2.9c0,1.6-0.7,2.9-2.2,3.8c-1.5,0.9-3.5,1.3-6.3,1.3h-0.7v0.3v0.3
		c0,0.8,0.2,1.4,0.7,1.9s1.1,0.7,1.9,0.7s1.5-0.1,2.1-0.2c0.6-0.2,1.4-0.5,2.3-0.9v3C76.6,62.4,74.9,62.7,73,62.7z M75.1,50.4
		c-0.8,0-1.5,0.4-2.2,1.1c-0.7,0.7-1.1,1.6-1.3,2.6h0.6c1.4,0,2.4-0.2,3.2-0.6s1.1-1,1.1-1.7C76.5,50.8,76,50.4,75.1,50.4z"/>
	<path class="st12" d="M86.5,62.5h-4L86.9,42h4L86.5,62.5z"/>
	<path class="st12" d="M114,49.2c0,2.7-0.4,5.1-1.1,7.2c-0.7,2.1-1.7,3.7-3,4.8s-2.7,1.6-4.4,1.6c-1.7,0-3-0.5-3.9-1.6
		s-1.3-2.7-1.3-4.8c0-2.5,0.4-4.9,1.1-6.9c0.7-2.1,1.7-3.7,3-4.8s2.7-1.7,4.4-1.7C112.2,43,114,45.1,114,49.2z M108.4,46.3
		c-0.7,0-1.4,0.5-2,1.4s-1.1,2.2-1.5,4c-0.4,1.7-0.6,3.3-0.6,4.8c0,1,0.1,1.8,0.4,2.3c0.2,0.5,0.7,0.8,1.3,0.8c0.7,0,1.4-0.5,2-1.4
		s1.1-2.3,1.5-4s0.6-3.4,0.6-5.1c0-1-0.1-1.7-0.4-2.1C109.3,46.5,108.9,46.3,108.4,46.3z"/>
	<path class="st12" d="M124.4,62.5h-4l2.4-10.9c0.3-1.3,0.6-2.6,1-3.8c-0.1,0.1-0.3,0.3-0.8,0.6s-1.6,1.1-3.4,2.2l-1.7-2.8l7.4-4.6
		h3.3L124.4,62.5z"/>
	<path class="st12" d="M131.9,56.9l0.7-3.3h6.9l-0.7,3.3H131.9z"/>
	<path class="st12" d="M155.7,49.2c0,2.7-0.4,5.1-1.1,7.2c-0.7,2.1-1.7,3.7-3,4.8s-2.7,1.6-4.4,1.6s-3-0.5-3.9-1.6s-1.3-2.7-1.3-4.8
		c0-2.5,0.4-4.9,1.1-6.9c0.7-2.1,1.7-3.7,3-4.8s2.7-1.7,4.4-1.7C154,43,155.7,45.1,155.7,49.2z M150.1,46.3c-0.7,0-1.4,0.5-2,1.4
		s-1.1,2.2-1.5,4c-0.4,1.7-0.6,3.3-0.6,4.8c0,1,0.1,1.8,0.4,2.3c0.2,0.5,0.7,0.8,1.3,0.8c0.7,0,1.4-0.5,2-1.4s1.1-2.3,1.5-4
		s0.6-3.4,0.6-5.1c0-1-0.1-1.7-0.4-2.1C151.1,46.5,150.7,46.3,150.1,46.3z"/>
	<path class="st12" d="M171.4,49.3c0,2.5-0.4,4.8-1.3,7c-0.9,2.2-2,3.8-3.5,4.9c-1.4,1-3.2,1.5-5.3,1.5c-1.1,0-2.2-0.1-3.2-0.4V59
		c1,0.4,2,0.5,3,0.5c1.5,0,2.8-0.4,3.7-1.3c1-0.9,1.7-2.4,2.3-4.5H167c-1,1.4-2.3,2.1-3.9,2.1c-1.4,0-2.5-0.5-3.3-1.4
		s-1.2-2.2-1.2-3.7s0.3-2.8,1-4c0.6-1.2,1.5-2.1,2.6-2.7c1.1-0.6,2.3-0.9,3.8-0.9c1.8,0,3.1,0.5,4.1,1.6
		C171,45.7,171.4,47.3,171.4,49.3z M165.6,46.2c-0.6,0-1.1,0.2-1.5,0.6c-0.4,0.4-0.8,0.9-1,1.5s-0.4,1.3-0.4,2
		c0,0.8,0.2,1.3,0.5,1.7s0.8,0.6,1.4,0.6c0.5,0,1-0.2,1.5-0.5s0.8-0.8,1.1-1.3c0.3-0.6,0.4-1.2,0.4-2.1c0-0.7-0.2-1.3-0.5-1.8
		C166.7,46.5,166.2,46.2,165.6,46.2z"/>
</g>
</svg>
