<?xml version="1.0" encoding="utf-8"?>
<!-- Generator: Adobe Illustrator 26.3.1, SVG Export Plug-In . SVG Version: 6.00 Build 0)  -->
<svg version="1.1" id="圖層_1" xmlns="http://www.w3.org/2000/svg" xmlns:xlink="http://www.w3.org/1999/xlink" x="0px" y="0px"
	 viewBox="0 0 90 90" style="enable-background:new 0 0 90 90;" xml:space="preserve">
<style type="text/css">
	.st0{fill:#6A6A6A;}
	.st1{fill:#494949;}
	.st2{fill:#E54F4F;stroke:#221714;stroke-width:5;stroke-miterlimit:10;}
</style>
<path class="st0" d="M-350.1,90.9c-0.6,0.1-1.2,0.2-1.4-0.6c0.5,0,1,0,1.5,0c0.3,0.2,0.3,0.3,0.2,0.4
	C-349.9,90.8-350,90.9-350.1,90.9z"/>
<path class="st1" d="M-350.1,90.9c0-0.2,0-0.4,0.1-0.6c0.5,0,1,0,1.5,0C-348.9,90.9-349.5,91-350.1,90.9z"/>
<path class="st1" d="M-333.5,90.9c-0.6,0.1-1.2,0.1-1.5-0.6c0.5,0,1,0,1.5,0c0.2,0.1,0.3,0.3,0.2,0.4
	C-333.4,90.8-333.5,90.9-333.5,90.9z"/>
<path class="st0" d="M-333.5,90.9c0-0.2,0-0.4,0-0.6c0.5,0,1,0,1.5,0C-332.3,91.1-332.9,91-333.5,90.9z"/>
<path class="st2" d="M68.2,31.6c-2.6-9.7-8.8-15.7-18.5-18c-0.9-0.2-1.8-0.3-2.7-0.5c-0.1,0-0.2,0-0.4,0c-0.1,0.1-0.2,0.1-0.2,0.1
	c-0.1,0-0.2,0-0.2-0.1c-0.7,0-1.5,0-2.2,0c-0.1,0.1-0.2,0.1-0.2,0.1c-0.1,0-0.2,0-0.2-0.1c-0.2,0-0.3,0-0.5,0c0,0.1-0.1,0.1-0.2,0.1
	c-3.5,0.4-6.7,1.4-9.8,3.2c-8.7,5-13.4,15.6-11.2,25.5c1.1,4.9,3.2,9.3,5.7,13.5c4.6,7.7,10.4,14.6,16.8,20.9
	c0.6,0.6,1.1,0.6,1.8-0.1c4.4-4.4,8.5-9.1,12.2-14.1c3.4-4.7,6.5-9.6,8.6-15C68.7,42.2,69.6,37,68.2,31.6z M45,48
	c-6,0-11-4.9-11-10.8c0-6.2,4.9-11.1,11-11c6,0,10.9,4.9,10.9,11C55.9,43,51,48,45,48z"/>
</svg>
