<?xml version="1.0" encoding="utf-8"?>
<!-- Generator: Adobe Illustrator 26.5.0, SVG Export Plug-In . SVG Version: 6.00 Build 0)  -->
<svg version="1.1" id="圖層_1" xmlns="http://www.w3.org/2000/svg" xmlns:xlink="http://www.w3.org/1999/xlink" x="0px" y="0px"
	 viewBox="0 0 300 300" style="enable-background:new 0 0 300 300;" xml:space="preserve">
<style type="text/css">
	.st0{fill:#F8F9FB;}
	.st1{fill:#FFFFFF;}
	.st2{fill:#3DB1D2;}
</style>
<g>
	<g>
		<path class="st0" d="M268.8,37.6c-0.1,0-0.2,0-0.3,0c19.8,0,31.1,11.2,31.2,30.8c0.1,54.4,0.1,108.8,0,163.2
			c0,19.1-11.4,30.6-30.3,30.6c-39.8,0.1-79.6,0-119.5,0c0.1,0,0.1,0,0.2,0c39.9,0,79.7,0.1,119.6,0c18.9,0,30.3-11.6,30.3-30.6
			c0.1-54.4,0.1-108.8,0-163.2C299.9,48.9,288.6,37.7,268.8,37.6z"/>
		<path class="st0" d="M27.5,221.7c0.3-47.8,0.3-95.6,0-143.4c-0.1-9.8,3.2-13.5,13.2-13.4c-0.1,0-0.2,0-0.3,0
			c-10.1-0.1-13.3,3.6-13.2,13.4c0.3,47.8,0.3,95.6,0,143.4c-0.1,9.8,3.1,13.5,13.2,13.5c0.1,0,0.2,0,0.3,0
			C30.6,235.2,27.5,231.5,27.5,221.7z"/>
		<path class="st0" d="M149.1,206.2c13.8,0,27.6-0.1,41.4-0.1c-13.9,0-27.8,0.1-41.6,0.1C149,206.2,149,206.2,149.1,206.2z"/>
		<path class="st0" d="M258.7,235C258.7,235,258.7,235,258.7,235c-36.3,0-72.6,0-108.9,0C186.1,235,222.4,235,258.7,235z"/>
		<path class="st0" d="M67.1,206.3c13.6-0.2,27.3-0.2,40.9-0.2C94.3,206.1,80.7,206.1,67.1,206.3C67,206.3,67,206.3,67.1,206.3z"/>
		<path class="st0" d="M106.6,172.5c2.2,2.5,4,3.6,5.9,3.4c-1.8,0-3.5-1.1-5.6-3.4c-4.8-5.5-10.2-10.4-15.4-15.5
			c-2.3-2.3-5.1-3.6-7.7-3.4c2.5-0.1,5.2,1.2,7.4,3.4C96.4,162.1,101.9,167,106.6,172.5z"/>
		<path class="st0" d="M243.9,168.2c0.4-6.5-2-11-6.5-15.4c-13.2-12.7-26-25.9-39-38.8c-5-4.9-7.9-7.3-11-7.2
			c2.9,0,5.9,2.4,10.7,7.2c13,12.9,25.8,26.1,39,38.8c4.6,4.4,6.9,8.9,6.5,15.4c-0.5,8.6-0.7,17.3,0,26c0.8,9.1-1.8,12.5-11.6,12.3
			c0.1,0,0.1,0,0.2,0c10,0.3,12.5-3.1,11.8-12.3C243.2,185.5,243.4,176.8,243.9,168.2z"/>
		<path class="st1" d="M0.4,230.5C0.3,176.7,0.3,123,0.4,69.3c0-20.5,11.1-31.6,31.4-31.7c-0.1,0-0.2,0-0.3,0
			C11.1,37.7,0.1,48.9,0,69.3C0,123,0,176.7,0,230.5c0,21,11,31.9,32.2,31.9c39.2,0,78.3,0,117.5,0c0,0,0.1,0,0.1,0
			c-39.1,0-78.2,0-117.3,0C11.4,262.3,0.4,251.5,0.4,230.5z"/>
		<path class="st1" d="M299.6,231.7c0.1-54.4,0.1-108.8,0-163.2c0-19.6-11.4-30.8-31.2-30.8c-78.9,0-157.8,0-236.7,0
			c-20.3,0-31.4,11.2-31.4,31.7c-0.1,53.7-0.1,107.4,0,161.1c0,21,11,31.9,32.2,31.9c39.1,0,78.2,0,117.3,0c39.8,0,79.6,0.1,119.5,0
			C288.2,262.3,299.6,250.8,299.6,231.7z M258.7,235C258.7,235,258.7,235,258.7,235c-36.3,0-72.6,0-108.9,0
			c-36.4,0-72.8,0-109.1,0.2h0c-0.1,0-0.2,0-0.3,0c-10.1,0.1-13.3-3.6-13.2-13.5c0.3-47.8,0.3-95.6,0-143.4
			c-0.1-9.8,3.2-13.5,13.2-13.4c0.1,0,0.2,0,0.3,0c0,0,0,0,0,0c2.2,0,4.4,0,6.6,0c20.4,0.2,40.8,0.2,61.3,0.2
			c14.1,0,28.2-0.1,42.4-0.1c36,0,72.1,0,108.1,0c12.4,0,13.5,1.1,13.5,13.8c0,47.5,0,95,0,142.4c0,12.6-1.1,13.8-13.6,13.8
			C258.9,235,258.8,235,258.7,235z"/>
		<path class="st0" d="M272.6,221.2c0-47.5,0-94.9,0-142.4c0-12.7-1.1-13.8-13.5-13.8c-36,0-72.1,0-108.1,0c-14.1,0-28.2,0-42.4,0.1
			c14,0,28-0.1,42-0.1c36,0,72.1,0,108.1,0c12.4,0,13.5,1.1,13.5,13.8c0,47.5,0,95,0,142.4c0,12.6-1.1,13.8-13.6,13.8
			c0.1,0,0.2,0,0.3,0C271.5,235,272.6,233.8,272.6,221.2z"/>
		<path class="st0" d="M40.8,64.8C40.8,64.8,40.7,64.8,40.8,64.8c2.2,0,4.4,0,6.6,0C45.1,64.8,43,64.8,40.8,64.8z"/>
		<path class="st0" d="M40.7,235.2c36.4-0.1,72.8-0.2,109.1-0.2C113.5,235,77.1,235,40.7,235.2L40.7,235.2z"/>
		<path class="st2" d="M148.8,206.2c0,0,0.1,0,0.1,0c-13.6,0-27.3-0.1-40.9-0.1C121.6,206.1,135.2,206.2,148.8,206.2z"/>
		<path class="st2" d="M56.1,196.3c-3.2-20.7,12-29.4,23.4-40.6c1.3-1.3,2.9-2,4.4-2.1c-1.7,0.1-3.3,0.7-4.7,2.1
			c-11.5,11.2-26.7,19.9-23.4,40.6c1.3,8.3,3.3,10.2,11,10.1c0.1,0,0.2,0,0.3,0C59.3,206.4,57.3,204.5,56.1,196.3z"/>
		<path class="st2" d="M231.9,206.4c0.1,0,0.1,0,0.1,0c-13.8-0.4-27.6-0.4-41.5-0.4C204.3,206,218.1,206.1,231.9,206.4z"/>
		<path class="st2" d="M176.5,114.3c4.9-4.9,7.9-7.4,10.9-7.5c-3.1-0.1-6.1,2.4-11.2,7.5c-19.4,19.3-38.8,38.5-57.9,58.1
			c-2.1,2.2-3.9,3.4-5.7,3.5c1.9,0,3.8-1.2,6-3.5C137.7,152.8,157.1,133.6,176.5,114.3z"/>
		<path class="st1" d="M243.6,194.1c-0.7-8.6-0.5-17.3,0-26c0.4-6.5-2-11-6.5-15.4c-13.2-12.7-26-25.9-39-38.8
			c-4.8-4.8-7.7-7.1-10.7-7.2c-2.9,0.1-5.9,2.6-10.9,7.5c-19.4,19.3-38.8,38.5-57.9,58.1c-2.3,2.3-4.2,3.6-6,3.5
			c-1.9,0.1-3.7-0.9-5.9-3.4c-4.8-5.5-10.2-10.4-15.4-15.5c-2.2-2.2-4.8-3.5-7.4-3.4c-1.5,0.1-3.1,0.8-4.4,2.1
			c-11.5,11.2-26.7,19.9-23.4,40.6c1.3,8.2,3.3,10.1,10.9,10.1c13.7-0.2,27.3-0.2,41-0.2c13.6,0,27.3,0.1,40.9,0.1
			c13.9,0,27.8-0.1,41.6-0.1c13.8,0,27.7,0,41.5,0.4C241.9,206.7,244.4,203.3,243.6,194.1z"/>
		<path class="st1" d="M74.5,135.5c12.5,0.4,23.4-9.8,23.7-22.5c0.3-12.6-10.1-23.3-22.7-23.4c-12.2-0.1-22.5,9.7-23.1,21.9
			C51.7,124.1,61.9,135,74.5,135.5z"/>
	</g>
</g>
</svg>
