<?xml version="1.0" encoding="utf-8"?>
<!-- Generator: Adobe Illustrator 26.5.0, SVG Export Plug-In . SVG Version: 6.00 Build 0)  -->
<svg version="1.1" id="圖層_1" xmlns="http://www.w3.org/2000/svg" xmlns:xlink="http://www.w3.org/1999/xlink" x="0px" y="0px"
	 viewBox="0 0 900 900" style="enable-background:new 0 0 900 900;" xml:space="preserve">
<style type="text/css">
	.st0{fill:#F6D3DE;}
</style>
<g>
	<g>
		<rect x="0.2" y="0.1" class="st0" width="899.8" height="24.9"/>
		<rect x="0.2" y="48.7" class="st0" width="899.8" height="24.9"/>
		<rect x="0.2" y="97.3" class="st0" width="899.8" height="24.9"/>
		<rect x="0.2" y="145.9" class="st0" width="899.8" height="24.9"/>
		<rect x="0.2" y="194.5" class="st0" width="899.8" height="24.9"/>
		<rect x="0.2" y="243.1" class="st0" width="899.8" height="24.9"/>
		<rect x="0.2" y="291.6" class="st0" width="899.8" height="24.9"/>
		<rect x="0.2" y="340.5" class="st0" width="899.8" height="24.9"/>
		<rect x="0.2" y="389.1" class="st0" width="899.8" height="24.9"/>
		<rect x="0.2" y="437.7" class="st0" width="899.8" height="24.9"/>
		<rect x="0.2" y="486.3" class="st0" width="899.8" height="24.9"/>
		<rect x="0.2" y="534.9" class="st0" width="899.8" height="24.9"/>
		<rect x="0.2" y="583.5" class="st0" width="899.8" height="24.9"/>
		<rect x="0.2" y="632.1" class="st0" width="899.8" height="24.9"/>
		<rect x="0.2" y="680.6" class="st0" width="899.8" height="24.9"/>
		<rect x="0.2" y="729.2" class="st0" width="899.8" height="24.9"/>
		<rect x="0.2" y="777.8" class="st0" width="899.8" height="24.9"/>
		<rect x="0.2" y="826.4" class="st0" width="899.8" height="24.9"/>
		<rect x="0.2" y="875" class="st0" width="899.8" height="24.9"/>
	</g>
	<g>
		<rect x="875" y="0.2" class="st0" width="24.9" height="899.8"/>
		<rect x="826.4" y="0.2" class="st0" width="24.9" height="899.8"/>
		<rect x="777.8" y="0.2" class="st0" width="24.9" height="899.8"/>
		<rect x="729.2" y="0" class="st0" width="24.9" height="899.8"/>
		<rect x="680.5" y="0" class="st0" width="24.9" height="899.8"/>
		<rect x="631.9" y="0" class="st0" width="24.9" height="899.8"/>
		<rect x="583.3" y="0" class="st0" width="24.9" height="899.8"/>
		<rect x="534.7" y="0.1" class="st0" width="24.9" height="899.8"/>
		<rect x="486.1" y="0.1" class="st0" width="24.9" height="899.8"/>
		<rect x="437.5" y="0.1" class="st0" width="24.9" height="899.8"/>
		<rect x="388.9" y="0.1" class="st0" width="24.9" height="899.8"/>
		<rect x="340.3" y="0.2" class="st0" width="24.9" height="899.8"/>
		<rect x="291.6" y="0.2" class="st0" width="24.9" height="899.8"/>
		<rect x="243" y="0.2" class="st0" width="24.9" height="899.8"/>
		<rect x="194.4" y="0.2" class="st0" width="24.9" height="899.8"/>
		<rect x="145.8" y="0.3" class="st0" width="24.9" height="899.8"/>
		<rect x="97.2" y="0" class="st0" width="24.9" height="899.8"/>
		<rect x="48.6" y="0" class="st0" width="24.9" height="899.8"/>
		<rect x="0" y="0" class="st0" width="24.9" height="899.8"/>
	</g>
</g>
</svg>
