<?xml version="1.0" encoding="utf-8"?>
<!-- Generator: Adobe Illustrator 26.5.0, SVG Export Plug-In . SVG Version: 6.00 Build 0)  -->
<svg version="1.1" id="q" xmlns="http://www.w3.org/2000/svg" xmlns:xlink="http://www.w3.org/1999/xlink" x="0px" y="0px"
	 viewBox="0 0 445 300" style="enable-background:new 0 0 445 300;" xml:space="preserve">
<style type="text/css">
	.st0{fill:#593618;}
</style>
<g>
	<g>
		<path class="st0" d="M220,175.7c-2.7,0-4.9-0.7-6.8-2.1c-1.8-1.4-2.8-3.7-2.8-6.9c0-1.6,0.3-3.7,1-6.1c0.7-2.4,1.6-5,2.9-7.7
			c1.2-2.7,2.8-5.4,4.6-8.2c1.8-2.7,4-5.3,6.5-7.6c1.8-1.8,3.4-3.5,4.7-5.1c1.3-1.5,2.3-3,3-4.4c0.7-1.4,1.2-2.8,1.5-4.2
			c0.3-1.4,0.5-3,0.5-4.7c0-4.2-1.2-7.1-3.5-8.6c-2.4-1.5-5.2-2.2-8.5-2.1c-3.3,0.1-6.2,0.8-8.8,2c-2.6,1.2-3.9,3.2-3.9,5.9
			c0,2.7-1.2,4.7-3.5,6c-2.4,1.3-4.8,2-7.2,2c-3.1-0.1-5.3-0.8-6.6-2.2c-1.3-1.3-2-3.3-2-5.9c0-3.6,0.8-6.9,2.5-9.9
			c1.7-3,4-5.6,6.9-7.8c2.9-2.2,6.4-3.9,10.3-5.2c4-1.3,8.2-2,12.7-2.1c4.4-0.1,8.5,0.4,12.3,1.6c3.8,1.2,7.1,3,9.8,5.5
			c2.7,2.5,4.8,5.5,6.3,9.1c1.5,3.6,2.2,7.8,2.1,12.5c-0.1,4.1-0.9,8-2.4,11.6c-1.5,3.6-4.4,7.6-8.9,11.8c-3,2.9-5.3,5.4-7.1,7.5
			c-1.7,2.1-3.1,4-4,5.7c-0.9,1.7-1.5,3.4-1.8,5c-0.3,1.6-0.4,3.4-0.4,5.4c0,3-0.9,5.2-2.8,6.7C224.9,174.9,222.6,175.7,220,175.7z
			 M220,209c3,0,5.5-1,7.5-3c2-2,3-4.5,3-7.5c0-3-1-5.5-3-7.5c-2-2-4.5-3-7.5-3c-3,0-5.5,1-7.5,3c-2,2-3,4.5-3,7.5c0,3,1,5.5,3,7.5
			C214.5,208,217,209,220,209z"/>
	</g>
</g>
</svg>
