<?xml version="1.0" encoding="utf-8"?>
<!-- Generator: Adobe Illustrator 26.5.0, SVG Export Plug-In . SVG Version: 6.00 Build 0)  -->
<svg version="1.1" id="q" xmlns="http://www.w3.org/2000/svg" xmlns:xlink="http://www.w3.org/1999/xlink" x="0px" y="0px"
	 viewBox="0 0 300 300" style="enable-background:new 0 0 300 300;" xml:space="preserve">
<style type="text/css">
	.st0{fill:#593618;}
</style>
<g>
	<g>
		<path class="st0" d="M143.5,215.3c-6.8,0-12.5-1.8-17.3-5.3c-4.7-3.5-7.1-9.3-7.1-17.4c0-4.2,0.8-9.3,2.5-15.5
			c1.7-6.1,4.1-12.7,7.3-19.6c3.1-6.9,7.1-13.9,11.8-20.8c4.7-6.9,10.2-13.4,16.5-19.4c4.7-4.7,8.7-9,12-12.9
			c3.3-3.9,5.8-7.6,7.6-11.2c1.8-3.5,3.1-7.1,3.9-10.6c0.8-3.5,1.2-7.5,1.2-12c0-10.7-3-18-9-21.8c-6-3.8-13.2-5.6-21.6-5.3
			c-8.4,0.3-15.8,2-22.4,5.1c-6.5,3.1-9.8,8.1-9.8,14.9c0,6.8-3,11.9-9,15.3c-6,3.4-12.2,5.1-18.4,5.1c-7.8-0.3-13.5-2.1-16.9-5.5
			c-3.4-3.4-5.1-8.4-5.1-14.9c0-9.1,2.2-17.6,6.5-25.3c4.3-7.7,10.2-14.3,17.6-19.8c7.4-5.5,16.2-9.9,26.3-13.1
			c10.1-3.3,20.8-5,32.3-5.3c11.2-0.3,21.7,1.1,31.4,4.1c9.7,3,18,7.6,24.9,13.9c6.9,6.3,12.3,14,16.1,23.1
			c3.8,9.2,5.5,19.7,5.3,31.8c-0.3,10.5-2.3,20.3-6.1,29.6c-3.8,9.3-11.3,19.3-22.5,30c-7.6,7.3-13.6,13.7-18,19
			c-4.4,5.4-7.8,10.2-10.2,14.5c-2.4,4.3-3.9,8.6-4.5,12.7c-0.7,4.2-1,8.8-1,13.7c0,7.6-2.4,13.3-7.1,17.1
			C156.1,213.4,150.3,215.3,143.5,215.3z M143.5,300c7.6,0,13.9-2.5,19-7.6c5.1-5.1,7.6-11.4,7.6-19c0-7.6-2.6-13.9-7.6-19
			c-5.1-5.1-11.4-7.6-19-7.6c-7.6,0-13.9,2.5-19,7.6c-5.1,5.1-7.6,11.4-7.6,19c0,7.6,2.5,13.9,7.6,19
			C129.6,297.5,135.9,300,143.5,300z"/>
	</g>
</g>
</svg>
