<?xml version="1.0" encoding="utf-8"?>
<!-- Generator: Adobe Illustrator 26.5.0, SVG Export Plug-In . SVG Version: 6.00 Build 0)  -->
<svg version="1.1" id="圖層_1" xmlns="http://www.w3.org/2000/svg" xmlns:xlink="http://www.w3.org/1999/xlink" x="0px" y="0px"
	 viewBox="0 0 900 550" style="enable-background:new 0 0 900 550;" xml:space="preserve">
<style type="text/css">
	.st0{opacity:0.3;fill:#F8C9C9;enable-background:new    ;}
	.st1{opacity:0.44;fill:#F8C9C9;enable-background:new    ;}
	.st2{opacity:0.55;fill:#F8C9C9;enable-background:new    ;}
</style>
<path class="st0" d="M304.4,257.6c-51.1-31.8-115.4-52.1-143.6,2.9c-35.8,69.6,38.3,140.9-8.9,215.6
	c-47.1,74.5-149,62.8-217.4,107.2c-109.4,71-67.4,214.3-98.8,321.6c-17.9,61.3-56.2,113.5-98.1,160.6
	c-29.8,33.5-103.9,83.5-115,126.9c-6.1,23.6,1.9,50.2,20,66.6c27.9,25.2,70.9,22.8,107.4,13.7c119.7-29.8,223.6-117.2,273.4-230
	c24.8-56,38.6-120.3,83.9-161.6c61.1-55.7,157.1-49.4,228.9-90.5c88.2-50.5,122.3-163.6,115.7-265.1c-5.2-80.3-32.4-161.3-87.4-220
	C351.7,291.9,329.7,273.3,304.4,257.6z"/>
<path class="st1" d="M-115.1,225.6c-5.2,62.4,59.8,136.8,127.3,132.8c38.5-2.3,72.2-22.9,92.2-55.3c19.6-31.8,29.8-73.3,63.5-94
	c24.6-15.2,55.8-13.9,84.3-8.7c28.4,5.2,56.8,13.7,85.7,11.4c28.8-2.3,59.1-19.1,66-47.1c10.9-44.2-39.6-83.7-35.7-129.1
	c3.7-43.6,60.6-77.3,45.9-122.8c-14.5-44.9-75-69.5-118-67.4c-87.6,4.2-132,73.6-168.5,143.2C98.1,44.6,66.1,105.3,8.8,132.5
	c-24.4,11.6-51.7,16.1-76,27.9C-98.6,175.7-112.9,199.6-115.1,225.6z"/>
<path class="st2" d="M1146-288.1c-25.7-89.4-155.2-158.5-246.8-117.4c-52.2,23.4-88.2,69.8-98.9,125.4
	c-10.5,54.5-2.7,117.5-38.6,164.1c-26.2,34-70.2,48.7-112.4,56.5s-86.2,10.9-125,29.3s-72.1,57.6-66.8,100.3
	c8.2,67.2,99.2,95.4,117.7,160.5c17.8,62.5-43.4,139.3,1,194.8c43.8,54.7,140.8,57,199.4,31.5C895,404.8,920.1,285,934,169.2
	c11.3-93.6,23.8-194.8,89-262.8c27.8-29,63.3-49.6,90.9-78.8C1149.4-210.2,1156.7-250.9,1146-288.1z"/>
</svg>
