<?xml version="1.0" encoding="utf-8"?>
<!-- Generator: Adobe Illustrator 26.5.0, SVG Export Plug-In . SVG Version: 6.00 Build 0)  -->
<svg version="1.1" id="圖層_1" xmlns="http://www.w3.org/2000/svg" xmlns:xlink="http://www.w3.org/1999/xlink" x="0px" y="0px"
	 viewBox="0 0 600 108" style="enable-background:new 0 0 600 108;" xml:space="preserve">
<style type="text/css">
	.st0{fill:#FFFFFF;}
	.st1{fill:#EB6266;}
</style>
<g>
	<g>
		
			<image style="overflow:visible;opacity:0.3;" width="2626" height="576" xlink:href="31DE9D18.png"  transform="matrix(0.24 0 0 0.24 -12.36 -12.3575)">
		</image>
		<g>
			<g>
				<g>
					<path class="st0" d="M362,21.7h-14.9c-2.6-0.7-5.6-1.1-8.6-1.1c-10.9,0-20.3,4.6-26.2,12.1c-0.8-1.8-1.8-3.4-3-4.9
						c-2.8-3.3-7.9-7.2-16.9-7.2c-3.8,0-7.5,0.7-11.1,2.2c-1.4-0.7-3-1.1-4.7-1.1H265c-0.7,0-1.3,0.1-2,0.2c0.1-0.4,0.3-0.8,0.4-1.3
						c0.9-5.2-0.3-10-3.4-13.8c-3.2-3.8-8-5.9-13.6-5.9c-5.9,0-11.1,2.4-14.7,6.2c-2-2.4-5-3.7-8.1-3.7h-14.1
						c-5.2,0-9.6,3.7-10.5,8.8l-1.5,8.4c-0.5,0-1,0-1.4,0c-9.9,0-19.2,5.5-25.5,14.2c-0.9-2.1-2-4.1-3.5-5.9
						c-3.2-3.8-9.3-8.3-20.3-8.3c-8.2,0-16.6,2.4-25.5,7.2c-1.3,0.7-2.3,1.6-3.2,2.7c-0.3-0.4-0.5-0.8-0.9-1.2
						c-3.4-4-9.7-8.8-20.6-8.8c-8.3,0-16.1,3.2-22.4,8.6c-0.7-5.5-2.9-9.4-5-11.9C63.9,11,55.3,7.8,43.7,7.8H22
						c-5.2,0-9.6,3.7-10.5,8.8l-10.4,59c-0.5,3.1,0.3,6.3,2.3,8.7c2,2.4,5,3.8,8.1,3.8h14.2c3.6,0,6.9-1.8,8.8-4.7
						c1.9,2.9,5.2,4.7,8.8,4.7h15.8c3.5,0,6.8-1.7,8.8-4.6c0.4-0.5,0.6-1.1,0.9-1.7c5.3,4.8,12.6,7.4,20.9,7.4
						c7.5,0,15.9-2.5,22.7-6.8c0.4-0.3,0.9-0.6,1.2-1c0.1,0.1,0.1,0.2,0.2,0.3c4,4.8,10,7.4,16.9,7.4c3.5,0,6.9-0.6,10.3-2
						c1.3,0.5,2.7,0.9,4.2,0.9h11.5c5.1,0,9.5-3.7,10.4-8.7c0.3,0.5,0.7,0.9,1,1.3c4.6,5.5,11.4,8.5,19.3,8.5c3.1,0,6.3-0.6,9.4-1.9
						c1.2,0.5,2.5,0.7,3.9,0.7h11.5c3,0,5.7-1.3,7.6-3.3c2,2.1,4.7,3.3,7.6,3.3h14.1c3,0,5.7-1.3,7.7-3.3c2,2.1,4.7,3.3,7.6,3.3
						h14.1c2.4,0,4.7-0.8,6.5-2.2c1.8,1.4,4.1,2.2,6.5,2.2h14.1c0,0,0.1,0,0.1,0c0.2,3.9,1.6,7.5,4.1,10.5
						c4.7,5.6,12.6,8.5,23.5,8.5c20.6,0,36.3-10.1,38.9-25c1.4-7.9-1.3-13.2-3.8-16.2c-0.9-1-1.9-2-2.9-2.8
						c2.4-2.9,4.2-6.4,5.3-10.3c3.7-1.2,6.6-4.3,7.3-8.3l1.8-10.2c0.5-3.1-0.3-6.3-2.3-8.7C368.2,23.1,365.2,21.7,362,21.7z"/>
					<path class="st1" d="M326,108c-11.2,0-19.3-3-24.2-8.8c-2.4-2.8-3.8-6.3-4.2-10.1l-13.3,0c-2.3,0-4.6-0.7-6.5-2
						c-1.9,1.3-4.2,2-6.5,2h-14.1c-2.8,0-5.5-1-7.6-2.9c-2.1,1.9-4.8,2.9-7.7,2.9h-14.1c-2.8,0-5.5-1-7.6-2.9
						c-2.1,1.9-4.8,2.9-7.6,2.9H201c-1.3,0-2.7-0.2-3.9-0.7c-3.2,1.2-6.4,1.8-9.4,1.8c-8.1,0-15.1-3.1-19.9-8.6
						c-1.7,4.5-6,7.5-10.9,7.5h-11.5c-1.5,0-2.9-0.3-4.2-0.8c-3.4,1.3-6.8,1.9-10.3,1.9c-7,0-13.1-2.6-17.3-7.3
						c-0.2,0.1-0.4,0.3-0.6,0.4c-6.9,4.4-15.6,6.9-23.2,6.9c-8,0-15.1-2.4-20.5-6.8c-0.1,0.2-0.3,0.4-0.4,0.7
						c-2.2,3.2-5.8,5.1-9.6,5.1H43.5c-3.4,0-6.6-1.5-8.8-4.1c-2.2,2.6-5.4,4.1-8.8,4.1H11.6c-3.4,0-6.7-1.5-8.9-4.2
						c-2.2-2.6-3.1-6.1-2.5-9.5l10.4-59c1-5.6,5.8-9.6,11.5-9.6h21.6c11.9,0,20.8,3.3,26.3,9.8c1.8,2.1,4,5.6,5,10.7
						c6.4-5,14.1-7.7,21.7-7.7c11.4,0,17.9,5,21.4,9.1c0.1,0.1,0.1,0.1,0.2,0.2c0.8-0.8,1.7-1.5,2.6-2c9.1-4.9,17.6-7.3,26-7.3
						c11.4,0,17.8,4.7,21.1,8.6c1.1,1.3,2.1,2.9,2.9,4.6c6.7-8.4,15.9-13.2,25.3-13.2c0.2,0,0.4,0,0.6,0l1.3-7.5
						c1-5.6,5.8-9.6,11.5-9.6h14.1c3,0,5.9,1.2,8.1,3.3c3.9-3.8,9.1-5.8,14.7-5.8c5.9,0,11,2.2,14.4,6.3c3.3,3.9,4.6,9.1,3.7,14.5
						c0.2,0,0.4,0,0.6,0h11.5c1.7,0,3.3,0.3,4.8,1c3.6-1.4,7.4-2.1,11.1-2.1c9.4,0,14.8,4.1,17.7,7.6c0.9,1.1,1.8,2.3,2.5,3.7
						c6.3-7.2,15.7-11.2,26-11.2c3.1,0,6,0.4,8.7,1.1H362c3.4,0,6.7,1.5,8.9,4.2c2.2,2.6,3.1,6.1,2.5,9.5l-1.8,10.2
						c-0.7,4.1-3.6,7.5-7.5,8.9c-1,3.4-2.6,6.6-4.7,9.3c0.8,0.7,1.6,1.5,2.3,2.3c2.7,3.2,5.5,8.7,4,17C363.1,97.6,347.1,108,326,108
						z M299.2,87.1l0.2,0.9c0.2,3.8,1.6,7.2,3.9,9.9c4.5,5.4,12.1,8.1,22.7,8.1c20.1,0,35.4-9.7,37.9-24.2
						c1.3-7.5-1.2-12.5-3.6-15.3c-0.8-1-1.8-1.9-2.8-2.7l-0.8-0.6l0.7-0.8c2.4-2.9,4.1-6.2,5.1-9.9l0.1-0.5l0.5-0.2
						c3.5-1.1,6-4,6.6-7.5l1.8-10.2c0.5-2.8-0.3-5.7-2.1-7.9c-1.8-2.2-4.5-3.4-7.4-3.4l-15.2,0c-2.5-0.7-5.4-1.1-8.3-1.1
						c-10.3,0-19.5,4.3-25.5,11.7l-1,1.3l-0.7-1.5c-0.8-1.7-1.7-3.3-2.8-4.6c-2.6-3.1-7.6-6.8-16.2-6.8c-3.7,0-7.2,0.7-10.8,2.1
						l-0.4,0.2l-0.4-0.2c-1.3-0.7-2.8-1-4.3-1H265c-0.6,0-1.2,0.1-1.8,0.2l-1.5,0.3l0.4-1.5c0.1-0.2,0.1-0.4,0.2-0.6
						c0.1-0.2,0.1-0.4,0.2-0.6c0.9-4.9-0.3-9.5-3.2-12.9c-3-3.6-7.6-5.6-12.9-5.6c-5.4,0-10.4,2.1-14,5.9l-0.8,0.8l-0.7-0.8
						c-1.8-2.1-4.5-3.4-7.3-3.4h-14.1c-4.7,0-8.7,3.3-9.5,8l-1.6,9.2l-0.9,0c-0.5,0-0.9,0-1.4,0c-9.3,0-18.3,5-24.7,13.7l-1.1,1.4
						l-0.7-1.6c-0.9-2.1-2-4-3.3-5.6c-3-3.6-8.9-7.9-19.6-7.9c-8,0-16.2,2.3-25,7.1c-1.1,0.6-2.1,1.4-2.9,2.4l-0.8,1l-1.1-1.5
						c-0.2-0.2-0.3-0.5-0.5-0.7c-3.2-3.8-9.3-8.4-19.9-8.4c-7.7,0-15.4,3-21.8,8.3l-1.4,1.2l-0.2-1.8c-0.7-5.5-3-9.2-4.8-11.4
						C63.3,11.9,55,8.8,43.7,8.8H22c-4.7,0-8.7,3.3-9.5,8l-10.4,59c-0.5,2.8,0.3,5.7,2.1,7.9c1.8,2.2,4.5,3.4,7.4,3.4h14.2
						c3.2,0,6.2-1.6,8-4.3l0.8-1.2l0.8,1.2c1.8,2.7,4.8,4.3,8,4.3h15.8c3.2,0,6.2-1.6,7.9-4.2c0.3-0.4,0.5-1,0.8-1.5l0.6-1.3l1,0.9
						c5.2,4.7,12.2,7.2,20.2,7.2c7.3,0,15.6-2.5,22.1-6.6c0.4-0.3,0.8-0.6,1.1-0.9l0.8-0.7l0.8,1c3.9,4.7,9.6,7.2,16.2,7.2
						c3.4,0,6.6-0.6,9.9-1.9l0.4-0.1l0.4,0.2c1.2,0.5,2.5,0.8,3.8,0.8h11.5c4.6,0,8.6-3.3,9.5-7.9l0.4-2.3l1.5,2.1
						c0.3,0.4,0.5,0.8,0.8,1.1c4.4,5.2,11,8.1,18.5,8.1c2.9,0,6-0.6,9.1-1.8l0.4-0.1l0.4,0.1c1.1,0.4,2.3,0.7,3.6,0.7h11.5
						c2.6,0,5.1-1.1,6.9-3l0.7-0.7l0.7,0.7c1.9,1.9,4.3,3,6.9,3h14.1c2.6,0,5.1-1.1,6.9-3l0.7-0.7l0.7,0.7c1.9,1.9,4.3,3,6.9,3h14.1
						c2.2,0,4.2-0.7,5.9-2l0.6-0.5l0.6,0.5c1.7,1.3,3.8,2,5.9,2L299.2,87.1z"/>
				</g>
				<g>
					<path class="st0" d="M596.5,7.3c-2-2.4-5-3.8-8.1-3.8h-14.1c-5.2,0-9.6,3.7-10.5,8.8l-1.5,8.4c-0.5,0-1,0-1.4,0
						c-5.9,0-11.6,2-16.6,5.4c-1-1.4-2.4-2.6-4.1-3.4c-2.9-1.4-5.9-2-9.8-2c-3.2,0-6.5,0.8-9.7,2.2c-1.4-0.7-3-1.1-4.6-1.1h-11.5
						c-5.2,0-9.6,3.7-10.5,8.8l-0.2,1c-0.6-0.9-1.2-1.8-1.8-2.6c-3.2-3.8-9.3-8.3-20.3-8.3c-6.4,0-12.8,1.5-19.6,4.4
						c0-2.3-0.8-4.7-2.3-6.6c-6-7.4-15-11.6-24.8-11.6c-21.5,0-40,16.7-44,39.7c-2.8,16,2.1,26,6.7,31.5
						c6.1,7.3,15.4,11.3,26.1,11.3c8.9,0,17.2-2.9,24.4-8.5c0.3,0.3,0.5,0.7,0.8,1c4,4.8,10,7.4,16.9,7.4c3.5,0,6.9-0.6,10.3-2
						c1.3,0.5,2.7,0.9,4.2,0.9h11.5c2.9,0,5.5-1.2,7.4-3.1c2,1.9,4.6,3.1,7.4,3.1h14.1c5.2,0,9.6-3.7,10.5-8.8l4.2-23.7
						c0.6-0.8,1.1-1.2,1.4-1.4c0.2,0,0.4,0,0.7,0.1c-2.1,13.6,1.9,21.8,5.6,26.3c4.6,5.5,11.4,8.5,19.3,8.5c3.1,0,6.3-0.6,9.4-1.9
						c1.2,0.5,2.5,0.7,3.9,0.7h11.5c5.2,0,9.6-3.7,10.5-8.8L598.8,16C599.4,12.9,598.5,9.7,596.5,7.3z M428.7,50.3
						c-2.6,0-5.2,1-7.2,2.8c-1.3,1.2-3.2,2.6-5,2.6c0,0,0,0-0.1,0c-0.2-0.8-0.5-2.6,0.1-6.1c1.1-6.5,4.6-9.5,6.6-9.5
						c0.3,0,0.6,0,1.7,1.2c2,2.1,4.7,3.3,7.6,3.4c0,0,0.1,0,0.1,0c2.8,0,5.6-1.1,7.5-3.1l1.1-1.1c0,0.1,0,0.1,0.1,0.2l2.3,6.4
						c-2.5,2-4.6,4.6-6.2,7.6c-1.7-2.4-4.4-4.1-7.3-4.4C429.6,50.4,429.2,50.3,428.7,50.3z"/>
					<path class="st1" d="M552.4,90.2c-8.2,0-15.3-3.1-20.1-8.8c-3.5-4.2-7.3-11.6-6.2-23.7l-3.8,21.8c-1,5.6-5.8,9.6-11.5,9.6
						h-14.1c-2.7,0-5.3-1-7.4-2.7c-2.1,1.8-4.7,2.7-7.4,2.7h-11.5c-1.5,0-2.9-0.3-4.2-0.8c-3.4,1.3-6.8,1.9-10.3,1.9
						c-7.2,0-13.5-2.8-17.7-7.8c-0.1-0.1-0.2-0.2-0.2-0.3c-7.2,5.3-15.5,8.1-24.2,8.1c-11,0-20.6-4.1-26.8-11.6
						c-4.8-5.7-9.8-15.9-6.9-32.3c4.1-23.5,23.1-40.5,45-40.5c10.1,0,19.5,4.4,25.6,12c1.3,1.7,2.2,3.6,2.4,5.8
						c6.5-2.6,12.6-3.9,18.7-3.9c11.4,0,17.8,4.7,21.1,8.6c0.2,0.2,0.4,0.5,0.6,0.7c1.5-4.9,5.9-8.3,11.1-8.3h11.5
						c1.6,0,3.2,0.3,4.6,1c3.2-1.4,6.5-2.1,9.7-2.1c4.1,0,7.3,0.6,10.3,2.1c1.5,0.7,2.8,1.7,3.8,3c5.3-3.4,11.3-5.2,17-5l1.3-7.5
						c1-5.6,5.8-9.6,11.5-9.6h14.1c3.4,0,6.7,1.5,8.9,4.2l0,0c2.2,2.6,3.1,6.1,2.5,9.5l-11.2,63.3c-1,5.6-5.8,9.6-11.5,9.6h-11.5
						c-1.3,0-2.7-0.2-3.9-0.7C558.6,89.6,555.4,90.2,552.4,90.2z M526.5,53.3l0.3,0c0.3,0,0.5,0.1,0.8,0.1l0.9,0.2l-0.1,0.9
						c-2,13.4,1.8,21.3,5.4,25.5c4.4,5.2,11,8.1,18.5,8.1c2.9,0,6-0.6,9.1-1.8l0.4-0.1l0.4,0.1c1.1,0.4,2.3,0.7,3.6,0.7h11.5
						c4.7,0,8.7-3.3,9.5-8l11.2-63.3c0.5-2.8-0.3-5.7-2.1-7.9v0c-1.8-2.2-4.5-3.4-7.4-3.4h-14.1c-4.7,0-8.7,3.3-9.5,8l-1.6,9.2
						l-0.9,0c-0.5,0-0.9,0-1.4,0c-5.5,0-11.1,1.8-16,5.2l-0.8,0.6l-0.6-0.8c-1-1.4-2.2-2.4-3.7-3.1c-2.7-1.3-5.7-1.9-9.4-1.9
						c-3.1,0-6.2,0.7-9.3,2.1l-0.4,0.2l-0.4-0.2c-1.3-0.6-2.7-1-4.2-1h-11.5c-4.7,0-8.7,3.3-9.5,8l-0.6,3.6l-1.4-2.2
						c-0.6-0.9-1.1-1.7-1.8-2.5c-3-3.6-8.9-7.9-19.6-7.9c-6.2,0-12.5,1.4-19.2,4.3l-1.4,0.6l0-1.5c0-2.2-0.7-4.3-2.1-6
						c-5.8-7.2-14.5-11.3-24.1-11.3c-21,0-39.1,16.3-43.1,38.9c-2.8,15.7,2,25.3,6.5,30.7c5.9,7,14.9,10.9,25.3,10.9
						c8.6,0,16.8-2.9,23.8-8.3l0.8-0.6l0.8,1.1c0.2,0.2,0.3,0.5,0.5,0.7c3.8,4.6,9.6,7.1,16.2,7.1c3.4,0,6.6-0.6,9.9-1.9l0.4-0.1
						l0.4,0.2c1.2,0.5,2.5,0.8,3.8,0.8h11.5c2.5,0,4.9-1,6.7-2.8l0.7-0.7l0.7,0.7c1.8,1.8,4.2,2.8,6.7,2.8h14.1c4.7,0,8.7-3.3,9.5-8
						l4.2-23.9l0.1-0.2c0.7-1,1.4-1.4,1.7-1.6L526.5,53.3z M416.5,56.7h-0.8l-0.3-0.7c-0.2-0.9-0.6-2.9,0.1-6.5
						c1.3-7.1,5.2-10.3,7.6-10.3c0.8,0,1.3,0.3,2.5,1.6c1.8,1.9,4.3,3,6.9,3c2.7,0,5.2-1,7-2.8l2.2-2.2l0.5,1.8l2.5,7.1l-0.5,0.4
						c-2.4,2-4.4,4.5-6,7.3l-0.8,1.4l-0.9-1.3c-1.6-2.2-4-3.7-6.7-4c-2.8-0.4-5.6,0.6-7.7,2.4C420.8,55.2,418.6,56.7,416.5,56.7z
						 M423.2,41.1c-1.4,0-4.5,2.6-5.6,8.7c-0.4,2.3-0.4,3.9-0.3,4.8c1.1-0.3,2.3-1,3.6-2.2c2.5-2.3,5.9-3.4,9.3-2.9
						c2.7,0.3,5.2,1.6,7.1,3.7c1.4-2.4,3.2-4.4,5.2-6.2l-1.6-4.5c-2.2,2.1-5.1,3.4-8.2,3.4c-3.3,0-6.3-1.4-8.5-3.7
						C423.4,41.3,423.2,41.2,423.2,41.1z"/>
				</g>
			</g>
		</g>
	</g>
	<g>
		<g>
			<path class="st1" d="M22,18.4h21.6c12.6,0,22.3,4.4,19.8,18.6c-1.5,8.6-6.5,14.2-13.1,17l9,23.4H43.5l-7.2-20.8h-6.8l-3.7,20.8
				H11.6L22,18.4z M37.8,45.5c6.7,0,10.9-2.9,11.9-8.5c1-5.5-2.3-7.4-9.1-7.4h-6.3l-2.8,15.8H37.8z"/>
			<path class="st1" d="M71,54.9c2.6-14.6,14.7-23.6,25.5-23.6c13,0,17.7,9.4,15.5,21.7c-0.4,2.5-1.2,5-1.7,6.1H83.9
				c0.2,6.2,4,8.7,9.7,8.7c3.2,0,6.4-1,10-2.9l3.2,8.5c-5.3,3.3-11.8,5.1-17,5.1C76.8,78.6,68.4,69.8,71,54.9z M100.7,49.8
				c0.8-4.4-0.6-7.8-5.8-7.8c-3.9,0-7.7,2.5-9.6,7.8H100.7z"/>
			<path class="st1" d="M119.9,64.9c1.7-9.5,10-14.7,27.9-16.6c0.3-3.6-1.2-5.8-5.8-5.8c-3.6,0-7.5,1.4-12.5,4l-3.3-9.3
				c6.6-3.6,13.4-5.9,20.5-5.9c11.6,0,17.1,6.5,14.6,20.6l-4.5,25.6h-11.5l-0.2-4.5h-0.4c-4.3,3.3-8.9,5.6-13.9,5.6
				C122.6,78.6,118.6,72.4,119.9,64.9z M145.1,64.1l1.3-7.2c-9,1.1-12.3,3.7-12.9,6.9c-0.5,2.6,1.2,3.9,4.1,3.9
				C140.5,67.6,142.7,66.3,145.1,64.1z"/>
			<path class="st1" d="M173.3,54.9c2.6-14.7,13.4-23.6,22.8-23.6c5,0,7.6,1.8,10,4.7l0.7-6.7l2.7-15h14.1l-11.2,63.3H201l-0.3-4.4
				h-0.3c-3.7,3.2-8.5,5.5-12.8,5.5C176.4,78.6,170.7,69.6,173.3,54.9z M200.9,63.2l3.1-17.7c-1.8-2-4.2-2.7-6.6-2.7
				c-3.9,0-8.1,3.6-9.6,12c-1.5,8.6,0.7,12.3,5.5,12.3C196.1,67,198.4,66.1,200.9,63.2z"/>
			<path class="st1" d="M235.6,32.4h14.1l-7.9,45.1h-14.1L235.6,32.4z M237.2,18.8c0.8-4.4,4.4-7.2,9.1-7.2c4.7,0,7.3,2.9,6.6,7.2
				c-0.8,4.4-4.5,7.3-9.1,7.3C239,26.1,236.5,23.3,237.2,18.8z"/>
			<path class="st1" d="M265,32.4h11.5l0,5.6h0.2c4.4-3.6,9.5-6.7,15.6-6.7c9.8,0,12.8,7,10.8,18.3l-4.9,27.9h-14.1l4.6-26.1
				c1.1-6.3-0.2-8-3.8-8c-3.2,0-5.3,1.4-8.5,4l-5.3,30.1h-14.1L265,32.4z"/>
			<path class="st1" d="M309.1,85c0.7-3.7,3.3-6.7,7.9-8.9l0.1-0.4c-2.1-1.6-3.4-4-2.7-7.8c0.6-3.2,3.2-6.3,6.5-8.4l0.1-0.3
				c-2.9-2.2-5.1-6.4-4.1-11.7c1.9-10.9,12-16.3,21.7-16.3c2.6,0,5,0.4,6.9,1.1H362l-1.8,10.2h-6.9c0.4,1.3,0.6,3.3,0.2,5.5
				c-1.9,10.5-10.7,15.1-20.6,15.1c-1.5,0-3.3-0.2-5.2-0.8c-1.1,1-1.7,1.6-2,3.2c-0.4,2.1,1.3,3,6.1,3h7.1
				c11.1,0,16.8,3.4,15.4,11.6c-1.7,9.5-12.8,16.2-28.4,16.2C315.6,96.4,307.7,93.1,309.1,85z M340.4,82.6c0.5-2.7-1.8-3.2-6-3.2
				h-4.3c-3.2,0-5-0.2-6.3-0.6c-1.6,1.3-2.5,2.5-2.8,4c-0.6,3.2,3,4.8,8.7,4.8C335.5,87.6,339.9,85.4,340.4,82.6z M341.5,47.6
				c0.8-4.5-1.2-6.9-4.6-6.9c-3.2,0-6.1,2.4-6.9,6.9c-0.8,4.8,1.2,7.1,4.4,7.1C337.7,54.7,340.6,52.3,341.5,47.6z"/>
			<path class="st1" d="M391.5,48.3c3.5-19.6,18.6-30.9,33.6-30.9c7.7,0,13.2,3.6,16.5,7.7l-9,9c-2.5-2.7-5.3-4.6-9.5-4.6
				c-7.6,0-15.1,6.8-17.1,18.3c-2.1,11.7,2.1,18.5,10.4,18.5c4.8,0,8.9-2.4,12.2-5.4l5.9,8.9c-6,5.8-13.1,8.7-20.8,8.7
				C398.9,78.6,388,68.3,391.5,48.3z"/>
			<path class="st1" d="M445,64.9c1.7-9.5,10-14.7,27.9-16.6c0.3-3.6-1.2-5.8-5.8-5.8c-3.6,0-7.5,1.4-12.5,4l-3.3-9.3
				c6.6-3.6,13.4-5.9,20.5-5.9c11.6,0,17.1,6.5,14.6,20.6l-4.5,25.6h-11.5l-0.2-4.5h-0.4c-4.3,3.3-8.9,5.6-13.9,5.6
				C447.6,78.6,443.6,72.4,445,64.9z M470.1,64.1l1.3-7.2c-9,1.1-12.3,3.7-12.9,6.9c-0.5,2.6,1.2,3.9,4.1,3.9
				C465.6,67.6,467.7,66.3,470.1,64.1z"/>
			<path class="st1" d="M504.6,32.4h11.5l-0.4,7.8h0.2c4.4-6,9.9-9,14.4-9c2.7,0,4.1,0.4,5.3,1l-4.4,12.1c-1.6-0.4-2.9-0.7-4.9-0.7
				c-3.3,0-7.7,2.1-11.1,8.1l-4.5,25.7h-14.1L504.6,32.4z"/>
			<path class="st1" d="M538.1,54.9c2.6-14.7,13.4-23.6,22.8-23.6c5,0,7.6,1.8,10,4.7l0.7-6.7l2.7-15h14.1l-11.2,63.3h-11.5
				l-0.3-4.4h-0.3c-3.7,3.2-8.5,5.5-12.8,5.5C541.1,78.6,535.5,69.6,538.1,54.9z M565.6,63.2l3.1-17.7c-1.8-2-4.2-2.7-6.6-2.7
				c-3.9,0-8.1,3.6-9.6,12c-1.5,8.6,0.7,12.3,5.5,12.3C560.8,67,563.1,66.1,565.6,63.2z"/>
		</g>
	</g>
</g>
</svg>
