<?xml version="1.0" encoding="utf-8"?>
<!-- Generator: Adobe Illustrator 26.5.0, SVG Export Plug-In . SVG Version: 6.00 Build 0)  -->
<svg version="1.1" id="圖層_1" xmlns="http://www.w3.org/2000/svg" xmlns:xlink="http://www.w3.org/1999/xlink" x="0px" y="0px"
	 viewBox="0 0 900 550" style="enable-background:new 0 0 900 550;" xml:space="preserve">
<style type="text/css">
	.st0{opacity:0.3;fill:#F8C9C9;}
	.st1{opacity:0.44;fill:#F8C9C9;}
	.st2{opacity:0.55;fill:#F8C9C9;}
	.st3{opacity:0.3;fill:none;stroke:#F8C9C9;stroke-miterlimit:10;}
	.st4{opacity:0.55;fill:none;stroke:#F8C9C9;stroke-miterlimit:10;}
	.st5{opacity:0.44;fill:none;stroke:#F8C9C9;stroke-miterlimit:10;}
</style>
<path class="st0" d="M304.4,257.6c-51.1-31.8-115.4-52.1-143.6,2.9c-35.8,69.6,38.3,140.9-8.9,215.6
	C104.8,550.6,2.9,538.9-65.5,583.3c-109.4,71-67.4,214.3-98.8,321.6c-17.9,61.3-56.2,113.5-98.1,160.6
	c-29.8,33.5-103.9,83.5-115,126.9c-6.1,23.6,1.9,50.2,20,66.6c27.9,25.2,70.9,22.8,107.4,13.7c119.7-29.8,223.6-117.2,273.4-230
	c24.8-56,38.6-120.3,83.9-161.6c61.1-55.7,157.1-49.4,228.9-90.5c88.2-50.5,122.3-163.6,115.7-265.1c-5.2-80.3-32.4-161.3-87.4-220
	C351.7,291.9,329.7,273.3,304.4,257.6z"/>
<path class="st1" d="M-115.1,225.6c-5.2,62.4,59.8,136.8,127.3,132.8c38.5-2.3,72.2-22.9,92.2-55.3c19.6-31.8,29.8-73.3,63.5-94
	c24.6-15.2,55.8-13.9,84.3-8.7c28.4,5.2,56.8,13.7,85.7,11.4c28.8-2.3,59.1-19.1,66-47.1c10.9-44.2-39.6-83.7-35.7-129.1
	c3.7-43.6,60.6-77.3,45.9-122.8c-14.5-44.9-75-69.5-118-67.4c-87.6,4.2-132,73.6-168.5,143.2C98.1,44.6,66.1,105.3,8.8,132.5
	c-24.4,11.6-51.7,16.1-76,27.9C-98.6,175.7-112.9,199.6-115.1,225.6z"/>
<path class="st2" d="M1146-288.1c-25.7-89.4-155.2-158.5-246.8-117.4c-52.2,23.4-88.2,69.8-98.9,125.4
	c-10.5,54.5-2.7,117.5-38.6,164.1c-26.2,34-70.2,48.7-112.4,56.5c-42.2,7.8-86.2,10.9-125,29.3c-38.8,18.4-72.1,57.6-66.8,100.3
	c8.2,67.2,99.2,95.4,117.7,160.5c17.8,62.5-43.4,139.3,1,194.8c43.8,54.7,140.8,57,199.4,31.5C895,404.8,920.1,285,934,169.2
	c11.3-93.6,23.8-194.8,89-262.8c27.8-29,63.3-49.6,90.9-78.8C1149.4-210.2,1156.7-250.9,1146-288.1z"/>
<path class="st3" d="M557.2,543.8c-53.4-76.1-198.3-99.4-271.6-30.6c-41.7,39.2-60.7,94.8-52.7,150.8c7.8,54.9,35.7,112,16.9,167.7
	c-13.7,40.7-50.6,68.9-87.9,90.1c-37.4,21.2-77.9,38.4-108.6,68.4c-30.7,30-49.4,78-30.6,116.6c29.6,60.8,124.8,57.9,163.5,113.4
	c37.2,53.3,4.3,145.8,64.3,183.8c59.2,37.5,151.7,8.1,198.8-35.1c96-88.1,80.8-209.5,56.3-323.6c-19.8-92.1-40.9-191.9-1.4-277.5
	c16.8-36.4,43.7-67.5,60.3-104.1C585.8,616.4,579.4,575.5,557.2,543.8z"/>
<path class="st4" d="M980.3-431.9c69.8-20.1,169.4,37,180.2,114.8c6.2,44.3-9.6,87.4-42,117.6c-31.7,29.5-76.7,50.6-92.7,93.6
	c-11.7,31.5-3.1,66.7,9.2,97.9c12.3,31.2,28.5,61.6,32.4,94.9s-8.3,71.6-38.7,85.9c-47.9,22.4-104.3-26.1-155.1-11.4
	c-48.8,14.1-74.2,86.6-129.4,80.2c-54.4-6.3-96.2-69.6-103.6-119c-15.1-100.7,53.8-167,124.7-224.4c57.3-46.3,119.2-96.6,137.1-168
	c7.7-30.4,6.6-62.6,14.5-92.9C927.3-401.8,951.3-423.6,980.3-431.9z"/>
<path class="st5" d="M-223,94.7c-24,71.2,30.3,176.7,110.1,191.5c45.5,8.4,90.8-5.9,123.4-37.9c32-31.4,55.8-76.9,101.1-91.3
	c33-10.6,69.1-0.1,100.7,14.1c31.7,14.2,62.3,32.3,96.5,37.9c34.2,5.6,74.4-5.2,90.5-35.9c25.4-48.4-22-109-4.5-160.8
	c16.9-49.7,92.9-72.6,88.9-129.9c-3.9-56.5-67.4-102.6-118-112.6c-103.3-20.3-175.1,47.7-237.6,118.3C77.6-54.8,22.8,6.7-51.8,21.9
	c-31.8,6.5-64.9,3.9-96.6,10.6C-189.4,41.3-213,65-223,94.7z"/>
</svg>
