<?xml version="1.0" encoding="utf-8"?>
<!-- Generator: Adobe Illustrator 26.5.1, SVG Export Plug-In . SVG Version: 6.00 Build 0)  -->
<svg version="1.1" id="圖層_1" xmlns="http://www.w3.org/2000/svg" xmlns:xlink="http://www.w3.org/1999/xlink" x="0px" y="0px"
	 viewBox="0 0 300 300" style="enable-background:new 0 0 300 300;" xml:space="preserve">
<style type="text/css">
	.st0{fill:#FF6464;}
</style>
<g>
	<g>
		<g>
			<g>
				<polygon class="st0" points="112.1,221.5 114.8,213.6 109.8,206.9 118.2,207 123,200.1 125.5,208.1 133.5,210.6 126.7,215.4 
					126.8,223.8 120.1,218.8 				"/>
				<path class="st0" d="M126.8,224.8c-0.2,0-0.4-0.1-0.6-0.2l-6.3-4.7l-7.4,2.5c-0.4,0.1-0.8,0-1-0.2c-0.3-0.3-0.4-0.7-0.2-1
					l2.5-7.4l-4.7-6.3c-0.2-0.3-0.3-0.7-0.1-1.1c0.2-0.3,0.5-0.6,0.9-0.6l0,0l7.8,0.1l4.5-6.4c0.2-0.3,0.6-0.5,1-0.4
					s0.7,0.3,0.8,0.7l2.3,7.5l7.5,2.3c0.4,0.1,0.6,0.4,0.7,0.8c0.1,0.4-0.1,0.8-0.4,1l-6.4,4.5l0.1,7.8c0,0.4-0.2,0.7-0.6,0.9
					C127.1,224.8,126.9,224.8,126.8,224.8z M120.1,217.8c0.2,0,0.4,0.1,0.6,0.2l5.1,3.8l-0.1-6.3c0-0.3,0.2-0.6,0.4-0.8l5.2-3.7
					l-6-1.9c-0.3-0.1-0.6-0.3-0.7-0.7l-1.9-6l-3.6,5.2c-0.2,0.3-0.5,0.4-0.8,0.4l0,0l-6.3-0.1l3.8,5.1c0.2,0.3,0.3,0.6,0.1,0.9l-2,6
					l6-2C119.8,217.8,120,217.8,120.1,217.8z"/>
			</g>
			<g>
				<polygon class="st0" points="150.4,236.2 146.7,228.7 138.4,227.5 144.4,221.6 143,213.4 150.4,217.3 157.8,213.4 156.4,221.6 
					162.4,227.5 154.1,228.7 				"/>
				<path class="st0" d="M150.4,237.2L150.4,237.2c-0.4,0-0.7-0.2-0.9-0.6l-3.5-7l-7.8-1.1c-0.4-0.1-0.7-0.3-0.8-0.7s0-0.8,0.3-1
					l5.6-5.5l-1.3-7.7c-0.1-0.4,0.1-0.8,0.4-1c0.3-0.2,0.7-0.3,1.1-0.1l6.9,3.6l6.9-3.6c0.3-0.2,0.8-0.2,1.1,0.1
					c0.3,0.2,0.5,0.6,0.4,1l-1.3,7.7l5.6,5.5c0.3,0.3,0.4,0.7,0.3,1c-0.1,0.4-0.4,0.6-0.8,0.7l-7.8,1.1l-3.5,7
					C151.2,237,150.8,237.2,150.4,237.2z M140.6,226.8l6.3,0.9c0.3,0,0.6,0.3,0.8,0.6l2.8,5.7l2.8-5.7c0.1-0.3,0.4-0.5,0.8-0.6
					l6.2-0.9l-4.5-4.4c-0.2-0.2-0.3-0.6-0.3-0.9l1.1-6.2l-5.6,2.9c-0.3,0.2-0.6,0.2-0.9,0l-5.6-2.9l1.1,6.2c0.1,0.3-0.1,0.7-0.3,0.9
					L140.6,226.8z"/>
			</g>
			<g>
				<polygon class="st0" points="187.9,219.5 179.9,216.8 173.2,221.8 173.3,213.4 166.5,208.6 174.5,206.1 177,198.1 181.8,205 
					190.2,204.8 185.2,211.6 				"/>
				<path class="st0" d="M173.2,222.8c-0.2,0-0.3,0-0.5-0.1c-0.3-0.2-0.6-0.5-0.6-0.9l0.1-7.8l-6.4-4.5c-0.3-0.2-0.5-0.6-0.4-1
					s0.3-0.7,0.7-0.8l7.5-2.3l2.3-7.5c0.1-0.4,0.4-0.6,0.8-0.7c0.4-0.1,0.8,0.1,1,0.4l4.5,6.4l7.8-0.1c0.4,0,0.7,0.2,0.9,0.6
					c0.2,0.3,0.1,0.8-0.1,1.1l-4.7,6.3l2.5,7.4c0.1,0.4,0,0.8-0.2,1s-0.7,0.4-1,0.2L180,218l-6.3,4.7
					C173.7,222.7,173.4,222.8,173.2,222.8z M168.8,209l5.2,3.7c0.3,0.2,0.4,0.5,0.4,0.8l-0.1,6.3l5.1-3.8c0.3-0.2,0.6-0.3,0.9-0.1
					l6,2l-2-6c-0.1-0.3-0.1-0.7,0.1-0.9l3.8-5.1l-6.3,0.1c-0.3,0-0.6-0.2-0.8-0.4l-3.7-5.2l-1.9,6c-0.1,0.3-0.3,0.6-0.7,0.7
					L168.8,209z"/>
			</g>
		</g>
		<g>
			<g>
				<polygon class="st0" points="112.1,78.5 114.8,86.4 109.8,93.1 118.2,93 123,99.9 125.5,91.9 133.5,89.4 126.7,84.6 126.8,76.2 
					120.1,81.2 				"/>
				<path class="st0" d="M123,100.9c-0.3,0-0.6-0.2-0.8-0.4l-4.5-6.4l-7.8,0.1l0,0c-0.4,0-0.7-0.2-0.9-0.6c-0.2-0.3-0.1-0.8,0.1-1.1
					l4.7-6.3l-2.5-7.4c-0.1-0.4,0-0.8,0.2-1c0.3-0.3,0.7-0.4,1-0.2l7.4,2.5l6.3-4.7c0.3-0.2,0.7-0.3,1.1-0.1
					c0.3,0.2,0.6,0.5,0.6,0.9l-0.1,7.8l6.4,4.5c0.3,0.2,0.5,0.6,0.4,1s-0.3,0.7-0.7,0.8l-7.5,2.3l-2.3,7.5c-0.1,0.4-0.4,0.6-0.8,0.7
					C123.1,100.9,123.1,100.9,123,100.9z M118.2,92c0.3,0,0.6,0.2,0.8,0.4l3.6,5.2l1.9-6c0.1-0.3,0.3-0.6,0.7-0.7l6-1.9l-5.2-3.6
					c-0.3-0.2-0.4-0.5-0.4-0.8l0.1-6.3l-5.1,3.8c-0.3,0.2-0.6,0.3-0.9,0.1l-6-2l2,6c0.1,0.3,0.1,0.7-0.1,0.9l-3.8,5.1L118.2,92
					L118.2,92z"/>
			</g>
			<g>
				<polygon class="st0" points="150.4,63.8 146.7,71.3 138.4,72.5 144.4,78.4 143,86.6 150.4,82.7 157.8,86.6 156.4,78.4 
					162.4,72.5 154.1,71.3 				"/>
				<path class="st0" d="M157.8,87.6c-0.2,0-0.3,0-0.5-0.1l-6.9-3.7l-6.9,3.6c-0.3,0.2-0.8,0.2-1.1-0.1c-0.3-0.2-0.5-0.6-0.4-1
					l1.3-7.7l-5.6-5.5c-0.3-0.3-0.4-0.7-0.3-1c0.1-0.4,0.4-0.6,0.8-0.7l7.8-1.1l3.5-7c0.3-0.7,1.5-0.7,1.8,0l3.5,7l7.8,1.1
					c0.4,0.1,0.7,0.3,0.8,0.7c0.1,0.4,0,0.8-0.3,1l-5.6,5.5l1.3,7.7c0.1,0.4-0.1,0.8-0.4,1C158.2,87.6,158,87.6,157.8,87.6z
					 M150.4,81.7c0.2,0,0.3,0,0.5,0.1l5.6,2.9l-1.1-6.2c-0.1-0.3,0.1-0.7,0.3-0.9l4.5-4.4l-6.2-0.9c-0.3,0-0.6-0.3-0.8-0.6l-2.8-5.7
					l-2.8,5.7c-0.1,0.3-0.4,0.5-0.8,0.6l-6.3,0.9l4.5,4.4c0.2,0.2,0.3,0.6,0.3,0.9l-1.1,6.2l5.6-2.9
					C150.1,81.8,150.3,81.7,150.4,81.7z"/>
			</g>
			<g>
				<polygon class="st0" points="187.9,80.5 179.9,83.2 173.2,78.2 173.3,86.6 166.5,91.4 174.5,93.9 177,101.9 181.8,95 
					190.2,95.1 185.2,88.4 				"/>
				<path class="st0" d="M177,102.9c-0.1,0-0.1,0-0.2,0c-0.4-0.1-0.7-0.3-0.8-0.7l-2.3-7.5l-7.5-2.3c-0.4-0.1-0.6-0.4-0.7-0.8
					c-0.1-0.4,0.1-0.8,0.4-1l6.4-4.5l-0.1-7.8c0-0.4,0.2-0.7,0.6-0.9c0.3-0.2,0.8-0.1,1.1,0.1l6.3,4.7l7.4-2.5c0.4-0.1,0.8,0,1,0.2
					c0.3,0.3,0.4,0.7,0.2,1l-2.5,7.4l4.7,6.3c0.2,0.3,0.3,0.7,0.1,1.1c-0.2,0.3-0.5,0.6-0.9,0.6l-7.8-0.1l-4.5,6.4
					C177.6,102.7,177.3,102.9,177,102.9z M168.8,91l6,1.9c0.3,0.1,0.6,0.3,0.7,0.7l1.9,6l3.7-5.2c0.2-0.3,0.5-0.4,0.8-0.4l6.3,0.1
					l-3.8-5.1c-0.2-0.3-0.3-0.6-0.1-0.9l2-6l-6,2c-0.3,0.1-0.7,0-0.9-0.1l-5.1-3.8l0.1,6.3c0,0.3-0.2,0.6-0.4,0.8L168.8,91z"/>
			</g>
		</g>
	</g>
	<g>
		<path class="st0" d="M28.3,184.9c0.2,0.6,0.2,1,0.3,1.3c0.5,0.3,0.9,0.4,1.2,0.3c0.8-0.2,1-1.2,0.6-2.6c-0.4-1.4-1.3-2.2-2-1.9
			c-0.7,0.2-0.7,0.8-0.4,1.8L28.3,184.9z"/>
		<path class="st0" d="M87.3,34.2c0.6-0.3,1-0.8,1.1-1.7l-2.1-3.7c-0.8-0.2-1.4,0-1.9,0.2c-0.9,0.5-1.2,1.9-0.3,3.6
			C85,34.3,86.2,34.9,87.3,34.2z"/>
		<path class="st0" d="M25,146.4c0-1.4-0.6-2.5-1.4-2.5c-0.7,0-0.9,0.6-0.9,1.6v1.2c0,0.6-0.1,1-0.2,1.3c0.3,0.4,0.7,0.6,1.1,0.6
			C24.5,148.7,25,147.8,25,146.4z"/>
		<path class="st0" d="M76.1,40c0.4,0.6,1,0.6,1.7,0.2c0.6-0.4,0.9-1,1-1.8l-1.1-1.6C75.9,38.3,75.6,39.3,76.1,40z"/>
		<path class="st0" d="M58.6,46.1c-0.9-1-1.9-0.7-3.1,0.4l-1.2,1.1l2.7,2.8l1.2-1.1C59.3,48.3,59.5,47.1,58.6,46.1z"/>
		<path class="st0" d="M69.1,41.4c-0.8-1-1.8-1.3-2.7-0.5c-0.8,0.6-1.1,1.8-0.3,3L69.1,41.4z"/>
		<path class="st0" d="M16,145c-1.1,0-1.8,0.6-1.8,1.5s0.6,1.5,1.7,1.5c1.2,0,1.8-0.6,1.8-1.5S17.2,145,16,145z"/>
		<path class="st0" d="M23.5,186.2c-0.2-0.8-1.1-1.3-2.2-0.9c-1.1,0.3-1.5,1.1-1.2,2c0.3,0.8,1.1,1.3,2.1,0.9
			C23.4,187.9,23.8,187,23.5,186.2z"/>
		<path class="st0" d="M43.8,231.8c0.6,0.8,1.8,1,3,0.3l-2.4-3.1C43.4,229.8,43.1,230.8,43.8,231.8z"/>
		<path class="st0" d="M76.5,254c-0.6-0.4-1.2-0.4-2.1-0.3l-1.1,1.6c2.1,1.1,3.1,1,3.6,0.3C77.4,255,77.1,254.4,76.5,254z"/>
		<path class="st0" d="M49.1,239.5c-1,0.9-0.7,1.9,0.4,3.1l1.1,1.2l2.8-2.7l-1.1-1.2C51.2,238.8,50.1,238.6,49.1,239.5z"/>
		<path class="st0" d="M37.1,210.9c-0.3-0.6-0.8-0.9-1.8-1.1l-3.7,2.1c-0.2,0.8,0,1.4,0.3,1.9c0.5,0.9,1.9,1.2,3.6,0.3
			C37.2,213.1,37.7,212,37.1,210.9z"/>
		<path class="st0" d="M42.9,222c0.6-0.4,0.6-1,0.2-1.7c-0.4-0.6-1-0.8-1.8-1l-1.6,1.1C41.2,222.2,42.2,222.5,42.9,222z"/>
		<path class="st0" d="M276.3,145.1c-0.8,0-1.3,0.9-1.2,2.3c0,1.4,0.7,2.4,1.4,2.4c0.7,0,0.9-0.6,0.8-1.6V147c0-0.6,0-1,0.1-1.3
			C277,145.3,276.7,145.1,276.3,145.1z"/>
		<path class="st0" d="M276,107.4c0.3,0.8,1.1,1.3,2.2,0.9c1.1-0.3,1.5-1.2,1.2-2s-1.1-1.3-2.1-0.9
			C276.2,105.8,275.8,106.6,276,107.4z"/>
		<path class="st0" d="M271.3,108.8c-0.2-0.6-0.3-1-0.3-1.3c-0.5-0.3-0.9-0.4-1.3-0.3c-0.8,0.2-0.9,1.2-0.5,2.6s1.3,2.1,2.1,1.9
			c0.7-0.2,0.6-0.8,0.3-1.8L271.3,108.8z"/>
		<path class="st0" d="M256.2,71.8c-0.6,0.4-0.6,1.1-0.2,1.7s1,0.8,1.8,1l1.6-1.1C257.9,71.6,256.9,71.3,256.2,71.8z"/>
		<path class="st0" d="M262.2,83c0.3,0.6,0.9,0.9,1.8,1.1l3.7-2.1c0.2-0.8,0-1.4-0.3-1.9c-0.5-0.9-1.9-1.2-3.6-0.3
			C262.1,80.7,261.6,81.9,262.2,83z"/>
		<path class="st0" d="M284,145.5c-1.2,0-1.8,0.7-1.8,1.5s0.7,1.5,1.8,1.5c1.1,0,1.7-0.7,1.7-1.5C285.7,146.1,285.1,145.5,284,145.5
			z"/>
		<path class="st0" d="M149.7,279.7c-0.8,0-1.5,0.6-1.5,1.8c0,1.1,0.6,1.8,1.5,1.8s1.5-0.6,1.5-1.7
			C151.2,280.4,150.5,279.7,149.7,279.7z"/>
		<path class="st0" d="M249.9,54.4c1-1,0.7-1.9-0.4-3.1l-1.1-1.2l-2.8,2.7l1.1,1.2C247.8,55.2,248.9,55.4,249.9,54.4z"/>
		<path class="st0" d="M151.7,15.3c0.8,0,1.5-0.6,1.5-1.8c0-1.1-0.6-1.8-1.5-1.8s-1.5,0.6-1.5,1.7C150.2,14.6,150.9,15.3,151.7,15.3
			z"/>
		<path class="st0" d="M151.8,22.5c1.4,0,2.5-0.6,2.5-1.4c0-0.7-0.6-0.9-1.6-0.9h-1.2c-0.6,0-1-0.1-1.3-0.2
			c-0.4,0.3-0.6,0.7-0.6,1.1C149.5,22,150.4,22.5,151.8,22.5z"/>
		<path class="st0" d="M114.3,27.7c1.4-0.4,2.2-1.3,1.9-2c-0.2-0.7-0.8-0.7-1.8-0.4l-1.1,0.3c-0.6,0.2-1,0.2-1.3,0.3
			c-0.3,0.5-0.4,0.9-0.3,1.2C112,27.9,112.9,28.1,114.3,27.7z"/>
		<path class="st0" d="M112,20.8c0.8-0.2,1.3-1,0.9-2.1c-0.3-1.1-1.1-1.5-2-1.3c-0.8,0.2-1.3,1-1,2.1
			C110.4,20.7,111.2,21.1,112,20.8z"/>
		<path class="st0" d="M222.3,40.3c0.6,0.4,1.2,0.4,2.1,0.3l1.1-1.6c-2.1-1.1-3.1-1-3.6-0.3C221.5,39.3,221.7,39.9,222.3,40.3z"/>
		<path class="st0" d="M255.3,62.2c-0.6-0.8-1.8-1-3-0.3l2.5,3C255.8,64.1,256.1,63.1,255.3,62.2z"/>
		<path class="st0" d="M43.9,73.5c0.4-0.6,0.4-1.2,0.3-2.1l-1.6-1.1c-1.1,2.1-1,3.1-0.3,3.6C42.9,74.3,43.5,74.1,43.9,73.5z"/>
		<path class="st0" d="M187,267c-1.4,0.4-2.1,1.3-1.9,2.1c0.2,0.7,0.8,0.7,1.8,0.3l1.1-0.3c0.6-0.2,1-0.2,1.3-0.3
			c0.3-0.5,0.4-0.9,0.3-1.3C189.4,266.7,188.4,266.5,187,267z"/>
		<path class="st0" d="M242.5,247.9c1,1,1.9,0.7,3.1-0.4l1.2-1.1l-2.7-2.8l-1.2,1.1C241.8,245.8,241.6,246.9,242.5,247.9z"/>
		<path class="st0" d="M149.6,272.5c-1.4,0-2.5,0.6-2.5,1.4c0,0.7,0.6,0.9,1.6,0.9h1.2c0.6,0,1,0.1,1.3,0.2c0.4-0.3,0.6-0.7,0.6-1.1
			C151.9,273,151,272.6,149.6,272.5z"/>
		<path class="st0" d="M189.4,273.8c-0.8,0.2-1.3,1.1-0.9,2.2c0.3,1.1,1.1,1.5,2,1.2c0.8-0.3,1.3-1.1,0.9-2.1
			C191,273.9,190.2,273.5,189.4,273.8z"/>
		<path class="st0" d="M256.9,220.4c-0.4,0.6-0.4,1.2-0.3,2.1l1.6,1.1c1.1-2.1,1-3.1,0.3-3.6C257.9,219.5,257.3,219.8,256.9,220.4z"
			/>
		<path class="st0" d="M232.1,252.7c0.8,1,1.8,1.3,2.8,0.5c0.8-0.6,1-1.8,0.3-3L232.1,252.7z"/>
		<path class="st0" d="M225.1,254.2c-0.4-0.6-1.1-0.6-1.7-0.2c-0.6,0.4-0.8,1-1,1.8l1.1,1.6C225.3,255.8,225.6,254.9,225.1,254.2z"
			/>
		<path class="st0" d="M150,0C67.2,0,0,67.2,0,150s67.2,150,150,150s150-67.2,150-150S232.8,0,150,0z M289,127.6l-2.1,0.4l-0.9-5.2
			l-2.9,0.5l0.8,4.4l-2.1,0.4l-0.8-4.4l-3.4,0.6l0.9,5.4l-2.1,0.4l-1.4-7.9l12.6-2.2L289,127.6z M287.3,151.9h-1.9v-1.6
			c-0.3,0.2-0.9,0.4-1.5,0.5c-2.2,0-3.3-1.6-3.3-3.7c0-0.4,0.1-0.8,0.2-1.2c-0.2-0.3-0.4-0.4-0.8-0.4c-0.5,0-0.8,0.4-0.8,1.5v1.6
			c0,2.3-0.7,3.6-2.4,3.6c-1.9,0-3.5-2-3.5-5.2c0-2.3,0.7-4,2.4-4.1c0.8,0,1.5,0.5,2,1.3h0.1c0.3-0.5,0.8-0.9,1.6-0.9
			c0.7,0,1.4,0.5,1.8,1.1h0.1c0.5-0.7,1.4-1.3,2.5-1.3c2.3,0,3.5,1.8,3.5,3.8c0,0.5-0.1,1.1-0.2,1.5L287.3,151.9z M283.1,168.2
			c-0.7-0.1-1.1,0.7-1.6,1.7c-0.7,1.2-1.5,2.5-3.3,2.2c-1.7-0.3-2.8-1.8-2.4-4.3c0.2-1.3,1-2.6,1.9-3.4l1.4,1.4
			c-0.8,0.7-1.3,1.5-1.4,2.4c-0.2,1,0.2,1.4,0.8,1.5c0.7,0.1,1.2-0.8,1.7-1.8c0.7-1.1,1.6-2.4,3.2-2.1c1.7,0.3,2.7,1.8,2.3,4
			c-0.2,1.4-1,2.4-1.7,3l-1.3-1.4c0.6-0.6,1-1.2,1.1-1.9C283.9,168.7,283.6,168.2,283.1,168.2z M276.8,162.1l0.3-2.5l9.6,1l-0.3,2.5
			L276.8,162.1z M285.3,134c0.9,0.8,1.7,1.7,1.8,3c0.2,2.1-1.2,3.1-3.6,3.3l-6,0.5l-0.2-2.5l5.7-0.5c1.5-0.1,2-0.6,1.9-1.5
			c-0.1-0.8-0.5-1.3-1.2-1.9l-6.6,0.6l-0.2-2.5l9.6-0.8l0.2,2.1L285.3,134L285.3,134z M277.4,114l1.8-0.4l1.1,4.6l-1.8,0.4
			L277.4,114z M281.1,105.8c0.2,0.5,0.2,1,0.2,1.5l1,3.3l-1.8,0.6l-0.5-1.6c-0.2,0.3-0.7,0.7-1.3,0.9c-2.1,0.7-3.6-0.6-4.2-2.6
			c-0.1-0.4-0.2-0.8-0.2-1.2c-0.3-0.2-0.5-0.3-0.9-0.1c-0.5,0.2-0.6,0.6-0.3,1.7l0.5,1.6c0.7,2.2,0.4,3.6-1.2,4.2
			c-1.9,0.6-3.9-0.9-4.9-4c-0.7-2.2-0.5-4.1,1.1-4.6c0.8-0.2,1.6,0,2.3,0.7h0.1c0.2-0.6,0.5-1.1,1.3-1.3c0.7-0.2,1.5,0.1,2.1,0.5
			h0.1c0.3-0.8,0.9-1.7,2-2C278.7,102.5,280.4,103.9,281.1,105.8z M275.2,100.6l-5.6,2.3l-1-2.3l5.3-2.2c1.4-0.6,1.7-1.1,1.3-2
			c-0.3-0.7-0.8-1-1.8-1.4l-6.1,2.5l-1-2.3l8.9-3.7l0.8,1.9l-1,0.6l0,0c1.1,0.5,2.1,1.1,2.6,2.3C278.4,98.3,277.4,99.6,275.2,100.6z
			 M33.7,150C33.7,85.8,85.8,33.7,150,33.7S266.3,85.8,266.3,150S214.2,266.3,150,266.3S33.7,214.2,33.7,150z M35.3,203.6l-8.7,4.2
			l-1.1-2.3l8.7-4.2L35.3,203.6z M265.2,92.5l-1.1-2.3l8.7-4.3l1.1,2.3L265.2,92.5z M275.3,84.4c0.7-0.4,1.5-0.1,1.9,0.7
			c0.4,0.8,0.2,1.6-0.6,1.9c-0.8,0.4-1.5,0.1-1.9-0.7C274.3,85.6,274.5,84.8,275.3,84.4z M268.9,78.5c0.5,0.9,0.5,1.7,0.3,2.6
			l1.3-0.8l2.9-1.7l1.3,2.2l-11.9,6.9l-1-1.8l0.8-0.7v-0.1c-1-0.3-1.9-0.8-2.4-1.7c-1.2-2.1-0.3-4.4,2.4-5.9
			C265.2,75.9,267.9,76.7,268.9,78.5z M259.8,66.8c1.2,0.5,2.5,1.3,3.3,2.6c1.4,2,0.9,3.9-1.4,5.5l-4.6,3.2l-1.2-1.7l0.8-0.7v-0.1
			c-1.1-0.3-2.1-0.8-2.7-1.7c-1-1.4-0.6-3,0.7-4c1.7-1.2,3.5-0.4,6.1,2.5c0.7-0.6,1.1-1.3,0.4-2.3c-0.5-0.7-1.3-1.2-2.3-1.7
			L259.8,66.8z M256.8,60.9c1.7,2.1,1,4.4-1,6c-0.4,0.3-0.8,0.6-1,0.6L251,63c-1.1,1.2-1.1,2.5-0.2,3.6c0.5,0.6,1.1,1,1.9,1.3
			l-0.7,1.6c-1.1-0.3-2.2-1-2.9-1.9c-1.7-2.1-1.6-4.9,0.9-6.9C252.4,58.6,255.3,59.1,256.8,60.9z M251.1,50.1
			c1.9,1.9,2.6,4.1,0.5,6.1c-1.4,1.3-2.9,1.5-4.3,0.8l-1.7,5.8l-2-2l1.7-5.2l-1.2-1.3l-3.5,3.3l-1.8-1.8l9.2-8.9L251.1,50.1z
			 M239.9,43.8l1.9-1.7l1.6,1.4l-1.7,1.9l1.8,1.6l-1.3,1.5l-1.8-1.6l-2.8,3.2c-0.7,0.8-0.7,1.5-0.1,2.1c0.2,0.2,0.6,0.4,0.8,0.5
			l-0.9,1.6c-0.5-0.2-1.1-0.5-1.8-1.1c-1.7-1.5-1.4-3.2,0-4.8l2.8-3.2l-1-0.9l1.2-1.4L239.9,43.8z M234.7,39.5l-0.9,1.5l0,0
			c1.3-0.5,2.6-0.4,3.4,0.2c0.4,0.3,0.6,0.6,0.8,0.9l-1.7,1.4c-0.2-0.3-0.4-0.5-0.7-0.8c-0.6-0.5-1.6-0.6-2.9,0.1l-3.6,4.5l-2-1.6
			l6-7.6L234.7,39.5z M226.4,37.7c0.5-0.8,0.6-1.6-0.4-2.3c-0.7-0.5-1.7-0.7-2.7-0.7l0.2-1.9c1.3,0.1,2.8,0.4,4,1.2
			c2,1.4,2.2,3.3,0.7,5.6l-3.2,4.6l-1.7-1.2l0.4-1h-0.1c-1.1,0.1-2.2,0-3.1-0.6c-1.4-1-1.7-2.6-0.7-4
			C220.9,35.8,222.9,35.8,226.4,37.7z M210.5,24.2l-0.4,1.2l0,0c1.1-0.4,2.2-0.5,3.3,0c1.2,0.7,1.6,1.6,1.5,2.7
			c1.2-0.4,2.4-0.6,3.5,0c1.8,1,2,2.7,0.8,4.8l-2.8,5.3l-2.2-1.2l2.7-5c0.7-1.3,0.6-2-0.2-2.4c-0.5-0.3-1.2-0.2-2.2,0.1l-3.1,5.8
			l-2.2-1.2l2.7-5c0.7-1.3,0.6-2-0.2-2.4c-0.5-0.3-1.2-0.2-2.1,0.1l-3.1,5.8l-2.2-1.2l4.6-8.5L210.5,24.2z M196.2,24.9
			c0.5,1.1,1.4,2.1,2.5,2.5c1.2,0.5,2.1,0.2,2.4-0.6c0.4-0.9-0.3-1.4-1.1-2.3l-1.3-1.3c-1-1-1.8-2.4-1.1-4.1
			c0.8-1.9,3.1-2.7,5.5-1.8c1.4,0.6,2.5,1.7,3.1,3l-1.8,1c-0.5-0.9-1.1-1.6-2.1-2s-1.9-0.2-2.2,0.6c-0.3,0.8,0.4,1.5,1.2,2.3
			l1.3,1.3c1.2,1.2,1.8,2.5,1.1,4.2c-0.8,1.9-3.1,2.9-5.8,1.8c-1.6-0.6-2.9-1.9-3.6-3.5L196.2,24.9z M181.6,9.7l2.4,0.6l-0.9,3.3
			l-0.6,1.7c0.9-0.5,2-0.9,3.3-0.6c2,0.5,2.5,2.1,1.9,4.5l-1.5,5.8l-2.4-0.6l1.4-5.5c0.4-1.5,0.1-2.1-0.8-2.3
			c-0.8-0.2-1.3,0-2.2,0.5l-1.7,6.4l-2.4-0.6L181.6,9.7z M170.3,18.8c0.7,0.8,1.5,1.3,2.4,1.5c1,0.2,1.4-0.2,1.5-0.8
			c0.1-0.7-0.8-1.2-1.7-1.8c-1.1-0.7-2.3-1.6-2.1-3.2c0.3-1.7,1.9-2.7,4.1-2.3c1.4,0.2,2.3,1,3,1.7l-1.4,1.3c-0.6-0.6-1.2-1-1.9-1.2
			c-0.9-0.2-1.3,0.1-1.4,0.7c-0.1,0.7,0.7,1.1,1.6,1.7c1.2,0.7,2.4,1.6,2.1,3.3c-0.3,1.7-1.8,2.8-4.3,2.3c-1.3-0.2-2.6-1-3.4-2
			L170.3,18.8z M167.1,7c0.9,0.1,1.4,0.7,1.3,1.5c-0.1,0.8-0.8,1.3-1.6,1.2c-0.9-0.1-1.4-0.7-1.3-1.6C165.6,7.3,166.3,6.9,167.1,7z
			 M165.4,11.1l2.5,0.3l-1.2,9.6l-2.5-0.3L165.4,11.1z M159.6,6.5l2.5,0.2l-0.9,11.1c0,0.6,0.2,0.8,0.4,0.8c0.1,0,0.2,0,0.3,0
			l0.2,1.9c-0.3,0.1-0.7,0.2-1.3,0.1c-1.7-0.1-2.3-1.3-2.1-3.1L159.6,6.5z M148,17.9c0-0.7,0.5-1.4,1.1-1.8V16
			c-0.7-0.5-1.3-1.4-1.2-2.6c0-2.3,1.9-3.4,3.9-3.4c0.5,0,1,0.1,1.4,0.3l3.5,0.1v1.9h-1.6c0.2,0.3,0.4,0.9,0.4,1.5
			c0,2.2-1.7,3.2-3.8,3.2c-0.4,0-0.8-0.1-1.2-0.2c-0.3,0.2-0.4,0.4-0.4,0.8c0,0.5,0.4,0.8,1.5,0.8h1.6c2.3,0,3.6,0.8,3.6,2.5
			c0,1.9-2.1,3.4-5.3,3.3c-2.3,0-4-0.8-4-2.5c0-0.8,0.5-1.5,1.4-2v-0.1C148.3,19.2,148,18.7,148,17.9z M138.4,10.7l0.3,1.3h0.1
			c0.8-0.9,1.7-1.6,3-1.7c2.1-0.1,3.1,1.2,3.2,3.7l0.4,6l-2.5,0.2l-0.4-5.7c-0.1-1.5-0.5-2-1.5-1.9c-0.8,0.1-1.3,0.5-1.9,1.2
			l0.5,6.6l-2.5,0.2l-0.7-9.6L138.4,10.7z M132.4,8.2l0.3,2.1l-5.2,0.8L128,14l4.4-0.7l0.3,2.1l-4.4,0.7l0.5,3.4l5.4-0.8l0.3,2.1
			l-7.9,1.2l-1.9-12.6L132.4,8.2z M122.8,16.8l0.4,1.8l-4.6,1l-0.4-1.8L122.8,16.8z M110.5,15.8c0.5-0.2,1-0.2,1.5-0.2l3.3-1
			l0.5,1.8l-1.6,0.5c0.3,0.2,0.7,0.7,0.8,1.3c0.6,2.1-0.7,3.6-2.6,4.2c-0.4,0.1-0.8,0.2-1.3,0.1c-0.2,0.3-0.3,0.5-0.2,0.9
			c0.1,0.5,0.6,0.7,1.7,0.3l1.6-0.5c2.2-0.7,3.7-0.3,4.1,1.3c0.6,1.9-1,3.9-4.1,4.8c-2.2,0.6-4.1,0.4-4.6-1.2
			c-0.2-0.8,0.1-1.6,0.8-2.3v-0.1c-0.6-0.2-1.1-0.5-1.3-1.3c-0.2-0.7,0.1-1.5,0.5-2v-0.1c-0.8-0.3-1.6-1-2-2.1
			C107.1,18.1,108.5,16.4,110.5,15.8z M97.9,20.5l0.6,1.1l0,0c0.5-1.1,1.1-2.1,2.4-2.6c1.9-0.8,3.3,0.3,4.2,2.5l2.2,5.6l-2.4,0.9
			l-2.1-5.3c-0.5-1.4-1.1-1.7-2-1.4c-0.7,0.3-1.1,0.8-1.5,1.7l2.4,6.2l-2.4,0.9l-3.5-9L97.9,20.5z M96.9,31.5l-2.3,1.1l-4.1-8.7
			l2.3-1.1L96.9,31.5z M89.8,19.4c0.8-0.4,1.6-0.1,1.9,0.6c0.4,0.8,0,1.5-0.7,1.9c-0.8,0.4-1.6,0.1-1.9-0.6
			C88.7,20.5,89,19.7,89.8,19.4z M82.9,27.5c1-0.5,1.7-0.5,2.6-0.3l-0.8-1.3l-1.6-3l2.2-1.2l6.7,12l-1.8,1L89.5,34h-0.1
			c-0.3,0.9-0.9,1.9-1.7,2.4c-2.1,1.2-4.4,0.3-5.9-2.5S81.1,28.5,82.9,27.5z M73.8,33.1c2-1.4,3.9-0.8,5.4,1.5l3.1,4.7l-1.7,1.2
			l-0.7-0.8h-0.1c-0.3,1.1-0.8,2.1-1.7,2.7c-1.4,1-3.1,0.6-4-0.8c-1.2-1.7-0.4-3.5,2.6-6.1c-0.6-0.8-1.3-1.1-2.3-0.5
			c-0.7,0.5-1.2,1.3-1.7,2.2L71,36.3C71.7,35.2,72.5,33.9,73.8,33.1z M65.1,39.4c2.1-1.6,4.4-1,6,1.1c0.3,0.4,0.5,0.8,0.6,1L67,45.2
			c1.1,1.1,2.5,1.1,3.6,0.2c0.6-0.5,1-1.1,1.3-1.9l1.6,0.7c-0.3,1.1-1,2.2-2,2.9c-2.1,1.7-4.9,1.5-6.9-1
			C62.8,43.7,63.3,40.8,65.1,39.4z M54.3,44.9c1.9-1.8,4.1-2.6,6.1-0.4c1.3,1.4,1.4,2.9,0.7,4.3l5.7,1.8l-2.1,1.9l-5.2-1.7L58.3,52
			l3.3,3.5l-1.9,1.7L51,47.9L54.3,44.9z M47.5,52.4l1.9,1.8l1.6-1.7l1.5,1.4l-1.6,1.7l3.1,2.9c0.8,0.7,1.5,0.8,2.1,0.1
			c0.2-0.2,0.4-0.6,0.5-0.8l1.6,0.9c-0.2,0.5-0.5,1.1-1.1,1.7c-1.6,1.7-3.2,1.3-4.8-0.1l-3.1-2.9l-0.9,1l-1.4-1.3l0.9-1.2l-1.7-2
			L47.5,52.4z M43.4,61l1.4,0.9l0,0c-0.5-1.3-0.4-2.6,0.2-3.3c0.3-0.4,0.6-0.6,0.9-0.7l1.4,1.7c-0.3,0.2-0.5,0.4-0.8,0.7
			c-0.5,0.6-0.7,1.6,0.1,2.9l4.4,3.6l-1.6,2l-7.5-6.1L43.4,61z M37.7,68.2c1.4-2,3.3-2.2,5.6-0.6l4.6,3.2l-1.2,1.7L45.8,72v0.1
			c0.1,1.1,0,2.2-0.6,3.1c-1,1.4-2.6,1.6-4,0.7c-1.7-1.2-1.6-3.2,0.3-6.6c-0.8-0.5-1.6-0.6-2.3,0.4c-0.5,0.7-0.7,1.7-0.8,2.7
			l-1.9-0.2C36.5,70.9,36.8,69.4,37.7,68.2z M27.7,85l1.2,0.5l0,0c-0.3-1.1-0.5-2.2,0.1-3.3c0.7-1.2,1.6-1.6,2.8-1.5
			c-0.4-1.2-0.6-2.4,0-3.5c1-1.8,2.7-1.9,4.8-0.7l5.2,2.9l-1.2,2.2l-5-2.8c-1.3-0.7-2-0.6-2.4,0.2c-0.3,0.5-0.3,1.2,0,2.2l5.8,3.2
			l-1.2,2.2l-5-2.8c-1.3-0.7-2-0.6-2.4,0.2c-0.3,0.5-0.3,1.2,0,2.1l5.8,3.2L35,91.5l-8.4-4.7L27.7,85z M20.6,92.4
			c0.6-1.4,1.7-2.5,3.1-3l1,1.8c-0.9,0.5-1.6,1.1-2,2.1s-0.3,1.9,0.5,2.2c0.8,0.4,1.5-0.3,2.3-1.2l1.3-1.3c1.2-1.2,2.5-1.7,4.2-1
			c1.9,0.8,2.9,3.1,1.7,5.8c-0.7,1.6-1.9,2.9-3.5,3.6l-1-2c1.1-0.5,2.1-1.4,2.6-2.4c0.5-1.2,0.3-2.1-0.6-2.4
			c-0.9-0.4-1.4,0.2-2.3,1.1L26.6,97c-1,1-2.4,1.8-4.2,1C20.4,97.1,19.6,94.8,20.6,92.4z M12.6,114.2l3.4,0.9l1.7,0.6
			c-0.5-0.9-0.9-2-0.6-3.3c0.5-2,2.1-2.5,4.5-1.9l5.8,1.5l-0.6,2.5l-5.5-1.4c-1.5-0.4-2.1-0.1-2.3,0.8c-0.2,0.8,0,1.3,0.6,2.2
			l6.4,1.6l-0.6,2.5L12,116.7L12.6,114.2z M14.5,159.6c-0.9-0.8-1.6-1.7-1.7-3c-0.2-2.1,1.2-3.1,3.6-3.3l6-0.4l0.2,2.5l-5.7,0.4
			c-1.5,0.1-2,0.6-1.9,1.5c0.1,0.8,0.5,1.3,1.2,1.9l6.6-0.5l0.2,2.5l-9.6,0.7l-0.1-2.1L14.5,159.6L14.5,159.6z M22.1,149.4
			L22.1,149.4c-0.4,0.5-0.9,0.9-1.7,0.9c-0.7,0-1.4-0.5-1.8-1.1h-0.1c-0.5,0.7-1.4,1.3-2.6,1.2c-2.3,0-3.4-1.9-3.4-3.9
			c0-0.5,0.1-1,0.3-1.4l0.1-3.5h1.9v1.6c0.3-0.2,0.9-0.4,1.5-0.4c2.2,0,3.2,1.7,3.2,3.8c0,0.4-0.1,0.8-0.2,1.2
			c0.2,0.3,0.4,0.4,0.8,0.4c0.5,0,0.8-0.4,0.8-1.5v-1.6c0-2.3,0.8-3.6,2.5-3.6c1.9,0,3.4,2.1,3.3,5.3c0,2.3-0.8,4-2.5,4
			C23.2,150.8,22.5,150.3,22.1,149.4z M17.1,125.5c0.7,0.1,1.1-0.7,1.6-1.7c0.7-1.2,1.6-2.5,3.3-2.2c1.7,0.3,2.8,1.8,2.4,4.3
			c-0.2,1.3-1,2.6-2,3.4l-1.4-1.4c0.8-0.7,1.3-1.5,1.5-2.4c0.2-1-0.2-1.4-0.8-1.5c-0.7-0.1-1.2,0.8-1.8,1.7
			c-0.7,1.1-1.6,2.3-3.2,2.1c-1.7-0.3-2.7-1.9-2.3-4c0.2-1.4,1-2.3,1.7-3l1.3,1.4c-0.6,0.6-1,1.2-1.2,1.9
			C16.3,124.9,16.6,125.4,17.1,125.5z M23.4,131.5l-0.3,2.5l-9.6-1.1l0.3-2.5L23.4,131.5z M10.9,129.8c0.8,0.1,1.3,0.8,1.2,1.6
			c-0.1,0.9-0.7,1.4-1.6,1.3c-0.8-0.1-1.3-0.8-1.2-1.6C9.5,130.3,10.1,129.7,10.9,129.8z M9.1,136.1l11.1,0.8c0.6,0,0.8-0.2,0.8-0.4
			c0-0.1,0-0.2,0-0.3l1.9-0.2c0.1,0.3,0.2,0.7,0.1,1.3c-0.1,1.8-1.3,2.3-3.1,2.2l-11-0.8L9.1,136.1z M10.8,165.9l2.1-0.3l0.8,5.2
			l2.9-0.5l-0.7-4.4l2.1-0.3l0.7,4.4l3.4-0.5l-0.9-5.4l2.1-0.3l1.3,7.9l-12.6,2L10.8,165.9z M22.3,179.6l-1.8,0.4l-1.1-4.6l1.8-0.4
			L22.3,179.6z M18.5,187.8c-0.2-0.5-0.2-1-0.2-1.5l-1-3.3l1.8-0.5l0.5,1.6c0.2-0.3,0.7-0.7,1.3-0.8c2.1-0.6,3.6,0.6,4.2,2.6
			c0.1,0.4,0.2,0.8,0.1,1.2c0.3,0.2,0.5,0.3,0.9,0.2c0.5-0.1,0.6-0.6,0.3-1.7l-0.5-1.6c-0.7-2.2-0.4-3.7,1.3-4.1
			c1.9-0.6,3.9,0.9,4.8,4c0.7,2.2,0.4,4.1-1.2,4.6c-0.8,0.2-1.6,0-2.3-0.7h-0.1c-0.2,0.6-0.5,1.1-1.3,1.3c-0.7,0.2-1.5-0.1-2-0.5H25
			c-0.3,0.8-1,1.6-2,2C20.8,191.1,19.1,189.7,18.5,187.8z M24.3,193.1l5.6-2.2l0.9,2.3l-5.3,2.1c-1.4,0.6-1.7,1.1-1.4,2
			c0.3,0.7,0.8,1.1,1.7,1.5l6.2-2.5l0.9,2.3l-8.9,3.6l-0.8-1.9l1.1-0.6l0,0c-1.1-0.5-2.1-1.1-2.6-2.3C21,195.4,22,194,24.3,193.1z
			 M24.1,209.2c-0.7,0.4-1.5,0-1.9-0.7c-0.4-0.8-0.1-1.6,0.6-1.9c0.8-0.4,1.5-0.1,1.9,0.7C25.1,208,24.8,208.8,24.1,209.2z
			 M30.3,215.3c-0.5-0.9-0.5-1.7-0.3-2.6l-1.3,0.8l-3,1.7l-1.2-2.2l12-6.7l1,1.8l-0.8,0.7v0.1c0.9,0.3,1.9,0.8,2.4,1.7
			c1.2,2.1,0.3,4.4-2.5,5.9C34,217.9,31.4,217.1,30.3,215.3z M39.3,227c-1.2-0.5-2.5-1.4-3.3-2.6c-1.4-2-0.9-3.9,1.4-5.4l4.7-3.2
			l1.2,1.7l-0.8,0.7v0.1c1.1,0.3,2.1,0.8,2.7,1.7c1,1.4,0.6,3.1-0.8,4c-1.7,1.2-3.5,0.4-6.1-2.6c-0.8,0.6-1.1,1.3-0.5,2.3
			c0.5,0.7,1.3,1.2,2.2,1.7L39.3,227z M42.3,233c-1.7-2.1-1-4.4,1.1-6c0.4-0.3,0.8-0.5,1-0.6l3.7,4.6c1.1-1.1,1.1-2.5,0.2-3.6
			c-0.5-0.6-1.1-1-1.9-1.3l0.7-1.6c1.1,0.3,2.2,1,2.9,2c1.7,2.1,1.5,4.9-1,6.9C46.7,235.3,43.8,234.8,42.3,233z M47.9,243.8
			c-1.8-1.9-2.6-4.1-0.5-6.1c1.4-1.3,2.9-1.4,4.3-0.8l1.7-5.8l2,2.1l-1.7,5.2l1.2,1.3l3.5-3.3l1.8,1.9l-9.3,8.8L47.9,243.8z
			 M58.9,250.2l-2,1.7l-1.6-1.4l1.8-1.9l-1.8-1.6l1.3-1.5l1.8,1.6l2.9-3.2c0.7-0.8,0.8-1.5,0.1-2.1c-0.2-0.2-0.6-0.4-0.8-0.5
			l0.9-1.6c0.5,0.2,1.1,0.5,1.7,1.1c1.7,1.5,1.4,3.2-0.1,4.8l-2.9,3.2l1,0.9l-1.3,1.4L58.9,250.2z M64.1,254.5l0.9-1.4l0,0
			c-1.3,0.5-2.6,0.4-3.4-0.2c-0.4-0.3-0.6-0.6-0.8-0.9l1.7-1.4c0.2,0.3,0.4,0.5,0.7,0.8c0.6,0.5,1.6,0.7,2.9-0.1l3.6-4.5l2,1.6
			l-6.1,7.5L64.1,254.5z M72.4,256.5c-0.5,0.8-0.6,1.6,0.4,2.3c0.7,0.5,1.7,0.7,2.7,0.8l-0.2,1.9c-1.3-0.1-2.8-0.4-4-1.3
			c-2-1.4-2.2-3.3-0.6-5.6l3.2-4.6l1.7,1.2l-0.5,0.9h0.1c1.1-0.1,2.2,0,3.1,0.6c1.4,1,1.6,2.6,0.7,4
			C77.8,258.5,75.9,258.4,72.4,256.5z M88.1,270.1l0.5-1.2l0,0c-1.1,0.3-2.2,0.5-3.3-0.1c-1.2-0.7-1.6-1.6-1.5-2.8
			c-1.2,0.4-2.4,0.6-3.5,0c-1.8-1-1.9-2.7-0.8-4.8l2.9-5.3l2.2,1.2l-2.8,5c-0.7,1.3-0.6,2,0.2,2.4c0.5,0.3,1.2,0.2,2.2-0.1l3.2-5.8
			l2.2,1.2l-2.8,5c-0.7,1.3-0.6,2,0.2,2.4c0.5,0.3,1.2,0.2,2.1-0.1l3.2-5.8l2.2,1.2l-4.7,8.4L88.1,270.1z M102.5,269.7
			c-0.5-1.1-1.4-2.1-2.4-2.6c-1.2-0.5-2.1-0.3-2.4,0.6c-0.4,0.9,0.2,1.4,1.1,2.3l1.3,1.3c1,1,1.8,2.4,1.1,4.2
			c-0.8,1.9-3.1,2.7-5.5,1.7c-1.4-0.6-2.5-1.7-3.1-3.1l1.8-1c0.5,0.9,1.1,1.6,2.1,2s1.9,0.2,2.2-0.5c0.4-0.8-0.3-1.5-1.2-2.3
			l-1.3-1.3c-1.2-1.2-1.7-2.5-1-4.2c0.8-1.9,3.1-2.9,5.8-1.7c1.6,0.7,2.9,1.9,3.6,3.5L102.5,269.7z M119.9,285.7l-2.5-0.6l0.8-3.4
			l0.6-1.7c-0.9,0.5-2,1-3.3,0.6c-2-0.5-2.5-2.1-2-4.5l1.4-5.8l2.5,0.6l-1.4,5.5c-0.4,1.5-0.1,2.1,0.8,2.3c0.8,0.2,1.3-0.1,2.2-0.6
			l1.6-6.4l2.5,0.6L119.9,285.7z M131.1,276.5c-0.7-0.8-1.5-1.3-2.4-1.5c-1-0.2-1.4,0.2-1.5,0.8c-0.1,0.7,0.8,1.2,1.8,1.8
			c1.1,0.7,2.3,1.6,2.1,3.2c-0.3,1.7-1.9,2.7-4,2.3c-1.4-0.2-2.3-1-3-1.7l1.4-1.3c0.6,0.6,1.2,1,1.9,1.2c0.9,0.1,1.3-0.2,1.4-0.7
			c0.1-0.7-0.7-1.1-1.7-1.6c-1.2-0.7-2.5-1.5-2.2-3.3c0.3-1.7,1.8-2.8,4.3-2.4c1.3,0.2,2.6,1,3.4,1.9L131.1,276.5z M134.4,288.2
			c-0.9-0.1-1.4-0.7-1.3-1.5c0.1-0.8,0.8-1.3,1.6-1.2c0.9,0.1,1.4,0.7,1.3,1.6C135.9,287.9,135.3,288.3,134.4,288.2z M136.1,284.1
			l-2.5-0.3l1.1-9.6l2.5,0.3L136.1,284.1z M141.9,288.6l-2.5-0.2l0.7-11.1c0-0.6-0.2-0.8-0.4-0.8c-0.1,0-0.2,0-0.3,0l-0.2-1.9
			c0.3-0.1,0.7-0.2,1.3-0.1c1.8,0.1,2.3,1.3,2.2,3.1L141.9,288.6z M153.4,277.2c0,0.7-0.5,1.4-1.1,1.8v0.1c0.7,0.5,1.3,1.4,1.2,2.6
			c0,2.3-1.9,3.4-3.9,3.4c-0.5,0-1-0.1-1.4-0.3l-3.5-0.1v-1.9h1.6c-0.2-0.3-0.4-0.9-0.4-1.5c0-2.2,1.7-3.2,3.8-3.2
			c0.4,0,0.8,0.1,1.2,0.2c0.3-0.2,0.4-0.4,0.4-0.8c0-0.5-0.4-0.8-1.5-0.8h-1.6c-2.3,0-3.6-0.8-3.6-2.5c0-1.9,2.1-3.4,5.3-3.3
			c2.3,0,4,0.8,4,2.5c0,0.8-0.5,1.5-1.4,2v0.1C153.1,275.9,153.4,276.4,153.4,277.2z M163.1,284.1l-0.3-1.3h-0.1
			c-0.8,0.9-1.7,1.7-3,1.8c-2.1,0.2-3.1-1.2-3.3-3.6l-0.5-6l2.5-0.2l0.5,5.7c0.1,1.5,0.6,2,1.5,1.9c0.8-0.1,1.3-0.5,1.9-1.2
			l-0.5-6.6l2.5-0.2l0.8,9.6L163.1,284.1z M169.2,286.6l-0.4-2.1l5.2-0.9l-0.5-2.9l-4.4,0.7l-0.4-2.1l4.4-0.7l-0.6-3.4l-5.4,0.9
			l-0.3-2.1l7.9-1.3l2.1,12.6L169.2,286.6z M178.6,277.9l-0.4-1.8l4.6-1.1l0.4,1.8L178.6,277.9z M191,278.8c-0.5,0.2-1,0.2-1.5,0.2
			l-3.3,1l-0.5-1.8l1.6-0.5c-0.3-0.2-0.7-0.7-0.8-1.3c-0.6-2.1,0.6-3.6,2.6-4.2c0.4-0.1,0.8-0.2,1.2-0.2c0.2-0.3,0.3-0.5,0.1-0.9
			c-0.2-0.5-0.6-0.6-1.7-0.3l-1.6,0.5c-2.2,0.7-3.7,0.4-4.2-1.2c-0.6-1.9,0.9-3.9,4-4.8c2.2-0.7,4.1-0.5,4.6,1.2
			c0.2,0.8,0,1.6-0.7,2.3v0.1c0.6,0.2,1.1,0.5,1.3,1.3c0.2,0.7-0.1,1.5-0.5,2v0.1c0.8,0.3,1.6,0.9,2,2
			C194.3,276.5,192.9,278.2,191,278.8z M203.5,273.9l-0.7-1.1l0,0c-0.5,1.1-1.1,2.1-2.3,2.6c-1.9,0.8-3.3-0.2-4.2-2.5l-2.3-5.6
			l2.3-1l2.1,5.3c0.6,1.4,1.1,1.7,2,1.4c0.7-0.3,1.1-0.8,1.4-1.8l-2.5-6.1l2.3-1l3.6,8.9L203.5,273.9z M204.4,263l2.3-1.1l4.2,8.7
			l-2.3,1.1L204.4,263z M211.6,275c-0.8,0.4-1.6,0.1-1.9-0.6c-0.4-0.8-0.1-1.5,0.7-1.9s1.6-0.1,1.9,0.6
			C212.7,273.9,212.4,274.6,211.6,275z M218.4,266.8c-0.9,0.5-1.7,0.5-2.6,0.3l0.8,1.3l1.7,2.9l-2.2,1.2l-6.8-11.9l1.8-1l0.7,0.8
			h0.1c0.3-0.9,0.8-1.9,1.7-2.4c2.1-1.2,4.4-0.3,5.9,2.5C221,263.1,220.2,265.8,218.4,266.8z M227.5,261.1c-2,1.4-3.9,0.9-5.5-1.4
			l-3.2-4.6l1.7-1.2l0.7,0.8h0.1c0.3-1.1,0.8-2.1,1.7-2.7c1.4-1,3-0.6,4,0.7c1.2,1.7,0.4,3.5-2.6,6.1c0.6,0.8,1.3,1.1,2.3,0.4
			c0.7-0.5,1.2-1.3,1.7-2.3l1.7,0.9C229.6,259,228.8,260.2,227.5,261.1z M236.1,254.7c-2.1,1.7-4.4,1-6-1.1c-0.3-0.4-0.6-0.8-0.6-1
			l4.6-3.7c-1.2-1.1-2.5-1.1-3.6-0.2c-0.6,0.5-1,1.1-1.3,1.9l-1.6-0.7c0.3-1.1,1-2.2,1.9-2.9c2.1-1.7,4.9-1.6,6.9,0.9
			C238.3,250.4,237.9,253.3,236.1,254.7z M246.9,249.1c-1.9,1.8-4.1,2.6-6.1,0.5c-1.3-1.4-1.4-2.9-0.8-4.3l-5.8-1.7l2.1-2l5.2,1.7
			l1.3-1.2l-3.3-3.5l1.8-1.8l8.8,9.2L246.9,249.1z M253.5,241.5l-1.9-1.7l-1.6,1.8l-1.5-1.3l1.6-1.8l-3.2-2.9
			c-0.8-0.7-1.5-0.7-2.1-0.1c-0.2,0.2-0.4,0.6-0.5,0.8l-1.6-0.9c0.2-0.5,0.5-1.1,1.1-1.8c1.5-1.7,3.2-1.4,4.8,0.1l3.2,2.9l0.9-1
			l1.4,1.3l-0.9,1.2l1.7,2L253.5,241.5z M257.5,232.8l-1.5-0.9l0,0c0.5,1.3,0.4,2.6-0.2,3.4c-0.3,0.4-0.6,0.6-0.9,0.8l-1.4-1.7
			c0.3-0.2,0.5-0.4,0.8-0.7c0.5-0.6,0.7-1.6-0.1-2.9l-4.5-3.6l1.6-2l7.5,6L257.5,232.8z M263.2,225.6c-1.4,2-3.3,2.2-5.6,0.6
			L253,223l1.2-1.7l1,0.4v-0.1c-0.1-1.1,0-2.2,0.6-3.1c1-1.4,2.6-1.7,4-0.7c1.7,1.2,1.6,3.2-0.2,6.6c0.8,0.5,1.6,0.6,2.3-0.4
			c0.5-0.7,0.7-1.7,0.8-2.7l1.9,0.2C264.4,222.9,264,224.3,263.2,225.6z M273,208.7l-1.2-0.4l0,0c0.4,1.1,0.5,2.2-0.1,3.3
			c-0.7,1.2-1.6,1.6-2.7,1.5c0.4,1.2,0.6,2.4,0,3.5c-1,1.8-2.7,1.9-4.8,0.8l-5.3-2.9l1.2-2.2l5,2.7c1.3,0.7,2,0.6,2.4-0.2
			c0.3-0.5,0.2-1.2-0.1-2.2l-5.8-3.2l1.2-2.2l5,2.7c1.3,0.7,2,0.6,2.4-0.2c0.3-0.5,0.2-1.2-0.1-2.1l-5.8-3.2l1.2-2.2l8.5,4.6
			L273,208.7z M280,201.2c-0.6,1.4-1.7,2.5-3,3.1l-1-1.8c0.9-0.5,1.6-1.1,2-2.1s0.2-1.9-0.5-2.2c-0.8-0.3-1.5,0.4-2.3,1.2l-1.3,1.3
			c-1.2,1.2-2.5,1.8-4.2,1.1c-1.9-0.8-2.9-3.1-1.8-5.8c0.6-1.6,1.9-2.9,3.5-3.6l1.1,2c-1.1,0.5-2.1,1.4-2.5,2.5
			c-0.5,1.2-0.2,2.1,0.6,2.4c0.9,0.4,1.4-0.2,2.3-1.1l1.3-1.3c1-1,2.4-1.8,4.2-1.1C280.2,196.5,280.9,198.8,280,201.2z M287.8,179.3
			l-3.4-0.8l-1.7-0.5c0.5,0.9,1,2,0.7,3.3c-0.5,2-2.1,2.6-4.5,2l-5.8-1.4l0.6-2.5l5.5,1.3c1.5,0.4,2.1,0.1,2.3-0.8
			c0.2-0.8-0.1-1.3-0.6-2.2l-6.4-1.6l0.6-2.5l13.3,3.2L287.8,179.3z M289.3,163.6c-0.8-0.1-1.3-0.7-1.2-1.6c0.1-0.9,0.7-1.4,1.5-1.3
			c0.8,0.1,1.3,0.7,1.2,1.6C290.7,163.2,290.1,163.7,289.3,163.6z M279.9,156.7c-0.6,0-0.8,0.2-0.8,0.5c0,0.1,0,0.2,0,0.3l-1.9,0.2
			c-0.1-0.3-0.2-0.7-0.1-1.3c0.1-1.8,1.3-2.3,3.1-2.2l11,0.7l-0.2,2.5L279.9,156.7z"/>
		<path class="st0" d="M214,260.1c-0.6,0.3-0.9,0.9-1.1,1.8l2.1,3.7c0.8,0.2,1.4,0,1.9-0.3c0.9-0.5,1.2-1.9,0.3-3.6
			C216.2,260,215.1,259.4,214,260.1z"/>
	</g>
	<path class="st0" d="M150,258.9c-60,0-108.9-48.8-108.9-108.9S90,41.1,150,41.1S258.9,90,258.9,150S210,258.9,150,258.9z M150,45.3
		c-57.7,0-104.7,47-104.7,104.7s47,104.7,104.7,104.7s104.7-47,104.7-104.7S207.7,45.3,150,45.3z"/>
</g>
<g>
	<path class="st0" d="M52.8,143.3h4.8l0.4,4h0.1c1.6-2.9,4.1-4.5,6.4-4.5c1.2,0,2,0.2,2.7,0.5l-1,5.1c-0.8-0.2-1.4-0.4-2.4-0.4
		c-1.8,0-3.9,1.2-5.1,4.4v13.4h-5.9V143.3z"/>
	<path class="st0" d="M68.4,154.5c0-7.3,5.1-11.8,10.5-11.8c6.2,0,9.4,4.5,9.4,10.7c0,1.1-0.1,2.2-0.3,2.7H74.2
		c0.5,3.7,2.9,5.6,6.2,5.6c1.8,0,3.5-0.6,5.1-1.6l2,3.6c-2.2,1.5-5.1,2.5-7.8,2.5C73.3,166.3,68.4,161.9,68.4,154.5z M83.2,152.2
		c0-3-1.4-4.9-4.3-4.9c-2.4,0-4.5,1.7-4.9,4.9H83.2z"/>
	<path class="st0" d="M91.9,154.5c0-7.3,4.6-11.8,9.4-11.8c2.5,0,4.1,1,5.7,2.4l-0.2-3.5v-7.9h5.9v32h-4.8l-0.4-2.3h-0.2
		c-1.6,1.6-3.9,2.9-6.2,2.9C95.5,166.3,91.9,161.9,91.9,154.5z M106.8,159.1v-9.9c-1.4-1.2-2.8-1.7-4.2-1.7c-2.5,0-4.7,2.4-4.7,6.9
		c0,4.7,1.7,7,4.7,7C104.2,161.4,105.5,160.8,106.8,159.1z"/>
	<path class="st0" d="M117.6,154.5c0-7.3,5.1-11.8,10.5-11.8c6.2,0,9.4,4.5,9.4,10.7c0,1.1-0.1,2.2-0.3,2.7h-13.9
		c0.5,3.7,2.9,5.6,6.2,5.6c1.8,0,3.5-0.6,5.1-1.6l2,3.6c-2.2,1.5-5.1,2.5-7.8,2.5C122.5,166.3,117.6,161.9,117.6,154.5z
		 M132.4,152.2c0-3-1.4-4.9-4.3-4.9c-2.4,0-4.5,1.7-4.9,4.9H132.4z"/>
	<path class="st0" d="M140.9,154.5c0-7.3,5.1-11.8,10.5-11.8c6.2,0,9.4,4.5,9.4,10.7c0,1.1-0.1,2.2-0.3,2.7h-13.9
		c0.5,3.7,2.9,5.6,6.2,5.6c1.8,0,3.5-0.6,5.1-1.6l2,3.6c-2.2,1.5-5.1,2.5-7.8,2.5C145.8,166.3,140.9,161.9,140.9,154.5z
		 M155.7,152.2c0-3-1.4-4.9-4.3-4.9c-2.4,0-4.5,1.7-4.9,4.9H155.7z"/>
	<path class="st0" d="M165.7,143.3h4.8l0.4,3h0.1c1.9-2,4-3.6,6.9-3.6c3.2,0,5.1,1.4,6.2,3.9c2-2.2,4.2-3.9,7.1-3.9c4.8,0,7,3.4,7,9
		v14h-5.9v-13.3c0-3.5-1-4.7-3.1-4.7c-1.3,0-2.7,0.8-4.3,2.5v15.5H179v-13.3c0-3.5-1-4.7-3.2-4.7c-1.3,0-2.7,0.8-4.3,2.5v15.5h-5.9
		V143.3z"/>
	<path class="st0" d="M203,154.5c0-7.3,5.1-11.8,10.5-11.8c6.2,0,9.4,4.5,9.4,10.7c0,1.1-0.1,2.2-0.3,2.7h-13.9
		c0.5,3.7,2.9,5.6,6.2,5.6c1.8,0,3.5-0.6,5.1-1.6l2,3.6c-2.2,1.5-5.1,2.5-7.8,2.5C207.9,166.3,203,161.9,203,154.5z M217.8,152.2
		c0-3-1.4-4.9-4.3-4.9c-2.4,0-4.5,1.7-4.9,4.9H217.8z"/>
	<path class="st0" d="M226.4,154.5c0-7.3,4.6-11.8,9.4-11.8c2.5,0,4.1,1,5.7,2.4l-0.2-3.5v-7.9h5.9v32h-4.8l-0.4-2.3h-0.2
		c-1.6,1.6-3.9,2.9-6.2,2.9C230,166.3,226.4,161.9,226.4,154.5z M241.3,159.1v-9.9c-1.4-1.2-2.8-1.7-4.2-1.7c-2.5,0-4.7,2.4-4.7,6.9
		c0,4.7,1.7,7,4.7,7C238.7,161.4,240,160.8,241.3,159.1z"/>
</g>
</svg>
