<?xml version="1.0" encoding="utf-8"?>
<!-- Generator: Adobe Illustrator 26.5.3, SVG Export Plug-In . SVG Version: 6.00 Build 0)  -->
<svg version="1.1" id="圖層_1" xmlns="http://www.w3.org/2000/svg" xmlns:xlink="http://www.w3.org/1999/xlink" x="0px" y="0px"
	 viewBox="0 0 150 150" style="enable-background:new 0 0 150 150;" xml:space="preserve">
<style type="text/css">
	.st0{fill:#FF6464;}
	.st1{fill:#FFFFFF;}
</style>
<circle class="st0" cx="75" cy="75" r="75"/>
<g id="圖層_2_00000062193467040350483540000000409758856009159605_">
</g>
<g id="圖層_1_1_">
	<g>
		<g>
			<polygon class="st1" points="74.5,31.1 42.2,58.7 42.2,58.6 19.2,58.6 19.2,68.8 19.2,81.2 19.2,91.4 42.2,91.4 42.2,91.3 
				74.5,118.9 82.9,118.9 82.9,81.2 82.9,68.8 82.9,31.1 			"/>
			<path class="st1" d="M82.9,123h-8.4c-1,0-2-0.4-2.7-1L40.8,95.5H19.2c-2.3,0-4.2-1.9-4.2-4.2V58.6c0-2.3,1.9-4.2,4.2-4.2h21.7
				L71.8,28c0.8-0.6,1.7-1,2.7-1h8.4c2.3,0,4.2,1.9,4.2,4.2v87.7C87,121.2,85.2,123,82.9,123z M76,114.7h2.7V35.3H76L45,61.9
				c-1,0.9-2.4,1.2-3.7,0.9H23.3v24.4h18.1c1.2-0.2,2.5,0,3.5,0.9L76,114.7z"/>
		</g>
		<path class="st1" d="M99.9,97.5c-1,0-2.1-0.4-2.9-1.1c-1.7-1.6-1.7-4.2-0.1-5.9c14.6-15.4,0.6-30.3,0-30.9
			c-1.6-1.7-1.5-4.3,0.1-5.9c1.7-1.6,4.3-1.5,5.9,0.1c7,7.3,16.1,25.6,0,42.5C102.1,97.1,101,97.5,99.9,97.5z"/>
		<path class="st1" d="M116.2,113.7c-1,0-2.1-0.4-2.9-1.1c-1.7-1.6-1.7-4.2-0.1-5.9c29.8-31.3,1.2-61.9,0-63.2
			c-1.6-1.7-1.5-4.3,0.1-5.9c1.7-1.6,4.3-1.5,5.9,0.1c0.4,0.4,35.4,37.6,0,74.8C118.4,113.2,117.3,113.7,116.2,113.7z"/>
	</g>
</g>
</svg>
