<?xml version="1.0" encoding="utf-8"?>
<!-- Generator: Adobe Illustrator 26.5.0, SVG Export Plug-In . SVG Version: 6.00 Build 0)  -->
<svg version="1.1" id="圖層_1" xmlns="http://www.w3.org/2000/svg" xmlns:xlink="http://www.w3.org/1999/xlink" x="0px" y="0px"
	 viewBox="0 0 300 300" style="enable-background:new 0 0 300 300;" xml:space="preserve">
<style type="text/css">
	.st0{fill:#FFFFFF;}
</style>
<g>
	<path class="st0" d="M222.6,194.3L222.6,194.3c3.5,0,6.4,2.9,6.4,6.4v14.9c0,3.5-2.9,6.4-6.4,6.4h0c-3.5,0-6.4-2.9-6.4-6.4v-14.9
		C216.2,197.2,219.1,194.3,222.6,194.3z"/>
	<path class="st0" d="M222.6,155.6L222.6,155.6c3.5,0,6.4,2.9,6.4,6.4v14.9c0,3.5-2.9,6.4-6.4,6.4h0c-3.5,0-6.4-2.9-6.4-6.4v-14.9
		C216.2,158.4,219.1,155.6,222.6,155.6z"/>
	<path class="st0" d="M222.6,116.8L222.6,116.8c3.5,0,6.4,2.9,6.4,6.4v14.9c0,3.5-2.9,6.4-6.4,6.4h0c-3.5,0-6.4-2.9-6.4-6.4v-14.9
		C216.2,119.6,219.1,116.8,222.6,116.8z"/>
	<path class="st0" d="M222.6,78L222.6,78c3.5,0,6.4,2.9,6.4,6.4v14.9c0,3.5-2.9,6.4-6.4,6.4h0c-3.5,0-6.4-2.9-6.4-6.4V84.4
		C216.2,80.8,219.1,78,222.6,78z"/>
	<g>
		<path class="st0" d="M0,112.4c2.4-0.4,4.8-0.5,7.2-0.5s4.9,0.2,7.2,0.5V90.7h271.1v21.7c2.4-0.4,4.8-0.5,7.2-0.5s4.9,0.2,7.2,0.5
			V83.8c0-3.2-3-5.9-6.6-5.9c-0.2,0-0.4,0-0.6,0c-0.2,0-0.4,0-0.6,0H6.6C3,78,0,80.6,0,83.8c0,0.2,0,0.4,0,0.5c0,0.2,0,0.4,0,0.5
			V112.4z"/>
		<path class="st0" d="M300,187.6c-2.4,0.4-4.8,0.5-7.2,0.5s-4.9-0.2-7.2-0.5v21.7H14.5v-21.7c-2.4,0.4-4.8,0.5-7.2,0.5
			s-4.9-0.2-7.2-0.5v28.6c0,3.2,3,5.9,6.6,5.9c0.2,0,0.4,0,0.6,0c0.2,0,0.4,0,0.6,0h285.5c3.7,0,6.6-2.6,6.6-5.9v0
			c0-0.2,0-0.4,0-0.5c0-0.2,0-0.4,0-0.5V187.6z"/>
	</g>
	<path class="st0" d="M6.2,194.3c-3.5,0-6.2-2.8-6.2-6.2c0-3.5,2.8-6.2,6.2-6.2c17.6,0,31.9-14.3,31.9-31.9
		c0-17.6-14.3-31.9-31.9-31.9c-3.5,0-6.2-2.8-6.2-6.2s2.8-6.2,6.2-6.2c24.5,0,44.3,19.9,44.3,44.4S30.7,194.3,6.2,194.3z"/>
	<path class="st0" d="M293.8,194.3c-24.5,0-44.4-19.9-44.4-44.3s19.9-44.4,44.4-44.4c3.5,0,6.2,2.8,6.2,6.2s-2.8,6.2-6.2,6.2
		c-17.6,0-31.9,14.3-31.9,31.9c0,17.6,14.3,31.9,31.9,31.9c3.5,0,6.2,2.8,6.2,6.2C300,191.6,297.2,194.3,293.8,194.3z"/>
	<g>
		<path class="st0" d="M68,141h-7.5v-4.5H81v4.5h-7.6v22.4H68V141z"/>
		<path class="st0" d="M88,136.6h5.4v26.8H88V136.6z"/>
		<path class="st0" d="M101.4,150.1c0-8.8,5.7-14,12.5-14c3.4,0,6.1,1.6,7.9,3.4l-2.8,3.4c-1.4-1.3-2.9-2.2-5-2.2
			c-4.1,0-7.1,3.5-7.1,9.2c0,5.8,2.8,9.3,7,9.3c2.3,0,4.1-1.1,5.5-2.6l2.8,3.3c-2.2,2.6-5.1,3.9-8.6,3.9
			C106.9,163.9,101.4,159.1,101.4,150.1z"/>
		<path class="st0" d="M129.2,136.6h5.4v11.7h0.1l8.9-11.7h5.9l-8.2,10.6l9.6,16.3h-5.9l-7-12.1l-3.5,4.5v7.5h-5.4V136.6z"/>
		<path class="st0" d="M156.8,136.6h16.5v4.5h-11.1v6.2h9.4v4.5h-9.4v7.2h11.5v4.5h-16.8V136.6z"/>
		<path class="st0" d="M187.1,141h-7.5v-4.5h20.5v4.5h-7.6v22.4h-5.4V141z"/>
	</g>
</g>
</svg>
