<?xml version="1.0" encoding="UTF-8"?>
<svg xmlns="http://www.w3.org/2000/svg" version="1.1" viewBox="0 0 2119.3 150">
  <defs>
    <style>
      .cls-1 {
        fill: #ec7563;
      }

      .cls-2 {
        fill: #595757;
      }

      .cls-3 {
        fill: #2e3233;
      }

      .cls-4 {
        fill: #dfc44a;
      }
    </style>
  </defs>
  <!-- Generator: Adobe Illustrator 28.7.8, SVG Export Plug-In . SVG Version: 1.2.0 Build 200)  -->
  <g>
    <g id="_圖層_1" data-name="圖層_1">
      <g>
        <path class="cls-3" d="M1266.6,416.3l23.5-71h12.9l23.5,71h-11.8l-11.5-38.5c-1.2-3.9-2.3-7.8-3.4-11.7-1.1-3.9-2.2-7.9-3.3-11.9h-.4c-1,4-2.1,8-3.2,11.9-1.1,3.9-2.3,7.8-3.4,11.7l-11.5,38.5h-11.5ZM1279.9,396.2v-8.9h33.1v8.9h-33.1Z"/>
        <path class="cls-3" d="M1360.5,417.7c-4.9,0-9.5-.9-13.8-2.8-4.3-1.9-8.1-4.4-11.4-7.7l6.5-7.7c2.6,2.5,5.5,4.5,8.8,6.1,3.3,1.5,6.7,2.3,10.2,2.3s7.5-.9,9.8-2.8c2.3-1.9,3.4-4.3,3.4-7.2s-.5-3.9-1.4-5.2c-1-1.3-2.3-2.4-4-3.3-1.7-.9-3.6-1.8-5.8-2.8l-9.8-4.2c-2.3-1-4.6-2.2-6.8-3.8-2.2-1.6-4-3.6-5.5-6-1.4-2.4-2.2-5.3-2.2-8.8s1-7.1,3-10c2-3,4.8-5.3,8.3-7,3.5-1.7,7.5-2.6,12-2.6s8.1.8,11.8,2.4c3.7,1.6,6.9,3.8,9.5,6.5l-5.7,7.1c-2.2-2-4.6-3.5-7.2-4.7-2.5-1.1-5.4-1.7-8.5-1.7s-6.5.8-8.7,2.5c-2.1,1.6-3.2,3.8-3.2,6.6s.5,3.7,1.6,5.1c1.1,1.3,2.5,2.4,4.3,3.3,1.8.9,3.6,1.7,5.4,2.5l9.7,4.1c2.8,1.2,5.3,2.6,7.5,4.2,2.2,1.7,3.9,3.7,5.1,6.1,1.2,2.4,1.8,5.3,1.8,8.9s-1,7.2-3,10.4c-2,3.1-4.8,5.6-8.6,7.5-3.7,1.9-8.2,2.8-13.4,2.8Z"/>
        <path class="cls-3" d="M1415.1,416.3v-61.5h-20.7v-9.4h52.9v9.4h-20.8v61.5h-11.4Z"/>
        <path class="cls-3" d="M1464,416.3v-71h23.2c4.9,0,9.2.7,13.1,2,3.9,1.3,6.9,3.5,9.2,6.5,2.2,3,3.4,7,3.4,12.2s-1.1,9-3.4,12.2c-2.2,3.2-5.3,5.6-9.2,7.2-3.9,1.6-8.2,2.4-13.1,2.4h-12v28.6h-11.2ZM1475.2,378.8h10.7c5.1,0,9.1-1.1,11.8-3.2,2.7-2.2,4.1-5.3,4.1-9.6s-1.4-7.3-4.1-9c-2.7-1.7-6.7-2.6-11.8-2.6h-10.7v24.4ZM1502.7,416.3l-17.6-31.6,8.3-6.5,22,38h-12.6Z"/>
        <path class="cls-3" d="M1521.3,416.3l23.5-71h12.9l23.5,71h-11.8l-11.5-38.5c-1.2-3.9-2.3-7.8-3.4-11.7-1.1-3.9-2.2-7.9-3.3-11.9h-.4c-1,4-2.1,8-3.2,11.9-1.1,3.9-2.3,7.8-3.4,11.7l-11.5,38.5h-11.5ZM1534.6,396.2v-8.9h33.1v8.9h-33.1Z"/>
        <path class="cls-3" d="M1635.8,368.6c2.1,0,4,.5,5.7,1.5,1.7,1,3,2.3,4,4,1,1.7,1.5,3.6,1.5,5.7s-.5,3.8-1.5,5.5c-1,1.7-2.3,3.1-4,4.1-1.7,1-3.6,1.5-5.7,1.5s-3.8-.5-5.5-1.5c-1.7-1-3.1-2.3-4.1-4-1-1.7-1.5-3.5-1.5-5.5s.5-4,1.5-5.7c1-1.7,2.3-3,4-4,1.7-1,3.5-1.5,5.5-1.5Z"/>
        <path class="cls-3" d="M1720,417.7c-4.9,0-9.5-.9-13.8-2.8-4.3-1.9-8.1-4.4-11.4-7.7l6.5-7.7c2.6,2.5,5.5,4.5,8.8,6.1,3.3,1.5,6.7,2.3,10.2,2.3s7.5-.9,9.8-2.8c2.3-1.9,3.4-4.3,3.4-7.2s-.5-3.9-1.4-5.2c-1-1.3-2.3-2.4-4-3.3-1.7-.9-3.6-1.8-5.8-2.8l-9.8-4.2c-2.3-1-4.6-2.2-6.8-3.8-2.2-1.6-4-3.6-5.5-6-1.4-2.4-2.2-5.3-2.2-8.8s1-7.1,3-10c2-3,4.8-5.3,8.3-7,3.5-1.7,7.5-2.6,12-2.6s8.1.8,11.8,2.4c3.7,1.6,6.9,3.8,9.5,6.5l-5.7,7.1c-2.2-2-4.6-3.5-7.2-4.7-2.5-1.1-5.4-1.7-8.5-1.7s-6.5.8-8.7,2.5c-2.1,1.6-3.2,3.8-3.2,6.6s.5,3.7,1.6,5.1c1.1,1.3,2.5,2.4,4.3,3.3,1.8.9,3.6,1.7,5.4,2.5l9.7,4.1c2.8,1.2,5.3,2.6,7.5,4.2,2.2,1.7,3.9,3.7,5.1,6.1,1.2,2.4,1.8,5.3,1.8,8.9s-1,7.2-3,10.4c-2,3.1-4.8,5.6-8.6,7.5-3.7,1.9-8.2,2.8-13.4,2.8Z"/>
        <path class="cls-3" d="M1762.8,416.3v-71h23.2c4.9,0,9.2.7,13.1,2,3.9,1.3,6.9,3.5,9.2,6.5,2.2,3,3.4,7,3.4,12.2s-1.1,9-3.4,12.2c-2.2,3.2-5.3,5.6-9.2,7.2-3.9,1.6-8.2,2.4-13.1,2.4h-12v28.6h-11.2ZM1774,378.8h10.7c5.1,0,9.1-1.1,11.8-3.2,2.7-2.2,4.1-5.3,4.1-9.6s-1.4-7.3-4.1-9c-2.7-1.7-6.7-2.6-11.8-2.6h-10.7v24.4ZM1801.5,416.3l-17.6-31.6,8.3-6.5,22,38h-12.6Z"/>
        <path class="cls-3" d="M1830.4,416.3v-71h41.9v9.4h-30.7v19.7h26v9.4h-26v22.8h31.8v9.5h-43Z"/>
        <path class="cls-3" d="M1926.3,356h9.3v27.5c0,3.4-.3,6.7-1,9.9-.6,3.2-1.8,6.3-3.6,9.3-1.8,3-4.3,5.9-7.6,8.5-3.3,2.7-7.5,5.1-12.6,7.4-5.1,2.2-11.4,4.2-18.9,6-.3-.7-.8-1.5-1.4-2.5-.6-.9-1.3-1.9-2-2.8-.7-.9-1.4-1.7-2.1-2.3,7.1-1.5,13.1-3.2,17.9-5.1,4.8-1.9,8.6-3.9,11.6-6.1,2.9-2.2,5.1-4.5,6.6-7,1.5-2.5,2.5-5,3-7.6.5-2.6.8-5.2.8-7.9v-27.4ZM1887.8,388.3h87.3v8.5h-87.3v-8.5ZM1889.9,344.2h39.2v7.8h-39.2v-7.8ZM1898.1,364.9h67.3v27.3h-9.2v-19.3h-49.3v19.3h-8.8v-27.3ZM1907.2,335h9.1v25.9h-9.1v-25.9ZM1932.9,404.7l4.3-6.5c3.1,1.2,6.5,2.6,10,4.1,3.5,1.5,7,3.2,10.5,4.9,3.5,1.7,6.8,3.4,9.9,5.1,3.1,1.6,5.7,3.2,7.8,4.7l-4.6,7.4c-2.1-1.4-4.6-3-7.6-4.7-3-1.7-6.3-3.5-9.7-5.3-3.5-1.8-7-3.5-10.5-5.2-3.5-1.7-6.9-3.2-10.1-4.5ZM1933.7,344h39.6v7.9h-39.6v-7.9ZM1947.4,335h9.2v25.7h-9.2v-25.7Z"/>
        <path class="cls-3" d="M1987.8,351.2h36.2v7.3h-36.2v-7.3ZM1991.8,390.1h7.8v33h-7.8v-33ZM1991.9,364.2h28.9v7.1h-28.9v-7.1ZM1991.9,377.1h28.9v7h-28.9v-7ZM1995.7,390.1h25.6v28.7h-25.6v-7.5h17.6v-13.8h-17.6v-7.4ZM1998.5,338.1l7-3.6c1.4,2,2.8,4.2,4.2,6.5,1.4,2.3,2.4,4.4,3.1,6.2l-7.4,4c-.6-1.7-1.6-3.9-3-6.4-1.3-2.5-2.7-4.8-3.9-6.8ZM2022.8,375.5h54.2v7.6h-54.2v-7.6ZM2025.3,338.9h49.5v7.6h-49.5v-7.6ZM2027.6,355.2h40.7v23.6h-8.5v-16.1h-32.3v-7.5ZM2028,389h43.3v35.2h-8.8v-27.3h-26.1v27.6h-8.5v-35.5ZM2032.2,412.7h35v7.9h-35v-7.9ZM2041.1,342l8.9.8c-.6,3.9-1.3,8-2.1,12.4-.8,4.4-1.6,8.7-2.4,12.8-.8,4.1-1.5,7.7-2.2,10.7h-9c.6-2.4,1.2-5.1,1.8-8,.6-3,1.2-6.1,1.8-9.4.6-3.3,1.2-6.6,1.7-9.9.5-3.3,1-6.4,1.4-9.2Z"/>
        <path class="cls-3" d="M2092.5,338.4h8.6v86h-8.6v-86ZM2097.2,349.7h25.8v5.5h-25.8v-5.5ZM2098,338.4h30.8v28.2h-30.8v-6h22.2v-16.2h-22.2v-6.1ZM2122,368.8l7.2,2.2c-1.6,2.1-3.5,4.2-5.7,6.3-2.2,2.1-4.6,3.9-7,5.7-2.5,1.7-4.9,3.2-7.4,4.5-.7-.7-1.6-1.5-2.6-2.4-1-.9-2-1.6-2.8-2.1,2.4-1.2,4.7-2.5,7.1-4,2.3-1.5,4.5-3.2,6.5-4.9,2-1.7,3.6-3.5,4.7-5.2ZM2120.5,399.9h7.4c-.4,3.5-1.2,6.5-2.5,9.2-1.3,2.7-3.1,5-5.6,6.9-2.5,1.9-5.9,3.6-10.2,4.9-.5-1-1.1-2.1-2-3.3s-1.7-2.2-2.6-2.8c3.7-.9,6.6-2,8.7-3.4,2.1-1.3,3.6-3,4.7-4.9,1-1.9,1.7-4.1,2-6.6ZM2114.3,382.2h36.1v18.6h-36.1v-18.6ZM2121.5,387.8v7.5h21.3v-7.5h-21.3ZM2134.5,398.1h7.7v12.4c0,1,0,1.6.3,1.8.2.3.7.4,1.5.4h5.2c.6,0,1-.2,1.3-.5.3-.3.5-1,.6-2,.2-1,.3-2.5.3-4.5.7.6,1.7,1.1,3,1.6,1.3.5,2.5.9,3.5,1.1-.3,4.3-1.1,7.2-2.2,8.6-1.2,1.4-3,2.2-5.5,2.2h-7.4c-2.2,0-4-.3-5.2-.8-1.2-.5-2.1-1.4-2.5-2.7-.4-1.3-.7-3-.7-5.3v-12.4ZM2135.2,372.6l4.9-3.8c2.3,1.3,4.7,2.9,7.3,4.6,2.5,1.7,4.9,3.5,7.2,5.2,2.3,1.8,4.2,3.4,5.6,4.9l-5.3,4.2c-1.3-1.5-3.1-3.1-5.3-4.9-2.2-1.8-4.5-3.6-7.1-5.4-2.5-1.8-5-3.5-7.4-4.9ZM2169.1,338.5v6.2h-24.1v16h24.1v6h-32.7v-28.1h32.7ZM2141.2,349.8h26.4v5.5h-26.4v-5.5ZM2164.7,338.5h8.9v75.3c0,2.2-.3,3.9-.8,5.2-.5,1.3-1.5,2.3-2.9,3-1.3.6-3,1.1-5.2,1.3-2.2.2-4.7.3-7.6.3-.1-1.2-.4-2.5-1-4.1-.5-1.6-1.1-3-1.6-4,1.9,0,3.6,0,5.2,0h3.3c.6,0,1-.2,1.2-.4.2-.2.3-.7.3-1.3v-75.2Z"/>
        <path class="cls-3" d="M2188.9,351h31.5v7.3h-31.5v-7.3ZM2192,377.3h26.7v7h-26.7v-7ZM2192.7,390.5h7.2v32.7h-7.2v-32.7ZM2192.9,364.3h25.1v7h-25.1v-7ZM2196.5,338.6l7.7-3c1.7,1.9,3.4,4.1,5.1,6.4,1.6,2.3,2.9,4.4,3.7,6.1l-8,3.6c-.8-1.8-2-3.9-3.6-6.4-1.6-2.5-3.2-4.7-4.9-6.7ZM2197,390.5h20.9v28.5h-20.9v-7.3h13.4v-13.9h-13.4v-7.3ZM2238.6,409.8l7.2,4.3c-1.9,1.3-4,2.7-6.5,4-2.5,1.3-5,2.6-7.7,3.7-2.7,1.1-5.2,2-7.7,2.7-.7-.8-1.6-1.7-2.7-2.8s-2.1-2-3-2.7c2.5-.6,5.1-1.5,7.7-2.5s5-2.1,7.3-3.3c2.2-1.2,4.1-2.3,5.5-3.4ZM2223.2,339.9h53.7v6h-53.7v-6ZM2223.7,358.9h52.5v19.7h-52.5v-19.7ZM2226.5,350h47.7v5.6h-47.7v-5.6ZM2226.7,381.7h46.9v28.7h-46.9v-28.7ZM2231,363.8v10h37.6v-10h-37.6ZM2234.9,386.8v3.6h30.2v-3.6h-30.2ZM2234.9,394.2v3.7h30.2v-3.7h-30.2ZM2234.9,401.6v3.8h30.2v-3.8h-30.2ZM2239.2,359.6h5.8v17.9h-5.8v-17.9ZM2244.8,335h9v18h-9v-18ZM2253.9,415.2l3.9-5.5c3.7,1.4,7.5,2.9,11.3,4.6,3.8,1.6,6.9,3.1,9.4,4.4l-4.9,6c-2.4-1.3-5.4-2.8-9-4.6-3.6-1.8-7.2-3.4-10.7-4.9ZM2254.2,359.5h5.9v18h-5.9v-18Z"/>
        <path class="cls-3" d="M2334.8,344.8l8,3.6c-3.9,4.8-8.4,9.2-13.5,13.4-5.2,4.2-10.6,8-16.4,11.4-5.8,3.4-11.5,6.4-17.2,8.9-.4-.6-1-1.3-1.7-2.2-.8-.9-1.6-1.8-2.4-2.6-.8-.9-1.5-1.6-2.2-2.2,5.8-2.1,11.6-4.7,17.2-7.8,5.6-3.1,10.9-6.5,15.7-10.4,4.9-3.8,9.1-7.8,12.5-12.1ZM2290.5,413.3h87.9v8.1h-87.9v-8.1ZM2293.1,340.3h83v8.1h-83v-8.1ZM2302.5,387.5h64.2v29.8h-9v-22h-10v22h-8.5v-22h-10v22h-8.4v-22h-9.9v22h-8.5v-29.8ZM2329.6,357.7l8.9-8.8h0v36h-9v-27.3ZM2341.9,360.8l5.9-5.6c3.5,1.8,7.2,3.9,11.1,6.2,3.9,2.3,7.6,4.6,11,6.9,3.5,2.3,6.4,4.4,8.8,6.2l-6.1,6.4c-2.3-2-5.2-4.2-8.7-6.5-3.5-2.4-7.1-4.8-11-7.2s-7.5-4.5-11.1-6.3Z"/>
      </g>
      <g>
        <g id="_矩形_32">
          <rect class="cls-3" x="966.1" y="36.4" width="2.9" height="77.2"/>
        </g>
        <g>
          <g>
            <path class="cls-2" d="M590.4,107.7c0,7-5.8,12.8-12.8,12.8s-12.8-5.8-12.8-12.8,5.8-12.8,12.8-12.8c7.2.2,12.8,5.8,12.8,12.8ZM577.6,92.8c-8.2,0-14.8,6.6-14.8,14.8s6.6,14.8,14.8,14.8,14.8-6.6,14.8-14.8c.2-8.2-6.6-14.8-14.8-14.8Z"/>
            <path class="cls-2" d="M571,116.5v-17.4h7.8c1.6,0,2.8.2,3.6.4.8.4,1.4.8,2,1.6.4.8.8,1.6.8,2.6s-.4,2.2-1.2,3.2c-.8.8-2,1.4-3.8,1.6.6.2,1,.6,1.4.8.6.6,1.4,1.4,2,2.4l3,4.8h-2.8l-2.4-3.6c-.6-1-1.2-1.8-1.6-2.4-.4-.6-.8-1-1.2-1.2s-.6-.4-1-.4h-3.8v7.8h-2.8v-.2ZM573.4,106.7h5c1,0,1.8-.2,2.4-.4.6-.2,1-.6,1.4-1s.4-1,.4-1.6-.4-1.6-.8-2c-.6-.6-1.6-.8-2.8-.8h-5.6v5.8h0Z"/>
          </g>
          <g>
            <path class="cls-1" d="M0,42.9l12.2-.6c.2,3.8.8,6.4,2,7.8,1.8,2.2,5.4,3.4,10.4,3.4s7.2-.8,9.2-2.2c1.8-1.4,2.8-3.4,2.8-5.4s-.8-3.4-2.4-4.6c-1-1-4-2.4-9-4.6-4.8-2-8.4-3.8-10.6-5.2s-4-3.2-5.2-5.4-2-4.8-2-7.8c0-5.2,2-9.6,5.6-13C16.6,1.9,22.3,0,29.5,0s13,1.8,17,5.2c4,3.4,6.2,8,6.6,13.6l-12.2.6c-.4-3-1.4-5.2-3.2-6.8s-4.6-2.4-8.2-2.4-6.2.6-7.6,1.8c-1.6,1.2-2.2,2.8-2.2,4.8s.6,3.2,2,4.4,4.4,2.8,9.2,4.8c7.2,3,11.8,5.6,13.8,7.6,3,2.8,4.4,6.4,4.4,11s-2.2,10.2-6.6,14-10.4,5.8-18.2,5.8-10-.8-14-2.6-6.6-4.2-8.4-7.4C.6,50.7-.2,46.9,0,42.9Z"/>
            <path class="cls-4" d="M65.2,17.8h11.4l-1,5.4c4.4-4.4,9.2-6.4,14-6.4s6,.8,7.8,2.2,3,3.4,3.6,5.8c1.6-2.2,3.8-4.2,6.8-5.6,3-1.6,6-2.2,9-2.2s6.4,1,8.4,3,3,4.6,3,7.6-.6,4.2-1.4,8l-5.8,27.5h-12l5.8-27.5c.8-3.4,1.2-5.4,1.2-5.8,0-1.2-.4-2.2-1.2-3-.8-.8-2-1-3.4-1-3,0-5.8,1.6-8.2,4.8-1.8,2.2-3.2,6.4-4.4,12.2l-4.2,20.5h-12l5.6-27.3c.6-3.2,1-5.2,1-6,0-1.2-.4-2.2-1.2-3-.8-.8-2-1.2-3.4-1.2s-2.8.4-4.2,1.2c-1.4.8-2.6,1.8-3.8,3.2-1,1.4-2,3.2-2.8,5.4-.4,1-1,3.4-1.8,7l-4.2,20.7h-12l9.4-45.5h0Z"/>
            <path class="cls-4" d="M150.6,30.5l-11.8-1c1.4-4,3.6-7.2,7-9.4s7.8-3.4,13.4-3.4,10,1.2,12.8,3.4c2.8,2.4,4.2,5.2,4.2,8.6s-.2,2.8-.4,4.4c-.2,1.6-1,5.6-2.6,12-1.2,5.4-1.8,9.2-1.8,11.2s.4,4,1,6.4h-11.6c-.6-1.6-1-3.4-1-5-1.8,2-3.8,3.6-6.2,4.6s-4.6,1.6-7,1.6c-3.8,0-6.8-1.2-9.2-3.6-2.4-2.4-3.6-5.6-3.6-9.4s1.4-7.8,4-10.4c2.6-2.6,7.4-4.2,14.2-4.6,5.8-.4,9.6-1,11.6-1.8.6-1.8.8-3,.8-4s-.6-2.4-1.6-3.2-2.6-1.4-4.6-1.4-3.8.4-5,1.4c-1.2.8-2,2-2.6,3.6h0ZM162.1,41.9c-.8.2-1.8.4-3,.6-6,.8-10,1.8-12,3.2-1.4,1-2,2.4-2,4.2s.6,2.6,1.6,3.6,2.4,1.4,4,1.4,3.6-.4,5.2-1.4,2.8-2,3.6-3.4,1.6-3.6,2.2-6.6l.4-1.6Z"/>
            <path class="cls-4" d="M190.5,17.8h11.4l-1.8,8.6c4.2-6.4,8.8-9.6,13.6-9.6s3.6.4,5.6,1.4l-4.6,10c-1.2-.4-2.2-.6-3.6-.6-2.2,0-4.2.8-6.4,2.4s-3.8,3.8-5,6.4-2.4,6.8-3.6,12.6l-2.8,14.2h-12l9.2-45.5h0Z"/>
            <path class="cls-4" d="M218.6,26.9l1.8-9h6l1.4-7.2,14-8.4-3.2,15.6h7.2l-1.8,9h-7.2l-4,19.1c-.8,3.4-1,5.4-1,5.8,0,1,.2,1.6.8,2.2.6.6,1.6.8,3.2.8s1.8,0,4-.2l-2,9c-2,.4-4.2.6-6.4.6-4.2,0-7.4-.8-9.2-2.6-2-1.6-2.8-4-2.8-7s.6-4.6,1.6-9.6l3.8-18h-6.2Z"/>
            <path class="cls-1" d="M257.5,63h-12.8L257.7.8h27.7c4.8,0,8.4.4,11,1.4s4.8,2.8,6.4,5.4,2.4,5.8,2.4,9.4c0,5.2-1.6,9.6-4.8,13-3.2,3.4-8,5.6-14.4,6.4,1.6,1.4,3.2,3.4,4.6,5.8,2.8,4.8,6,11.8,9.6,20.7h-13.8c-1-3.6-3.2-9-6.4-16.4-1.8-4-3.6-6.8-5.6-8-1.2-.8-3.4-1.2-6.4-1.2h-5.2l-5.2,25.7h-.1ZM264.9,27.9h6.8c6.8,0,11.4-.4,13.6-1.2,2.2-.8,4-2,5.2-3.8s2-3.6,2-5.4-1-4-2.8-5c-1.2-.6-3.6-1-7.4-1h-14l-3.4,16.4h0Z"/>
            <path class="cls-4" d="M351.2,44.1h-30.5v1.2c0,3,.8,5.4,2.6,7.2s3.8,2.8,6.2,2.8c4,0,7.2-2,9.4-6.2l10.8,1.8c-2.2,4.4-5,7.6-8.4,9.8-3.6,2.2-7.4,3.2-11.8,3.2s-11-2-14.8-5.8-5.6-9-5.6-15.2,1.8-11.6,5.2-16.4c4.6-6.6,11.2-9.8,19.9-9.8s9.8,1.8,13,5.2,4.8,8.2,4.8,14.4-.2,5.6-.8,7.8h0ZM340.9,36.7v-1.2c0-3.4-.8-5.8-2.2-7.6-1.4-1.6-3.6-2.6-6-2.6s-4.8,1-6.8,2.8-3.4,4.8-4,8.4h19.1v.2h-.1Z"/>
            <path class="cls-4" d="M373,30.5l-11.8-1c1.4-4,3.6-7.2,7-9.4s7.8-3.4,13.4-3.4,10,1.2,12.8,3.4c2.8,2.4,4.2,5.2,4.2,8.6s-.2,2.8-.4,4.4c-.2,1.6-1,5.6-2.6,12-1.2,5.4-1.8,9.2-1.8,11.2s.4,4,1,6.4h-11.6c-.6-1.6-1-3.4-1-5-1.8,2-3.8,3.6-6.2,4.6s-4.6,1.6-7,1.6c-3.8,0-6.8-1.2-9.2-3.6-2.4-2.4-3.6-5.6-3.6-9.4s1.4-7.8,4-10.4c2.6-2.6,7.4-4.2,14.2-4.6,5.8-.4,9.6-1,11.6-1.8.6-1.8.8-3,.8-4s-.6-2.4-1.6-3.2-2.6-1.4-4.6-1.4-3.8.4-5,1.4c-1.4.8-2.2,2-2.6,3.6h0ZM384.5,41.9c-.8.2-1.8.4-3,.6-6,.8-10,1.8-12,3.2-1.4,1-2,2.4-2,4.2s.6,2.6,1.6,3.6,2.4,1.4,4,1.4,3.6-.4,5.2-1.4,2.8-2,3.6-3.4,1.6-3.6,2.2-6.6l.4-1.6h0Z"/>
            <path class="cls-4" d="M445.6,63h-11.6l1-4.8c-2.2,2.2-4.4,3.6-6.6,4.6s-4.6,1.4-7.2,1.4c-4.6,0-8.4-1.6-11.4-4.8-2.8-3.2-4.4-7.8-4.4-14.2s2-13.8,6.2-19.7,9.6-8.8,16.4-8.8,10.8,2.4,13.8,7.4l5-23.3h12l-13.2,62.2h0ZM417.3,44.7c0,3.2.8,5.8,2.4,7.6s3.6,2.8,6,2.8,4.4-.8,6.2-2.2c2-1.6,3.4-3.8,4.6-7s1.8-6,1.8-9-.8-5.8-2.6-7.8-3.8-3-6.2-3c-3.6,0-6.6,2-8.8,6-2.2,3.6-3.4,8-3.4,12.6Z"/>
            <path class="cls-4" d="M466.7,17.8h12l-9.4,45.1h-12l9.4-45.1ZM470.1.8h12l-2.2,10.8h-12s2.2-10.8,2.2-10.8Z"/>
            <path class="cls-4" d="M490.9,17.8h11.6l-1.2,6c3-2.6,5.6-4.2,8.2-5.4,2.6-1,5.2-1.6,8-1.6s6.8,1,8.8,3.2c2.2,2.2,3.2,5,3.2,8.6s-.6,4.6-1.6,9l-5.4,25.5h-12l5.4-25.5c.8-3.8,1.2-6,1.4-6.8,0-1.6-.4-2.8-1.4-3.8s-2.2-1.4-4-1.4-3.8.8-6,2.2-4,3.4-5.2,6c-1,1.8-2,5.4-3.2,10.8l-3.8,18.4h-12l9.2-45.3h0Z"/>
            <path class="cls-4" d="M533.9,65.4l12.8,1.8c0,1.2.2,2.2.6,3,.4.6,1,1.2,2,1.6s2.2.6,3.8.6c2.8,0,5-.6,6.6-1.6,1.2-.8,2.2-2,3-3.8.4-1.2,1-3.6,1.8-7.4l.4-2c-4.4,3.6-9,5.2-13.6,5.2s-8-1.6-10.8-4.6-4.2-7.6-4.2-13.6,1-10,2.8-14.4c2-4.4,4.6-7.8,8-10s7-3.4,10.6-3.4,5.6.8,8.2,2.4c2.4,1.6,4.4,3.8,5.8,6.6l1.6-8h11.4l-7.2,37.5c-1.2,6-2.4,10.4-3.2,13s-2,4.6-3,6.2c-1.2,1.6-2.6,2.8-4.4,3.8-1.8,1-3.8,1.8-6.2,2.2s-5,.6-7.8.6c-6.2,0-11-1-14.2-3.2s-4.8-5.8-4.8-10.8c-.2-.4,0-1,0-1.6h0ZM548.3,43.3c0,3.4.8,6,2.2,7.8,1.6,1.8,3.4,2.6,5.8,2.6s4.2-.8,6.2-2.4c2-1.6,3.6-3.8,4.6-6.8s1.6-5.8,1.6-8.6-.8-5.8-2.6-7.6c-1.8-2-3.8-3-6.2-3s-4.2.8-6,2.6-3.2,4.4-4.4,8c-.8,2.8-1.2,5.2-1.2,7.4h0Z"/>
          </g>
          <g>
            <path class="cls-4" d="M597.8,38.5h23.3l-2.4,11.6h-23.3l2.4-11.6Z"/>
            <path class="cls-1" d="M624.1,66.4l12.8-61.4h45.5l-2.2,10.2h-32.9l-3,13.8h31.7l-2.2,10.2h-31.7l-3.8,16.6h35.7l-2.2,10.2h-47.7v.4h0Z"/>
            <path class="cls-4" d="M690.7,22.1h11.4l-1.2,5.8c2.8-2.4,5.4-4.2,8-5.2,2.4-1,5-1.6,7.8-1.6s6.6,1,8.6,3.2c2,2,3.2,4.8,3.2,8.2s-.4,4.4-1.4,8.8l-5.2,25.1h-12l5.2-25.3c.8-3.8,1.2-6,1.2-6.8,0-1.6-.4-2.8-1.4-3.6s-2.2-1.4-3.8-1.4-3.6.8-5.8,2.2-3.8,3.4-5,5.8c-.8,1.8-1.8,5.2-3,10.6l-3.8,18.2h-12l9.2-44.1h0Z"/>
            <path class="cls-4" d="M732.8,68.8l12.6,1.8c0,1.2.2,2.2.6,2.8.4.6,1,1.2,2,1.6s2.2.6,3.8.6c2.6,0,4.6-.4,6-1.6,1.2-.8,2-2,2.8-3.8.4-1,1-3.4,1.8-7l.4-2c-4.2,3.4-8.4,5.2-12.8,5.2s-7.8-1.6-10.6-4.6-4.2-7.6-4.2-13.4,1-10,2.8-14.2c1.8-4.4,4.6-7.6,8-9.8s7-3.4,10.4-3.4,5.6.8,8,2.4,4.4,3.8,5.8,6.6l1.6-7.8h11.2l-7.6,36.9c-1.2,6-2.4,10.2-3.2,12.6-.8,2.6-1.8,4.6-3,6-1.2,1.6-2.6,2.8-4.2,3.8s-3.6,1.8-6,2.2-4.8.6-7.6.6c-6.2,0-11-1-14.2-3.2s-4.8-5.6-4.8-10.6c.4-.4.4-1,.4-1.6h0ZM747,47.3c0,3.4.8,6,2.2,7.6,1.6,1.8,3.4,2.6,5.6,2.6s4.2-.8,6-2.4c2-1.6,3.4-3.8,4.4-6.8s1.6-5.8,1.6-8.4-.8-5.6-2.6-7.6c-1.6-2-3.6-2.8-5.8-2.8s-4.2.8-6,2.6c-1.8,1.6-3.2,4.4-4.4,7.8-.6,2.8-1,5.2-1,7.4Z"/>
            <path class="cls-4" d="M785.7,66.4l12.8-61.4h12l-12.8,61.4h-12Z"/>
            <path class="cls-4" d="M818.8,22.1h12l-9.2,44.3h-12s9.2-44.3,9.2-44.3ZM822.2,5.2h12l-2.2,10.8h-12l2.2-10.8Z"/>
            <path class="cls-4" d="M831.8,53.9l11.6-1.8c1,2.4,2.4,4.2,3.8,5.2,1.6,1,3.6,1.6,6.2,1.6s5-.6,6.6-1.8c1.2-.8,1.8-1.8,1.8-3s-.2-1.6-.8-2.2c-.6-.6-2.2-1.4-5-2.2-7.2-2.4-11.8-4.2-13.4-5.6-2.6-2.2-4-5-4-8.6s1.4-6.6,4-9c3.6-3.6,9-5.2,16.2-5.2s10,1,13,3.2c3,2,4.8,5,5.6,8.4l-11,2c-.6-1.6-1.6-2.8-2.8-3.6-1.8-1-4-1.6-6.4-1.6s-4.4.4-5.4,1.2-1.6,1.8-1.6,2.8.6,2,1.6,2.8c.6.4,3,1.2,6.8,2.4,5.8,1.6,9.8,3.4,11.8,5,2.8,2.4,4.2,5,4.2,8.4s-1.8,7.8-5.2,11c-3.6,3-8.6,4.6-15,4.6s-11.4-1.2-14.8-3.6c-4.2-2.8-6.6-6-7.8-10.4h0Z"/>
            <path class="cls-4" d="M893,66.4h-12l12.8-61.4h12l-4.6,21.9c2.6-2.2,5.2-3.6,7.6-4.6s4.8-1.4,7.6-1.4,6.4,1,8.6,3c2,2,3.2,4.8,3.2,8s-.4,4.6-1.2,8.2l-5.4,25.9h-12l5.6-26.5c.6-2.8.8-4.6.8-5.6s-.4-2.6-1.4-3.6c-1-.8-2.2-1.4-3.8-1.4s-4,.6-5.8,2c-2.4,1.8-4.2,4-5.4,6.8-.6,1.4-1.6,5-2.8,10.4l-3.8,18.2h0Z"/>
          </g>
          <g>
            <path class="cls-1" d="M6.2,100.5h14.8v-3.8c0-.4.4-.6,1-.6,3,0,4.4.2,4.4.6,0,.6-.2.8-.6,1-.4,0-.6.4-.6,1.2v1.8h14.6v-3.6c0-.4.4-.8,1-.8,3,0,4.4.2,4.4.8s-.2.8-.6.8-.6.4-.6,1.2v1.6h14c.4,0,.6.4.6,1v1.8c0,.6-.2,1-.6,1h-14v4c0,.4-.4.6-1,.6h-2.2c-.6,0-1-.2-1-.6v-4h-14.6v4c0,.4-.4.6-1,.6h-2.2c-.6,0-1-.2-1-.6v-4H6.2c-.4,0-.6-.4-.6-1v-1.8c-.2-1,0-1.2.6-1.2ZM15.3,113.1h14.6v-5c0-.4,0-.6.2-.6l4.2.4c.6.2,1,.4,1,.6,0,.4-.2.6-.6.8s-.6.4-.6,1v3h14.8c.6,0,1,.2,1,.6v13.6h8.2c.4,0,.6.4.6,1v1.8c0,.6-.2,1-.6,1h-22.9c1.2,1.8,2.2,3.4,3.2,4.4,1.2,1.4,2.8,2.8,4.8,4.2,1.2.8,3,1.8,5.4,3,1.6.8,3.6,1.4,5.8,2.2,1,.2,2.2.4,3.8.8.4,0,.6,0,.6.2,0,.4-.2.6-.6,1-.6.8-1.2,1.6-1.8,2.2-.2.4-.6.6-1,.6-3.4-.8-6.4-2-9-3.2-2.4-1.2-4.2-2.2-5.6-3.4-2-1.4-3.8-3-5.2-4.6-1.2-1.2-2.4-3-3.6-4.8-.6,1.4-1.2,2.6-2.2,3.8-1.4,1.8-3.2,3.6-5.8,5.4-3,2.2-6.6,4.2-10.6,5.4-2.6.8-4.2,1.2-5.2,1.2s-.6-.2-.6-.6c-.4-1-1-2-1.6-2.8-.2-.2-.4-.2-.4-.2,0-.4.2-.4.4-.4,3.4-.4,6.2-1.2,8.4-2,2.8-1,5-2.2,7-3.6,2.2-1.4,3.8-3,5.2-4.8,1-1.2,1.8-2.6,2.2-4.2H6.6c-.4,0-.8-.4-.8-1v-1.8c0-.6.2-1,.8-1h7.8v-13.2c0-.8.2-1,.8-1h.1ZM18.5,127.3h11.2c.2-1.4.2-3,.2-4.8v-5.8h-11.4v10.6h0ZM34.1,116.7v5.6c0,1.8,0,3.4-.2,4.8h12v-10.4h-11.8Z"/>
            <path class="cls-1" d="M69.6,105.5h20.5c.4,0,.6.4.6,1v1.8c0,.6-.2,1-.6,1h-20.5c-.4,0-.6-.4-.6-1v-1.8c0-.6.2-1,.6-1ZM72.2,129.7h15.6c.6,0,1,.2,1,.6v17.6c0,.4-.4.6-1,.6h-2.4c-.6,0-.8-.2-.8-.6v-2.8h-9.2v2.8c0,.4-.4.6-1,.6h-2.2c-.6,0-1-.2-1-.6v-17.2c0-.6.4-1,1-1h0ZM72.2,97.3h15.4c.4,0,.6.2.6.8v1.8c0,.6-.2,1-.6,1h-15.4c-.4,0-.6-.4-.6-1v-1.8c-.2-.6,0-.8.6-.8ZM72.2,113.3h15.4c.4,0,.6.4.6,1v1.8c0,.6-.2,1-.6,1h-15.4c-.4,0-.6-.4-.6-1v-1.8c-.2-.6,0-1,.6-1ZM72.2,121.1h15.4c.4,0,.6.4.6,1v1.8c0,.6-.2.8-.6.8h-15.4c-.4,0-.6-.2-.6-.8v-1.8c-.2-.8,0-1,.6-1ZM75.4,141.8h9.2v-8.2h-9.2v8.2ZM93.3,97.5h26.7c.4,0,.4.2.4.6v1.8c0,.6-.2,1-.4,1h-12l-2,7.4h10.6c.6,0,1,.2,1,.6v12h4.4c.4,0,.4.2.4.8v1.8c0,.6-.2,1-.4,1h-30.5c-.4,0-.4-.4-.4-1v-1.8c0-.4.2-.8.4-.8h7.2l2.6-9.2h-6.4c-.4,0-.4-.4-.4-1v-1.8c0-.4.2-.6.4-.6h7.4l2-7.4h-10.4c-.4,0-.4-.4-.4-1v-1.8c-.6-.4-.6-.6-.2-.6ZM94.9,128.5h22.7c.6,0,1,.2,1,.8v19.1c0,.4-.4.6-1,.6h-2.2c-.6,0-1-.2-1-.6v-2.8h-16.2v2.8c0,.4-.4.6-1,.6h-2.2c-.6,0-1-.2-1-.6v-19.1c0-.6.4-.8,1-.8h-.1ZM98.1,142h16.2v-10h-16.2s0,10,0,10ZM102.5,120.9h10.8v-9.2h-8.2s-2.6,9.2-2.6,9.2Z"/>
            <path class="cls-1" d="M133.2,122.7h10.6c.6,0,1,.2,1,.6v15.2c0,1.4.2,2.4.6,3,.4.6.8,1.2,1.4,1.6.8.6,2,1,3,1.2,1.6.2,3.2.4,5.2.4h12.4c4.8,0,10.6-.6,17.2-1.6.4-.2.6-.2.8-.2s.4,0,.4.2c-.4,1.6-.8,3.2-1,4.8,0,.6-.4,1-1,1h-28.9c-1.4,0-2.8,0-4.2-.2-1.2-.2-2.6-.4-3.8-1-1-.4-2.2-1-3-1.6-.6-.6-1.4-1.6-2.2-3l-.2-.2c-.2,0-.4,0-.4.2-3.8,2.8-6,4.8-6.4,5.8-.1.1-.3.2-.6.2s-1-1-2.2-3c-.2-.4-.2-.8-.2-1.2,2.2-1,5-2.6,8.4-5,.2-.2.2-.6.2-1v-12.2h-7.4c-.4,0-.6-.4-.6-1v-1.8c.2-1,.4-1.2.8-1.2h0ZM136,108.5c2,1.2,3.8,2.2,5,3.4,1.6,1.2,2.8,2.2,3.8,3.4,0,0,0,.2-.2.6-1.2,1.6-1.6,2.4-1.8,2.4-1.6-1.6-3.4-3-5.4-4.4-1.6-1-2.8-1.8-3.8-2.2,0-.2.6-1.2,1.8-2.6.4-.4.6-.6.6-.6h0ZM137.2,96.9c2,1,3.6,2,4.8,2.8,1.4,1,2.8,2,3.8,2.8,0,0,0,.2-.2.6-1.2,1.6-1.6,2.4-1.8,2.4-1.6-1.4-3.4-2.6-5.2-3.8-1.4-1-2.8-1.6-3.8-2,0-.2.6-1,1.8-2.6.2-.2.4-.2.6-.2h0ZM165.5,95.1c3,0,4.4.2,4.4.6,0,.6-.2.8-.6.8s-.6.4-.6,1.2v2.8h15.6c.4,0,.4.2.4.6v1.8c0,.4-.2.6-.4.6h-10l2,.8c.6.2.8.4.8.8s-.2.4-.6.6c-.4,0-.6.2-.6.6-.6,1.6-1.2,3-1.8,4.2h7.2c.8,0,1.2.2,1.2.8v27.5c0,1-.6,2-1.8,2.6-1.2.4-2.6.8-4.2,1-.4,0-.6-.2-.8-.6,0-.8-.4-2-1.4-3.8,0-.2.2-.2.4-.2,1.8,0,2.8-.2,3-.4.4-.2.6-.6.6-1.2v-22.1h-10.6v4.2h8.2c.4,0,.4.2.4.8v1.8c0,.4-.2.8-.4.8h-8.2v4.2h5.2c.6,0,1,.2,1,.8v10c0,.4-.4.6-1,.6h-11.2v1.6c0,.4-.4.6-1,.6h-2.2c-.4,0-.6-.2-.6-.6v-12.2c0-.4.2-.8.6-.8h5.2v-4.2h-7.2c-.4,0-.4-.2-.4-.8v-1.8c0-.4.2-.8.4-.8h7.2v-4.2h-9.6v26.7c0,.4-.4.8-1,.8h-2.2c-.6,0-1-.2-1-.8v-29.1c0-.4.4-.8,1-.8h8.4c-.2-.2-.2-.6-.4-.8-.6-1.4-1.4-2.8-2.6-4.2,0-.2,1-.8,3-1.8,1,1.6,2,3,2.6,4.2.4.8.8,1.8,1.2,2.6h6.4c.8-1,1.4-2,1.8-2.8.8-1.2,1.2-2.6,1.6-3.8v-.2h-23.9c-.4,0-.4-.2-.4-.6v-1.8c0-.4.2-.6.4-.6h15.4v-4.8c0-.8.4-1.2,1-1.2h.1ZM161.7,134.2h8.4v-5h-8.4v5Z"/>
            <path class="cls-1" d="M198.2,106.1c3,.6,4.4,1,4.4,1.4s-.2.8-.6,1c-.4.4-.8.8-.8,1.4-.4,4-.8,7.4-1.4,10.2-.4,1.4-.8,3-1.4,4.4-.2.4-.2.6-.4.6-1.2-.4-2.4-.6-3.4-.8-.4,0-.6-.2-.6-.6.8-2,1.4-4.2,2-6.4.6-2.4,1-5.8,1.4-10.2,0-.6.4-1,.8-1ZM204,94.9c3,0,4.4.2,4.4.6,0,.6-.2.8-.6.8s-.6.4-.6,1.2v50.5c0,.4-.4.6-1,.6h-2.2c-.6,0-1-.2-1-.6v-52.7c.2-.2.4-.4,1-.4h0ZM211.6,105.7c.4,0,.6,0,.6.2,1.2,2.6,2,5.6,3,8.6,0,.6-.2.8-.4.8-1.4,1-2.4,1.4-3.2,1.4-.8-3.8-1.8-6.8-2.6-9.2.2-.4,1-1,2.6-1.8h0ZM220.4,99.7l4,1.4c.4.4.6.6.6.8,0,.4-.2.6-.4.6-.4,0-.4.2-.6.8-.4,1.8-.6,3.4-1,4.8h7.6v-12.2c0-.4.4-.6,1-.6,3,0,4.4.2,4.4.6,0,.6-.2.8-.6.8s-.6.4-.6,1.2v10h12.8c.4,0,.6.4.6,1v1.8c0,.6-.2,1-.6,1h-12.8v13.4h11.4c.4,0,.6.4.6,1v1.8c0,.6-.2,1-.6,1h-11.4v14.2h14.4c.4,0,.6.4.6,1v1.8c0,.6-.2.8-.6.8h-33.7c-.4,0-.6-.2-.6-.8v-1.8c0-.6.2-1,.6-1h15.2v-14.2h-11.2c-.4,0-.6-.4-.6-1v-1.8c0-.6.2-1,.6-1h11.2v-13.4h-8.4c-.6,1.8-1.2,3.6-1.8,5.2s-1.4,3-2.2,4.2c-.4,0-1,0-1.2-.2-.8-.4-1.6-.6-2.2-.8-.2-.2-.4-.2-.4-.4s0-.4.2-.4c1.2-1.8,2.2-4.2,3-7,.6-1.6,1-3.2,1.4-5s.8-4.2,1.2-7.2c-.1-.3-.1-.4,0-.4h.1Z"/>
            <path class="cls-1" d="M261.7,96.1h19.3c.6,0,1,.2,1,.8v16.4c0,.4-.4.8-1,.8h-16v33.9c0,.4-.4.8-1,.8h-2.2c-.6,0-1-.2-1-.8v-51.1c.2-.6.4-.8,1-.8h0ZM264.9,103.5h13.2v-4h-13.2v4ZM264.9,110.7h13.2v-4h-13.2v4ZM275.8,117.5l3.4,1.4c.6.2.8.4.8.8s-.2.4-.8.4-1.2.2-1.4.4c-1.2,1.2-2.2,2-3.2,2.8h20.5c-.4-.2-.8-.6-1-.8-1-.8-1.6-1.8-2.2-3,0-.2-.2-.2-.2-.4h-8.4c-.4,0-.6-.4-.6-1v-1.8c0-.4.2-.8.6-.8h10.6c.6,0,1,.2,1,.8,0,1,.2,1.8.6,2.4s1,1.2,1.8,1.8c.6.4,1.6,1,2.8,1.4.8.2,1.8.4,2.8.6.2,0,.4,0,.4.2s-.2.2-.6.4c-.6.6-1.2,1.4-1.8,2-.2.2-.6.4-1,.4-.8-.2-1.6-.4-2.6-1-.4-.2-.6-.4-1-.4v10.6c0,.4-.4.6-1,.6h-5v4.6c0,1.6,1,2.2,2.8,2.2h2.2c.4,0,.6-.2.8-.6s.2-1.2.2-2.8,0-.4.2-.4c1,.6,2,.8,3.2,1,.4,0,.6.2.6.6-.4,2.4-.8,3.8-1.2,4.6-.4.6-.8,1-1.8,1h-6.2c-3,0-4.6-1.2-4.6-3.4v-6.8h-4.2c0,1,0,2-.2,2.8-.2,1-.6,2-1,3-.4.8-1,1.8-2,2.6s-2.2,1.4-3.4,2c-1.2.4-2.4.8-3.8,1-.4,0-.6-.2-.6-.6-.6-.6-1-1.4-1.4-2.2-.2-.2-.2-.4-.2-.6,2-.4,3.4-.6,4.6-1,1-.4,1.6-.8,2.2-1.2s1-.8,1.4-1.4c.4-.6.6-1.4.8-2.2.2-.6.2-1.2.2-2.2h-4.2c-.6,0-1-.2-1-.6v-10.6c-.4.4-1,.6-1.4,1-.4.2-.8.4-1,.4s-.6-.2-1-.4c-.8-.4-1.6-.6-2.2-1l-.4-.2.4-.4c1.8-1,3.2-1.8,4.2-2.6,1.4-1,2.4-2,3-3,.2-.4.4-.4.6-.4h0ZM292.2,132.2v-5.2h-14.4v5.2h14.4ZM289,96.1h19.5c.8,0,1.2.2,1.2.8v46.1c0,2-.8,3.4-2.2,4.6-1.4.8-3,1.4-5.2,1.6-.4,0-.6-.2-.6-.6,0-.8-.6-2-1.4-3.8,0-.2.2-.4.4-.4,2.4,0,3.8-.2,4.2-.6s.8-1.2.8-2.2v-27.5h-16.4c-.6,0-1-.2-1-.8v-16.4c0-.6.2-.8.8-.8h0ZM292.2,103.5h13.2v-4h-13.2v4ZM292.2,110.7h13.2v-4h-13.2v4Z"/>
            <path class="cls-1" d="M322.5,104.9h17.6c.4,0,.6.4.6,1v1.8c0,.6-.2,1-.6,1h-17.6c-.4,0-.6-.4-.6-1v-1.8c-.2-.8,0-1,.6-1ZM324.1,130.3h14.4c.6,0,1,.2,1,.6v15.8c0,.4-.4.6-1,.6h-2.4c-.4,0-.6-.2-.6-.6v-1.8h-8.2v2.8c0,.4-.4.8-1,.8h-2.2c-.4,0-.6-.2-.6-.8v-16.8c-.2-.4,0-.6.6-.6h0ZM325.1,96.3h12.8c.4,0,.6.4.6,1v1.8c0,.6-.2,1-.6,1h-12.8c-.4,0-.6-.4-.6-1v-1.8c0-.6.2-1,.6-1ZM325.1,113.1h12.8c.4,0,.6.4.6,1v1.8c0,.6-.2,1-.6,1h-12.8c-.4,0-.6-.4-.6-1v-1.8c0-.8.2-1,.6-1ZM325.1,121.3h12.8c.4,0,.6.2.6.8v1.8c0,.6-.2.8-.6.8h-12.8c-.4,0-.6-.2-.6-.8v-1.8c0-.4.2-.8.6-.8ZM327.3,141.4h8.2v-7.6h-8.2v7.6ZM346,124.3h25.5c.6,0,1,.2,1,.6v17.2c0,.4-.4.6-1,.6h-5.4c1.2.6,2.2,1.2,3,1.8,1.2.6,3,1.2,5.2,1.8.4.2.4.4.4.4,0,.4-.8,1.2-2.2,2.8h-.6c-4.4-1.8-7.8-3.4-9.8-4.8-.2-.2-.4-.2-.4-.4s.4-.6,1.2-1.4h-8.6c1.4,1.2,2.2,1.8,2.2,2s-.2.4-.6.4c-.8,0-1.2,0-1.2.2-3,1.8-6.2,3.2-9.6,4.4-.4,0-.8-.2-1-.4-.2-.4-.6-1-1.2-1.4-.2-.2-.4-.4-.4-.6s.2-.2.4-.4c1.8-.6,3.4-1.2,4.6-1.8,1.4-.6,2.8-1.4,4-2.4h-5.8c-.6,0-1-.2-1-.6v-17.2c.4-.6.6-.8,1.4-.8h-.1ZM343.3,98.9h13.2v-3c0-.4.2-.4.6-.4,2.8,0,4.2.2,4.2.6s-.2.8-.4.8c-.4,0-.4.4-.4,1v1h13.2c.4,0,.4.2.4.8v1.4c0,.6-.2,1-.4,1h-13.2v2.6h10.8c.4,0,.4.2.4.6v1.4c0,.6-.2,1-.4,1h-25.7c-.4,0-.4-.4-.4-1v-1.4c0-.4.2-.6.4-.6h11v-2.6h-13.2c-.4,0-.4-.4-.4-1v-1.4c-.2-.6-.2-.8.2-.8h0ZM343.7,109.9h29.7c.6,0,1,.2,1,.6v10.8c0,.4-.4.6-1,.6h-29.7c-.6,0-1-.2-1-.6v-10.8c.2-.4.4-.6,1-.6ZM351.6,119.5v-7.2h-5v7.2h5ZM348.8,129.7h19.5v-2.8h-19.5v2.8ZM348.8,135.2h19.5v-2.8h-19.5v2.8ZM368.4,140.2v-2.6h-19.5v2.6h19.5ZM361,119.5v-7.2h-5.4v7.2h5.4ZM370.6,119.5v-7.2h-5.8v7.2h5.8Z"/>
          </g>
        </g>
        <g>
          <path class="cls-3" d="M1007.2,111.8l23.5-71h12.9l23.5,71h-11.8l-11.5-38.5c-1.2-3.9-2.3-7.8-3.4-11.7-1.1-3.9-2.2-7.9-3.3-11.9h-.4c-1,4-2.1,8-3.2,11.9-1.1,3.9-2.3,7.8-3.4,11.7l-11.5,38.5h-11.5ZM1020.5,91.7v-8.9h33.1v8.9h-33.1Z"/>
          <path class="cls-3" d="M1101.1,113.1c-4.9,0-9.5-.9-13.8-2.8-4.3-1.9-8.1-4.4-11.4-7.7l6.5-7.7c2.6,2.5,5.5,4.5,8.8,6.1,3.3,1.5,6.7,2.3,10.2,2.3s7.5-.9,9.8-2.8c2.3-1.9,3.4-4.3,3.4-7.2s-.5-3.9-1.4-5.2c-1-1.3-2.3-2.4-4-3.3-1.7-.9-3.6-1.8-5.8-2.8l-9.8-4.2c-2.3-1-4.6-2.2-6.8-3.8-2.2-1.6-4-3.6-5.5-6-1.4-2.4-2.2-5.3-2.2-8.8s1-7.1,3-10c2-3,4.8-5.3,8.3-7,3.5-1.7,7.5-2.6,12-2.6s8.1.8,11.8,2.4c3.7,1.6,6.9,3.8,9.5,6.5l-5.7,7.1c-2.2-2-4.6-3.5-7.2-4.7-2.5-1.1-5.4-1.7-8.5-1.7s-6.5.8-8.7,2.5c-2.1,1.6-3.2,3.8-3.2,6.6s.5,3.7,1.6,5.1c1.1,1.3,2.5,2.4,4.3,3.3,1.8.9,3.6,1.7,5.4,2.5l9.7,4.1c2.8,1.2,5.3,2.6,7.5,4.2,2.2,1.7,3.9,3.7,5.1,6.1,1.2,2.4,1.8,5.3,1.8,8.9s-1,7.2-3,10.4c-2,3.1-4.8,5.6-8.6,7.5-3.7,1.9-8.2,2.8-13.4,2.8Z"/>
          <path class="cls-3" d="M1155.8,111.8v-61.5h-20.7v-9.4h52.9v9.4h-20.8v61.5h-11.4Z"/>
          <path class="cls-3" d="M1204.7,111.8V40.8h23.2c4.9,0,9.2.7,13.1,2,3.9,1.3,6.9,3.5,9.2,6.5,2.2,3,3.4,7,3.4,12.2s-1.1,9-3.4,12.2c-2.2,3.2-5.3,5.6-9.2,7.2-3.9,1.6-8.2,2.4-13.1,2.4h-12v28.6h-11.2ZM1215.9,74.2h10.7c5.1,0,9.1-1.1,11.8-3.2,2.7-2.2,4.1-5.3,4.1-9.6s-1.4-7.3-4.1-9c-2.7-1.7-6.7-2.6-11.8-2.6h-10.7v24.4ZM1243.4,111.8l-17.6-31.6,8.3-6.5,22,38h-12.6Z"/>
          <path class="cls-3" d="M1262,111.8l23.5-71h12.9l23.5,71h-11.8l-11.5-38.5c-1.2-3.9-2.3-7.8-3.4-11.7-1.1-3.9-2.2-7.9-3.3-11.9h-.4c-1,4-2.1,8-3.2,11.9-1.1,3.9-2.3,7.8-3.4,11.7l-11.5,38.5h-11.5ZM1275.3,91.7v-8.9h33.1v8.9h-33.1Z"/>
          <path class="cls-3" d="M1376.4,64c2.1,0,4,.5,5.7,1.5,1.7,1,3,2.3,4,4,1,1.7,1.5,3.6,1.5,5.7s-.5,3.8-1.5,5.5c-1,1.7-2.3,3.1-4,4.1-1.7,1-3.6,1.5-5.7,1.5s-3.8-.5-5.5-1.5c-1.7-1-3.1-2.3-4.1-4-1-1.7-1.5-3.5-1.5-5.5s.5-4,1.5-5.7c1-1.7,2.3-3,4-4,1.7-1,3.5-1.5,5.5-1.5Z"/>
          <path class="cls-3" d="M1460.7,113.1c-4.9,0-9.5-.9-13.8-2.8-4.3-1.9-8.1-4.4-11.4-7.7l6.5-7.7c2.6,2.5,5.5,4.5,8.8,6.1,3.3,1.5,6.7,2.3,10.2,2.3s7.5-.9,9.8-2.8c2.3-1.9,3.4-4.3,3.4-7.2s-.5-3.9-1.4-5.2c-1-1.3-2.3-2.4-4-3.3-1.7-.9-3.6-1.8-5.8-2.8l-9.8-4.2c-2.3-1-4.6-2.2-6.8-3.8-2.2-1.6-4-3.6-5.5-6-1.4-2.4-2.2-5.3-2.2-8.8s1-7.1,3-10c2-3,4.8-5.3,8.3-7,3.5-1.7,7.5-2.6,12-2.6s8.1.8,11.8,2.4c3.7,1.6,6.9,3.8,9.5,6.5l-5.7,7.1c-2.2-2-4.6-3.5-7.2-4.7-2.5-1.1-5.4-1.7-8.5-1.7s-6.5.8-8.7,2.5c-2.1,1.6-3.2,3.8-3.2,6.6s.5,3.7,1.6,5.1c1.1,1.3,2.5,2.4,4.3,3.3,1.8.9,3.6,1.7,5.4,2.5l9.7,4.1c2.8,1.2,5.3,2.6,7.5,4.2,2.2,1.7,3.9,3.7,5.1,6.1,1.2,2.4,1.8,5.3,1.8,8.9s-1,7.2-3,10.4c-2,3.1-4.8,5.6-8.6,7.5-3.7,1.9-8.2,2.8-13.4,2.8Z"/>
          <path class="cls-3" d="M1503.5,111.8V40.8h23.2c4.9,0,9.2.7,13.1,2,3.9,1.3,6.9,3.5,9.2,6.5,2.2,3,3.4,7,3.4,12.2s-1.1,9-3.4,12.2c-2.2,3.2-5.3,5.6-9.2,7.2-3.9,1.6-8.2,2.4-13.1,2.4h-12v28.6h-11.2ZM1514.6,74.2h10.7c5.1,0,9.1-1.1,11.8-3.2,2.7-2.2,4.1-5.3,4.1-9.6s-1.4-7.3-4.1-9c-2.7-1.7-6.7-2.6-11.8-2.6h-10.7v24.4ZM1542.2,111.8l-17.6-31.6,8.3-6.5,22,38h-12.6Z"/>
          <path class="cls-3" d="M1571.1,111.8V40.8h41.9v9.4h-30.7v19.7h26v9.4h-26v22.8h31.8v9.5h-43Z"/>
          <path class="cls-3" d="M1666.9,51.5h9.3v27.5c0,3.4-.3,6.7-1,9.9-.6,3.2-1.8,6.3-3.6,9.3-1.8,3-4.3,5.9-7.6,8.5-3.3,2.7-7.5,5.1-12.6,7.4-5.1,2.2-11.4,4.2-18.9,6-.3-.7-.8-1.5-1.4-2.5-.6-.9-1.3-1.9-2-2.8-.7-.9-1.4-1.7-2.1-2.3,7.1-1.5,13.1-3.2,17.9-5.1,4.8-1.9,8.6-3.9,11.6-6.1,2.9-2.2,5.1-4.5,6.6-7,1.5-2.5,2.5-5,3-7.6.5-2.6.8-5.2.8-7.9v-27.4ZM1628.5,83.8h87.3v8.5h-87.3v-8.5ZM1630.6,39.7h39.2v7.8h-39.2v-7.8ZM1638.8,60.4h67.3v27.3h-9.2v-19.3h-49.3v19.3h-8.8v-27.3ZM1647.8,30.5h9.1v25.9h-9.1v-25.9ZM1673.6,100.1l4.3-6.5c3.1,1.2,6.5,2.6,10,4.1,3.5,1.5,7,3.2,10.5,4.9,3.5,1.7,6.8,3.4,9.9,5.1,3.1,1.6,5.7,3.2,7.8,4.7l-4.6,7.4c-2.1-1.4-4.6-3-7.6-4.7-3-1.7-6.3-3.5-9.7-5.3-3.5-1.8-7-3.5-10.5-5.2-3.5-1.7-6.9-3.2-10.1-4.5ZM1674.3,39.5h39.6v7.9h-39.6v-7.9ZM1688.1,30.5h9.2v25.7h-9.2v-25.7Z"/>
          <path class="cls-3" d="M1728.5,46.7h36.2v7.3h-36.2v-7.3ZM1732.4,85.6h7.8v33h-7.8v-33ZM1732.5,59.7h28.9v7.1h-28.9v-7.1ZM1732.5,72.6h28.9v7h-28.9v-7ZM1736.4,85.6h25.6v28.7h-25.6v-7.5h17.6v-13.8h-17.6v-7.4ZM1739.2,33.6l7-3.6c1.4,2,2.8,4.2,4.2,6.5,1.4,2.3,2.4,4.4,3.1,6.2l-7.4,4c-.6-1.7-1.6-3.9-3-6.4-1.3-2.5-2.7-4.8-3.9-6.8ZM1763.4,71h54.2v7.6h-54.2v-7.6ZM1765.9,34.4h49.5v7.6h-49.5v-7.6ZM1768.2,50.6h40.7v23.6h-8.5v-16.1h-32.3v-7.5ZM1768.6,84.4h43.3v35.2h-8.8v-27.3h-26.1v27.6h-8.5v-35.5ZM1772.9,108.1h35v7.9h-35v-7.9ZM1781.7,37.4l8.9.8c-.6,3.9-1.3,8-2.1,12.4-.8,4.4-1.6,8.7-2.4,12.8-.8,4.1-1.5,7.7-2.2,10.7h-9c.6-2.4,1.2-5.1,1.8-8,.6-3,1.2-6.1,1.8-9.4.6-3.3,1.2-6.6,1.7-9.9.5-3.3,1-6.4,1.4-9.2Z"/>
          <path class="cls-3" d="M1833.2,33.9h8.6v86h-8.6V33.9ZM1837.9,45.1h25.8v5.5h-25.8v-5.5ZM1838.7,33.9h30.8v28.2h-30.8v-6h22.2v-16.2h-22.2v-6.1ZM1862.6,64.2l7.2,2.2c-1.6,2.1-3.5,4.2-5.7,6.3-2.2,2.1-4.6,3.9-7,5.7-2.5,1.7-4.9,3.2-7.4,4.5-.7-.7-1.6-1.5-2.6-2.4-1-.9-2-1.6-2.8-2.1,2.4-1.2,4.7-2.5,7.1-4,2.3-1.5,4.5-3.2,6.5-4.9,2-1.7,3.6-3.5,4.7-5.2ZM1861.2,95.3h7.4c-.4,3.5-1.2,6.5-2.5,9.2-1.3,2.7-3.1,5-5.6,6.9-2.5,1.9-5.9,3.6-10.2,4.9-.5-1-1.1-2.1-2-3.3s-1.7-2.2-2.6-2.8c3.7-.9,6.6-2,8.7-3.4,2.1-1.3,3.6-3,4.7-4.9,1-1.9,1.7-4.1,2-6.6ZM1854.9,77.7h36.1v18.6h-36.1v-18.6ZM1862.2,83.3v7.5h21.3v-7.5h-21.3ZM1875.2,93.6h7.7v12.4c0,1,0,1.6.3,1.8.2.3.7.4,1.5.4h5.2c.6,0,1-.2,1.3-.5.3-.3.5-1,.6-2,.2-1,.3-2.5.3-4.5.7.6,1.7,1.1,3,1.6,1.3.5,2.5.9,3.5,1.1-.3,4.3-1.1,7.2-2.2,8.6-1.2,1.4-3,2.2-5.5,2.2h-7.4c-2.2,0-4-.3-5.2-.8-1.2-.5-2.1-1.4-2.5-2.7-.4-1.3-.7-3-.7-5.3v-12.4ZM1875.8,68.1l4.9-3.8c2.3,1.3,4.7,2.9,7.3,4.6,2.5,1.7,4.9,3.5,7.2,5.2,2.3,1.8,4.2,3.4,5.6,4.9l-5.3,4.2c-1.3-1.5-3.1-3.1-5.3-4.9-2.2-1.8-4.5-3.6-7.1-5.4-2.5-1.8-5-3.5-7.4-4.9ZM1909.7,34v6.2h-24.1v16h24.1v6h-32.7v-28.1h32.7ZM1881.9,45.2h26.4v5.5h-26.4v-5.5ZM1905.3,34h8.9v75.3c0,2.2-.3,3.9-.8,5.2-.5,1.3-1.5,2.3-2.9,3-1.3.6-3,1.1-5.2,1.3-2.2.2-4.7.3-7.6.3-.1-1.2-.4-2.5-1-4.1-.5-1.6-1.1-3-1.6-4,1.9,0,3.6,0,5.2,0h3.3c.6,0,1-.2,1.2-.4.2-.2.3-.7.3-1.3V34Z"/>
          <path class="cls-3" d="M1929.6,46.5h31.5v7.3h-31.5v-7.3ZM1932.7,72.8h26.7v7h-26.7v-7ZM1933.3,86h7.2v32.7h-7.2v-32.7ZM1933.5,59.8h25.1v7h-25.1v-7ZM1937.2,34.1l7.7-3c1.7,1.9,3.4,4.1,5.1,6.4,1.6,2.3,2.9,4.4,3.7,6.1l-8,3.6c-.8-1.8-2-3.9-3.6-6.4-1.6-2.5-3.2-4.7-4.9-6.7ZM1937.7,86h20.9v28.5h-20.9v-7.3h13.4v-13.9h-13.4v-7.3ZM1979.3,105.2l7.2,4.3c-1.9,1.3-4,2.7-6.5,4-2.5,1.3-5,2.6-7.7,3.7-2.7,1.1-5.2,2-7.7,2.7-.7-.8-1.6-1.7-2.7-2.8s-2.1-2-3-2.7c2.5-.6,5.1-1.5,7.7-2.5s5-2.1,7.3-3.3c2.2-1.2,4.1-2.3,5.5-3.4ZM1963.9,35.3h53.7v6h-53.7v-6ZM1964.4,54.4h52.5v19.7h-52.5v-19.7ZM1967.2,45.4h47.7v5.6h-47.7v-5.6ZM1967.3,77.1h46.9v28.7h-46.9v-28.7ZM1971.7,59.3v10h37.6v-10h-37.6ZM1975.5,82.2v3.6h30.2v-3.6h-30.2ZM1975.5,89.6v3.7h30.2v-3.7h-30.2ZM1975.5,97.1v3.8h30.2v-3.8h-30.2ZM1979.9,55.1h5.8v17.9h-5.8v-17.9ZM1985.5,30.5h9v18h-9v-18ZM1994.6,110.6l3.9-5.5c3.7,1.4,7.5,2.9,11.3,4.6,3.8,1.6,6.9,3.1,9.4,4.4l-4.9,6c-2.4-1.3-5.4-2.8-9-4.6-3.6-1.8-7.2-3.4-10.7-4.9ZM1994.9,55h5.9v18h-5.9v-18Z"/>
          <path class="cls-3" d="M2075.5,40.2l8,3.6c-3.9,4.8-8.4,9.2-13.5,13.4-5.2,4.2-10.6,8-16.4,11.4-5.8,3.4-11.5,6.4-17.2,8.9-.4-.6-1-1.3-1.7-2.2-.8-.9-1.6-1.8-2.4-2.6-.8-.9-1.5-1.6-2.2-2.2,5.8-2.1,11.6-4.7,17.2-7.8,5.6-3.1,10.9-6.5,15.7-10.4,4.9-3.8,9.1-7.8,12.5-12.1ZM2031.2,108.8h87.9v8.1h-87.9v-8.1ZM2033.8,35.8h83v8.1h-83v-8.1ZM2043.1,83h64.2v29.8h-9v-22h-10v22h-8.5v-22h-10v22h-8.4v-22h-9.9v22h-8.5v-29.8ZM2070.3,53.1l8.9-8.8h0v36h-9v-27.3ZM2082.5,56.2l5.9-5.6c3.5,1.8,7.2,3.9,11.1,6.2,3.9,2.3,7.6,4.6,11,6.9,3.5,2.3,6.4,4.4,8.8,6.2l-6.1,6.4c-2.3-2-5.2-4.2-8.7-6.5-3.5-2.4-7.1-4.8-11-7.2s-7.5-4.5-11.1-6.3Z"/>
        </g>
      </g>
    </g>
  </g>
</svg>