<?xml version="1.0" encoding="UTF-8"?>
<svg xmlns="http://www.w3.org/2000/svg" version="1.1" viewBox="0 0 800 117">
  <defs>
    <style>
      .cls-1 {
        fill: #595757;
      }

      .cls-2 {
        fill: #00a7e5;
      }

      .cls-3 {
        fill: #2e3233;
      }

      .cls-4 {
        fill: #a9d1f0;
      }

      .cls-5 {
        fill: #fff;
      }

      .cls-6 {
        fill: #dfc44a;
      }

      .cls-7 {
        fill: #85c5ed;
      }
    </style>
  </defs>
  <!-- Generator: Adobe Illustrator 28.7.8, SVG Export Plug-In . SVG Version: 1.2.0 Build 200)  -->
  <g>
    <g id="_圖層_1" data-name="圖層_1">
      <g>
        <path class="cls-3" d="M119.6,932.4l23.5-71h12.9l23.5,71h-11.8l-11.5-38.5c-1.2-3.9-2.3-7.8-3.4-11.7-1.1-3.9-2.2-7.9-3.3-11.9h-.4c-1,4-2.1,8-3.2,11.9s-2.3,7.8-3.4,11.7l-11.5,38.5h-11.5,0,0ZM133,912.3v-8.9h33.1v8.9h-33.1Z"/>
        <path class="cls-3" d="M213.5,933.8c-4.9,0-9.5-.9-13.8-2.8s-8.1-4.4-11.4-7.7l6.5-7.7c2.6,2.5,5.5,4.5,8.8,6.1,3.3,1.5,6.7,2.3,10.2,2.3s7.5-.9,9.8-2.8,3.4-4.3,3.4-7.2-.5-3.9-1.4-5.2c-1-1.3-2.3-2.4-4-3.3s-3.6-1.8-5.8-2.8l-9.8-4.2c-2.3-1-4.6-2.2-6.8-3.8s-4-3.6-5.5-6c-1.4-2.4-2.2-5.3-2.2-8.8s1-7.1,3-10c2-3,4.8-5.3,8.3-7s7.5-2.6,12-2.6,8.1.8,11.8,2.4c3.7,1.6,6.9,3.8,9.5,6.5l-5.7,7.1c-2.2-2-4.6-3.5-7.2-4.7-2.5-1.1-5.4-1.7-8.5-1.7s-6.5.8-8.7,2.5c-2.1,1.6-3.2,3.8-3.2,6.6s.5,3.7,1.6,5.1c1.1,1.3,2.5,2.4,4.3,3.3s3.6,1.7,5.4,2.5l9.7,4.1c2.8,1.2,5.3,2.6,7.5,4.2,2.2,1.7,3.9,3.7,5.1,6.1s1.8,5.3,1.8,8.9-1,7.2-3,10.4c-2,3.1-4.8,5.6-8.6,7.5-3.7,1.9-8.2,2.8-13.4,2.8h.3,0Z"/>
        <path class="cls-3" d="M268.1,932.4v-61.5h-20.7v-9.4h52.9v9.4h-20.8v61.5h-11.4Z"/>
        <path class="cls-3" d="M317,932.4v-71h23.2c4.9,0,9.2.7,13.1,2s6.9,3.5,9.2,6.5c2.2,3,3.4,7,3.4,12.2s-1.1,9-3.4,12.2c-2.2,3.2-5.3,5.6-9.2,7.2-3.9,1.6-8.2,2.4-13.1,2.4h-12v28.6h-11.2ZM328.2,894.9h10.7c5.1,0,9.1-1.1,11.8-3.2,2.7-2.2,4.1-5.3,4.1-9.6s-1.4-7.3-4.1-9-6.7-2.6-11.8-2.6h-10.7v24.4h0ZM355.7,932.4l-17.6-31.6,8.3-6.5,22,38h-12.7,0Z"/>
        <path class="cls-3" d="M374.4,932.4l23.5-71h12.9l23.5,71h-11.8l-11.5-38.5c-1.2-3.9-2.3-7.8-3.4-11.7s-2.2-7.9-3.3-11.9h-.4c-1,4-2.1,8-3.2,11.9s-2.3,7.8-3.4,11.7l-11.5,38.5h-11.5.1,0ZM387.6,912.3v-8.9h33.1v8.9h-33.1Z"/>
        <path class="cls-3" d="M488.9,884.7c2.1,0,4,.5,5.7,1.5s3,2.3,4,4,1.5,3.6,1.5,5.7-.5,3.8-1.5,5.5-2.3,3.1-4,4.1-3.6,1.5-5.7,1.5-3.8-.5-5.5-1.5-3.1-2.3-4.1-4-1.5-3.5-1.5-5.5.5-4,1.5-5.7,2.3-3,4-4,3.5-1.5,5.5-1.5h.1Z"/>
        <path class="cls-3" d="M573,933.8c-4.9,0-9.5-.9-13.8-2.8s-8.1-4.4-11.4-7.7l6.5-7.7c2.6,2.5,5.5,4.5,8.8,6.1,3.3,1.5,6.7,2.3,10.2,2.3s7.5-.9,9.8-2.8,3.4-4.3,3.4-7.2-.5-3.9-1.4-5.2c-1-1.3-2.3-2.4-4-3.3s-3.6-1.8-5.8-2.8l-9.8-4.2c-2.3-1-4.6-2.2-6.8-3.8s-4-3.6-5.5-6c-1.4-2.4-2.2-5.3-2.2-8.8s1-7.1,3-10c2-3,4.8-5.3,8.3-7s7.5-2.6,12-2.6,8.1.8,11.8,2.4c3.7,1.6,6.9,3.8,9.5,6.5l-5.7,7.1c-2.2-2-4.6-3.5-7.2-4.7-2.5-1.1-5.4-1.7-8.5-1.7s-6.5.8-8.7,2.5c-2.1,1.6-3.2,3.8-3.2,6.6s.5,3.7,1.6,5.1c1.1,1.3,2.5,2.4,4.3,3.3s3.6,1.7,5.4,2.5l9.7,4.1c2.8,1.2,5.3,2.6,7.5,4.2,2.2,1.7,3.9,3.7,5.1,6.1s1.8,5.3,1.8,8.9-1,7.2-3,10.4c-2,3.1-4.8,5.6-8.6,7.5-3.7,1.9-8.2,2.8-13.4,2.8h.3Z"/>
        <path class="cls-3" d="M615.9,932.4v-71h23.2c4.9,0,9.2.7,13.1,2s6.9,3.5,9.2,6.5c2.2,3,3.4,7,3.4,12.2s-1.1,9-3.4,12.2c-2.2,3.2-5.3,5.6-9.2,7.2-3.9,1.6-8.2,2.4-13.1,2.4h-12v28.6h-11.2ZM627,894.9h10.7c5.1,0,9.1-1.1,11.8-3.2,2.7-2.2,4.1-5.3,4.1-9.6s-1.4-7.3-4.1-9-6.7-2.6-11.8-2.6h-10.7v24.4h0ZM654.5,932.4l-17.6-31.6,8.3-6.5,22,38h-12.7Z"/>
        <path class="cls-3" d="M683.5,932.4v-71h41.9v9.4h-30.7v19.7h26v9.4h-26v22.8h31.8v9.5h-43v.2h0Z"/>
        <path class="cls-3" d="M779.4,872.1h9.3v27.5c0,3.4-.3,6.7-1,9.9-.6,3.2-1.8,6.3-3.6,9.3s-4.3,5.9-7.6,8.5c-3.3,2.7-7.5,5.1-12.6,7.4-5.1,2.2-11.4,4.2-18.9,6-.3-.7-.8-1.5-1.4-2.5-.6-.9-1.3-1.9-2-2.8s-1.4-1.7-2.1-2.3c7.1-1.5,13.1-3.2,17.9-5.1s8.6-3.9,11.6-6.1c2.9-2.2,5.1-4.5,6.6-7s2.5-5,3-7.6.8-5.2.8-7.9v-27.4h0ZM740.9,904.4h87.3v8.5h-87.3v-8.5ZM743,860.3h39.2v7.8h-39.2v-7.8ZM751.1,881h67.3v27.3h-9.2v-19.3h-49.3v19.3h-8.8v-27.3ZM760.2,851.1h9.1v25.9h-9.1v-25.9ZM786,920.8l4.3-6.5c3.1,1.2,6.5,2.6,10,4.1s7,3.2,10.5,4.9,6.8,3.4,9.9,5.1c3.1,1.6,5.7,3.2,7.8,4.7l-4.6,7.4c-2.1-1.4-4.6-3-7.6-4.7s-6.3-3.5-9.7-5.3c-3.5-1.8-7-3.5-10.5-5.2s-6.9-3.2-10.1-4.5h0ZM786.7,860.1h39.6v7.9h-39.6v-7.9ZM800.5,851.1h9.2v25.7h-9.2v-25.7Z"/>
        <path class="cls-3" d="M840.9,867.3h36.2v7.3h-36.2v-7.3ZM844.9,906.2h7.8v33h-7.8v-33ZM845,880.3h28.9v7.1h-28.9v-7.1ZM845,893.2h28.9v7h-28.9v-7ZM848.7,906.2h25.6v28.7h-25.6v-7.5h17.6v-13.8h-17.6v-7.4h0ZM851.5,854.2l7-3.6c1.4,2,2.8,4.2,4.2,6.5s2.4,4.4,3.1,6.2l-7.4,4c-.6-1.7-1.6-3.9-3-6.4-1.3-2.5-2.7-4.8-3.9-6.8h0ZM875.9,891.6h54.2v7.6h-54.2v-7.6ZM878.4,855h49.5v7.6h-49.5v-7.6ZM880.6,871.3h40.7v23.6h-8.5v-16.1h-32.3v-7.5h0ZM881,905.1h43.3v35.2h-8.8v-27.3h-26.1v27.6h-8.5v-35.5h0ZM885.2,928.8h35v7.9h-35v-7.9ZM894.1,858.1l8.9.8c-.6,3.9-1.3,8-2.1,12.4s-1.6,8.7-2.4,12.8c-.8,4.1-1.5,7.7-2.2,10.7h-9c.6-2.4,1.2-5.1,1.8-8,.6-3,1.2-6.1,1.8-9.4.6-3.3,1.2-6.6,1.7-9.9s1-6.4,1.4-9.2v-.2h0Z"/>
        <path class="cls-3" d="M945.5,854.5h8.6v86h-8.6v-86ZM950.2,865.8h25.8v5.5h-25.8v-5.5ZM951,854.5h30.8v28.2h-30.8v-6h22.2v-16.2h-22.2v-6.1h0ZM975,884.9l7.2,2.2c-1.6,2.1-3.5,4.2-5.7,6.3s-4.6,3.9-7,5.7c-2.5,1.7-4.9,3.2-7.4,4.5-.7-.7-1.6-1.5-2.6-2.4s-2-1.6-2.8-2.1c2.4-1.2,4.7-2.5,7.1-4,2.3-1.5,4.5-3.2,6.5-4.9s3.6-3.5,4.7-5.2h0ZM973.5,916h7.4c-.4,3.5-1.2,6.5-2.5,9.2s-3.1,5-5.6,6.9-5.9,3.6-10.2,4.9c-.5-1-1.1-2.1-2-3.3s-1.7-2.2-2.6-2.8c3.7-.9,6.6-2,8.7-3.4,2.1-1.3,3.6-3,4.7-4.9,1-1.9,1.7-4.1,2-6.6h0,0ZM967.4,898.3h36.1v18.6h-36.1v-18.6ZM974.5,903.9v7.5h21.3v-7.5h-21.3ZM987.5,914.2h7.7v12.4c0,1,0,1.6.3,1.8.2.3.7.4,1.5.4h5.2c.6,0,1-.2,1.3-.5s.5-1,.6-2c.2-1,.3-2.5.3-4.5.7.6,1.7,1.1,3,1.6s2.5.9,3.5,1.1c-.3,4.3-1.1,7.2-2.2,8.6-1.2,1.4-3,2.2-5.5,2.2h-7.4c-2.2,0-4-.3-5.2-.8s-2.1-1.4-2.5-2.7-.7-3-.7-5.3v-12.4h.1ZM988.2,888.7l4.9-3.8c2.3,1.3,4.7,2.9,7.3,4.6,2.5,1.7,4.9,3.5,7.2,5.2,2.3,1.8,4.2,3.4,5.6,4.9l-5.3,4.2c-1.3-1.5-3.1-3.1-5.3-4.9s-4.5-3.6-7.1-5.4c-2.5-1.8-5-3.5-7.4-4.9h0ZM1022.2,854.6v6.2h-24.1v16h24.1v6h-32.7v-28.1h32.7ZM994.2,865.9h26.4v5.5h-26.4v-5.5ZM1017.7,854.6h8.9v75.3c0,2.2-.3,3.9-.8,5.2s-1.5,2.3-2.9,3c-1.3.6-3,1.1-5.2,1.3s-4.7.3-7.6.3c0-1.2-.4-2.5-1-4.1-.5-1.6-1.1-3-1.6-4h8.5c.6,0,1-.2,1.2-.4s.3-.7.3-1.3v-75.2h.2Z"/>
        <path class="cls-3" d="M1041.9,867.1h31.5v7.3h-31.5v-7.3ZM1045,893.4h26.7v7h-26.7v-7ZM1045.7,906.6h7.2v32.7h-7.2v-32.7ZM1045.9,880.4h25.1v7h-25.1v-7ZM1049.5,854.7l7.7-3c1.7,1.9,3.4,4.1,5.1,6.4,1.6,2.3,2.9,4.4,3.7,6.1l-8,3.6c-.8-1.8-2-3.9-3.6-6.4s-3.2-4.7-4.9-6.7h0ZM1050,906.6h20.9v28.5h-20.9v-7.3h13.4v-13.9h-13.4v-7.3h0ZM1091.7,925.9l7.2,4.3c-1.9,1.3-4,2.7-6.5,4s-5,2.6-7.7,3.7-5.2,2-7.7,2.7c-.7-.8-1.6-1.7-2.7-2.8s-2.1-2-3-2.7c2.5-.6,5.1-1.5,7.7-2.5s5-2.1,7.3-3.3c2.2-1.2,4.1-2.3,5.5-3.4h-.1ZM1076.2,856h53.7v6h-53.7v-6ZM1076.7,875h52.5v19.7h-52.5v-19.7ZM1079.5,866.1h47.7v5.6h-47.7v-5.6ZM1079.7,897.8h46.9v28.7h-46.9v-28.7ZM1084,879.9v10h37.6v-10h-37.6ZM1087.9,902.9v3.6h30.2v-3.6h-30.2ZM1087.9,910.3v3.7h30.2v-3.7h-30.2ZM1087.9,917.7v3.8h30.2v-3.8h-30.2ZM1092.2,875.7h5.8v17.9h-5.8v-17.9ZM1097.9,851.1h9v18h-9v-18ZM1106.9,931.3l3.9-5.5c3.7,1.4,7.5,2.9,11.3,4.6,3.8,1.6,6.9,3.1,9.4,4.4l-4.9,6c-2.4-1.3-5.4-2.8-9-4.6s-7.2-3.4-10.7-4.9h0ZM1107.2,875.6h5.9v18h-5.9v-18Z"/>
        <path class="cls-3" d="M1187.9,860.9l8,3.6c-3.9,4.8-8.4,9.2-13.5,13.4-5.2,4.2-10.6,8-16.4,11.4s-11.5,6.4-17.2,8.9c-.4-.6-1-1.3-1.7-2.2-.8-.9-1.6-1.8-2.4-2.6-.8-.9-1.5-1.6-2.2-2.2,5.8-2.1,11.6-4.7,17.2-7.8s10.9-6.5,15.7-10.4c4.9-3.8,9.1-7.8,12.5-12.1h0ZM1143.5,929.4h87.9v8.1h-87.9v-8.1ZM1146.2,856.4h83v8.1h-83v-8.1ZM1155.5,903.6h64.2v29.8h-9v-22h-10v22h-8.5v-22h-10v22h-8.4v-22h-9.9v22h-8.5v-29.8h.1ZM1182.7,873.8l8.9-8.8h0v36h-9v-27.3h0ZM1194.9,876.9l5.9-5.6c3.5,1.8,7.2,3.9,11.1,6.2s7.6,4.6,11,6.9c3.5,2.3,6.4,4.4,8.8,6.2l-6.1,6.4c-2.3-2-5.2-4.2-8.7-6.5-3.5-2.4-7.1-4.8-11-7.2s-7.5-4.5-11.1-6.3h0,0Z"/>
      </g>
      <g>
        <g id="_矩形_32">
          <rect class="cls-3" x="419.6" y="46" width="1" height="25"/>
        </g>
        <g>
          <g>
            <path class="cls-1" d="M277.3,70.8c0,2.3-1.8,4.1-4.1,4.1s-4.1-1.8-4.1-4.1,1.8-4.1,4.1-4.1,4.1,1.8,4.1,4.1ZM273.2,66c-2.7,0-4.8,2.2-4.8,4.8s2.2,4.8,4.8,4.8,4.8-2.2,4.8-4.8-2.2-4.8-4.8-4.8Z"/>
            <path class="cls-1" d="M271.1,73.6v-5.6h2.5c.5,0,.9,0,1.1.2s.5.3.6.5c.2.3.2.5.2.9s-.1.7-.4,1c-.3.3-.7.4-1.2.5.2,0,.3.2.5.3.2.2.4.4.6.7l1,1.5h-.9l-.7-1.2c-.2-.3-.4-.6-.5-.8-.1-.2-.3-.3-.4-.4-.1,0-.2-.1-.3-.1,0,0-.2,0-.4,0h-.9v2.5s-.7,0-.7,0ZM271.8,70.5h1.6c.3,0,.6,0,.8-.1.2,0,.3-.2.4-.3.1-.2.2-.3.2-.5,0-.3,0-.5-.3-.7-.2-.2-.5-.3-.9-.3h-1.8v1.9h0Z"/>
          </g>
          <g>
            <path class="cls-2" d="M86.6,49.8l4-.2c0,1.3.3,2.1.7,2.5.6.7,1.7,1.1,3.4,1.1s2.4-.2,3-.7c.6-.5.9-1.1.9-1.8s-.2-1.1-.7-1.5c-.4-.3-1.3-.8-2.9-1.5-1.6-.7-2.7-1.2-3.4-1.7-.7-.5-1.3-1-1.7-1.8-.4-.7-.6-1.6-.6-2.5,0-1.7.6-3.1,1.8-4.2,1.2-1.1,3-1.7,5.3-1.7s4.2.6,5.5,1.7c1.3,1.1,2,2.6,2.1,4.4l-4,.2c-.1-1-.5-1.7-1.1-2.2-.6-.5-1.5-.8-2.7-.8s-2,.2-2.5.6c-.5.4-.7.9-.7,1.5s.2,1.1.7,1.4c.5.4,1.4.9,3,1.6,2.3,1,3.8,1.8,4.4,2.4.9.9,1.4,2.1,1.4,3.5s-.7,3.3-2.1,4.6c-1.4,1.3-3.4,1.9-5.9,1.9s-3.2-.3-4.5-.9c-1.3-.6-2.2-1.4-2.7-2.4-.5-1-.8-2.2-.7-3.6Z"/>
            <path class="cls-6" d="M107.6,41.7h3.7l-.3,1.8c1.4-1.4,3-2.1,4.6-2.1s1.9.2,2.5.7c.6.5,1,1.1,1.1,1.9.5-.7,1.2-1.3,2.2-1.8.9-.5,1.9-.7,2.9-.7s2.1.3,2.7.9c.6.6,1,1.5,1,2.5,0,.5-.2,1.4-.4,2.6l-1.9,8.9h-3.9l1.9-8.9c.2-1.1.4-1.7.4-1.9,0-.4-.1-.7-.4-1-.2-.2-.6-.4-1.1-.4-1,0-1.9.5-2.7,1.6-.6.7-1,2.1-1.4,3.9l-1.4,6.6h-3.9l1.8-8.8c.2-1,.3-1.7.3-2s-.1-.7-.4-.9c-.3-.2-.6-.4-1.1-.4s-.9.1-1.3.4c-.5.3-.9.6-1.2,1.1-.3.4-.6,1-.9,1.7-.1.3-.3,1.1-.6,2.2l-1.4,6.7h-3.9l3-14.6Z"/>
            <path class="cls-6" d="M135.3,45.8l-3.8-.3c.4-1.3,1.2-2.3,2.3-3s2.5-1.1,4.3-1.1,3.2.4,4.1,1.1c.9.8,1.3,1.7,1.3,2.8s0,.9-.1,1.4c0,.5-.4,1.8-.8,3.9-.4,1.7-.6,3-.6,3.7s.1,1.3.3,2.1h-3.8c-.2-.5-.3-1.1-.3-1.6-.6.6-1.2,1.1-2,1.5-.7.4-1.5.5-2.3.5-1.2,0-2.2-.4-3-1.2-.8-.8-1.2-1.8-1.2-3.1s.4-2.5,1.3-3.3c.9-.8,2.4-1.3,4.6-1.5,1.9-.2,3.1-.3,3.8-.6.2-.6.2-1,.2-1.3s-.2-.8-.5-1.1c-.3-.3-.8-.4-1.5-.4s-1.2.1-1.6.4c-.4.3-.7.7-.8,1.2ZM138.9,49.5c-.2,0-.6.1-.9.2-2,.2-3.3.6-3.9,1.1-.4.3-.6.8-.6,1.4s.2.9.5,1.2c.3.3.8.5,1.3.5s1.2-.1,1.7-.4c.5-.3.9-.7,1.2-1.1.3-.5.5-1.2.7-2.2v-.5Z"/>
            <path class="cls-6" d="M148.1,41.7h3.7l-.6,2.8c1.4-2.1,2.8-3.1,4.4-3.1s1.2.1,1.8.4l-1.5,3.2c-.4-.1-.7-.2-1.1-.2-.7,0-1.4.3-2.1.8-.7.5-1.3,1.2-1.7,2.1-.4.9-.8,2.2-1.2,4.1l-.9,4.6h-3.9l3-14.6Z"/>
            <path class="cls-6" d="M157.2,44.7l.6-2.9h2l.5-2.3,4.5-2.7-1,5h2.3l-.6,2.9h-2.3l-1.3,6.1c-.2,1.1-.3,1.7-.3,1.9,0,.3,0,.5.3.7.2.2.5.3,1,.3s.6,0,1.3,0l-.6,2.9c-.7.1-1.4.2-2.1.2-1.4,0-2.4-.3-3-.8-.6-.5-.9-1.3-.9-2.3s.2-1.5.5-3.1l1.3-5.9h-2Z"/>
            <path class="cls-2" d="M169.8,56.3h-4.2l4.2-20.1h8.9c1.5,0,2.7.2,3.6.5.9.3,1.5.9,2.1,1.7.5.8.8,1.9.8,3.1,0,1.7-.5,3.1-1.5,4.2-1,1.1-2.6,1.8-4.6,2.1.5.5,1,1.1,1.5,1.9.9,1.6,2,3.8,3.1,6.7h-4.5c-.4-1.1-1.1-2.9-2.1-5.3-.6-1.3-1.2-2.2-1.8-2.6-.4-.3-1.1-.4-2.1-.4h-1.7l-1.7,8.3ZM172.2,45h2.2c2.2,0,3.7-.1,4.4-.4.7-.3,1.3-.7,1.7-1.2.4-.6.6-1.2.6-1.8s-.3-1.3-.9-1.6c-.4-.2-1.2-.3-2.4-.3h-4.5l-1.1,5.4Z"/>
            <path class="cls-6" d="M200,50.3h-9.9c0,.2,0,.3,0,.4,0,1,.3,1.8.8,2.4.6.6,1.2.9,2,.9,1.3,0,2.3-.7,3.1-2l3.5.6c-.7,1.4-1.6,2.5-2.7,3.2-1.1.7-2.4,1.1-3.9,1.1s-3.5-.6-4.8-1.9c-1.2-1.2-1.8-2.9-1.8-4.9s.6-3.8,1.7-5.3c1.5-2.1,3.7-3.2,6.4-3.2s3.2.6,4.2,1.7c1,1.1,1.6,2.7,1.6,4.6,0,1,0,1.8-.3,2.6ZM196.7,47.9c0-.2,0-.3,0-.4,0-1.1-.2-1.9-.7-2.4s-1.1-.8-1.9-.8-1.5.3-2.2.9c-.6.6-1.1,1.5-1.3,2.7h6.2Z"/>
            <path class="cls-6" d="M207.1,45.8l-3.8-.3c.4-1.3,1.2-2.3,2.3-3s2.5-1.1,4.3-1.1,3.2.4,4.1,1.1c.9.8,1.3,1.7,1.3,2.8s0,.9-.1,1.4c0,.5-.4,1.8-.8,3.9-.4,1.7-.6,3-.6,3.7s.1,1.3.3,2.1h-3.8c-.2-.5-.3-1.1-.3-1.6-.6.6-1.2,1.1-2,1.5-.7.4-1.5.5-2.3.5-1.2,0-2.2-.4-3-1.2-.8-.8-1.2-1.8-1.2-3.1s.4-2.5,1.3-3.3,2.4-1.3,4.6-1.5c1.9-.2,3.1-.3,3.8-.6.2-.6.2-1,.2-1.3s-.2-.8-.5-1.1c-.3-.3-.8-.4-1.5-.4s-1.2.1-1.6.4c-.4.3-.7.7-.8,1.2ZM210.8,49.5c-.2,0-.6.1-.9.2-2,.2-3.3.6-3.9,1.1-.4.3-.6.8-.6,1.4s.2.9.5,1.2c.3.3.8.5,1.3.5s1.2-.1,1.7-.4c.5-.3.9-.7,1.2-1.1.3-.5.5-1.2.7-2.2v-.5Z"/>
            <path class="cls-6" d="M230.6,56.3h-3.7l.3-1.5c-.7.7-1.4,1.2-2.1,1.5s-1.5.4-2.3.4c-1.5,0-2.7-.5-3.7-1.5-.9-1-1.4-2.6-1.4-4.6s.7-4.5,2-6.3c1.3-1.9,3.1-2.8,5.3-2.8s3.5.8,4.5,2.4l1.6-7.5h3.9l-4.4,20.1ZM221.4,50.4c0,1,.3,1.9.8,2.4.5.6,1.2.9,2,.9s1.4-.2,2-.7c.6-.5,1.1-1.2,1.5-2.2.4-1,.6-2,.6-2.9s-.3-1.9-.9-2.6c-.6-.6-1.2-1-2-1-1.2,0-2.1.6-2.9,1.9-.7,1.3-1.1,2.7-1.1,4.2Z"/>
            <path class="cls-6" d="M237.3,41.7h3.9l-3.1,14.6h-3.9l3.1-14.6ZM238.5,36.2h3.9l-.7,3.5h-3.9l.7-3.5Z"/>
            <path class="cls-6" d="M245.2,41.7h3.7l-.4,1.9c.9-.8,1.8-1.4,2.6-1.7.8-.3,1.7-.5,2.6-.5s2.2.3,2.9,1c.7.7,1,1.6,1,2.8,0,.5-.2,1.5-.5,2.9l-1.8,8.2h-3.9l1.8-8.2c.3-1.2.4-2,.4-2.2,0-.5-.2-.9-.5-1.2-.3-.3-.7-.4-1.3-.4s-1.2.2-2,.7c-.7.5-1.3,1.1-1.7,1.9-.3.6-.7,1.7-1,3.5l-1.2,6h-3.9l3-14.6Z"/>
            <path class="cls-6" d="M259.1,57.1l4.2.6c0,.4,0,.7.2.9.1.2.3.4.6.5s.7.2,1.2.2c.9,0,1.6-.2,2.1-.5.4-.3.7-.7,1-1.3.2-.4.4-1.2.6-2.4v-.7c-1.3,1.1-2.8,1.7-4.3,1.7s-2.6-.5-3.5-1.5c-.9-1-1.4-2.5-1.4-4.4s.3-3.3.9-4.7c.6-1.4,1.5-2.5,2.6-3.2s2.3-1.1,3.4-1.1,1.8.3,2.6.8c.8.5,1.4,1.2,1.9,2.1l.5-2.6h3.7l-2.3,12.1c-.4,2-.8,3.4-1.1,4.2-.3.8-.6,1.5-1,2-.4.5-.8.9-1.4,1.3-.6.3-1.2.6-2,.7-.8.1-1.6.2-2.5.2-2,0-3.6-.4-4.6-1.1-1-.7-1.6-1.9-1.6-3.5,0-.2,0-.4,0-.6ZM263.7,50c0,1.1.2,1.9.7,2.5.5.6,1.1.9,1.9.9s1.4-.3,2-.8c.7-.5,1.2-1.3,1.5-2.2s.5-1.9.5-2.8-.3-1.9-.9-2.5c-.6-.6-1.2-.9-2-.9s-1.3.3-1.9.8c-.6.6-1.1,1.4-1.4,2.6-.3.9-.4,1.7-.4,2.4Z"/>
          </g>
          <g>
            <path class="cls-2" d="M88,75.7h3.4c.2,0,.3,0,.3.2v4.9c0,.4,0,.8.2,1,0,.2.2.4.4.5.3.2.6.3,1,.4.5,0,1.1.1,1.7.1h4c1.6,0,3.4-.2,5.5-.5,0,0,.2,0,.3,0s.1,0,.1,0c-.1.5-.3,1-.4,1.5,0,.2-.1.3-.3.3h-9.3c-.5,0-.9,0-1.3,0-.4,0-.8-.2-1.2-.3-.3-.1-.7-.3-1-.5-.2-.2-.4-.5-.7-1h0c0,0-.1,0-.1,0-1.3.9-1.9,1.5-2.1,1.9,0,0,0,0-.2,0s-.3-.3-.7-.9c0-.1,0-.2,0-.4.7-.3,1.6-.8,2.7-1.6,0,0,0-.2,0-.4v-3.9h-2.4c-.1,0-.2-.1-.2-.3v-.6c0-.2,0-.3.2-.3ZM88.8,71.1c.7.4,1.2.7,1.6,1.1.5.4.9.7,1.3,1.1,0,0,0,0,0,.2-.4.5-.5.8-.6.8-.5-.5-1.1-1-1.7-1.4-.5-.3-.9-.6-1.2-.7,0,0,.2-.4.6-.8,0,0,.1-.1.1-.1ZM89.2,67.3c.6.3,1.2.6,1.6.9.5.3.9.6,1.2.9,0,0,0,0,0,.2-.4.5-.5.8-.6.8-.5-.4-1.1-.8-1.7-1.2-.5-.3-.9-.5-1.2-.6,0,0,.2-.4.6-.8,0,0,0-.1.1-.1ZM98.3,66.8c.9,0,1.4,0,1.4.2s0,.3-.2.3c-.1,0-.2.2-.2.4v.9h5c0,0,.1,0,.1.2v.6c0,.1,0,.2-.1.2h-3.2l.6.3c.2,0,.3.2.3.2s0,.1-.2.2c-.1,0-.2,0-.2.2-.2.5-.4,1-.6,1.4h2.4c.2,0,.4,0,.4.2v8.8c0,.3-.2.6-.6.9-.4.1-.8.2-1.4.3-.1,0-.2,0-.2-.2,0-.3-.2-.7-.4-1.2,0,0,0,0,.1,0,.6,0,.9,0,1-.1.1,0,.2-.2.2-.4v-7.1h-3.4v1.4h2.7c0,0,.1,0,.1.2v.6c0,.2,0,.2-.1.2h-2.7v1.4h1.7c.2,0,.3,0,.3.2v3.2c0,.1,0,.2-.3.2h-3.7v.5c0,.1,0,.2-.3.2h-.7c-.1,0-.2,0-.2-.2v-4c0-.2,0-.2.2-.2h1.7v-1.4h-2.3c0,0-.1,0-.1-.2v-.6c0-.2,0-.2.1-.2h2.3v-1.4h-3.1v8.6c0,.2,0,.2-.3.2h-.7c-.2,0-.3,0-.3-.2v-9.4c0-.2,0-.2.3-.2h2.7c0,0,0-.2-.1-.3-.2-.5-.5-.9-.8-1.4,0,0,.3-.3,1-.6.3.5.6,1,.8,1.4.1.3.3.6.4.9h2.1c.2-.3.4-.7.6-.9.2-.4.4-.8.5-1.3h0s-7.7,0-7.7,0c0,0-.1,0-.1-.2v-.6c0-.1,0-.2.1-.2h5v-1.6c0-.1.1-.2.3-.2ZM97.1,79.4h2.7v-1.6h-2.7v1.6Z"/>
            <path class="cls-2" d="M108.8,70.4c.9.2,1.4.3,1.4.4s0,.2-.2.3c-.1.1-.2.3-.2.4-.1,1.3-.3,2.4-.5,3.3-.1.5-.3.9-.4,1.4,0,.1,0,.2-.1.2-.4-.1-.8-.2-1.1-.3-.1,0-.2,0-.2-.2.3-.6.5-1.3.7-2.1.2-.8.4-1.8.5-3.3,0-.2,0-.3.2-.3ZM110.8,66.7c.9,0,1.4,0,1.4.2s0,.3-.2.3-.2.1-.2.4v16.3c0,.1,0,.2-.3.2h-.7c-.2,0-.3,0-.3-.2v-17c0-.1,0-.2.3-.2ZM113.2,70.2c.1,0,.2,0,.2,0,.4.9.7,1.8,1,2.8,0,.2,0,.3-.1.3-.4.3-.8.5-1.1.5-.3-1.2-.6-2.2-.8-3,0-.1.3-.3.8-.6ZM116,68.2l1.3.5c.1,0,.2.2.2.3s0,.2-.1.2c0,0-.2,0-.2.2-.1.6-.2,1.1-.3,1.5h2.4v-3.9c0-.1,0-.2.3-.2.9,0,1.4,0,1.4.2s0,.3-.2.3c-.1,0-.2.2-.2.4v3.3h4.1c.1,0,.2,0,.2.3v.6c0,.2,0,.3-.2.3h-4.1v4.3h3.7c.1,0,.2.1.2.3v.6c0,.2,0,.3-.2.3h-3.7v4.6h4.7c.1,0,.2,0,.2.3v.6c0,.2,0,.3-.2.3h-10.9c-.1,0-.2,0-.2-.3v-.6c0-.2,0-.3.2-.3h4.9v-4.6h-3.6c-.1,0-.2-.1-.2-.3v-.6c0-.2,0-.3.2-.3h3.6v-4.3h-2.7c-.2.6-.4,1.1-.6,1.7-.2.5-.4,1-.7,1.4-.2,0-.3,0-.4,0-.2,0-.5-.2-.7-.3,0,0-.1,0-.1-.1,0,0,0-.1,0-.1.4-.6.7-1.3,1-2.2.2-.5.3-1,.5-1.6.1-.6.3-1.4.4-2.3,0,0,0-.1,0-.1Z"/>
            <path class="cls-2" d="M129.4,67.1h6.2c.2,0,.3,0,.3.2v5.3c0,.2,0,.2-.3.2h-5.2v10.9c0,.2,0,.2-.3.2h-.7c-.2,0-.3,0-.3-.2v-16.5c0-.2,0-.2.3-.2ZM130.4,69.5h4.3v-1.3h-4.3v1.3ZM130.4,71.8h4.3v-1.3h-4.3v1.3ZM133.9,74l1.1.5c.2,0,.3.2.3.3s0,.1-.3.1c-.2,0-.4,0-.4.1-.4.4-.7.7-1,.9h6.6c-.1,0-.2-.2-.3-.3-.3-.3-.5-.6-.7-.9,0,0,0,0,0-.1h-2.7c-.1,0-.2-.1-.2-.3v-.6c0-.2,0-.2.2-.2h3.4c.2,0,.3,0,.3.2,0,.3,0,.6.2.8.1.2.3.4.6.6.2.2.5.3.9.4.3,0,.6.2.9.2,0,0,.1,0,.1,0,0,0,0,0-.2.1-.2.2-.4.4-.6.6,0,0-.2.1-.4.1-.2,0-.5-.2-.9-.3-.1,0-.2,0-.3-.1v3.4c0,.1,0,.2-.3.2h-1.6v1.5c0,.5.3.7.9.7h.7c0,0,.2,0,.2-.2,0-.1,0-.4,0-.9,0,0,0-.1,0-.1.3.2.7.3,1,.3.1,0,.2,0,.2.2,0,.8-.2,1.3-.4,1.5,0,.2-.3.3-.6.3h-2c-1,0-1.5-.4-1.5-1.1v-2.2h-1.3c0,.3,0,.7,0,.9,0,.3-.2.7-.3,1-.1.3-.4.6-.6.8-.3.2-.7.5-1.1.6-.4.1-.8.2-1.2.3-.1,0-.2,0-.2-.2-.2-.2-.3-.5-.5-.7,0,0,0-.1,0-.2.6,0,1.1-.2,1.5-.3.3,0,.5-.2.7-.4.2-.1.3-.3.4-.5.1-.2.2-.4.3-.7,0-.2,0-.4,0-.7h-1.4c-.2,0-.3,0-.3-.2v-3.4c-.2.1-.3.2-.5.3-.2,0-.3.1-.4.1s-.2,0-.3-.1c-.3-.1-.5-.2-.7-.3,0,0-.1,0-.1,0,0,0,0,0,.1-.1.6-.3,1-.6,1.4-.9.4-.3.8-.6,1-1,0,0,.1-.1.2-.1ZM139.2,78.7v-1.7h-4.7v1.7h4.7ZM138.2,67.1h6.3c.2,0,.4,0,.4.2v14.9c0,.6-.2,1.1-.7,1.5-.4.3-1,.4-1.7.5-.1,0-.2,0-.2-.2,0-.3-.2-.7-.4-1.2,0,0,0-.1.1-.1.8,0,1.2,0,1.3-.2.2-.2.2-.4.2-.7v-8.8h-5.3c-.2,0-.3,0-.3-.2v-5.3c0-.2,0-.2.3-.2ZM139.2,69.5h4.3v-1.3h-4.3v1.3ZM139.2,71.8h4.3v-1.3h-4.3v1.3Z"/>
            <path class="cls-2" d="M148.9,69.9h5.7c.1,0,.2,0,.2.3v.6c0,.2,0,.3-.2.3h-5.7c-.1,0-.2,0-.2-.3v-.6c0-.2,0-.3.2-.3ZM149.4,78.1h4.7c.2,0,.3,0,.3.2v5.1c0,.1,0,.2-.3.2h-.7c-.1,0-.2,0-.2-.2v-.6h-2.7v.9c0,.2,0,.2-.3.2h-.7c-.1,0-.2,0-.2-.2v-5.4c0-.1,0-.2.2-.2ZM149.8,67.2h4.1c.1,0,.2.1.2.3v.6c0,.2,0,.3-.2.3h-4.1c-.1,0-.2,0-.2-.3v-.6c0-.2,0-.3.2-.3ZM149.8,72.6h4.1c.1,0,.2.1.2.3v.6c0,.2,0,.3-.2.3h-4.1c-.1,0-.2-.1-.2-.3v-.6c0-.2,0-.3.2-.3ZM149.8,75.3h4.1c.1,0,.2,0,.2.3v.6c0,.2,0,.3-.2.3h-4.1c-.1,0-.2,0-.2-.3v-.6c0-.2,0-.3.2-.3ZM150.5,81.7h2.7v-2.4h-2.7v2.4ZM156.5,76.2h8.2c.2,0,.3,0,.3.2v5.6c0,.1,0,.2-.3.2h-1.7c.4.2.7.4,1,.6.4.2.9.4,1.7.6,0,0,.1.1.1.1,0,0-.2.4-.7.9,0,0,0,0-.2,0-1.4-.6-2.5-1.1-3.2-1.6,0,0-.1,0-.1-.1,0,0,.1-.2.4-.4h-2.8c.5.4.7.6.7.7s0,.1-.2.1c-.2,0-.4,0-.4,0-1,.6-2,1-3.1,1.4-.1,0-.2,0-.3-.1,0-.1-.2-.3-.4-.5,0,0-.1-.1-.1-.2s0,0,.1-.1c.6-.2,1.1-.4,1.5-.6.4-.2.9-.5,1.3-.8h-1.8c-.2,0-.3,0-.3-.2v-5.6c0-.1,0-.2.3-.2ZM155.6,68h4.3v-1c0,0,0-.1.2-.1.9,0,1.3,0,1.3.2s0,.2-.1.3c0,0-.1.1-.1.3v.3h4.3c0,0,.1,0,.1.2v.4c0,.2,0,.3-.1.3h-4.3v.8h3.5c0,0,.1,0,.1.2v.4c0,.2,0,.3-.1.3h-8.3c0,0-.1,0-.1-.3v-.4c0-.1,0-.2.1-.2h3.6v-.8h-4.3c0,0-.1-.1-.1-.3v-.4c0-.2,0-.2.1-.2ZM155.8,71.5h9.5c.2,0,.3,0,.3.2v3.5c0,.1,0,.2-.3.2h-9.5c-.2,0-.3,0-.3-.2v-3.5c0-.1,0-.2.3-.2ZM158.3,74.6v-2.3h-1.6v2.3h1.6ZM157.4,78h6.3v-.9h-6.3v.9ZM157.4,79.7h6.3v-.9h-6.3v.9ZM163.7,81.3v-.8h-6.3v.8h6.3ZM161.3,74.6v-2.3h-1.8v2.3h1.8ZM164.4,74.6v-2.3h-1.8v2.3h1.8Z"/>
          </g>
          <g>
            <path class="cls-6" d="M277.7,48.4h7.5l-.8,3.7h-7.5l.8-3.7Z"/>
            <path class="cls-2" d="M297.6,57.5h-3.9l-.7-16.5-3.1,16.5h-3.7l4.1-19.8h5.8l.6,13.9,6.8-13.9h5.9l-4.1,19.8h-3.7l3.9-16.4-7.8,16.4Z"/>
            <path class="cls-6" d="M314.7,47.2l-3.8-.3c.4-1.3,1.2-2.3,2.3-3,1.1-.7,2.5-1.1,4.3-1.1s3.2.4,4.1,1.1c.9.7,1.3,1.6,1.3,2.7s0,.9-.1,1.4c0,.5-.3,1.8-.8,3.8-.4,1.7-.6,2.9-.6,3.6s.1,1.3.3,2h-3.8c-.2-.5-.2-1.1-.3-1.6-.6.6-1.2,1.1-2,1.5s-1.5.5-2.2.5c-1.2,0-2.2-.4-2.9-1.2-.8-.8-1.2-1.8-1.2-3s.4-2.5,1.3-3.3c.9-.8,2.4-1.3,4.6-1.5,1.8-.2,3.1-.3,3.7-.6.2-.5.2-1,.2-1.3s-.2-.8-.5-1c-.3-.3-.8-.4-1.5-.4s-1.2.1-1.6.4c-.4.3-.7.7-.8,1.2ZM318.4,50.8c-.2,0-.5.1-.9.2-1.9.2-3.2.6-3.8,1-.4.3-.6.8-.6,1.3s.2.8.5,1.1c.3.3.8.5,1.3.5s1.1-.1,1.7-.4.9-.6,1.2-1.1c.3-.4.5-1.1.7-2.1v-.5Z"/>
            <path class="cls-6" d="M327.7,43.1h3.7l-.4,1.9c.9-.8,1.8-1.4,2.6-1.7.8-.3,1.6-.5,2.5-.5s2.1.3,2.8,1c.7.7,1,1.6,1,2.7s-.1,1.5-.4,2.9l-1.7,8.1h-3.9l1.7-8.1c.3-1.2.4-1.9.4-2.2,0-.5-.1-.9-.4-1.2-.3-.3-.7-.4-1.2-.4s-1.2.2-1.9.7c-.7.5-1.2,1.1-1.6,1.9-.3.6-.6,1.7-1,3.4l-1.2,5.9h-3.9l3-14.3Z"/>
            <path class="cls-6" d="M354.8,57.5h-3.7l.3-1.6c-.7.7-1.4,1.2-2.1,1.5-.7.3-1.4.4-2.3.4-1.5,0-2.7-.5-3.6-1.5-.9-1-1.4-2.5-1.4-4.5s.6-4.4,1.9-6.2c1.3-1.9,3-2.8,5.1-2.8s3.4.8,4.3,2.3l1.6-7.4h3.9l-4.1,19.8ZM345.8,51.6c0,1,.3,1.8.8,2.4.5.6,1.2.9,1.9.9s1.4-.2,2-.7c.6-.5,1.1-1.2,1.5-2.2.4-1,.5-1.9.5-2.9s-.3-1.9-.8-2.5c-.6-.6-1.2-1-1.9-1-1.1,0-2.1.6-2.8,1.9-.7,1.3-1.1,2.6-1.1,4.1Z"/>
            <path class="cls-6" d="M363.9,47.2l-3.8-.3c.4-1.3,1.2-2.3,2.3-3,1.1-.7,2.5-1.1,4.3-1.1s3.2.4,4.1,1.1c.9.7,1.3,1.6,1.3,2.7s0,.9-.1,1.4c0,.5-.3,1.8-.8,3.8-.4,1.7-.6,2.9-.6,3.6s.1,1.3.3,2h-3.8c-.2-.5-.2-1.1-.3-1.6-.6.6-1.2,1.1-2,1.5-.7.3-1.5.5-2.2.5-1.2,0-2.2-.4-2.9-1.2-.8-.8-1.2-1.8-1.2-3s.4-2.5,1.3-3.3c.9-.8,2.4-1.3,4.6-1.5,1.8-.2,3.1-.3,3.7-.6.2-.5.2-1,.2-1.3s-.2-.8-.5-1c-.3-.3-.8-.4-1.5-.4s-1.2.1-1.6.4-.7.7-.8,1.2ZM367.6,50.8c-.2,0-.5.1-.9.2-1.9.2-3.2.6-3.8,1-.4.3-.6.8-.6,1.3s.2.8.5,1.1c.3.3.8.5,1.3.5s1.1-.1,1.7-.4c.5-.3.9-.6,1.2-1.1.3-.4.5-1.1.7-2.1v-.5Z"/>
            <path class="cls-6" d="M376.6,43.1h3.6l-.6,2.8c1.4-2.1,2.8-3.1,4.4-3.1s1.2.1,1.8.4l-1.5,3.2c-.4-.1-.7-.2-1.1-.2-.7,0-1.3.3-2,.8-.7.5-1.2,1.2-1.6,2-.4.8-.8,2.2-1.1,4l-.9,4.5h-3.9l3-14.3Z"/>
            <path class="cls-6" d="M387.6,43.1h3.9l-3,14.3h-3.9l3-14.3ZM388.7,37.7h3.9l-.7,3.5h-3.9l.7-3.5Z"/>
            <path class="cls-6" d="M395.3,43.1h3.7l-.4,1.9c.9-.8,1.8-1.4,2.6-1.7.8-.3,1.6-.5,2.5-.5s2.1.3,2.8,1c.7.7,1,1.6,1,2.7s-.1,1.5-.4,2.9l-1.7,8.1h-3.9l1.7-8.1c.3-1.2.4-1.9.4-2.2,0-.5-.1-.9-.4-1.2-.3-.3-.7-.4-1.2-.4s-1.2.2-1.9.7c-.7.5-1.2,1.1-1.6,1.9-.3.6-.6,1.7-1,3.4l-1.2,5.9h-3.9l3-14.3Z"/>
          </g>
          <polygon class="cls-5" points=".2 24.1 8.7 22.5 50.9 6.5 60.3 6.9 60.6 12.1 69.8 13.8 70 18 79.3 20.8 8.7 35.6 .2 24.1"/>
          <path class="cls-2" d="M6.5,30.9L.2,24.1v10.1c-.2.3-.2.6-.2,1v73.7c0,4.5,3.6,8.1,8,8.1h63.3c4.4,0,8-3.6,8-8.1V20.8C41.2,21.7,6.5,30.9,6.5,30.9Z"/>
          <path class="cls-2" d="M8.7,22.5L50.9,6.5,50.6,0S24.6,15.3,8.7,22.5Z"/>
          <path class="cls-7" d="M13.7,23.9s43.2-11.3,46.8-11.8l-.2-5.2S21.2,21.2,13.7,23.9Z"/>
          <path class="cls-4" d="M17.2,26.1s45.4-8.6,52.7-8.1l-.2-4.2s-47.7,10.2-52.6,12.3Z"/>
          <path class="cls-6" d="M8.6,48.9c-.3-1.4.9-2.7.9-3,.1-1.2,1-2.2,2-3,1.8-1.4,3.5-2.8,5.3-4.3,1.2-1,2.3-2.4,3.7-2.6.3,0,.8,0,1.1-.1.6-.2,1.1-1,1.6-1.4.7-.5,1.1-.6,1.9-.7,1.3-.3,2.8-.6,4.1-1.1,1.4-.5,2.8-.9,4.2-1.2,1.6-.4,3.2-.3,4.7-.3,2.1,0,4.2-.3,6.3-.3,1,0,2,0,3,.2,1.7.3,3.2,1.4,4.9,1.8,1,.2,2,.3,3,.5.6.1,1.2.1,1.7.5.6.4,1.2.9,1.9,1.3,1.6,1.1,2.7,2.7,4.2,3.9,1,.8,2.3,1.3,3.2,2,.6.5,1.1,1,1.8,1.4.8.4,1.8.5,2.4,1.2s1.1,1.6,1.5,2.3c.3.5.7.9,1,1.5.3.5.4,1,.7,1.6.4.9.8,1.3.3,2-.5.6-.2.7.3,1.6.4.6.3,1.1.6,1.8.3,1,1.1,2,1.4,3s.4,2.2.5,3.2c.3,1.6.9,3.3.9,4.9,0,.4.1.9,0,1.2-.2.4-.7.7-.9,1.2-.4.9-.8,2.3-1.6,2.9-.4.3-.6,0-1.3,0-.6,0-.9.2-1,.8-.2,1,0,2.2,0,3.2-.1,1.3-.9,2.7-1.9,3.4-.5.4-1.2.4-1.7.8-.6.5-1,1.2-1.6,1.7-.8.5-1.8.9-2.7,1.3-.6.3-1.3.7-2,.7-.6,0-1.1-.1-1.7-.1-1.7,0-2.9.8-4.7.3-.5-.1-1.2-.4-1.6-.8-1-.8-.7-1.5-.9-2.5-.3-1.3-1.1-2.9-1.9-3.9-1.3-1.8.3-3.3.4-5,.1-2-1.7-3.1-2.7-4.7-.4-.6-.9-1.6-.9-2.2,0-.6.6-.8.5-1.4,0-1.3-1.9-.8-2.6-1.2-.4-.2-.7-.9-1-1.2-.4-.5-1-1-1.5-1.4-.6-.5-1.4-.7-2.1-1-.5-.2-.9-.4-1.5-.3-.7.2-1.6,1.1-2.2,1.6-.8.6-1.6,1.2-2.4,1.9-.5.4-1,1-1.4,1.6-.3.5-.4,1.2-.8,1.6-1.5,1.2-.9-1.2-1.2-1.8-.2-.5-.7-.2-1.1-.6-.5-.4-.5-1.3-.9-1.6,0,0-.1-.2-.2-.3-.6.1-1.1,1.4-1.4,1.9-.3.5-.8,1.1-1.3,1.5-.5.3-1,.5-1.5.8-.6.4-.7.7-1.1,1.3-.6,1-1.3.4-2.2.9-.4.3-.5.7-1,.8-.6.2-1.2-.1-1.7-.3-1.1-.3-2.2-.1-3.4.1-1.6.3-2.6.3-4,0-1.1-.3-2.2-.2-3.3-.3-1.8-.1-2.4-2-2.4-3.6,0-1,0-1.9,0-2.9,0-.8-.3-1.6-.4-2.4,0,0-.5-1.3,1.3-2.9,1.8-1.6.5-.2-.1-1.2-.3-.5,1.1-2.6.7-4.2Z"/>
          <g>
            <path class="cls-2" d="M41,30.5h-2.7c0,.1-1.1.1-1.1.1-1.2,0-2.5,0-3.8.3-1.5.4-2.9.8-4.3,1.3-1.2.4-2.6.8-4,1.1h-.2c-.7.2-1.2.3-2,.8l-.7.6c-.3.3-.5.6-.8.7,0,0-.6,0-.6,0h-.4c-1.3.2-2.2,1.1-3.1,2l-.9.8-5.3,4.3c-1.3,1-2.1,2.2-2.2,3.4,0,0-.2.3-.2.3-.3.5-.8,1.3-.8,2.3s0,.4,0,.6h0c0,.1,0,.3,0,.4,0,.7-.3,1.4-.5,2.1-.2.5-.3,1-.3,1.3s0,.3.1.5c.1.2.2.3.4.4,0,0-.2.2-.2.2-1.3,1.1-1.5,2.1-1.5,2.8s0,.5,0,.6c0,.1.2,1.3.2,1.3l.2,1s0,2.9,0,2.9c0,2.4,1.1,4,2.8,4.1h.9c.8,0,1.6,0,2.3.3,1.5.4,2.5.4,4.3,0,1.2-.2,2.2-.3,3.1-.1h.4c.5.3,1,.5,1.6.2.4-.1.6-.4.8-.6l.3-.3c.3-.2.5-.2.8-.2.5,0,1.1,0,1.6-.9l.2-.3c.2-.4.3-.6.7-.8l.6-.3.9-.5c.6-.4,1-1.1,1.4-1.6l.3-.5c.1-.2.4-.7.6-.9.1.1.2.3.3.6.1.3.3.7.6,1,.3.3.6.3.8.4h.2c0,.1,0,.3,0,.5s0,.3,0,.4c0,.6,0,1.3.6,1.5.5.2,1,0,1.4-.4.4-.3.6-.8.7-1.2l.2-.5c.3-.5.7-1,1.2-1.4,0,0,2.4-1.8,2.4-1.8l.7-.6c.4-.4,1-.8,1.4-.9.4,0,.7,0,1.1.2l.7.3c.5.2.9.4,1.3.7.5.4,1,.9,1.4,1.4l.3.4c.2.4.5.8.9,1,.3.1.7.2,1.1.2.9,0,1.2.2,1.2.5,0,0,0,0,0,0,0,0,0,.2-.2.3-.2.2-.4.5-.4,1h0c0,.9.6,2,.9,2.5l1.2,1.4c.8.9,1.5,1.7,1.5,2.8s0,.1,0,.2c0,.5-.2,1-.4,1.6-.2.6-.5,1.3-.5,2s.2,1.1.6,1.8c.6.9,1.5,2.4,1.8,3.8v.7c.2.7.2,1.4,1.1,2.1.5.4,1.2.7,1.8.9,1.2.3,2.2,0,3.2-.1.6-.1,1.1-.2,1.7-.2h.7c0,0,1,.1,1,.1.6,0,1.2-.3,1.7-.5l.5-.2s.1,0,.1,0c.9-.4,1.9-.8,2.7-1.3.5-.3.8-.7,1.1-1.1l.6-.6c.2-.2.4-.3.7-.4l.9-.4c1.2-.9,2-2.4,2.1-3.8v-1.4c0-.6-.1-1.2,0-1.7,0-.3.2-.4.5-.4h.5c.3.1.7.2,1.1-.2.7-.6,1.1-1.6,1.5-2.4l.3-.6.3-.4c.2-.2.5-.4.6-.8,0-.2,0-.4,0-.6s0-.4,0-.6v-.3c0-1-.3-2.1-.6-3.2l-.4-1.8v-1c-.2-.7-.3-1.5-.5-2.2-.2-.5-.5-1.1-.7-1.6l-.6-1.4-.2-.6c0-.4-.2-.8-.5-1.3l-.3-.5s-.2-.3-.2-.3c0,0,.1-.2.1-.2.3-.4.3-.7.3-1s-.2-.8-.4-1.2l-.2-.4-.3-.6-.4-1-.6-1-.4-.5-.4-.7c-.3-.6-.7-1.2-1.2-1.7-.5-.5-1.1-.7-1.7-.9l-.8-.3c-.5-.3-.9-.6-1.3-.9l-.5-.4c-.5-.4-1-.7-1.6-1-.6-.3-1.1-.6-1.6-1-.6-.5-1.2-1.1-1.7-1.7-.8-.8-1.6-1.6-2.5-2.3,0,0-.9-.6-.9-.6l-1-.7c-.5-.3-1-.4-1.5-.5h-.4c0,0-1.8-.4-1.8-.4l-1.2-.2c-.8-.2-1.6-.5-2.4-.9-.8-.4-1.6-.7-2.5-.9-1-.2-2.1-.2-3.1-.2-1.2,0-2.4,0-3.6.1ZM38.3,31.6h2.8c1.1-.2,2.3-.3,3.5-.3.9,0,1.9,0,2.9.2.8.2,1.5.5,2.3.8.8.4,1.7.8,2.6.9l1.2.2,1.7.3s.5,0,.5,0c.4,0,.8.1,1.1.3l.9.7.9.7c.9.6,1.6,1.3,2.3,2.1.6.6,1.2,1.2,1.8,1.8.5.4,1.1.8,1.7,1.1.5.3,1.1.6,1.5.9,0,0,.5.4.5.4.4.4.9.8,1.5,1.1,0,0,.9.4.9.4.5.2,1,.4,1.4.7.4.4.7.9,1,1.5l.5.8.4.5.6.9.4.9.3.7.2.4c.3.6.3.7.1,1.1-.5.7-.3,1.1,0,1.7l.3.4c.2.3.3.6.3,1l.2.7s.7,1.5.7,1.5c.3.5.5.9.6,1.4.2.6.3,1.3.4,2v1.1c.1,0,.6,1.9.6,1.9.2,1,.5,2,.5,3v.3c0,.2,0,.6,0,.7,0,.1-.2.3-.3.4l-.6.7-.3.7c-.3.8-.7,1.6-1.2,2,0,0-.1,0-.1,0h-.2s-.7-.1-.7-.1c-.8,0-1.4.4-1.5,1.2-.1.6,0,1.3,0,2v1.3c0,1.1-.8,2.4-1.7,3l-.7.3c-.3.1-.7.3-1.1.6,0,0-.7.7-.7.7-.3.3-.5.7-.9.9-.7.5-1.7.8-2.5,1.2h-.1s-.5.3-.5.3c-.4.2-.9.4-1.3.4h-.8c0,0-.9-.1-.9-.1-.7,0-1.3.1-1.9.3-.9.2-1.7.3-2.8.1-.5-.1-1.1-.4-1.4-.7-.5-.4-.6-.8-.6-1.4v-.8c-.5-1.5-1.4-3.2-2.1-4.1-.7-.9-.4-1.8,0-2.8.2-.6.5-1.2.5-1.9.1-1.6-.8-2.7-1.8-3.7l-1.1-1.3c-.4-.6-.8-1.5-.8-2,0-.1,0-.2.2-.4.2-.2.4-.5.4-1,0-1.3-1.4-1.4-2.1-1.5-.3,0-.6,0-.8-.1-.1,0-.3-.4-.5-.6l-.4-.5c-.5-.5-1-1.1-1.6-1.5-.5-.4-1-.6-1.5-.8l-.6-.3c-.5-.2-1.1-.5-1.8-.3-.6.1-1.2.7-1.8,1.1l-.6.5-2.5,1.9c-.6.5-1.1,1.1-1.5,1.7l-.3.7c-.1.3-.2.6-.4.8-.1,0-.2.1-.2.2,0-.2,0-.4,0-.6s0-.3,0-.4c0-.3,0-.6,0-.8-.2-.5-.6-.6-.9-.7-.2,0-.3,0-.4-.2-.1-.1-.2-.4-.3-.6-.1-.3-.3-.7-.6-1,0,0,0,0,.1.1l-.2-.2c-.1-.2-.3-.3-.5-.3-.7.1-1.1,1-1.5,1.6l-.3.4c-.3.5-.7,1-1.1,1.3l-.7.4-.7.4c-.6.3-.8.7-1.1,1.1l-.2.3c-.2.4-.4.4-.8.4-.3,0-.8,0-1.3.4l-.5.5c-.1.2-.2.2-.4.3-.3,0-.6,0-1-.1h-.4c-1.3-.4-2.5-.3-3.6,0-1.6.3-2.5.3-3.8,0-.9-.2-1.7-.3-2.5-.3h-.9c-1.8-.2-1.9-2.6-1.9-3.1v-3c0,0-.3-1.1-.3-1.1l-.2-1.2s0-.1,0-.2c0,0-.4-1,1.1-2.4l.6-.5c.4-.4.6-.6.5-.9,0-.2-.2-.3-.6-.3-.3,0-.4,0-.4-.1,0,0,.2-.6.3-.9.3-.9.7-2,.5-3.1h0c-.2-.8.3-1.6.6-2.1l.3-.7c.1-1.1,1.1-2.1,1.8-2.7l5.3-4.3.9-.8c.8-.8,1.6-1.6,2.6-1.7h.3s.9-.2.9-.2c.5-.2.8-.6,1.2-.9l.5-.5c.5-.4.9-.5,1.5-.6h.2c1.4-.3,2.9-.7,4.2-1.1,1.4-.5,2.7-.9,4.2-1.2,1.2-.3,2.3-.3,3.6-.3h1.1Z"/>
            <path class="cls-2" d="M23.6,43.6c-4.5.8-8,5.3-7.5,9.5.1,1.1.4,2.2.7,3.2.5,1.6.9,3.1.8,4.9-.1,2.3-1.4,3.2-3.2,4.5l-1.1.8.4.5,1.1-.8c1.8-1.3,3.3-2.4,3.5-5,.1-1.9-.3-3.5-.8-5.1-.3-1-.6-2-.7-3.1-.5-3.8,2.8-7.9,7-8.7,1.6-.3,4.3-.5,5.2.5.3.3.4.7.3,1.2h.7c.1-.6,0-1.2-.5-1.7-1.5-1.5-5.7-.7-5.9-.6Z"/>
            <path class="cls-2" d="M26,40.8c-.5.9-.7,1.9-.4,2.8l.6-.2c-.3-.9,0-1.7.3-2.3.6-1.1,1.7-1.9,2.9-2.2v-.7c-1.5.3-2.8,1.3-3.5,2.5Z"/>
            <path class="cls-2" d="M23.3,58.7l.2.3c.9,1.5,2.5,4.4,4.3,4.2v-.7c-1.4.2-3-2.6-3.7-3.8l-.2-.3c-1.5-2.6-1.8-4.9-1.8-8.2h-.7c0,3.4.3,5.8,1.9,8.6Z"/>
            <path class="cls-2" d="M33.8,41.1c.9.6,1.4,1.6,1.5,2.8,0,1.6-.8,3.3-2,4.3-1.8,1.3-4.6.5-6.7-.6l-.3.6c2.2,1.2,5.4,2,7.4.5,1.5-1.1,2.4-3,2.3-4.8,0-1.5-.7-2.7-1.8-3.4l-.4.6Z"/>
            <path class="cls-2" d="M33,48.9c.2,0,.7.3.8.4.2.4.1,1,0,1.4-.4.7-1.1,1-1.8,1.2l-1.2.5c-1.6,1-2.9,2.7-3.2,4.6-.3,1.6,0,2.8.6,3.6.3.3.5.4.7.6l.6.4.4-.5-.7-.5c-.2,0-.3-.2-.5-.4-.5-.6-.7-1.7-.4-3.1.3-1.6,1.5-3.2,2.9-4.1,0,0,1-.5,1-.5.8-.3,1.7-.6,2.2-1.6.3-.5.4-1.5,0-2.1-.2-.3-.5-.5-.9-.6l-.5.5Z"/>
            <path class="cls-2" d="M10.9,43.1c.3.5.5,1.3.7,2.1.5,1.7,1.1,3.6,2.5,4.4.8.4,1.8.5,2.9.1l-.2-.6c-1,.3-1.8.3-2.4,0-1.2-.6-1.7-2.4-2.2-4-.2-.8-.5-1.6-.8-2.2l-.6.3Z"/>
            <path class="cls-2" d="M13.9,57.7c0,.7-.3,1.4-1,1.9-1.6,1.2-4.6,1.4-5.7,1l-.2.6c1.3.5,4.5.3,6.4-1,.9-.6,1.4-1.5,1.3-2.5h-.7Z"/>
            <path class="cls-2" d="M11.3,60.6l.6-.2c-.8-2.6-.3-7.5,2.2-9.6l-.4-.5c-2.9,2.3-3.3,7.6-2.5,10.3Z"/>
            <path class="cls-2" d="M37,36.6c0,1.7,1.3,3,2.4,4.3.6.7,1.3,1.4,1.7,2.1,0,0,0,0,0,0,.8,1.3,1.6,2.7,2,4.2.4,1.3.4,2.6.3,4v1.2c0,1.6-.4,4.3-1.8,4.4v.7c2.4-.2,2.5-4.3,2.5-5.1,0,0,0-1.1,0-1.1,0-1.4,0-2.8-.4-4.2-.4-1.6-1.3-3-2.1-4.4h0c-.5-.9-1.1-1.6-1.8-2.3-1.1-1.2-2.2-2.4-2.2-3.9,0-1.6,1-4.4,2-5.4l-.5-.5c-1.3,1.2-2.3,4.3-2.2,5.9Z"/>
            <path class="cls-2" d="M37.1,36.6l.5.4c1.3-1.4,4.3-3.2,6.2-2.8.8.2,1.3.7,1.6,1.7,0,0,.2,1,.2,1,0,.9.2,1.9,1.4,2.6.8.4,2.1.3,3,0,2.2-.5,2.5-1.8,2.9-3.6l-.7-.2c-.4,1.7-.7,2.7-2.4,3.1-1.2.3-2.1.3-2.5,0-.9-.5-1-1.2-1-2l-.2-1.1c-.3-1.2-1-1.9-2.1-2.1-2.3-.5-5.5,1.4-6.9,3Z"/>
            <path class="cls-2" d="M46.8,50c-.8.3-1.5.3-2.3.3h-.6s0,.7,0,.7h.6c.9,0,1.7,0,2.6-.3,1.7-.7,3.7-2.9,3.7-4.9h-.7c0,1.7-1.7,3.6-3.3,4.3Z"/>
            <path class="cls-2" d="M50.6,46.1c2.3.3,4-.4,5.2-2.1l-.6-.4c-1,1.5-2.6,2.1-4.5,1.8-1.4-.2-3.3-1.6-3.2-3.2h-.7c-.1,1.9,2.2,3.6,3.8,3.8Z"/>
            <path class="cls-2" d="M35.5,55.7c.3,1.6,1.2,3.4,2.4,3.5l.3-.6c-.9,0-1.7-1.3-2-3-.2-1.3-.1-2.8.6-3.1l-.3-.6c-1.2.5-1.3,2.3-1,3.9Z"/>
            <path class="cls-2" d="M58.1,35v4.7c0,2.2.8,3.3,2.1,4.9l.2.3c1.3,1.7,2.4,4.9,2,7.2-.2,1.1-.8,1.9-1.6,2.4-.8.5-2,.3-3.1.1l-1.3-.2c-2.2-.2-3.6.3-4.9,1.7-.5.5-1,.9-1.5,1.4-1.4,1.2-2.8,2.2-1.8,4.5l.6-.3c-.8-1.8.2-2.5,1.6-3.7.5-.4,1.1-.9,1.6-1.4,1.2-1.2,2.4-1.6,4.3-1.5l1.2.2c1.2.2,2.5.4,3.5-.2,1-.6,1.7-1.5,1.9-2.8.5-2.6-.7-6-2.1-7.8l-.2-.3c-1.3-1.6-2-2.6-2.1-4.5v-4.7c.1,0-.5,0-.5,0Z"/>
            <path class="cls-2" d="M63,52.1c5.2.7,8.7,4.5,8.6,9.3h.7c.1-5.1-3.7-9.2-9.2-10v.7Z"/>
            <path class="cls-2" d="M69.8,62.8c-.3.6-.6,1.2-1.2,1.7l.4.5c.7-.6,1-1.3,1.3-1.9.5-1.1.9-1.8,2.7-1.6,1.3.2,1.6.4,2.2,1.5l.3.7c.4,1,.9,2.3,2.3,2.3v-.7c-.8,0-1.2-.7-1.6-1.8l-.3-.8c-.7-1.4-1.2-1.7-2.7-1.9-2.3-.3-2.8.9-3.4,2Z"/>
            <path class="cls-2" d="M54.6,55.1c1.7.2,2.6,1,3.5,1.7l.3.2c2.5,1.8,2.8,3.6,2.5,6.2-.2,1.5-.6,3.3-1.9,4.6l-.8.8c-.6.5-1.3,1.1-1.7,2.1-.5,1.3-2.2,8.8-.5,11.5.4.6.9.9,1.6.9v-.6c-.3,0-.8-.3-1.1-.7-1.5-2.3,0-9.4.5-10.9.3-.9.8-1.3,1.5-1.9l.9-.8c1.5-1.5,1.9-3.4,2.1-5,.3-2.7,0-4.8-2.8-6.8l-.3-.2c-1-.7-1.9-1.4-3.2-1.6l-.7.5Z"/>
            <path class="cls-2" d="M66.8,67.9c.2.3.3.5.2.7-.2.6-1.3,1-2.1,1.4-.7.3-1.3.5-1.6.8-1.1,1.1-.8,3.6-.7,5,.1,1.2.7,4.8,1.9,6.1l.5-.5c-1-1-1.6-4.4-1.8-5.7-.1-1.2-.4-3.6.5-4.4.2-.2.8-.4,1.3-.7,1.1-.4,2.3-.9,2.5-1.8.1-.4,0-.9-.3-1.3l-.5.4Z"/>
            <path class="cls-2" d="M64.2,63.2l.2,1c.3,1.4.5,2.7,2.3,3.7,2.2,1.3,4.6,1.4,6.3.5l-.3-.6c-1.5.8-3.6.7-5.6-.5-1.5-.8-1.7-1.8-2-3.2l-.2-1-.7.2Z"/>
            <path class="cls-2" d="M59,68.1l.3-.5c-2.5-.8-3.8-4.4-3.6-6.6h-.7c-.2,2.3,1,6.2,4,7.1Z"/>
            <path class="cls-2" d="M64.4,43.6c0,1-.2,2.4-1,3-.4.4-1,.5-1.6.3v.6c1,.2,1.4.1,2-.4,1-.8,1.3-2.5,1.2-3.6h-.7Z"/>
            <path class="cls-2" d="M56.6,49.6c0,1,0,1.9.7,2.8.9,1,2.7,2.7,4.1,2.2v-.7c-1.1.5-2.8-1-3.5-1.9-.6-.8-.6-1.5-.6-2.4v-.5s-.7,0-.7,0v.4Z"/>
            <path class="cls-2" d="M57.4,74.5c1.8,2.6,3.5,3,6.1,3.4v-.7c-2.6-.4-4-.8-5.5-3.1l-.6.4Z"/>
          </g>
          <g>
            <path class="cls-5" d="M26.8,78.8c0,2.4-.5,4.2-1.4,5.7-.9,1.4-2.3,2.1-4.1,2.1v-2.5c1.8,0,2.7-1.7,2.7-5.2h-2.7v-5.5h5.5v5.5Z"/>
            <path class="cls-5" d="M47.1,78.8c0,2.4-.5,4.2-1.4,5.7-.9,1.4-2.3,2.1-4.1,2.1v-2.5c1.8,0,2.7-1.7,2.7-5.2h-2.7v-5.5h5.5s0,5.5,0,5.5Z"/>
            <path class="cls-5" d="M34.4,100.2c-.9-.5-7.5-4.4-7.5-4.4l-1,1.7,8.1,4.7c.3.2.7.2,1.1,0l10.8-7.1-1.1-1.7s-9.3,6.1-10.2,6.7Z"/>
          </g>
          <g>
            <path class="cls-5" d="M14.7,111h.7c0,.2.1.5.2.7.1.2.3.3.6.5.3.1.6.2.9.2s.6,0,.8-.1c.2,0,.4-.2.5-.4.1-.2.2-.3.2-.5s0-.4-.2-.5c-.1-.1-.3-.3-.5-.4-.2,0-.5-.2-1.1-.3-.5-.1-.9-.3-1.2-.4-.3-.2-.5-.3-.6-.6s-.2-.5-.2-.8,0-.6.3-.9c.2-.3.4-.5.8-.6.3-.1.7-.2,1.1-.2s.8,0,1.2.2c.3.1.6.4.8.6.2.3.3.6.3.9h-.8c0-.3-.2-.6-.4-.8-.2-.2-.6-.3-1-.3s-.8,0-1,.3c-.2.2-.3.4-.3.6s0,.4.2.5c.2.1.5.3,1.2.4.6.1,1.1.3,1.3.4.3.2.6.4.8.6.2.2.3.5.3.9s0,.6-.3.9c-.2.3-.4.5-.8.7-.3.2-.7.2-1.2.2s-1,0-1.4-.2c-.4-.2-.7-.4-.9-.7-.2-.3-.3-.7-.3-1.1Z"/>
            <path class="cls-5" d="M20.4,112.9v-4.4h.7v.6c.1-.2.3-.4.5-.5.2-.1.5-.2.8-.2s.6,0,.8.2c.2.1.4.3.4.6.3-.5.8-.8,1.4-.8s.8.1,1,.4c.2.2.3.6.3,1.1v3h-.7v-2.7c0-.3,0-.5,0-.6,0-.1-.1-.2-.3-.3-.1,0-.3-.1-.4-.1-.3,0-.6.1-.8.3-.2.2-.3.5-.3,1v2.5h-.7v-2.8c0-.3,0-.6-.2-.7-.1-.2-.3-.2-.6-.2s-.4,0-.6.2c-.2.1-.3.3-.4.5,0,.2-.1.5-.1.9v2.3h-.7Z"/>
            <path class="cls-5" d="M30.3,112.4c-.3.2-.5.4-.8.5-.3,0-.5.1-.8.1-.5,0-.9-.1-1.1-.4-.3-.2-.4-.5-.4-.9s0-.4.1-.6c0-.2.2-.3.4-.4.2-.1.3-.2.5-.2.1,0,.4,0,.7-.1.6,0,1-.2,1.3-.3,0-.1,0-.2,0-.2,0-.3,0-.5-.2-.6-.2-.2-.5-.3-.8-.3s-.6,0-.8.2c-.2.1-.3.3-.4.6h-.7c0-.4.2-.7.3-.8.2-.2.4-.3.7-.4.3-.1.6-.2,1-.2s.7,0,.9.1c.2,0,.4.2.5.3.1.1.2.3.2.5,0,.1,0,.4,0,.7v1c0,.7,0,1.1,0,1.3,0,.2,0,.4.2.5h-.8c0-.2-.1-.3-.1-.5ZM30.2,110.7c-.3.1-.7.2-1.2.3-.3,0-.5,0-.6.1-.1,0-.2.1-.3.2,0,.1-.1.2-.1.3,0,.2,0,.4.2.5.1.1.4.2.7.2s.5,0,.8-.2.4-.3.5-.5c0-.2.1-.4.1-.7v-.3Z"/>
            <path class="cls-5" d="M32.1,112.9v-4.4h.7v.7c.2-.3.3-.5.5-.6s.3-.1.5-.1c.2,0,.5,0,.8.2l-.3.7c-.2-.1-.4-.1-.5-.1s-.3,0-.4.1c-.1,0-.2.2-.3.4,0,.3-.1.5-.1.9v2.3h-.7Z"/>
            <path class="cls-5" d="M36.5,112.2v.7c-.1,0-.3,0-.5,0-.3,0-.5,0-.6-.1-.1,0-.3-.2-.3-.3,0-.1,0-.4,0-.9v-2.5h-.5v-.6h.5v-1.1l.7-.4v1.5h.8v.6h-.8v2.5c0,.2,0,.3,0,.4,0,0,0,.1.1.1,0,0,.1,0,.3,0,0,0,.2,0,.3,0Z"/>
            <path class="cls-5" d="M39.7,112.9v-6h2.7c.5,0,.9,0,1.2.2.3.1.5.3.7.6.2.3.2.6.2.9s-.1.8-.4,1.1c-.3.3-.7.5-1.3.6.2.1.4.2.5.3.2.2.5.5.7.8l1,1.6h-1l-.8-1.2c-.2-.4-.4-.6-.6-.8-.1-.2-.3-.3-.4-.4-.1,0-.2-.1-.4-.2,0,0-.2,0-.4,0h-.9v2.7h-.8ZM40.5,109.6h1.7c.4,0,.6,0,.9-.1.2,0,.4-.2.5-.4.1-.2.2-.3.2-.5,0-.3-.1-.5-.3-.7-.2-.2-.5-.3-1-.3h-1.9s0,2,0,2Z"/>
            <path class="cls-5" d="M48.6,111.5h.8c-.1.5-.3.9-.7,1.1-.3.2-.7.4-1.2.4s-1.1-.2-1.5-.6c-.4-.4-.6-.9-.6-1.7s.2-1.3.6-1.7c.4-.4.9-.6,1.5-.6s1.1.2,1.4.6c.4.4.6,1,.6,1.7s0,.1,0,.2h-3.3c0,.5.2.8.4,1.1.2.3.5.4.9.4s.5,0,.7-.2c.2-.1.3-.4.5-.7ZM46.2,110.3h2.4c0-.4-.1-.6-.3-.8-.2-.3-.5-.4-.9-.4s-.6.1-.9.3c-.2.2-.4.5-.4.9Z"/>
            <path class="cls-5" d="M53.1,112.4c-.3.2-.5.4-.8.5-.3,0-.5.1-.8.1-.5,0-.9-.1-1.1-.4-.3-.2-.4-.5-.4-.9s0-.4.1-.6c0-.2.2-.3.4-.4.2-.1.3-.2.5-.2.1,0,.4,0,.7-.1.6,0,1-.2,1.3-.3,0-.1,0-.2,0-.2,0-.3,0-.5-.2-.6-.2-.2-.5-.3-.8-.3s-.6,0-.8.2c-.2.1-.3.3-.4.6h-.7c0-.4.2-.7.3-.8.2-.2.4-.3.7-.4.3-.1.6-.2,1-.2s.7,0,.9.1c.2,0,.4.2.5.3.1.1.2.3.2.5,0,.1,0,.4,0,.7v1c0,.7,0,1.1,0,1.3,0,.2,0,.4.2.5h-.8c0-.2-.1-.3-.1-.5ZM53.1,110.7c-.3.1-.7.2-1.2.3-.3,0-.5,0-.6.1-.1,0-.2.1-.3.2,0,.1-.1.2-.1.3,0,.2,0,.4.2.5.1.1.4.2.7.2s.5,0,.8-.2.4-.3.5-.5c0-.2.1-.4.1-.7v-.3Z"/>
            <path class="cls-5" d="M57.8,112.9v-.6c-.3.4-.7.7-1.2.7s-.7,0-1-.3c-.3-.2-.5-.5-.7-.8s-.2-.7-.2-1.2,0-.8.2-1.2c.1-.4.4-.6.6-.8.3-.2.6-.3,1-.3s.5,0,.7.2c.2.1.4.3.5.4v-2.2h.7v6h-.7ZM55.4,110.7c0,.6.1,1,.4,1.2.2.3.5.4.8.4s.6-.1.8-.4c.2-.3.3-.7.3-1.2s-.1-1-.3-1.3c-.2-.3-.5-.4-.9-.4s-.6.1-.8.4c-.2.3-.3.7-.3,1.3Z"/>
            <path class="cls-5" d="M59.6,107.7v-.8h.7v.8h-.7ZM59.6,112.9v-4.4h.7v4.4h-.7Z"/>
            <path class="cls-5" d="M61.5,112.9v-4.4h.7v.6c.3-.5.8-.7,1.4-.7s.5,0,.7.1c.2,0,.4.2.5.4.1.2.2.3.2.5,0,.1,0,.4,0,.7v2.7h-.7v-2.6c0-.3,0-.5,0-.7,0-.1-.2-.3-.3-.4-.1,0-.3-.1-.5-.1-.3,0-.6,0-.8.3-.2.2-.3.6-.3,1.1v2.4h-.7Z"/>
            <path class="cls-5" d="M66,113.3h.7c0,.3.1.5.3.6.2.1.4.2.8.2s.6,0,.8-.2c.2-.1.3-.3.4-.6,0-.2,0-.5,0-.9-.3.4-.7.6-1.2.6s-1.1-.2-1.4-.6c-.3-.4-.5-.9-.5-1.6s0-.8.2-1.2c.2-.4.4-.6.7-.8.3-.2.6-.3,1-.3s.9.2,1.3.6v-.5h.7v3.8c0,.7,0,1.2-.2,1.4-.1.3-.4.5-.7.7-.3.2-.7.2-1.1.2s-.9-.1-1.3-.4c-.3-.2-.5-.6-.5-1.1ZM66.6,110.7c0,.6.1,1,.3,1.3.2.3.5.4.9.4s.6-.1.9-.4.3-.7.3-1.2-.1-.9-.4-1.2c-.2-.3-.5-.4-.9-.4s-.6.1-.8.4c-.2.3-.3.7-.3,1.2Z"/>
          </g>
        </g>
        <g>
          <path class="cls-3" d="M432.8,70.5l7.6-22.9h4.2l7.6,22.9h-3.8l-3.7-12.4c-.4-1.2-.7-2.5-1.1-3.8-.4-1.3-.7-2.5-1.1-3.8h-.1c-.3,1.3-.7,2.6-1,3.8s-.7,2.5-1.1,3.8l-3.7,12.4h-3.7ZM437.1,64v-2.9h10.7v2.9h-10.7Z"/>
          <path class="cls-3" d="M463.2,70.9c-1.6,0-3.1-.3-4.5-.9-1.4-.6-2.6-1.4-3.7-2.5l2.1-2.5c.8.8,1.8,1.5,2.8,2,1.1.5,2.2.7,3.3.7s2.4-.3,3.1-.9c.7-.6,1.1-1.4,1.1-2.3s-.2-1.3-.5-1.7c-.3-.4-.7-.8-1.3-1.1-.5-.3-1.2-.6-1.9-.9l-3.2-1.4c-.7-.3-1.5-.7-2.2-1.2-.7-.5-1.3-1.1-1.8-1.9-.5-.8-.7-1.7-.7-2.8s.3-2.3,1-3.2c.6-1,1.5-1.7,2.7-2.2,1.1-.5,2.4-.8,3.9-.8s2.6.3,3.8.8c1.2.5,2.2,1.2,3.1,2.1l-1.8,2.3c-.7-.6-1.5-1.1-2.3-1.5-.8-.4-1.7-.5-2.7-.5s-2.1.3-2.8.8c-.7.5-1,1.2-1,2.1s.2,1.2.5,1.6c.4.4.8.8,1.4,1.1.6.3,1.2.5,1.8.8l3.1,1.3c.9.4,1.7.8,2.4,1.4.7.5,1.3,1.2,1.6,2s.6,1.7.6,2.9-.3,2.3-1,3.3c-.6,1-1.6,1.8-2.8,2.4-1.2.6-2.6.9-4.3.9Z"/>
          <path class="cls-3" d="M480.9,70.5v-19.8h-6.7v-3h17v3h-6.7v19.8h-3.7Z"/>
          <path class="cls-3" d="M496.8,70.5v-22.9h7.5c1.6,0,3,.2,4.2.6,1.2.4,2.2,1.1,2.9,2.1.7,1,1.1,2.3,1.1,3.9s-.4,2.9-1.1,3.9c-.7,1-1.7,1.8-2.9,2.3-1.2.5-2.6.8-4.2.8h-3.9v9.2h-3.6ZM500.4,58.4h3.4c1.7,0,2.9-.3,3.8-1,.9-.7,1.3-1.7,1.3-3.1s-.4-2.4-1.3-2.9c-.9-.5-2.1-.8-3.8-.8h-3.4v7.8ZM509.2,70.5l-5.7-10.2,2.7-2.1,7.1,12.3h-4.1Z"/>
          <path class="cls-3" d="M515.3,70.5l7.6-22.9h4.2l7.6,22.9h-3.8l-3.7-12.4c-.4-1.2-.7-2.5-1.1-3.8-.4-1.3-.7-2.5-1.1-3.8h-.1c-.3,1.3-.7,2.6-1,3.8s-.7,2.5-1.1,3.8l-3.7,12.4h-3.7ZM519.6,64v-2.9h10.7v2.9h-10.7Z"/>
          <path class="cls-3" d="M552.4,55.1c.7,0,1.3.2,1.8.5.5.3,1,.7,1.3,1.3.3.5.5,1.1.5,1.8s-.2,1.2-.5,1.8c-.3.5-.7,1-1.3,1.3s-1.1.5-1.8.5-1.2-.2-1.8-.5c-.5-.3-1-.8-1.3-1.3-.3-.5-.5-1.1-.5-1.8s.2-1.3.5-1.8c.3-.5.8-1,1.3-1.3.5-.3,1.1-.5,1.8-.5Z"/>
          <path class="cls-3" d="M579.8,70.9c-1.6,0-3.1-.3-4.5-.9-1.4-.6-2.6-1.4-3.7-2.5l2.1-2.5c.8.8,1.8,1.5,2.8,2,1.1.5,2.2.7,3.3.7s2.4-.3,3.1-.9c.7-.6,1.1-1.4,1.1-2.3s-.2-1.3-.5-1.7c-.3-.4-.7-.8-1.3-1.1-.5-.3-1.2-.6-1.9-.9l-3.2-1.4c-.7-.3-1.5-.7-2.2-1.2-.7-.5-1.3-1.1-1.8-1.9-.5-.8-.7-1.7-.7-2.8s.3-2.3,1-3.2c.6-1,1.5-1.7,2.7-2.2,1.1-.5,2.4-.8,3.9-.8s2.6.3,3.8.8c1.2.5,2.2,1.2,3.1,2.1l-1.8,2.3c-.7-.6-1.5-1.1-2.3-1.5-.8-.4-1.7-.5-2.7-.5s-2.1.3-2.8.8c-.7.5-1,1.2-1,2.1s.2,1.2.5,1.6c.4.4.8.8,1.4,1.1.6.3,1.2.5,1.8.8l3.1,1.3c.9.4,1.7.8,2.4,1.4.7.5,1.3,1.2,1.6,2s.6,1.7.6,2.9-.3,2.3-1,3.3c-.6,1-1.6,1.8-2.8,2.4-1.2.6-2.6.9-4.3.9Z"/>
          <path class="cls-3" d="M593.7,70.5v-22.9h7.5c1.6,0,3,.2,4.2.6,1.2.4,2.2,1.1,2.9,2.1.7,1,1.1,2.3,1.1,3.9s-.4,2.9-1.1,3.9c-.7,1-1.7,1.8-2.9,2.3-1.2.5-2.6.8-4.2.8h-3.9v9.2h-3.6ZM597.3,58.4h3.4c1.7,0,2.9-.3,3.8-1,.9-.7,1.3-1.7,1.3-3.1s-.4-2.4-1.3-2.9c-.9-.5-2.1-.8-3.8-.8h-3.4v7.8ZM606.2,70.5l-5.7-10.2,2.7-2.1,7.1,12.3h-4.1Z"/>
          <path class="cls-3" d="M615.6,70.5v-22.9h4.2l4.2,11.6c.3.7.5,1.5.8,2.3.2.8.5,1.5.7,2.3h.2c.3-.8.5-1.5.8-2.3.2-.8.5-1.5.7-2.3l4.1-11.6h4.2v22.9h-3.4v-11.3c0-.7,0-1.4,0-2.3s.1-1.7.2-2.5c0-.8.1-1.6.2-2.3h-.2l-1.8,5.3-4,10.9h-2.2l-4-10.9-1.8-5.3h-.1c0,.7.2,1.4.2,2.3,0,.8.1,1.7.2,2.5s0,1.6,0,2.3v11.3h-3.3Z"/>
          <path class="cls-3" d="M641.5,62h28.1v2.5h-28.1v-2.5ZM641.7,46.3h13.2v2.6h-13.2v-2.6ZM642.2,51.8h26.5v2.5h-26.5v-2.5ZM642.2,56.8h10.3v2.5h-10.3v-2.5ZM643.1,66.7h24.5v2.4h-24.5v-2.4ZM646.5,55h2.7v6.3h-2.7v-6.3ZM648.6,44.3h2.9v6.7h-2.9v-6.7ZM653.9,52.7h2.9v20.4h-2.9v-20.4ZM656,46.3h13.2v2.6h-13.2v-2.6ZM658.2,56.7h10.3v2.5h-10.3v-2.5ZM659.3,44.3h2.9v6.7h-2.9v-6.7ZM661.7,55h2.7v6.3h-2.7v-6.3Z"/>
          <path class="cls-3" d="M673.7,49.5h11.7v2.4h-11.7v-2.4ZM675,62h2.5v10.6h-2.5v-10.6ZM675,53.7h9.3v2.3h-9.3v-2.3ZM675,57.8h9.3v2.3h-9.3v-2.3ZM676.3,62h8.3v9.2h-8.3v-2.4h5.7v-4.4h-5.7v-2.4ZM677.2,45.3l2.3-1.1c.5.6.9,1.3,1.4,2.1.4.8.8,1.4,1,2l-2.4,1.3c-.2-.6-.5-1.2-1-2.1-.4-.8-.9-1.5-1.3-2.2ZM685,57.3h17.5v2.5h-17.5v-2.5ZM685.8,45.5h15.9v2.5h-15.9v-2.5ZM686.5,50.8h13.1v7.6h-2.7v-5.2h-10.4v-2.4ZM686.7,61.7h14v11.3h-2.8v-8.8h-8.4v8.9h-2.7v-11.4ZM688,69.3h11.3v2.5h-11.3v-2.5ZM690.9,46.5l2.9.2c-.2,1.2-.4,2.6-.7,4-.3,1.4-.5,2.8-.8,4.1-.2,1.3-.5,2.5-.7,3.4h-2.9c.2-.8.4-1.6.6-2.6.2-1,.4-2,.6-3,.2-1.1.4-2.1.6-3.2.2-1.1.3-2,.4-3Z"/>
          <path class="cls-3" d="M707.6,45.4h2.8v27.7h-2.8v-27.7ZM709.1,49h8.3v1.8h-8.3v-1.8ZM709.3,45.4h9.9v9.1h-9.9v-1.9h7.2v-5.2h-7.2v-2ZM717.1,55.1l2.3.7c-.5.7-1.1,1.4-1.8,2s-1.5,1.3-2.3,1.8-1.6,1-2.4,1.5c-.2-.2-.5-.5-.8-.8-.3-.3-.6-.5-.9-.7.8-.4,1.5-.8,2.3-1.3.8-.5,1.5-1,2.1-1.6.6-.6,1.1-1.1,1.5-1.7ZM716.6,65.2h2.4c-.1,1.1-.4,2.1-.8,3-.4.9-1,1.6-1.8,2.2-.8.6-1.9,1.1-3.3,1.6-.1-.3-.4-.7-.6-1.1-.3-.4-.6-.7-.8-.9,1.2-.3,2.1-.7,2.8-1.1s1.2-1,1.5-1.6.5-1.3.7-2.1ZM714.6,59.5h11.6v6h-11.6v-6ZM716.9,61.3v2.4h6.9v-2.4h-6.9ZM721.1,64.6h2.5v4c0,.3,0,.5,0,.6,0,0,.2.1.5.1h1.7c.2,0,.3,0,.4-.2,0-.1.1-.3.2-.6,0-.3,0-.8.1-1.4.2.2.6.4,1,.5s.8.3,1.1.4c-.1,1.4-.3,2.3-.7,2.8s-1,.7-1.8.7h-2.4c-.7,0-1.3,0-1.7-.2s-.7-.5-.8-.9c-.1-.4-.2-1-.2-1.7v-4ZM721.3,56.4l1.6-1.2c.7.4,1.5.9,2.3,1.5s1.6,1.1,2.3,1.7c.7.6,1.3,1.1,1.8,1.6l-1.7,1.4c-.4-.5-1-1-1.7-1.6s-1.5-1.2-2.3-1.8-1.6-1.1-2.4-1.6ZM732.2,45.4v2h-7.8v5.2h7.8v1.9h-10.5v-9.1h10.5ZM723.3,49h8.5v1.8h-8.5v-1.8ZM730.8,45.4h2.9v24.3c0,.7,0,1.3-.2,1.7-.2.4-.5.7-.9,1-.4.2-1,.3-1.7.4-.7,0-1.5,0-2.4,0,0-.4-.1-.8-.3-1.3-.2-.5-.3-1-.5-1.3.6,0,1.2,0,1.7,0h1.1c.2,0,.3,0,.4-.1,0,0,.1-.2.1-.4v-24.2Z"/>
          <path class="cls-3" d="M738.8,49.4h10.1v2.4h-10.1v-2.4ZM739.7,57.9h8.6v2.3h-8.6v-2.3ZM740,62.1h2.3v10.5h-2.3v-10.5ZM740,53.7h8.1v2.3h-8.1v-2.3ZM741.2,45.4l2.5-1c.6.6,1.1,1.3,1.6,2.1.5.8.9,1.4,1.2,2l-2.6,1.1c-.2-.6-.6-1.3-1.1-2.1-.5-.8-1-1.5-1.6-2.2ZM741.4,62.1h6.7v9.2h-6.7v-2.4h4.3v-4.5h-4.3v-2.4ZM754.8,68.4l2.3,1.4c-.6.4-1.3.9-2.1,1.3s-1.6.8-2.5,1.2c-.9.4-1.7.6-2.5.9-.2-.2-.5-.6-.9-.9-.4-.4-.7-.7-1-.9.8-.2,1.6-.5,2.5-.8s1.6-.7,2.3-1.1c.7-.4,1.3-.7,1.8-1.1ZM749.8,45.8h17.3v1.9h-17.3v-1.9ZM750,52h16.9v6.4h-16.9v-6.4ZM750.9,49.1h15.4v1.8h-15.4v-1.8ZM750.9,59.3h15.1v9.2h-15.1v-9.2ZM752.3,53.6v3.2h12.1v-3.2h-12.1ZM753.6,60.9v1.1h9.7v-1.1h-9.7ZM753.6,63.3v1.2h9.7v-1.2h-9.7ZM753.6,65.7v1.2h9.7v-1.2h-9.7ZM755,52.2h1.9v5.8h-1.9v-5.8ZM756.7,44.3h2.9v5.8h-2.9v-5.8ZM759.7,70.1l1.3-1.8c1.2.5,2.4.9,3.6,1.5,1.2.5,2.2,1,3,1.4l-1.6,1.9c-.8-.4-1.7-.9-2.9-1.5-1.2-.6-2.3-1.1-3.5-1.6ZM759.8,52.2h1.9v5.8h-1.9v-5.8Z"/>
          <path class="cls-3" d="M785.9,47.4l2.6,1.1c-1.2,1.5-2.7,3-4.4,4.3-1.7,1.4-3.4,2.6-5.3,3.7-1.9,1.1-3.7,2-5.6,2.9-.1-.2-.3-.4-.6-.7-.2-.3-.5-.6-.8-.9-.3-.3-.5-.5-.7-.7,1.9-.7,3.7-1.5,5.5-2.5,1.8-1,3.5-2.1,5.1-3.3,1.6-1.2,2.9-2.5,4-3.9ZM771.6,69.5h28.3v2.6h-28.3v-2.6ZM772.4,46h26.7v2.6h-26.7v-2.6ZM775.5,61.2h20.7v9.6h-2.9v-7.1h-3.2v7.1h-2.7v-7.1h-3.2v7.1h-2.7v-7.1h-3.2v7.1h-2.7v-9.6ZM784.2,51.6l2.9-2.8h0v11.6h-2.9v-8.8ZM788.1,52.6l1.9-1.8c1.1.6,2.3,1.2,3.6,2,1.3.7,2.4,1.5,3.6,2.2,1.1.7,2.1,1.4,2.8,2l-2,2c-.7-.6-1.7-1.3-2.8-2.1-1.1-.8-2.3-1.5-3.5-2.3-1.2-.8-2.4-1.5-3.6-2Z"/>
        </g>
      </g>
    </g>
  </g>
</svg>