<?xml version="1.0" encoding="utf-8"?>
<!-- Generator: Adobe Illustrator 26.5.3, SVG Export Plug-In . SVG Version: 6.00 Build 0)  -->
<svg version="1.1" id="圖層_1" xmlns="http://www.w3.org/2000/svg" xmlns:xlink="http://www.w3.org/1999/xlink" x="0px" y="0px"
	 viewBox="0 0 450 143.6" style="enable-background:new 0 0 450 143.6;" xml:space="preserve">
<style type="text/css">
	.st0{fill-rule:evenodd;clip-rule:evenodd;fill:#F8B62C;}
	.st1{fill-rule:evenodd;clip-rule:evenodd;fill:#DB4A49;}
	.st2{fill-rule:evenodd;clip-rule:evenodd;fill:#F7B62D;}
	.st3{fill-rule:evenodd;clip-rule:evenodd;fill:#18B7E1;}
	.st4{fill-rule:evenodd;clip-rule:evenodd;fill:#4E9A36;}
	.st5{fill-rule:evenodd;clip-rule:evenodd;fill:#7C509D;}
	.st6{fill:#FFFFFF;}
</style>
<g>
	<path class="st0" d="M80.5,7.7c1-0.3,2.1-0.4,3.1-0.5s2.1-0.2,3.1-0.3c0.3,0,0.5,0,0.8,0L87.6,7l0.1-0.1c0.8-0.1,1.6-0.1,2.4-0.2
		c3.4-0.3,6.7-1.4,10.2-1c1.2,0.5,2.4,1,3.3,2.2c-0.2-0.5-0.4-0.9-0.7-1.3c-0.5-0.6-1.1-1-1.9-1.2c-1-0.6-2.2-0.7-3.3-0.7
		c-0.3,0-0.5,0-0.8,0.1c-4,0.4-7.9,1-11.8,1.6c-0.2,0-0.4,0-0.6,0c-0.1,0-0.1,0-0.2,0s-0.3,0-0.4,0C82.7,6.7,81.6,7.2,80.5,7.7
		L80.5,7.7L80.5,7.7L80.5,7.7z"/>
	<path class="st0" d="M89.5,64.3c-0.7-1.7-2-2.5-3.9-2.4c-2,0.1-3.9,0.4-5.7,0.9c1.6,0,3.2,0.1,4.9,0c2-0.1,3.3,0.6,4.1,2.5
		c0.6,1.6,1.6,3.1,3,4.2c0.8,0.6,1.1,0.7,2.1,0.7C91.6,68.7,90.4,66.6,89.5,64.3z"/>
	<path class="st0" d="M110.4,43.2c-0.6-7.4-1.3-14.8-2-22.2s-7-13.1-14.5-13.1C93.2,8,92.4,8,91.6,8.1c-6.9,1.3-13.7,2.5-20.6,3.8
		c-7.4,1.4-12.3,7.1-12.3,14.6c0,6.6,0,13.3,0,19.9c0.1,8.8,7.3,15.3,16,14.6c4.3-0.4,8.7-0.8,13-1.3c0.9-0.1,1.4,0.1,1.9,0.9
		c1.4,2.2,3,4.3,4.5,6.5c1,1.4,1,1.4,1.7-0.1c1.2-2.4,2.4-4.8,3.5-7.2c0.5-1.1,1.2-1.7,2.3-2.2C107.4,55.2,110.9,49.4,110.4,43.2z"
		/>
</g>
<g>
	<path class="st1" d="M375.8,20.7C376,12,366,4.8,359.2,6.5C367.9,7.6,373.3,12.3,375.8,20.7z"/>
	<path class="st1" d="M356.6,60.7c-0.7,0.9-1.5,1.8-2.1,2.7c-0.7,1.1-1.9,1.8-2.6,3.3c1.5-0.8,2.5-1.8,3.4-2.9
		c1.9-2.3,3.8-4.2,7.2-4c2,0.1,3.9-0.8,5.5-2.2c-2.8,1-5.6,1.2-8.5,1.4C358.2,59.2,357.3,59.8,356.6,60.7z"/>
	<path class="st1" d="M374.7,24c-1.7-9.5-11.2-16.8-22.4-16c-2.6,0.3-6.8,0.6-11,1.1c-8.1,1-15.3,8-16.8,16
		c-0.5,2.6-0.4,5.3-0.9,7.9c-1.9,12.1,6.4,22.9,18.6,24c1.1,0.1,1.6,0.6,2,1.5c1.1,2.5,2.2,5.1,3.3,7.6c0.7,1.6,0.8,1.6,1.8,0.3
		c1.9-2.5,3.9-4.9,5.7-7.5c0.9-1.3,2-1.8,3.6-2c9.5-0.8,17.6-9.5,17.9-19C376.7,33.2,375.5,28.6,374.7,24z"/>
</g>
<g>
	<path class="st2" d="M190.2,94.4c0.4-8.7-9.5-16.2-16.3-14.5C182.5,81.1,187.9,85.9,190.2,94.4z"/>
	<path class="st2" d="M170,133.9c-0.7,0.9-1.5,1.7-2.2,2.7c-0.8,1.1-2,1.8-2.7,3.2c1.5-0.8,2.6-1.8,3.5-2.9c1.9-2.2,3.9-4.1,7.3-3.8
		c2,0.2,3.9-0.8,5.5-2.1c-2.8,0.9-5.7,1.1-8.5,1.2C171.8,132.4,170.8,133,170,133.9z"/>
	<path class="st2" d="M189,97.7c-1.5-9.5-10.8-17-22-16.5c-2.6,0.2-6.8,0.4-11,0.9c-8.1,0.8-15.5,7.6-17.1,15.6
		c-0.5,2.6-0.6,5.3-1,7.9c-2.2,12.1,5.9,23,18.1,24.4c1.1,0.1,1.6,0.6,2,1.5c1,2.6,2.1,5.1,3.1,7.7c0.6,1.6,0.7,1.6,1.8,0.3
		c2-2.4,4-4.9,5.9-7.4c1-1.3,2-1.8,3.6-1.9c9.5-0.6,17.8-9.1,18.3-18.6C190.8,106.9,189.7,102.3,189,97.7z"/>
</g>
<g>
	<path class="st3" d="M129,7.1c-2.3,0.4-4.5,1.2-6.1,3.2c6.2-3.4,13.4-2.2,19.9-3.9C138.2,6.1,133.5,6.2,129,7.1z"/>
	<path class="st3" d="M146.5,56.3c-0.5,0-0.8,0.3-1.1,0.7c-0.9,1.1-1.8,2.3-2.8,3.7c1.6-0.2,2.1-1.3,2.8-2.1c0.8-1,1.7-1.2,2.9-1.1
		c2.7,0.1,5.5,0,8.6,0C153.3,56.6,149.9,56.1,146.5,56.3z"/>
	<path class="st3" d="M187.8,35.2c-1.1-5.6-2.3-11.3-3.3-17c-1.2-7-8.1-12.6-15.1-12.1c-3.7,0.3-7.3,0.5-11,0.8
		c-8.9,0.7-17.9,1.5-26.8,2.2c-6.6,0.5-12.5,6.4-13,13c-0.4,4.9-0.7,9.8-1.3,14.6c-0.9,7.5,3.5,14.3,10.8,16.2
		c2.2,0.6,4.5,0.4,6.8,0.7c0.8,0.1,1.3,0.3,1.7,1.1c0.7,1.8,1.5,3.5,2.2,5.2c0.5,1.2,0.9,1,1.5,0.1c1.1-1.6,2.4-3.1,3.5-4.7
		c0.7-1,1.4-1.3,2.5-1.2c2.3,0.1,4.5,0.3,6.8,0.4c6.8,0.4,13.6,0.7,20.4,1.1c4.5,0,8.4-1.6,11.2-4.6c1.3-1.3,2.3-3,3.1-4.8
		C189.2,42.7,188.6,39,187.8,35.2z"/>
</g>
<g>
	<path class="st4" d="M201.1,10.6c7-3.8,14.3-5.2,22.2-5.6C217.6,2.6,204.9,5.7,201.1,10.6z"/>
	<path class="st4" d="M245.6,55.5c-2.5,0.7-5,1-7.6,1.1c-1.1,0.1-2,0.6-2.6,1.6c-1,1.8-1.7,3.8-2,6.2c1.3-1.5,1.8-3.1,2.6-4.5
		c0.6-1.1,1.4-1.7,2.7-1.8c2.6-0.2,5.1-0.8,7.4-2.5C245.9,55.6,245.8,55.5,245.6,55.5z"/>
	<path class="st4" d="M238.2,8.2c-4-0.8-8-0.5-11.5-0.5c-2.8,0-5.1-0.1-7.4,0c-4.7,0.2-9.3,1.1-13.6,3.2c-7.5,3.7-11.3,10.7-10.2,19
		c0.4,3.2,1,6.4,1.5,9.6c1.1,6.7,4.4,11.8,10.7,14.7c3.5,1.6,7.3,2.3,11.1,2.6c1.2,0.1,1.9,0.6,2.6,1.5c2.1,2.8,4.2,5.5,6.3,8.3
		c0.6,0.9,0.9,0.8,1.3-0.2c1.3-3.2,2.8-6.3,4.1-9.5c0.3-0.7,0.7-1,1.5-1.2c2.4-0.3,4.8-0.8,7.1-1.6c7.1-2.5,11.4-7.3,13-14.7
		c0.6-2.8,0.6-5.6,0.9-8.4C257.3,18.6,249.7,10.4,238.2,8.2z"/>
</g>
<g>
	<path class="st1" d="M124.7,87.7c0.1,0.1,0.2,0.1,0.3,0.1l0,0c1.7,0.8,3.1,2,4.3,3.6l0,0v0.1c0,0,0,0,0.1,0c0-0.1-0.1-0.1-0.1-0.2
		l0,0l0,0l0,0c-0.6-1.9-1.8-3.2-3.3-4.2c-0.1-0.1-0.2-0.1-0.4-0.2c0,0-0.1,0-0.1-0.1c-0.6-0.3-1.3-0.6-1.9-0.9l0,0
		c-0.2-0.1-0.3-0.1-0.5-0.2c-4.7-1.5-9.6-1.4-14.4-1.6c3.6,1,7.2,1.3,10.9,1.9C121.4,86.6,123.1,87,124.7,87.7z"/>
	<path class="st1" d="M102,135.5c1.2,0.4,2.4,0.4,3.5,0.4c1.6,0.1,2.8,0.7,3.6,2.1c0.3,0.6,0.8,1.1,1.2,1.7c0.3,0.4,0.5,0.8,1.1,0.7
		C108.8,134.9,108.3,134.3,102,135.5z"/>
	<path class="st1" d="M131.4,101.7c0-6.9-5.4-13-12.1-14c-3-0.5-6-0.8-8.9-1.1c-9.1-1.1-18.2-2.2-27.3-3.3
		c-7.7-1-15.3,4.8-16.2,12.5c-0.5,4.3-0.2,8.6-0.4,12.2c-0.1,4.5-0.2,8.2-0.3,12c-0.1,6.7,4,12.4,10.4,14.4c2.8,0.9,5.7,0.6,8.5,0.5
		c7.8-0.4,15.6-0.8,23.4-1.3c0.7,0,1,0.3,1.4,0.8c1.4,2.2,2.9,4.3,4.3,6.6c0.6,1,0.9,0.7,1.4-0.1c1.1-2.2,2.4-4.5,3.5-6.7
		c0.4-0.9,1-1.4,2-1.7c5.6-1.8,9.7-7,10-12.9C131.3,113.5,131.4,107.6,131.4,101.7z"/>
</g>
<g>
	<path class="st2" d="M284.9,1c-4.2-1.8-12.7-1.3-18.1,2.9C272.7,1.6,278.7,0.3,284.9,1z"/>
	<path class="st2" d="M276.6,64.4c1,0.3,1.5-0.3,2.1-0.8c1.2-0.9,2.4-1.1,3.8-0.8c2.4,0.4,4.8,0.8,7.6,0.8c-2.3-0.9-4.5-1.1-6.6-1.7
		C280.5,61,278.5,62.4,276.6,64.4z"/>
	<path class="st2" d="M305.9,5.8c-2.1-0.5-4.2-0.6-6.3-0.8c-6.6-0.5-13.2-0.9-19.7-1.6c-9.6-1-17.1,5.4-17.1,15.1
		c0,4.2,0,8.3,0,12.5l0,0c0,4.4-0.1,8.8,0,13.2c0.1,4.2,1.5,7.8,4.6,10.7c0.6,0.6,0.9,1.3,1.1,2.1c0.6,2.8,1.2,5.6,1.7,8.4
		c0.2,1.1,0.5,0.9,1.2,0.3c2.2-2,4.5-3.9,6.7-5.8c0.6-0.5,1.2-0.7,2-0.6c4.6,0.7,9.1,1.3,13.7,1.9c7.9,1,14.6-3.6,16.4-11.3
		c2.1-8.7,4-17.4,6.1-26.1C318.4,14.9,312.7,7.5,305.9,5.8z"/>
</g>
<g>
	<path class="st5" d="M353.9,78.5c1-0.2,2.1-0.3,3.1-0.4s2.1-0.1,3.1-0.3c0.3,0,0.5,0,0.8,0l0.1,0.1l0.1-0.1c0.8,0,1.6-0.1,2.4-0.1
		c3.4-0.3,6.7-1.3,10.2-0.7c1.2,0.5,2.4,1.1,3.2,2.3c-0.2-0.5-0.4-0.9-0.7-1.3c-0.5-0.6-1.1-1-1.9-1.3c-1-0.6-2.2-0.8-3.3-0.7
		c-0.3,0-0.5,0-0.8,0.1c-3.9,0.4-7.9,0.9-11.8,1.4c-0.2,0-0.4,0-0.6,0c-0.1,0-0.1,0-0.2,0s-0.3,0-0.4,0
		C356.1,77.6,355,78,353.9,78.5L353.9,78.5L353.9,78.5L353.9,78.5z"/>
	<path class="st5" d="M361.6,133.3c-0.7-1.7-2-2.6-3.8-2.5c-2,0.1-3.9,0.3-5.7,0.7c1.6,0,3.2,0.2,4.9,0.1c2-0.1,3.3,0.7,4,2.6
		c0.6,1.6,1.5,3.1,2.9,4.3c0.8,0.7,1.1,0.8,2.1,0.7C363.6,137.8,362.5,135.6,361.6,133.3z"/>
	<path class="st5" d="M383,112.7c-0.4-7.4-0.9-12.8-1.4-20.2C381,85,374.9,79.2,367.4,79c-0.8,0.1-1.6,0.1-2.5,0.2
		c-6.9,1.1-13.8,0.2-20.7,1.3c-7.4,1.2-12.4,6.8-12.6,14.3c-0.2,6.6-0.3,13.3-0.5,19.9c-0.1,8.8,6.9,15.5,15.7,14.9
		c4.4-0.3,8.7-0.6,13.1-1c0.9-0.1,1.4,0.1,1.9,0.9c1.4,2.2,2.9,4.4,4.3,6.6c0.9,1.4,0.9,1.4,1.7,0c1.2-2.4,2.5-4.7,3.7-7.1
		c0.5-1.1,1.2-1.7,2.3-2.2C379.7,124.6,383.4,118.9,383,112.7z"/>
</g>
<g>
	<path class="st3" d="M269.1,81.4c-2.3,0.4-4.5,1.1-6.1,3c6.3-3.3,13.4-1.9,20-3.4C278.3,80.7,273.7,80.6,269.1,81.4z"/>
	<path class="st3" d="M296.8,134.1c-0.5,0-0.8,0.3-1.1,0.6c-0.9,1.1-1.8,2.2-2.9,3.6c1.6-0.2,2.2-1.2,2.8-2c0.8-0.9,1.7-1.2,2.9-1.1
		c2.7,0.2,5.5-1.8,8.6-1.8C303.5,132.6,300.2,134,296.8,134.1z"/>
	<path class="st3" d="M322.4,93.8c-1-7-6.8-12.7-13.8-12.4c-3.7,0.2-6.4,0.4-10,0.6c-8.9,0.5-17.9,1.1-26.8,1.6
		c-6.6,0.4-12.6,8.1-13.3,14.7c-0.5,4.9-0.9,9.7-1.6,14.6c-1.1,7.5,3.2,14.3,10.5,16.5c2.2,0.7,14.6,3.1,16.9,3.3
		c0.8,0.1,1.3,0.3,1.6,1.1c0.7,1.8,1.5,3.5,2.1,5.3c0.4,1.2,0.8,1,1.5,0.2c1.2-1.5,2.5-3,3.6-4.6c0.7-0.9,1.5-1.8,2.6-2.1
		c3.3-0.9,6.5-1.8,13.2-1.3c9.4,0.3,10-6.2,10.3-8.4C319.7,119,323.2,99.5,322.4,93.8z"/>
</g>
<g>
	<path class="st4" d="M6.1,84.2c7.1-3.6,14.4-4.9,22.3-5C22.8,76.5,10,79.4,6.1,84.2z"/>
	<path class="st4" d="M49.6,130.1c-2.5,0.6-5.1,0.9-7.6,0.9c-1.1,0-2,0.5-2.6,1.5c-1.1,1.8-1.8,3.7-2.1,6.2c1.3-1.5,1.9-3,2.7-4.4
		c0.7-1.1,1.4-1.7,2.8-1.7c2.6-0.2,5.1-0.7,7.4-2.4C49.9,130.2,49.7,130.1,49.6,130.1z"/>
	<path class="st4" d="M43.3,82.6c-4-0.9-8-0.7-11.5-0.8c-2.8-0.1-5.1-0.2-7.4-0.2c-4.7,0.1-9.3,0.9-13.7,2.9
		C3.2,88.2-0.8,95.1,0.1,103.4c0.4,3.2,0.8,6.4,1.3,9.6c0.9,6.7,4.1,11.9,10.4,14.9c3.5,1.7,7.2,2.5,11.1,2.8
		c1.2,0.1,1.9,0.6,2.6,1.6c2,2.9,4.1,5.6,6.1,8.5c0.6,0.9,0.9,0.8,1.3-0.1c1.4-3.1,2.9-6.2,4.3-9.4c0.3-0.7,0.7-1,1.5-1.1
		c2.4-0.3,4.8-0.7,7.1-1.4c7.1-2.3,11.6-7.1,13.3-14.4c0.6-2.8,0.7-5.6,1.1-8.4C62.1,93.5,54.7,85.1,43.3,82.6z"/>
</g>
<g>
	<path class="st4" d="M395.7,79.1c7.1-3.6,14.4-4.9,22.3-5C412.3,71.4,399.5,74.3,395.7,79.1z"/>
	<path class="st4" d="M439.1,124.9c-2.5,0.6-5,0.9-7.6,0.9c-1.1,0-2,0.5-2.6,1.5c-1.1,1.8-1.8,3.7-2.1,6.2c1.3-1.5,1.9-3,2.7-4.4
		c0.7-1.1,1.4-1.6,2.8-1.7c2.6-0.2,5.1-0.7,7.4-2.4C439.4,125,439.2,124.9,439.1,124.9z"/>
	<path class="st4" d="M432.8,75.5c-4-0.9-16.6,1-18.9,1.1c-4.7,0.1-9.3,0.9-13.7,2.9c-7.6,3.6-11.5,10.5-10.6,18.7
		c0.4,3.2,0.8,6.4,1.3,9.6c0.9,6.7,4.1,11.9,10.4,14.9c3.5,1.7,7.2,2.5,11.1,2.8c1.2,0.1,1.9,0.6,2.6,1.6c2,2.8,4.1,5.6,6.1,8.5
		c0.6,0.9,0.9,0.8,1.3-0.1c1.4-3.1,2.9-6.2,4.3-9.4c0.3-0.7,0.7-1,1.5-1.1c2.4-0.3,4.8-0.7,7.1-1.4c7.1-2.3,11.6-7.1,13.3-14.4
		c0.6-2.8,0.7-5.6,1.1-8.4C451.6,88.3,444.2,77.9,432.8,75.5z"/>
</g>
<g>
	<path class="st5" d="M219.7,78.7c-4.2-1.9-12.7-1.6-18.1,2.5C207.4,79,213.4,77.9,219.7,78.7z"/>
	<path class="st5" d="M209.9,141.9c0.9,0.3,1.5-0.3,2.1-0.7c1.2-0.9,2.4-1,3.8-0.8c2.4,0.5,4.8,0.9,7.5,1c-2.3-0.9-4.5-1.2-6.6-1.8
		C213.9,138.6,211.9,139.9,209.9,141.9z"/>
	<path class="st5" d="M240.5,84c-2.1-0.6-4.2-0.7-6.3-0.9c-6.6-0.7-13.1-1.2-19.7-2c-9.6-1.3-17.2,5-17.5,14.7
		c-0.1,4.2-0.2,8.3-0.3,12.5l0,0c-0.1,4.4-0.3,8.8-0.3,13.2c0,4.2,1.4,7.8,4.4,10.8c0.6,0.6,0.9,1.3,1.1,2.2
		c0.5,2.8,1.1,5.6,1.6,8.4c0.2,1.1,0.5,0.9,1.2,0.4c2.3-1.9,4.6-3.8,6.8-5.7c0.6-0.5,1.2-0.7,2-0.5c4.5,0.8,9.1,1.5,13.7,2.2
		c7.9,1.2,14.6-3.3,16.6-11c2.3-8.6,4.4-17.3,6.7-25.9C252.8,93.4,247.3,85.9,240.5,84z"/>
</g>
<path class="st6" d="M83.4,54.7c-4.7,0-8.4-1-11-2.9s-3.9-4.4-3.9-7.5c0-0.2,0-0.5,0.1-0.7s0.1-0.5,0.1-0.7c0-0.3,0.1-0.6,0.2-0.8
	s0.1-0.4,0.2-0.6c0.3-0.9,0.6-1.5,0.8-1.8c0.3-0.4,0.5-0.6,0.8-0.7c0.3-0.1,0.5-0.2,0.6-0.2c0.3,0,0.6,0.1,0.7,0.3s0.2,0.4,0.3,0.5
	c0.1,0.1,0.2,0.5,0.4,1l0.1,0.4l0.2,0.8l0.1,0.5c0,0.2,0.2,0.5,0.4,0.7c0.2,0.3,0.7,0.7,1.4,1.3c1.6,1.4,3.3,2.2,5.2,2.4
	c0.2,0,0.5,0.1,0.7,0.1s0.4,0,0.7,0c0.9,0,1.6-0.1,2-0.2c0.9-0.3,1.6-0.8,2.1-1.5s0.8-1.5,0.8-2.3c0-0.7-0.2-1.3-0.6-1.9
	C85,40,84.4,39.4,84,39.1c-0.4-0.3-2.8-1.3-7.1-3.2c-1.8-0.8-3.3-1.8-4.5-3.2c-0.9-1.1-1.5-2.1-1.9-3.2c-0.4-1-0.6-2.1-0.6-3.2
	c0-0.2,0-0.5,0.1-0.8c0-0.3,0-0.5,0-0.7c0.3-2.4,1.4-4.3,3.2-5.8c1.8-1.5,4.4-2.5,7.9-3c0.4-0.1,0.9-0.1,1.4-0.2
	c0.5,0,1-0.1,1.5-0.1c1.5,0,2.9,0.2,4.3,0.6c2.5,0.8,4.3,1.5,5.4,2.3s1.7,1.6,1.7,2.4c0,0.3-0.1,0.5-0.2,0.8
	c-1.2,2.9-2.2,4.3-3.1,4.3c-0.4,0-0.9-0.2-1.4-0.5s-1.2-0.9-2-1.7c-0.1-0.1-0.4-0.3-0.7-0.4c-0.3-0.1-0.9-0.3-1.6-0.5
	c-0.8-0.2-1.4-0.3-2-0.3c-0.8,0-1.6,0.2-2.5,0.7c-1.1,0.7-1.7,1.6-1.7,2.8c0,0.8,0.4,1.6,1.1,2.3c0.3,0.3,0.6,0.6,0.9,0.7
	c0.3,0.2,0.9,0.5,1.6,0.8l5.5,2.2c0.7,0.3,1.4,0.6,2.1,1s1.2,0.7,1.7,1.2c2.6,2.2,4,4.8,4,7.7c0,0.5,0,1.1-0.1,1.6
	c-0.1,0.6-0.2,1-0.2,1.3c-0.3,1.2-0.7,2.2-1.2,3.1c-0.5,0.9-1.3,1.8-2.3,2.7c-1,1-2.2,1.7-3.5,2.3c-1,0.4-2,0.8-3,1
	C85.7,54.6,84.6,54.7,83.4,54.7z"/>
<path class="st6" d="M134.5,21.9c0-2.1,0.1-3.6,0.4-4.3c0.3-0.8,0.7-1.2,1.3-1.2h8.1c0.2,0,0.4,0.1,0.6,0.4c0.2,0.3,0.3,0.7,0.3,1.2
	l-0.2,0.8l0.7-0.6c1.9-1.4,3.7-2.1,5.3-2.1c1.2,0,2.6,0.4,4.1,1.2l0.8,0.5l1.9-0.9c2.1-0.8,3.8-1.1,5.2-1.1c3.2,0,5.5,1.6,7,4.7
	s2.3,8,2.3,14.5v2.3l-0.1,0.6l-0.5,4.9c0,1.2-0.1,2.1-0.3,2.5c-0.2,0.5-0.6,0.7-1,0.7H162c-0.4,0-0.7-0.4-0.7-1.1
	c0-1,0.4-3.4,1.1-7.4c0.1-0.9,0.2-1.4,0.2-1.8c0-0.3,0-0.6,0-0.8c0-2.8-0.1-5-0.2-6.7c-0.1-1.7-0.3-2.8-0.5-3.3
	c-0.2-0.6-0.5-1-0.8-1.3s-0.7-0.5-1.3-0.5c-0.5,0-0.9,0.2-1.3,0.6c-0.2,0.2-0.3,0.6-0.4,1.1c-0.1,0.5-0.1,1.4-0.1,2.6V31v1.2
	c0,6.1-0.1,9.9-0.4,11.4c-0.3,1.6-1,2.3-2,2.3h-8.4c-0.2,0-0.4-0.2-0.4-0.6l1-3.7c0.1-0.5,0.2-1,0.3-1.4c0.3-1.6,0.5-3.7,0.5-6.3
	v-3.3c0-1.9-0.1-3.2-0.2-4c-0.1-0.8-0.3-1.4-0.7-2.1c-0.3-0.6-0.8-0.9-1.5-0.9c-0.6,0-1.2,0.3-1.7,0.9c-0.3,0.4-0.6,1.4-0.7,3
	c-0.1,1.6-0.2,4.4-0.2,8.2v3.6l0.3,2.3c0.1,0.7,0.2,1.3,0.3,1.7s0.1,0.8,0.1,1.2c0,0.5-0.1,0.9-0.4,1.1c-0.3,0.2-0.8,0.3-1.4,0.3
	h-7.2c-0.5,0-0.9-0.9-1.1-2.6c-0.3-1.7-0.4-5.1-0.4-10.1L134.5,21.9z"/>
<path class="st6" d="M236.7,42.1c0,2.1-0.1,3.5-0.2,4.1c-0.2,0.7-0.5,1-1,1h-10.3c-0.4,0-0.8,0-1.2,0c-0.6-0.1-1.1-0.2-1.4-0.2
	l-1.4-0.2c-1.6-0.3-2.9-0.8-3.8-1.3c-0.9-0.5-1.7-1.4-2.4-2.5s-1.1-2.6-1.1-4.3c0-0.8,0.1-1.5,0.2-2.2c0.3-1.4,1-2.8,2.2-4.1
	s2.8-2.4,4.9-3.3l1.5-0.6l3.5-0.9c0.5-0.1,0.8-0.6,0.8-1.7c0-0.1-0.1-0.4-0.4-0.9c-0.6-1.2-1.6-1.8-2.8-1.8c-0.8,0-1.7,0.2-2.7,0.6
	c-0.6,0.2-1.3,0.7-2,1.6l-0.7,0.9c-0.1,0.2-0.4,0.2-0.8,0.1c-0.4-0.1-1-0.5-1.7-1.1c-0.9-0.7-1.3-1.6-1.3-2.8c0-1.2,0.6-2.3,1.7-3.3
	c0.9-0.8,2.3-1.5,4.1-2c0.5-0.2,1.1-0.3,1.7-0.4c0.6-0.1,1.3-0.1,2.1-0.1c1.6,0,3,0.1,4.1,0.4s2.2,0.7,3.2,1.3
	c2.1,1.2,3.5,2.8,4.2,4.8s1,5.6,1,10.9c0,1.4,0,2.7,0,4.1C236.7,39.5,236.7,40.8,236.7,42.1z M224,38.5c0.2,0.8,0.5,1.4,0.8,1.8
	c0.4,0.4,0.8,0.6,1.4,0.6c0.7,0,1.1-0.2,1.1-0.7c0.1-0.5,0.1-0.9,0.2-1.2c0.1-0.3,0.1-0.7,0.1-1.2c0-0.6,0-1,0-1.3
	c0-0.8-0.1-1.4-0.3-1.8c-0.2-0.4-0.6-0.6-1.2-0.6c-0.2,0-0.5,0.1-0.8,0.2c-0.3,0.2-0.6,0.5-0.9,1.1c-0.3,0.6-0.5,1.2-0.5,2
	C223.9,37.6,223.9,38,224,38.5z"/>
<path class="st6" d="M279.6,33.4v-7.9c0-3,0.1-5,0.2-5.8c0.1-0.9,0.5-1.3,1-1.3h7.7c0.2,0.1,0.3,0.3,0.4,0.4
	c0.1,0.3,0.3,0.8,0.5,1.4c0,0.3,0.2,0.5,0.4,0.6c0.2,0.1,0.4,0.1,0.6,0.1c0.3-0.2,0.6-0.4,0.8-0.7c0.3-0.3,0.7-0.8,1.4-1.6
	c0.2-0.3,0.5-0.5,0.7-0.6c0.3-0.2,0.6-0.3,1-0.3c0.4-0.1,0.7-0.1,0.9-0.1c1.2,0,2.3,0.5,3.2,1.4c0.6,0.6,1.1,1.4,1.4,2.4
	c0.1,0.5,0.2,0.9,0.2,1.4c0,1.6-0.5,2.8-1.5,3.7c-1,0.9-1.7,1.3-2.3,1.3c-0.2,0-0.3-0.1-0.5-0.2l-0.3-1.1c-0.3-1.2-0.9-1.8-1.8-1.8
	c-0.5,0-1.1,0.2-1.7,0.6c-0.9,0.6-1.5,1.7-1.8,3.2s-0.4,4.6-0.4,9.2v0.6l1.3,9c0.1,0.5-0.1,0.8-0.6,0.8h-9.3c-0.6,0-1-1.3-1.2-4
	C279.8,41.3,279.6,37.8,279.6,33.4z"/>
<path class="st6" d="M342.4,21.2h0.4l0.2-1.1c0.2-1.6,0.5-2.8,0.8-3.5c0.4-0.7,1.1-1.2,2-1.6c1.9-0.7,3.3-1.2,4.4-1.6
	c1.1-0.3,1.8-0.5,2.3-0.5c0.4,0,0.8,0.2,1.2,0.5l-1,4.2c-0.1,0.4-0.2,0.9-0.2,1.5c0,0.4,0,1.1,0.2,2h1.2c0.9,0,1.5,0.1,1.8,0.3
	c0.3,0.2,0.6,0.5,0.9,1s0.4,1,0.4,1.5c0,0.6-0.1,1.1-0.4,1.6c-0.3,0.4-0.6,0.7-1,0.7l-2,0.2c-0.8,0-1.4,0.2-1.7,0.6
	c-0.3,0.4-0.5,1.3-0.5,2.5c0,1.4,0.3,4.3,0.9,8.7l0.1,0.8c0.2,1.1,0.4,1.9,0.5,2.4s0.3,1,0.5,1.4l1.4,3.5c0.2,0.3,0.1,0.6-0.2,0.9
	c-0.4,0.5-1.1,1.1-2.3,1.8l-0.9,0.5l-2.1,1.1c-1.1,0.5-1.9,0.8-2.5,0.8c-0.9,0-1.6-0.5-2.1-1.6c-0.6-1.1-1.1-3-1.6-5.6
	c-0.3-1.3-0.5-3-0.7-5.1c0-0.6,0-1.2,0-1.8s0-1.2,0-1.8v-6.2c0-1.2,0-1.9-0.1-2c-0.2-0.1-0.3-0.3-0.5-0.5s-0.4-0.3-0.8-0.3
	c-0.5,0-1.2,0.3-2,0.9l-0.3-2.6l-0.1-1c0.2-1.2,0.5-2,0.8-2.3C339.9,21.3,340.8,21.2,342.4,21.2z"/>
<path class="st6" d="M21.3,89.8c0.1-0.4,0.3-0.7,0.5-0.9c0.2-0.2,0.5-0.3,0.8-0.3L41.9,89c1.8,0,3.4,0.6,4.5,1.6
	C48.2,92,49,94,49,96.5c0,1.2-0.3,2.5-0.9,3.9c-0.5,1.4-1.5,2.8-2.9,4.2c-1.5,1.5-3.7,3.1-6.6,4.7l-3,1.7c-1.7,0.9-3,1.8-3.7,2.5
	c-0.7,0.8-1.1,1.6-1.1,2.7c0,0.6,0.1,1.2,0.3,1.9c0.6,2.5,0.9,4.4,0.9,5.6c0,1.4-0.5,2.1-1.4,2.1l-10.2-0.2c-0.3,0-0.5-0.4-0.7-1.3
	l-0.2-1.3v-0.3c-0.3-4.8-0.5-9-0.4-12.6c0.1-4.6,0.3-8.1,0.5-10.5s0.6-5.2,1.2-8.4L21.3,89.8z M30.6,105.4l1.6-0.9
	c2.2-1.3,3.7-2.6,4.7-3.9c0.8-1.1,1.2-2.2,1.1-3.3c-0.2-1.8-1.2-2.8-3-2.8c-0.7,0-1.4,0.1-2.2,0.5c-0.5,0.2-0.9,0.6-1.2,1.1
	c-0.3,0.5-0.5,1.3-0.6,2.2l-0.3,2.5l-0.1,0.5c0,0.4-0.1,0.9-0.1,1.3s0,0.7,0,0.8C30.5,104.2,30.5,104.8,30.6,105.4z"/>
<path class="st6" d="M87.6,104.8c0-3.8,0.1-13.5,0.6-15.2c0.3-1.1,0.7-1.7,1-1.7H97c0.7,0,1.1,0.1,1.4,0.2c0.2,0.1,0.4,0.4,0.4,1
	c0,0.5-0.2,9.1-0.8,11.7l-0.3,1c-0.3,0.5-0.5,1.1-0.7,1.8c-0.1,0.5,0.3,0.7,1,0.7c0.1,0,0.4,0,0.8-0.1s0.8-0.1,1.2-0.3
	c0.7-0.3,1.3-0.5,1.8-0.7s1.1-0.3,1.8-0.3c0.4,0,0.9,0.1,1.5,0.2c2.4,0.4,4.1,2,5,4.9c0.9,2.8,1.3,5,1.2,12.4l-0.1,1l-0.2,2.2
	c0,2.5-0.3,4.4-0.7,5.6c-0.3,0.9-0.7,1.3-1.1,1.3h-8.4c-0.5,0-0.8-0.3-0.8-1c0-0.6,0.2-1.8,0.7-3.7c0.1-0.4,0.2-0.8,0.3-1.2
	c0.1-0.3,0.1-0.6,0.1-0.8c0.3-2,0.5-4,0.7-6c0.2-2.1,0.3-1.7,0.3-2.9c0-0.4,0,0.2,0-0.3c-0.1-0.4-0.1-0.7-0.1-0.9
	c-0.2-1.4-0.3-2.3-0.5-2.7c-0.4-0.8-1-1.2-1.7-1.2c-0.3,0-0.7,0.1-1,0.3c-0.7,0.4-1.1,1-1.4,1.7c-0.4,1-0.6,1.5-0.6,3.6l-0.1,3.7
	l0.1,2.2c0,1.1,0.1,2.2,0.2,3.2s0.2,1.9,0.3,2.5c0.1,0.6,0.1,1.2,0.1,1.9s-0.1,1.1-0.2,1.4c-0.2,0.3-0.4,0.4-0.8,0.4h-8.6
	c-0.2,0-0.4-0.1-0.5-0.3s-0.2-0.7-0.3-1.3l-0.1-1.7v-0.3c0-0.8,0-1.4,0-1.8c0-0.7,0-1.2,0-1.5c0-0.6,0-1,0-1.3c0-0.5,0-0.8,0-1.1
	c0-0.4,0-0.7,0-0.9c0-0.3,0-0.6,0-0.8c0-0.3,0-0.5,0-0.7s0-0.4,0-0.6c0-0.7,0,0.7,0,0.1s0-1.3,0-1.9v-1.1L87.6,104.8z"/>
<path class="st6" d="M150.9,109.3l-0.1-1.7c0.1-5,1.3-9,3.6-11.8s5.3-4.2,9.1-4.1c4.6,0.1,8,1.6,10.3,4.6c2.3,2.9,3.4,7.2,3.3,12.9
	c0,0.5,0,0.9-0.1,1.3c-0.1,0.3-0.3,1.2-0.7,2.6c-1,3.1-2.1,5.3-3.5,6.8c-1.4,1.4-3.3,2.4-5.7,3c-0.4,0.1-0.9,0.2-1.4,0.2
	c-0.5,0.1-1,0.1-1.5,0.1c-0.9,0-1.9-0.1-2.9-0.4c-3.1-0.7-5.5-2-7.2-4.2C152.3,116.4,151.3,113.4,150.9,109.3z M160.4,106.4v1.3
	c0,1.4,0.1,2.6,0.4,3.5c0.3,0.9,0.8,1.7,1.3,2.2c0.6,0.5,1.2,0.8,1.8,0.8c1.2,0,2.1-0.6,2.7-1.9c0.3-0.7,0.5-1.3,0.6-2
	c0.2-0.6,0.2-1.6,0.3-2.9c0-0.5,0-0.8,0-1.1c0-0.3,0-0.6,0-0.9c-0.1-0.4-0.1-0.8-0.1-1c-0.1-1.5-0.4-2.6-0.7-3.3
	c-0.6-1.3-1.5-2-2.6-2c-0.7,0-1.4,0.2-2,0.8c-0.6,0.6-1.1,1.2-1.3,1.9c-0.3,0.7-0.4,2-0.4,3.7V106.4z"/>
<path class="st6" d="M211.1,99c0-1.4,0.2-2.3,0.5-2.9s0.7-0.9,1.2-0.8l8.7,0.2c0.4,0,0.7,0.5,0.6,1.4l-0.1,0.4l1.1-0.7
	c1.9-1,3.6-1.4,5.2-1.4c1.9,0,3.5,0.8,4.7,2.3s2,3.6,2.3,6.3c0.2,1.7,0.3,3.6,0.3,5.8c0,2.1,0,3.7-0.1,4.8l-0.2,2.3
	c-0.1,3.4-0.3,5.7-0.7,6.9c-0.4,1.2-0.9,1.8-1.5,1.8l-8.6-0.2c-0.4,0-0.6-0.3-0.6-0.9l1.3-8.7l0.2-2l0.1-4c0-0.5,0-0.9,0-1.1
	c0-2.1,0-3.6-0.2-4.6c-0.1-0.5-0.4-0.9-0.7-1.2c-0.4-0.3-0.7-0.5-1.1-0.5c-0.1,0-0.3,0-0.6,0.1s-0.6,0.2-0.9,0.5
	c-0.7,0.6-1.2,1.3-1.5,1.9c-0.2,0.6-0.4,1.8-0.4,3.7l-0.1,4.2c-0.1,3.4,0.1,6.3,0.6,8.5c0.3,1.5,0.4,2.5,0.4,3.1c0,0.7-0.2,1-0.6,1
	l-8.9-0.2c-0.4,0-0.7-0.8-1-2.4c-0.2-1.6-0.3-4.7-0.2-9.3l0.3-8.2v-1.2V103L211.1,99z"/>
<path class="st6" d="M284.3,103.1c0.1-2.6,0.2-4.4,0.5-5.2c0.2-0.8,0.7-1.2,1.2-1.2l7.6,0.2c0.7,0,1,0.7,1,2c0,0.5-0.1,1-0.2,1.6
	s-0.2,1.4-0.3,2.3c-0.1,0.9-0.2,1.9-0.2,2.9c-0.1,2.9,0.1,6.9,0.5,12.1l0.3,2.8c0.3,2.3,0.4,3.9,0.4,4.7c0,0.8-0.2,1.1-0.5,1.1
	l-9.4-0.2c-0.5,0-0.8-0.7-1-2.2c-0.3-2-0.4-5.5-0.3-10.4L284.3,103.1z M290.9,94.7c-1.9,0-3.3-0.3-4.1-0.7c-0.8-0.4-1.4-1.3-1.6-2.5
	c-0.1-0.4-0.1-0.8-0.1-1.1c0-1.2,0.5-2.1,1.3-2.8c0.9-0.7,2-1.1,3.5-1c3.3,0.1,5,1.7,4.9,4.7c0,1.1-0.7,2.1-1.9,2.9
	c-0.4,0.2-0.8,0.4-1,0.5C291.5,94.7,291.2,94.7,290.9,94.7z"/>
<path class="st6" d="M365.3,98.5l-1.1,0.3c-0.2-0.4-0.4-0.7-0.5-1c-0.2-0.3-0.4-0.6-0.7-0.9c-0.8-0.8-1.6-1.3-2.6-1.3
	c-1.4,0-2.6,0.8-3.7,2.4c-0.5,0.7-0.8,1.5-1,2.5s-0.3,2.2-0.4,3.5c-0.1,2.4,0.4,4.2,1.4,5.5s2.3,2,3.9,2c0.7,0,1.4-0.1,2.1-0.3
	c1.3-0.3,2.5-1.2,3.6-2.6l0.6-0.8c1,0.4,1.5,1.3,1.4,2.8c0,0.6-0.1,1.3-0.2,2.1c-0.4,2.1-1.4,3.8-3.1,5c-1.7,1.3-4,1.9-6.8,1.8
	c-0.3,0-0.6,0-0.9,0c-0.4-0.1-0.8-0.1-1-0.1c-2.2-0.3-4-0.9-5.5-2.1c-1.5-1.1-2.8-2.7-3.9-4.9c-1-1.8-1.4-4.2-1.3-7.2
	c0-1.6,0.3-3.4,0.7-5.4c0.4-2,1.1-3.8,2.2-5.4c1.9-2.8,4.5-4.6,7.5-5.4c1.6-0.4,3-0.6,4.4-0.6c3.1,0.1,5.4,1.1,6.8,3.1
	c0.7,1,1,2,1,3c0,0.9-0.3,1.6-0.8,2.3C367,97.6,366.2,98.2,365.3,98.5z"/>
<path class="st6" d="M408.4,107.8c0-0.2,0-0.5,0-0.8s0-0.5,0-0.5c0-1,0.2-1.8,0.4-2.4c0.3-0.5,0.7-1,1.3-1.5c0.5,0.2,0.8,0.4,1,0.6
	c0.1,0.1,0.6,1,1.6,2.7l0.5,0.7c0.3,0.4,0.7,0.6,1.1,0.8c0.4,0.2,1,0.4,2,0.7c0.7,0.2,1.3,0.3,1.9,0.3c0.5,0,1-0.2,1.4-0.5
	c0.4-0.4,0.6-0.8,0.6-1.4c0-0.8-0.2-1.4-0.7-2s-1.3-1.2-2.6-2l-2.9-1.6l-0.2-0.2c-0.8-0.4-1.7-1.2-2.6-2.6c-1-1.3-1.4-2.9-1.4-4.7
	c0-0.8,0.1-1.5,0.4-2.3c0.6-2,1.7-3.5,3.1-4.6c1.6-1.1,3.7-1.7,6.3-1.6c0.7,0,1.3,0,1.7,0c0.4,0,1.1,0.1,1.9,0.2s1.6,0.4,2.5,0.7
	c0.9,0.3,1.6,0.7,2.1,1.1c1.7,1.2,2.5,2.2,2.4,3.1c0,0.8-0.6,1.9-1.8,3.3c-0.2,0.2-0.4,0.4-0.5,0.6c-0.1,0.1-0.3,0.2-0.6,0.4
	c-0.7,0.4-1.1,0.5-1.3,0.5c-0.3,0-0.6-0.3-1.1-0.8c-0.5-0.6-0.8-1-1.2-1.5c-0.5-0.6-1.4-1-2.7-1c-0.5,0.1-0.9,0.2-1.1,0.4
	c-0.5,0.4-0.8,0.8-0.8,1.3c0,0.3,0.1,0.6,0.2,0.8c0,0.1,0.1,0.3,0.3,0.5c0.4,0.5,1.1,1.1,2,1.6c1.5,0.8,2.9,1.6,4.3,2.4l1,0.7
	c1.4,1.1,2.4,2.2,2.9,3.3c0.6,1.1,0.8,2.3,0.8,3.7c0,0.7-0.1,1.4-0.2,2s-0.3,1.1-0.5,1.5s-0.4,0.9-0.8,1.4c-1,1.5-2,2.6-3.1,3.3
	c-1.1,0.7-2.7,1.1-4.8,1.4c-0.9,0.1-1.8,0.2-2.8,0.1c-3-0.1-5.4-0.9-7.2-2.4C409.5,112.2,408.6,110.2,408.4,107.8z"/>
</svg>
