<?xml version="1.0" encoding="utf-8"?>
<!-- Generator: Adobe Illustrator 16.0.0, SVG Export Plug-In . SVG Version: 6.00 Build 0)  -->
<!DOCTYPE svg PUBLIC "-//W3C//DTD SVG 1.1//EN" "http://www.w3.org/Graphics/SVG/1.1/DTD/svg11.dtd">
<svg version="1.1" id="圖層_1" xmlns="http://www.w3.org/2000/svg" xmlns:xlink="http://www.w3.org/1999/xlink" x="0px" y="0px"
	 width="75px" height="75px" viewBox="0 0 75 75" enable-background="new 0 0 75 75" xml:space="preserve">
<g>
	<path fill="#ED6C00" d="M53.402,71.729H36.077c-1.408,0-2.548-1.142-2.548-2.549c0-1.408,1.141-2.548,2.548-2.548h17.325
		c1.408,0,2.548,1.142,2.548,2.548C55.95,70.588,54.809,71.729,53.402,71.729z"/>
	<g>
		<polygon fill="#ED6C00" points="17.216,68.303 15.834,69.507 2.221,69.48 9.518,60.882 		"/>
		<path fill="#ED6C00" d="M15.834,71.729c-0.001,0-0.003,0-0.004,0L2.217,71.702c-0.865-0.002-1.65-0.505-2.012-1.29
			c-0.363-0.785-0.236-1.709,0.323-2.368l7.296-8.599c0.397-0.467,0.97-0.75,1.583-0.78c0.61-0.028,1.211,0.194,1.653,0.62
			l7.698,7.42c0.449,0.432,0.695,1.033,0.679,1.654c-0.016,0.623-0.292,1.211-0.761,1.619l-0.433,0.957
			C17.838,71.286,16.37,71.729,15.834,71.729z M7.012,67.268l5.942,0.012L9.68,64.124L7.012,67.268z"/>
	</g>
	
		<path fill="#ED6C00" stroke="#FFFFFF" stroke-width="5" stroke-linecap="round" stroke-linejoin="round" stroke-miterlimit="10" d="
		M20.22,40.256"/>
	<path fill="#ED6C00" d="M17.168,71.172c-0.662,0-1.314-0.258-1.802-0.747l-7.518-7.519C7.09,62.148,6.887,61,7.339,60.029
		l9.874-21.217c0.154-0.332,0.378-0.625,0.657-0.863L57.807,3.882c1.041-0.889,2.598-0.796,3.526,0.21l6.167,6.681l6.68,6.166
		c1.006,0.928,1.1,2.485,0.211,3.526L40.323,60.404c-0.237,0.277-0.532,0.502-0.864,0.656l-21.217,9.875
		C17.899,71.094,17.532,71.172,17.168,71.172z M12.712,60.564l4.997,4.996l19.097-8.887l32.117-37.652l-4.954-4.573
		c-0.05-0.046-0.098-0.094-0.144-0.144L59.251,9.35L21.599,41.466L12.712,60.564z"/>
	<path fill="#ED6C00" d="M38.34,60.925c-0.652,0-1.305-0.249-1.802-0.747L18.355,41.995c-0.995-0.995-0.995-2.609,0-3.604
		c0.994-0.995,2.609-0.995,3.604,0l18.184,18.184c0.994,0.994,0.994,2.609,0,3.604C39.645,60.676,38.992,60.925,38.34,60.925z"/>
</g>
<path fill="#ED6C00" d="M72.498,59.6c-0.414,0-0.833-0.104-1.221-0.32l-70-39.197c-1.204-0.674-1.634-2.198-0.96-3.403
	c0.676-1.205,2.199-1.633,3.403-0.959l70,39.198c1.204,0.674,1.635,2.198,0.961,3.402C74.223,59.139,73.373,59.6,72.498,59.6z"/>
</svg>
