<?xml version="1.0" encoding="utf-8"?>
<!-- Generator: Adobe Illustrator 16.0.0, SVG Export Plug-In . SVG Version: 6.00 Build 0)  -->
<!DOCTYPE svg PUBLIC "-//W3C//DTD SVG 1.1//EN" "http://www.w3.org/Graphics/SVG/1.1/DTD/svg11.dtd">
<svg version="1.1" id="圖層_1" xmlns="http://www.w3.org/2000/svg" xmlns:xlink="http://www.w3.org/1999/xlink" x="0px" y="0px"
	 width="75px" height="75px" viewBox="0 0 75 75" enable-background="new 0 0 75 75" xml:space="preserve">
<path fill="#1E284B" d="M37.596,69.48c-0.063,0.001-0.127,0.001-0.19,0c-0.363,0-0.729-0.07-1.078-0.218
	c-0.611-0.256-1.097-0.715-1.391-1.278L4.244,37.658c-0.097-0.096-0.187-0.199-0.269-0.308C1.373,33.889-0.002,29.774,0,25.454
	C0,14.462,9.036,5.519,20.142,5.519c7.384,0,13.851,3.951,17.358,9.831c3.507-5.88,9.976-9.831,17.358-9.831
	C65.965,5.519,75,14.462,75,25.455c0.001,4.32-1.374,8.434-3.976,11.896c-0.082,0.108-0.172,0.212-0.27,0.308l-30.69,30.326
	c-0.295,0.563-0.779,1.022-1.392,1.278C38.325,69.41,37.959,69.48,37.596,69.48z M8.312,33.847L37.5,62.688l29.188-28.841
	c1.796-2.456,2.743-5.353,2.742-8.391c0-7.923-6.536-14.368-14.572-14.368s-14.573,6.445-14.573,14.367
	c0,1.538-1.247,2.785-2.785,2.785s-2.785-1.247-2.785-2.785c0-7.922-6.537-14.367-14.573-14.367
	c-8.035,0-14.571,6.445-14.571,14.367C5.568,28.494,6.516,31.391,8.312,33.847z"/>
</svg>
