<?xml version="1.0" encoding="utf-8"?>
<!-- Generator: Adobe Illustrator 16.0.0, SVG Export Plug-In . SVG Version: 6.00 Build 0)  -->
<!DOCTYPE svg PUBLIC "-//W3C//DTD SVG 1.1//EN" "http://www.w3.org/Graphics/SVG/1.1/DTD/svg11.dtd">
<svg version="1.1" id="圖層_1" xmlns="http://www.w3.org/2000/svg" xmlns:xlink="http://www.w3.org/1999/xlink" x="0px" y="0px"
	 width="75px" height="75px" viewBox="0 0 75 75" enable-background="new 0 0 75 75" xml:space="preserve">
<g>
	<path fill="#ED6C00" d="M49.379,41.689c-9.189,0-16.665-7.478-16.665-16.667c0-2.868,0.741-5.697,2.143-8.182
		c0.68-1.204,2.205-1.627,3.407-0.949c1.201,0.679,1.627,2.204,0.948,3.406c-0.979,1.736-1.498,3.716-1.498,5.725
		c0,6.433,5.233,11.667,11.665,11.667c6.434,0,11.666-5.233,11.666-11.667c0-6.433-5.232-11.666-11.666-11.666
		c-2.027,0-4.025,0.528-5.773,1.526c-1.196,0.684-2.728,0.268-3.41-0.931c-0.686-1.199-0.269-2.726,0.932-3.411
		c2.502-1.429,5.355-2.185,8.253-2.185c9.188,0,16.666,7.477,16.666,16.666C66.045,34.212,58.568,41.689,49.379,41.689z"/>
	<path fill="#ED6C00" d="M49.379,50.282c-14.429,0-26.168-11.331-26.168-25.259c0-13.928,11.739-25.259,26.168-25.259
		c14.43,0,26.169,11.331,26.169,25.259c0,5.282-1.671,10.34-4.831,14.627c-0.82,1.111-2.387,1.347-3.496,0.529
		c-1.111-0.82-1.349-2.385-0.529-3.497c2.523-3.422,3.856-7.454,3.856-11.661c0-11.171-9.496-20.259-21.169-20.259
		c-11.672,0-21.168,9.088-21.168,20.259s9.496,20.259,21.168,20.259c3.008,0,5.912-0.59,8.633-1.756
		c1.271-0.541,2.738,0.045,3.281,1.314c0.544,1.27-0.045,2.739-1.313,3.282C56.634,49.555,53.066,50.282,49.379,50.282z"/>
	<path fill="#ED6C00" d="M14.433,75.236c-0.64,0-1.28-0.244-1.769-0.733L0.184,62.016c-0.469-0.47-0.731-1.105-0.731-1.77
		c0-0.663,0.265-1.299,0.733-1.768l17.532-17.508c0.977-0.975,2.559-0.976,3.535,0.002l12.479,12.489
		c0.469,0.47,0.731,1.104,0.731,1.769s-0.265,1.299-0.733,1.769L16.199,74.505C15.711,74.993,15.072,75.236,14.433,75.236z
		 M5.488,60.25l8.946,8.952l13.993-13.976l-8.945-8.951L5.488,60.25z"/>
	<g>
		<path fill="#ED6C00" d="M23.139,47.439c-0.639,0-1.276-0.242-1.765-0.729c-0.978-0.975-0.981-2.559-0.007-3.536l5.341-5.362
			c0.975-0.978,2.558-0.981,3.536-0.007c0.978,0.975,0.981,2.558,0.007,3.536l-5.341,5.362
			C24.422,47.195,23.78,47.439,23.139,47.439z"/>
		<path fill="#ED6C00" d="M29.705,54.033c-0.639,0-1.276-0.243-1.765-0.729c-0.978-0.976-0.981-2.559-0.007-3.537l5.341-5.361
			c0.975-0.979,2.558-0.981,3.536-0.008c0.978,0.976,0.981,2.559,0.007,3.537l-5.341,5.361
			C30.988,53.787,30.347,54.033,29.705,54.033z"/>
	</g>
</g>
</svg>
