<?xml version="1.0" encoding="utf-8"?>
<!-- Generator: Adobe Illustrator 17.0.0, SVG Export Plug-In . SVG Version: 6.00 Build 0)  -->
<!DOCTYPE svg PUBLIC "-//W3C//DTD SVG 1.1//EN" "http://www.w3.org/Graphics/SVG/1.1/DTD/svg11.dtd">
<svg version="1.1" id="圖層_1" xmlns="http://www.w3.org/2000/svg" xmlns:xlink="http://www.w3.org/1999/xlink" x="0px" y="0px"
	 width="75px" height="75px" viewBox="0 0 75 75" enable-background="new 0 0 75 75" xml:space="preserve">
<g>
	<path fill="#20294E" d="M28.107,52.774c-1.381,0-2.5-1.119-2.5-2.5v-24c0-1.381,1.119-2.5,2.5-2.5s2.5,1.119,2.5,2.5v24
		C30.607,51.655,29.488,52.774,28.107,52.774z"/>
	<path fill="#20294E" d="M46.572,52.774c-1.381,0-2.5-1.119-2.5-2.5v-24c0-1.381,1.119-2.5,2.5-2.5s2.5,1.119,2.5,2.5v24
		C49.072,51.655,47.953,52.774,46.572,52.774z"/>
	<path fill="#1E284B" d="M37.5,73.654C16.822,73.654,0,57.435,0,37.5S16.822,1.346,37.5,1.346S75,17.565,75,37.5
		c0,7.551-2.39,14.784-6.911,20.919c-0.819,1.112-2.386,1.348-3.496,0.529c-1.111-0.819-1.349-2.384-0.529-3.496
		C67.947,50.183,70,43.975,70,37.5C70,20.322,55.421,6.346,37.5,6.346S5,20.322,5,37.5s14.579,31.154,32.5,31.154
		c4.609,0,9.062-0.906,13.237-2.692c1.27-0.542,2.739,0.046,3.282,1.315s-0.046,2.738-1.315,3.282
		C47.904,72.612,42.789,73.654,37.5,73.654z"/>
</g>
</svg>
