<?xml version="1.0" encoding="utf-8"?>
<!-- Generator: Adobe Illustrator 26.5.2, SVG Export Plug-In . SVG Version: 6.00 Build 0)  -->
<svg version="1.1" id="圖層_1" xmlns="http://www.w3.org/2000/svg" xmlns:xlink="http://www.w3.org/1999/xlink" x="0px" y="0px"
	 viewBox="0 0 75 75" style="enable-background:new 0 0 75 75;" xml:space="preserve">
<style type="text/css">
	.st0{fill:#808080;}
	.st1{fill:#1E284B;}
</style>
<g>
	<g>
		<path class="st0" d="M22.9,16H3.1C1.4,16,0,14.6,0,12.9s1.4-3.1,3.1-3.1h19.8c1.7,0,3.1,1.4,3.1,3.1S24.6,16,22.9,16z"/>
		<path class="st0" d="M19.8,27.8H6.1c-1.7,0-3.1-1.4-3.1-3.1c0-1.7,1.4-3.1,3.1-3.1h13.7c1.7,0,3.1,1.4,3.1,3.1
			C22.9,26.5,21.5,27.8,19.8,27.8z"/>
		<path class="st0" d="M19.8,40.1H6.1c-1.7,0-3.1-1.4-3.1-3.1S4.4,34,6.1,34h13.7c1.7,0,3.1,1.4,3.1,3.1
			C22.9,38.7,21.5,40.1,19.8,40.1z"/>
		<path class="st0" d="M13,16c-0.1,0-0.2,0-0.3,0c-1.7-0.1-2.9-1.6-2.8-3.3c-0.1-0.9-1.7-5.1-3.1-8.3c-0.7-1.5,0-3.4,1.6-4
			c1.6-0.7,3.4,0,4,1.6c2.5,5.7,3.7,9.5,3.6,11.3C15.9,14.8,14.6,16,13,16z"/>
		<path class="st0" d="M22,74.9c-1.7,0-3.1-1.4-3.1-3.1v-20H7.7v20c0,1.7-1.4,3.1-3.1,3.1s-3.1-1.4-3.1-3.1V48.8
			c0-1.7,1.4-3.1,3.1-3.1H22c1.7,0,3.1,1.4,3.1,3.1v23.1C25.1,73.6,23.7,74.9,22,74.9z"/>
		<path class="st0" d="M22,68.4H4.6c-1.7,0-3.1-1.4-3.1-3.1s1.4-3.1,3.1-3.1H22c1.7,0,3.1,1.4,3.1,3.1S23.7,68.4,22,68.4z"/>
	</g>
	<g>
		<path class="st0" d="M67.2,73.2H54.7c-1.7,0-3.1-1.4-3.1-3.1s1.4-3.1,3.1-3.1h12.5c0.4,0,1-0.1,1.3-0.4c0.4-0.5,0.5-1.6,0.4-2.2
			c0-0.1,0-0.3,0-0.4V7.9H29.6c-1.7,0-3.1-1.4-3.1-3.1s1.4-3.1,3.1-3.1h42.3c1.7,0,3.1,1.4,3.1,3.1V64c0.1,1,0.3,4.3-1.9,6.8
			C72.1,71.9,70.3,73.2,67.2,73.2z"/>
		<path class="st0" d="M60.4,23.1H32.9c-1.7,0-3.1-1.4-3.1-3.1c0-1.7,1.4-3.1,3.1-3.1h27.5c1.7,0,3.1,1.4,3.1,3.1
			C63.5,21.7,62.1,23.1,60.4,23.1z"/>
		<path class="st0" d="M60.4,60.1h-28c-1.7,0-3.1-1.4-3.1-3.1v-23c0-1.7,1.4-3.1,3.1-3.1h28c1.7,0,3.1,1.4,3.1,3.1v23
			C63.5,58.7,62.1,60.1,60.4,60.1z M35.5,54h21.8V37.1H35.5V54z"/>
	</g>
</g>
<g>
	<path class="st1" d="M206.8-64c-1.7,0-3-1.3-3-3c-0.1-1.4-3-7.2-6.3-12.4c-0.9-1.4-0.5-3.3,0.9-4.2c1.4-0.9,3.3-0.5,4.2,0.9
		c2.2,3.4,7.2,11.8,7.2,15.7C209.8-65.4,208.5-64,206.8-64z"/>
	<path class="st1" d="M239.9-64h-68.1c-1.7,0-3-1.3-3-3s1.3-3,3-3h68.1c1.7,0,3,1.3,3,3S241.6-64,239.9-64z"/>
	<path class="st1" d="M171.8-9.1c-1.3,0-2.5-0.8-2.9-2.1c-0.5-1.6,0.4-3.3,2-3.7c46.2-13.9,50-50.7,50.2-52.3
		c0.1-1.7,1.6-2.9,3.3-2.7c1.7,0.1,2.9,1.6,2.7,3.2c0,0.4-4.1,42.5-54.4,57.6C172.4-9.1,172.1-9.1,171.8-9.1z"/>
	<path class="st1" d="M238.4-9.1c-0.3,0-0.5,0-0.8-0.1C199.7-19.7,185-58,184.4-59.6c-0.6-1.6,0.2-3.3,1.8-3.9
		c1.6-0.6,3.3,0.2,3.9,1.8c0.1,0.4,14.2,37.1,49.1,46.7c1.6,0.4,2.5,2.1,2.1,3.7C240.9-10,239.7-9.1,238.4-9.1z"/>
</g>
</svg>
