<?xml version="1.0" encoding="utf-8"?>
<!-- Generator: Adobe Illustrator 26.5.1, SVG Export Plug-In . SVG Version: 6.00 Build 0)  -->
<svg version="1.1" id="圖層_1" xmlns="http://www.w3.org/2000/svg" xmlns:xlink="http://www.w3.org/1999/xlink" x="0px" y="0px"
	 viewBox="0 0 75 75" style="enable-background:new 0 0 75 75;" xml:space="preserve">
<style type="text/css">
	.st0{fill:#1E284B;}
	.st1{fill:#808080;}
	.st2{fill:none;}
</style>
<g>
	<g>
		<path class="st0" d="M101.8-68.2H82c-1.7,0-3.1-1.4-3.1-3.1s1.4-3.1,3.1-3.1h19.8c1.7,0,3.1,1.4,3.1,3.1S103.5-68.2,101.8-68.2z"
			/>
		<path class="st0" d="M98.8-56.3H85.1c-1.7,0-3.1-1.4-3.1-3.1c0-1.7,1.4-3.1,3.1-3.1h13.7c1.7,0,3.1,1.4,3.1,3.1
			C101.8-57.7,100.5-56.3,98.8-56.3z"/>
		<path class="st0" d="M98.8-44.1H85.1c-1.7,0-3.1-1.4-3.1-3.1s1.4-3.1,3.1-3.1h13.7c1.7,0,3.1,1.4,3.1,3.1
			C101.8-45.4,100.5-44.1,98.8-44.1z"/>
		<path class="st0" d="M91.9-68.2c-0.1,0-0.2,0-0.3,0c-1.7-0.1-2.9-1.6-2.8-3.3c-0.1-0.9-1.7-5.1-3.1-8.3c-0.7-1.5,0-3.4,1.6-4
			c1.6-0.7,3.4,0,4,1.6c2.5,5.7,3.7,9.5,3.6,11.3C94.8-69.4,93.5-68.2,91.9-68.2z"/>
		<path class="st0" d="M101-9.2c-1.7,0-3.1-1.4-3.1-3.1v-20H86.7v20c0,1.7-1.4,3.1-3.1,3.1s-3.1-1.4-3.1-3.1v-23.1
			c0-1.7,1.4-3.1,3.1-3.1H101c1.7,0,3.1,1.4,3.1,3.1v23.1C104-10.6,102.7-9.2,101-9.2z"/>
		<path class="st0" d="M101-15.7H83.6c-1.7,0-3.1-1.4-3.1-3.1s1.4-3.1,3.1-3.1H101c1.7,0,3.1,1.4,3.1,3.1S102.7-15.7,101-15.7z"/>
	</g>
	<g>
		<path class="st0" d="M146.1-10.9h-12.5c-1.7,0-3.1-1.4-3.1-3.1s1.4-3.1,3.1-3.1h12.5c0.4,0,1-0.1,1.3-0.4c0.4-0.5,0.5-1.6,0.4-2.2
			c0-0.1,0-0.3,0-0.4v-56.3h-39.2c-1.7,0-3.1-1.4-3.1-3.1s1.4-3.1,3.1-3.1h42.3c1.7,0,3.1,1.4,3.1,3.1v59.2c0.1,1,0.3,4.3-1.9,6.8
			C151.1-12.3,149.2-10.9,146.1-10.9z"/>
		<path class="st0" d="M139.3-61.1h-27.5c-1.7,0-3.1-1.4-3.1-3.1c0-1.7,1.4-3.1,3.1-3.1h27.5c1.7,0,3.1,1.4,3.1,3.1
			C142.4-62.4,141-61.1,139.3-61.1z"/>
		<path class="st0" d="M139.3-24h-28c-1.7,0-3.1-1.4-3.1-3.1v-23c0-1.7,1.4-3.1,3.1-3.1h28c1.7,0,3.1,1.4,3.1,3.1v23
			C142.4-25.4,141-24,139.3-24z M114.4-30.2h21.8V-47h-21.8C114.4-47,114.4-30.2,114.4-30.2z"/>
	</g>
</g>
<g>
	<path class="st0" d="M206.8-64c-1.7,0-3-1.3-3-3c-0.1-1.4-3-7.2-6.3-12.4c-0.9-1.4-0.5-3.3,0.9-4.2c1.4-0.9,3.3-0.5,4.2,0.9
		c2.2,3.4,7.2,11.8,7.2,15.7C209.8-65.4,208.5-64,206.8-64z"/>
	<path class="st0" d="M239.9-64h-68.1c-1.7,0-3-1.3-3-3s1.3-3,3-3h68.1c1.7,0,3,1.3,3,3S241.6-64,239.9-64z"/>
	<path class="st0" d="M171.8-9.1c-1.3,0-2.5-0.8-2.9-2.1c-0.5-1.6,0.4-3.3,2-3.7c46.2-13.9,50-50.7,50.2-52.3
		c0.1-1.7,1.6-2.9,3.3-2.7c1.7,0.1,2.9,1.6,2.7,3.2c0,0.4-4.1,42.5-54.4,57.6C172.4-9.1,172.1-9.1,171.8-9.1z"/>
	<path class="st0" d="M238.4-9.1c-0.3,0-0.5,0-0.8-0.1C199.7-19.7,185-58,184.4-59.6c-0.6-1.6,0.2-3.3,1.8-3.9
		c1.6-0.6,3.3,0.2,3.9,1.8c0.1,0.4,14.2,37.1,49.1,46.7c1.6,0.4,2.5,2.1,2.1,3.7C240.9-10,239.7-9.1,238.4-9.1z"/>
</g>
<g>
	<g>
		<path class="st1" d="M71.8,28.1l-5.6-15.7c-1.1-3-4.4-4.6-7.5-3.5L6.9,27.5c-1.5,0.5-2.6,1.6-3.3,3s-0.7,3-0.2,4.5L9,50.7
			c0.5,1.5,1.6,2.6,3,3.3c0.8,0.4,1.6,0.6,2.5,0.6c0.7,0,1.3-0.1,2-0.3l51.8-18.6C71.3,34.5,72.9,31.1,71.8,28.1z M69.2,31.4
			c-0.4,0.8-1,1.4-1.8,1.6L15.6,51.7c-0.8,0.3-1.7,0.2-2.4-0.1c-0.8-0.4-1.4-1-1.6-1.8L5.9,34c-0.3-0.8-0.2-1.7,0.1-2.4
			c0.4-0.8,1-1.4,1.8-1.6l51.8-18.6c0.4-0.1,0.7-0.2,1.1-0.2c1.3,0,2.5,0.8,3,2.1L69.3,29C69.6,29.8,69.6,30.6,69.2,31.4z"/>
	</g>
	<g>
		<path class="st1" d="M14.2,34.5c-2.6,0-4.8,2.1-4.8,4.8c0,2.6,2.1,4.8,4.8,4.8S19,42,19,39.3C19,36.7,16.9,34.5,14.2,34.5z
			 M14.2,41.4c-1.2,0-2.1-0.9-2.1-2.1c0-1.2,0.9-2.1,2.1-2.1s2.1,0.9,2.1,2.1C16.4,40.5,15.4,41.4,14.2,41.4z"/>
	</g>
	<path class="st1" d="M9.4,53.6c-4.4,0-8.1-2-9.1-5c-1-3.1-0.6-7.2,7-9.9c3.8-1.3,7.7-0.6,10.3,0.2l-0.8,2.5
		c-2.2-0.7-5.5-1.3-8.6-0.2c-6.7,2.3-5.7,5.4-5.3,6.6c0.7,2.2,4.3,3.6,8,3.1l0.3,2.6C10.6,53.6,10,53.6,9.4,53.6z"/>
	<g>
		<g>
			<line class="st2" x1="19.5" y1="30.7" x2="53" y2="18.3"/>
			<path class="st1" d="M19.5,32.3c-0.6,0-1.3-0.4-1.5-1c-0.3-0.8,0.1-1.7,0.9-2l33.5-12.4c0.8-0.3,1.7,0.1,2,0.9s-0.1,1.7-0.9,2
				L20.1,32.2C19.9,32.2,19.7,32.3,19.5,32.3z"/>
		</g>
		<g>
			<line class="st2" x1="24.7" y1="43.1" x2="48.8" y2="34.2"/>
			<path class="st1" d="M24.7,44.7c-0.6,0-1.3-0.4-1.5-1c-0.3-0.8,0.1-1.7,0.9-2l24.2-8.9c0.8-0.3,1.7,0.1,2,0.9s-0.1,1.7-0.9,2
				l-24.2,8.9C25,44.7,24.8,44.7,24.7,44.7z"/>
		</g>
		<g>
			<line class="st2" x1="21.8" y1="37" x2="38.6" y2="30.8"/>
			<path class="st1" d="M21.8,38.6c-0.6,0-1.3-0.4-1.5-1c-0.3-0.8,0.1-1.7,0.9-2L38,29.4c0.8-0.3,1.7,0.1,2,0.9s-0.1,1.7-0.9,2
				l-16.8,6.2C22.2,38.6,22,38.6,21.8,38.6z"/>
		</g>
	</g>
	<g>
		<path class="st1" d="M5.9,34L5.9,34c-0.2,0.6-0.2,1.5,0.2,2.4l2.3,5.8c0.3,0.7,0.7,1.3,1.2,1.9L5.9,34z"/>
		<path class="st1" d="M73.5,49.4c1.1-0.7,1.5-2,0.9-3.6l-4.3-9.4c-0.5-1.3-1.6-2.5-2.8-3.3l-4.1,1.5c2,0.4,4.1,2,4.8,4l2,5.2
			c0.9,2.2-0.2,4.1-2.5,4.1H26.3l-7.7,2.8h49.8c0.8,0,1.5,0.5,1.5,1.1s-0.7,1.1-1.5,1.1H16.5c-0.8,0-1.4-0.4-1.5-1
			c-0.6,0.1-1.2,0-1.8-0.3c-0.7-0.3-1.2-0.9-1.5-1.6c-0.6,0.8-0.9,1.8-0.9,2.9v8.5c0,2.8,2.3,5.1,5.1,5.1h54c2.8,0,5.1-2.3,5.1-5.1
			v-8.5C74.9,51.5,74.4,50.3,73.5,49.4z M68.4,62.7H16.5c-0.8,0-1.5-0.5-1.5-1.1s0.7-1.1,1.5-1.1h51.9c0.8,0,1.5,0.5,1.5,1.1
			S69.2,62.7,68.4,62.7z M68.4,57.7H16.5c-0.8,0-1.5-0.5-1.5-1.1s0.7-1.1,1.5-1.1h51.9c0.8,0,1.5,0.5,1.5,1.1S69.2,57.7,68.4,57.7z"
			/>
	</g>
</g>
</svg>
