<?xml version="1.0" encoding="utf-8"?>
<!-- Generator: Adobe Illustrator 26.5.2, SVG Export Plug-In . SVG Version: 6.00 Build 0)  -->
<svg version="1.1" id="圖層_1" xmlns="http://www.w3.org/2000/svg" xmlns:xlink="http://www.w3.org/1999/xlink" x="0px" y="0px"
	 viewBox="0 0 75 75" style="enable-background:new 0 0 75 75;" xml:space="preserve">
<style type="text/css">
	.st0{fill:#808080;}
	.st1{fill:#1E284B;}
</style>
<g>
	<g>
		<path class="st0" d="M18.1,19.9c-1.1,0-2.1-0.5-2.7-1.5C13.7,15.3,6.5,7.8,3.9,5.2C2.7,4,2.8,2.1,3.9,0.9c1.2-1.2,3.1-1.2,4.3,0
			c1,1,10,10.1,12.4,14.4c0.8,1.5,0.3,3.3-1.1,4.2C19.1,19.7,18.6,19.9,18.1,19.9z"/>
		<path class="st0" d="M11.7,75c-0.6,0-1.2-0.2-1.7-0.5c-1.1-0.8-1.6-2.2-1.2-3.5l1.6-4.6V33H3.5c-1.7,0-3.1-1.4-3.1-3.1
			s1.4-3.1,3.1-3.1h9.9c1.7,0,3.1,1.4,3.1,3.1v33.7l7.2-6.3c1.3-1.1,3.2-1,4.3,0.3c1.1,1.3,1,3.2-0.3,4.3l-14,12.2
			C13.1,74.7,12.4,75,11.7,75z"/>
	</g>
	<g>
		<path class="st0" d="M66.7,73.1H54.3c-1.7,0-3.1-1.4-3.1-3.1s1.4-3.1,3.1-3.1h12.5c0.4,0,1-0.1,1.3-0.4c0.4-0.5,0.5-1.6,0.4-2.2
			c0-0.1,0-0.3,0-0.4V8H29.3c-1.7,0-3.1-1.4-3.1-3.1c0-1.7,1.4-3.1,3.1-3.1h42.1c1.7,0,3.1,1.4,3.1,3.1v59c0.1,1,0.2,4.3-1.9,6.7
			C71.7,71.8,69.8,73.1,66.7,73.1z"/>
		<path class="st0" d="M60,23.1H32.6c-1.7,0-3.1-1.4-3.1-3.1s1.4-3.1,3.1-3.1H60c1.7,0,3.1,1.4,3.1,3.1S61.7,23.1,60,23.1z"/>
		<path class="st0" d="M60,60H32.1c-1.7,0-3.1-1.4-3.1-3.1V34.1c0-1.7,1.4-3.1,3.1-3.1H60c1.7,0,3.1,1.4,3.1,3.1V57
			C63,58.7,61.7,60,60,60z M35.2,53.9h21.8V37.1H35.2V53.9z"/>
	</g>
</g>
<g>
	<g>
		<path class="st1" d="M101.8-68.2H82c-1.7,0-3.1-1.4-3.1-3.1s1.4-3.1,3.1-3.1h19.8c1.7,0,3.1,1.4,3.1,3.1S103.5-68.2,101.8-68.2z"
			/>
		<path class="st1" d="M98.8-56.3H85.1c-1.7,0-3.1-1.4-3.1-3.1c0-1.7,1.4-3.1,3.1-3.1h13.7c1.7,0,3.1,1.4,3.1,3.1
			C101.8-57.7,100.5-56.3,98.8-56.3z"/>
		<path class="st1" d="M98.8-44.1H85.1c-1.7,0-3.1-1.4-3.1-3.1s1.4-3.1,3.1-3.1h13.7c1.7,0,3.1,1.4,3.1,3.1
			C101.8-45.4,100.5-44.1,98.8-44.1z"/>
		<path class="st1" d="M91.9-68.2c-0.1,0-0.2,0-0.3,0c-1.7-0.1-2.9-1.6-2.8-3.3c-0.1-0.9-1.7-5.1-3.1-8.3c-0.7-1.5,0-3.4,1.6-4
			c1.6-0.7,3.4,0,4,1.6c2.5,5.7,3.7,9.5,3.6,11.3C94.8-69.4,93.5-68.2,91.9-68.2z"/>
		<path class="st1" d="M101-9.2c-1.7,0-3.1-1.4-3.1-3.1v-20H86.7v20c0,1.7-1.4,3.1-3.1,3.1s-3.1-1.4-3.1-3.1v-23.1
			c0-1.7,1.4-3.1,3.1-3.1H101c1.7,0,3.1,1.4,3.1,3.1v23.1C104-10.6,102.7-9.2,101-9.2z"/>
		<path class="st1" d="M101-15.7H83.6c-1.7,0-3.1-1.4-3.1-3.1s1.4-3.1,3.1-3.1H101c1.7,0,3.1,1.4,3.1,3.1S102.7-15.7,101-15.7z"/>
	</g>
	<g>
		<path class="st1" d="M146.1-10.9h-12.5c-1.7,0-3.1-1.4-3.1-3.1s1.4-3.1,3.1-3.1h12.5c0.4,0,1-0.1,1.3-0.4c0.4-0.5,0.5-1.6,0.4-2.2
			c0-0.1,0-0.3,0-0.4v-56.3h-39.2c-1.7,0-3.1-1.4-3.1-3.1s1.4-3.1,3.1-3.1h42.3c1.7,0,3.1,1.4,3.1,3.1v59.2c0.1,1,0.3,4.3-1.9,6.8
			C151.1-12.3,149.2-10.9,146.1-10.9z"/>
		<path class="st1" d="M139.3-61.1h-27.5c-1.7,0-3.1-1.4-3.1-3.1c0-1.7,1.4-3.1,3.1-3.1h27.5c1.7,0,3.1,1.4,3.1,3.1
			C142.4-62.4,141-61.1,139.3-61.1z"/>
		<path class="st1" d="M139.3-24h-28c-1.7,0-3.1-1.4-3.1-3.1v-23c0-1.7,1.4-3.1,3.1-3.1h28c1.7,0,3.1,1.4,3.1,3.1v23
			C142.4-25.4,141-24,139.3-24z M114.4-30.2h21.8V-47h-21.8C114.4-47,114.4-30.2,114.4-30.2z"/>
	</g>
</g>
<g>
	<path class="st1" d="M206.8-64c-1.7,0-3-1.3-3-3c-0.1-1.4-3-7.2-6.3-12.4c-0.9-1.4-0.5-3.3,0.9-4.2c1.4-0.9,3.3-0.5,4.2,0.9
		c2.2,3.4,7.2,11.8,7.2,15.7C209.8-65.4,208.5-64,206.8-64z"/>
	<path class="st1" d="M239.9-64h-68.1c-1.7,0-3-1.3-3-3s1.3-3,3-3h68.1c1.7,0,3,1.3,3,3S241.6-64,239.9-64z"/>
	<path class="st1" d="M171.8-9.1c-1.3,0-2.5-0.8-2.9-2.1c-0.5-1.6,0.4-3.3,2-3.7c46.2-13.9,50-50.7,50.2-52.3
		c0.1-1.7,1.6-2.9,3.3-2.7c1.7,0.1,2.9,1.6,2.7,3.2c0,0.4-4.1,42.5-54.4,57.6C172.4-9.1,172.1-9.1,171.8-9.1z"/>
	<path class="st1" d="M238.4-9.1c-0.3,0-0.5,0-0.8-0.1C199.7-19.7,185-58,184.4-59.6c-0.6-1.6,0.2-3.3,1.8-3.9
		c1.6-0.6,3.3,0.2,3.9,1.8c0.1,0.4,14.2,37.1,49.1,46.7c1.6,0.4,2.5,2.1,2.1,3.7C240.9-10,239.7-9.1,238.4-9.1z"/>
</g>
</svg>
