<?xml version="1.0" encoding="utf-8"?>
<!-- Generator: Adobe Illustrator 16.0.0, SVG Export Plug-In . SVG Version: 6.00 Build 0)  -->
<!DOCTYPE svg PUBLIC "-//W3C//DTD SVG 1.1//EN" "http://www.w3.org/Graphics/SVG/1.1/DTD/svg11.dtd">
<svg version="1.1" id="圖層_1" xmlns="http://www.w3.org/2000/svg" xmlns:xlink="http://www.w3.org/1999/xlink" x="0px" y="0px"
	 width="75px" height="75px" viewBox="0 0 75 75" enable-background="new 0 0 75 75" xml:space="preserve">
<g>
	<g>
		<path fill="#1E284B" d="M18.068,19.853c-1.059,0-2.088-0.549-2.651-1.533C13.663,15.266,6.535,7.821,3.937,5.208
			C2.747,4.015,2.752,2.08,3.949,0.89c1.19-1.192,3.129-1.184,4.318,0.01c1.015,1.019,9.98,10.08,12.446,14.377
			c0.842,1.464,0.334,3.332-1.127,4.17C19.106,19.721,18.584,19.853,18.068,19.853z"/>
		<path fill="#1E284B" d="M11.662,75c-0.594,0-1.19-0.173-1.709-0.522c-1.148-0.775-1.632-2.225-1.175-3.534l1.596-4.602V33.009
			H3.516c-1.688,0-3.054-1.366-3.054-3.055s1.365-3.054,3.054-3.054h9.911c1.688,0,3.054,1.365,3.054,3.054v33.733l7.171-6.258
			c1.265-1.106,3.194-0.979,4.31,0.295c1.106,1.271,0.976,3.2-0.295,4.311L13.668,74.248C13.099,74.746,12.38,75,11.662,75z"/>
	</g>
	<g>
		<path fill="#1E284B" d="M66.723,73.133H54.252c-1.688,0-3.054-1.366-3.054-3.054c0-1.688,1.366-3.055,3.054-3.055h12.471
			c0.444,0,1.025-0.06,1.282-0.352c0.418-0.475,0.468-1.638,0.402-2.156c-0.018-0.126-0.029-0.29-0.029-0.418V7.976H29.309
			c-1.688,0-3.054-1.366-3.054-3.054c0-1.687,1.366-3.054,3.054-3.054h42.123c1.688,0,3.055,1.368,3.055,3.054V63.92
			c0.104,1.011,0.25,4.298-1.853,6.734C71.661,71.785,69.842,73.133,66.723,73.133z"/>
		<path fill="#1E284B" d="M59.979,23.122H32.567c-1.688,0-3.055-1.366-3.055-3.054s1.366-3.054,3.055-3.054h27.412
			c1.688,0,3.055,1.366,3.055,3.054S61.667,23.122,59.979,23.122z"/>
		<path fill="#1E284B" d="M59.979,60.027H32.11c-1.688,0-3.054-1.366-3.054-3.054V34.068c0-1.688,1.366-3.055,3.054-3.055h27.869
			c1.688,0,3.055,1.366,3.055,3.055v22.906C63.033,58.661,61.667,60.027,59.979,60.027z M35.165,53.919h21.76V37.122h-21.76V53.919z
			"/>
	</g>
</g>
<g>
	<g>
		<path fill="#1E284B" d="M101.85-68.188H82.014c-1.693,0-3.063-1.37-3.063-3.064s1.37-3.064,3.063-3.064h19.836
			c1.693,0,3.064,1.37,3.064,3.064S103.543-68.188,101.85-68.188z"/>
		<path fill="#1E284B" d="M98.785-56.315H85.078c-1.693,0-3.064-1.371-3.064-3.064c0-1.694,1.371-3.065,3.064-3.065h13.707
			c1.694,0,3.064,1.371,3.064,3.065C101.85-57.686,100.479-56.315,98.785-56.315z"/>
		<path fill="#1E284B" d="M98.785-44.06H85.078c-1.693,0-3.064-1.369-3.064-3.063c0-1.694,1.371-3.064,3.064-3.064h13.707
			c1.694,0,3.064,1.37,3.064,3.064C101.85-45.429,100.479-44.06,98.785-44.06z"/>
		<path fill="#1E284B" d="M91.937-68.188c-0.09,0-0.18-0.003-0.27-0.012c-1.688-0.147-2.933-1.634-2.786-3.318
			c-0.076-0.91-1.654-5.06-3.081-8.268c-0.686-1.544,0.009-3.357,1.556-4.043c1.551-0.694,3.359,0.006,4.043,1.554
			c2.537,5.697,3.746,9.497,3.588,11.289C94.846-69.392,93.508-68.188,91.937-68.188z"/>
		<path fill="#1E284B" d="M100.959-9.207c-1.694,0-3.064-1.369-3.064-3.063v-20.043H86.658v20.043c0,1.693-1.371,3.063-3.064,3.063
			s-3.063-1.369-3.063-3.063v-23.107c0-1.693,1.37-3.063,3.063-3.063h17.365c1.692,0,3.063,1.369,3.063,3.063v23.107
			C104.022-10.576,102.651-9.207,100.959-9.207z"/>
		<path fill="#1E284B" d="M100.959-15.716H83.594c-1.693,0-3.063-1.371-3.063-3.064s1.37-3.064,3.063-3.064h17.365
			c1.692,0,3.063,1.371,3.063,3.064S102.651-15.716,100.959-15.716z"/>
	</g>
	<g>
		<path fill="#1E284B" d="M146.11-10.902h-12.509c-1.695,0-3.066-1.371-3.066-3.064s1.371-3.064,3.066-3.064h12.509
			c0.446,0,1.029-0.061,1.287-0.352c0.419-0.477,0.47-1.645,0.404-2.164c-0.018-0.127-0.029-0.291-0.029-0.42v-56.304h-39.196
			c-1.693,0-3.064-1.37-3.064-3.064s1.371-3.064,3.064-3.064h42.26c1.692,0,3.063,1.37,3.063,3.064v59.188
			c0.104,1.016,0.252,4.313-1.858,6.758C151.066-12.255,149.24-10.902,146.11-10.902z"/>
		<path fill="#1E284B" d="M139.345-61.076h-27.501c-1.693,0-3.063-1.371-3.063-3.064c0-1.694,1.37-3.064,3.063-3.064h27.501
			c1.695,0,3.064,1.37,3.064,3.064C142.409-62.447,141.04-61.076,139.345-61.076z"/>
		<path fill="#1E284B" d="M139.345-24.05h-27.959c-1.694,0-3.063-1.369-3.063-3.064v-22.98c0-1.694,1.369-3.064,3.063-3.064h27.959
			c1.695,0,3.064,1.37,3.064,3.064v22.98C142.409-25.419,141.04-24.05,139.345-24.05z M114.449-30.177h21.832v-16.854h-21.832
			V-30.177z"/>
	</g>
</g>
<g>
	<path fill="#1E284B" d="M206.809-64.024c-1.663,0-3.009-1.348-3.009-3.01c-0.063-1.431-3.01-7.25-6.305-12.442
		c-0.891-1.402-0.474-3.262,0.929-4.153c1.402-0.889,3.26-0.475,4.156,0.929c2.175,3.428,7.238,11.821,7.238,15.667
		C209.818-65.372,208.473-64.024,206.809-64.024z"/>
	<path fill="#1E284B" d="M239.914-64.024h-68.092c-1.663,0-3.01-1.348-3.01-3.01s1.347-3.009,3.01-3.009h68.092
		c1.664,0,3.01,1.347,3.01,3.009S241.578-64.024,239.914-64.024z"/>
	<path fill="#1E284B" d="M171.822-9.098c-1.296,0-2.492-0.842-2.883-2.147c-0.477-1.592,0.426-3.27,2.019-3.748
		c46.237-13.871,50.021-50.738,50.158-52.3c0.147-1.652,1.593-2.854,3.257-2.736c1.654,0.143,2.88,1.593,2.739,3.248
		c-0.035,0.422-4.139,42.469-54.426,57.556C172.398-9.141,172.107-9.098,171.822-9.098z"/>
	<path fill="#1E284B" d="M238.413-9.098c-0.265,0-0.535-0.036-0.803-0.11c-37.917-10.445-52.58-48.797-53.186-50.425
		c-0.579-1.557,0.215-3.288,1.77-3.868c1.558-0.58,3.289,0.21,3.871,1.767c0.138,0.37,14.248,37.11,49.144,46.725
		c1.602,0.441,2.543,2.099,2.102,3.7C240.943-9.975,239.732-9.098,238.413-9.098z"/>
</g>
</svg>
