<?xml version="1.0" encoding="utf-8"?>
<!-- Generator: Adobe Illustrator 26.5.3, SVG Export Plug-In . SVG Version: 6.00 Build 0)  -->
<svg version="1.1" id="圖層_1" xmlns="http://www.w3.org/2000/svg" xmlns:xlink="http://www.w3.org/1999/xlink" x="0px" y="0px"
	 viewBox="0 0 492.7 121.6" style="enable-background:new 0 0 492.7 121.6;" xml:space="preserve">
<style type="text/css">
	.st0{fill-rule:evenodd;clip-rule:evenodd;}
</style>
<g>
	<g>
		<path d="M14,109.5l2.5,0.7c-0.5,2-1.5,3.6-2.8,4.6c-1.3,1-3,1.6-4.9,1.6s-3.6-0.3-4.9-1.1c-1.3-0.8-2.1-2-2.8-3.6
			c-0.7-1.5-1-3.3-1-4.9c0-2,0.3-3.6,1.1-5.1s1.8-2.5,3.1-3.3c1.3-0.8,3-1.1,4.6-1.1c1.8,0,3.4,0.5,4.8,1.5s2.1,2.3,2.6,3.9
			l-2.5,0.5c-0.5-1.3-1-2.3-1.8-3c-0.8-0.7-1.8-1-3.1-1c-1.5,0-2.6,0.3-3.6,1c-1,0.7-1.6,1.6-2,2.8c-0.3,1.1-0.7,2.3-0.7,3.6
			c0,1.6,0.2,3,0.7,4.1c0.5,1.1,1.1,2.1,2.1,2.6c1,0.7,2,0.8,3.1,0.8c1.3,0,2.6-0.3,3.4-1.1C13,112.1,13.6,110.9,14,109.5z"/>
		<path d="M19.2,115.9V97.3h2.3v6.7c1.1-1.3,2.5-1.8,4.1-1.8c1,0,1.8,0.2,2.6,0.7c0.7,0.3,1.3,1,1.6,1.6c0.3,0.7,0.5,1.6,0.5,3v8.5
			h-2.5v-8.5c0-1.1-0.3-2-0.8-2.5c-0.5-0.5-1.1-0.8-2.1-0.8c-0.7,0-1.3,0.2-2,0.5c-0.7,0.3-1,0.8-1.3,1.5s-0.3,1.5-0.3,2.5v7.4h-2.1
			V115.9z"/>
		<path d="M33.7,99.9v-2.6H36v2.6H33.7z M33.7,115.9v-13.5H36v13.5H33.7z"/>
		<path d="M39.4,115.9v-13.5h2.1v2c1-1.5,2.5-2.3,4.3-2.3c0.8,0,1.6,0.2,2.3,0.5c0.7,0.3,1.1,0.7,1.5,1.1c0.3,0.5,0.7,1,0.7,1.6
			c0.2,0.5,0.2,1.1,0.2,2.3v8.4h-2.3v-8.2c0-1-0.2-1.6-0.3-2.1s-0.5-0.8-1-1.1c-0.5-0.3-1-0.5-1.6-0.5c-1,0-1.8,0.3-2.5,1
			s-1,1.8-1,3.4v7.4C41.7,115.9,39.4,115.9,39.4,115.9z"/>
		<path d="M63.2,111.6l2.3,0.3c-0.3,1.3-1,2.5-2.1,3.3c-1,0.8-2.3,1.1-3.9,1.1c-2,0-3.6-0.7-4.8-1.8c-1.1-1.1-1.8-3-1.8-5.1
			c0-2.3,0.7-4.1,1.8-5.3c1.1-1.3,2.6-1.8,4.6-1.8c1.8,0,3.3,0.7,4.4,1.8c1.1,1.1,1.6,3,1.6,5.3c0,0.2,0,0.3,0,0.7h-10
			c0.2,1.5,0.5,2.6,1.3,3.4c0.8,0.8,1.6,1.1,2.8,1.1c0.8,0,1.5-0.2,2.1-0.7C62.4,113.2,62.9,112.6,63.2,111.6z M55.7,107.8h7.6
			c-0.2-1.1-0.3-2-0.8-2.6c-0.7-0.8-1.6-1.3-2.8-1.3c-1,0-2,0.3-2.6,1C56.2,105.8,55.8,106.7,55.7,107.8z"/>
		<path d="M67.5,111.9l2.3-0.3c0.2,1,0.5,1.6,1,2.1c0.7,0.5,1.3,0.7,2.5,0.7c1,0,1.8-0.2,2.3-0.7s0.8-1,0.8-1.5s-0.2-1-0.7-1.1
			c-0.3-0.2-1.1-0.5-2.3-0.8c-1.6-0.5-2.8-0.8-3.4-1.1c-0.7-0.3-1.1-0.7-1.5-1.3c-0.3-0.5-0.5-1.1-0.5-1.8s0.2-1.1,0.5-1.6
			c0.3-0.5,0.7-1,1.1-1.3c0.3-0.3,0.8-0.5,1.5-0.7s1.3-0.3,2-0.3c1,0,2,0.2,2.8,0.5c0.8,0.3,1.3,0.7,1.8,1.3
			c0.3,0.5,0.7,1.1,0.8,2.1l-2.3,0.3c-0.2-0.7-0.3-1.3-0.8-1.6c-0.5-0.3-1.1-0.7-2.1-0.7c-1,0-1.8,0.2-2.3,0.5
			c-0.5,0.3-0.7,0.8-0.7,1.1s0.2,0.5,0.3,0.8c0.2,0.3,0.5,0.5,0.8,0.7c0.2,0.2,1,0.3,2,0.7c1.6,0.5,2.8,0.8,3.4,1
			c0.7,0.3,1.1,0.7,1.5,1.1c0.3,0.5,0.5,1.1,0.5,2c0,0.8-0.2,1.5-0.7,2.1c-0.5,0.7-1.1,1.1-2,1.6c-0.8,0.3-1.8,0.5-2.8,0.5
			c-1.8,0-3.1-0.3-3.9-1.1C68.3,114.4,67.8,113.4,67.5,111.9z"/>
		<path d="M90.7,111.6l2.3,0.3c-0.3,1.3-1,2.5-2.1,3.3c-1,0.8-2.3,1.1-3.9,1.1c-2,0-3.6-0.7-4.8-1.8c-1.1-1.1-1.8-3-1.8-5.1
			c0-2.3,0.7-4.1,1.8-5.3c1.1-1.3,2.6-1.8,4.6-1.8c1.8,0,3.3,0.7,4.4,1.8c1.1,1.1,1.6,3,1.6,5.3c0,0.2,0,0.3,0,0.7h-10
			c0.2,1.5,0.5,2.6,1.3,3.4c0.8,0.8,1.6,1.1,2.8,1.1c0.8,0,1.5-0.2,2.1-0.7C89.8,113.2,90.3,112.6,90.7,111.6z M83.3,107.8h7.6
			c-0.2-1.1-0.3-2-0.8-2.6c-0.7-0.8-1.6-1.3-2.8-1.3c-1,0-2,0.3-2.6,1C83.8,105.8,83.3,106.7,83.3,107.8z"/>
	</g>
	<g>
		<path d="M108.9,115.9l-7.2-18.7h2.6l4.8,13.5c0.3,1.1,0.7,2.1,1,3.1c0.3-1,0.7-2,1-3.1l5.1-13.5h2.5l-7.2,18.7H108.9z"/>
	</g>
	<path d="M118.2,109.1c0-2.5,0.7-4.4,2.1-5.6c1.1-1,2.6-1.5,4.3-1.5c1.8,0,3.4,0.7,4.6,1.8c1.1,1.1,1.8,3,1.8,5.1
		c0,1.8-0.3,3.1-0.8,4.1s-1.3,1.8-2.3,2.3c-1,0.5-2.1,0.8-3.3,0.8c-2,0-3.4-0.7-4.6-1.8C118.9,113.2,118.2,111.4,118.2,109.1z
		 M120.7,109.1c0,1.8,0.3,3,1.1,3.9c0.8,0.8,1.6,1.3,2.8,1.3c1.1,0,2.1-0.5,2.8-1.3c0.8-0.8,1.1-2.1,1.1-3.9c0-1.6-0.3-3-1.1-3.8
		c-0.8-0.8-1.6-1.3-2.8-1.3c-1.1,0-2.1,0.5-2.8,1.3C121,106.2,120.7,107.5,120.7,109.1z"/>
	<path d="M142.4,110.9l2.3,0.3c-0.2,1.5-0.8,2.8-1.8,3.6c-1,0.8-2.3,1.3-3.8,1.3c-1.8,0-3.3-0.7-4.4-1.8c-1.1-1.1-1.6-3-1.6-5.3
		c0-1.5,0.2-2.8,0.7-3.8c0.5-1.1,1.1-2,2.1-2.5c1-0.5,2.1-0.8,3.3-0.8c1.5,0,2.6,0.3,3.6,1.1c1,0.8,1.5,1.8,1.8,3.1l-2.3,0.3
		c-0.2-1-0.7-1.6-1.1-2c-0.5-0.5-1.1-0.7-2-0.7c-1.1,0-2.1,0.5-2.8,1.3c-0.7,0.8-1.1,2.1-1.1,3.9c0,1.8,0.3,3.1,1,3.9
		c0.7,0.8,1.6,1.3,2.8,1.3c0.8,0,1.6-0.3,2.3-0.8C141.9,113.1,142.2,112.1,142.4,110.9z"/>
	<path d="M155.5,114.2c-0.8,0.7-1.6,1.1-2.5,1.5c-0.8,0.3-1.6,0.5-2.5,0.5c-1.5,0-2.6-0.3-3.4-1.1c-0.8-0.7-1.1-1.6-1.1-2.8
		c0-0.7,0.2-1.3,0.5-1.8c0.3-0.5,0.7-1,1.1-1.3c0.5-0.3,1-0.7,1.6-0.8c0.5-0.2,1.1-0.2,2-0.3c1.8-0.2,3.3-0.5,4.1-0.8
		c0-0.3,0-0.5,0-0.7c0-1-0.2-1.6-0.7-2c-0.7-0.5-1.5-0.8-2.6-0.8c-1.1,0-1.8,0.2-2.5,0.5c-0.5,0.3-0.8,1-1.1,2l-2.3-0.3
		c0.2-1,0.5-1.8,1-2.3c0.5-0.7,1.1-1,2-1.3c0.8-0.3,2-0.5,3.1-0.5c1.1,0,2.1,0.2,2.8,0.3c0.7,0.3,1.3,0.7,1.6,1
		c0.3,0.5,0.7,1,0.7,1.5c0,0.3,0.2,1.1,0.2,2.1v3.6c0,2.1,0,3.4,0.2,4.1c0.2,0.5,0.3,1.1,0.7,1.6h-2.5
		C155.7,115.5,155.5,114.9,155.5,114.2z M155.2,109.1c-0.8,0.3-2.1,0.7-3.8,0.8c-1,0.2-1.6,0.3-2,0.5c-0.3,0.2-0.7,0.5-0.8,0.8
		s-0.3,0.7-0.3,1.1c0,0.7,0.2,1.1,0.7,1.5c0.5,0.3,1.1,0.7,2,0.7s1.6-0.2,2.3-0.7c0.7-0.3,1.1-1,1.5-1.6c0.2-0.5,0.3-1.3,0.3-2.3
		v-0.8H155.2z"/>
	<path d="M163.2,115.9h-2.1V97.3h2.3v6.6c1-1.1,2.1-1.8,3.8-1.8c0.8,0,1.6,0.2,2.3,0.5c0.8,0.3,1.3,0.8,1.8,1.5
		c0.5,0.7,0.8,1.3,1.1,2.1c0.3,0.8,0.3,1.8,0.3,2.8c0,2.3-0.5,4.1-1.6,5.4c-1.1,1.3-2.5,2-4.1,2s-2.8-0.7-3.8-2
		C163.2,114.4,163.2,115.9,163.2,115.9z M163.2,109.1c0,1.6,0.2,2.8,0.7,3.4c0.7,1.1,1.6,1.8,3,1.8c1,0,1.8-0.5,2.6-1.3
		c0.7-0.8,1.1-2.1,1.1-3.9c0-1.8-0.3-3.1-1-3.9c-0.7-0.8-1.5-1.3-2.5-1.3c-1,0-1.8,0.5-2.6,1.3C163.6,106.2,163.2,107.5,163.2,109.1
		z"/>
	<path d="M184.4,115.9v-2c-1,1.5-2.5,2.3-4.3,2.3c-0.8,0-1.5-0.2-2.3-0.5c-0.7-0.3-1.1-0.7-1.5-1.1c-0.3-0.5-0.5-1-0.7-1.6
		c-0.2-0.5-0.2-1.1-0.2-2.1v-8.4h2.3v7.6c0,1.1,0,2,0.2,2.5c0.2,0.7,0.5,1.1,1,1.5c0.5,0.3,1,0.5,1.8,0.5c0.7,0,1.3-0.2,2-0.5
		c0.7-0.3,1-0.8,1.3-1.5c0.3-0.7,0.3-1.5,0.3-2.6v-7.2h2.3V116h-2.3V115.9z"/>
	<path d="M190,115.9V97.3h2.3V116H190V115.9z"/>
	<path d="M204.6,114.2c-0.8,0.7-1.6,1.1-2.5,1.5c-0.8,0.3-1.6,0.5-2.5,0.5c-1.5,0-2.6-0.3-3.4-1.1c-0.8-0.7-1.1-1.6-1.1-2.8
		c0-0.7,0.2-1.3,0.5-1.8c0.3-0.5,0.7-1,1.1-1.3c0.5-0.3,1-0.7,1.6-0.8c0.5-0.2,1.1-0.2,2-0.3c1.8-0.2,3.3-0.5,4.1-0.8
		c0-0.3,0-0.5,0-0.7c0-1-0.2-1.6-0.7-2c-0.7-0.5-1.5-0.8-2.6-0.8s-1.8,0.2-2.5,0.5c-0.5,0.3-0.8,1-1.1,2l-2.3-0.3
		c0.2-1,0.5-1.8,1-2.3c0.5-0.7,1.1-1,2-1.3c0.8-0.3,2-0.5,3.1-0.5c1.1,0,2.1,0.2,2.8,0.3c0.7,0.3,1.3,0.7,1.6,1
		c0.3,0.5,0.7,1,0.7,1.5c0,0.3,0.2,1.1,0.2,2.1v3.6c0,2.1,0,3.4,0.2,4.1c0.2,0.5,0.3,1.1,0.7,1.6H205
		C205,115.5,204.8,114.9,204.6,114.2z M204.5,109.1c-0.8,0.3-2.1,0.7-3.8,0.8c-1,0.2-1.6,0.3-2,0.5c-0.3,0.2-0.7,0.5-0.8,0.8
		s-0.3,0.7-0.3,1.1c0,0.7,0.2,1.1,0.7,1.5c0.5,0.3,1.1,0.7,2,0.7c0.8,0,1.6-0.2,2.3-0.7c0.7-0.3,1.1-1,1.5-1.6
		c0.2-0.5,0.3-1.3,0.3-2.3v-0.8H204.5z"/>
	<path d="M210.4,115.9v-13.5h2.1v2c0.5-1,1-1.6,1.5-2c0.5-0.3,1-0.5,1.5-0.5c0.8,0,1.5,0.2,2.3,0.7l-0.8,2.1
		c-0.5-0.3-1.1-0.5-1.6-0.5s-1,0.2-1.3,0.5c-0.3,0.3-0.7,0.7-0.8,1.3c-0.3,0.8-0.3,1.6-0.3,2.6v7.1h-2.5V115.9z"/>
	<path d="M218.9,121.1l-0.3-2.1c0.5,0.2,1,0.2,1.3,0.2c0.5,0,1-0.2,1.1-0.3c0.3-0.2,0.5-0.3,0.8-0.7c0.2-0.2,0.3-0.8,0.7-1.6
		c0-0.2,0.2-0.3,0.2-0.5l-5.1-13.5h2.5l2.8,7.9c0.3,1,0.7,2,1,3.1c0.3-1,0.7-2.1,1-3.1l3-7.9h2.3l-5.1,13.8c-0.5,1.5-1,2.5-1.3,3.1
		c-0.3,0.8-0.8,1.3-1.5,1.6c-0.5,0.3-1.1,0.5-1.8,0.5C219.9,121.4,219.4,121.3,218.9,121.1z"/>
	<path d="M252.9,109.5l2.5,0.7c-0.5,2-1.5,3.6-2.8,4.6s-3,1.6-4.9,1.6s-3.6-0.3-4.9-1.1c-1.3-0.8-2.1-2-2.8-3.6
		c-0.7-1.5-1-3.3-1-4.9c0-2,0.3-3.6,1.1-5.1c0.8-1.5,1.8-2.5,3.1-3.3c1.3-0.8,3-1.1,4.6-1.1c1.8,0,3.4,0.5,4.8,1.5s2.1,2.3,2.6,3.9
		l-2.5,0.5c-0.5-1.3-1-2.3-1.8-3c-0.8-0.7-1.8-1-3.1-1c-1.5,0-2.6,0.3-3.6,1c-1,0.7-1.6,1.6-2,2.8c-0.3,1.1-0.7,2.3-0.7,3.6
		c0,1.6,0.2,3,0.7,4.1c0.5,1.1,1.1,2.1,2.1,2.6c1,0.7,2,0.8,3.1,0.8c1.3,0,2.6-0.3,3.4-1.1C251.9,112.1,252.6,110.9,252.9,109.5z"/>
	<path d="M257.2,109.1c0-2.5,0.7-4.4,2.1-5.6c1.1-1,2.6-1.5,4.3-1.5c1.8,0,3.4,0.7,4.6,1.8c1.1,1.1,1.8,3,1.8,5.1
		c0,1.8-0.3,3.1-0.8,4.1c-0.5,1-1.3,1.8-2.3,2.3c-1,0.5-2.1,0.8-3.3,0.8c-2,0-3.4-0.7-4.6-1.8C257.8,113.2,257.2,111.4,257.2,109.1z
		 M259.6,109.1c0,1.8,0.3,3,1.1,3.9c0.8,0.8,1.6,1.3,2.8,1.3s2.1-0.5,2.8-1.3c0.8-0.8,1.1-2.1,1.1-3.9c0-1.6-0.3-3-1.1-3.8
		c-0.8-0.8-1.6-1.3-2.8-1.3s-2.1,0.5-2.8,1.3C260,106.2,259.6,107.5,259.6,109.1z"/>
	<path d="M272.6,115.9v-13.5h2v2c0.5-0.7,1-1.1,1.6-1.6c0.7-0.3,1.5-0.7,2.5-0.7s1.8,0.2,2.5,0.7s1.1,1,1.3,1.8
		c1.1-1.6,2.5-2.3,4.1-2.3c1.3,0,2.3,0.3,3.1,1.1c0.7,0.8,1.1,1.8,1.1,3.4v9.2h-2.3v-8.5c0-1,0-1.6-0.2-2c-0.2-0.3-0.5-0.7-0.8-1
		c-0.3-0.2-0.8-0.3-1.3-0.3c-1,0-1.8,0.3-2.3,1c-0.7,0.7-1,1.6-1,3v7.9h-2.3v-8.7c0-1-0.2-1.8-0.5-2.3c-0.3-0.5-1-0.8-1.8-0.8
		c-0.7,0-1.3,0.2-1.8,0.5c-0.5,0.3-1,0.8-1.1,1.5c-0.2,0.7-0.3,1.6-0.3,2.8v7.1h-2.5V115.9z"/>
	<path d="M294.3,121.1v-18.7h2.1v1.8c0.5-0.7,1-1.1,1.6-1.5c0.7-0.3,1.3-0.5,2.3-0.5c1.1,0,2.1,0.3,3.1,0.8c0.8,0.7,1.5,1.5,2,2.5
		c0.5,1.1,0.7,2.3,0.7,3.6c0,1.3-0.3,2.6-0.8,3.8c-0.5,1.1-1.1,2-2.1,2.5c-1,0.7-2,0.8-3,0.8c-0.8,0-1.5-0.2-2.1-0.5
		c-0.7-0.3-1.1-0.7-1.5-1.1v6.6C296.6,121.1,294.3,121.1,294.3,121.1z M296.3,109.3c0,1.8,0.3,3,1,3.8c0.7,0.8,1.5,1.3,2.6,1.3
		c1,0,1.8-0.5,2.6-1.3c0.7-0.8,1.1-2.1,1.1-3.9c0-1.6-0.3-3-1-3.9s-1.5-1.3-2.5-1.3s-1.8,0.5-2.6,1.3
		C296.8,106.2,296.3,107.5,296.3,109.3z"/>
	<path d="M308.8,115.9v-13.5h2.1v2c0.5-1,1-1.6,1.5-2c0.5-0.3,1-0.5,1.5-0.5c0.8,0,1.5,0.2,2.3,0.7l-0.8,2.1
		c-0.5-0.3-1.1-0.5-1.6-0.5c-0.5,0-1,0.2-1.3,0.5c-0.3,0.3-0.7,0.7-0.8,1.3c-0.3,0.8-0.3,1.6-0.3,2.6v7.1h-2.5V115.9z"/>
	<path d="M326.7,111.6l2.3,0.3c-0.3,1.3-1,2.5-2.1,3.3c-1,0.8-2.3,1.1-3.9,1.1c-2,0-3.6-0.7-4.8-1.8c-1.1-1.1-1.8-3-1.8-5.1
		c0-2.3,0.7-4.1,1.8-5.3c1.1-1.3,2.6-1.8,4.6-1.8c1.8,0,3.3,0.7,4.4,1.8c1.1,1.1,1.6,3,1.6,5.3c0,0.2,0,0.3,0,0.7h-10
		c0.2,1.5,0.5,2.6,1.3,3.4c0.8,0.8,1.6,1.1,2.8,1.1c0.8,0,1.5-0.2,2.1-0.7C325.8,113.2,326.3,112.6,326.7,111.6z M319.1,107.8h7.6
		c-0.2-1.1-0.3-2-0.8-2.6c-0.7-0.8-1.6-1.3-2.8-1.3c-1,0-2,0.3-2.6,1C319.6,105.8,319.3,106.7,319.1,107.8z"/>
	<path d="M331.9,115.9V97.3h2.3v6.7c1-1.3,2.5-1.8,4.1-1.8c1,0,1.8,0.2,2.6,0.7c0.7,0.3,1.3,1,1.6,1.6c0.3,0.7,0.5,1.6,0.5,3v8.5
		h-2.3v-8.5c0-1.1-0.3-2-0.8-2.5c-0.5-0.5-1.1-0.8-2.1-0.8c-0.7,0-1.3,0.2-2,0.5c-0.7,0.3-1,0.8-1.3,1.5c-0.3,0.7-0.3,1.5-0.3,2.5
		v7.4h-2.3V115.9z"/>
	<path d="M355.6,111.6l2.5,0.3c-0.3,1.3-1,2.5-2.1,3.3c-1,0.8-2.3,1.1-3.9,1.1c-2,0-3.6-0.7-4.8-1.8c-1.1-1.1-1.8-3-1.8-5.1
		c0-2.3,0.7-4.1,1.8-5.3c1.1-1.3,2.6-1.8,4.6-1.8c1.8,0,3.3,0.7,4.4,1.8c1.1,1.1,1.6,3,1.6,5.3c0,0.2,0,0.3,0,0.7h-10
		c0.2,1.5,0.5,2.6,1.3,3.4c0.8,0.8,1.6,1.1,2.8,1.1c0.8,0,1.5-0.2,2.1-0.7C354.7,113.2,355.2,112.6,355.6,111.6z M348.2,107.8h7.6
		c-0.2-1.1-0.3-2-0.8-2.6c-0.7-0.8-1.6-1.3-2.8-1.3c-1,0-2,0.3-2.6,1C348.5,105.8,348.2,106.7,348.2,107.8z"/>
	<path d="M360.8,115.9v-13.5h2.1v2c1-1.5,2.5-2.3,4.3-2.3c0.8,0,1.6,0.2,2.3,0.5c0.7,0.3,1.1,0.7,1.5,1.1c0.3,0.5,0.7,1,0.7,1.6
		c0.2,0.5,0.2,1.1,0.2,2.3v8.4h-2.3v-8.2c0-1-0.2-1.6-0.3-2.1s-0.5-0.8-1-1.1c-0.5-0.3-1-0.5-1.6-0.5c-1,0-1.8,0.3-2.5,1
		c-0.7,0.7-1,1.8-1,3.4v7.4C363.1,115.9,360.8,115.9,360.8,115.9z"/>
	<path d="M374.4,111.9l2.3-0.3c0.2,1,0.5,1.6,1,2.1c0.7,0.5,1.3,0.7,2.5,0.7c1,0,1.8-0.2,2.3-0.7c0.5-0.5,0.8-1,0.8-1.5
		s-0.2-1-0.7-1.1c-0.3-0.2-1.1-0.5-2.3-0.8c-1.6-0.5-2.8-0.8-3.4-1.1c-0.7-0.3-1.1-0.7-1.5-1.3c-0.3-0.5-0.5-1.1-0.5-1.8
		s0.2-1.1,0.5-1.6c0.3-0.5,0.7-1,1.1-1.3c0.3-0.3,0.8-0.5,1.5-0.7c0.7-0.2,1.3-0.3,2-0.3c1,0,2,0.2,2.8,0.5c0.8,0.3,1.3,0.7,1.8,1.3
		c0.3,0.5,0.7,1.1,0.8,2.1l-2.3,0.3c-0.2-0.7-0.3-1.3-0.8-1.6c-0.5-0.3-1.1-0.7-2.1-0.7s-1.8,0.2-2.3,0.5c-0.5,0.3-0.7,0.8-0.7,1.1
		s0.2,0.5,0.3,0.8c0.2,0.3,0.5,0.5,0.8,0.7c0.2,0.2,0.8,0.3,2,0.7c1.6,0.5,2.8,0.8,3.4,1c0.7,0.3,1.1,0.7,1.5,1.1
		c0.3,0.5,0.5,1.1,0.5,2c0,0.8-0.2,1.5-0.7,2.1c-0.5,0.7-1.1,1.1-2,1.6c-0.8,0.3-1.8,0.5-2.8,0.5c-1.8,0-3.1-0.3-3.9-1.1
		C375.3,114.4,374.6,113.4,374.4,111.9z"/>
	<path d="M388.4,99.9v-2.6h2.3v2.6H388.4z M388.4,115.9v-13.5h2.3v13.5H388.4z"/>
	<path d="M393.3,109.1c0-2.5,0.7-4.4,2.1-5.6c1.1-1,2.6-1.5,4.3-1.5c1.8,0,3.4,0.7,4.6,1.8c1.1,1.1,1.8,3,1.8,5.1
		c0,1.8-0.3,3.1-0.8,4.1c-0.5,1-1.3,1.8-2.3,2.3c-1,0.5-2.1,0.8-3.3,0.8c-2,0-3.4-0.7-4.6-1.8C393.8,113.2,393.3,111.4,393.3,109.1z
		 M395.6,109.1c0,1.8,0.3,3,1.1,3.9c0.8,0.8,1.6,1.3,2.8,1.3s2.1-0.5,2.8-1.3c0.8-0.8,1.1-2.1,1.1-3.9c0-1.6-0.3-3-1.1-3.8
		c-0.8-0.8-1.6-1.3-2.8-1.3s-2.1,0.5-2.8,1.3C396,106.2,395.6,107.5,395.6,109.1z"/>
	<path d="M408.6,115.9v-13.5h2.1v2c1-1.5,2.5-2.3,4.3-2.3c0.8,0,1.6,0.2,2.3,0.5c0.7,0.3,1.1,0.7,1.5,1.1c0.3,0.5,0.7,1,0.7,1.6
		c0.2,0.5,0.2,1.1,0.2,2.3v8.4h-2.3v-8.2c0-1-0.2-1.6-0.3-2.1c-0.2-0.5-0.5-0.8-1-1.1c-0.5-0.3-1-0.5-1.6-0.5c-1,0-1.8,0.3-2.5,1
		c-0.7,0.7-1,1.8-1,3.4v7.4C410.9,115.9,408.6,115.9,408.6,115.9z"/>
	<path d="M429.8,109.9l2.3-0.2c0.2,1,0.3,1.6,0.8,2.3c0.3,0.7,1,1.1,1.8,1.5c0.8,0.3,1.8,0.5,2.8,0.5c1,0,1.8-0.2,2.5-0.5
		c0.7-0.3,1.3-0.7,1.6-1.1c0.3-0.5,0.5-1,0.5-1.6s-0.2-1.1-0.5-1.5c-0.3-0.5-0.8-0.8-1.6-1.1c-0.5-0.2-1.6-0.5-3.3-1
		c-1.6-0.5-3-0.8-3.6-1.1c-0.8-0.5-1.5-1-2-1.8c-0.5-0.7-0.7-1.5-0.7-2.3c0-1,0.3-1.8,0.8-2.6c0.5-0.8,1.3-1.5,2.3-1.8
		c1-0.5,2.1-0.7,3.4-0.7c1.3,0,2.6,0.2,3.6,0.7c1,0.5,1.8,1.1,2.5,2c0.5,0.8,0.8,1.8,1,3l-2.3,0.2c-0.2-1.1-0.5-2.1-1.3-2.6
		c-0.7-0.7-1.8-1-3.3-1c-1.5,0-2.6,0.3-3.3,0.8c-0.7,0.5-1,1.1-1,2c0,0.7,0.2,1.1,0.7,1.6c0.5,0.5,1.6,0.8,3.8,1.3
		c2,0.5,3.4,0.8,4.1,1.1c1.1,0.5,1.8,1.1,2.5,2c0.5,0.8,0.8,1.6,0.8,2.6s-0.3,2-0.8,2.8c-0.5,0.8-1.3,1.5-2.5,2
		c-1,0.5-2.3,0.7-3.6,0.7c-1.6,0-3.1-0.3-4.3-0.7c-1.1-0.5-2-1.1-2.6-2.3C430.1,112.2,429.8,111.3,429.8,109.9z"/>
	<path d="M456.6,110.9l2.3,0.3c-0.3,1.5-0.8,2.8-2,3.6c-1,0.8-2.3,1.3-3.8,1.3c-1.8,0-3.3-0.7-4.4-1.8c-1.1-1.1-1.6-3-1.6-5.3
		c0-1.5,0.2-2.8,0.7-3.8c0.5-1.1,1.1-2,2.1-2.5c1-0.5,2.1-0.8,3.3-0.8c1.5,0,2.6,0.3,3.6,1.1c1,0.8,1.5,1.8,1.8,3.1l-2.3,0.3
		c-0.2-1-0.7-1.6-1.1-2c-0.5-0.5-1.1-0.7-2-0.7c-1.1,0-2.1,0.5-2.8,1.3c-0.7,0.8-1.1,2.1-1.1,3.9c0,1.8,0.3,3.1,1,3.9
		c0.7,0.8,1.6,1.3,2.8,1.3c0.8,0,1.6-0.3,2.3-0.8C456.1,113.1,456.4,112.1,456.6,110.9z"/>
	<path d="M469.5,114.2c-0.8,0.7-1.6,1.1-2.5,1.5c-0.8,0.3-1.6,0.5-2.5,0.5c-1.5,0-2.6-0.3-3.4-1.1c-0.8-0.7-1.1-1.6-1.1-2.8
		c0-0.7,0.2-1.3,0.5-1.8c0.3-0.5,0.7-1,1.1-1.3c0.5-0.3,1-0.7,1.6-0.8c0.5-0.2,1.1-0.2,2-0.3c1.8-0.2,3.3-0.5,4.1-0.8
		c0-0.3,0-0.5,0-0.7c0-1-0.2-1.6-0.7-2c-0.7-0.5-1.5-0.8-2.6-0.8s-1.8,0.2-2.5,0.5c-0.7,0.3-0.8,1-1.1,2l-2.3-0.3
		c0.2-1,0.5-1.8,1-2.3c0.5-0.7,1.1-1,2-1.3c0.8-0.3,2-0.5,3.1-0.5c1.1,0,2.1,0.2,2.8,0.3c0.7,0.3,1.3,0.7,1.6,1
		c0.3,0.5,0.7,1,0.7,1.5c0,0.3,0.2,1.1,0.2,2.1v3.6c0,2.1,0,3.4,0.2,4.1c0.2,0.5,0.3,1.1,0.7,1.6h-2.5
		C469.7,115.5,469.7,114.9,469.5,114.2z M469.4,109.1c-0.8,0.3-2.1,0.7-3.8,0.8c-1,0.2-1.6,0.3-2,0.5c-0.3,0.2-0.7,0.5-0.8,0.8
		s-0.3,0.7-0.3,1.1c0,0.7,0.2,1.1,0.7,1.5c0.5,0.3,1.1,0.7,2,0.7s1.6-0.2,2.3-0.7c0.7-0.3,1.1-1,1.5-1.6c0.2-0.5,0.3-1.3,0.3-2.3
		v-0.8H469.4z"/>
	<path d="M475.1,115.9V97.3h2.3V116h-2.3V115.9z"/>
	<path d="M490.2,111.6l2.5,0.3c-0.3,1.3-1,2.5-2.1,3.3c-1,0.8-2.3,1.1-3.9,1.1c-2,0-3.6-0.7-4.8-1.8c-1.1-1.1-1.8-3-1.8-5.1
		c0-2.3,0.7-4.1,1.8-5.3c1.1-1.3,2.6-1.8,4.6-1.8c1.8,0,3.3,0.7,4.4,1.8c1.1,1.1,1.6,3,1.6,5.3c0,0.2,0,0.3,0,0.7h-10
		c0.2,1.5,0.5,2.6,1.3,3.4s1.6,1.1,2.8,1.1c0.8,0,1.5-0.2,2.1-0.7C489.4,113.2,489.9,112.6,490.2,111.6z M482.7,107.8h7.6
		c-0.2-1.1-0.3-2-0.8-2.6c-0.7-0.8-1.6-1.3-2.8-1.3c-1,0-2,0.3-2.6,1C483.2,105.8,482.8,106.7,482.7,107.8z"/>
</g>
<g>
	<path d="M132.8,0c-4,3-3.3,9.5-1.1,14.6c1.7-3.5,6-4.5,5.6-10.2C136.3,2.5,134.9,1,132.8,0z"/>
	<path d="M175.6,45c3.3-10,9.7-20.7,7.8-32.6c-17.5-2.4-30.4,9.2-38.2,20.2c13.7-3.2,18.6-15.1,33.7-16.9
		c1.3,9.7-3.2,23.1-10.2,28.1c-2.2-1.7-8.1-3.7-11.3-1.1c-0.6,5.9,8.1,7,5.6,11.3c-1.4,6.2-10.8,3.2-14.6,4.5
		c5.2,10.5,16.5,0.2,22.4-2.2c8.7,3.2,21.6,21.3,32.6,7.8C194.7,57.1,179.9,56.3,175.6,45z"/>
	<path d="M130.6,63c-2.7-8.7,0-24.3-1.1-31.5c-1.4,0-1.6-1.4-3.3-1.1c-5.9,11.9-8.4,42.5,5.6,47.2c3.7-4.3,5.1-16.5,3.3-22.4
		C134.4,58.5,134.7,63,130.6,63z"/>
	<g>
		<g>
			<path class="st0" d="M370.1,10.5c2.4,0.8-3,9.7-7.3,9.4c-6.5-0.6-14,1.9-17.3,7.2c-4.8,7.5-2.7,17.8-5.6,33.9
				c10.2,4.5,20.5,1.9,26.6-1.7c8.1-4.8,4,6.5,2.7,7.5c-7.8,6.2-20.7,3.7-33.2,5.7c-11.8,1.9,3.5-47.4,1.7-49.3
				c-2.1-2.4-8.3-1.6-9.2-4.6c0.6-2.9,0.3-5.1,4.9-4.9C344.3,13.8,359.9,8.7,370.1,10.5z"/>
			<path class="st0" d="M309.2,8.1c4.6,2.5,9.4,10,6,16.7c-0.8,1.6-1.7,1.9-3.2,1.4C311.2,26.1,301.4,18.6,309.2,8.1z"/>
			<path class="st0" d="M306.8,38c7.8,3.7,6.7,16.5,9.5,25.1c6.7-6,7.6-18,14.3-23.9c-5.2,11.9-5.4,28.8-14.3,37.1
				C303.6,73,307.1,50.3,306.8,38z"/>
		</g>
		<g>
			<path class="st0" d="M288.2,10.5c-8.4-14-30.9-4.9-37.1,5.1c11,0.6,15.6-4.8,24.3-6.4c4.1,18.1-5.4,43.4,3.8,62.7
				c-7.3,0.5-11.9-8.4-16.7-6.4c4.6,7,13,15.3,23.1,12.7c4.5-9.4-4.1-16.4-5.1-25.6C278.8,37.8,287,25.1,288.2,10.5z"/>
			<path class="st0" d="M270.7,30.9c-1.7-10.2-14.6-2.2-21.8-2.5C251.3,41.7,263,35.3,270.7,30.9z"/>
			<path class="st0" d="M271.9,41.2c-8-6.8-18.6,1.6-26.9,2.5c0.3,6.5,1.6,12.1,5.1,15.4C264.1,59.8,271.1,53.6,271.9,41.2z
				 M254,52.6c0.2-2.2-1.6-2.7-1.3-5.1c4.5-0.2,5.7-3.7,10.2-3.8C261.1,47.9,259.2,51.8,254,52.6z"/>
			<path class="st0" d="M236,37.2c-6-4-10.2,1.6-16.9,1.6c0-0.2,0.2-0.5,0.5-0.8c1.4-1.4,5.4-5.4,11.8-7.8
				c6.2-2.4,16.1-4.6,16.2-9.5c0-0.3,0-0.6,0-1c-0.3-9.5-9.7-10.2-19.2-10.7c-0.6,7,12.4,9.7,5.1,15.4c-4,2.9-16.2,9.5-16.7,14
				c0,0.5,0,1.1,0,1.4c0.3,3,1.6,4.9,2.5,7.5c2.2,0.8,7.5-1.6,7.6,1.3c1.1,10.2-5.9,17.3,1.3,23.1c10.8-4.6,12.1-25.4,14-34.5
				c-3.3,3.5-4.3,9.4-7.6,12.7C234.1,43.7,238.5,41.8,236,37.2z"/>
		</g>
	</g>
</g>
</svg>
