<?xml version="1.0" encoding="utf-8"?>
<!-- Generator: Adobe Illustrator 26.5.3, SVG Export Plug-In . SVG Version: 6.00 Build 0)  -->
<svg version="1.1" id="圖層_1" xmlns="http://www.w3.org/2000/svg" xmlns:xlink="http://www.w3.org/1999/xlink" x="0px" y="0px"
	 viewBox="0 0 492.7 121.6" style="enable-background:new 0 0 492.7 121.6;" xml:space="preserve">
<style type="text/css">
	.st0{fill-rule:evenodd;clip-rule:evenodd;}
</style>
<g>
	<g>
		<g>
			<path class="st0" d="M227.8,21.7c-2.5-2.7-4.8-3.2-6.5-4.4c8.9-4.1,29.4-6,21.1,10.6C233.5,30.6,227.8,21.7,227.8,21.7z"/>
			<path class="st0" d="M217.3,40L217.3,40c-5.4,1.4-9.7,3.7-16,4.3c1,9.2,17.6-1,20.2-2.2c7.8-3.8,14.1-5.1,14.1-5.1
				c3.3-0.6,3.2,1.1,3.2,1.1s6.8-3,9.5-5.9C244.5,28.2,239.7,34.1,217.3,40z"/>
			<path class="st0" d="M253.7,23.8c6.5-4.8,22.9-17.2,33.2-11.3c0.5,17-3.3,37.8-1.3,60.7c-0.6,2.4-1.1,2.4-4.3,3.3
				c-10.8,1.1-11.6-8.1-15.3-14.5l-0.8-1.4l1.9,0.3c3.8,1,5.4,5.6,9.7,4.4c0-11.4,1.7-33.7-0.5-47.3c-7.3-0.2-14.9,8.3-21.8,8.7
				l-4.8-0.8L253.7,23.8z"/>
			<path class="st0" d="M272.6,35.2c-1.4-8.6-13.8-1.6-20.5-1.6C254.2,45.1,265.5,39.2,272.6,35.2z"/>
			<path class="st0" d="M273.7,44c-7.5-5.6-17.6,1.9-25.4,3c0.2,5.6,1.3,10.3,4.6,13C266,60.3,272.8,54.8,273.7,44z M256.6,54.4
				c0.2-1.9-1.4-2.2-1.1-4.3c4.3-0.3,5.6-3.3,9.7-3.7C263.4,50,261.5,53.7,256.6,54.4z"/>
			<path class="st0" d="M237.4,72.7c2.9-1.9,7.3-9.1,7.3-13.5c-9.4-3.7-21.1,6.4-21.1,6.4s-0.5,0.2-0.3,1.6c0.3,1.3,5.4,6.7,8.1,6
				C232.4,73,236.7,73,237.4,72.7z"/>
			<path class="st0" d="M242,49.8c-0.2,5.9-8.6,5.2-12.6,7.8c-1.4-0.5-4.3-4.9-1.9-5.6C227.5,51.9,238.6,47.5,242,49.8z"/>
			<path class="st0" d="M236.7,40.3c0,0,0.8-0.2,2.9,2.7c-1.1,3-9.9,3.7-11.9,3.2C227.8,46.2,225.1,41.1,236.7,40.3z"/>
			<path class="st0" d="M238.6,62.1c-0.2,0.8-3.5,7.5-4.4,7.6c-5.2,0.6-5.2-1.6-5.6-3.2C228.3,64.8,238.8,61.3,238.6,62.1z"/>
		</g>
		<g>
			<path class="st0" d="M172.5,63.8c8.9,1.6,19.5,6.4,16.2,14.8C187.1,79.2,174.3,70.7,172.5,63.8z"/>
			<path class="st0" d="M148.2,27.6c-1.1,1.6,1.6,3,2.9,3c0.5,0,0.3-3,1.1-3.5c2.1-1.4,13.5-8.1,18.6-10.2c4.4-1.7,8.4-4,11-5.7
				c6.8-4.3,0.6-10.3-4.9-11.1c-8.9-1.3-15.4,9.2-21.8,11.6c-2.2-1.9-3.5-4.8-7-5.6c-0.3,6.5,3.8,12.9,9.1,15.7
				C153,24.7,149.3,25.8,148.2,27.6z M161.1,19.2c-2.7-7.6,9.9-22.1,15.4-12.1C173.3,13,166.8,15.7,161.1,19.2z"/>
			<g>
				<path class="st0" d="M136.3,13.8c1.6-6.2-3-10.6-9.2-12.2c-2.2,4,2.4,7.3,2.2,11.8C129.3,14.1,135.4,17.9,136.3,13.8z"/>
				<path class="st0" d="M131.2,63.7c5.7-3.2,6.4-7.5,11.9-10.8c-7.5,7.3-5.1,17.5-12.6,23.5c-8.6-7.5-9.1-26.4-4.3-40.8
					c1.4-4.4,6.4-0.8,6.4-0.8C130.7,44.4,127.4,53.3,131.2,63.7z"/>
			</g>
			<g>
				<g>
					<path class="st0" d="M185.7,26.5c-7.9-0.2-30,6.4-30,6.4c-2.9,1.3-4.6,6.8-5.4,10c-0.8,3.3,1.4,4,3.5,4
						c2.2,0,27.2-5.2,32.6-6.4c2.1-0.5,5.9-6.5,5.6-8.4C191.8,30,186.8,26.5,185.7,26.5z M179,35.7c-2.5,1.1-21,5.9-20.8,4.4
						c0-1.4,1.3-4.9,2.2-5.2c0,0,11.4-2.4,14.3-3.2C178.7,30.8,181.4,34.6,179,35.7z"/>
				</g>
			</g>
			<path class="st0" d="M148.1,51.9c0,0,43.1-12.2,40.4,0.5c-0.2,0.5-3.7-1-7.2-1.1c-3.5,0-31,5.4-31.6,5.2
				C147.3,55.9,145.8,51.9,148.1,51.9z"/>
			<path class="st0" d="M146.2,61.4c0,0,44.2-12.1,43.5-0.8c-0.2,2.1-6.5-1.9-12.1-1c-5.6,1-21.8,6.5-25.4,6.5
				C148.5,66,144.4,63.5,146.2,61.4z"/>
			<path class="st0" d="M165.4,24.6c0,0,1.4,17.5-0.2,26.1C163.2,61.8,149,76.5,146,77.8c-3,1.3,6.7,0,12.9-4.1
				c14-9.1,14.8-36.4,14.3-51C173,20.3,164.7,24.3,165.4,24.6z"/>
			<path class="st0" d="M152,27.9c0,0,11.3-4.9,14.3-5.7c2.7-0.8,15.1-5.4,20.3-4.1c3,0.8,7.2,4.1,6.7,5.2c-0.5,1.1-1.9,0.2-6.2,0
				c-13-0.2-35.4,8.4-36.4,7C148.1,26.6,149.8,29.3,152,27.9z"/>
		</g>
		<g>
			<path class="st0" d="M331.4,31.2c-1.1,3.5-7,2.2-10.5,3.5c-0.3-2.1,1.1-5.9-2.4-4.6C321.6,27.3,329.4,29.5,331.4,31.2z"/>
			<path class="st0" d="M324.6,57.5l0.6-1.7c0,0,3.7-12.7,3.7-12.9c0-1.6-1.9-1.6-3.8-1.3c-1.7,0.3-4.6-0.3-4,0.2
				c0.6,8.4-2.9,14.5-4.3,20.8c0.8,1.6,3.8,3.2,4.6,2.4c5.2-1.4,7.2-6,9.4-10.5L324.6,57.5z"/>
			<path class="st0" d="M353,64.5c7.5,0,15.7,0.3,16.2-3.2c1.4-2.9-12.6-1.4-14-2.4c-1.3-5.7,0.8-4.6,7.6-5.9
				c2.2-0.5,1.7-2.1,1.1-2.7c-0.8-0.8-1.4-2.1-3.2-1.4c0,0-3.3,1.1-5.1,0.6c-0.6-0.2-0.3-1.7-0.5-2.2c-0.8-2.7,8.1-1.6,8.3-2.2
				c0.2-0.6,0.2-3.7-2.2-4h-0.2c-7.5,1.1-6.4,1-7-3c2.9-2.9,10.2-1.4,10.5-7c0-2.4-9.7,0.5-13,2.2c-0.5,0.2-1,0.5-1.3,0.8
				c-1.1,0.6-2.1,1.3-3.2,2.1c-1.7,1-3.5,1.4-4.6,1.7c0.8-11.1,16.7-12.2,15.1-21.9c-5.9-2.1-10.8,3.2-12.9,1.1
				c0.5-1.6,1.4-1.9,0-3.5c4.8-2.2,14,0,14-7c-9.9-8.9-23.8,1.7-34.8,3.3c-0.2,0-3.8,0-5.9-0.3c-2.1-0.2-1.7,2.5-0.6,3.2
				c1.1,0.6,2.4,1,7.3,1.4c1.3,0.2,2.2,0.2,2.9,0c3.7,0.3,7.6,0.3,10.2,1.6c-4.1,4.9-6.8,16.4,1.1,15.1c-1.9,5.4-3,11.6-5.4,16.5
				c-1.1,1.9-2.5,4.6-3.5,5.1c-1.6,0.8,1.9,1.1,5.4-0.6c0.8,7.2-1.1,11.4-1.1,17.8c-8.6,1-16.4,1.7-17.2,1.7c-1.6,0-2.5-3.5-2.5-3.5
				l0,0c2.2-12.7,1.3-28.8,2.2-42.9c-1.9-1.3-6.2-6-9.4-2.4c6.5,13.3-3.7,33.8-1.1,52.4c0.3,0.8,0.8,1.4,1.4,1.6l0,0
				c0.2,0,0.3,0,0.5,0.2h0.2c14.5,3.8,43.1-3.3,61-2.9c0.6-10.5-14.1-6.7-22.2-5.6c-0.8,0-1.6,0.2-2.2,0.2c-1.9,0-3-0.2-3-1.1
				c-0.2-0.3-0.2-1.9-0.3-2.5C342.9,65.1,347.6,64.5,353,64.5z M342.1,41.6c0.2,0,0.2-0.2,0.3-0.2v-0.2l1.7-0.5l4.1-1.6
				c0.5,0.2,0.5,2.5,0.3,3.8c-0.3,0.6-7,1.4-7.2,1.4C341.4,42.4,341.7,42.2,342.1,41.6z M341.3,52.2c0-1.1,0.2-2.2,0.2-3.2
				c2.2,0,7.3-0.5,8.1-0.6c0.2,0.5,0.2,1,0.2,1.3c0,0.2,0,1,0,1.1c-0.2,2.2-7.3,3-8.4,2.9L341.3,52.2L341.3,52.2z M341,62.2
				c0-1,0.3-4.1,0.3-5.1c1.7-0.2,3.8-0.3,6-0.5c1.6,1.1,2.4,3.3,1.3,5.1C346.2,62.1,343,62.2,341,62.2z"/>
		</g>
	</g>
	<g>
		<g>
			<path d="M14,109.5l2.5,0.7c-0.5,2-1.5,3.6-2.8,4.6c-1.3,1-3,1.6-4.9,1.6s-3.6-0.3-4.9-1.1c-1.3-0.8-2.1-2-2.8-3.6
				c-0.7-1.5-1-3.3-1-4.9c0-2,0.3-3.6,1.1-5.1s1.8-2.5,3.1-3.3c1.3-0.8,3-1.1,4.6-1.1c1.8,0,3.4,0.5,4.8,1.5s2.1,2.3,2.6,3.9
				l-2.5,0.5c-0.5-1.3-1-2.3-1.8-3c-0.8-0.7-1.8-1-3.1-1c-1.5,0-2.6,0.3-3.6,1c-1,0.7-1.6,1.6-2,2.8c-0.3,1.1-0.7,2.3-0.7,3.6
				c0,1.6,0.2,3,0.7,4.1c0.5,1.1,1.1,2.1,2.1,2.6c1,0.7,2,0.8,3.1,0.8c1.3,0,2.6-0.3,3.4-1.1C13,112.1,13.6,110.9,14,109.5z"/>
			<path d="M19.2,115.9V97.3h2.3v6.7c1.1-1.3,2.5-1.8,4.1-1.8c1,0,1.8,0.2,2.6,0.7c0.7,0.3,1.3,1,1.6,1.6c0.3,0.7,0.5,1.6,0.5,3v8.5
				h-2.5v-8.5c0-1.1-0.3-2-0.8-2.5c-0.5-0.5-1.1-0.8-2.1-0.8c-0.7,0-1.3,0.2-2,0.5c-0.7,0.3-1,0.8-1.3,1.5s-0.3,1.5-0.3,2.5v7.4
				h-2.1V115.9z"/>
			<path d="M33.7,99.9v-2.6H36v2.6H33.7z M33.7,115.9v-13.5H36v13.5H33.7z"/>
			<path d="M39.4,115.9v-13.5h2.1v2c1-1.5,2.5-2.3,4.3-2.3c0.8,0,1.6,0.2,2.3,0.5c0.7,0.3,1.1,0.7,1.5,1.1c0.3,0.5,0.7,1,0.7,1.6
				c0.2,0.5,0.2,1.1,0.2,2.3v8.4h-2.3v-8.2c0-1-0.2-1.6-0.3-2.1s-0.5-0.8-1-1.1c-0.5-0.3-1-0.5-1.6-0.5c-1,0-1.8,0.3-2.5,1
				s-1,1.8-1,3.4v7.4C41.7,115.9,39.4,115.9,39.4,115.9z"/>
			<path d="M63.2,111.6l2.3,0.3c-0.3,1.3-1,2.5-2.1,3.3c-1,0.8-2.3,1.1-3.9,1.1c-2,0-3.6-0.7-4.8-1.8c-1.1-1.1-1.8-3-1.8-5.1
				c0-2.3,0.7-4.1,1.8-5.3c1.1-1.3,2.6-1.8,4.6-1.8c1.8,0,3.3,0.7,4.4,1.8c1.1,1.1,1.6,3,1.6,5.3c0,0.2,0,0.3,0,0.7h-10
				c0.2,1.5,0.5,2.6,1.3,3.4c0.8,0.8,1.6,1.1,2.8,1.1c0.8,0,1.5-0.2,2.1-0.7C62.4,113.2,62.9,112.6,63.2,111.6z M55.7,107.8h7.6
				c-0.2-1.1-0.3-2-0.8-2.6c-0.7-0.8-1.6-1.3-2.8-1.3c-1,0-2,0.3-2.6,1C56.2,105.8,55.8,106.7,55.7,107.8z"/>
			<path d="M67.5,111.9l2.3-0.3c0.2,1,0.5,1.6,1,2.1c0.7,0.5,1.3,0.7,2.5,0.7c1,0,1.8-0.2,2.3-0.7s0.8-1,0.8-1.5s-0.2-1-0.7-1.1
				c-0.3-0.2-1.1-0.5-2.3-0.8c-1.6-0.5-2.8-0.8-3.4-1.1c-0.7-0.3-1.1-0.7-1.5-1.3c-0.3-0.5-0.5-1.1-0.5-1.8s0.2-1.1,0.5-1.6
				c0.3-0.5,0.7-1,1.1-1.3c0.3-0.3,0.8-0.5,1.5-0.7s1.3-0.3,2-0.3c1,0,2,0.2,2.8,0.5c0.8,0.3,1.3,0.7,1.8,1.3
				c0.3,0.5,0.7,1.1,0.8,2.1l-2.3,0.3c-0.2-0.7-0.3-1.3-0.8-1.6c-0.5-0.3-1.1-0.7-2.1-0.7c-1,0-1.8,0.2-2.3,0.5
				c-0.5,0.3-0.7,0.8-0.7,1.1s0.2,0.5,0.3,0.8c0.2,0.3,0.5,0.5,0.8,0.7c0.2,0.2,1,0.3,2,0.7c1.6,0.5,2.8,0.8,3.4,1
				c0.7,0.3,1.1,0.7,1.5,1.1c0.3,0.5,0.5,1.1,0.5,2c0,0.8-0.2,1.5-0.7,2.1c-0.5,0.7-1.1,1.1-2,1.6c-0.8,0.3-1.8,0.5-2.8,0.5
				c-1.8,0-3.1-0.3-3.9-1.1C68.3,114.4,67.8,113.4,67.5,111.9z"/>
			<path d="M90.7,111.6l2.3,0.3c-0.3,1.3-1,2.5-2.1,3.3c-1,0.8-2.3,1.1-3.9,1.1c-2,0-3.6-0.7-4.8-1.8c-1.1-1.1-1.8-3-1.8-5.1
				c0-2.3,0.7-4.1,1.8-5.3c1.1-1.3,2.6-1.8,4.6-1.8c1.8,0,3.3,0.7,4.4,1.8c1.1,1.1,1.6,3,1.6,5.3c0,0.2,0,0.3,0,0.7h-10
				c0.2,1.5,0.5,2.6,1.3,3.4c0.8,0.8,1.6,1.1,2.8,1.1c0.8,0,1.5-0.2,2.1-0.7C89.8,113.2,90.3,112.6,90.7,111.6z M83.3,107.8h7.6
				c-0.2-1.1-0.3-2-0.8-2.6c-0.7-0.8-1.6-1.3-2.8-1.3c-1,0-2,0.3-2.6,1C83.8,105.8,83.3,106.7,83.3,107.8z"/>
		</g>
		<g>
			<path d="M108.9,115.9l-7.2-18.7h2.6l4.8,13.5c0.3,1.1,0.7,2.1,1,3.1c0.3-1,0.7-2,1-3.1l5.1-13.5h2.5l-7.2,18.7H108.9z"/>
		</g>
		<path d="M118.2,109.1c0-2.5,0.7-4.4,2.1-5.6c1.1-1,2.6-1.5,4.3-1.5c1.8,0,3.4,0.7,4.6,1.8c1.1,1.1,1.8,3,1.8,5.1
			c0,1.8-0.3,3.1-0.8,4.1s-1.3,1.8-2.3,2.3c-1,0.5-2.1,0.8-3.3,0.8c-2,0-3.4-0.7-4.6-1.8C118.9,113.2,118.2,111.4,118.2,109.1z
			 M120.7,109.1c0,1.8,0.3,3,1.1,3.9c0.8,0.8,1.6,1.3,2.8,1.3c1.1,0,2.1-0.5,2.8-1.3c0.8-0.8,1.1-2.1,1.1-3.9c0-1.6-0.3-3-1.1-3.8
			c-0.8-0.8-1.6-1.3-2.8-1.3c-1.1,0-2.1,0.5-2.8,1.3C121,106.2,120.7,107.5,120.7,109.1z"/>
		<path d="M142.4,110.9l2.3,0.3c-0.2,1.5-0.8,2.8-1.8,3.6c-1,0.8-2.3,1.3-3.8,1.3c-1.8,0-3.3-0.7-4.4-1.8c-1.1-1.1-1.6-3-1.6-5.3
			c0-1.5,0.2-2.8,0.7-3.8c0.5-1.1,1.1-2,2.1-2.5c1-0.5,2.1-0.8,3.3-0.8c1.5,0,2.6,0.3,3.6,1.1c1,0.8,1.5,1.8,1.8,3.1l-2.3,0.3
			c-0.2-1-0.7-1.6-1.1-2c-0.5-0.5-1.1-0.7-2-0.7c-1.1,0-2.1,0.5-2.8,1.3c-0.7,0.8-1.1,2.1-1.1,3.9c0,1.8,0.3,3.1,1,3.9
			c0.7,0.8,1.6,1.3,2.8,1.3c0.8,0,1.6-0.3,2.3-0.8C141.9,113.1,142.2,112.1,142.4,110.9z"/>
		<path d="M155.5,114.2c-0.8,0.7-1.6,1.1-2.5,1.5c-0.8,0.3-1.6,0.5-2.5,0.5c-1.5,0-2.6-0.3-3.4-1.1c-0.8-0.7-1.1-1.6-1.1-2.8
			c0-0.7,0.2-1.3,0.5-1.8c0.3-0.5,0.7-1,1.1-1.3c0.5-0.3,1-0.7,1.6-0.8c0.5-0.2,1.1-0.2,2-0.3c1.8-0.2,3.3-0.5,4.1-0.8
			c0-0.3,0-0.5,0-0.7c0-1-0.2-1.6-0.7-2c-0.7-0.5-1.5-0.8-2.6-0.8c-1.1,0-1.8,0.2-2.5,0.5c-0.5,0.3-0.8,1-1.1,2l-2.3-0.3
			c0.2-1,0.5-1.8,1-2.3c0.5-0.7,1.1-1,2-1.3c0.8-0.3,2-0.5,3.1-0.5c1.1,0,2.1,0.2,2.8,0.3c0.7,0.3,1.3,0.7,1.6,1
			c0.3,0.5,0.7,1,0.7,1.5c0,0.3,0.2,1.1,0.2,2.1v3.6c0,2.1,0,3.4,0.2,4.1c0.2,0.5,0.3,1.1,0.7,1.6h-2.5
			C155.7,115.5,155.5,114.9,155.5,114.2z M155.2,109.1c-0.8,0.3-2.1,0.7-3.8,0.8c-1,0.2-1.6,0.3-2,0.5c-0.3,0.2-0.7,0.5-0.8,0.8
			s-0.3,0.7-0.3,1.1c0,0.7,0.2,1.1,0.7,1.5c0.5,0.3,1.1,0.7,2,0.7s1.6-0.2,2.3-0.7c0.7-0.3,1.1-1,1.5-1.6c0.2-0.5,0.3-1.3,0.3-2.3
			v-0.8H155.2z"/>
		<path d="M163.2,115.9h-2.1V97.3h2.3v6.6c1-1.1,2.1-1.8,3.8-1.8c0.8,0,1.6,0.2,2.3,0.5c0.8,0.3,1.3,0.8,1.8,1.5
			c0.5,0.7,0.8,1.3,1.1,2.1c0.3,0.8,0.3,1.8,0.3,2.8c0,2.3-0.5,4.1-1.6,5.4c-1.1,1.3-2.5,2-4.1,2s-2.8-0.7-3.8-2
			C163.2,114.4,163.2,115.9,163.2,115.9z M163.2,109.1c0,1.6,0.2,2.8,0.7,3.4c0.7,1.1,1.6,1.8,3,1.8c1,0,1.8-0.5,2.6-1.3
			c0.7-0.8,1.1-2.1,1.1-3.9c0-1.8-0.3-3.1-1-3.9c-0.7-0.8-1.5-1.3-2.5-1.3c-1,0-1.8,0.5-2.6,1.3
			C163.6,106.2,163.2,107.5,163.2,109.1z"/>
		<path d="M184.4,115.9v-2c-1,1.5-2.5,2.3-4.3,2.3c-0.8,0-1.5-0.2-2.3-0.5c-0.7-0.3-1.1-0.7-1.5-1.1c-0.3-0.5-0.5-1-0.7-1.6
			c-0.2-0.5-0.2-1.1-0.2-2.1v-8.4h2.3v7.6c0,1.1,0,2,0.2,2.5c0.2,0.7,0.5,1.1,1,1.5c0.5,0.3,1,0.5,1.8,0.5c0.7,0,1.3-0.2,2-0.5
			c0.7-0.3,1-0.8,1.3-1.5c0.3-0.7,0.3-1.5,0.3-2.6v-7.2h2.3V116h-2.3V115.9z"/>
		<path d="M190,115.9V97.3h2.3V116H190V115.9z"/>
		<path d="M204.6,114.2c-0.8,0.7-1.6,1.1-2.5,1.5c-0.8,0.3-1.6,0.5-2.5,0.5c-1.5,0-2.6-0.3-3.4-1.1c-0.8-0.7-1.1-1.6-1.1-2.8
			c0-0.7,0.2-1.3,0.5-1.8c0.3-0.5,0.7-1,1.1-1.3c0.5-0.3,1-0.7,1.6-0.8c0.5-0.2,1.1-0.2,2-0.3c1.8-0.2,3.3-0.5,4.1-0.8
			c0-0.3,0-0.5,0-0.7c0-1-0.2-1.6-0.7-2c-0.7-0.5-1.5-0.8-2.6-0.8s-1.8,0.2-2.5,0.5c-0.5,0.3-0.8,1-1.1,2l-2.3-0.3
			c0.2-1,0.5-1.8,1-2.3c0.5-0.7,1.1-1,2-1.3c0.8-0.3,2-0.5,3.1-0.5c1.1,0,2.1,0.2,2.8,0.3c0.7,0.3,1.3,0.7,1.6,1
			c0.3,0.5,0.7,1,0.7,1.5c0,0.3,0.2,1.1,0.2,2.1v3.6c0,2.1,0,3.4,0.2,4.1c0.2,0.5,0.3,1.1,0.7,1.6H205
			C205,115.5,204.8,114.9,204.6,114.2z M204.5,109.1c-0.8,0.3-2.1,0.7-3.8,0.8c-1,0.2-1.6,0.3-2,0.5c-0.3,0.2-0.7,0.5-0.8,0.8
			s-0.3,0.7-0.3,1.1c0,0.7,0.2,1.1,0.7,1.5c0.5,0.3,1.1,0.7,2,0.7c0.8,0,1.6-0.2,2.3-0.7c0.7-0.3,1.1-1,1.5-1.6
			c0.2-0.5,0.3-1.3,0.3-2.3v-0.8H204.5z"/>
		<path d="M210.4,115.9v-13.5h2.1v2c0.5-1,1-1.6,1.5-2c0.5-0.3,1-0.5,1.5-0.5c0.8,0,1.5,0.2,2.3,0.7l-0.8,2.1
			c-0.5-0.3-1.1-0.5-1.6-0.5s-1,0.2-1.3,0.5c-0.3,0.3-0.7,0.7-0.8,1.3c-0.3,0.8-0.3,1.6-0.3,2.6v7.1h-2.5V115.9z"/>
		<path d="M218.9,121.1l-0.3-2.1c0.5,0.2,1,0.2,1.3,0.2c0.5,0,1-0.2,1.1-0.3c0.3-0.2,0.5-0.3,0.8-0.7c0.2-0.2,0.3-0.8,0.7-1.6
			c0-0.2,0.2-0.3,0.2-0.5l-5.1-13.5h2.5l2.8,7.9c0.3,1,0.7,2,1,3.1c0.3-1,0.7-2.1,1-3.1l3-7.9h2.3l-5.1,13.8c-0.5,1.5-1,2.5-1.3,3.1
			c-0.3,0.8-0.8,1.3-1.5,1.6c-0.5,0.3-1.1,0.5-1.8,0.5C219.9,121.4,219.4,121.3,218.9,121.1z"/>
		<path d="M252.9,109.5l2.5,0.7c-0.5,2-1.5,3.6-2.8,4.6s-3,1.6-4.9,1.6s-3.6-0.3-4.9-1.1c-1.3-0.8-2.1-2-2.8-3.6
			c-0.7-1.5-1-3.3-1-4.9c0-2,0.3-3.6,1.1-5.1c0.8-1.5,1.8-2.5,3.1-3.3c1.3-0.8,3-1.1,4.6-1.1c1.8,0,3.4,0.5,4.8,1.5s2.1,2.3,2.6,3.9
			l-2.5,0.5c-0.5-1.3-1-2.3-1.8-3c-0.8-0.7-1.8-1-3.1-1c-1.5,0-2.6,0.3-3.6,1c-1,0.7-1.6,1.6-2,2.8c-0.3,1.1-0.7,2.3-0.7,3.6
			c0,1.6,0.2,3,0.7,4.1c0.5,1.1,1.1,2.1,2.1,2.6c1,0.7,2,0.8,3.1,0.8c1.3,0,2.6-0.3,3.4-1.1C251.9,112.1,252.6,110.9,252.9,109.5z"
			/>
		<path d="M257.2,109.1c0-2.5,0.7-4.4,2.1-5.6c1.1-1,2.6-1.5,4.3-1.5c1.8,0,3.4,0.7,4.6,1.8c1.1,1.1,1.8,3,1.8,5.1
			c0,1.8-0.3,3.1-0.8,4.1c-0.5,1-1.3,1.8-2.3,2.3c-1,0.5-2.1,0.8-3.3,0.8c-2,0-3.4-0.7-4.6-1.8C257.8,113.2,257.2,111.4,257.2,109.1
			z M259.6,109.1c0,1.8,0.3,3,1.1,3.9c0.8,0.8,1.6,1.3,2.8,1.3s2.1-0.5,2.8-1.3c0.8-0.8,1.1-2.1,1.1-3.9c0-1.6-0.3-3-1.1-3.8
			c-0.8-0.8-1.6-1.3-2.8-1.3s-2.1,0.5-2.8,1.3C260,106.2,259.6,107.5,259.6,109.1z"/>
		<path d="M272.6,115.9v-13.5h2v2c0.5-0.7,1-1.1,1.6-1.6c0.7-0.3,1.5-0.7,2.5-0.7s1.8,0.2,2.5,0.7s1.1,1,1.3,1.8
			c1.1-1.6,2.5-2.3,4.1-2.3c1.3,0,2.3,0.3,3.1,1.1c0.7,0.8,1.1,1.8,1.1,3.4v9.2h-2.3v-8.5c0-1,0-1.6-0.2-2c-0.2-0.3-0.5-0.7-0.8-1
			c-0.3-0.2-0.8-0.3-1.3-0.3c-1,0-1.8,0.3-2.3,1c-0.7,0.7-1,1.6-1,3v7.9h-2.3v-8.7c0-1-0.2-1.8-0.5-2.3c-0.3-0.5-1-0.8-1.8-0.8
			c-0.7,0-1.3,0.2-1.8,0.5c-0.5,0.3-1,0.8-1.1,1.5c-0.2,0.7-0.3,1.6-0.3,2.8v7.1h-2.5V115.9z"/>
		<path d="M294.3,121.1v-18.7h2.1v1.8c0.5-0.7,1-1.1,1.6-1.5c0.7-0.3,1.3-0.5,2.3-0.5c1.1,0,2.1,0.3,3.1,0.8c0.8,0.7,1.5,1.5,2,2.5
			c0.5,1.1,0.7,2.3,0.7,3.6c0,1.3-0.3,2.6-0.8,3.8c-0.5,1.1-1.1,2-2.1,2.5c-1,0.7-2,0.8-3,0.8c-0.8,0-1.5-0.2-2.1-0.5
			c-0.7-0.3-1.1-0.7-1.5-1.1v6.6C296.6,121.1,294.3,121.1,294.3,121.1z M296.3,109.3c0,1.8,0.3,3,1,3.8c0.7,0.8,1.5,1.3,2.6,1.3
			c1,0,1.8-0.5,2.6-1.3c0.7-0.8,1.1-2.1,1.1-3.9c0-1.6-0.3-3-1-3.9s-1.5-1.3-2.5-1.3s-1.8,0.5-2.6,1.3
			C296.8,106.2,296.3,107.5,296.3,109.3z"/>
		<path d="M308.8,115.9v-13.5h2.1v2c0.5-1,1-1.6,1.5-2c0.5-0.3,1-0.5,1.5-0.5c0.8,0,1.5,0.2,2.3,0.7l-0.8,2.1
			c-0.5-0.3-1.1-0.5-1.6-0.5c-0.5,0-1,0.2-1.3,0.5c-0.3,0.3-0.7,0.7-0.8,1.3c-0.3,0.8-0.3,1.6-0.3,2.6v7.1h-2.5V115.9z"/>
		<path d="M326.7,111.6l2.3,0.3c-0.3,1.3-1,2.5-2.1,3.3c-1,0.8-2.3,1.1-3.9,1.1c-2,0-3.6-0.7-4.8-1.8c-1.1-1.1-1.8-3-1.8-5.1
			c0-2.3,0.7-4.1,1.8-5.3c1.1-1.3,2.6-1.8,4.6-1.8c1.8,0,3.3,0.7,4.4,1.8c1.1,1.1,1.6,3,1.6,5.3c0,0.2,0,0.3,0,0.7h-10
			c0.2,1.5,0.5,2.6,1.3,3.4c0.8,0.8,1.6,1.1,2.8,1.1c0.8,0,1.5-0.2,2.1-0.7C325.8,113.2,326.3,112.6,326.7,111.6z M319.1,107.8h7.6
			c-0.2-1.1-0.3-2-0.8-2.6c-0.7-0.8-1.6-1.3-2.8-1.3c-1,0-2,0.3-2.6,1C319.6,105.8,319.3,106.7,319.1,107.8z"/>
		<path d="M331.9,115.9V97.3h2.3v6.7c1-1.3,2.5-1.8,4.1-1.8c1,0,1.8,0.2,2.6,0.7c0.7,0.3,1.3,1,1.6,1.6c0.3,0.7,0.5,1.6,0.5,3v8.5
			h-2.3v-8.5c0-1.1-0.3-2-0.8-2.5c-0.5-0.5-1.1-0.8-2.1-0.8c-0.7,0-1.3,0.2-2,0.5c-0.7,0.3-1,0.8-1.3,1.5c-0.3,0.7-0.3,1.5-0.3,2.5
			v7.4h-2.3V115.9z"/>
		<path d="M355.6,111.6l2.5,0.3c-0.3,1.3-1,2.5-2.1,3.3c-1,0.8-2.3,1.1-3.9,1.1c-2,0-3.6-0.7-4.8-1.8c-1.1-1.1-1.8-3-1.8-5.1
			c0-2.3,0.7-4.1,1.8-5.3c1.1-1.3,2.6-1.8,4.6-1.8c1.8,0,3.3,0.7,4.4,1.8c1.1,1.1,1.6,3,1.6,5.3c0,0.2,0,0.3,0,0.7h-10
			c0.2,1.5,0.5,2.6,1.3,3.4c0.8,0.8,1.6,1.1,2.8,1.1c0.8,0,1.5-0.2,2.1-0.7C354.7,113.2,355.2,112.6,355.6,111.6z M348.2,107.8h7.6
			c-0.2-1.1-0.3-2-0.8-2.6c-0.7-0.8-1.6-1.3-2.8-1.3c-1,0-2,0.3-2.6,1C348.5,105.8,348.2,106.7,348.2,107.8z"/>
		<path d="M360.8,115.9v-13.5h2.1v2c1-1.5,2.5-2.3,4.3-2.3c0.8,0,1.6,0.2,2.3,0.5c0.7,0.3,1.1,0.7,1.5,1.1c0.3,0.5,0.7,1,0.7,1.6
			c0.2,0.5,0.2,1.1,0.2,2.3v8.4h-2.3v-8.2c0-1-0.2-1.6-0.3-2.1s-0.5-0.8-1-1.1c-0.5-0.3-1-0.5-1.6-0.5c-1,0-1.8,0.3-2.5,1
			c-0.7,0.7-1,1.8-1,3.4v7.4C363.1,115.9,360.8,115.9,360.8,115.9z"/>
		<path d="M374.4,111.9l2.3-0.3c0.2,1,0.5,1.6,1,2.1c0.7,0.5,1.3,0.7,2.5,0.7c1,0,1.8-0.2,2.3-0.7c0.5-0.5,0.8-1,0.8-1.5
			s-0.2-1-0.7-1.1c-0.3-0.2-1.1-0.5-2.3-0.8c-1.6-0.5-2.8-0.8-3.4-1.1c-0.7-0.3-1.1-0.7-1.5-1.3c-0.3-0.5-0.5-1.1-0.5-1.8
			s0.2-1.1,0.5-1.6c0.3-0.5,0.7-1,1.1-1.3c0.3-0.3,0.8-0.5,1.5-0.7c0.7-0.2,1.3-0.3,2-0.3c1,0,2,0.2,2.8,0.5
			c0.8,0.3,1.3,0.7,1.8,1.3c0.3,0.5,0.7,1.1,0.8,2.1l-2.3,0.3c-0.2-0.7-0.3-1.3-0.8-1.6c-0.5-0.3-1.1-0.7-2.1-0.7s-1.8,0.2-2.3,0.5
			c-0.5,0.3-0.7,0.8-0.7,1.1s0.2,0.5,0.3,0.8c0.2,0.3,0.5,0.5,0.8,0.7c0.2,0.2,0.8,0.3,2,0.7c1.6,0.5,2.8,0.8,3.4,1
			c0.7,0.3,1.1,0.7,1.5,1.1c0.3,0.5,0.5,1.1,0.5,2c0,0.8-0.2,1.5-0.7,2.1c-0.5,0.7-1.1,1.1-2,1.6c-0.8,0.3-1.8,0.5-2.8,0.5
			c-1.8,0-3.1-0.3-3.9-1.1C375.3,114.4,374.6,113.4,374.4,111.9z"/>
		<path d="M388.4,99.9v-2.6h2.3v2.6H388.4z M388.4,115.9v-13.5h2.3v13.5H388.4z"/>
		<path d="M393.3,109.1c0-2.5,0.7-4.4,2.1-5.6c1.1-1,2.6-1.5,4.3-1.5c1.8,0,3.4,0.7,4.6,1.8c1.1,1.1,1.8,3,1.8,5.1
			c0,1.8-0.3,3.1-0.8,4.1c-0.5,1-1.3,1.8-2.3,2.3c-1,0.5-2.1,0.8-3.3,0.8c-2,0-3.4-0.7-4.6-1.8C393.8,113.2,393.3,111.4,393.3,109.1
			z M395.6,109.1c0,1.8,0.3,3,1.1,3.9c0.8,0.8,1.6,1.3,2.8,1.3s2.1-0.5,2.8-1.3c0.8-0.8,1.1-2.1,1.1-3.9c0-1.6-0.3-3-1.1-3.8
			c-0.8-0.8-1.6-1.3-2.8-1.3s-2.1,0.5-2.8,1.3C396,106.2,395.6,107.5,395.6,109.1z"/>
		<path d="M408.6,115.9v-13.5h2.1v2c1-1.5,2.5-2.3,4.3-2.3c0.8,0,1.6,0.2,2.3,0.5c0.7,0.3,1.1,0.7,1.5,1.1c0.3,0.5,0.7,1,0.7,1.6
			c0.2,0.5,0.2,1.1,0.2,2.3v8.4h-2.3v-8.2c0-1-0.2-1.6-0.3-2.1c-0.2-0.5-0.5-0.8-1-1.1c-0.5-0.3-1-0.5-1.6-0.5c-1,0-1.8,0.3-2.5,1
			c-0.7,0.7-1,1.8-1,3.4v7.4C410.9,115.9,408.6,115.9,408.6,115.9z"/>
		<path d="M429.8,109.9l2.3-0.2c0.2,1,0.3,1.6,0.8,2.3c0.3,0.7,1,1.1,1.8,1.5c0.8,0.3,1.8,0.5,2.8,0.5c1,0,1.8-0.2,2.5-0.5
			c0.7-0.3,1.3-0.7,1.6-1.1c0.3-0.5,0.5-1,0.5-1.6s-0.2-1.1-0.5-1.5c-0.3-0.5-0.8-0.8-1.6-1.1c-0.5-0.2-1.6-0.5-3.3-1
			c-1.6-0.5-3-0.8-3.6-1.1c-0.8-0.5-1.5-1-2-1.8c-0.5-0.7-0.7-1.5-0.7-2.3c0-1,0.3-1.8,0.8-2.6c0.5-0.8,1.3-1.5,2.3-1.8
			c1-0.5,2.1-0.7,3.4-0.7c1.3,0,2.6,0.2,3.6,0.7c1,0.5,1.8,1.1,2.5,2c0.5,0.8,0.8,1.8,1,3l-2.3,0.2c-0.2-1.1-0.5-2.1-1.3-2.6
			c-0.7-0.7-1.8-1-3.3-1c-1.5,0-2.6,0.3-3.3,0.8c-0.7,0.5-1,1.1-1,2c0,0.7,0.2,1.1,0.7,1.6c0.5,0.5,1.6,0.8,3.8,1.3
			c2,0.5,3.4,0.8,4.1,1.1c1.1,0.5,1.8,1.1,2.5,2c0.5,0.8,0.8,1.6,0.8,2.6s-0.3,2-0.8,2.8c-0.5,0.8-1.3,1.5-2.5,2
			c-1,0.5-2.3,0.7-3.6,0.7c-1.6,0-3.1-0.3-4.3-0.7c-1.1-0.5-2-1.1-2.6-2.3C430.1,112.2,429.8,111.3,429.8,109.9z"/>
		<path d="M456.6,110.9l2.3,0.3c-0.3,1.5-0.8,2.8-2,3.6c-1,0.8-2.3,1.3-3.8,1.3c-1.8,0-3.3-0.7-4.4-1.8c-1.1-1.1-1.6-3-1.6-5.3
			c0-1.5,0.2-2.8,0.7-3.8c0.5-1.1,1.1-2,2.1-2.5c1-0.5,2.1-0.8,3.3-0.8c1.5,0,2.6,0.3,3.6,1.1c1,0.8,1.5,1.8,1.8,3.1l-2.3,0.3
			c-0.2-1-0.7-1.6-1.1-2c-0.5-0.5-1.1-0.7-2-0.7c-1.1,0-2.1,0.5-2.8,1.3c-0.7,0.8-1.1,2.1-1.1,3.9c0,1.8,0.3,3.1,1,3.9
			c0.7,0.8,1.6,1.3,2.8,1.3c0.8,0,1.6-0.3,2.3-0.8C456.1,113.1,456.4,112.1,456.6,110.9z"/>
		<path d="M469.5,114.2c-0.8,0.7-1.6,1.1-2.5,1.5c-0.8,0.3-1.6,0.5-2.5,0.5c-1.5,0-2.6-0.3-3.4-1.1c-0.8-0.7-1.1-1.6-1.1-2.8
			c0-0.7,0.2-1.3,0.5-1.8c0.3-0.5,0.7-1,1.1-1.3c0.5-0.3,1-0.7,1.6-0.8c0.5-0.2,1.1-0.2,2-0.3c1.8-0.2,3.3-0.5,4.1-0.8
			c0-0.3,0-0.5,0-0.7c0-1-0.2-1.6-0.7-2c-0.7-0.5-1.5-0.8-2.6-0.8s-1.8,0.2-2.5,0.5c-0.7,0.3-0.8,1-1.1,2l-2.3-0.3
			c0.2-1,0.5-1.8,1-2.3c0.5-0.7,1.1-1,2-1.3c0.8-0.3,2-0.5,3.1-0.5c1.1,0,2.1,0.2,2.8,0.3c0.7,0.3,1.3,0.7,1.6,1
			c0.3,0.5,0.7,1,0.7,1.5c0,0.3,0.2,1.1,0.2,2.1v3.6c0,2.1,0,3.4,0.2,4.1c0.2,0.5,0.3,1.1,0.7,1.6h-2.5
			C469.7,115.5,469.7,114.9,469.5,114.2z M469.4,109.1c-0.8,0.3-2.1,0.7-3.8,0.8c-1,0.2-1.6,0.3-2,0.5c-0.3,0.2-0.7,0.5-0.8,0.8
			s-0.3,0.7-0.3,1.1c0,0.7,0.2,1.1,0.7,1.5c0.5,0.3,1.1,0.7,2,0.7s1.6-0.2,2.3-0.7c0.7-0.3,1.1-1,1.5-1.6c0.2-0.5,0.3-1.3,0.3-2.3
			v-0.8H469.4z"/>
		<path d="M475.1,115.9V97.3h2.3V116h-2.3V115.9z"/>
		<path d="M490.2,111.6l2.5,0.3c-0.3,1.3-1,2.5-2.1,3.3c-1,0.8-2.3,1.1-3.9,1.1c-2,0-3.6-0.7-4.8-1.8c-1.1-1.1-1.8-3-1.8-5.1
			c0-2.3,0.7-4.1,1.8-5.3c1.1-1.3,2.6-1.8,4.6-1.8c1.8,0,3.3,0.7,4.4,1.8c1.1,1.1,1.6,3,1.6,5.3c0,0.2,0,0.3,0,0.7h-10
			c0.2,1.5,0.5,2.6,1.3,3.4s1.6,1.1,2.8,1.1c0.8,0,1.5-0.2,2.1-0.7C489.4,113.2,489.9,112.6,490.2,111.6z M482.7,107.8h7.6
			c-0.2-1.1-0.3-2-0.8-2.6c-0.7-0.8-1.6-1.3-2.8-1.3c-1,0-2,0.3-2.6,1C483.2,105.8,482.8,106.7,482.7,107.8z"/>
	</g>
</g>
</svg>
