<?xml version="1.0" encoding="utf-8"?>
<!-- Generator: Adobe Illustrator 26.3.1, SVG Export Plug-In . SVG Version: 6.00 Build 0)  -->
<svg version="1.1" id="圖層_1" xmlns="http://www.w3.org/2000/svg" xmlns:xlink="http://www.w3.org/1999/xlink" x="0px" y="0px"
	 viewBox="0 0 365 189" style="enable-background:new 0 0 365 189;" xml:space="preserve">
<style type="text/css">
	.st0{fill:#EC7563;}
	.st1{fill:#DFC44A;}
	.st2{fill:#595757;}
	.st3{fill:#FFFFFF;}
	.st4{fill:#EA9684;}
	.st5{fill:#EFB792;}
	.st6{opacity:0.25;fill:#DFC44A;enable-background:new    ;}
</style>
<g>
	<g>
		<g>
			<g>
				<g>
					<g>
						<g>
							<path class="st0" d="M0,158l4.8-0.3c0.1,1.5,0.3,2.6,0.8,3.1c0.7,0.9,2.1,1.3,4.1,1.3c1.7,0,2.9-0.3,3.6-0.9
								c0.7-0.6,1.1-1.3,1.1-2.1c0-0.7-0.3-1.3-0.9-1.8c-0.4-0.4-1.6-1-3.5-1.8c-1.9-0.8-3.3-1.5-4.2-2.1c-0.9-0.6-1.6-1.3-2.1-2.2
								S3,149.4,3,148.2c0-2.1,0.7-3.8,2.2-5.1c1.5-1.4,3.7-2,6.5-2c2.9,0,5.1,0.7,6.7,2c1.6,1.3,2.5,3.1,2.6,5.4l-4.8,0.2
								c-0.1-1.2-0.6-2.1-1.3-2.7c-0.7-0.6-1.8-0.9-3.2-0.9c-1.4,0-2.4,0.2-3,0.7c-0.6,0.5-0.9,1.1-0.9,1.9c0,0.7,0.3,1.3,0.8,1.7
								c0.5,0.5,1.8,1.1,3.6,1.9c2.8,1.2,4.6,2.2,5.4,3c1.2,1.1,1.7,2.6,1.7,4.3c0,2.2-0.9,4-2.6,5.5c-1.7,1.5-4.1,2.3-7.2,2.3
								c-2.1,0-3.9-0.4-5.5-1.1c-1.5-0.7-2.6-1.7-3.3-2.9C0.3,161.1,0,159.7,0,158z"/>
						</g>
						<path class="st1" d="M25.6,148.2h4.5l-0.4,2.1c1.8-1.7,3.6-2.6,5.6-2.6c1.3,0,2.4,0.3,3.1,0.8c0.7,0.6,1.2,1.3,1.4,2.3
							c0.6-0.9,1.5-1.6,2.6-2.2c1.1-0.6,2.3-0.9,3.6-0.9c1.4,0,2.5,0.4,3.3,1.1s1.2,1.8,1.2,3c0,0.6-0.2,1.7-0.5,3.2l-2.3,10.8h-4.8
							l2.3-10.8c0.3-1.4,0.4-2.1,0.5-2.3c0-0.5-0.1-0.9-0.4-1.2c-0.3-0.3-0.7-0.4-1.3-0.4c-1.2,0-2.3,0.6-3.2,1.9
							c-0.7,0.9-1.3,2.5-1.8,4.8l-1.7,8h-4.8l2.2-10.7c0.3-1.2,0.4-2,0.4-2.4c0-0.5-0.2-0.9-0.5-1.2c-0.3-0.3-0.8-0.5-1.3-0.5
							c-0.5,0-1.1,0.2-1.6,0.5c-0.6,0.3-1.1,0.7-1.5,1.3c-0.4,0.5-0.8,1.2-1.1,2.1c-0.1,0.4-0.4,1.3-0.7,2.7l-1.7,8.1h-4.8
							L25.6,148.2z"/>
						<path class="st1" d="M59.3,153.2l-4.7-0.4c0.5-1.6,1.5-2.8,2.8-3.7c1.3-0.9,3.1-1.3,5.2-1.3c2.3,0,3.9,0.5,5,1.4
							c1.1,0.9,1.6,2,1.6,3.4c0,0.5,0,1.1-0.1,1.7c-0.1,0.6-0.4,2.2-1,4.7c-0.5,2.1-0.7,3.6-0.7,4.4c0,0.8,0.1,1.6,0.4,2.5h-4.6
							c-0.2-0.6-0.4-1.3-0.4-2c-0.7,0.8-1.5,1.4-2.4,1.8c-0.9,0.4-1.8,0.6-2.7,0.6c-1.5,0-2.7-0.5-3.6-1.4c-1-1-1.4-2.2-1.4-3.7
							c0-1.7,0.5-3.1,1.6-4.1c1-1,2.9-1.6,5.6-1.8c2.3-0.2,3.8-0.4,4.6-0.7c0.2-0.7,0.3-1.2,0.3-1.6c0-0.5-0.2-0.9-0.6-1.3
							c-0.4-0.3-1-0.5-1.8-0.5c-0.8,0-1.5,0.2-2,0.5C59.8,152,59.5,152.5,59.3,153.2z M63.8,157.6c-0.3,0.1-0.7,0.2-1.2,0.2
							c-2.4,0.3-4,0.7-4.7,1.3c-0.5,0.4-0.8,1-0.8,1.6c0,0.6,0.2,1,0.6,1.4c0.4,0.4,0.9,0.6,1.6,0.6c0.7,0,1.4-0.2,2-0.5
							c0.6-0.4,1.1-0.8,1.4-1.4c0.3-0.6,0.6-1.4,0.8-2.6L63.8,157.6z"/>
						<path class="st1" d="M74.9,148.2h4.5l-0.7,3.4c1.7-2.5,3.5-3.8,5.4-3.8c0.7,0,1.4,0.2,2.2,0.5l-1.8,3.9
							c-0.4-0.2-0.9-0.2-1.4-0.2c-0.8,0-1.7,0.3-2.5,0.9c-0.9,0.6-1.5,1.5-2,2.5c-0.5,1-1,2.7-1.4,5l-1.1,5.6h-4.8L74.9,148.2z"/>
						<path class="st1" d="M86,151.7l0.7-3.6h2.4l0.6-2.8l5.5-3.3l-1.3,6.1h2.8l-0.7,3.6h-2.8l-1.6,7.5c-0.3,1.3-0.4,2.1-0.4,2.3
							c0,0.4,0.1,0.7,0.3,0.9c0.2,0.2,0.6,0.3,1.2,0.3c0.2,0,0.7,0,1.5-0.1l-0.8,3.5c-0.8,0.2-1.7,0.3-2.5,0.3c-1.7,0-2.9-0.3-3.7-1
							c-0.8-0.7-1.1-1.6-1.1-2.7c0-0.5,0.2-1.8,0.7-3.8l1.5-7.1H86L86,151.7z"/>
						<g>
							<path class="st0" d="M101.3,165.9h-5.1l5.1-24.5h10.9c1.9,0,3.3,0.2,4.4,0.6c1,0.4,1.9,1.1,2.5,2.1c0.6,1,1,2.3,1,3.7
								c0,2.1-0.6,3.8-1.9,5.1c-1.2,1.4-3.1,2.2-5.7,2.5c0.6,0.6,1.3,1.3,1.8,2.3c1.1,1.9,2.4,4.6,3.8,8.1h-5.4
								c-0.4-1.4-1.3-3.5-2.5-6.5c-0.7-1.6-1.4-2.6-2.2-3.2c-0.5-0.3-1.3-0.5-2.5-0.5h-2L101.3,165.9z M104.2,152.1h2.7
								c2.7,0,4.5-0.2,5.4-0.5c0.9-0.3,1.6-0.8,2.1-1.5c0.5-0.7,0.8-1.4,0.8-2.2c0-0.9-0.4-1.5-1.1-2c-0.4-0.3-1.4-0.4-2.9-0.4h-5.5
								L104.2,152.1z"/>
						</g>
						<path class="st1" d="M138.1,158.5h-12c0,0.2,0,0.3,0,0.4c0,1.2,0.3,2.1,1,2.9c0.7,0.7,1.5,1.1,2.5,1.1c1.6,0,2.8-0.8,3.7-2.5
							l4.3,0.7c-0.8,1.7-1.9,3-3.3,3.9c-1.4,0.9-3,1.3-4.7,1.3c-2.4,0-4.3-0.8-5.8-2.3c-1.5-1.5-2.2-3.5-2.2-6c0-2.4,0.7-4.6,2-6.5
							c1.8-2.6,4.4-3.9,7.8-3.9c2.2,0,3.9,0.7,5.2,2c1.3,1.3,1.9,3.2,1.9,5.6C138.4,156.6,138.3,157.6,138.1,158.5z M134.1,155.6
							c0-0.2,0-0.4,0-0.5c0-1.3-0.3-2.3-0.9-3c-0.6-0.7-1.4-1-2.4-1c-1,0-1.9,0.4-2.7,1.1c-0.8,0.8-1.3,1.9-1.6,3.3
							C126.6,155.6,134.1,155.6,134.1,155.6z"/>
						<path class="st1" d="M146.7,153.2l-4.7-0.4c0.5-1.6,1.5-2.8,2.8-3.7c1.3-0.9,3.1-1.3,5.3-1.3c2.3,0,3.9,0.5,5,1.4
							c1.1,0.9,1.6,2,1.6,3.4c0,0.5,0,1.1-0.1,1.7c-0.1,0.6-0.4,2.2-1,4.7c-0.5,2.1-0.7,3.6-0.7,4.4c0,0.8,0.1,1.6,0.4,2.5h-4.6
							c-0.2-0.6-0.4-1.3-0.4-2c-0.7,0.8-1.5,1.4-2.4,1.8c-0.9,0.4-1.8,0.6-2.7,0.6c-1.5,0-2.7-0.5-3.6-1.4c-1-1-1.4-2.2-1.4-3.7
							c0-1.7,0.5-3.1,1.6-4.1c1-1,2.9-1.6,5.6-1.8c2.3-0.2,3.8-0.4,4.6-0.7c0.2-0.7,0.3-1.2,0.3-1.6c0-0.5-0.2-0.9-0.6-1.3
							c-0.4-0.3-1-0.5-1.8-0.5c-0.8,0-1.5,0.2-2,0.5C147.2,152,146.9,152.5,146.7,153.2z M151.2,157.6c-0.3,0.1-0.7,0.2-1.2,0.2
							c-2.4,0.3-4,0.7-4.7,1.3c-0.5,0.4-0.8,1-0.8,1.6c0,0.6,0.2,1,0.6,1.4c0.4,0.4,0.9,0.6,1.6,0.6c0.7,0,1.4-0.2,2-0.5
							c0.6-0.4,1.1-0.8,1.4-1.4c0.3-0.6,0.6-1.4,0.8-2.6L151.2,157.6z"/>
						<path class="st1" d="M175.3,165.9h-4.5l0.4-1.9c-0.9,0.8-1.7,1.4-2.6,1.8c-0.8,0.4-1.8,0.5-2.8,0.5c-1.8,0-3.3-0.6-4.5-1.9
							c-1.1-1.3-1.7-3.1-1.7-5.6c0-2.8,0.8-5.4,2.4-7.7c1.6-2.3,3.8-3.4,6.5-3.4c2.4,0,4.2,1,5.4,2.9l2-9.2h4.8L175.3,165.9z
							 M164.2,158.7c0,1.3,0.3,2.3,1,3c0.6,0.7,1.4,1.1,2.4,1.1c0.9,0,1.7-0.3,2.5-0.9c0.8-0.6,1.4-1.5,1.8-2.7
							c0.5-1.2,0.7-2.4,0.7-3.5c0-1.3-0.3-2.3-1-3.1c-0.7-0.8-1.5-1.2-2.4-1.2c-1.4,0-2.6,0.8-3.5,2.3
							C164.6,155.2,164.2,156.9,164.2,158.7z"/>
						<path class="st1" d="M183.5,148.2h4.8l-3.7,17.8h-4.8L183.5,148.2z M184.9,141.5h4.8l-0.9,4.3H184L184.9,141.5z"/>
						<path class="st1" d="M193,148.2h4.5l-0.5,2.3c1.1-1,2.2-1.7,3.2-2.1c1-0.4,2-0.6,3.2-0.6c1.5,0,2.6,0.4,3.5,1.3
							c0.9,0.8,1.3,2,1.3,3.4c0,0.6-0.2,1.8-0.6,3.5l-2.2,10h-4.8l2.2-10c0.3-1.5,0.5-2.4,0.5-2.7c0-0.6-0.2-1.1-0.6-1.5
							c-0.4-0.4-0.9-0.5-1.5-0.5c-0.7,0-1.5,0.3-2.4,0.9c-0.9,0.6-1.6,1.4-2.1,2.3c-0.4,0.7-0.8,2.1-1.3,4.2l-1.5,7.3h-4.8
							L193,148.2z"/>
						<path class="st1" d="M210,166.9l5.1,0.7c0,0.5,0.1,0.9,0.2,1.2c0.2,0.3,0.4,0.5,0.8,0.7c0.4,0.2,0.9,0.3,1.5,0.3
							c1.1,0,1.9-0.2,2.6-0.6c0.5-0.3,0.9-0.8,1.2-1.5c0.2-0.4,0.4-1.4,0.7-2.9l0.2-0.8c-1.7,1.4-3.5,2.1-5.4,2.1
							c-1.7,0-3.1-0.6-4.2-1.8c-1.1-1.2-1.7-3-1.7-5.4c0-2.1,0.4-4,1.1-5.7c0.8-1.7,1.8-3,3.2-3.9c1.4-0.9,2.7-1.3,4.2-1.3
							c1.2,0,2.2,0.3,3.2,0.9c1,0.6,1.7,1.5,2.3,2.6l0.7-3.1h4.5l-2.8,14.7c-0.5,2.4-0.9,4.1-1.3,5.1c-0.4,1-0.8,1.8-1.2,2.4
							c-0.5,0.6-1,1.1-1.7,1.5c-0.7,0.4-1.5,0.7-2.4,0.9c-0.9,0.2-2,0.3-3.1,0.3c-2.5,0-4.4-0.4-5.6-1.3c-1.3-0.9-1.9-2.3-1.9-4.3
							C209.9,167.4,209.9,167.1,210,166.9z M215.6,158.2c0,1.3,0.3,2.4,0.9,3.1c0.6,0.7,1.4,1.1,2.3,1.1c0.8,0,1.7-0.3,2.5-0.9
							c0.8-0.6,1.4-1.5,1.8-2.7c0.4-1.2,0.6-2.3,0.6-3.4c0-1.2-0.3-2.3-1-3c-0.7-0.8-1.5-1.1-2.4-1.1c-0.8,0-1.6,0.3-2.3,1
							c-0.7,0.7-1.3,1.7-1.8,3.1C215.8,156.4,215.6,157.4,215.6,158.2z"/>
					</g>
				</g>
			</g>
		</g>
		<g>
			<path class="st1" d="M235.1,156.3h9.2l-1,4.6h-9.2L235.1,156.3z"/>
			<g>
				<path class="st0" d="M245.5,167.3l5-24.1h17.9l-0.8,4h-12.9l-1.2,5.5H266l-0.8,4h-12.5l-1.5,6.5h14l-0.9,4L245.5,167.3
					L245.5,167.3z"/>
			</g>
			<path class="st1" d="M271.6,149.8h4.5l-0.5,2.3c1.1-1,2.2-1.7,3.1-2.1c1-0.4,2-0.6,3.1-0.6c1.4,0,2.6,0.4,3.4,1.2
				c0.8,0.8,1.2,1.9,1.2,3.3c0,0.6-0.2,1.8-0.5,3.5l-2.1,9.9h-4.7l2.1-9.9c0.3-1.5,0.5-2.4,0.5-2.6c0-0.6-0.2-1.1-0.5-1.4
				c-0.4-0.3-0.9-0.5-1.5-0.5c-0.7,0-1.5,0.3-2.3,0.9c-0.8,0.6-1.5,1.3-2,2.3c-0.4,0.7-0.7,2.1-1.2,4.2l-1.5,7.2H268L271.6,149.8z"
				/>
			<path class="st1" d="M288.2,168.2l5,0.7c0,0.5,0.1,0.9,0.2,1.1c0.2,0.3,0.4,0.5,0.8,0.7c0.4,0.2,0.9,0.3,1.5,0.3
				c1,0,1.8-0.2,2.4-0.6c0.4-0.3,0.8-0.8,1.1-1.5c0.2-0.4,0.4-1.4,0.7-2.8l0.2-0.8c-1.6,1.4-3.3,2-5.1,2c-1.7,0-3.1-0.6-4.2-1.8
				c-1.1-1.2-1.6-3-1.6-5.3c0-2,0.4-3.9,1.1-5.6c0.7-1.7,1.8-3,3.1-3.9c1.3-0.9,2.7-1.3,4.1-1.3c1.2,0,2.2,0.3,3.2,0.9
				c1,0.6,1.7,1.5,2.3,2.6l0.7-3.1h4.4l-3,14.5c-0.5,2.3-0.9,4-1.2,5c-0.3,1-0.7,1.8-1.2,2.4c-0.4,0.6-1,1.1-1.7,1.5
				c-0.7,0.4-1.5,0.7-2.4,0.9c-0.9,0.2-1.9,0.3-3,0.3c-2.5,0-4.3-0.4-5.6-1.3c-1.3-0.8-1.9-2.2-1.9-4.2
				C288.2,168.7,288.2,168.5,288.2,168.2z M293.8,159.8c0,1.3,0.3,2.3,0.9,3c0.6,0.7,1.3,1,2.2,1c0.8,0,1.6-0.3,2.4-0.9
				c0.8-0.6,1.4-1.5,1.8-2.7c0.4-1.2,0.6-2.3,0.6-3.3c0-1.2-0.3-2.2-1-3c-0.7-0.8-1.4-1.1-2.3-1.1c-0.8,0-1.6,0.3-2.3,1
				c-0.7,0.7-1.3,1.7-1.8,3.1C294,158,293.8,158.9,293.8,159.8z"/>
			<path class="st1" d="M309,167.3l5-24.1h4.7l-5,24.1H309z"/>
			<path class="st1" d="M322,149.8h4.7l-3.6,17.5h-4.7L322,149.8z M323.4,143.2h4.7l-0.9,4.3h-4.7L323.4,143.2z"/>
			<path class="st1" d="M327.1,162.4l4.6-0.7c0.4,1,0.9,1.6,1.5,2c0.6,0.4,1.4,0.6,2.5,0.6c1.1,0,1.9-0.2,2.6-0.7
				c0.4-0.3,0.7-0.7,0.7-1.2c0-0.3-0.1-0.6-0.3-0.9c-0.2-0.2-0.9-0.5-2-0.9c-2.8-0.9-4.6-1.7-5.3-2.2c-1.1-0.9-1.6-2-1.6-3.4
				s0.5-2.6,1.5-3.6c1.4-1.4,3.6-2.1,6.4-2.1c2.2,0,3.9,0.4,5.1,1.2c1.2,0.8,1.9,1.9,2.2,3.3l-4.4,0.8c-0.2-0.6-0.6-1.1-1.1-1.4
				c-0.7-0.4-1.5-0.6-2.5-0.6c-1,0-1.7,0.2-2.1,0.5c-0.4,0.3-0.6,0.7-0.6,1.1c0,0.4,0.2,0.8,0.7,1.1c0.3,0.2,1.2,0.5,2.6,0.9
				c2.3,0.7,3.8,1.3,4.6,2c1.1,0.9,1.6,2,1.6,3.3c0,1.7-0.7,3.1-2.1,4.3c-1.4,1.2-3.4,1.8-5.9,1.8c-2.5,0-4.5-0.5-5.8-1.4
				C328.6,165.4,327.6,164.1,327.1,162.4z"/>
			<path class="st1" d="M351.2,167.3h-4.7l5-24.1h4.7l-1.8,8.6c1.1-0.8,2.1-1.4,3-1.8c0.9-0.4,1.9-0.6,3-0.6c1.4,0,2.5,0.4,3.4,1.2
				c0.8,0.8,1.2,1.9,1.2,3.2c0,0.7-0.2,1.8-0.5,3.3l-2.1,10.2h-4.7l2.2-10.4c0.2-1.1,0.3-1.9,0.3-2.2c0-0.6-0.2-1-0.5-1.4
				c-0.4-0.3-0.9-0.5-1.5-0.5c-0.8,0-1.5,0.3-2.3,0.8c-0.9,0.7-1.7,1.6-2.2,2.7c-0.3,0.6-0.6,1.9-1.1,4.1L351.2,167.3z"/>
		</g>
		<g>
			<g>
				<path class="st2" d="M232.2,183.5c0,2.8-2.2,5-5,5c-2.8,0-5-2.2-5-5c0-2.8,2.3-5,5-5C230,178.5,232.2,180.8,232.2,183.5z
					 M227.2,177.7c-3.2,0-5.9,2.6-5.9,5.9c0,3.2,2.6,5.9,5.9,5.9c3.2,0,5.9-2.6,5.9-5.9C233.1,180.3,230.4,177.7,227.2,177.7z"/>
			</g>
			<g>
				<path class="st2" d="M224.6,187v-6.9h3c0.6,0,1.1,0.1,1.4,0.2c0.3,0.1,0.6,0.3,0.8,0.7c0.2,0.3,0.3,0.7,0.3,1
					c0,0.5-0.2,0.9-0.5,1.2c-0.3,0.3-0.8,0.5-1.5,0.6c0.2,0.1,0.4,0.2,0.5,0.3c0.3,0.2,0.5,0.5,0.8,0.9l1.2,1.9h-1.1l-0.9-1.4
					c-0.3-0.4-0.5-0.7-0.7-0.9c-0.2-0.2-0.3-0.4-0.5-0.5c-0.1-0.1-0.3-0.1-0.4-0.2c-0.1,0-0.3,0-0.5,0h-1.1v3L224.6,187L224.6,187z
					 M225.5,183.1h2c0.4,0,0.7,0,1-0.1c0.2-0.1,0.4-0.2,0.5-0.4c0.1-0.2,0.2-0.4,0.2-0.6c0-0.3-0.1-0.6-0.4-0.8
					c-0.2-0.2-0.6-0.3-1.1-0.3h-2.2L225.5,183.1L225.5,183.1z"/>
			</g>
		</g>
	</g>
	<g>
		<polygon class="st3" points="138.9,26.3 148.2,24.5 194.9,6.8 205.3,7.2 205.6,13 215.8,14.9 216,19.5 226.4,22.6 148.2,38.9 		
			"/>
		<path class="st0" d="M226.4,120.1c0,4.9-4,8.9-8.9,8.9h-70.1c-4.9,0-8.9-4-8.9-8.9V38.5c0-4.9,4-1.5,8.9-1.5h70.1
			c4.9,0,8.9-3.4,8.9,1.5L226.4,120.1L226.4,120.1z"/>
		<path class="st0" d="M138.9,26.3l6.9,7.4c0,0,38.4-10.2,80.6-11.2l0,0v21.8h-87.8L138.9,26.3z"/>
		<path class="st0" d="M148.2,24.5l46.7-17.7l-0.3-7.2C194.6-0.4,165.8,16.5,148.2,24.5z"/>
		<path class="st4" d="M153.8,26c0,0,47.8-12.5,51.8-13l-0.3-5.8C205.3,7.2,162.1,23,153.8,26z"/>
		<path class="st5" d="M157.7,28.4c0,0,50.2-9.5,58.3-9l-0.2-4.6C215.8,14.9,163.1,26.2,157.7,28.4z"/>
		<path class="st1" d="M148.2,53.7c-0.3-1.6,1-2.9,1-3.3c0.1-1.3,1.1-2.5,2.2-3.3c2-1.5,3.9-3.1,5.8-4.7c1.3-1.1,2.5-2.7,4.1-2.9
			c0.4,0,0.9,0,1.2-0.2c0.7-0.3,1.2-1.1,1.8-1.5c0.8-0.6,1.3-0.6,2.1-0.8c1.5-0.3,3.1-0.7,4.5-1.2c1.5-0.5,3.1-1,4.7-1.4
			c1.7-0.4,3.5-0.3,5.2-0.3c2.3,0,4.6-0.3,6.9-0.3c1.1,0,2.2,0.1,3.3,0.3c1.9,0.4,3.5,1.6,5.4,2c1.1,0.2,2.2,0.4,3.3,0.6
			c0.6,0.1,1.3,0.2,1.9,0.5c0.7,0.5,1.3,1,2,1.5c1.7,1.2,3,3,4.6,4.3c1.1,0.9,2.5,1.4,3.5,2.3c0.7,0.5,1.2,1.1,2,1.6
			c0.8,0.4,2,0.6,2.7,1.3c0.7,0.7,1.2,1.8,1.7,2.6c0.4,0.6,0.8,1,1.1,1.6c0.3,0.6,0.5,1.2,0.7,1.7c0.5,1,0.9,1.4,0.3,2.2
			c-0.5,0.7-0.2,0.7,0.4,1.7c0.4,0.7,0.4,1.2,0.6,2c0.4,1.1,1.2,2.2,1.5,3.3c0.3,1.1,0.4,2.4,0.6,3.5c0.3,1.8,1,3.6,1,5.4
			c0,0.4,0.1,1,0,1.4c-0.2,0.5-0.8,0.8-1,1.3c-0.5,1-0.9,2.5-1.8,3.2c-0.5,0.4-0.7,0.1-1.4,0c-0.6,0-1,0.2-1.2,0.9
			c-0.2,1.1,0.1,2.4,0,3.6c-0.1,1.5-1,3-2.1,3.8c-0.6,0.4-1.4,0.4-1.9,0.9c-0.6,0.6-1.1,1.4-1.8,1.8c-0.9,0.6-2,1-3,1.4
			c-0.7,0.3-1.4,0.7-2.2,0.8c-0.6,0-1.3-0.2-1.9-0.1c-1.9,0.1-3.2,0.9-5.2,0.4c-0.6-0.1-1.3-0.5-1.8-0.9c-1.1-0.9-0.8-1.7-1-2.8
			c-0.3-1.5-1.2-3.2-2.1-4.4c-1.4-2,0.3-3.6,0.5-5.5c0.2-2.3-1.9-3.5-3-5.2c-0.4-0.6-0.9-1.7-1-2.5c0-0.6,0.7-0.9,0.6-1.5
			c-0.1-1.4-2.1-0.9-2.9-1.3c-0.5-0.2-0.8-1-1.1-1.4c-0.5-0.6-1.1-1.1-1.7-1.6c-0.7-0.5-1.5-0.8-2.3-1.1c-0.5-0.2-1-0.5-1.6-0.3
			c-0.8,0.2-1.8,1.2-2.5,1.7c-0.9,0.6-1.8,1.3-2.7,2.1c-0.6,0.5-1.1,1.1-1.5,1.7c-0.3,0.6-0.4,1.3-0.9,1.8c-1.7,1.3-1-1.3-1.3-2
			c-0.2-0.6-0.8-0.3-1.3-0.7c-0.5-0.4-0.6-1.4-1-1.8c-0.1-0.1-0.1-0.2-0.2-0.3c-0.7,0.1-1.2,1.5-1.6,2.1c-0.4,0.6-0.8,1.2-1.4,1.6
			c-0.5,0.4-1.1,0.5-1.7,0.8c-0.7,0.4-0.8,0.8-1.2,1.4c-0.7,1.1-1.5,0.4-2.5,1c-0.5,0.3-0.5,0.7-1.1,0.9c-0.6,0.2-1.3-0.1-1.9-0.3
			c-1.2-0.3-2.4-0.1-3.7,0.1c-1.7,0.3-2.8,0.4-4.5-0.1c-1.2-0.3-2.4-0.3-3.7-0.3c-2-0.1-2.6-2.2-2.6-4c0-1.1,0-2.2-0.1-3.2
			c-0.1-0.9-0.4-1.7-0.4-2.6c0,0-0.6-1.5,1.4-3.2c2-1.8,0.5-0.3-0.1-1.3C147,57.7,148.6,55.5,148.2,53.7z"/>
		<g>
			<path class="st0" d="M183.9,33.3l-3,0.2l-1.2,0c-1.4,0-2.8,0-4.2,0.3c-1.7,0.4-3.2,0.8-4.7,1.4c-1.3,0.5-2.9,0.9-4.4,1.2l-0.2,0
				c-0.8,0.1-1.4,0.3-2.2,0.8l-0.7,0.7c-0.3,0.3-0.6,0.6-0.9,0.8c0,0-0.6,0.1-0.6,0.1l-0.4,0c-1.4,0.2-2.4,1.2-3.5,2.2l-1,0.9
				l-5.8,4.7c-1.5,1.2-2.3,2.4-2.4,3.7c0-0.1-0.2,0.3-0.2,0.3c-0.3,0.6-0.9,1.5-0.9,2.5c0,0.2,0,0.4,0.1,0.7l0,0c0,0.2,0,0.3,0,0.5
				c0,0.7-0.3,1.6-0.5,2.3c-0.2,0.6-0.4,1.1-0.4,1.5c0,0.2,0,0.4,0.1,0.5c0.1,0.2,0.3,0.3,0.4,0.4c-0.1,0.1-0.2,0.2-0.2,0.2
				c-1.4,1.2-1.7,2.3-1.7,3.1c0,0.3,0,0.5,0.1,0.7c0,0.1,0.2,1.5,0.2,1.5l0.2,1.1c0,0,0.1,3.2,0.1,3.2c0,2.6,1.2,4.4,3.1,4.5l1,0
				c0.9,0,1.7,0.1,2.6,0.3c1.6,0.4,2.8,0.5,4.7,0.1c1.4-0.3,2.4-0.4,3.5-0.1l0.4,0.1c0.5,0.2,1.1,0.4,1.8,0.1
				c0.5-0.2,0.7-0.4,0.9-0.7l0.3-0.3c0.3-0.2,0.6-0.2,0.9-0.2c0.5,0,1.2-0.1,1.8-1l0.2-0.4c0.2-0.4,0.4-0.6,0.8-0.9l0.7-0.3l1-0.6
				c0.6-0.5,1.2-1.2,1.5-1.8l0.3-0.6c0.1-0.3,0.4-0.7,0.6-1c0.1,0.1,0.2,0.4,0.3,0.6c0.2,0.4,0.3,0.8,0.7,1.1
				c0.3,0.3,0.7,0.4,0.9,0.4l0.2,0.1c0,0.1,0,0.3,0,0.5c0,0.1,0,0.4,0,0.4c0,0.7,0,1.4,0.6,1.7c0.5,0.3,1.1-0.1,1.5-0.4
				c0.5-0.4,0.7-0.9,0.8-1.3l0.2-0.6c0.3-0.5,0.8-1.1,1.4-1.6c0,0,2.7-2,2.7-2l0.8-0.6c0.5-0.4,1.1-0.9,1.5-1
				c0.4-0.1,0.8,0.1,1.2,0.3l0.7,0.3c0.5,0.2,1,0.4,1.5,0.8c0.6,0.4,1.1,1,1.6,1.5l0.3,0.4c0.3,0.4,0.6,0.9,1,1.1
				c0.4,0.2,0.8,0.2,1.2,0.2c1,0.1,1.3,0.2,1.3,0.6c0,0,0,0,0,0c0,0.1-0.1,0.2-0.2,0.4c-0.2,0.2-0.4,0.6-0.4,1.1c0,0,0,0,0,0
				c0,0.9,0.7,2.2,1,2.8l1.3,1.6c0.9,1,1.7,1.9,1.7,3.1c0,0.1,0,0.1,0,0.2c0,0.6-0.3,1.1-0.5,1.7c-0.3,0.7-0.5,1.4-0.5,2.2
				c0,0.6,0.2,1.3,0.7,1.9c0.7,1,1.6,2.6,2,4.1l0.1,0.8c0.1,0.7,0.1,1.5,1.1,2.3c0.5,0.4,1.3,0.8,2,1c1.4,0.3,2.5,0.1,3.5-0.1
				c0.6-0.1,1.2-0.2,1.9-0.3l0.8,0.1l1.1,0.1c0.7,0,1.3-0.3,1.8-0.6l0.5-0.2c0,0,0.1-0.1,0.1-0.1c1-0.4,2.1-0.8,3-1.4
				c0.5-0.3,0.9-0.8,1.3-1.2l0.6-0.7c0.2-0.2,0.5-0.3,0.8-0.4l1-0.5c1.3-1,2.3-2.6,2.4-4.2l0-1.6c0-0.7-0.1-1.3,0-1.9
				c0.1-0.3,0.2-0.4,0.6-0.4l0.5,0.1c0.3,0.1,0.7,0.2,1.2-0.2c0.8-0.6,1.3-1.7,1.7-2.7l0.3-0.7l0.4-0.5c0.2-0.2,0.5-0.5,0.6-0.9
				c0.1-0.2,0.1-0.4,0.1-0.7c0-0.2,0-0.4,0-0.6l0-0.3c0-1.2-0.3-2.3-0.6-3.5l-0.4-2l-0.2-1.2c-0.1-0.8-0.2-1.7-0.4-2.4
				c-0.2-0.6-0.5-1.2-0.8-1.7l-0.7-1.5l-0.2-0.7c-0.1-0.4-0.2-0.9-0.5-1.4l-0.3-0.5c0,0-0.2-0.4-0.2-0.4c0,0,0.2-0.2,0.2-0.2
				c0.3-0.4,0.4-0.7,0.4-1.1c0-0.4-0.2-0.9-0.4-1.3l-0.2-0.5l-0.3-0.7l-0.5-1.1l-0.7-1.1l-0.4-0.6l-0.5-0.8
				c-0.4-0.7-0.8-1.3-1.3-1.8c-0.5-0.5-1.3-0.8-1.9-1l-0.9-0.4c-0.5-0.3-1-0.6-1.4-1l-0.5-0.5c-0.5-0.4-1.2-0.8-1.8-1.1
				c-0.6-0.3-1.3-0.7-1.8-1.1c-0.7-0.6-1.3-1.2-1.9-1.9c-0.8-0.9-1.7-1.8-2.8-2.5l-1-0.7l-1.1-0.8c-0.5-0.3-1.1-0.4-1.7-0.5L200,36
				l-2-0.4l-1.3-0.2c-0.9-0.2-1.8-0.6-2.7-1c-0.9-0.4-1.8-0.8-2.8-1c-1.2-0.2-2.3-0.3-3.4-0.3C186.6,33.1,185.2,33.2,183.9,33.3z
				 M181,34.6l3.1-0.2c1.3-0.1,2.6-0.2,3.9-0.2c1,0,2.1,0,3.2,0.3c0.9,0.2,1.7,0.5,2.5,0.9c0.9,0.4,1.9,0.8,2.9,1l1.3,0.2l1.9,0.4
				c0,0,0.5,0.1,0.5,0.1c0.5,0.1,0.9,0.1,1.2,0.4l1,0.7l1,0.7c0.9,0.6,1.7,1.5,2.6,2.4c0.6,0.7,1.3,1.3,2,1.9
				c0.6,0.5,1.3,0.9,1.9,1.2c0.6,0.3,1.2,0.7,1.6,1c0,0,0.5,0.4,0.5,0.4c0.5,0.4,1,0.8,1.6,1.2c0,0,1,0.4,1,0.4
				c0.6,0.2,1.1,0.4,1.5,0.8c0.4,0.4,0.8,1,1.1,1.6l0.5,0.9l0.4,0.6l0.6,1l0.4,1l0.3,0.8l0.2,0.5c0.4,0.7,0.4,0.8,0.1,1.2
				c-0.6,0.8-0.4,1.3,0.1,1.9l0.3,0.5c0.2,0.3,0.3,0.7,0.4,1.1l0.2,0.8l0.8,1.7c0.3,0.5,0.6,1,0.7,1.6c0.2,0.7,0.3,1.5,0.4,2.2
				l0.2,1.2l0.4,2.1c0.3,1.1,0.5,2.2,0.6,3.3l0,0.3c0,0.2,0.1,0.7,0,0.8c-0.1,0.1-0.2,0.3-0.4,0.5l-0.6,0.8l-0.3,0.7
				c-0.4,0.8-0.8,1.8-1.3,2.3c0,0-0.1,0.1-0.1,0.1l-0.2,0l-0.8-0.1c-0.9,0-1.5,0.4-1.7,1.3c-0.2,0.7-0.1,1.5-0.1,2.2l0,1.4
				c-0.1,1.3-0.9,2.6-1.9,3.4L216,86c-0.4,0.1-0.8,0.3-1.2,0.6c0,0-0.7,0.8-0.7,0.8c-0.3,0.4-0.6,0.7-1,1c-0.8,0.5-1.8,0.9-2.8,1.3
				l-0.1,0c0,0-0.6,0.3-0.6,0.3c-0.5,0.2-1,0.4-1.4,0.5l-0.9-0.1l-1-0.1c-0.8,0-1.4,0.2-2.1,0.3c-1,0.2-1.9,0.4-3,0.1
				c-0.5-0.1-1.2-0.4-1.6-0.8c-0.6-0.5-0.6-0.9-0.7-1.5l-0.1-0.9c-0.4-1.7-1.4-3.5-2.2-4.6c-0.8-1-0.4-2,0-3.1
				c0.2-0.6,0.5-1.3,0.5-2.1c0.1-1.8-0.9-3-2-4.1l-1.2-1.4c-0.4-0.6-0.9-1.6-0.9-2.2c0-0.1,0.1-0.2,0.2-0.4c0.2-0.3,0.4-0.6,0.4-1.1
				c-0.1-1.4-1.5-1.5-2.4-1.6c-0.3,0-0.7-0.1-0.9-0.1c-0.2-0.1-0.4-0.4-0.5-0.7l-0.4-0.6c-0.5-0.6-1.1-1.2-1.8-1.7
				c-0.6-0.4-1.1-0.7-1.7-0.9l-0.7-0.3c-0.6-0.3-1.2-0.5-2-0.4c-0.7,0.2-1.4,0.7-2,1.3l-0.7,0.6l-2.7,2.1c-0.7,0.5-1.3,1.2-1.6,1.9
				l-0.3,0.7c-0.1,0.4-0.3,0.7-0.5,0.9c-0.1,0.1-0.2,0.1-0.3,0.2c0-0.2,0-0.4,0-0.6c0-0.1,0-0.3,0-0.4c0-0.4,0-0.7-0.1-0.9
				c-0.2-0.6-0.7-0.7-1-0.8c-0.2,0-0.3-0.1-0.4-0.2c-0.2-0.1-0.3-0.4-0.4-0.7c-0.1-0.4-0.3-0.8-0.7-1.1c0,0,0.1,0.1,0.1,0.1
				l-0.2-0.3c-0.1-0.2-0.4-0.3-0.6-0.3c-0.8,0.2-1.3,1.1-1.7,1.8l-0.3,0.5c-0.3,0.5-0.8,1.1-1.3,1.5l-0.8,0.4l-0.8,0.4
				c-0.6,0.4-0.9,0.8-1.2,1.3L166,71c-0.3,0.4-0.4,0.4-0.9,0.5c-0.4,0-0.9,0.1-1.4,0.4l-0.6,0.5c-0.2,0.2-0.2,0.3-0.4,0.3
				c-0.3,0.1-0.7,0-1.1-0.2l-0.5-0.1c-1.4-0.4-2.7-0.1-4,0.1c-1.8,0.3-2.7,0.3-4.2-0.1c-0.9-0.2-1.9-0.3-2.8-0.3l-1,0
				c-2-0.1-2.1-2.9-2.1-3.4l-0.1-3.3l-0.2-1.2l-0.2-1.3c0,0,0-0.2,0-0.2c0,0-0.4-1.2,1.3-2.6l0.6-0.5c0.5-0.4,0.7-0.6,0.5-1
				c-0.1-0.2-0.3-0.4-0.7-0.3c-0.3,0-0.4,0-0.5-0.1c0-0.1,0.2-0.6,0.3-1c0.4-1,0.8-2.2,0.5-3.4l0,0c-0.2-0.9,0.3-1.8,0.7-2.4
				l0.3-0.8c0.1-1.3,1.2-2.3,2-3l5.8-4.7c0,0,1-0.9,1-0.9c0.9-0.9,1.8-1.7,2.8-1.9l0.4,0l1-0.2c0.5-0.2,0.9-0.7,1.3-1l0.6-0.6
				c0.6-0.4,1-0.5,1.7-0.6l0.2,0c1.6-0.3,3.2-0.7,4.6-1.2c1.5-0.5,3-1,4.6-1.4c1.3-0.3,2.6-0.3,3.9-0.3L181,34.6z"/>
		</g>
		<path class="st6" d="M148.2,53.7c-0.3-1.6,1-2.9,1-3.3c0.1-1.3,1.1-2.5,2.2-3.3c2-1.5,3.9-3.1,5.8-4.7c1.3-1.1,2.5-2.7,4.1-2.9
			c0.4,0,0.9,0,1.2-0.2c0.7-0.3,1.2-1.1,1.8-1.5c0.8-0.6,1.3-0.6,2.1-0.8c1.5-0.3,3.1-0.7,4.5-1.2c1.5-0.5,3.1-1,4.7-1.4
			c1.7-0.4,3.5-0.3,5.2-0.3c2.3,0,4.6-0.3,6.9-0.3c1.1,0,2.2,0.1,3.3,0.3c1.9,0.4,3.5,1.6,5.4,2c1.1,0.2,2.2,0.4,3.3,0.6
			c0.6,0.1,1.3,0.2,1.9,0.5c0.7,0.5,1.3,1,2,1.5c1.7,1.2,3,3,4.6,4.3c1.1,0.9,2.5,1.4,3.5,2.3c0.7,0.5,1.2,1.1,2,1.6
			c0.8,0.4,2,0.6,2.7,1.3c0.7,0.7,1.2,1.8,1.7,2.6c0.4,0.6,0.8,1,1.1,1.6c0.3,0.6,0.5,1.2,0.7,1.7c0.5,1,0.9,1.4,0.3,2.2
			c-0.5,0.7-0.2,0.7,0.4,1.7c0.4,0.7,0.4,1.2,0.6,2c0.4,1.1,1.2,2.2,1.5,3.3c0.3,1.1,0.4,2.4,0.6,3.5c0.3,1.8,1,3.6,1,5.4
			c0,0.4,0.1,1,0,1.4c-0.2,0.5-0.8,0.8-1,1.3c-0.5,1-0.9,2.5-1.8,3.2c-0.5,0.4-0.7,0.1-1.4,0c-0.6,0-1,0.2-1.2,0.9
			c-0.2,1.1,0.1,2.4,0,3.6c-0.1,1.5-1,3-2.1,3.8c-0.6,0.4-1.4,0.4-1.9,0.9c-0.6,0.6-1.1,1.4-1.8,1.8c-0.9,0.6-2,1-3,1.4
			c-0.7,0.3-1.4,0.7-2.2,0.8c-0.6,0-1.3-0.2-1.9-0.1c-1.9,0.1-3.2,0.9-5.2,0.4c-0.6-0.1-1.3-0.5-1.8-0.9c-1.1-0.9-0.8-1.7-1-2.8
			c-0.3-1.5-1.2-3.2-2.1-4.4c-1.4-2,0.3-3.6,0.5-5.5c0.2-2.3-1.9-3.5-3-5.2c-0.4-0.6-0.9-1.7-1-2.5c0-0.6,0.7-0.9,0.6-1.5
			c-0.1-1.4-2.1-0.9-2.9-1.3c-0.5-0.2-0.8-1-1.1-1.4c-0.5-0.6-1.1-1.1-1.7-1.6c-0.7-0.5-1.5-0.8-2.3-1.1c-0.5-0.2-1-0.5-1.6-0.3
			c-0.8,0.2-1.8,1.2-2.5,1.7c-0.9,0.6-1.8,1.3-2.7,2.1c-0.6,0.5-1.1,1.1-1.5,1.7c-0.3,0.6-0.4,1.3-0.9,1.8c-1.7,1.3-1-1.3-1.3-2
			c-0.2-0.6-0.8-0.3-1.3-0.7c-0.5-0.4-0.6-1.4-1-1.8c-0.1-0.1-0.1-0.2-0.2-0.3c-0.7,0.1-1.2,1.5-1.6,2.1c-0.4,0.6-0.8,1.2-1.4,1.6
			c-0.5,0.4-1.1,0.5-1.7,0.8c-0.7,0.4-0.8,0.8-1.2,1.4c-0.7,1.1-1.5,0.4-2.5,1c-0.5,0.3-0.5,0.7-1.1,0.9c-0.6,0.2-1.3-0.1-1.9-0.3
			c-1.2-0.3-2.4-0.1-3.7,0.1c-1.7,0.3-2.8,0.4-4.5-0.1c-1.2-0.3-2.4-0.3-3.7-0.3c-2-0.1-2.6-2.2-2.6-4c0-1.1,0-2.2-0.1-3.2
			c-0.1-0.9-0.4-1.7-0.4-2.6c0,0-0.6-1.5,1.4-3.2c2-1.8,0.5-0.3-0.1-1.3C147,57.7,148.6,55.5,148.2,53.7z"/>
		<g>
			<path class="st0" d="M183.9,33.3l-3,0.2l-1.2,0c-1.4,0-2.8,0-4.2,0.3c-1.7,0.4-3.2,0.8-4.7,1.4c-1.3,0.5-2.9,0.9-4.4,1.2l-0.2,0
				c-0.8,0.1-1.4,0.3-2.2,0.8l-0.7,0.7c-0.3,0.3-0.6,0.6-0.9,0.8c0,0-0.6,0.1-0.6,0.1l-0.4,0c-1.4,0.2-2.4,1.2-3.5,2.2l-1,0.9
				l-5.8,4.7c-1.5,1.2-2.3,2.4-2.4,3.7c0-0.1-0.2,0.3-0.2,0.3c-0.3,0.6-0.9,1.5-0.9,2.5c0,0.2,0,0.4,0.1,0.7l0,0c0,0.2,0,0.3,0,0.5
				c0,0.7-0.3,1.6-0.5,2.3c-0.2,0.6-0.4,1.1-0.4,1.5c0,0.2,0,0.4,0.1,0.5c0.1,0.2,0.3,0.3,0.4,0.4c-0.1,0.1-0.2,0.2-0.2,0.2
				c-1.4,1.2-1.7,2.3-1.7,3.1c0,0.3,0,0.5,0.1,0.7c0,0.1,0.2,1.5,0.2,1.5l0.2,1.1c0,0,0.1,3.2,0.1,3.2c0,2.6,1.2,4.4,3.1,4.5l1,0
				c0.9,0,1.7,0.1,2.6,0.3c1.6,0.4,2.8,0.5,4.7,0.1c1.4-0.3,2.4-0.4,3.5-0.1l0.4,0.1c0.5,0.2,1.1,0.4,1.8,0.1
				c0.5-0.2,0.7-0.4,0.9-0.7l0.3-0.3c0.3-0.2,0.6-0.2,0.9-0.2c0.5,0,1.2-0.1,1.8-1l0.2-0.4c0.2-0.4,0.4-0.6,0.8-0.9l0.7-0.3l1-0.6
				c0.6-0.5,1.2-1.2,1.5-1.8l0.3-0.6c0.1-0.3,0.4-0.7,0.6-1c0.1,0.1,0.2,0.4,0.3,0.6c0.2,0.4,0.3,0.8,0.7,1.1
				c0.3,0.3,0.7,0.4,0.9,0.4l0.2,0.1c0,0.1,0,0.3,0,0.5c0,0.1,0,0.4,0,0.4c0,0.7,0,1.4,0.6,1.7c0.5,0.3,1.1-0.1,1.5-0.4
				c0.5-0.4,0.7-0.9,0.8-1.3l0.2-0.6c0.3-0.5,0.8-1.1,1.4-1.6c0,0,2.7-2,2.7-2l0.8-0.6c0.5-0.4,1.1-0.9,1.5-1
				c0.4-0.1,0.8,0.1,1.2,0.3l0.7,0.3c0.5,0.2,1,0.4,1.5,0.8c0.6,0.4,1.1,1,1.6,1.5l0.3,0.4c0.3,0.4,0.6,0.9,1,1.1
				c0.4,0.2,0.8,0.2,1.2,0.2c1,0.1,1.3,0.2,1.3,0.6c0,0,0,0,0,0c0,0.1-0.1,0.2-0.2,0.4c-0.2,0.2-0.4,0.6-0.4,1.1c0,0,0,0,0,0
				c0,0.9,0.7,2.2,1,2.8l1.3,1.6c0.9,1,1.7,1.9,1.7,3.1c0,0.1,0,0.1,0,0.2c0,0.6-0.3,1.1-0.5,1.7c-0.3,0.7-0.5,1.4-0.5,2.2
				c0,0.6,0.2,1.3,0.7,1.9c0.7,1,1.6,2.6,2,4.1l0.1,0.8c0.1,0.7,0.1,1.5,1.1,2.3c0.5,0.4,1.3,0.8,2,1c1.4,0.3,2.5,0.1,3.5-0.1
				c0.6-0.1,1.2-0.2,1.9-0.3l0.8,0.1l1.1,0.1c0.7,0,1.3-0.3,1.8-0.6l0.5-0.2c0,0,0.1-0.1,0.1-0.1c1-0.4,2.1-0.8,3-1.4
				c0.5-0.3,0.9-0.8,1.3-1.2l0.6-0.7c0.2-0.2,0.5-0.3,0.8-0.4l1-0.5c1.3-1,2.3-2.6,2.4-4.2l0-1.6c0-0.7-0.1-1.3,0-1.9
				c0.1-0.3,0.2-0.4,0.6-0.4l0.5,0.1c0.3,0.1,0.7,0.2,1.2-0.2c0.8-0.6,1.3-1.7,1.7-2.7l0.3-0.7l0.4-0.5c0.2-0.2,0.5-0.5,0.6-0.9
				c0.1-0.2,0.1-0.4,0.1-0.7c0-0.2,0-0.4,0-0.6l0-0.3c0-1.2-0.3-2.3-0.6-3.5l-0.4-2l-0.2-1.2c-0.1-0.8-0.2-1.7-0.4-2.4
				c-0.2-0.6-0.5-1.2-0.8-1.7l-0.7-1.5l-0.2-0.7c-0.1-0.4-0.2-0.9-0.5-1.4l-0.3-0.5c0,0-0.2-0.4-0.2-0.4c0,0,0.2-0.2,0.2-0.2
				c0.3-0.4,0.4-0.7,0.4-1.1c0-0.4-0.2-0.9-0.4-1.3l-0.2-0.5l-0.3-0.7l-0.5-1.1l-0.7-1.1l-0.4-0.6l-0.5-0.8
				c-0.4-0.7-0.8-1.3-1.3-1.8c-0.5-0.5-1.3-0.8-1.9-1l-0.9-0.4c-0.5-0.3-1-0.6-1.4-1l-0.5-0.5c-0.5-0.4-1.2-0.8-1.8-1.1
				c-0.6-0.3-1.3-0.7-1.8-1.1c-0.7-0.6-1.3-1.2-1.9-1.9c-0.8-0.9-1.7-1.8-2.8-2.5l-1-0.7l-1.1-0.8c-0.5-0.3-1.1-0.4-1.7-0.5L200,36
				l-2-0.4l-1.3-0.2c-0.9-0.2-1.8-0.6-2.7-1c-0.9-0.4-1.8-0.8-2.8-1c-1.2-0.2-2.3-0.3-3.4-0.3C186.6,33.1,185.2,33.2,183.9,33.3z
				 M181,34.6l3.1-0.2c1.3-0.1,2.6-0.2,3.9-0.2c1,0,2.1,0,3.2,0.3c0.9,0.2,1.7,0.5,2.5,0.9c0.9,0.4,1.9,0.8,2.9,1l1.3,0.2l1.9,0.4
				c0,0,0.5,0.1,0.5,0.1c0.5,0.1,0.9,0.1,1.2,0.4l1,0.7l1,0.7c0.9,0.6,1.7,1.5,2.6,2.4c0.6,0.7,1.3,1.3,2,1.9
				c0.6,0.5,1.3,0.9,1.9,1.2c0.6,0.3,1.2,0.7,1.6,1c0,0,0.5,0.4,0.5,0.4c0.5,0.4,1,0.8,1.6,1.2c0,0,1,0.4,1,0.4
				c0.6,0.2,1.1,0.4,1.5,0.8c0.4,0.4,0.8,1,1.1,1.6l0.5,0.9l0.4,0.6l0.6,1l0.4,1l0.3,0.8l0.2,0.5c0.4,0.7,0.4,0.8,0.1,1.2
				c-0.6,0.8-0.4,1.3,0.1,1.9l0.3,0.5c0.2,0.3,0.3,0.7,0.4,1.1l0.2,0.8l0.8,1.7c0.3,0.5,0.6,1,0.7,1.6c0.2,0.7,0.3,1.5,0.4,2.2
				l0.2,1.2l0.4,2.1c0.3,1.1,0.5,2.2,0.6,3.3l0,0.3c0,0.2,0.1,0.7,0,0.8c-0.1,0.1-0.2,0.3-0.4,0.5l-0.6,0.8l-0.3,0.7
				c-0.4,0.8-0.8,1.8-1.3,2.3c0,0-0.1,0.1-0.1,0.1l-0.2,0l-0.8-0.1c-0.9,0-1.5,0.4-1.7,1.3c-0.2,0.7-0.1,1.5-0.1,2.2l0,1.4
				c-0.1,1.3-0.9,2.6-1.9,3.4L216,86c-0.4,0.1-0.8,0.3-1.2,0.6c0,0-0.7,0.8-0.7,0.8c-0.3,0.4-0.6,0.7-1,1c-0.8,0.5-1.8,0.9-2.8,1.3
				l-0.1,0c0,0-0.6,0.3-0.6,0.3c-0.5,0.2-1,0.4-1.4,0.5l-0.9-0.1l-1-0.1c-0.8,0-1.4,0.2-2.1,0.3c-1,0.2-1.9,0.4-3,0.1
				c-0.5-0.1-1.2-0.4-1.6-0.8c-0.6-0.5-0.6-0.9-0.7-1.5l-0.1-0.9c-0.4-1.7-1.4-3.5-2.2-4.6c-0.8-1-0.4-2,0-3.1
				c0.2-0.6,0.5-1.3,0.5-2.1c0.1-1.8-0.9-3-2-4.1l-1.2-1.4c-0.4-0.6-0.9-1.6-0.9-2.2c0-0.1,0.1-0.2,0.2-0.4c0.2-0.3,0.4-0.6,0.4-1.1
				c-0.1-1.4-1.5-1.5-2.4-1.6c-0.3,0-0.7-0.1-0.9-0.1c-0.2-0.1-0.4-0.4-0.5-0.7l-0.4-0.6c-0.5-0.6-1.1-1.2-1.8-1.7
				c-0.6-0.4-1.1-0.7-1.7-0.9l-0.7-0.3c-0.6-0.3-1.2-0.5-2-0.4c-0.7,0.2-1.4,0.7-2,1.3l-0.7,0.6l-2.7,2.1c-0.7,0.5-1.3,1.2-1.6,1.9
				l-0.3,0.7c-0.1,0.4-0.3,0.7-0.5,0.9c-0.1,0.1-0.2,0.1-0.3,0.2c0-0.2,0-0.4,0-0.6c0-0.1,0-0.3,0-0.4c0-0.4,0-0.7-0.1-0.9
				c-0.2-0.6-0.7-0.7-1-0.8c-0.2,0-0.3-0.1-0.4-0.2c-0.2-0.1-0.3-0.4-0.4-0.7c-0.1-0.4-0.3-0.8-0.7-1.1c0,0,0.1,0.1,0.1,0.1
				l-0.2-0.3c-0.1-0.2-0.4-0.3-0.6-0.3c-0.8,0.2-1.3,1.1-1.7,1.8l-0.3,0.5c-0.3,0.5-0.8,1.1-1.3,1.5l-0.8,0.4l-0.8,0.4
				c-0.6,0.4-0.9,0.8-1.2,1.3L166,71c-0.3,0.4-0.4,0.4-0.9,0.5c-0.4,0-0.9,0.1-1.4,0.4l-0.6,0.5c-0.2,0.2-0.2,0.3-0.4,0.3
				c-0.3,0.1-0.7,0-1.1-0.2l-0.5-0.1c-1.4-0.4-2.7-0.1-4,0.1c-1.8,0.3-2.7,0.3-4.2-0.1c-0.9-0.2-1.9-0.3-2.8-0.3l-1,0
				c-2-0.1-2.1-2.9-2.1-3.4l-0.1-3.3l-0.2-1.2l-0.2-1.3c0,0,0-0.2,0-0.2c0,0-0.4-1.2,1.3-2.6l0.6-0.5c0.5-0.4,0.7-0.6,0.5-1
				c-0.1-0.2-0.3-0.4-0.7-0.3c-0.3,0-0.4,0-0.5-0.1c0-0.1,0.2-0.6,0.3-1c0.4-1,0.8-2.2,0.5-3.4l0,0c-0.2-0.9,0.3-1.8,0.7-2.4
				l0.3-0.8c0.1-1.3,1.2-2.3,2-3l5.8-4.7c0,0,1-0.9,1-0.9c0.9-0.9,1.8-1.7,2.8-1.9l0.4,0l1-0.2c0.5-0.2,0.9-0.7,1.3-1l0.6-0.6
				c0.6-0.4,1-0.5,1.7-0.6l0.2,0c1.6-0.3,3.2-0.7,4.6-1.2c1.5-0.5,3-1,4.6-1.4c1.3-0.3,2.6-0.3,3.9-0.3L181,34.6z"/>
		</g>
		<g>
			<path class="st0" d="M164.7,47.8c-4.9,0.9-8.9,5.9-8.3,10.5c0.2,1.2,0.5,2.4,0.8,3.5c0.5,1.8,1,3.5,0.8,5.4
				c-0.2,2.5-1.6,3.5-3.5,4.9l-1.2,0.9l0.5,0.6l1.2-0.9c2-1.4,3.7-2.6,3.9-5.5c0.1-2.1-0.4-3.9-0.9-5.7c-0.3-1.1-0.6-2.2-0.8-3.4
				c-0.5-4.2,3.1-8.8,7.7-9.6c1.8-0.4,4.8-0.5,5.8,0.5c0.3,0.3,0.4,0.8,0.3,1.3l0.7,0.1c0.2-0.8,0-1.5-0.5-2
				C169.5,46.9,164.9,47.8,164.7,47.8z"/>
			<path class="st0" d="M167.4,44.7c-0.6,1-0.8,2.1-0.4,3.1l0.7-0.2c-0.3-1,0-1.9,0.4-2.5c0.7-1.2,1.9-2.1,3.2-2.4l-0.2-0.7
				C169.6,42.3,168.2,43.4,167.4,44.7z"/>
			<path class="st0" d="M164.4,64.5l0.2,0.3c1,1.7,2.7,4.8,4.7,4.6l-0.1-0.7c-1.5,0.2-3.3-2.9-4-4.2l-0.2-0.3c-1.7-2.9-2-5.4-2-9.1
				l-0.7,0C162.3,58.9,162.6,61.5,164.4,64.5z"/>
			<path class="st0" d="M176,45.1c1,0.6,1.6,1.7,1.6,3.1c0.1,1.8-0.8,3.7-2.3,4.7c-2,1.4-5.1,0.6-7.4-0.6l-0.4,0.7
				c2.5,1.4,6,2.2,8.2,0.6c1.6-1.2,2.6-3.3,2.6-5.3c-0.1-1.6-0.8-3-2-3.7L176,45.1z"/>
			<path class="st0" d="M175.6,54c0.2,0,0.3,0.1,0.4,0.2c0.2,0.4,0.1,1.2-0.1,1.6c-0.4,0.8-1.2,1.1-2,1.4l-1.3,0.6
				c-1.8,1.1-3.2,3-3.6,5c-0.3,1.7-0.1,3.1,0.6,4c0.3,0.4,0.6,0.5,0.8,0.6l0.7,0.4l0.5-0.6l-0.8-0.5c-0.2-0.1-0.4-0.2-0.6-0.4
				c-0.6-0.7-0.7-1.9-0.5-3.4c0.3-1.8,1.6-3.6,3.2-4.5l1.2-0.5c0.9-0.3,1.9-0.7,2.4-1.7c0.3-0.6,0.4-1.6,0.1-2.3
				c-0.2-0.4-0.6-0.6-1-0.6L175.6,54z"/>
			<path class="st0" d="M150.7,47.3c0.3,0.6,0.6,1.4,0.8,2.3c0.6,1.9,1.2,4,2.8,4.9c0.9,0.5,2,0.5,3.2,0.1l-0.2-0.7
				c-1.1,0.3-1.9,0.3-2.6-0.1c-1.3-0.7-1.9-2.7-2.4-4.4c-0.3-0.9-0.5-1.8-0.9-2.4L150.7,47.3z"/>
			<path class="st0" d="M153.9,63.5c0,0.8-0.4,1.5-1.1,2.1c-1.8,1.3-5.1,1.5-6.4,1.1l-0.3,0.7c1.4,0.5,5,0.3,7.1-1.2
				c1-0.7,1.5-1.7,1.5-2.7L153.9,63.5z"/>
			<path class="st0" d="M151.1,66.6l0.7-0.2c-0.9-2.9-0.4-8.4,2.5-10.6l-0.5-0.6C150.6,57.8,150.2,63.6,151.1,66.6z"/>
			<path class="st0" d="M179.5,40.1c0.1,1.9,1.4,3.3,2.7,4.7c0.7,0.8,1.4,1.5,1.9,2.4c0,0,0.1,0.1,0.1,0.1c0.9,1.5,1.7,3,2.2,4.7
				c0.4,1.5,0.4,2.9,0.4,4.5l0,1.3c0,1.8-0.4,4.8-2,4.9l0,0.7c2.6-0.2,2.7-4.7,2.7-5.6l0-1.3c0-1.5,0-3.1-0.4-4.7
				c-0.5-1.7-1.4-3.3-2.3-4.8l-0.1-0.1c-0.5-0.9-1.3-1.7-2-2.5c-1.2-1.4-2.4-2.6-2.5-4.3c-0.1-1.8,1.1-4.9,2.2-6l-0.5-0.5
				C180.5,34.8,179.4,38.2,179.5,40.1z"/>
			<path class="st0" d="M179.6,40.1l0.6,0.5c1.4-1.6,4.8-3.6,6.9-3.1c0.9,0.2,1.5,0.8,1.7,1.8c0,0,0.2,1.1,0.2,1.1
				c0.1,1,0.2,2.1,1.5,2.8c0.9,0.5,2.3,0.3,3.3,0.1c2.4-0.5,2.8-2,3.3-3.9l-0.7-0.2c-0.5,1.9-0.7,3-2.7,3.4c-1.3,0.3-2.3,0.3-2.8,0
				c-1-0.5-1.1-1.3-1.2-2.3l-0.2-1.2c-0.4-1.3-1.1-2.1-2.3-2.4C184.7,36.2,181.1,38.4,179.6,40.1z"/>
			<path class="st0" d="M190.4,54.9c-0.8,0.3-1.6,0.3-2.6,0.3l-0.6,0l0,0.7l0.6,0c1,0,1.9,0.1,2.9-0.4c1.9-0.8,4-3.2,4.1-5.4l-0.7,0
				C194,52.1,192.1,54.2,190.4,54.9z"/>
			<path class="st0" d="M194.6,50.6c2.5,0.3,4.4-0.4,5.7-2.3l-0.6-0.4c-1.1,1.6-2.8,2.3-5,2c-1.5-0.2-3.7-1.8-3.6-3.5l-0.7,0
				C190.3,48.5,192.9,50.4,194.6,50.6z"/>
			<path class="st0" d="M177.9,61.2c0.3,1.8,1.3,3.8,2.7,3.8l0-0.7c-0.8,0-1.6-1.5-2-3.2c-0.3-1.5-0.2-3.1,0.7-3.5L179,57
				C177.7,57.5,177.6,59.5,177.9,61.2z"/>
			<path class="st0" d="M202.8,38.3l-0.1,5.2c0.1,2.4,1,3.6,2.5,5.4l0.2,0.3c1.5,1.9,2.7,5.4,2.2,8c-0.2,1.2-0.8,2.1-1.8,2.6
				c-0.9,0.5-2.2,0.3-3.4,0.1l-1.4-0.2c-2.4-0.2-3.9,0.4-5.4,1.9c-0.5,0.6-1.1,1-1.7,1.5c-1.6,1.3-3.1,2.5-2,5l0.7-0.3
				c-0.9-2,0.2-2.8,1.8-4.1c0.6-0.5,1.2-1,1.8-1.6c1.3-1.3,2.6-1.8,4.8-1.7l1.3,0.2c1.3,0.2,2.8,0.4,3.9-0.2
				c1.1-0.6,1.8-1.7,2.1-3.1c0.6-2.9-0.8-6.6-2.3-8.6l-0.2-0.3c-1.4-1.8-2.2-2.8-2.3-5l0.1-5.2L202.8,38.3z"/>
			<path class="st0" d="M208.3,57.2c5.7,0.8,9.6,5,9.5,10.3l0.7,0c0.1-5.7-4.1-10.2-10.2-11L208.3,57.2z"/>
			<path class="st0" d="M215.8,69.1c-0.3,0.7-0.7,1.4-1.3,1.9l0.5,0.6c0.7-0.7,1.1-1.5,1.5-2.1c0.6-1.2,1-2,3-1.8
				c1.4,0.2,1.8,0.4,2.4,1.7l0.3,0.8c0.4,1.1,1,2.6,2.5,2.5l0-0.7c-0.9,0-1.3-0.8-1.8-2l-0.4-0.8c-0.8-1.5-1.3-1.9-3-2.1
				C217,66.6,216.4,67.8,215.8,69.1z"/>
			<path class="st0" d="M199.7,60.8c1.2,0.2,2.2,0.9,3.2,1.6l0.3,0.2c2.8,2,3.1,4,2.7,6.9c-0.2,1.7-0.6,3.6-2.1,5.1l-0.9,0.8
				c-0.7,0.6-1.4,1.2-1.8,2.4c-0.5,1.5-2.5,9.8-0.5,12.7c0.4,0.7,1,1,1.8,1l0-0.7c-0.5,0-0.9-0.2-1.2-0.7c-1.7-2.5,0-10.4,0.6-12
				c0.4-1,0.9-1.5,1.6-2l1-0.9c1.6-1.7,2.1-3.7,2.3-5.5c0.4-3,0-5.4-3-7.6l-0.3-0.2c-1.1-0.8-2.1-1.6-3.5-1.8L199.7,60.8z"/>
			<path class="st0" d="M212.5,74.8c0.2,0.3,0.3,0.6,0.3,0.8c-0.2,0.6-1.4,1.1-2.4,1.5c-0.7,0.3-1.4,0.6-1.7,0.9
				c-1.2,1.2-0.9,4-0.7,5.5c0.1,1.3,0.8,5.4,2.1,6.8l0.5-0.5c-1.1-1.2-1.8-4.8-1.9-6.3c-0.1-1.3-0.4-4,0.5-4.9
				c0.2-0.2,0.9-0.5,1.5-0.7c1.2-0.5,2.5-1,2.8-2c0.1-0.5,0-1-0.4-1.5L212.5,74.8z"/>
			<path class="st0" d="M209.6,69.5l0.2,1.1c0.3,1.6,0.6,2.9,2.5,4c2.5,1.4,5.1,1.6,6.9,0.5l-0.4-0.6c-1.6,0.9-3.9,0.7-6.2-0.5
				c-1.7-0.9-1.9-2-2.2-3.5l-0.2-1.1L209.6,69.5z"/>
			<path class="st0" d="M203.9,74.9l0.2-0.7c-2.8-0.9-4.1-4.8-3.9-7.2l-0.7-0.1C199.3,69.5,200.6,73.8,203.9,74.9z"/>
			<path class="st0" d="M209.9,47.8c0.1,1.1-0.2,2.6-1.1,3.3c-0.5,0.4-1.1,0.5-1.7,0.3l-0.2,0.7c0.9,0.2,1.7,0.1,2.4-0.5
				c1.1-0.9,1.5-2.7,1.4-4L209.9,47.8z"/>
			<path class="st0" d="M201.2,54.4c0,1.1,0,2.1,0.8,3.1c0.9,1.1,2.9,2.9,4.5,2.4l-0.2-0.7c-1.1,0.3-2.8-1.2-3.7-2.2
				c-0.7-0.8-0.7-1.6-0.6-2.6l0-0.5l-0.7,0L201.2,54.4z"/>
			<path class="st0" d="M202.1,82.1c1.9,2.9,3.8,3.3,6.7,3.7l0.1-0.7c-3-0.4-4.5-0.9-6.2-3.4L202.1,82.1z"/>
		</g>
		<g>
			<path class="st3" d="M168.2,86.8c0,2.6-0.5,4.7-1.5,6.3c-1,1.6-2.5,2.4-4.5,2.4v-2.8c2,0,3-1.9,3-5.8h-3v-6.1h6.1L168.2,86.8
				L168.2,86.8z"/>
			<path class="st3" d="M190.8,86.8c0,2.6-0.5,4.7-1.5,6.3c-1,1.6-2.5,2.4-4.5,2.4v-2.8c2,0,3-1.9,3-5.8h-3v-6.1h6.1V86.8z"/>
			<path class="st3" d="M176.7,110.5c-1-0.6-8.3-4.9-8.3-4.9l-1.1,1.9l8.9,5.2c0.4,0.2,0.8,0.2,1.2,0l11.9-7.8l-1.2-1.9
				C188,103.1,177.7,109.8,176.7,110.5z"/>
		</g>
		<g>
			<path class="st3" d="M154.8,122.4l0.8-0.1c0,0.3,0.1,0.6,0.3,0.8c0.1,0.2,0.4,0.4,0.7,0.5c0.3,0.1,0.6,0.2,1,0.2
				c0.3,0,0.6-0.1,0.9-0.2c0.3-0.1,0.4-0.2,0.6-0.4c0.1-0.2,0.2-0.4,0.2-0.6c0-0.2-0.1-0.4-0.2-0.5c-0.1-0.2-0.3-0.3-0.6-0.4
				c-0.2-0.1-0.6-0.2-1.2-0.3c-0.6-0.1-1-0.3-1.3-0.4c-0.3-0.2-0.6-0.4-0.7-0.6c-0.2-0.2-0.2-0.5-0.2-0.8c0-0.3,0.1-0.7,0.3-0.9
				c0.2-0.3,0.5-0.5,0.8-0.7c0.4-0.2,0.8-0.2,1.2-0.2c0.5,0,0.9,0.1,1.3,0.2c0.4,0.2,0.7,0.4,0.9,0.7c0.2,0.3,0.3,0.7,0.3,1
				l-0.8,0.1c0-0.4-0.2-0.7-0.5-0.9c-0.3-0.2-0.6-0.3-1.1-0.3c-0.5,0-0.9,0.1-1.2,0.3c-0.2,0.2-0.4,0.4-0.4,0.7
				c0,0.2,0.1,0.4,0.3,0.6c0.2,0.2,0.6,0.3,1.3,0.5c0.7,0.2,1.2,0.3,1.5,0.4c0.4,0.2,0.7,0.4,0.9,0.7c0.2,0.3,0.3,0.6,0.3,0.9
				c0,0.4-0.1,0.7-0.3,1c-0.2,0.3-0.5,0.6-0.9,0.7c-0.4,0.2-0.8,0.3-1.3,0.3c-0.6,0-1.1-0.1-1.5-0.3c-0.4-0.2-0.7-0.4-1-0.8
				C154.9,123.2,154.8,122.8,154.8,122.4z"/>
			<path class="st3" d="M161.2,124.5v-4.8h0.7v0.7c0.2-0.2,0.4-0.4,0.6-0.6c0.3-0.1,0.5-0.2,0.9-0.2c0.4,0,0.6,0.1,0.9,0.2
				c0.2,0.1,0.4,0.4,0.5,0.6c0.4-0.6,0.9-0.8,1.5-0.8c0.5,0,0.8,0.1,1.1,0.4c0.3,0.3,0.4,0.7,0.4,1.2v3.3h-0.8v-3
				c0-0.3,0-0.6-0.1-0.7c-0.1-0.1-0.1-0.3-0.3-0.3c-0.1-0.1-0.3-0.1-0.5-0.1c-0.3,0-0.6,0.1-0.8,0.3c-0.2,0.2-0.3,0.6-0.3,1.1v2.8
				h-0.8v-3.1c0-0.4-0.1-0.6-0.2-0.8c-0.1-0.2-0.4-0.3-0.7-0.3c-0.2,0-0.4,0.1-0.6,0.2c-0.2,0.1-0.3,0.3-0.4,0.5
				c-0.1,0.2-0.1,0.6-0.1,1v2.5L161.2,124.5L161.2,124.5L161.2,124.5z"/>
			<path class="st3" d="M172.1,123.9c-0.3,0.3-0.6,0.4-0.9,0.6c-0.3,0.1-0.6,0.2-0.9,0.2c-0.5,0-0.9-0.1-1.2-0.4
				c-0.3-0.3-0.4-0.6-0.4-1c0-0.2,0.1-0.5,0.2-0.6c0.1-0.2,0.3-0.4,0.4-0.5c0.2-0.1,0.4-0.2,0.6-0.3c0.2,0,0.4-0.1,0.7-0.1
				c0.7-0.1,1.2-0.2,1.5-0.3c0-0.1,0-0.2,0-0.2c0-0.3-0.1-0.6-0.2-0.7c-0.2-0.2-0.5-0.3-0.9-0.3c-0.4,0-0.7,0.1-0.9,0.2
				c-0.2,0.1-0.3,0.4-0.4,0.7l-0.8-0.1c0.1-0.3,0.2-0.6,0.4-0.8c0.2-0.2,0.4-0.4,0.7-0.5c0.3-0.1,0.7-0.2,1.1-0.2c0.4,0,0.7,0,1,0.1
				c0.3,0.1,0.4,0.2,0.6,0.4c0.1,0.1,0.2,0.3,0.3,0.6c0,0.1,0,0.4,0,0.8v1.1c0,0.8,0,1.2,0,1.4c0,0.2,0.1,0.4,0.2,0.6h-0.8
				C172.2,124.3,172.1,124.1,172.1,123.9z M172,122.1c-0.3,0.1-0.7,0.2-1.3,0.3c-0.3,0-0.6,0.1-0.7,0.2c-0.1,0.1-0.2,0.1-0.3,0.3
				c-0.1,0.1-0.1,0.2-0.1,0.4c0,0.2,0.1,0.4,0.3,0.5c0.2,0.1,0.4,0.2,0.7,0.2c0.3,0,0.6-0.1,0.8-0.2c0.2-0.1,0.4-0.3,0.5-0.6
				c0.1-0.2,0.1-0.5,0.1-0.8L172,122.1z"/>
			<path class="st3" d="M174.1,124.5v-4.8h0.7v0.7c0.2-0.3,0.4-0.6,0.5-0.7c0.2-0.1,0.3-0.2,0.5-0.2c0.3,0,0.6,0.1,0.8,0.3l-0.3,0.8
				c-0.2-0.1-0.4-0.2-0.6-0.2c-0.2,0-0.3,0.1-0.5,0.2c-0.1,0.1-0.2,0.3-0.3,0.4c-0.1,0.3-0.1,0.6-0.1,0.9v2.5L174.1,124.5
				L174.1,124.5z"/>
			<path class="st3" d="M179,123.8l0.1,0.7c-0.2,0-0.4,0.1-0.6,0.1c-0.3,0-0.5,0-0.7-0.1c-0.2-0.1-0.3-0.2-0.3-0.4
				c-0.1-0.2-0.1-0.5-0.1-1v-2.8h-0.6v-0.6h0.6v-1.2l0.8-0.5v1.7h0.8v0.6h-0.8v2.8c0,0.2,0,0.4,0,0.4c0,0.1,0.1,0.1,0.1,0.2
				c0.1,0,0.2,0.1,0.3,0.1C178.7,123.8,178.8,123.8,179,123.8z"/>
			<path class="st3" d="M182.5,124.5v-6.6h2.9c0.6,0,1,0.1,1.3,0.2c0.3,0.1,0.6,0.3,0.7,0.6c0.2,0.3,0.3,0.6,0.3,1
				c0,0.5-0.2,0.9-0.5,1.2c-0.3,0.3-0.8,0.5-1.4,0.6c0.2,0.1,0.4,0.2,0.5,0.3c0.3,0.2,0.5,0.5,0.7,0.9l1.2,1.8h-1.1l-0.9-1.4
				c-0.3-0.4-0.5-0.7-0.6-0.9c-0.2-0.2-0.3-0.4-0.4-0.4c-0.1-0.1-0.3-0.1-0.4-0.2c-0.1,0-0.3,0-0.5,0h-1v3L182.5,124.5L182.5,124.5z
				 M183.4,120.8h1.9c0.4,0,0.7,0,0.9-0.1c0.2-0.1,0.4-0.2,0.5-0.4c0.1-0.2,0.2-0.4,0.2-0.6c0-0.3-0.1-0.6-0.3-0.8
				c-0.2-0.2-0.6-0.3-1.1-0.3h-2.1L183.4,120.8L183.4,120.8z"/>
			<path class="st3" d="M192.4,122.9l0.8,0.1c-0.1,0.5-0.4,0.9-0.7,1.2c-0.4,0.3-0.8,0.4-1.4,0.4c-0.7,0-1.3-0.2-1.7-0.7
				c-0.4-0.4-0.6-1-0.6-1.8c0-0.8,0.2-1.4,0.6-1.9c0.4-0.4,1-0.7,1.6-0.7c0.6,0,1.2,0.2,1.6,0.7c0.4,0.4,0.6,1.1,0.6,1.8
				c0,0,0,0.1,0,0.2h-3.6c0,0.5,0.2,0.9,0.5,1.2c0.3,0.3,0.6,0.4,1,0.4c0.3,0,0.6-0.1,0.8-0.2C192.1,123.5,192.2,123.3,192.4,122.9z
				 M189.7,121.6h2.7c0-0.4-0.1-0.7-0.3-0.9c-0.3-0.3-0.6-0.5-1-0.5c-0.4,0-0.7,0.1-0.9,0.4C189.8,120.9,189.7,121.2,189.7,121.6z"
				/>
			<path class="st3" d="M197.4,123.9c-0.3,0.3-0.6,0.4-0.9,0.6c-0.3,0.1-0.6,0.2-0.9,0.2c-0.5,0-0.9-0.1-1.2-0.4
				c-0.3-0.3-0.4-0.6-0.4-1c0-0.2,0.1-0.5,0.2-0.6c0.1-0.2,0.3-0.4,0.4-0.5c0.2-0.1,0.4-0.2,0.6-0.3c0.2,0,0.4-0.1,0.7-0.1
				c0.7-0.1,1.2-0.2,1.5-0.3c0-0.1,0-0.2,0-0.2c0-0.3-0.1-0.6-0.2-0.7c-0.2-0.2-0.5-0.3-0.9-0.3c-0.4,0-0.7,0.1-0.9,0.2
				c-0.2,0.1-0.3,0.4-0.4,0.7l-0.8-0.1c0.1-0.3,0.2-0.6,0.4-0.8c0.2-0.2,0.4-0.4,0.7-0.5c0.3-0.1,0.7-0.2,1.1-0.2c0.4,0,0.7,0,1,0.1
				c0.3,0.1,0.4,0.2,0.6,0.4c0.1,0.1,0.2,0.3,0.3,0.6c0,0.1,0,0.4,0,0.8v1.1c0,0.8,0,1.2,0.1,1.4c0,0.2,0.1,0.4,0.2,0.6h-0.8
				C197.5,124.3,197.4,124.1,197.4,123.9z M197.3,122.1c-0.3,0.1-0.7,0.2-1.3,0.3c-0.3,0-0.6,0.1-0.7,0.2c-0.1,0.1-0.2,0.1-0.3,0.3
				c-0.1,0.1-0.1,0.2-0.1,0.4c0,0.2,0.1,0.4,0.3,0.5c0.2,0.1,0.4,0.2,0.7,0.2c0.3,0,0.6-0.1,0.8-0.2c0.2-0.1,0.4-0.3,0.5-0.6
				c0.1-0.2,0.1-0.5,0.1-0.8L197.3,122.1z"/>
			<path class="st3" d="M202.5,124.5v-0.6c-0.3,0.5-0.8,0.7-1.3,0.7c-0.4,0-0.7-0.1-1.1-0.3c-0.3-0.2-0.6-0.5-0.7-0.9
				c-0.2-0.4-0.3-0.8-0.3-1.3c0-0.5,0.1-0.9,0.2-1.3c0.2-0.4,0.4-0.7,0.7-0.9c0.3-0.2,0.7-0.3,1.1-0.3c0.3,0,0.5,0.1,0.8,0.2
				c0.2,0.1,0.4,0.3,0.6,0.5v-2.4h0.8v6.6L202.5,124.5L202.5,124.5L202.5,124.5z M199.9,122.1c0,0.6,0.1,1.1,0.4,1.4
				c0.3,0.3,0.6,0.5,0.9,0.5c0.4,0,0.7-0.1,0.9-0.4c0.3-0.3,0.4-0.7,0.4-1.3c0-0.7-0.1-1.1-0.4-1.4c-0.3-0.3-0.6-0.5-0.9-0.5
				c-0.4,0-0.7,0.1-0.9,0.4C200.1,121,199.9,121.5,199.9,122.1z"/>
			<path class="st3" d="M204.6,118.8v-0.9h0.8v0.9H204.6z M204.6,124.5v-4.8h0.8v4.8H204.6z"/>
			<path class="st3" d="M206.6,124.5v-4.8h0.7v0.7c0.4-0.5,0.9-0.8,1.5-0.8c0.3,0,0.6,0.1,0.8,0.2c0.2,0.1,0.4,0.2,0.5,0.4
				c0.1,0.2,0.2,0.4,0.3,0.6c0,0.2,0,0.4,0,0.8v3h-0.8v-2.9c0-0.3,0-0.6-0.1-0.7c-0.1-0.2-0.2-0.3-0.3-0.4c-0.2-0.1-0.4-0.1-0.6-0.1
				c-0.3,0-0.6,0.1-0.9,0.3c-0.3,0.2-0.4,0.6-0.4,1.3v2.6L206.6,124.5L206.6,124.5L206.6,124.5z"/>
			<path class="st3" d="M211.7,124.9l0.8,0.1c0,0.2,0.1,0.4,0.3,0.5c0.2,0.2,0.5,0.2,0.8,0.2c0.4,0,0.7-0.1,0.9-0.2
				c0.2-0.2,0.3-0.4,0.4-0.6c0-0.2,0.1-0.5,0.1-1c-0.4,0.4-0.8,0.6-1.3,0.6c-0.7,0-1.2-0.2-1.5-0.7c-0.4-0.5-0.5-1.1-0.5-1.7
				c0-0.5,0.1-0.9,0.3-1.3c0.2-0.4,0.4-0.7,0.7-0.9c0.3-0.2,0.7-0.3,1.1-0.3c0.6,0,1,0.2,1.4,0.7v-0.6h0.7v4.2
				c0,0.7-0.1,1.3-0.2,1.6c-0.2,0.3-0.4,0.6-0.7,0.7c-0.3,0.2-0.7,0.3-1.2,0.3c-0.6,0-1-0.1-1.4-0.4
				C211.8,125.8,211.6,125.4,211.7,124.9z M212.3,122c0,0.6,0.1,1.1,0.4,1.4c0.3,0.3,0.6,0.4,0.9,0.4c0.4,0,0.7-0.1,1-0.4
				c0.3-0.3,0.4-0.7,0.4-1.4c0-0.6-0.1-1-0.4-1.3c-0.3-0.3-0.6-0.4-1-0.4c-0.4,0-0.7,0.1-0.9,0.4C212.5,121,212.3,121.4,212.3,122z"
				/>
		</g>
	</g>
</g>
</svg>
