<?xml version="1.0" encoding="UTF-8"?>
<svg xmlns="http://www.w3.org/2000/svg" version="1.1" viewBox="0 0 427.1 100">
  <!-- Generator: Adobe Illustrator 28.7.8, SVG Export Plug-In . SVG Version: 1.2.0 Build 200)  -->
  <g>
    <g id="_圖層_1" data-name="圖層_1">
      <path d="M11.8,44.6l.6-.5s8-5.4,31.4-25l.2-.2.6-.5.2-.2,1.3,1.5,5.4,6.7c-23.1,18.4-27.8,22.1-27.8,22.1h0c0,.1-.1.1-.1.1-.1.1-.2.3-.2.6s.1.5.2.5c0,0,5.8,4,32.2,24.6l2.1,1.6-.7.8c-.1.1-.2.1-.2.2l-6.1,6.9C19.3,59.7,15,56.3,15,56.3h-.1c-.1-.1-.2-.1-.5-.1s-.2,0-.3.1h-.1c-.7.6-1.8,1.4-2.5,2.1l-.3.3c-.2.1-.5.5-.5,1v22.2H0V19.4h10.6v24.6c.3.2.3.7.7.7.2,0,.3,0,.5-.1ZM119.8,55.7c0,4.6-.5,9.4-3.5,12.5-1.7,1.7-5.7,4.6-13.4,4.6s-9.1-1.6-12.3-4.9c-2.5-2.5-3.3-5.3-3.3-11.7V19.4h-10.6v38.5c0,18.2,14.1,24.7,26.1,24.7,17.7,0,27.8-9.4,27.8-25.5V19.4h-10.6s0,36.2,0,36.2ZM219,19.4h.3v62.4h-10.6v-43.7c0-.3-.3-.7-.7-.7s-.3.1-.5.2l-.2.3c-4.9,5.8-17,19.9-17.1,20h-.1c-.3.5-.7.6-1.1.6s-.9-.1-1.3-.5h-.1c-.1-.2-11.8-14.9-17.1-20.2l-.2-.2c-.1-.1-.2-.1-.5-.1-.3,0-.6.2-.6.6h0v43.7h-10.7V19.4h9.7c.9,1,15.9,19.3,20.1,23.5h.1c.2.2.3.3.6.3s.3-.1.5-.2c3.8-4.5,19.7-22.6,20.4-23.6h0c0-.1,9.3-.1,9.3-.1ZM346.5,46.9v-2.1l-.2-.5v-.7c-.1,0-.3-.7-.3-.7v-1.6c-.1,0-.3-.5-.3-.5v-.3c-.1,0-.3-.6-.3-.6v-.5l-.3-.7v-1.1c-.1,0-.2-.7-.2-.7v-.3c-.1,0-.3-.6-.3-.6l-.2-1-.3-.5v-.3c-.1,0-.9-1.9-.9-1.9l-.3-.5-1-1.9-.8-1.8-.7-1.8-.2-.8-1-1.6-.2-.3-.5-.9-1.3-1.3-.5-.8-.8-.8-.3-.7-.3-.3-.5-.6-.5-.3-.6-.5-.9-.8-.5-.8-.8-.9-.9-.8-1.1-.8-.7-.2-.6-.5-.7-.5-.3-.6-.5-.3-.5-.3-1.1-.7-.6-.3-1-.8-2.1-.9-1.6-1.3-.8-.3-.8-.5-.6-.3h-1.7l-.3-.2-.5-.2h-.9c0-.1-.6-.6-.6-.6l-.9-.3h-.8c0-.1-.9-.6-.9-.6h-.7l-3.1-.8-.8-.2h-1.1l-.3-.2h-.3c0-.1-1.8-.1-1.8-.1l-.5-.3h-1.3l-.9-.3h-2.2c0-.1-1.5-.2-1.5-.2h-.8c0-.1-2.8-.1-2.8-.1h-.8c0,.1-1.5.1-1.5.1l-.7.2h-2.5c0,.1-1.4.1-1.4.1h-.6c0,.1-.7.2-.7.2h-1l-1,.2-.3.3h-.1v-.8l-.2-.6-.5-.5-1.3-.6h-.5c0-.1-.7-.2-.7-.2h-1.9l-1.1.2h-.2c0,.1-.8.5-.8.5l-1.4.3-1.8.5h-1.5l-.8.2-1.1.3-.6.5-.8.5-1.3.6-1,.2-.7.6h-.9c0,.1-.5.3-.5.3l-1.3.6-1.8,1.7-.5.6-.5.3-.7.8-1,.8-.5.6-.5.5-.6,1-.5.5-.5.6-.8.6-.6.7-.6.6-.6,1-.3.5-.2.3v.8c-.1,0-.6.3-.6.3l-.2.6-.7.6-.6.9-.2.6-.2.5-.2.6-.8,1.5-.3.5-.3,1.1-.8,1-.2.5-.5,1.3-.5,1v2.1c-.1,0-.3.8-.3.8v.6c-.1,0-.1.5-.1.5l-.3.5-.3.9v.9c-.1,0-.5.7-.5.7v1.6c-.1,0-.1.8-.1.8l-.6,2.3v1.8c-.1,0-.2,1.8-.2,1.8v.6c-.1,0-.1,1.3-.1,1.3l-.2.8v6.4l.2.6v1.4c.1,0,.1.7.1.7l.3,1.5v1.3l.3,1.1v1.5c.1,0,.2.7.2.7v.8c.1,0,.7,1.5.7,1.5l.2.9.3.6v.7c.1,0,.3.5.3.5l.6,1.3.2.6.2.5v.7c.1,0,.6.6.6.6l.2.8.5,1,.6.7.5,1,.5.6.5.8.5.6.9,1.4.6.6.3.6.3.5.5.6.9,1,.5.6.5.6.8.8.5.3.3.3.5.6.6.5,1,1,.6.5.9.8,1.3,1,1.5,1,.8.5,1.5,1,.9.3.6.5,1.4.9.3.5h.6c0,.1.5.5.5.5l1.1.6.8.3.6.5,1.3.5.5.3,1.1.6.5.3h.6c0,.1.3.3.3.3h.6c0,.1.5.5.5.5l1.1.5,1,.5.6.3h.8c0,.1.5.3.5.3l1.3.6h.9l.3.2,1.3.6,2.7.7.9.2h.6c0,.1,1.3.1,1.3.1l.7.3h1l.8.2h3.7c0,.1,2.5.1,2.5.1h2.1c0-.1,1-.1,1-.1l.8-.2h2.9l2.1-.5h.7l.9-.3h1.6c0-.1,1.5-.6,1.5-.6h1.3l.5-.2h.7c0-.1.9-.5.9-.5l.8-.2.2-.2h.3c0-.1.8-.1.8-.1l1-.6.5-.2h.7c0-.1.3-.5.3-.5l.6-.2.7-.3.7-.6.7-.3.9-.6.7-.3.5-.3.8-.2.3-.3.7-.6,1.5-1.4.6-.5.6-.5.8-.7.5-.5.8-.8.8-.6.3-.6,1.7-1.6.5-.6.7-.8.5-.6.5-.6.2-.5.5-.5.5-.6.6-.7.3-.8.7-.6.5-.8.7-.9.5-.6v-.3c.1,0,.3-.3.3-.3l.6-.9.5-.6.2-.5.6-1v-.7c.1,0,.2-.3.2-.3l.2-.2.2-.6.2-.5.3-.8.3-.3.7-1.8.2-.6.3-1.5.2-1.3.5-2.8v-.9c.1,0,.5-.8.5-.8v-1c.1,0,.1-1.6.1-1.6l.2-.8v-5.8l-.2-.8.2-.7v-1.5l-.2-.8ZM339.6,55.3v.7c-.1,0-.2.7-.2.7v1.7l-.3.7-.2,1.5-.3.9v.9c-.1,0-.3.8-.3.8v.5c-.1,0-.3.5-.3.5v.7c-.1,0-.6.8-.6.8l-.3.5-.3.9-.6,1.1v.7c-.1,0-.6.6-.6.6l-.7.8-.6.9-.3.5-.5.9-.8.9-.9,1.1-1,1.5-.5.6-.8.9-.5.6-.3.5-.6.7-.8.7-.5.6-.6.2-2.1,2.2-.9.6-.8.8-1.1,1.1-.5.2-.7.7-1.7,1-.5.3-.3.3-.6.2-.5.3-1.1.6-1.3.6-.2.2h-.9c0,.1-.6.3-.6.3l-1.3.5-1.1.5-.8.2h-.6c0,.1-1.5.1-1.5.1l-.7.3h-.7c0,.1-1.3.3-1.3.3h-.7c0,.1-1.1.2-1.1.2h-.7c0,.1-1.5.2-1.5.2l-1.1.2h-4.8l-.8-.2h-2.2c0-.1-.6-.2-.6-.2l-1.1-.2h-.8c0-.1-1.6-.6-1.6-.6l-.8-.2-.6-.2-.9-.3-.5-.2-2.3-.8-.6-.2-.5-.2-1.1-.3-.5-.3-.6-.2-1.1-.6-2.2-1-.7-.5-2.7-1.4-1.7-1-1.4-.9-.6-.2-.2-.2-.6-.2-1.1-.9-.7-.3-1.6-1.1-1.1-.8-.5-.3-1.1-.9-1-.8-1.3-1.3-.2-.5-.9-.9-.3-.5-.5-.6-1.1-1.4-.3-.7-.5-.6-.5-.5-.5-.6-.3-.7-.6-1.1-.5-.9-.3-.3v-.7c-.1,0-.5-.6-.5-.6l-.2-.6-.2-.3v-.7c-.1,0-.3-.5-.3-.5l-.2-.2-.3-1-.8-2.5-.3-.9v-.5l-.3-.5v-.8c-.1,0-.2-1-.2-1v-.6c-.1,0-.1-.5-.1-.5l-.3-.8v-3.3c-.1,0-.1-1.8-.1-1.8l-.2-.6.2-.6v-2.2c.1,0,.1-.9.1-.9l.2-.7v-1l.3-1.6v-.8l.3-1.5v-1.6c.1,0,.5-.5.5-.5l.2-1.3.5-2.1.2-.8.5-1.4v-.6c.1,0,.7-1.1.7-1.1l.3-1.3.3-.5v-.5l.3-.5,1.3-2.5.3-.7.3-.7.7-1,.3-.7.5-.6.8-1.3.6-.9.7-.8.8-1,.6-.7.7-.8.7-.7.5-.6.7-.6.5-.3.6-.6,1-.8,1.4-1,.6-.3,1.7-.8,1-.5.5-.3,2.4-.8,1.8-.6h.3c0-.1.9-.2.9-.2l2.1-.5,1.1-.5h.1v1.5l.2.3.8.7,1.3.5h2.1l1-.2.5-.2,1.4-.2.5-.2h.9c0-.1,1-.5,1-.5h2.6c0-.1,1.3-.1,1.3-.1h.8c0,.1.8.1.8.1h.3c0-.1.8,0,.8,0h1.6c0-.1.8.2.8.2h1.4l.6.3h1.1l.9.3h.8l1,.2.2.2h1l.8.2.3.2,1.9.3.3.3,1,.2.6.2.6.2.9.3h.9c0,.1.8.6.8.6l1.1.3,1,.7.8.3.6.2.5.3,1.4.6,1,.7.8.5.7.6.6.2.7.6,1.1.7.9.9.8.6.6.5.3.2.2.5.7.3,3.4,3.5.6.9.9,1.1.3.3.2.6.5.7.5.9.6.9.5.9.3.9.9,1.8.3.7.2.8.5.6.2.8.7,1,.5,1.1v.6c.1,0,.5.9.5.9v.7l.3.8v.9l.5,1.6v.7c.1,0,.7,2.8.7,2.8v7.7ZM271.1,17.2l-1.1-.7h-1.4l-.6.3-.8.9-1,1.6-.5,1.3-.6,1.1-.6.7-.3,1v2.7c.1,0,.2.7.2.7v.3l.7.9,1,.2.9-.2h1.3l.6-.2h.6c0-.1.9-.7.9-.7l.9-.9.6-.7.3-1.5.5-.8.2-.9v-3.1c.1,0-.2-1.1-.2-1.1l-.8-.8-.8-.2ZM310.6,81.9l-2.2-.7h-2.1c0-.1-.8-.3-.8-.3l-1-.2h-.7c0-.1-3-.7-3-.7h-.7c0-.1-.6-.2-.6-.2h-1.6l-.8-.2h-2.3l-2.3-.5h-2.4c0-.1-1-.2-1-.2l-.6.2h-1.5l-1,.2h-.5c0,.1-.3.5-.3.5l-.2.5v2.9c.1,0,.2.5.2.5l.5.3.5.8.8.5,1,.5h.7c0,.1.7.1.7.1h.7c0,.1.6.3.6.3h2.2c0,.1,2.1.1,2.1.1h2.9l1.5.3h2.7l1-.5h.9c0,.1.5.3.5.3l.9.2h.8c0,.1.6.3.6.3h1c0,.1,1,.2,1,.2h1.8c0-.1.5-.6.5-.6l.2-.5.5-1.1v-2.2c-.1,0-.5-.6-.5-.6l-.7-.3ZM324,27.6h-.7c0-.1-.2-.3-.2-.3l-.3-.2h-1.3l-.5.2-.9.6-.5.6-.7.7-.2.5-.3.9v.3c-.1,0-.3.6-.3.6l-.2,1v.7c-.1,0-.2.7-.2.7v3c.1,0,.3.9.3.9v.3c.1,0,.7.2.7.2h.8c0,.1.6.5.6.5h1.5l.8-.2.9-.9.5-.6.6-.3.7-.7.8-.9.6-1.7v-2.2c.1,0-.8-2.2-.8-2.2l-.8-.8-.7-.6ZM427.1,19.4v62.4h-8.9c-29.7-34.2-37.2-42.9-37.2-42.9h-.1c-.5-.5-.6-.7-.6-.7-.1-.1-.3-.3-.6-.2,0,0-.5,0-.5.7v43.1h-10.2V19.4h8.3l38,43.3h.1c.1.3.2.5.3.6.1.1.3.3.6.2,0,0,.5,0,.5-.7V19.4h10.2Z"/>
    </g>
  </g>
</svg>