<?xml version="1.0" encoding="UTF-8"?>
<svg xmlns="http://www.w3.org/2000/svg" version="1.1" viewBox="0 0 500 43.1">
  <defs>
    <style>
      .cls-1 {
        fill: #d8bf4d;
      }

      .cls-2 {
        fill: #040000;
      }

      .cls-3 {
        fill: #fff;
      }

      .cls-4 {
        fill: #e17261;
      }

      .cls-5 {
        fill: #595857;
      }

      .cls-6 {
        fill: none;
        stroke: #fff;
        stroke-linecap: round;
        stroke-linejoin: round;
        stroke-width: 1.2px;
      }
    </style>
  </defs>
  <!-- Generator: Adobe Illustrator 28.7.8, SVG Export Plug-In . SVG Version: 1.2.0 Build 200)  -->
  <g>
    <g id="_圖層_1" data-name="圖層_1">
      <g>
        <g>
          <g>
            <path class="cls-5" d="M402.9,30.9c0,2-1.7,3.7-3.7,3.7s-3.7-1.7-3.7-3.7,1.7-3.7,3.7-3.7c2.1,0,3.7,1.7,3.7,3.7ZM399.2,26.7c-2.4,0-4.3,1.9-4.3,4.3s1.9,4.3,4.3,4.3,4.3-1.9,4.3-4.3c0-2.4-1.9-4.3-4.3-4.3Z"/>
            <path class="cls-5" d="M397.3,33.5v-5h2.2c.5,0,.8,0,1,.1.2.1.4.2.6.5.1.2.2.5.2.7s-.1.6-.3.9c-.2.2-.6.4-1.1.5.2,0,.3.2.4.2.2.2.4.4.6.7l.9,1.4h-.8l-.7-1c-.2-.3-.3-.5-.5-.7-.1-.2-.2-.3-.3-.3s-.2-.1-.3-.1h-1.1v2.2h-.8ZM398,30.7h1.4c.3,0,.5,0,.7-.1.2,0,.3-.2.4-.3s.1-.3.1-.5-.1-.5-.2-.6c-.2-.2-.5-.2-.8-.2h-1.6v1.7h0Z"/>
          </g>
          <g>
            <path class="cls-4" d="M233.2,12.3l3.5-.2c0,1.1.2,1.8.6,2.2.5.6,1.6,1,3,1s2.1-.2,2.7-.6c.5-.4.8-1,.8-1.6s-.2-1-.7-1.3c-.3-.3-1.2-.7-2.6-1.3-1.4-.6-2.4-1.1-3.1-1.5s-1.2-.9-1.5-1.6-.6-1.4-.6-2.2c0-1.5.6-2.8,1.6-3.7s2.7-1.5,4.7-1.5,3.7.5,4.9,1.5c1.2,1,1.8,2.3,1.9,3.9l-3.5.2c-.1-.9-.4-1.5-.9-2-.5-.5-1.3-.7-2.4-.7s-1.8.2-2.2.5c-.5.3-.6.8-.6,1.4s.2.9.6,1.3,1.3.8,2.7,1.4c2.1.9,3.4,1.6,4,2.2.9.8,1.3,1.8,1.3,3.2s-.6,2.9-1.9,4-3,1.7-5.2,1.7-2.9-.2-4-.7-1.9-1.2-2.4-2.1c-.3-1.1-.6-2.2-.5-3.3Z"/>
            <path class="cls-1" d="M252,5.1h3.3l-.3,1.6c1.3-1.3,2.7-1.8,4-1.8s1.7.2,2.2.6.9,1,1,1.7c.5-.6,1.1-1.2,2-1.6.9-.5,1.7-.6,2.6-.6s1.8.3,2.4.9.9,1.3.9,2.2-.2,1.2-.4,2.3l-1.7,7.9h-3.5l1.7-7.9c.2-1,.3-1.6.3-1.7,0-.3-.1-.6-.3-.9-.2-.2-.6-.3-1-.3-.9,0-1.7.5-2.4,1.4-.5.6-.9,1.8-1.3,3.5l-1.2,5.9h-3.5l1.6-7.8c.2-.9.3-1.5.3-1.7,0-.3-.1-.6-.3-.9-.2-.2-.6-.3-1-.3s-.8.1-1.2.3c-.4.2-.7.5-1.1.9-.3.4-.6.9-.8,1.6-.1.3-.3,1-.5,2l-1.2,5.9h-3.5l2.7-13.1Z"/>
            <path class="cls-1" d="M276.5,8.8l-3.4-.3c.4-1.2,1-2.1,2-2.7s2.2-1,3.9-1,2.9.3,3.7,1c.8.7,1.2,1.5,1.2,2.5s0,.8-.1,1.3c0,.5-.3,1.6-.7,3.5-.3,1.6-.5,2.7-.5,3.2s.1,1.2.3,1.8h-3.3c-.2-.5-.3-1-.3-1.4-.5.6-1.1,1-1.8,1.3-.7.3-1.3.5-2,.5-1.1,0-2-.3-2.7-1-.7-.7-1-1.6-1-2.7s.4-2.2,1.2-3c.7-.7,2.1-1.2,4.1-1.3,1.7-.1,2.8-.3,3.3-.5.2-.5.2-.9.2-1.2s-.2-.7-.5-.9-.7-.4-1.3-.4-1.1.1-1.4.4c-.3.2-.6.6-.7,1ZM279.8,12c-.2,0-.5.1-.9.2-1.7.2-2.9.5-3.5.9-.4.3-.6.7-.6,1.2s.2.7.5,1,.7.4,1.2.4,1-.1,1.5-.4.8-.6,1-1c.2-.4.5-1,.6-1.9v-.5Z"/>
            <path class="cls-1" d="M288,5.1h3.3l-.5,2.5c1.2-1.8,2.5-2.8,3.9-2.8s1,.1,1.6.4l-1.3,2.9c-.3-.1-.6-.2-1-.2-.6,0-1.2.2-1.8.7-.6.5-1.1,1.1-1.4,1.8-.3.7-.7,2-1,3.6l-.8,4.1h-3.5l2.7-13.1Z"/>
            <path class="cls-1" d="M296.1,7.7l.5-2.6h1.7l.4-2.1,4-2.4-.9,4.5h2.1l-.5,2.6h-2.1l-1.2,5.5c-.2,1-.3,1.6-.3,1.7,0,.3,0,.5.2.6.2.2.5.2.9.2s.5,0,1.2,0l-.6,2.6c-.6.1-1.2.2-1.8.2-1.2,0-2.1-.2-2.7-.7-.6-.5-.8-1.2-.8-2s.2-1.3.5-2.8l1.1-5.2h-1.8Z"/>
            <path class="cls-4" d="M307.2,18.1h-3.7l3.7-17.9h8c1.4,0,2.4.1,3.2.4s1.4.8,1.8,1.6c.5.7.7,1.7.7,2.7,0,1.5-.5,2.8-1.4,3.7s-2.3,1.6-4.1,1.8c.5.4.9,1,1.3,1.7.8,1.4,1.7,3.4,2.8,5.9h-4c-.3-1-.9-2.6-1.8-4.7-.5-1.2-1-2-1.6-2.3-.3-.2-1-.3-1.8-.3h-1.5l-1.5,7.4ZM309.4,8h2c2,0,3.3-.1,3.9-.3.6-.2,1.2-.6,1.5-1.1s.6-1,.6-1.6-.3-1.2-.8-1.4c-.3-.2-1-.3-2.1-.3h-4l-1,4.7Z"/>
            <path class="cls-1" d="M334.1,12.7h-8.8v.3c0,.9.2,1.6.7,2.1s1.1.8,1.8.8c1.2,0,2.1-.6,2.7-1.8l3.1.5c-.6,1.3-1.4,2.2-2.4,2.8-1,.6-2.1.9-3.4.9s-3.2-.6-4.3-1.7-1.6-2.6-1.6-4.4.5-3.3,1.5-4.7c1.3-1.9,3.2-2.8,5.7-2.8s2.8.5,3.7,1.5,1.4,2.4,1.4,4.1,0,1.6-.2,2.2ZM331.2,10.5v-.3c0-1-.2-1.7-.6-2.2-.4-.5-1-.7-1.7-.7s-1.4.3-2,.8-1,1.4-1.2,2.4h5.5Z"/>
            <path class="cls-1" d="M340.4,8.8l-3.4-.3c.4-1.2,1-2.1,2-2.7s2.2-1,3.9-1,2.9.3,3.7,1c.8.7,1.2,1.5,1.2,2.5s0,.8-.1,1.3c0,.5-.3,1.6-.7,3.5-.3,1.6-.5,2.7-.5,3.2s.1,1.2.3,1.8h-3.3c-.2-.5-.3-1-.3-1.4-.5.6-1.1,1-1.8,1.3s-1.3.5-2,.5c-1.1,0-2-.3-2.7-1-.7-.7-1-1.6-1-2.7s.4-2.2,1.2-3c.7-.7,2.1-1.2,4.1-1.3,1.7-.1,2.8-.3,3.3-.5.2-.5.2-.9.2-1.2s-.2-.7-.5-.9-.7-.4-1.3-.4-1.1.1-1.4.4c-.4.2-.6.6-.7,1ZM343.7,12c-.2,0-.5.1-.9.2-1.7.2-2.9.5-3.5.9-.4.3-.6.7-.6,1.2s.2.7.5,1,.7.4,1.2.4,1-.1,1.5-.4c.5-.3.8-.6,1-1s.5-1,.6-1.9v-.5Z"/>
            <path class="cls-1" d="M361.3,18.1h-3.3l.3-1.4c-.6.6-1.3,1-1.9,1.3-.6.3-1.3.4-2.1.4-1.3,0-2.4-.5-3.3-1.4-.8-.9-1.3-2.2-1.3-4.1s.6-4,1.8-5.6,2.8-2.5,4.7-2.5,3.1.7,4,2.1l1.4-6.7h3.5l-3.8,17.9ZM353.2,12.9c0,.9.2,1.7.7,2.2.5.5,1,.8,1.7.8s1.3-.2,1.8-.6c.6-.5,1-1.1,1.3-2,.3-.9.5-1.7.5-2.6s-.2-1.7-.7-2.2-1.1-.9-1.8-.9c-1,0-1.9.6-2.5,1.7-.6,1-1,2.3-1,3.6Z"/>
            <path class="cls-1" d="M367.3,5.1h3.5l-2.7,13h-3.5l2.7-13ZM368.3.2h3.5l-.6,3.1h-3.5l.6-3.1Z"/>
            <path class="cls-1" d="M374.3,5.1h3.3l-.3,1.7c.9-.7,1.6-1.2,2.4-1.6.7-.3,1.5-.5,2.3-.5s2,.3,2.5.9c.6.6.9,1.4.9,2.5s-.2,1.3-.5,2.6l-1.6,7.3h-3.5l1.6-7.3c.2-1.1.3-1.7.4-2,0-.5-.1-.8-.4-1.1s-.6-.4-1.2-.4-1.1.2-1.7.6-1.2,1-1.5,1.7c-.3.5-.6,1.6-.9,3.1l-1.1,5.3h-3.5l2.7-13Z"/>
            <path class="cls-1" d="M386.6,18.8l3.7.5c0,.3,0,.6.2.9.1.2.3.3.6.5.3.1.6.2,1.1.2.8,0,1.4-.2,1.9-.5.3-.2.6-.6.9-1.1.1-.3.3-1,.5-2.1v-.6c-1.2,1-2.5,1.5-3.8,1.5s-2.3-.5-3.1-1.3-1.2-2.2-1.2-3.9.3-2.9.8-4.1c.6-1.3,1.3-2.2,2.3-2.9s2-1,3.1-1,1.6.2,2.4.7c.7.5,1.3,1.1,1.7,1.9l.5-2.3h3.3l-2.1,10.8c-.3,1.7-.7,3-.9,3.7s-.6,1.3-.9,1.8c-.3.5-.7.8-1.3,1.1-.5.3-1.1.5-1.8.6s-1.4.2-2.2.2c-1.8,0-3.2-.3-4.1-.9s-1.4-1.7-1.4-3.1c0-.1,0-.3,0-.5ZM390.8,12.4c0,1,.2,1.7.6,2.2.5.5,1,.7,1.7.7s1.2-.2,1.8-.7c.6-.5,1-1.1,1.3-2s.5-1.7.5-2.5-.2-1.7-.7-2.2c-.5-.6-1.1-.9-1.8-.9s-1.2.2-1.7.7-.9,1.3-1.3,2.3c-.2.8-.3,1.5-.3,2.1Z"/>
          </g>
          <g>
            <path class="cls-1" d="M405,11.1h6.7l-.7,3.3h-6.7l.7-3.3Z"/>
            <path class="cls-4" d="M412.6,19.1l3.7-17.6h13.1l-.6,2.9h-9.5l-.9,4h9.1l-.6,2.9h-9.1l-1.1,4.8h10.3l-.6,2.9h-13.7Z"/>
            <path class="cls-1" d="M431.7,6.3h3.3l-.3,1.7c.8-.7,1.6-1.2,2.3-1.5.7-.3,1.4-.5,2.2-.5s1.9.3,2.5.9c.6.6.9,1.4.9,2.4s-.1,1.3-.4,2.5l-1.5,7.2h-3.5l1.5-7.3c.2-1.1.3-1.7.3-2,0-.5-.1-.8-.4-1s-.6-.4-1.1-.4-1,.2-1.7.6-1.1,1-1.4,1.7c-.2.5-.5,1.5-.9,3.1l-1.1,5.2h-3.5l2.7-12.7Z"/>
            <path class="cls-1" d="M443.8,19.8l3.6.5c0,.3,0,.6.2.8.1.2.3.3.6.5.3.1.6.2,1.1.2.7,0,1.3-.1,1.7-.5.3-.2.6-.6.8-1.1.1-.3.3-1,.5-2v-.6c-1.1,1-2.3,1.5-3.6,1.5s-2.2-.5-3.1-1.3-1.2-2.2-1.2-3.9.3-2.9.8-4.1c.5-1.3,1.3-2.2,2.3-2.8s2-1,3-1,1.6.2,2.3.7c.7.5,1.3,1.1,1.7,1.9l.5-2.2h3.2l-2.2,10.6c-.3,1.7-.7,2.9-.9,3.6-.2.7-.5,1.3-.9,1.7-.3.5-.7.8-1.2,1.1s-1,.5-1.7.6-1.4.2-2.2.2c-1.8,0-3.2-.3-4.1-.9s-1.4-1.6-1.4-3.1c.1-.1.1-.3.1-.5ZM447.9,13.6c0,1,.2,1.7.6,2.2.5.5,1,.7,1.6.7s1.2-.2,1.7-.7c.6-.5,1-1.1,1.3-2s.5-1.7.5-2.4-.2-1.6-.7-2.2c-.5-.6-1-.8-1.7-.8s-1.2.2-1.7.7c-.5.5-.9,1.3-1.3,2.2-.2.8-.3,1.5-.3,2.1Z"/>
            <path class="cls-1" d="M459,19.1l3.7-17.6h3.5l-3.7,17.6h-3.5Z"/>
            <path class="cls-1" d="M468.5,6.3h3.5l-2.7,12.7h-3.5l2.7-12.7ZM469.5,1.5h3.5l-.6,3.1h-3.5l.6-3.1Z"/>
            <path class="cls-1" d="M472.3,15.5l3.3-.5c.3.7.7,1.2,1.1,1.5.5.3,1,.5,1.8.5s1.4-.2,1.9-.5c.3-.2.5-.5.5-.9s0-.5-.2-.6c-.2-.2-.6-.4-1.4-.6-2.1-.7-3.4-1.2-3.9-1.6-.7-.6-1.2-1.4-1.2-2.5s.4-1.9,1.2-2.6c1-1,2.6-1.5,4.7-1.5s2.9.3,3.7.9c.9.6,1.4,1.4,1.6,2.4l-3.2.6c-.2-.5-.5-.8-.8-1-.5-.3-1.2-.5-1.8-.5s-1.3.1-1.6.3-.5.5-.5.8.2.6.5.8c.2.1.9.3,2,.7,1.7.5,2.8,1,3.4,1.4.8.7,1.2,1.4,1.2,2.4s-.5,2.2-1.5,3.2c-1,.9-2.5,1.3-4.3,1.3s-3.3-.3-4.3-1c-1.2-.8-1.9-1.7-2.2-3Z"/>
            <path class="cls-1" d="M489.9,19.1h-3.5l3.7-17.6h3.5l-1.3,6.3c.7-.6,1.5-1,2.2-1.3s1.4-.4,2.2-.4,1.8.3,2.5.9c.6.6.9,1.4.9,2.3s-.1,1.3-.3,2.4l-1.6,7.4h-3.5l1.6-7.6c.2-.8.2-1.3.2-1.6s-.1-.7-.4-1c-.3-.2-.6-.4-1.1-.4s-1.2.2-1.7.6c-.7.5-1.2,1.2-1.6,2-.2.4-.5,1.4-.8,3l-1.1,5.2Z"/>
          </g>
          <g>
            <path class="cls-4" d="M235,28.9h4.3v-1.1c0-.1.1-.2.3-.2.9,0,1.3,0,1.3.2,0,.2,0,.2-.2.3-.1,0-.2.1-.2.3v.5h4.2v-1c0-.1.1-.2.3-.2.9,0,1.3,0,1.3.2s0,.2-.2.2-.2.1-.2.3v.5h4c.1,0,.2.1.2.3v.5c0,.2,0,.3-.2.3h-4v1.2c0,.1-.1.2-.3.2h-.6c-.2,0-.3,0-.3-.2v-1.2h-4.2v1.2c0,.1-.1.2-.3.2h-.6c-.2,0-.3,0-.3-.2v-1.2h-4.3c-.1,0-.2-.1-.2-.3v-.5c0-.3,0-.3.2-.3ZM237.6,32.5h4.2v-1.4c0-.1,0-.2,0-.2h1.2c.2.2.3.2.3.3,0,.1,0,.2-.2.2s-.2.1-.2.3v.9h4.3c.2,0,.3,0,.3.2v3.9h2.4c.1,0,.2.1.2.3v.5c0,.2,0,.3-.2.3h-6.6c.3.5.6,1,.9,1.3.3.4.8.8,1.4,1.2.3.2.9.5,1.6.9.5.2,1,.4,1.7.6.3,0,.6.1,1.1.2.1,0,.2,0,.2,0,0,.1,0,.2-.2.3-.2.2-.3.5-.5.6,0,.1-.2.2-.3.2-1-.2-1.8-.6-2.6-.9-.7-.3-1.2-.6-1.6-1-.6-.4-1.1-.9-1.5-1.3-.3-.3-.7-.9-1-1.4-.2.4-.3.7-.6,1.1-.4.5-.9,1-1.7,1.6-.9.6-1.9,1.2-3.1,1.6-.7.2-1.2.3-1.5.3s-.2,0-.2-.2c-.1-.3-.3-.6-.5-.8,0,0-.1,0-.1,0,0-.1,0-.1.1-.1,1-.1,1.8-.3,2.4-.6.8-.3,1.4-.6,2-1,.6-.4,1.1-.9,1.5-1.4.3-.3.5-.7.6-1.2h-6.4c-.1,0-.2-.1-.2-.3v-.5c0-.2,0-.3.2-.3h2.2v-3.8c0-.2,0-.3.2-.3ZM238.5,36.6h3.2c0-.4,0-.9,0-1.4v-1.7h-3.3v3.1h0ZM243,33.5v1.6c0,.5,0,1,0,1.4h3.5v-3h-3.4Z"/>
            <path class="cls-4" d="M253.2,30.3h5.9c.1,0,.2.1.2.3v.5c0,.2,0,.3-.2.3h-5.9c-.1,0-.2-.1-.2-.3v-.5c0-.2,0-.3.2-.3ZM254,37.3h4.5c.2,0,.3,0,.3.2v5.1c0,.1-.1.2-.3.2h-.7c-.2,0-.2,0-.2-.2v-.8h-2.7v.8c0,.1-.1.2-.3.2h-.6c-.2,0-.3,0-.3-.2v-5c0-.2.1-.3.3-.3ZM254,27.9h4.4c.1,0,.2,0,.2.2v.5c0,.2,0,.3-.2.3h-4.4c-.1,0-.2-.1-.2-.3v-.5c0-.2,0-.2.2-.2ZM254,32.6h4.4c.1,0,.2.1.2.3v.5c0,.2,0,.3-.2.3h-4.4c-.1,0-.2-.1-.2-.3v-.5c0-.2,0-.3.2-.3ZM254,34.8h4.4c.1,0,.2.1.2.3v.5c0,.2,0,.2-.2.2h-4.4c-.1,0-.2,0-.2-.2v-.5c0-.2,0-.3.2-.3ZM254.9,40.7h2.7v-2.4h-2.7v2.4ZM260,28h7.7c.1,0,.1,0,.1.2v.5c0,.2,0,.3-.1.3h-3.5l-.6,2.1h3.1c.2,0,.3,0,.3.2v3.5h1.3c.1,0,.1,0,.1.2v.5c0,.2,0,.3-.1.3h-8.8c-.1,0-.1-.1-.1-.3v-.5c0-.1,0-.2.1-.2h2.1l.7-2.7h-1.8c-.1,0-.1-.1-.1-.3v-.5c0-.1,0-.2.1-.2h2.1l.6-2.1h-3c-.1,0-.1-.1-.1-.3v-.5c-.2-.1-.2-.2,0-.2ZM260.5,36.9h6.5c.2,0,.3,0,.3.2v5.5c0,.1-.1.2-.3.2h-.6c-.2,0-.3,0-.3-.2v-.8h-4.7v.8c0,.1-.1.2-.3.2h-.6c-.2,0-.3,0-.3-.2v-5.5c0-.2.1-.2.3-.2ZM261.4,40.8h4.7v-2.9h-4.7v2.9ZM262.7,34.7h3.1v-2.7h-2.4l-.7,2.7Z"/>
            <path class="cls-4" d="M271.5,35.3h3.1c.2,0,.3,0,.3.2v4.4c0,.4,0,.7.2.9.1.2.2.3.4.5.2.2.6.3.9.3.5,0,.9.1,1.5.1h3.6c1.4,0,3.1-.2,5-.5.1,0,.2,0,.2,0q.1,0,.1,0c-.1.5-.2.9-.3,1.4,0,.2-.1.3-.3.3h-8.3c-.4,0-.8,0-1.2,0-.3,0-.7-.1-1.1-.3-.3-.1-.6-.3-.9-.5-.2-.2-.4-.5-.6-.9h0c0,0-.1,0-.1,0-1.1.8-1.7,1.4-1.8,1.7q0,0-.2,0c0,0-.3-.3-.6-.9,0-.1,0-.2,0-.3.6-.3,1.4-.7,2.4-1.4,0,0,0-.2,0-.3v-3.5h-2.1c-.1,0-.2-.1-.2-.3v-.5c0-.3.1-.3.2-.3ZM272.3,31.2c.6.3,1.1.6,1.4,1,.5.3.8.6,1.1,1,0,0,0,0,0,.2-.3.5-.5.7-.5.7-.5-.5-1-.9-1.6-1.3-.5-.3-.8-.5-1.1-.6,0,0,.2-.3.5-.7.1-.1.2-.2.2-.2ZM272.7,27.8c.6.3,1,.6,1.4.8.4.3.8.6,1.1.8,0,0,0,0,0,.2-.3.5-.5.7-.5.7-.5-.4-1-.7-1.5-1.1-.4-.3-.8-.5-1.1-.6,0,0,.2-.3.5-.7,0,0,.1,0,.2,0ZM280.8,27.3c.9,0,1.3,0,1.3.2,0,.2,0,.2-.2.2s-.2.1-.2.3v.8h4.5c.1,0,.1,0,.1.2v.5c0,.1,0,.2-.1.2h-2.9l.6.2c.2,0,.2.1.2.2s0,.1-.2.2c-.1,0-.2,0-.2.2-.2.5-.3.9-.5,1.2h2.1c.2,0,.3,0,.3.2v7.9c0,.3-.2.6-.5.7-.3.1-.7.2-1.2.3-.1,0-.2,0-.2-.2,0-.2-.1-.6-.4-1.1,0,0,0,0,.1,0,.5,0,.8,0,.9-.1.1,0,.2-.2.2-.3v-6.3h-3.1v1.2h2.4c.1,0,.1,0,.1.2v.5c0,.1,0,.2-.1.2h-2.4v1.2h1.5c.2,0,.3,0,.3.2v2.9c0,.1-.1.2-.3.2h-3.2v.5c0,.1-.1.2-.3.2h-.6c-.1,0-.2,0-.2-.2v-3.5c0-.1,0-.2.2-.2h1.5v-1.2h-2.1c-.1,0-.1,0-.1-.2v-.5c0-.1,0-.2.1-.2h2.1v-1.2h-2.8v7.7c0,.1-.1.2-.3.2h-.6c-.2,0-.3,0-.3-.2v-8.4c0-.1.1-.2.3-.2h2.4c0,0,0-.2-.1-.2-.2-.4-.4-.8-.7-1.2,0,0,.3-.2.9-.5.3.5.6.9.7,1.2.1.2.2.5.3.7h1.8c.2-.3.4-.6.5-.8.2-.3.3-.7.5-1.1h0c0,0-6.9,0-6.9,0-.1,0-.1,0-.1-.2v-.5c0-.1,0-.2.1-.2h4.4v-1.4c0-.2.1-.3.3-.3ZM279.7,38.6h2.4v-1.4h-2.4v1.4Z"/>
            <path class="cls-4" d="M290.2,30.5c.9.2,1.3.3,1.3.4s0,.2-.2.3c-.1.1-.2.2-.2.4-.1,1.2-.2,2.1-.4,2.9-.1.4-.2.9-.4,1.3,0,.1,0,.2-.1.2-.3-.1-.7-.2-1-.2-.1,0-.2,0-.2-.2.2-.6.4-1.2.6-1.8.2-.7.3-1.7.4-2.9,0-.2.1-.3.2-.3ZM291.9,27.3c.9,0,1.3,0,1.3.2,0,.2,0,.2-.2.2s-.2.1-.2.3v14.5c0,.1-.1.2-.3.2h-.6c-.2,0-.3,0-.3-.2v-15.2c0,0,.1-.1.3-.1ZM294,30.4c.1,0,.2,0,.2,0,.3.7.6,1.6.9,2.5,0,.2,0,.2-.1.2-.4.3-.7.4-.9.4-.2-1.1-.5-2-.7-2.7,0-.1.3-.3.7-.5ZM296.6,28.6l1.2.4c.1.1.2.2.2.2,0,.1,0,.2-.1.2-.1,0-.1,0-.2.2-.1.5-.2,1-.3,1.4h2.2v-3.5c0-.1.1-.2.3-.2.9,0,1.3,0,1.3.2,0,.2,0,.2-.2.2s-.2.1-.2.3v2.9h3.7c.1,0,.2.1.2.3v.5c0,.2,0,.3-.2.3h-3.7v3.9h3.3c.1,0,.2.1.2.3v.5c0,.2,0,.3-.2.3h-3.3v4.1h4.1c.1,0,.2.1.2.3v.5c0,.2,0,.2-.2.2h-9.7c-.1,0-.2,0-.2-.2v-.5c0-.2,0-.3.2-.3h4.4v-4.1h-3.2c-.1,0-.2-.1-.2-.3v-.5c0-.2,0-.3.2-.3h3.2v-3.9h-2.4c-.2.5-.3,1-.5,1.5-.2.5-.4.9-.6,1.2-.1,0-.3,0-.3,0-.2-.1-.5-.2-.6-.2,0,0-.1,0-.1-.1s0-.1,0-.1c.3-.5.6-1.2.9-2,.2-.5.3-.9.4-1.4s.2-1.2.3-2.1q0-.1,0-.1Z"/>
            <path class="cls-4" d="M308.4,27.6h5.5c.2,0,.3,0,.3.2v4.7c0,.1-.1.2-.3.2h-4.6v9.7c0,.1-.1.2-.3.2h-.6c-.2,0-.3,0-.3-.2v-14.7c0-.2.1-.2.3-.2ZM309.4,29.7h3.8v-1.2h-3.8v1.2ZM309.4,31.8h3.8v-1.2h-3.8v1.2ZM312.5,33.8l1,.4c.2,0,.2.1.2.2s0,.1-.2.1-.3,0-.4.1c-.3.3-.6.6-.9.8h5.9c-.1,0-.2-.2-.3-.2-.3-.2-.5-.5-.6-.9,0,0,0,0,0-.1h-2.4c-.1,0-.2-.1-.2-.3v-.5c0-.1,0-.2.2-.2h3.1c.2,0,.3,0,.3.2,0,.3,0,.5.2.7.1.2.3.3.5.5.2.1.5.3.8.4.2,0,.5.1.8.2,0,0,.1,0,.1,0s0,0-.2.1c-.2.2-.3.4-.5.6,0,0-.2.1-.3.1-.2,0-.5-.1-.7-.3-.1,0-.2-.1-.3-.1v3.1c0,.1-.1.2-.3.2h-1.4v1.3c0,.5.3.6.8.6h.6c.1,0,.2,0,.2-.2s0-.3,0-.8,0-.1,0-.1c.3.2.6.2.9.3.1,0,.2,0,.2.2-.1.7-.2,1.1-.3,1.3-.1.2-.2.3-.5.3h-1.8c-.9,0-1.3-.3-1.3-1v-2h-1.2c0,.3,0,.6,0,.8,0,.3-.2.6-.3.9-.1.2-.3.5-.6.7-.3.2-.6.4-1,.6-.3.1-.7.2-1.1.3-.1,0-.2,0-.2-.2-.2-.2-.3-.4-.4-.6,0,0,0-.1,0-.2.6-.1,1-.2,1.3-.3.3-.1.5-.2.6-.3.2-.1.3-.2.4-.4.1-.2.2-.4.2-.6,0-.2,0-.3,0-.6h-1.2c-.2,0-.3,0-.3-.2v-3.1c-.1.1-.3.2-.4.3-.1,0-.2.1-.3.1s-.2,0-.3-.1c-.2-.1-.5-.2-.6-.3h-.1c0,0,0-.1.1-.2.5-.3.9-.5,1.2-.7.4-.3.7-.6.9-.9,0-.1.1-.1.2-.1ZM317.2,38v-1.5h-4.1v1.5h4.1ZM316.3,27.6h5.6c.2,0,.3,0,.3.2v13.3c0,.6-.2,1-.6,1.3-.4.2-.9.4-1.5.5-.1,0-.2,0-.2-.2,0-.2-.2-.6-.4-1.1,0,0,0-.1.1-.1.7,0,1.1,0,1.2-.2s.2-.3.2-.6v-7.9h-4.7c-.2,0-.3,0-.3-.2v-4.7c0-.2,0-.2.2-.2ZM317.2,29.7h3.8v-1.2h-3.8v1.2ZM317.2,31.8h3.8v-1.2h-3.8v1.2Z"/>
            <path class="cls-4" d="M325.9,30.1h5.1c.1,0,.2.1.2.3v.5c0,.2,0,.3-.2.3h-5.1c-.1,0-.2-.1-.2-.3v-.5c0-.2,0-.3.2-.3ZM326.4,37.5h4.1c.2,0,.3,0,.3.2v4.6c0,.1-.1.2-.3.2h-.7c-.1,0-.2,0-.2-.2v-.5h-2.4v.8c0,.1-.1.2-.3.2h-.6c-.1,0-.2,0-.2-.2v-4.8c0-.1,0-.2.2-.2ZM326.7,27.7h3.7c.1,0,.2.1.2.3v.5c0,.2,0,.3-.2.3h-3.7c-.1,0-.2-.1-.2-.3v-.5c0-.2,0-.3.2-.3ZM326.7,32.5h3.7c.1,0,.2.1.2.3v.5c0,.2,0,.3-.2.3h-3.7c-.1,0-.2-.1-.2-.3v-.5c0-.2,0-.3.2-.3ZM326.7,34.9h3.7c.1,0,.2,0,.2.2v.5c0,.2,0,.2-.2.2h-3.7c-.1,0-.2,0-.2-.2v-.5c0-.1,0-.2.2-.2ZM327.3,40.6h2.4v-2.2h-2.4v2.2ZM332.7,35.7h7.3c.2,0,.3,0,.3.2v5c0,.1-.1.2-.3.2h-1.6c.3.2.6.3.9.5.3.2.9.3,1.5.5.1,0,.1.1.1.1,0,.1-.2.3-.6.8h-.2c-1.3-.5-2.2-1-2.8-1.4,0,0-.1,0-.1-.1s.1-.2.3-.4h-2.5c.4.3.6.5.6.6s0,.1-.2.1c-.2,0-.3,0-.3,0-.9.5-1.8.9-2.8,1.3-.1,0-.2,0-.3-.1,0-.1-.2-.3-.3-.4,0,0-.1-.1-.1-.2s0,0,.1-.1c.5-.2,1-.3,1.3-.5.4-.2.8-.4,1.2-.7h-1.7c-.2,0-.3,0-.3-.2v-5c.1-.2.2-.2.4-.2ZM331.9,28.4h3.8v-.9c0-.1,0-.1.2-.1.8,0,1.2,0,1.2.2s0,.2-.1.2c-.1,0-.1.1-.1.3v.3h3.8c.1,0,.1,0,.1.2v.4c0,.2,0,.3-.1.3h-3.8v.7h3.1c.1,0,.1,0,.1.2v.4c0,.2,0,.3-.1.3h-7.4c-.1,0-.1-.1-.1-.3v-.4c0-.1,0-.2.1-.2h3.2v-.7h-3.8c-.1,0-.1-.1-.1-.3v-.4c0-.2,0-.2,0-.2ZM332,31.6h8.5c.2,0,.3,0,.3.2v3.1c0,.1-.1.2-.3.2h-8.5c-.2,0-.3,0-.3-.2v-3.1c0-.1.1-.2.3-.2ZM334.3,34.3v-2.1h-1.4v2.1h1.4ZM333.5,37.3h5.6v-.8h-5.6v.8ZM333.5,38.8h5.6v-.8h-5.6v.8ZM339.1,40.3v-.7h-5.6v.7h5.6ZM337,34.3v-2.1h-1.6v2.1h1.6ZM339.7,34.3v-2.1h-1.7v2.1h1.7Z"/>
          </g>
        </g>
        <path class="cls-2" d="M5.1,19.2l.2-.2s3.4-2.3,13.5-10.8h0c0,0,.2-.3.2-.3h0c0,0,.5.5.5.5l2.3,2.9c-10,7.9-12,9.5-12,9.5h0s0,0,0,0c0,0,0,.1,0,.2s0,.2,0,.2c0,0,2.5,1.7,13.9,10.6l.9.7-.3.3c0,0,0,0,0,0l-2.6,3c-13.6-10.3-15.5-11.8-15.5-11.8h0s0,0-.2,0,0,0-.1,0h0c-.3.2-.8.6-1.1.9h-.1c0,.2-.2.3-.2.6v9.6H0V8.4h4.6v10.4h0c0,.2,0,.4.2.4,0,0,.1,0,.2,0ZM51.6,24c0,2-.2,4-1.5,5.4-.7.7-2.5,2-5.8,2s-3.9-.7-5.3-2.1c-1.1-1.1-1.4-2.3-1.4-5v-15.8h-4.6v16.6c0,7.8,6.1,10.6,11.2,10.6,7.6,0,12-4,12-11V8.4h-4.6s0,15.6,0,15.6ZM94.4,8.4h.1v26.9h-4.6v-18.8c0-.1-.1-.3-.3-.3s-.1,0-.2,0h0c-2.1,2.7-7.3,8.7-7.4,8.8h0c-.1.2-.3.2-.5.2s-.4,0-.5-.2h0c0-.1-5.1-6.4-7.4-8.7h0c0-.1,0-.1-.2-.1-.1,0-.2,0-.2.2h0v18.8h-4.6V8.4h4.2c.4.4,6.8,8.3,8.7,10.1h0c0,0,.1.1.2.1s.1,0,.2,0c1.6-1.9,8.5-9.8,8.8-10.2h0s4,0,4,0ZM149.4,20.2v-1.1c0,0-.1-.3-.1-.3v-.3c0,0-.1-.7-.1-.7v-.2c0,0-.1-.1-.1-.1v-.2c0,0,0-.2,0-.2v-.3c-.1,0-.1-.2-.1-.2v-.3c0,0-.1-.3-.1-.3h0c0-.1,0-.4,0-.4v-.4c0,0-.2-.2-.2-.2h0c0-.1-.3-1-.3-1v-.2c-.1,0-.6-.8-.6-.8l-.3-.8-.3-.8v-.3c0,0-.5-.7-.5-.7h0c0-.1-.2-.5-.2-.5l-.5-.5-.2-.3-.3-.3v-.3c-.1,0-.3-.1-.3-.1l-.2-.2h-.2c0-.1-.2-.3-.2-.3l-.4-.3-.2-.3-.3-.4-.4-.3-.5-.3h-.3c0,0-.2-.3-.2-.3l-.3-.2v-.2c-.1,0-.3-.1-.3-.1h-.2c0-.1-.5-.4-.5-.4h-.2c0-.1-.4-.5-.4-.5l-.9-.4-.7-.5h-.3c0-.1-.3-.3-.3-.3h-.2c0-.1-.7-.1-.7-.1h-.1c0,0-.2-.2-.2-.2h-.4s-.2-.2-.2-.2h-.4c0-.1-.3-.2-.3-.2l-.4-.2h-.3l-1.3-.3h-.3c0,0-.5,0-.5,0h-.1c0,0-.1-.1-.1-.1h-1c0-.1-.5-.1-.5-.1h-.4c0-.1-.6-.1-.6-.1h-.3c0,0-.6-.1-.6-.1h-.3s-1.2,0-1.2,0h-.3s-.6,0-.6,0h-.3c0,0-.7,0-.7,0h-.3s-.6,0-.6,0h-.2s-.3.1-.3.1h-.9c0,0-.1.2-.1.2h0v-.6c0,0-.3-.2-.3-.2l-.5-.2h-.2c0,0-.3,0-.3,0h-1.3c0,0,0,.1,0,.1h-.3c0,.1-.6.3-.6.3l-.8.2h-1c0,0-.5.2-.5.2l-.2.2-.3.2-.5.2h-.4c0,0-.3.3-.3.3h-.4s-.2.1-.2.1l-.5.2-.8.7-.2.2h-.2c0,.1-.3.5-.3.5l-.4.3-.2.2-.2.2-.2.4-.2.2-.2.3-.3.2-.2.3-.2.2-.2.4v.2c-.1,0-.2.1-.2.1v.2h0c0,.1-.2.3-.2.3v.2c0,0-.4.2-.4.2l-.2.4v.2c0,0-.2.2-.2.2v.2c0,0-.4.6-.4.6v.2c-.1,0-.3.5-.3.5l-.3.4v.2c0,0-.3.5-.3.5l-.2.4v.9s-.1.3-.1.3v.2s0,.2,0,.2v.2c-.1,0-.3.4-.3.4v.4c0,0-.2.3-.2.3v.7s0,.3,0,.3l-.2,1v.8s0,.8,0,.8v.2s0,.5,0,.5v.3c0,0,0,2.8,0,2.8v.2c0,0,0,.3,0,.3v.2s0,.3,0,.3v.6c.1,0,.1.5.1.5v.5c.1,0,.1.3.1.3v.3s0,.3,0,.3v.3s.3.6.3.6v.4c0,0,.2.2.2.2v.3s.1.2.1.2l.2.5v.2c0,0,.2.2.2.2v.3s.2.2.2.2v.3c0,0,.3.4.3.4l.2.3.2.4.2.2.2.3.2.2.4.6.2.2v.2c.1,0,.3.2.3.2l.2.2.4.4.2.2.2.2.3.3h.2c0,.1.1.3.1.3l.2.2.2.2.4.4.2.2.4.3.5.4.6.4.3.2.6.4h.4c0,.1.2.3.2.3l.6.4v.2c.1,0,.4,0,.4,0h.2c0,.1.5.4.5.4h.3c0,.1.2.3.2.3l.5.2h.2c0,.1.5.4.5.4h.2c0,.1.2.2.2.2h.1c0,0,.2.1.2.1h.2c0,.1.5.3.5.3l.4.2h.2c0,.1.3.2.3.2h.2c0,0,.5.3.5.3h.5c0,0,.5.3.5.3l1.2.3h.4c0,0,.2.1.2.1h.8c0,.1.4.1.4.1h.3c0,0,1.2,0,1.2,0h.3s1.1,0,1.1,0h.9s.4,0,.4,0h.3c0,0,1.2,0,1.2,0l.9-.2h.7c0-.1.4-.1.4-.1h.2c0,0,.6-.2.6-.2h.7c0,0,.3-.1.3-.1h.4c0-.1.3-.2.3-.2h0c0,0,.1-.1.1-.1h.3l.4-.2h.2c0,0,.3-.1.3-.1h.1c0-.1.2-.2.2-.2h.3c0-.1.3-.4.3-.4h.3c0-.1.4-.4.4-.4h.3c0-.1.2-.3.2-.3h.3c0,0,.1-.2.1-.2l.3-.2.6-.6.2-.2.2-.2.3-.3.2-.2.3-.3.3-.2v-.2c.1,0,.9-.7.9-.7l.2-.2.3-.3.2-.2.2-.2v-.2c0,0,.3-.2.3-.2l.2-.2.2-.3v-.3c.1,0,.4-.2.4-.2l.2-.3.3-.4.2-.2h0c0-.1,0-.3,0-.3l.2-.4.2-.2v-.2c0,0,.3-.4.3-.4v-.3s0-.1,0-.1h0c0,0,0-.3,0-.3v-.2c0,0,.2-.3.2-.3h.1c0-.1.3-.9.3-.9v-.2c.1,0,.2-.6.2-.6v-.5c0,0,.3-1.2.3-1.2v-.4c0,0,.2-.3.2-.3v-.4s0-.7,0-.7v-.3c0,0,0-2.5,0-2.5v-.3c0,0,0-.3,0-.3v-1ZM146.4,23.9v.3s0,.3,0,.3v1c-.1,0-.2.6-.2.6v.4c-.1,0-.2.4-.2.4v.3c0,0-.1.2-.1.2v.2c0,0-.1.3-.1.3l-.2.3v.2c-.1,0-.3.4-.3.4l-.2.5v.3c0,0-.2.2-.2.2l-.3.3-.2.4v.2c-.1,0-.3.4-.3.4l-.3.4-.4.5-.4.6-.2.2-.3.4-.2.2v.2c-.1,0-.4.3-.4.3l-.3.3-.2.2h-.2c0,0-.9,1-.9,1l-.4.2-.3.3-.5.5h-.2c0,0-.3.4-.3.4l-.7.4h-.2c0,.1-.1.3-.1.3h-.2c0,0-.2.2-.2.2l-.5.2-.5.2h0c0,0-.4.1-.4.1h-.2c0,0-.5.3-.5.3l-.5.2h-.3c0,0-.2.1-.2.1h-.9c0,.1-.3.2-.3.2h-.5c0,0-.3.1-.3.1h-.5s-.3.1-.3.1h-.6s-.5.1-.5.1h-2.4c0,0-.6,0-.6,0h-.3s-.2-.1-.2-.1h-.5c0,0-.3-.1-.3-.1l-.7-.2h-.3c0,0-.2-.2-.2-.2h-.4c0-.1-.2-.2-.2-.2l-1-.3h-.2c0,0-.2-.2-.2-.2h-.5c0-.1-.2-.3-.2-.3h-.2c0,0-.5-.3-.5-.3l-.9-.4-.3-.2-1.2-.6-.7-.4-.6-.4h-.2c0,0,0-.2,0-.2h-.2c0,0-.5-.5-.5-.5h-.3c0-.1-.7-.6-.7-.6l-.5-.3h-.2c0-.1-.5-.5-.5-.5l-.4-.3-.5-.5v-.2c0,0-.5-.4-.5-.4v-.2c-.1,0-.3-.2-.3-.2l-.5-.6v-.3c-.1,0-.3-.2-.3-.2l-.2-.2-.2-.2v-.3c-.1,0-.4-.5-.4-.5l-.2-.4h-.1c0-.1,0-.4,0-.4v-.2c-.1,0-.2-.2-.2-.2h0c0-.1,0-.4,0-.4v-.2c0,0-.2,0-.2,0v-.4c-.1,0-.5-1.1-.5-1.1v-.4c-.1,0-.1-.2-.1-.2v-.2c-.1,0-.2-.3-.2-.3v-.4s0-.2,0-.2v-.5c-.1,0-.1-1.2-.1-1.2v-.2s0-.8,0-.8v-.2c0,0,0-.2,0-.2v-.9s0-.4,0-.4v-.3c0,0,0-.4,0-.4v-.7c.1,0,.1-.3.1-.3v-.6c.1,0,.1-.2.1-.2v-.4s.2-.2.2-.2v-.5c0,0,.3-.9.3-.9v-.3c0,0,.3-.6.3-.6v-.2c0,0,.3-.5.3-.5v-.5c.1,0,.3-.2.3-.2v-.4c.1,0,.7-1.1.7-1.1v-.3c.1,0,.3-.3.3-.3l.3-.4v-.3c.1,0,.3-.2.3-.2l.3-.5.2-.4.3-.3.3-.4.2-.3.3-.3.3-.3.2-.2.3-.2h.2c0-.1.2-.4.2-.4l.4-.3.6-.4h.2c0-.1.7-.5.7-.5l.4-.2h.2c0-.1,1-.5,1-.5l.8-.2h.1s.4,0,.4,0l.9-.2.5-.2h0v.6h0c0,.1.3.4.3.4l.5.2h1.3c0,0,.2-.2.2-.2h.6c0,0,.2-.2.2-.2h.4c0,0,.4-.2.4-.2h1.1s.5,0,.5,0h.3s.3,0,.3,0h.1s.3,0,.3,0h.7s.3,0,.3,0h.8c0,.1.5.1.5.1h.4c0,.1.3.1.3.1h.4c0,0,0,.2,0,.2h.8c0,0,.1.2.1.2h.8c0,.1.1.3.1.3h.4c0,0,.2.2.2.2h.2c0,0,.4.2.4.2h.4s.3.2.3.2h.5c0,.1.4.4.4.4h.3c0,.1.2.2.2.2h.2c0,.1.6.4.6.4l.4.3.3.2.3.2h.2c0,0,.3.3.3.3l.5.3.4.4.3.2.2.2h.1c0,0,0,.3,0,.3h.3c0,.1,1.5,1.7,1.5,1.7l.2.4.4.5h.1c0,.1,0,.4,0,.4l.2.3.2.4.2.4.2.4v.4c.1,0,.5.8.5.8v.3c.1,0,.2.3.2.3l.2.2v.3c0,0,.4.4.4.4l.2.5v.2s.2.4.2.4v.6c.1,0,.1.4.1.4l.2.7v.3s.3,1.2.3,1.2v3.3ZM116.9,7.4l-.5-.3h-.8c0,.1-.3.5-.3.5l-.4.7-.2.5-.2.5-.2.3v.4c-.1,0-.1.9-.1.9v.3c0,0,.1.3.1.3h0c0,.1.3.5.3.5h.4c0,0,.4,0,.4,0h.8c0,0,.2-.1.2-.1l.4-.2.4-.4.2-.3v-.6c.1,0,.3-.3.3-.3v-.4c0,0,.1-1.3.1-1.3v-.5c-.1,0-.5-.3-.5-.3h-.4ZM133.9,35.3l-.9-.3h-.9c0,0-.3-.1-.3-.1h-.4c0,0-.3-.1-.3-.1l-1.3-.2h-.3c0,0-.2-.1-.2-.1h-1c0,0-1,0-1,0l-1-.2h-1c0,0-.4-.1-.4-.1h-.2c0,0-.6,0-.6,0h-.4c0,0-.2.1-.2.1h-.1c0,.1,0,.3,0,.3v1.2s.1.2.1.2h.2c0,.1.2.5.2.5l.3.2.4.2h.3s.3,0,.3,0h.3c0,0,.2.1.2.1h.9c0,0,.9,0,.9,0h1.9c0,.1,1.2.1,1.2.1l.4-.2h.4c0,0,.2.1.2.1h.4c0,0,.3.1.3.1h.2c0,0,.2,0,.2,0h.2s.4,0,.4,0h.8s.2-.2.2-.2v-.2c0,0,.3-.5.3-.5v-.9s-.2-.2-.2-.2h-.3ZM139.6,11.9h-.3s0-.1,0-.1h-.1c0,0-.5,0-.5,0h-.2c0,0-.4.3-.4.3l-.2.2-.3.3v.2c0,0-.2.4-.2.4v.2c0,0-.1.2-.1.2v.4c0,0-.1.3-.1.3v.3c0,0,0,.8,0,.8v.4c0,0,.1.4.1.4h0c0,.1.2.2.2.2h.3s.2.2.2.2h1c0,0,.4-.5.4-.5l.2-.2h.2c0-.1.3-.4.3-.4l.3-.4.2-.7v-.9s-.3-.9-.3-.9l-.3-.3-.3-.2ZM184.1,8.4v26.9h-3.8c-12.8-14.7-16-18.5-16-18.5h0c-.2-.2-.2-.3-.2-.3,0,0-.1-.1-.2,0,0,0-.2,0-.2.3v18.6h-4.4V8.4h3.6l16.4,18.7h0c0,.1,0,.2.1.2,0,0,.1.1.2,0,0,0,.2,0,.2-.3V8.4h4.4Z"/>
        <g>
          <circle class="cls-3" cx="208.9" cy="21.3" r="5.3"/>
          <line class="cls-6" x1="205.2" y1="17.5" x2="193.1" y2="5.4"/>
          <line class="cls-6" x1="224.8" y1="37.2" x2="212.7" y2="25"/>
          <line class="cls-6" x1="212.7" y1="17.5" x2="224.9" y2="5.3"/>
          <line class="cls-6" x1="192.4" y1="37.8" x2="205.2" y2="25"/>
        </g>
      </g>
    </g>
  </g>
</svg>