<?xml version="1.0" encoding="UTF-8"?>
<svg xmlns="http://www.w3.org/2000/svg" version="1.1" viewBox="0 0 100 100">
  <defs>
    <style>
      .cls-1 {
        fill: #fff;
      }
    </style>
  </defs>
  <!-- Generator: Adobe Illustrator 28.7.8, SVG Export Plug-In . SVG Version: 1.2.0 Build 200)  -->
  <g>
    <g id="_圖層_1" data-name="圖層_1">
      <circle class="cls-1" cx="50" cy="50" r="9.4"/>
      <path class="cls-1" d="M60.4,37.8c0-.4.2-.9.5-1.2L97.1.5c.7-.7,1.8-.7,2.4,0,.7.7.7,1.8,0,2.4l-36.1,36.1c-.7.7-1.8.7-2.4,0-.3-.3-.5-.8-.5-1.2Z"/>
      <path class="cls-1" d="M0,98.3c0-.4.2-.9.5-1.2l36.2-36.2c.7-.7,1.8-.7,2.4,0,.7.7.7,1.8,0,2.4L2.9,99.5c-.7.7-1.8.7-2.4,0-.3-.3-.5-.8-.5-1.2Z"/>
      <path class="cls-1" d="M62.2,60.4c.4,0,.9.2,1.2.5l36.1,36.1c.7.7.7,1.8,0,2.4-.7.7-1.8.7-2.4,0l-36.1-36.1c-.7-.7-.7-1.8,0-2.4.3-.3.8-.5,1.2-.5Z"/>
      <path class="cls-1" d="M1.7,0C2.2,0,2.6.2,2.9.5l36.2,36.2c.7.7.7,1.8,0,2.4-.7.7-1.8.7-2.4,0L.5,2.9C-.2,2.3-.2,1.2.5.5.8.2,1.3,0,1.7,0Z"/>
    </g>
  </g>
</svg>