<?xml version="1.0" encoding="UTF-8"?>
<svg xmlns="http://www.w3.org/2000/svg" version="1.1" viewBox="0 0 583.4 100">
  <defs>
    <style>
      .cls-1 {
        fill: #ec7563;
      }

      .cls-2 {
        fill: #595757;
      }

      .cls-3 {
        fill: #fff;
      }

      .cls-4 {
        fill: #dfc44a;
      }
    </style>
  </defs>
  <!-- Generator: Adobe Illustrator 28.7.8, SVG Export Plug-In . SVG Version: 1.2.0 Build 200)  -->
  <g>
    <g id="_圖層_1" data-name="圖層_1">
      <g>
        <g>
          <g>
            <g>
              <path class="cls-2" d="M370.2,70.6c0,4.4-3.5,7.9-7.9,7.9s-7.9-3.5-7.9-7.9,3.5-7.9,7.9-7.9c4.4-.1,7.9,3.5,7.9,7.9ZM362.3,61.2c-5.1,0-9.2,4.1-9.2,9.2s4.1,9.2,9.2,9.2,9.2-4.1,9.2-9.2-4.1-9.2-9.2-9.2Z"/>
              <path class="cls-3" d="M362.3,82.9c-6.9,0-12.4-5.5-12.4-12.4s5.5-12.4,12.4-12.4,12.4,5.5,12.4,12.4-5.6,12.4-12.4,12.4ZM362.3,65.7c-2.6,0-4.9,2.1-4.9,4.9s2.1,4.9,4.9,4.9,4.9-2.1,4.9-4.9c-.1-2.7-2.2-4.9-4.9-4.9Z"/>
            </g>
            <g>
              <path class="cls-2" d="M358.2,75.9v-10.9h4.9c1,0,1.7.1,2.2.2.5.2.9.5,1.2,1,.2.5.5,1,.5,1.6s-.2,1.4-.7,2c-.5.5-1.2.9-2.4,1,.4.1.6.4.9.5.4.4.9.9,1.2,1.5l1.9,3h-1.7l-1.4-2.2c-.4-.6-.7-1.1-1-1.5-.2-.4-.5-.6-.7-.7s-.4-.2-.6-.2h-2.9v4.9h-1.4ZM359.6,69.9h3.1c.6,0,1.1-.1,1.5-.2.4-.1.6-.4.9-.6s.2-.6.2-1-.1-1-.5-1.2c-.4-.4-1-.5-1.7-.5h-3.5v3.6Z"/>
              <path class="cls-3" d="M367.7,79.1h-1.7c-1,0-2-.5-2.6-1.4l-.6-1c-.2,1.4-1.5,2.5-3,2.5h-1.5c-1.7,0-3.1-1.4-3.1-3.1v-10.9c0-1.7,1.4-3.1,3.1-3.1h4.9c1.4,0,2.5.1,3.4.5,1.1.5,2.1,1.2,2.7,2.2s.9,2.1.9,3.2-.4,2.6-1.2,3.6l1.6,2.5c.6,1,.6,2.1.1,3.1-.7,1.1-1.7,1.7-2.9,1.7Z"/>
            </g>
          </g>
          <g>
            <g>
              <path class="cls-1" d="M3.1,30.2l7.6-.4c.1,2.4.5,4,1.2,4.9,1.1,1.4,3.4,2.1,6.5,2.1s4.5-.5,5.7-1.4c1.1-.9,1.7-2.1,1.7-3.4s-.5-2.1-1.4-2.9c-.6-.6-2.5-1.5-5.5-2.9-3-1.2-5.2-2.4-6.6-3.2s-2.5-2-3.2-3.4-1.2-3-1.2-4.9c0-3.2,1.1-6,3.5-8.1,2.4-2.1,5.7-3.2,10.2-3.2s8.1,1.1,10.6,3.2,3.9,5,4.1,8.5l-7.6.4c-.2-1.9-.9-3.2-2-4.2-1.1-1-2.9-1.5-5.1-1.5s-3.9.4-4.7,1.1c-1,.7-1.4,1.7-1.4,2.9s.4,2,1.2,2.7,2.7,1.7,5.7,3c4.5,1.9,7.4,3.5,8.5,4.6,1.9,1.7,2.7,4,2.7,6.7s-1.4,6.4-4.1,8.7-6.5,3.6-11.4,3.6-6.2-.5-8.6-1.6c-2.5-1.1-4.1-2.6-5.1-4.6-1.1-2-1.6-4.4-1.5-6.9Z"/>
              <path class="cls-3" d="M18.4,46.4c-3.7,0-7.1-.6-10-2-3.1-1.4-5.4-3.5-6.6-6.1C.5,35.8-.1,33.1,0,29.9c0-1.6,1.4-2.9,3-3l7.6-.4c.9,0,1.6.2,2.2.7s1,1.4,1,2.1c.1,2.4.5,3,.5,3,.1.2,1,1,4.1,1s3.5-.5,3.7-.7c.6-.5.6-.7.6-1s0-.2-.4-.5c-.1-.1-1-.7-4.7-2.4-3.2-1.4-5.5-2.5-7-3.5-1.9-1.1-3.2-2.6-4.4-4.5s-1.6-4-1.6-6.5c0-4.1,1.5-7.6,4.6-10.4C12.4,1.3,16.5,0,21.8,0s9.5,1.4,12.6,4,4.9,6.2,5.2,10.6c0,.9-.2,1.6-.7,2.2-.5.6-1.4,1-2.1,1l-7.6.4c-1.6.1-3-1.1-3.2-2.7-.1-1.5-.7-2-1-2.2-.5-.5-1.6-.7-3.1-.7-2.2,0-2.7.5-2.7.5-.2.2-.2.4-.2.5s0,.2.1.4c.2.2,1.2,1,5,2.6,6.5,2.7,8.5,4.4,9.5,5.4,2.4,2.4,3.6,5.4,3.6,9s-1.7,8-5.1,11.1c-3.5,3-8,4.5-13.5,4.5ZM6.4,33.1c.1.9.5,1.7.9,2.5.6,1.4,1.9,2.4,3.7,3.2,2,.9,4.5,1.4,7.4,1.4s7.1-1,9.2-2.9c2-1.9,3-4,3-6.5s-.6-3.4-1.7-4.6c-.5-.4-2-1.6-7.6-4.1-4.4-1.9-5.9-2.9-6.5-3.5-1.5-1.2-2.4-3.1-2.4-5.1s.9-4,2.6-5.4c1.5-1.2,3.7-1.9,6.7-1.9s5.4.7,7.1,2.2c1.1.9,1.9,2,2.4,3.4h1.4c-.5-1.4-1.2-2.5-2.4-3.4-1.9-1.6-4.7-2.5-8.6-2.5s-6.4.9-8.2,2.4c-1.7,1.6-2.5,3.4-2.5,5.9s.2,2.4.7,3.4,1.2,1.7,2.2,2.4c1.2.7,3.4,1.7,6.2,3,4.4,1.9,5.6,2.7,6.4,3.4,1.6,1.4,2.5,3.1,2.5,5.2s-1,4.2-2.9,5.9c-1.7,1.4-4.2,2.1-7.6,2.1s-7-1-8.9-3.1c-.7-.9-1.2-2.1-1.6-3.6l-1.6.2Z"/>
            </g>
            <g>
              <path class="cls-4" d="M43.6,14.6h7.1l-.6,3.4c2.7-2.7,5.7-4,8.7-4s3.7.5,4.9,1.4,1.9,2.1,2.2,3.6c1-1.4,2.4-2.6,4.1-3.5,1.9-1,3.7-1.4,5.6-1.4s4,.6,5.2,1.9,1.9,2.7,1.9,4.7-.2,2.6-.9,5l-3.6,17.1h-7.5l3.6-17.1c.5-2.1.7-3.4.7-3.6,0-.7-.2-1.4-.7-1.9-.5-.5-1.1-.6-2.1-.6-1.9,0-3.6,1-5.1,3-1.1,1.4-2,4-2.7,7.6l-2.6,12.7h-7.5l3.5-17c.4-2,.6-3.2.6-3.7,0-.7-.2-1.4-.7-1.9-.5-.5-1.2-.7-2.1-.7s-1.7.2-2.6.7c-.9.5-1.6,1.1-2.4,2-.6.9-1.2,2-1.7,3.4-.2.6-.6,2.1-1.1,4.2l-2.6,12.9h-7.5l6-28.2Z"/>
              <path class="cls-3" d="M78.4,45.7h-7.5c-.9,0-1.9-.4-2.4-1.1-.6-.7-.9-1.6-.6-2.6l4.1-19.5c-.5.1-1.2.5-2.2,1.7-.5.6-1.4,2.2-2.2,6.4l-2.6,12.7c-.2,1.4-1.6,2.5-3,2.5h-7.5c-.9,0-1.9-.4-2.4-1.1-.6-.7-.9-1.6-.6-2.6l3.5-17c.2-1.2.4-2.1.5-2.6-.2.1-.5.2-.7.2-.5.2-1,.7-1.4,1.2-.5.6-.9,1.4-1.2,2.5-.1.2-.4,1.1-1,4l-2.6,12.9c-.2,1.5-1.6,2.5-3,2.5h-7.5c-.9,0-1.9-.4-2.4-1.1s-.9-1.6-.6-2.6l5.9-28.1c.2-1.4,1.6-2.5,3-2.5h7.1c.7,0,1.5.2,2,.7,2-1,4-1.4,6.1-1.4s5.1.6,6.7,2c.4.2.7.6,1.1,1,.6-.4,1.2-.9,2-1.1,2.2-1.1,4.6-1.7,7.1-1.7s5.5.9,7.4,2.6,2.9,4.2,2.9,7-.4,3-.9,5.6l-3.6,17.1c-.6,1.4-1.9,2.4-3.4,2.4ZM74.7,39.6h1.2l3.1-14.6c.6-2.9.7-4,.7-4.5,0-1.4-.5-2.1-.9-2.5-.6-.6-1.7-1-3.2-1,.4.2.7.5,1,.7.7.7,1.6,2,1.6,4.1s0,.4-.1.6l-3.5,17.1ZM58.1,39.6h1.1l2.1-10.2c.7-3.5,1.6-6,2.7-7.9-.6-.5-1.1-1.1-1.2-1.9-.2-1.1-.7-1.5-1-1.9-.6-.5-1.6-.6-3-.6.4.2.7.5,1,.7,1.1,1.1,1.7,2.5,1.7,4.1s-.1,1.6-.6,4.4l-2.9,13.2ZM41.5,39.6h1.1l2.1-10.4c.7-3.2,1-4.2,1.2-4.7.5-1.6,1.2-2.9,2-4-.9-.6-1.2-1.6-1.1-2.7h-.9l-4.5,21.9Z"/>
            </g>
            <g>
              <path class="cls-4" d="M96.7,22.4l-7.4-.6c.9-2.5,2.2-4.5,4.4-5.9s4.9-2.1,8.2-2.1,6.2.7,8,2.1c1.7,1.5,2.6,3.2,2.6,5.4s-.1,1.7-.2,2.7c-.1,1-.6,3.5-1.6,7.5-.7,3.4-1.1,5.7-1.1,7s.2,2.5.6,4h-7.2c-.4-1-.6-2.1-.6-3.1-1.1,1.2-2.4,2.2-3.9,2.9-1.5.6-2.9,1-4.4,1-2.4,0-4.2-.7-5.7-2.2-1.5-1.5-2.2-3.5-2.2-5.9s.9-4.9,2.5-6.4c1.6-1.6,4.6-2.6,8.9-2.9,3.6-.2,6-.6,7.2-1.1.4-1.1.5-1.9.5-2.5s-.4-1.5-1-2-1.6-.9-2.9-.9-2.4.2-3.1.9c-.6.4-1.1,1.1-1.5,2.1ZM103.9,29.6c-.5.1-1.1.2-1.9.4-3.7.5-6.2,1.1-7.4,2-.9.6-1.2,1.5-1.2,2.6s.4,1.6,1,2.2,1.5.9,2.5.9,2.2-.2,3.2-.9,1.7-1.2,2.2-2.1c.5-.9,1-2.2,1.4-4.1v-1Z"/>
              <path class="cls-3" d="M94.2,46.4c-3.1,0-5.9-1.1-8-3.2s-3.1-4.9-3.1-8.1,1.1-6.5,3.5-8.6c.6-.6,1.4-1.1,2.2-1.6-.9-.1-1.5-.6-2-1.4-.5-.7-.6-1.7-.4-2.6,1-3.1,3-5.6,5.6-7.4s6-2.6,10-2.6,7.6,1,10,2.9c2.4,2,3.6,4.7,3.6,7.6s-.1,2.1-.2,3.1c-.1,1-.7,3.6-1.6,7.7-.9,4.1-1,5.7-1,6.4s.1,2,.5,3.1c.2.9.1,2-.5,2.7s-1.5,1.2-2.5,1.2h-7.2c-.9,0-1.7-.4-2.2-1-.2.1-.5.2-.9.4-1.9,1-3.7,1.4-5.7,1.4ZM91.7,30.3c-.4.2-.6.4-.9.6-1,1-1.5,2.4-1.5,4.2s.4,2.7,1.4,3.7c.9.9,2,1.4,3.4,1.4-.7-.2-1.4-.7-1.9-1.2-1.2-1.2-1.9-2.7-1.9-4.5-.1-1.6.5-3.1,1.4-4.2ZM105.6,39.6h1.1v-.9c0-1.6.4-4,1.1-7.7,1.1-4.9,1.5-6.7,1.5-7.4.1-.7.1-1.5.1-2.2,0-1.1-.5-2.1-1.5-3-.5-.5-1.2-.7-2.1-1,.1.1.4.2.5.4,1.4,1.1,2,2.7,2,4.4s-.2,2.1-.6,3.5c-.2.9-.9,1.5-1.6,1.9.6.7.9,1.7.6,2.6l-.2,1c-.5,2.2-1,3.9-1.6,5-.1.2-.4.6-.6.9.6.5,1,1.2,1.1,2.1.2.2.2.4.2.5ZM96.5,34.3h0c0,.1.1.2.4.2.6,0,1.1-.1,1.7-.5.4-.2.6-.5.9-.7-2.2.5-2.9,1-3,1h0ZM94.7,19.2h.2c.1-.1.2-.4.4-.5-.2.2-.4.4-.6.5Z"/>
            </g>
            <g>
              <path class="cls-4" d="M121.6,14.6h7.1l-1.1,5.4c2.6-4,5.5-6,8.5-6s2.2.2,3.5.9l-2.9,6.2c-.7-.2-1.4-.4-2.2-.4-1.4,0-2.6.5-4,1.5-1.4,1-2.4,2.2-3.1,4-.7,1.6-1.5,4.2-2.2,7.9l-1.7,8.7h-7.5l5.7-28.2Z"/>
              <path class="cls-3" d="M123.2,45.7h-7.5c-.9,0-1.9-.4-2.4-1.1-.6-.7-.9-1.6-.6-2.6l5.9-28.1c.2-1.4,1.6-2.5,3-2.5h7.1c.7,0,1.5.2,2.1.9,3-1.7,6.4-2,10-.4.7.4,1.4,1,1.6,1.7s.2,1.6-.1,2.4l-2.9,6.1c-.6,1.5-2.4,2.1-3.9,1.6-.9-.4-2-.2-3.4.7-.9.6-1.6,1.6-2.2,2.7-.5,1-1.1,3-2,7.1l-1.7,8.7c-.2,1.6-1.5,2.6-3,2.6ZM119.5,39.6h1.1l1.2-6.4c.7-3.9,1.6-6.6,2.5-8.5.4-.7.7-1.5,1.2-2.2-1-.7-1.5-1.9-1.2-3.1l.4-1.6h-.7l-4.5,21.9ZM134.5,17.4h.4v-.2c-.1.1-.4.1-.6.2h.2Z"/>
            </g>
            <g>
              <path class="cls-4" d="M139,20.2l1.1-5.6h3.7l.9-4.5,8.6-5.2-2,9.7h4.5l-1.1,5.6h-4.5l-2.5,11.9c-.5,2.1-.6,3.4-.6,3.6,0,.6.1,1,.5,1.4.4.4,1,.5,2,.5s1.1,0,2.5-.1l-1.2,5.6c-1.2.2-2.6.4-4,.4-2.6,0-4.6-.5-5.7-1.5-1.2-1-1.7-2.5-1.7-4.4s.4-2.9,1-6l2.4-11.2h-3.7Z"/>
              <path class="cls-3" d="M146.9,46.4c-3.5,0-6-.7-7.7-2.4-1.9-1.6-2.9-4-2.9-6.6s.1-2.2,1.1-6.6l1.6-7.5c-.9,0-1.7-.4-2.4-1.1s-.9-1.6-.6-2.6l1.1-5.6c.2-1.5,1.5-2.5,3-2.5h1.2l.4-2c.1-.9.7-1.6,1.4-2l8.6-5.2c1-.6,2.4-.6,3.4.1s1.5,2,1.2,3.1l-1.2,6h.6c.9,0,1.7.4,2.4,1.1s.9,1.6.6,2.6l-1.1,5.6c-.2,1.5-1.5,2.5-3,2.5h-2l-2,9.4c-.1.7-.2,1.2-.4,1.7.2,0,.7,0,1.2-.1,1-.1,2,.2,2.6,1,.6.7.9,1.7.7,2.7l-1.2,5.6c-.2,1.2-1.2,2.1-2.4,2.4-1.2.2-2.7.4-4.4.4ZM144.5,17.6c.2.1.5.4.7.6.6.7.9,1.6.6,2.6l-2.4,11.2c-.9,4.1-1,5.1-1,5.2,0,1.2.4,1.7.7,2,.2.2,1.2.7,3.7.7h.2c-.6-.2-1.1-.5-1.5-.9-1-.9-1.5-2.2-1.5-3.6s0-.7.7-4.2l2.5-11.9c.2-1.2,1.2-2.2,2.5-2.4-.2-.1-.5-.4-.7-.6-.6-.7-.9-1.6-.6-2.6l.6-2.7-1.5.9-.6,3.1c-.4,1.4-1.4,2.4-2.6,2.5Z"/>
            </g>
            <g>
              <path class="cls-1" d="M163.2,42.7h-8l8.1-38.6h17.2c3,0,5.2.2,6.9.9s3,1.7,4,3.4c1,1.6,1.5,3.6,1.5,5.9,0,3.2-1,6-3,8.1s-5,3.5-8.9,4c1,.9,2,2.1,2.9,3.6,1.7,3,3.7,7.2,6,12.9h-8.6c-.6-2.1-2-5.6-4-10.2-1.1-2.5-2.2-4.1-3.5-5-.7-.5-2.1-.7-4-.7h-3.2l-3.4,15.9ZM167.8,20.8h4.2c4.2,0,7.1-.2,8.5-.7,1.4-.5,2.5-1.2,3.2-2.4s1.1-2.2,1.1-3.4-.6-2.5-1.7-3.1c-.7-.4-2.2-.6-4.5-.6h-8.7l-2.1,10.2Z"/>
              <path class="cls-3" d="M189.8,45.7h-8.6c-1.4,0-2.5-.9-3-2.1-.6-2.1-2-5.4-3.9-9.9-1.1-2.6-2.1-3.5-2.4-3.7.1,0-.5-.2-2.1-.2h-.7l-2.9,13.5c-.2,1.4-1.6,2.5-3,2.5h-8c-.9,0-1.9-.4-2.4-1.1-.6-.7-.9-1.6-.6-2.6l8.1-38.6c.2-1.4,1.6-2.5,3-2.5h17.2c3.4,0,6,.4,8,1.1,2.2.9,4.1,2.4,5.5,4.6,1.4,2.1,2,4.6,2,7.5,0,4.1-1.2,7.5-3.7,10.2-1.5,1.6-3.4,2.9-5.7,3.7,0,0,0,.1.1.1,1.9,3.1,3.9,7.6,6.1,13.2.4,1,.2,2-.4,2.9-.6.9-1.6,1.4-2.6,1.4ZM183.5,39.6h1.7c-1.5-3.4-2.7-6.1-4-8.1-.7-1.2-1.5-2.1-2.2-2.9-.9-.7-1.2-2.1-.9-3.2.2-.9.9-1.5,1.5-1.9-1.2.2-3.2.4-6.2.5.9.2,1.5.5,2.1.9,1.7,1.2,3.2,3.4,4.6,6.4,1.5,3.5,2.6,6.2,3.4,8.4ZM159,39.6h1.6l2.9-13.5c.2-1.4,1.4-2.4,2.7-2.5-.4-.2-.6-.5-1-.7-.6-.7-.9-1.6-.6-2.6l2.1-10.4c.2-1.4,1.6-2.5,3-2.5h8.7c3,0,4.9.4,6.1,1.1,2.1,1.2,3.2,3.4,3.2,5.9s-.6,3.6-1.7,5.2c-1.1,1.6-2.7,2.7-4.7,3.5q-.1,0-.2.1c2.9-.5,5-1.4,6.4-2.9,1.4-1.5,2.1-3.5,2.1-6s-.4-3.1-1-4.2c-.6-1-1.5-1.7-2.4-2.1-.9-.4-2.6-.7-5.9-.7h-14.5l-6.9,32.4ZM171.6,17.7h.4c5.2,0,7-.4,7.5-.6.7-.2,1.4-.7,1.9-1.2.5-.7.6-1.2.6-1.6s0-.4-.1-.5c-.2,0-1-.2-3-.2h-6.2l-1,4.2Z"/>
            </g>
            <g>
              <path class="cls-4" d="M221.3,30.9h-19v.7c0,1.9.5,3.4,1.6,4.5s2.4,1.7,3.9,1.7c2.5,0,4.5-1.2,5.9-3.9l6.7,1.1c-1.4,2.7-3.1,4.7-5.2,6.1-2.2,1.4-4.6,2-7.4,2s-6.9-1.2-9.1-3.6c-2.4-2.4-3.5-5.5-3.5-9.5s1.1-7.2,3.1-10.2c2.9-4,7-6.1,12.4-6.1s6.1,1.1,8.1,3.2,3,5.1,3,8.9c.1,1.9-.1,3.6-.5,5ZM215.1,26.3v-.7c0-2.1-.5-3.6-1.4-4.7-.9-1-2.1-1.6-3.7-1.6s-3,.6-4.2,1.7-2.1,3-2.5,5.2c0,.1,11.9.1,11.9.1Z"/>
              <path class="cls-3" d="M207.8,46.4c-4.6,0-8.4-1.5-11.4-4.5-2.9-3-4.4-6.9-4.4-11.6s1.2-8.5,3.7-12.1c3.5-4.9,8.5-7.4,14.9-7.4s7.7,1.4,10.4,4.1c2.6,2.7,3.9,6.4,3.9,11.1s-.2,4-.6,5.6c-.1.7-.6,1.4-1.2,1.9,0,.1.1.1.1.2.5.9.5,1.9,0,2.7-1.6,3.2-3.7,5.7-6.5,7.4-2.5,1.6-5.5,2.5-8.9,2.5ZM203,19.6c-.7.6-1.5,1.4-2.1,2.2-1.7,2.5-2.6,5.2-2.6,8.5s.9,5.5,2.6,7.4l.9.9h-.1c-1.6-1.9-2.4-4.1-2.4-6.7v-.9c0-1,.6-2,1.5-2.5-.6-.7-.9-1.6-.6-2.5.5-2.7,1.5-4.9,2.9-6.4ZM206.2,34.1h0c.5.5,1,.7,1.6.7s1.4-.1,2-.7h-3.6ZM217.7,27.9h1c0-.6.1-1.2.1-1.9,0-3-.7-5.2-2.1-6.7-.4-.5-.9-.9-1.4-1.1l.7.7c1.5,1.6,2.2,3.9,2.2,6.7v.9c-.2.5-.4.9-.6,1.4ZM208,23.3h3.6c-.1-.1-.1-.2-.2-.2-.2-.2-.6-.5-1.4-.5-.5-.1-1.2,0-2,.7Z"/>
            </g>
            <g>
              <path class="cls-4" d="M235,22.4l-7.4-.6c.9-2.5,2.2-4.5,4.4-5.9s4.9-2.1,8.2-2.1,6.2.7,8,2.1c1.7,1.5,2.6,3.2,2.6,5.4s-.1,1.7-.2,2.7c-.1,1-.6,3.5-1.6,7.5-.7,3.4-1.1,5.7-1.1,7s.2,2.5.6,4h-7.2c-.4-1-.6-2.1-.6-3.1-1.1,1.2-2.4,2.2-3.9,2.9s-2.9,1-4.4,1c-2.4,0-4.2-.7-5.7-2.2-1.5-1.5-2.2-3.5-2.2-5.9s.9-4.9,2.5-6.4c1.6-1.6,4.6-2.6,8.9-2.9,3.6-.2,6-.6,7.2-1.1.4-1.1.5-1.9.5-2.5s-.4-1.5-1-2-1.6-.9-2.9-.9-2.4.2-3.1.9c-.6.4-1.1,1.1-1.5,2.1ZM242.1,29.6c-.5.1-1.1.2-1.9.4-3.7.5-6.2,1.1-7.4,2-.9.6-1.2,1.5-1.2,2.6s.4,1.6,1,2.2,1.5.9,2.5.9,2.2-.2,3.2-.9c1-.6,1.7-1.2,2.2-2.1s1-2.2,1.4-4.1v-1Z"/>
              <path class="cls-3" d="M232.5,46.4c-3.1,0-5.9-1.1-8-3.2-2.1-2.1-3.1-4.9-3.1-8.1s1.1-6.5,3.4-8.6c.6-.6,1.4-1.1,2.2-1.6-.9-.1-1.5-.6-2-1.4s-.6-1.7-.4-2.7c1-3.1,3-5.6,5.6-7.4s6-2.6,10-2.6,7.6,1,10,2.9c2.4,2,3.6,4.7,3.6,7.6s-.1,2.1-.2,3.1c-.1.6-.4,2.1-1.6,7.7-.9,4.1-1,5.7-1,6.4s.1,2,.5,3.1c.2.9.1,2-.5,2.7s-1.5,1.2-2.5,1.2h-7.2c-.9,0-1.7-.4-2.2-1-.2.1-.5.2-.9.4-1.7,1.1-3.6,1.5-5.6,1.5ZM230,30.3c-.4.2-.6.4-.9.6-1,1-1.5,2.4-1.5,4.2s.4,2.7,1.4,3.7c.9.9,2,1.4,3.4,1.4-.7-.2-1.4-.7-1.9-1.2-1.2-1.2-1.9-2.7-1.9-4.5-.1-1.6.4-3.1,1.4-4.2ZM243.8,39.6h1.1v-.9c0-1.6.4-4,1.1-7.7,1.1-5,1.5-6.7,1.5-7.4.1-.7.1-1.5.1-2.2,0-1.1-.5-2.1-1.5-3-.5-.5-1.2-.7-2.1-1,.1.1.4.2.5.4,1.4,1.1,2,2.7,2,4.4s-.2,2.1-.6,3.4c-.2.9-.9,1.5-1.6,1.9.6.7.9,1.7.6,2.6l-.2,1c-.5,2.2-1,3.9-1.6,5-.1.2-.4.6-.6.9.6.5,1,1.2,1.1,2.1.1.4.1.5.2.6ZM234.7,34.3h0c0,.1.1.2.4.2.6,0,1.1-.1,1.7-.5.4-.2.6-.5.9-.7-2.2.6-2.9,1-3,1h0ZM233,19.2h.2c.1-.1.2-.4.4-.5-.2.2-.4.4-.6.5Z"/>
            </g>
            <g>
              <path class="cls-4" d="M280.2,42.7h-7.2l.6-3c-1.4,1.4-2.7,2.2-4,2.9-1.4.6-2.9.9-4.5.9-2.9,0-5.2-1-7.1-3-1.7-2-2.7-4.9-2.7-8.7s1.2-8.6,3.9-12.2,6-5.5,10.2-5.5,6.7,1.5,8.6,4.5l3.1-14.5h7.5l-8.4,38.7ZM262.6,31.3c0,2,.5,3.6,1.5,4.7,1,1.1,2.2,1.7,3.7,1.7s2.6-.5,3.9-1.4c1.2-1,2.1-2.4,2.9-4.4.7-2,1.1-3.7,1.1-5.6s-.5-3.6-1.6-4.9-2.4-1.9-3.9-1.9c-2.2,0-4.1,1.2-5.5,3.7-1.4,2.2-2.1,5-2.1,7.9Z"/>
              <path class="cls-3" d="M265.1,46.4c-3.7,0-7-1.4-9.4-4-2.4-2.5-3.5-6.2-3.5-10.9s1.5-9.9,4.4-14c3.1-4.4,7.5-6.7,12.7-6.7s4.7.5,6.7,1.6l2-9.1c.2-1.4,1.6-2.5,3-2.5h7.5c1,0,1.9.4,2.4,1.1.6.7.9,1.6.6,2.6l-8.4,38.6c-.2,1.4-1.6,2.5-3,2.5h-7.2c-.6,0-1.2-.2-1.7-.6-.1.1-.2.1-.4.2-1.7.7-3.7,1.1-5.7,1.1ZM266.3,17.4c-1.7.6-3.2,1.9-4.6,3.6-2.2,3.1-3.2,6.5-3.2,10.4s.6,5.4,1.9,6.7,2.7,2,4.7,2c-1.1-.5-2.2-1.1-3.1-2.1-1.5-1.7-2.4-4-2.4-6.7s.9-6.6,2.6-9.6c1.1-2.1,2.6-3.4,4.1-4.2ZM276.7,39.6h1l7.1-32.5h-1.1l-2.6,12c-.2,1.2-1.2,2.1-2.5,2.4h-.6c.6,1.4,1,3,1,4.7s-.4,4.4-1.2,6.6c-.6,1.6-1.4,3-2.2,4.1.7.7,1.2,1.6,1.2,2.6ZM270.3,22.7c-.5,0-1.6,0-2.9,2.1-1.1,2-1.7,4.1-1.7,6.5s.2,2.1.7,2.6.9.6,1.5.6,1.4-.2,2-.7c.7-.6,1.4-1.6,1.9-3,.6-1.6.9-3.1.9-4.5s-.2-2.2-.9-2.9c-.6-.6-1.1-.7-1.5-.7Z"/>
            </g>
            <g>
              <path class="cls-4" d="M293.2,14.6h7.5l-5.9,28.1h-7.5l5.9-28.1ZM295.4,3.9h7.5l-1.4,6.7h-7.5l1.4-6.7Z"/>
              <path class="cls-3" d="M294.8,45.7h-7.5c-.9,0-1.9-.4-2.4-1.1-.6-.7-.9-1.6-.6-2.6l5.9-28.1c.1-.7.5-1.4,1.1-1.7-.4-.6-.4-1.4-.2-2l1.4-6.7c.2-1.4,1.6-2.5,3-2.5h7.5c.9,0,1.9.4,2.4,1.1.6.7.9,1.6.6,2.6l-1.4,6.7c-.1.7-.5,1.4-1.1,1.7.4.6.4,1.4.2,2l-5.9,28.1c-.2,1.5-1.5,2.5-3,2.5ZM291.2,39.6h1.1l4.6-21.9h-1.1l-4.6,21.9ZM297.8,7.7h1.1v-.6c.1,0-1,0-1,0v.6Z"/>
            </g>
            <g>
              <path class="cls-4" d="M308.3,14.6h7.1l-.7,3.7c1.9-1.5,3.5-2.6,5.1-3.4,1.6-.6,3.2-1,5-1s4.1.6,5.5,2,2,3.1,2,5.4-.4,2.9-1,5.6l-3.4,15.9h-7.5l3.4-15.9c.5-2.4.7-3.7.9-4.2,0-1-.2-1.7-.9-2.4s-1.4-.9-2.5-.9-2.4.5-3.7,1.4-2.5,2.1-3.2,3.7c-.6,1.1-1.2,3.4-2,6.6l-2.4,11.5h-7.5l5.9-28.1Z"/>
              <path class="cls-3" d="M327.9,45.7h-7.5c-.9,0-1.9-.4-2.4-1.1-.6-.7-.9-1.6-.6-2.6l3.4-15.9c.5-2.2.6-3.2.7-3.6h-.2c-.2,0-.9.1-2,.9-1,.6-1.7,1.5-2.2,2.5-.2.4-.7,1.7-1.7,5.9l-2.4,11.5c-.2,1.5-1.6,2.5-3,2.5h-7.5c-.9,0-1.9-.4-2.4-1.1-.6-.7-.9-1.6-.6-2.6l5.9-28.1c.2-1.4,1.6-2.5,3-2.5h7.1c.9,0,1.7.4,2.2,1,.2-.1.6-.2.9-.4,2-.9,4-1.2,6.2-1.2s5.7,1,7.7,2.9c2,1.9,3,4.5,3,7.5s-.1,2.4-1,6.2l-3.4,15.7c-.5,1.6-1.7,2.6-3.2,2.6ZM324.3,39.6h1.1l2.9-13.4c.7-3.4.9-4.6.9-5,0-1.7-.6-2.5-1.1-3-.7-.7-2-1.1-3.5-1.1.5.2,1,.6,1.2.9.9.7,1.9,2.2,1.9,4.5v.2c0,.4-.1,1.2-.9,4.6l-2.5,12.2ZM306.2,39.6h1.1l1.9-9c1.1-5,1.9-6.6,2.4-7.5.4-.7.9-1.5,1.4-2.1-1-.7-1.5-1.9-1.2-3.1h-.9l-4.6,21.7Z"/>
            </g>
            <g>
              <path class="cls-4" d="M335.1,44.2l8,1.1c0,.7.1,1.4.4,1.9.2.4.6.7,1.2,1,.6.2,1.4.4,2.4.4,1.7,0,3-.4,4.1-1,.7-.5,1.4-1.2,1.9-2.4.2-.7.6-2.2,1.1-4.6l.2-1.2c-2.7,2.1-5.6,3.2-8.5,3.2s-5-1-6.7-2.9-2.6-4.7-2.6-8.5.6-6.2,1.7-9c1.2-2.7,2.9-4.7,5-6.2,2.1-1.4,4.4-2.1,6.6-2.1s3.5.5,5,1.5c1.5,1,2.7,2.4,3.6,4.1l1-4.9h7.1l-4.5,23.2c-.7,3.7-1.5,6.5-2,8.1s-1.2,2.9-1.9,3.9c-.7,1-1.6,1.7-2.7,2.4-1.1.6-2.4,1.1-3.9,1.4s-3.1.4-4.9.4c-3.9,0-6.9-.6-8.9-2s-3-3.6-3-6.7c0-.2,0-.6.1-1ZM343.9,30.4c0,2.1.5,3.7,1.4,4.9,1,1.1,2.1,1.6,3.6,1.6s2.6-.5,3.9-1.5c1.2-1,2.2-2.4,2.9-4.2s1-3.6,1-5.4-.5-3.5-1.6-4.7-2.4-1.7-3.9-1.7-2.6.5-3.7,1.6-2,2.7-2.7,4.9c-.5,1.7-.7,3.2-.7,4.6Z"/>
              <path class="cls-3" d="M346.9,57.2c-4.6,0-8.1-.9-10.6-2.5-2-1.4-4.4-4-4.4-9.2s0-1,.1-1.5c.1-.9.5-1.6,1.2-2.1.6-.5,1.5-.7,2.4-.6h1c-2-2.4-2.9-5.7-2.9-9.9s.6-7.1,2-10.2c1.4-3.2,3.5-5.9,6.1-7.6,2.6-1.7,5.5-2.6,8.2-2.6s4.7.6,6.7,2c.1,0,.2.1.2.1.5-.9,1.5-1.5,2.6-1.5h7.1c.9,0,1.7.4,2.4,1.1s.9,1.6.6,2.5l-4.5,23.2c-.9,4-1.5,6.7-2.1,8.5-.6,1.9-1.4,3.5-2.4,4.7s-2.1,2.4-3.6,3.2c-1.4.9-3,1.4-4.9,1.7-1.9.4-3.6.6-5.5.6ZM338.4,47.8c.4.9.9,1.4,1.2,1.6.7.5,1.7.9,2.9,1.1-.7-.5-1.4-1.1-1.7-1.7-.1-.2-.2-.5-.4-.7l-2-.2ZM356.1,36.7h0c1.1.6,1.6,2,1.4,3.2l-.2,1.2c-.6,3.4-1.1,4.5-1.4,5.1-.6,1.5-1.5,2.6-2.6,3.5.2-.1.5-.2.7-.4.7-.5,1.4-1,1.7-1.6.5-.7,1-1.7,1.5-3,.5-1.5,1.1-4.1,2-7.7l3.7-19.5h-.9l-.5,2.5c-.2,1.1-1.1,2.1-2.2,2.4.4,1,.5,2.1.5,3.4,0,2.1-.4,4.2-1.2,6.4-.5,1.9-1.4,3.4-2.5,4.5ZM346.4,17.8c-.5.2-.9.5-1.4.7-1.6,1.1-2.9,2.6-3.9,4.9-1,2.4-1.5,5-1.5,7.7s.6,5.1,1.9,6.4c1.1,1.2,2.5,1.9,4.4,1.9h.1c-1.1-.5-2.1-1.2-3-2.2-1.5-1.6-2.1-4-2.1-6.9s.4-3.5,1-5.6c.9-2.7,2.1-4.7,3.6-6.2.2-.1.5-.4.9-.6ZM351.3,22.4c-.4,0-.9.1-1.6.7-.5.5-1.2,1.5-2,3.6-.5,1.4-.6,2.6-.6,3.6s.2,2.2.6,2.9c.4.4.7.6,1.2.6s1.2-.2,2-.9,1.4-1.6,1.9-2.9c.5-1.5.9-2.9.9-4.2s-.2-2-.9-2.6c-.6-.7-1.1-.9-1.5-.9Z"/>
            </g>
          </g>
          <g>
            <g>
              <path class="cls-1" d="M5.8,79.9h6.5c.4,0,.6.1.6.4v9.5c0,.9.1,1.5.4,1.9s.5.7.9,1c.5.4,1.1.6,1.9.7,1,.1,2,.2,3.2.2h7.7c3,0,6.5-.4,10.6-1,.2-.1.4-.1.5-.1q.2,0,.2.1c-.2,1-.5,2-.6,3,0,.4-.2.6-.6.6h-17.9c-.9,0-1.7,0-2.6-.1-.7-.1-1.6-.2-2.4-.6-.6-.2-1.2-.6-1.9-1-.4-.4-.9-1-1.4-1.9h-.1c-.1-.1-.2-.1-.2,0-2.4,1.7-3.7,3-4,3.6q-.1.1-.4.1c-.1,0-.6-.6-1.4-1.9-.1-.2-.1-.5-.1-.7,1.4-.6,3.1-1.6,5.2-3.1.1-.1.1-.4.1-.6v-7.5h-4.5c-.2,0-.4-.2-.4-.6v-1.1c.1-.7.2-.9.5-.9ZM7.5,71.1c1.2.7,2.4,1.4,3.1,2.1,1,.7,1.7,1.4,2.4,2,0,0,0,.1-.1.4-.7,1-1,1.5-1.1,1.5-1-1-2.1-1.9-3.4-2.7-1-.6-1.7-1.1-2.4-1.4,0-.1.4-.7,1.1-1.6.1-.1.2-.2.4-.2ZM8.1,63.8c1.2.6,2.2,1.2,3,1.7.9.6,1.7,1.2,2.4,1.7,0,0,0,.1-.1.4-.7,1-1,1.5-1.1,1.5-1-.9-2.1-1.6-3.2-2.4-.9-.6-1.7-1-2.4-1.2,0-.1.4-.6,1.1-1.6.2,0,.4-.1.4-.1ZM25.8,62.8c1.9,0,2.7.1,2.7.4,0,.4-.1.5-.4.5s-.4.2-.4.7v1.7h9.7c.1,0,.2.1.2.4v1.1c0,.2-.1.4-.2.4h-6.1l1.2.5c.4.1.5.2.5.5s-.1.2-.4.4c-.2,0-.4.1-.4.4-.4,1-.7,1.9-1.1,2.6h4.5c.5,0,.7.1.7.5v16.9c0,.6-.4,1.2-1.1,1.6-.7.2-1.6.5-2.6.6-.2,0-.4-.1-.5-.4,0-.5-.2-1.2-.9-2.4,0-.1.1-.1.2-.1,1.1,0,1.6-.1,1.9-.2s.4-.4.4-.7v-13.7h-6.5v2.6h5.1c.2,0,.2.1.2.5v1.1c0,.2-.1.5-.2.5h-5.1v2.6h3.2c.4,0,.6.1.6.5v6.2c0,.2-.2.4-.6.4h-7.2v1c0,.2-.2.4-.6.4h-1.4c-.2,0-.4-.1-.4-.4v-7.6c0-.2.1-.5.4-.5h3.2v-2.6h-4.4c-.1,0-.2-.1-.2-.5v-1.1c0-.2.1-.5.2-.5h4.4v-2.6h-6v16.5c0,.2-.2.5-.6.5h-1.4c-.4,0-.6-.1-.6-.5v-18c0-.2.2-.5.6-.5h5.2c-.1-.1-.1-.4-.2-.5-.4-.9-.9-1.7-1.6-2.6,0-.1.6-.5,1.9-1.1.6,1,1.1,1.9,1.6,2.6.2.5.5,1.1.7,1.6h4c.5-.6.9-1.2,1.1-1.7.5-.7.7-1.6,1-2.4h0c0-.1-14.7-.1-14.7-.1-.2,0-.2-.1-.2-.4v-1.1c0-.2.1-.4.2-.4h9.5v-3c0-.4.2-.5.6-.5ZM23.4,87.1h5.2v-3.1h-5.2v3.1Z"/>
              <path class="cls-3" d="M37.3,99.2h-17.9c-1,0-2-.1-3-.2-1-.1-2-.4-2.9-.7h-.1c-.9-.4-1.7-.7-2.5-1.4-.1-.1-.2-.1-.4-.2-.5.4-.6.6-.7.7,0,.1-.1.1-.1.2-.6,1.1-1.7,1.7-3,1.7-2,0-3-1.6-4-3.2,0,0,0-.1-.1-.1-.4-.6-.6-1.4-.6-2.2,0-1.2.7-2.4,1.9-2.9.6-.2,1.7-.9,3.5-2v-3.4h-1.5c-2,0-3.5-1.6-3.5-3.7v-1.1c0-2.1,1.5-3.6,3.5-3.6h.7c-1-.6-1.5-.9-1.6-1-1.1-.5-1.9-1.6-1.9-2.9s.6-2.1,1.7-3.5c.2-.4.6-.6.9-.9-1.1-.5-2-1.6-2-2.9s.6-2.1,1.7-3.4c1-1.4,2.7-1.9,4.1-1.2,1.4.7,2.5,1.4,3.4,2,.2.2.5.4.9.6.5-.4,1.1-.5,1.7-.5h6.5c0-2,1.6-3.4,3.6-3.4s5.7,0,5.9,3.4h5.9c1.9,0,3.4,1.5,3.4,3.5v1.1c0,1.4-.7,2.6-1.9,3.1.4.6.6,1.2.6,2v16.6c1.4.5,2.1,1.7,2.1,3s0,.6-.1.9c-.2.9-.4,1.6-.6,2.5-.1,1.9-1.7,3.1-3.6,3.1Z"/>
            </g>
            <g>
              <path class="cls-1" d="M46,69.7c1.7.4,2.7.6,2.7.9s-.1.5-.4.6c-.2.2-.5.5-.5.9-.2,2.5-.5,4.6-.9,6.4-.2.9-.5,1.9-.9,2.7-.1.2-.1.4-.2.4-.7-.2-1.5-.4-2.1-.5-.2,0-.4-.1-.4-.4.5-1.2.9-2.5,1.2-4s.6-3.5.9-6.2c0-.6.2-.7.5-.7ZM49.6,62.7c1.7,0,2.7.1,2.7.4,0,.4-.1.5-.4.5s-.4.2-.4.7v31.4c0,.2-.2.4-.6.4h-1.4c-.4,0-.6-.1-.6-.4v-32.6c.1-.2.2-.4.6-.4ZM54.4,69.3c.2,0,.4,0,.4.1.7,1.6,1.2,3.4,1.9,5.2,0,.4-.1.5-.2.5-.9.6-1.5.9-2,.9-.5-2.2-1.1-4.2-1.6-5.7,0,0,.5-.4,1.6-1ZM59.8,65.6l2.5.9c.2.2.4.4.4.5,0,.2-.1.4-.2.4s-.2.1-.4.5c-.2,1.1-.4,2.1-.6,3h4.7v-7.5c0-.2.1-.4.6-.4,1.7,0,2.7.1,2.7.4,0,.4-.1.5-.4.5s-.4.2-.4.7v6.2h8c.2,0,.4.2.4.6v1.1c0,.4-.1.6-.4.6h-8v8.4h7.1c.2,0,.4.2.4.6v1.1c0,.4-.1.6-.4.6h-7.1v8.7h9c.2,0,.4.2.4.6v1.1c0,.4-.1.5-.4.5h-21c-.2,0-.4-.1-.4-.5v-1.1c0-.4.1-.6.4-.6h9.4v-8.7h-7c-.2,0-.4-.2-.4-.6v-1.1c0-.4.1-.6.4-.6h7v-8.4h-5.2c-.4,1.1-.7,2.1-1.1,3.2-.4,1-.9,1.9-1.4,2.6-.2,0-.6,0-.7-.1-.5-.2-1-.4-1.4-.5-.1-.1-.2-.1-.2-.2s0-.2.1-.2c.7-1.1,1.4-2.6,1.9-4.2.4-1,.6-2,.9-3.1s.5-2.6.7-4.5c0-.4.1-.5.1-.5Z"/>
              <path class="cls-3" d="M51.1,99.2h-1.5c-2.4,0-3.6-1.7-3.6-3.5v-11.4c-.4,0-.7,0-1-.1-.6-.2-1.2-.4-1.7-.4h-.1c-1.6-.4-2.7-1.7-2.7-3.4s.1-.7.2-1.1c.5-1.1.9-2.2,1.1-3.6.4-1.4.6-3.2.7-5.7.1-2,1.5-3.5,3.5-3.5h0v-3.5c0-2,1.6-3.5,3.6-3.5s5.7,0,5.7,3.5-.2,1.6-.7,2.2v1c.6,0,1.1.2,1.6.5.1-.4.1-.9.2-1.4,0-.1,0-.2.1-.4.5-2,2-2.6,3.1-2.6s.7.1,1,.1l2.1.7h0c0-2.1,1.6-3.6,3.6-3.6s5.7,0,5.7,3.5-.2,1.6-.7,2.2v2.2h4.9c2,0,3.5,1.6,3.5,3.6v1.1c0,2.1-1.5,3.7-3.5,3.7h-4.9v2.1h4c2,0,3.5,1.6,3.5,3.7v1.1c0,2.1-1.5,3.7-3.5,3.7h-4v2.6h5.9c2,0,3.5,1.6,3.5,3.6v1.1c0,2.1-1.5,3.6-3.5,3.6h-21c-.9,0-1.6-.2-2.2-.7-.2,1.4-1.5,2.1-3,2.1ZM54.8,81.1v9c.5-.4,1.1-.5,1.9-.5h6.2v-2.6h-3.9c-2,0-3.5-1.6-3.5-3.7v-1.9c-.1-.1-.4-.1-.5-.1s-.1,0-.2-.1c.1,0,0,0,0,0ZM62.1,78.4h.7v-2c-.1.4-.2.7-.4,1-.1.4-.2.6-.4,1Z"/>
            </g>
            <g>
              <path class="cls-1" d="M85.4,63.4h12c.4,0,.6.1.6.5v10.2c0,.2-.2.5-.6.5h-10v21c0,.2-.2.5-.6.5h-1.4c-.4,0-.6-.1-.6-.5v-31.7c.1-.4.2-.5.6-.5ZM87.4,67.9h8.2v-2.5h-8.2v2.5h0ZM87.4,72.6h8.2v-2.5h-8.2v2.5h0ZM94.1,76.7l2.1.9c.4.1.5.2.5.5s-.1.2-.5.2-.7.1-.9.2c-.7.6-1.4,1.2-2,1.7h12.6c-.2-.1-.5-.4-.6-.5-.6-.5-1-1.1-1.4-1.9,0-.1-.1-.1-.1-.2h-5.1c-.2,0-.4-.2-.4-.6v-1.1c0-.2.1-.5.4-.5h6.5c.4,0,.6.1.6.5,0,.6.1,1.1.4,1.5.2.4.6.7,1.1,1.1.4.2,1,.6,1.7.9.5.1,1.1.2,1.7.4.1,0,.2.1.2.1,0,.1-.1.1-.4.2-.4.4-.7.9-1.1,1.2s-.4.2-.6.2c-.5-.1-1-.2-1.6-.6-.2-.1-.4-.2-.6-.2v6.6c0,.2-.2.4-.6.4h-3.1v2.9c0,1,.6,1.4,1.7,1.4h1.4c.2,0,.4-.1.5-.4s.1-.7.1-1.7,0-.2.1-.2c.6.4,1.2.5,2,.6.2,0,.4.1.4.4-.2,1.5-.5,2.4-.7,2.9-.2.4-.5.6-1.1.6h-3.9c-1.9,0-2.9-.7-2.9-2.1v-4.2h-2.2c0,.6,0,1.2-.1,1.7-.1.6-.4,1.2-.6,1.9-.2.5-.6,1.1-1.2,1.6s-1.4.9-2.1,1.2c-.7.2-1.5.5-2.4.6-.2,0-.4-.1-.4-.4-.4-.4-.6-.9-.9-1.4-.1-.1-.1-.2-.1-.4,1.1-.2,2.1-.4,2.9-.6.6-.2,1-.5,1.4-.7s.6-.5.9-.9c.2-.4.4-.9.5-1.4.1-.4.1-.7.1-1.4h-2.9c-.4,0-.6-.1-.6-.4v-6.6c-.2.2-.6.4-.9.6-.2.1-.5.2-.6.2s-.4-.1-.6-.2c-.5-.2-1-.4-1.4-.6h-.2c0-.1.1-.2.2-.4,1.1-.6,2-1.1,2.6-1.6.9-.6,1.5-1.2,1.9-1.9.1-.2.2-.2.4-.2ZM104.4,85.8v-3.2h-9v3.2h9ZM102.4,63.4h12.1c.5,0,.7.1.7.5v28.6c0,1.2-.5,2.1-1.4,2.7-.9.5-1.9.9-3.2,1-.2,0-.4-.1-.4-.4,0-.5-.4-1.2-.9-2.4,0-.1.1-.2.2-.2,1.5,0,2.2-.1,2.6-.4.2-.2.5-.7.5-1.4v-17h-10.2c-.4,0-.6-.1-.6-.5v-10.2c0-.2.1-.4.5-.4ZM104.4,67.9h8.2v-2.5h-8.2v2.5ZM104.4,72.6h8.2v-2.5h-8.2v2.5Z"/>
              <path class="cls-3" d="M110.6,99.4c-1.4,0-2.6-.7-3.1-2h-3.6c-2.6,0-4.1-1-5-2.2-.1.1-.2.2-.4.2h-.1c-.9.7-1.7,1.4-2.9,1.7,0,0-.1,0-.1.1-.7.2-1.7.5-2.7.7-.9.2-1.9,0-2.5-.5-.6,1-1.7,1.6-3.1,1.6h-1.4c-2.1,0-3.6-1.5-3.6-3.5v-31.7c0-2,1.6-3.6,3.6-3.6h12c1,0,1.9.4,2.5.9.6-.6,1.5-.9,2.5-.9h12.1c2.5,0,3.7,1.9,3.7,3.6v28.6c0,2.1-.9,4-2.5,5.2q-.1.1-.2.1c-1.2.7-2.6,1.2-4.5,1.4-.4.1-.5.1-.6.1Z"/>
            </g>
            <g>
              <path class="cls-1" d="M123.1,68.8h11c.2,0,.4.2.4.6v1.1c0,.4-.1.6-.4.6h-11c-.2,0-.4-.1-.4-.6v-1.1c-.1-.5,0-.6.4-.6ZM124.1,84.6h9c.4,0,.6.1.6.4v9.9c0,.2-.1.4-.6.4h-1.4c-.2,0-.4-.1-.4-.4v-1.1h-5.1v1.7c0,.2-.2.5-.6.5h-1.4c-.2,0-.4-.1-.4-.5v-10.4c-.2-.2-.1-.5.2-.5ZM124.7,63.6h8c.2,0,.4.2.4.6v1.1c0,.4-.1.6-.4.6h-8c-.2,0-.4-.2-.4-.6v-1.1c0-.5.1-.6.4-.6ZM124.7,73.9h8c.2,0,.4.2.4.6v1.1c0,.4-.1.6-.4.6h-8c-.2,0-.4-.2-.4-.6v-1.1c0-.4.1-.6.4-.6ZM124.7,79.1h8c.2,0,.4.1.4.5v1.1c0,.4-.1.5-.4.5h-8c-.2,0-.4-.1-.4-.5v-1c0-.4.1-.6.4-.6ZM126,91.4h5.1v-4.7h-5.1v4.7ZM137.6,80.9h15.7c.4,0,.6.1.6.4v10.6c0,.2-.2.4-.6.4h-3.4c.7.4,1.4.7,1.9,1.1.7.4,1.9.7,3.2,1.1.2.1.2.2.2.2,0,.2-.5.7-1.4,1.7h-.4c-2.7-1.1-4.7-2.1-6.1-3-.1-.1-.2-.1-.2-.2s.2-.4.7-.9h-5.4c.9.7,1.4,1.1,1.4,1.2s-.1.2-.4.2c-.5,0-.7,0-.7.1-1.9,1.1-3.9,2-6,2.7-.2,0-.5-.1-.6-.2-.1-.2-.4-.6-.7-.9-.1-.1-.2-.2-.2-.4s.1-.1.2-.2c1.1-.4,2.1-.7,2.9-1.1.9-.4,1.6-.9,2.5-1.5h-3.5c-.4,0-.6-.1-.6-.4v-10.6c.2-.4.5-.5.9-.5ZM136,65.1h8.2v-1.9c0-.1.1-.2.4-.2,1.7,0,2.6.1,2.6.4s-.1.5-.2.5c-.2,0-.2.2-.2.6v.6h8.2c.2,0,.2.1.2.5v.9c0,.4-.1.6-.2.6h-8.2v1.6h6.7c.2,0,.2.1.2.4v.9c0,.4-.1.6-.2.6h-16c-.2,0-.2-.2-.2-.6v-.9c0-.2.1-.4.2-.4h6.9v-1.6h-8.2c-.2,0-.2-.2-.2-.6v-.9c-.1-.2,0-.5.1-.5ZM136.4,71.9h18.4c.4,0,.6.1.6.4v6.7c0,.2-.2.4-.6.4h-18.4c-.4,0-.6-.1-.6-.4v-6.7c0-.2.1-.4.6-.4ZM141.1,77.9v-4.4h-3.1v4.4h3.1ZM139.5,84.3h12.1v-1.7h-12.1v1.7ZM139.5,87.6h12.1v-1.6h-12.1v1.6ZM151.5,90.7v-1.6h-12.1v1.6h12.1ZM147,77.9v-4.4h-3.4v4.4h3.4ZM153,77.9v-4.4h-3.5v4.4h3.5Z"/>
              <path class="cls-3" d="M137,99.9c-1.2,0-2.5-.6-3.1-1.6-.2,0-.5.1-.9.1h-1.4c-1.1,0-2.1-.5-2.9-1.4-.6,1.1-1.9,2-3.2,2h-1.4c-2,0-3.5-1.5-3.5-3.6v-10.4c0-1,.4-2,1.1-2.6-.2-.5-.4-1-.4-1.6v-1.1c0-.7.2-1.4.5-2-.4-.6-.5-1.2-.5-2v-1.1c0-.2,0-.5.1-.7-1.1-.6-1.7-1.7-1.7-3.2v-1.1c0-1.4.7-2.6,1.7-3.2-.1-.2-.1-.6-.1-.9v-1.1c0-2.1,1.5-3.7,3.5-3.7h8c1.2,0,2.2.6,2.9,1.6h5.7c.5-1.2,1.7-2.1,3.2-2.1s4.5,0,5.4,2.1h4.9c1.6,0,3.4,1.2,3.4,3.6v.9c0,1.5-.6,2.5-1.5,3.1.9.6,1.5,1.6,1.5,2.9v6.7c0,1-.5,2-1.2,2.7v10.2h0c1.2,1,1.6,2.1,1.6,2.9,0,1.5-.9,2.5-2.4,3.9-.6.6-1.4.9-2.2.9s-.4,0-.7-.1c-.2,0-.5-.1-.7-.1-2.9-1.1-5-2.1-6.5-3.2-.5.5-1.1.7-1.9.9-2,1.1-4,2-6.2,2.7-.4-.1-.6-.1-1-.1Z"/>
            </g>
          </g>
          <g>
            <g>
              <path class="cls-4" d="M374.8,27.4h14.5l-1.5,7.2h-14.5l1.5-7.2Z"/>
              <path class="cls-3" d="M387.8,37.8h-14.5c-.9,0-1.9-.4-2.4-1.1-.6-.7-.9-1.6-.6-2.6l1.5-7.2c.2-1.4,1.6-2.5,3-2.5h14.5c.9,0,1.9.4,2.4,1.1.6.7.9,1.6.6,2.6l-1.5,7.2c-.2,1.5-1.5,2.5-3,2.5ZM377.2,31.6h8.1l.2-1h-8.1l-.2,1Z"/>
            </g>
            <g>
              <path class="cls-1" d="M391.2,44.8l8-38.1h28.2l-1.4,6.4h-20.4l-1.9,8.6h19.7l-1.4,6.4h-19.7l-2.4,10.4h22.1l-1.4,6.4h-29.6Z"/>
              <path class="cls-3" d="M420.9,47.9h-29.7c-.9,0-1.9-.4-2.4-1.1-.6-.7-.9-1.6-.6-2.6l8-38.1c.2-1.4,1.6-2.5,3-2.5h28.2c.9,0,1.9.4,2.4,1.1.6.7.9,1.6.6,2.6l-1.4,6.4c-.2,1.4-1.6,2.5-3,2.5h-17.9l-.5,2.5h15.9c.9,0,1.9.4,2.4,1.1.6.7.9,1.6.6,2.6l-1.4,6.4c-.2,1.5-1.6,2.5-3,2.5h-17.2l-1,4.1h18.2c.9,0,1.9.4,2.4,1.1.6.7.9,1.6.6,2.6l-1.4,6.4c-.1,1.4-1.4,2.4-2.9,2.4ZM395,41.7h23.5c0-.1-18.4-.1-18.4-.1-1,0-1.9-.4-2.4-1.1-.6-.7-.7-1.7-.6-2.6l2.4-10.4c.4-1.4,1.6-2.4,3-2.4h17.2c0-.1-15.9-.1-15.9-.1-.9,0-1.9-.4-2.4-1.1-.6-.7-.9-1.6-.6-2.6l1.9-8.6c.2-1.4,1.6-2.5,3-2.5h17.9c0-.1-21.9-.1-21.9-.1l-6.7,31.7Z"/>
            </g>
            <g>
              <path class="cls-4" d="M432.5,17.2h7.1l-.7,3.6c1.7-1.5,3.4-2.6,5-3.2,1.5-.6,3.1-1,4.9-1s4,.6,5.4,2c1.2,1.2,2,3,2,5.1s-.2,2.7-.9,5.5l-3.2,15.6h-7.5l3.2-15.6c.5-2.4.7-3.7.7-4.1,0-1-.2-1.7-.9-2.2s-1.4-.9-2.4-.9-2.2.5-3.6,1.4-2.4,2.1-3.1,3.6c-.5,1.1-1.1,3.2-1.9,6.6l-2.4,11.4h-7.5l5.7-27.7Z"/>
              <path class="cls-3" d="M451.9,47.9h-7.5c-.9,0-1.9-.4-2.4-1.1-.6-.7-.9-1.6-.6-2.6l3.2-15.6c.5-2.4.6-3.2.6-3.5-.2,0-.7,0-2,.9-.9.6-1.6,1.5-2.1,2.5-.2.4-.7,1.7-1.6,5.9l-2.4,11.4c-.2,1.4-1.6,2.5-3,2.5h-7.5c-.9,0-1.9-.4-2.4-1.1-.6-.7-.9-1.6-.6-2.6l5.7-27.6c.2-1.4,1.6-2.5,3-2.5h7.1c.9,0,1.6.4,2.2.9.2-.1.5-.2.7-.4,1.9-.7,4-1.2,6-1.2,3.1,0,5.6,1,7.5,2.9s2.9,4.4,2.9,7.4-.1,2.2-.9,6.1l-3.2,15.6c-.1,1.4-1.5,2.4-2.9,2.4ZM448.3,41.7h1.1l2.7-13.1c.7-3.4.7-4.5.7-4.9,0-1.7-.6-2.5-1-3-.7-.7-1.7-1-3.1-1h0c.5.2.7.5,1.1.9.9.7,1.7,2.2,1.7,4.5s0,1.2-.7,4.9l-2.6,11.7ZM430.5,41.7h1.1l1.9-8.9c1-4.9,1.7-6.5,2.1-7.4.4-.7.9-1.5,1.4-2.1-1-.6-1.5-1.9-1.2-3h-.7l-4.5,21.4Z"/>
            </g>
            <g>
              <path class="cls-4" d="M458.8,46.3l7.9,1.1c0,.7.1,1.4.4,1.7s.6.7,1.2,1c.6.2,1.4.4,2.4.4,1.6,0,2.9-.2,3.7-.9.7-.5,1.2-1.2,1.7-2.4.2-.6.6-2.1,1.1-4.4l.2-1.2c-2.6,2.1-5.2,3.2-8,3.2s-4.9-1-6.6-2.9c-1.7-1.9-2.6-4.7-2.6-8.4s.6-6.2,1.7-8.9c1.1-2.7,2.9-4.7,5-6.1s4.2-2.1,6.5-2.1,3.5.5,5,1.5c1.5,1,2.7,2.4,3.5,4.1l1-4.9h7l-4.7,23c-.7,3.7-1.5,6.4-2,7.9-.5,1.6-1.1,2.9-1.9,3.7-.7,1-1.6,1.7-2.6,2.4s-2.2,1.1-3.7,1.4c-1.4.2-3,.4-4.6.4-3.9,0-6.9-.6-8.9-2s-3-3.5-3-6.6c.1-.4.1-.7.2-1.1ZM467.5,32.9c0,2.1.5,3.7,1.4,4.7,1,1.1,2.1,1.6,3.5,1.6s2.5-.5,3.7-1.5c1.2-1,2.1-2.4,2.7-4.2s1-3.6,1-5.2-.5-3.5-1.6-4.7c-1-1.2-2.2-1.7-3.6-1.7s-2.5.5-3.6,1.6c-1.1,1-2,2.7-2.7,4.9-.5,1.7-.7,3.2-.7,4.6Z"/>
              <path class="cls-3" d="M470.5,59.2c-4.6,0-8-.9-10.5-2.5-2-1.4-4.4-4-4.4-9.2s0-1,.1-1.5c.1-.9.5-1.6,1.2-2.1.6-.5,1.5-.7,2.4-.6h.6c-1.7-2.2-2.7-5.5-2.7-9.5s.6-7.1,2-10.1c1.4-3.2,3.5-5.7,6.1-7.5s5.4-2.6,8.2-2.6,4.7.6,6.7,2c.1,0,.2.1.2.2.5-.9,1.5-1.5,2.6-1.5h7c.9,0,1.9.4,2.4,1.1s.9,1.6.6,2.6l-4.7,23c-.7,3.9-1.5,6.5-2.1,8.2-.6,1.9-1.4,3.4-2.2,4.6s-2.1,2.4-3.5,3.1c-1.4.9-3,1.4-4.7,1.7-1.7.2-3.5.5-5.4.5ZM462.2,49.9c.4.9.7,1.2,1.2,1.5.6.4,1.5.7,2.5,1-.6-.5-1.1-1-1.5-1.6-.1-.2-.2-.5-.4-.7h-1.9ZM479.4,39.2c1,.7,1.4,1.9,1.1,3.1l-.2,1.2c-.6,3.2-1,4.4-1.2,5-.6,1.4-1.4,2.5-2.2,3.2.2-.1.4-.2.5-.2.7-.4,1.2-.9,1.7-1.5s1-1.6,1.4-2.9c.5-1.5,1.1-4,1.9-7.5l4-19.2h-.6l-.5,2.4c-.2,1.2-1.2,2.1-2.4,2.4.2,1,.5,2.1.5,3.2,0,2-.4,4.1-1.1,6.4-.7,1.7-1.6,3.2-2.7,4.4ZM469.6,20.7c-.4.1-.6.4-1,.5-1.6,1-2.9,2.6-3.9,4.7-1,2.2-1.5,4.9-1.5,7.6s.6,5,1.7,6.2,2.4,1.7,4.1,1.9c-1-.5-1.9-1.1-2.7-2.1-1.4-1.6-2.1-4-2.1-6.9s.4-3.5,1-5.5c.9-2.7,2.1-4.7,3.6-6.1.4,0,.5-.2.7-.4ZM474.8,24.9c-.4,0-.9.1-1.5.7s-1.2,1.5-2,3.6c-.5,1.4-.6,2.6-.6,3.6s.2,2.2.6,2.7c.4.4.6.6,1.2.6s1.1-.2,1.9-.7c.7-.6,1.4-1.6,1.9-2.9.5-1.5.7-2.9.7-4.2s-.2-2-.7-2.6c-.7-.9-1.2-.9-1.5-.9Z"/>
            </g>
            <g>
              <path class="cls-4" d="M491.6,44.8l8-38.1h7.4l-8,38.1h-7.4Z"/>
              <path class="cls-3" d="M499,47.9h-7.5c-.9,0-1.9-.4-2.4-1.1-.6-.7-.9-1.6-.6-2.6l8-38.1c.2-1.4,1.6-2.5,3-2.5h7.4c.9,0,1.9.4,2.4,1.1.6.7.9,1.6.6,2.6l-8,38.1c-.1,1.5-1.4,2.5-2.9,2.5ZM495.4,41.7h1.1l6.6-31.9h-1.1l-6.6,31.9Z"/>
            </g>
            <g>
              <path class="cls-4" d="M512.3,17.2h7.5l-5.7,27.6h-7.5l5.7-27.6ZM514.4,6.7h7.5l-1.4,6.7h-7.5l1.4-6.7Z"/>
              <path class="cls-3" d="M513.9,47.9h-7.5c-.9,0-1.9-.4-2.4-1.1-.6-.7-.9-1.6-.6-2.6l5.7-27.6c.1-.7.5-1.2,1-1.7-.2-.6-.4-1.4-.2-2l1.4-6.7c.2-1.4,1.6-2.5,3-2.5h7.5c.9,0,1.9.4,2.4,1.1.6.7.9,1.6.6,2.6l-1.4,6.7c-.1.7-.5,1.2-1,1.7.2.6.4,1.4.2,2l-5.7,27.6c-.2,1.5-1.5,2.5-3,2.5ZM510.3,41.7h1.1l4.5-21.4h-1.1l-4.5,21.4ZM516.8,10.4h1.1v-.5c.1,0-1,0-1,0v.5Z"/>
            </g>
            <g>
              <path class="cls-4" d="M520.3,37.1l7.2-1.1c.6,1.5,1.4,2.6,2.4,3.2,1,.6,2.2,1,3.9,1s3-.4,4.1-1.1c.7-.5,1.1-1.1,1.1-1.9s-.1-1-.5-1.4c-.4-.4-1.4-.9-3.1-1.4-4.5-1.5-7.2-2.6-8.4-3.5-1.6-1.4-2.5-3.1-2.5-5.2s.9-4.1,2.5-5.6c2.2-2.2,5.6-3.2,10.1-3.2s6.2.6,8,2c1.9,1.2,3,3,3.5,5.2l-6.9,1.2c-.4-1-1-1.7-1.7-2.2-1.1-.6-2.5-1-4-1s-2.6.2-3.4.7c-.6.5-1,1.1-1,1.7s.4,1.2,1,1.7c.4.2,1.9.7,4.1,1.5,3.6,1,6.1,2.1,7.2,3.1,1.7,1.5,2.6,3.1,2.6,5.2s-1.1,4.9-3.2,6.7c-2.2,1.9-5.2,2.9-9.2,2.9s-7.1-.7-9.2-2.2c-2.4-1.7-3.9-3.7-4.6-6.5Z"/>
              <path class="cls-3" d="M533.9,48.6c-4.6,0-8.2-.9-11-2.7s-4.7-4.5-5.6-7.9c-.2-.9-.1-1.7.4-2.5.5-.7,1.2-1.2,2.1-1.4l5.2-.9c-2.4-1.9-3.6-4.6-3.6-7.7s1.1-5.7,3.4-7.9c2.9-2.7,7-4.1,12.2-4.1s7.5.9,9.9,2.5c2.5,1.7,4,4.1,4.7,7.1.1.9,0,1.7-.5,2.4-.5.7-1.2,1.1-2,1.4l-4,.7c.4.2.6.4.9.6,2.4,2,3.7,4.6,3.7,7.6s-1.5,6.6-4.4,9.1c-2.9,2.4-6.7,3.6-11.5,3.6ZM525,39.4c.4.5.9.9,1.4,1.2.4.2.7.4,1.1.6-.6-.5-1.2-1.1-1.7-2h-.7ZM528.6,22.4c-.7.9-1.1,1.9-1.1,3.1s.4,2.1,1.4,2.9c.2.1,1.5,1,7.4,3,2.2.7,3.5,1.4,4.2,2.1h.1c.9,1.1,1.4,2.2,1.4,3.5s-.5,2.6-1.5,3.6c.2-.1.5-.4.6-.5,1.5-1.4,2.2-2.7,2.2-4.5s-.1-1.7-1.5-2.9c-.4-.4-1.9-1.2-6.2-2.5-3.6-1.1-4.5-1.5-5-1.9-1.6-1-2.5-2.6-2.5-4.4.1-.4.3-1,.5-1.6ZM531.1,36.2c.1.2.4.4.4.4.2.1.7.4,2,.4-.9-.2-1.6-.5-2.4-.7ZM541.8,20.3c.5.4,1,.7,1.4,1.2h.6c-.1-.2-.4-.4-.5-.5-.4-.2-.9-.5-1.5-.7Z"/>
            </g>
            <g>
              <path class="cls-4" d="M558.4,44.8h-7.5l8-38.1h7.5l-2.9,13.6c1.6-1.4,3.2-2.2,4.7-2.9s3-.9,4.6-.9,4,.6,5.2,1.9,2,3,2,5-.2,2.9-.7,5.1l-3.4,16.1h-7.5l3.5-16.5c.4-1.7.5-2.9.5-3.4,0-.9-.2-1.6-.9-2.2-.6-.5-1.4-.9-2.4-.9s-2.5.4-3.6,1.2c-1.5,1.1-2.6,2.5-3.4,4.2-.4.9-1,3.1-1.7,6.5l-2.1,11.1Z"/>
              <path class="cls-3" d="M576,47.9h-7.5c-.9,0-1.9-.4-2.4-1.1-.6-.7-.9-1.6-.6-2.6l3.5-16.5c.4-1.9.5-2.5.5-2.7-.4,0-1,0-1.7.6-1.1.9-1.9,1.9-2.5,3-.1.2-.6,1.4-1.5,5.7l-2.2,11c-.2,1.4-1.6,2.5-3,2.5h-7.5c-.9,0-1.9-.4-2.4-1.1s-.9-1.6-.6-2.6l8-38.1c.2-1.4,1.6-2.5,3-2.5h7.5c.9,0,1.9.4,2.4,1.1.6.7.9,1.6.6,2.6l-1.5,6.9c1.5-.5,3.2-.7,5-.7,3.1,0,5.6,1,7.5,2.9s2.9,4.4,2.9,7.2-.2,3.2-.7,5.7l-3.4,16.1c-.5,1.6-1.7,2.6-3.2,2.6ZM572.4,41.7h1.1l2.9-13.6c.5-2.6.6-3.9.6-4.5,0-1.6-.6-2.4-1-2.9-.7-.7-1.7-1-3.2-1,.5.2.7.5,1.1.9,1.1,1.1,1.7,2.6,1.7,4.5s-.1,1.4-.6,4l-2.6,12.6ZM554.8,41.7h1.1l1.7-8.5c1-4.9,1.6-6.4,2-7.1.5-1.2,1.2-2.2,2.1-3.2-1-.7-1.5-2-1.2-3.1l2.1-9.9h-1.1l-6.7,31.9Z"/>
            </g>
          </g>
        </g>
        <g>
          <g>
            <path class="cls-2" d="M370.2,70.6c0,4.4-3.5,7.9-7.9,7.9s-7.9-3.5-7.9-7.9,3.5-7.9,7.9-7.9c4.4-.1,7.9,3.5,7.9,7.9ZM362.3,61.2c-5.1,0-9.2,4.1-9.2,9.2s4.1,9.2,9.2,9.2,9.2-4.1,9.2-9.2-4.1-9.2-9.2-9.2Z"/>
            <path class="cls-2" d="M358.2,75.9v-10.9h4.9c1,0,1.7.1,2.2.2.5.2.9.5,1.2,1,.2.5.5,1,.5,1.6s-.2,1.4-.7,2c-.5.5-1.2.9-2.4,1,.4.1.6.4.9.5.4.4.9.9,1.2,1.5l1.9,3h-1.7l-1.4-2.2c-.4-.6-.7-1.1-1-1.5-.2-.4-.5-.6-.7-.7s-.4-.2-.6-.2h-2.9v4.9h-1.4ZM359.6,69.9h3.1c.6,0,1.1-.1,1.5-.2.4-.1.6-.4.9-.6s.2-.6.2-1-.1-1-.5-1.2c-.4-.4-1-.5-1.7-.5h-3.5v3.6Z"/>
          </g>
          <g>
            <path class="cls-1" d="M3.1,30.2l7.6-.4c.1,2.4.5,4,1.2,4.9,1.1,1.4,3.4,2.1,6.5,2.1s4.5-.5,5.7-1.4c1.1-.9,1.7-2.1,1.7-3.4s-.5-2.1-1.4-2.9c-.6-.6-2.5-1.5-5.5-2.9-3-1.2-5.2-2.4-6.6-3.2s-2.5-2-3.2-3.4-1.2-3-1.2-4.9c0-3.2,1.1-6,3.5-8.1,2.4-2.1,5.7-3.2,10.2-3.2s8.1,1.1,10.6,3.2,3.9,5,4.1,8.5l-7.6.4c-.2-1.9-.9-3.2-2-4.2-1.1-1-2.9-1.5-5.1-1.5s-3.9.4-4.7,1.1c-1,.7-1.4,1.7-1.4,2.9s.4,2,1.2,2.7,2.7,1.7,5.7,3c4.5,1.9,7.4,3.5,8.5,4.6,1.9,1.7,2.7,4,2.7,6.7s-1.4,6.4-4.1,8.7-6.5,3.6-11.4,3.6-6.2-.5-8.6-1.6c-2.5-1.1-4.1-2.6-5.1-4.6-1.1-2-1.6-4.4-1.5-6.9Z"/>
            <path class="cls-4" d="M43.6,14.6h7.1l-.6,3.4c2.7-2.7,5.7-4,8.7-4s3.7.5,4.9,1.4,1.9,2.1,2.2,3.6c1-1.4,2.4-2.6,4.1-3.5,1.9-1,3.7-1.4,5.6-1.4s4,.6,5.2,1.9,1.9,2.7,1.9,4.7-.2,2.6-.9,5l-3.6,17.1h-7.5l3.6-17.1c.5-2.1.7-3.4.7-3.6,0-.7-.2-1.4-.7-1.9-.5-.5-1.1-.6-2.1-.6-1.9,0-3.6,1-5.1,3-1.1,1.4-2,4-2.7,7.6l-2.6,12.7h-7.5l3.5-17c.4-2,.6-3.2.6-3.7,0-.7-.2-1.4-.7-1.9-.5-.5-1.2-.7-2.1-.7s-1.7.2-2.6.7c-.9.5-1.6,1.1-2.4,2-.6.9-1.2,2-1.7,3.4-.2.6-.6,2.1-1.1,4.2l-2.6,12.9h-7.5l6-28.2Z"/>
            <path class="cls-4" d="M96.7,22.4l-7.4-.6c.9-2.5,2.2-4.5,4.4-5.9s4.9-2.1,8.2-2.1,6.2.7,8,2.1c1.7,1.5,2.6,3.2,2.6,5.4s-.1,1.7-.2,2.7c-.1,1-.6,3.5-1.6,7.5-.7,3.4-1.1,5.7-1.1,7s.2,2.5.6,4h-7.2c-.4-1-.6-2.1-.6-3.1-1.1,1.2-2.4,2.2-3.9,2.9-1.5.6-2.9,1-4.4,1-2.4,0-4.2-.7-5.7-2.2-1.5-1.5-2.2-3.5-2.2-5.9s.9-4.9,2.5-6.4c1.6-1.6,4.6-2.6,8.9-2.9,3.6-.2,6-.6,7.2-1.1.4-1.1.5-1.9.5-2.5s-.4-1.5-1-2-1.6-.9-2.9-.9-2.4.2-3.1.9c-.6.4-1.1,1.1-1.5,2.1ZM103.9,29.6c-.5.1-1.1.2-1.9.4-3.7.5-6.2,1.1-7.4,2-.9.6-1.2,1.5-1.2,2.6s.4,1.6,1,2.2,1.5.9,2.5.9,2.2-.2,3.2-.9,1.7-1.2,2.2-2.1c.5-.9,1-2.2,1.4-4.1v-1Z"/>
            <path class="cls-4" d="M121.6,14.6h7.1l-1.1,5.4c2.6-4,5.5-6,8.5-6s2.2.2,3.5.9l-2.9,6.2c-.7-.2-1.4-.4-2.2-.4-1.4,0-2.6.5-4,1.5-1.4,1-2.4,2.2-3.1,4-.7,1.6-1.5,4.2-2.2,7.9l-1.7,8.7h-7.5l5.7-28.2Z"/>
            <path class="cls-4" d="M139,20.2l1.1-5.6h3.7l.9-4.5,8.6-5.2-2,9.7h4.5l-1.1,5.6h-4.5l-2.5,11.9c-.5,2.1-.6,3.4-.6,3.6,0,.6.1,1,.5,1.4.4.4,1,.5,2,.5s1.1,0,2.5-.1l-1.2,5.6c-1.2.2-2.6.4-4,.4-2.6,0-4.6-.5-5.7-1.5-1.2-1-1.7-2.5-1.7-4.4s.4-2.9,1-6l2.4-11.2h-3.7Z"/>
            <path class="cls-1" d="M163.2,42.7h-8l8.1-38.6h17.2c3,0,5.2.2,6.9.9s3,1.7,4,3.4c1,1.6,1.5,3.6,1.5,5.9,0,3.2-1,6-3,8.1s-5,3.5-8.9,4c1,.9,2,2.1,2.9,3.6,1.7,3,3.7,7.2,6,12.9h-8.6c-.6-2.1-2-5.6-4-10.2-1.1-2.5-2.2-4.1-3.5-5-.7-.5-2.1-.7-4-.7h-3.2l-3.4,15.9ZM167.8,20.8h4.2c4.2,0,7.1-.2,8.5-.7,1.4-.5,2.5-1.2,3.2-2.4s1.1-2.2,1.1-3.4-.6-2.5-1.7-3.1c-.7-.4-2.2-.6-4.5-.6h-8.7l-2.1,10.2Z"/>
            <path class="cls-4" d="M221.3,30.9h-19v.7c0,1.9.5,3.4,1.6,4.5s2.4,1.7,3.9,1.7c2.5,0,4.5-1.2,5.9-3.9l6.7,1.1c-1.4,2.7-3.1,4.7-5.2,6.1-2.2,1.4-4.6,2-7.4,2s-6.9-1.2-9.1-3.6c-2.4-2.4-3.5-5.5-3.5-9.5s1.1-7.2,3.1-10.2c2.9-4,7-6.1,12.4-6.1s6.1,1.1,8.1,3.2,3,5.1,3,8.9c.1,1.9-.1,3.6-.5,5ZM215.1,26.3v-.7c0-2.1-.5-3.6-1.4-4.7-.9-1-2.1-1.6-3.7-1.6s-3,.6-4.2,1.7-2.1,3-2.5,5.2c0,.1,11.9.1,11.9.1Z"/>
            <path class="cls-4" d="M235,22.4l-7.4-.6c.9-2.5,2.2-4.5,4.4-5.9s4.9-2.1,8.2-2.1,6.2.7,8,2.1c1.7,1.5,2.6,3.2,2.6,5.4s-.1,1.7-.2,2.7c-.1,1-.6,3.5-1.6,7.5-.7,3.4-1.1,5.7-1.1,7s.2,2.5.6,4h-7.2c-.4-1-.6-2.1-.6-3.1-1.1,1.2-2.4,2.2-3.9,2.9s-2.9,1-4.4,1c-2.4,0-4.2-.7-5.7-2.2-1.5-1.5-2.2-3.5-2.2-5.9s.9-4.9,2.5-6.4c1.6-1.6,4.6-2.6,8.9-2.9,3.6-.2,6-.6,7.2-1.1.4-1.1.5-1.9.5-2.5s-.4-1.5-1-2-1.6-.9-2.9-.9-2.4.2-3.1.9c-.6.4-1.1,1.1-1.5,2.1ZM242.1,29.6c-.5.1-1.1.2-1.9.4-3.7.5-6.2,1.1-7.4,2-.9.6-1.2,1.5-1.2,2.6s.4,1.6,1,2.2,1.5.9,2.5.9,2.2-.2,3.2-.9c1-.6,1.7-1.2,2.2-2.1s1-2.2,1.4-4.1v-1Z"/>
            <path class="cls-4" d="M280.2,42.7h-7.2l.6-3c-1.4,1.4-2.7,2.2-4,2.9-1.4.6-2.9.9-4.5.9-2.9,0-5.2-1-7.1-3-1.7-2-2.7-4.9-2.7-8.7s1.2-8.6,3.9-12.2,6-5.5,10.2-5.5,6.7,1.5,8.6,4.5l3.1-14.5h7.5l-8.4,38.7ZM262.6,31.3c0,2,.5,3.6,1.5,4.7,1,1.1,2.2,1.7,3.7,1.7s2.6-.5,3.9-1.4c1.2-1,2.1-2.4,2.9-4.4.7-2,1.1-3.7,1.1-5.6s-.5-3.6-1.6-4.9-2.4-1.9-3.9-1.9c-2.2,0-4.1,1.2-5.5,3.7-1.4,2.2-2.1,5-2.1,7.9Z"/>
            <path class="cls-4" d="M293.2,14.6h7.5l-5.9,28.1h-7.5l5.9-28.1ZM295.4,3.9h7.5l-1.4,6.7h-7.5l1.4-6.7Z"/>
            <path class="cls-4" d="M308.3,14.6h7.1l-.7,3.7c1.9-1.5,3.5-2.6,5.1-3.4,1.6-.6,3.2-1,5-1s4.1.6,5.5,2,2,3.1,2,5.4-.4,2.9-1,5.6l-3.4,15.9h-7.5l3.4-15.9c.5-2.4.7-3.7.9-4.2,0-1-.2-1.7-.9-2.4s-1.4-.9-2.5-.9-2.4.5-3.7,1.4-2.5,2.1-3.2,3.7c-.6,1.1-1.2,3.4-2,6.6l-2.4,11.5h-7.5l5.9-28.1Z"/>
            <path class="cls-4" d="M335.1,44.2l8,1.1c0,.7.1,1.4.4,1.9.2.4.6.7,1.2,1,.6.2,1.4.4,2.4.4,1.7,0,3-.4,4.1-1,.7-.5,1.4-1.2,1.9-2.4.2-.7.6-2.2,1.1-4.6l.2-1.2c-2.7,2.1-5.6,3.2-8.5,3.2s-5-1-6.7-2.9-2.6-4.7-2.6-8.5.6-6.2,1.7-9c1.2-2.7,2.9-4.7,5-6.2,2.1-1.4,4.4-2.1,6.6-2.1s3.5.5,5,1.5c1.5,1,2.7,2.4,3.6,4.1l1-4.9h7.1l-4.5,23.2c-.7,3.7-1.5,6.5-2,8.1s-1.2,2.9-1.9,3.9c-.7,1-1.6,1.7-2.7,2.4-1.1.6-2.4,1.1-3.9,1.4s-3.1.4-4.9.4c-3.9,0-6.9-.6-8.9-2s-3-3.6-3-6.7c0-.2,0-.6.1-1ZM343.9,30.4c0,2.1.5,3.7,1.4,4.9,1,1.1,2.1,1.6,3.6,1.6s2.6-.5,3.9-1.5c1.2-1,2.2-2.4,2.9-4.2s1-3.6,1-5.4-.5-3.5-1.6-4.7-2.4-1.7-3.9-1.7-2.6.5-3.7,1.6-2,2.7-2.7,4.9c-.5,1.7-.7,3.2-.7,4.6Z"/>
          </g>
          <g>
            <path class="cls-1" d="M5.8,79.9h6.5c.4,0,.6.1.6.4v9.5c0,.9.1,1.5.4,1.9s.5.7.9,1c.5.4,1.1.6,1.9.7,1,.1,2,.2,3.2.2h7.7c3,0,6.5-.4,10.6-1,.2-.1.4-.1.5-.1q.2,0,.2.1c-.2,1-.5,2-.6,3,0,.4-.2.6-.6.6h-17.9c-.9,0-1.7,0-2.6-.1-.7-.1-1.6-.2-2.4-.6-.6-.2-1.2-.6-1.9-1-.4-.4-.9-1-1.4-1.9h-.1c-.1-.1-.2-.1-.2,0-2.4,1.7-3.7,3-4,3.6q-.1.1-.4.1c-.1,0-.6-.6-1.4-1.9-.1-.2-.1-.5-.1-.7,1.4-.6,3.1-1.6,5.2-3.1.1-.1.1-.4.1-.6v-7.5h-4.5c-.2,0-.4-.2-.4-.6v-1.1c.1-.7.2-.9.5-.9ZM7.5,71.1c1.2.7,2.4,1.4,3.1,2.1,1,.7,1.7,1.4,2.4,2,0,0,0,.1-.1.4-.7,1-1,1.5-1.1,1.5-1-1-2.1-1.9-3.4-2.7-1-.6-1.7-1.1-2.4-1.4,0-.1.4-.7,1.1-1.6.1-.1.2-.2.4-.2ZM8.1,63.8c1.2.6,2.2,1.2,3,1.7.9.6,1.7,1.2,2.4,1.7,0,0,0,.1-.1.4-.7,1-1,1.5-1.1,1.5-1-.9-2.1-1.6-3.2-2.4-.9-.6-1.7-1-2.4-1.2,0-.1.4-.6,1.1-1.6.2,0,.4-.1.4-.1ZM25.8,62.8c1.9,0,2.7.1,2.7.4,0,.4-.1.5-.4.5s-.4.2-.4.7v1.7h9.7c.1,0,.2.1.2.4v1.1c0,.2-.1.4-.2.4h-6.1l1.2.5c.4.1.5.2.5.5s-.1.2-.4.4c-.2,0-.4.1-.4.4-.4,1-.7,1.9-1.1,2.6h4.5c.5,0,.7.1.7.5v16.9c0,.6-.4,1.2-1.1,1.6-.7.2-1.6.5-2.6.6-.2,0-.4-.1-.5-.4,0-.5-.2-1.2-.9-2.4,0-.1.1-.1.2-.1,1.1,0,1.6-.1,1.9-.2s.4-.4.4-.7v-13.7h-6.5v2.6h5.1c.2,0,.2.1.2.5v1.1c0,.2-.1.5-.2.5h-5.1v2.6h3.2c.4,0,.6.1.6.5v6.2c0,.2-.2.4-.6.4h-7.2v1c0,.2-.2.4-.6.4h-1.4c-.2,0-.4-.1-.4-.4v-7.6c0-.2.1-.5.4-.5h3.2v-2.6h-4.4c-.1,0-.2-.1-.2-.5v-1.1c0-.2.1-.5.2-.5h4.4v-2.6h-6v16.5c0,.2-.2.5-.6.5h-1.4c-.4,0-.6-.1-.6-.5v-18c0-.2.2-.5.6-.5h5.2c-.1-.1-.1-.4-.2-.5-.4-.9-.9-1.7-1.6-2.6,0-.1.6-.5,1.9-1.1.6,1,1.1,1.9,1.6,2.6.2.5.5,1.1.7,1.6h4c.5-.6.9-1.2,1.1-1.7.5-.7.7-1.6,1-2.4h0c0-.1-14.7-.1-14.7-.1-.2,0-.2-.1-.2-.4v-1.1c0-.2.1-.4.2-.4h9.5v-3c0-.4.2-.5.6-.5ZM23.4,87.1h5.2v-3.1h-5.2v3.1Z"/>
            <path class="cls-1" d="M46,69.7c1.7.4,2.7.6,2.7.9s-.1.5-.4.6c-.2.2-.5.5-.5.9-.2,2.5-.5,4.6-.9,6.4-.2.9-.5,1.9-.9,2.7-.1.2-.1.4-.2.4-.7-.2-1.5-.4-2.1-.5-.2,0-.4-.1-.4-.4.5-1.2.9-2.5,1.2-4s.6-3.5.9-6.2c0-.6.2-.7.5-.7ZM49.6,62.7c1.7,0,2.7.1,2.7.4,0,.4-.1.5-.4.5s-.4.2-.4.7v31.4c0,.2-.2.4-.6.4h-1.4c-.4,0-.6-.1-.6-.4v-32.6c.1-.2.2-.4.6-.4ZM54.4,69.3c.2,0,.4,0,.4.1.7,1.6,1.2,3.4,1.9,5.2,0,.4-.1.5-.2.5-.9.6-1.5.9-2,.9-.5-2.2-1.1-4.2-1.6-5.7,0,0,.5-.4,1.6-1ZM59.8,65.6l2.5.9c.2.2.4.4.4.5,0,.2-.1.4-.2.4s-.2.1-.4.5c-.2,1.1-.4,2.1-.6,3h4.7v-7.5c0-.2.1-.4.6-.4,1.7,0,2.7.1,2.7.4,0,.4-.1.5-.4.5s-.4.2-.4.7v6.2h8c.2,0,.4.2.4.6v1.1c0,.4-.1.6-.4.6h-8v8.4h7.1c.2,0,.4.2.4.6v1.1c0,.4-.1.6-.4.6h-7.1v8.7h9c.2,0,.4.2.4.6v1.1c0,.4-.1.5-.4.5h-21c-.2,0-.4-.1-.4-.5v-1.1c0-.4.1-.6.4-.6h9.4v-8.7h-7c-.2,0-.4-.2-.4-.6v-1.1c0-.4.1-.6.4-.6h7v-8.4h-5.2c-.4,1.1-.7,2.1-1.1,3.2-.4,1-.9,1.9-1.4,2.6-.2,0-.6,0-.7-.1-.5-.2-1-.4-1.4-.5-.1-.1-.2-.1-.2-.2s0-.2.1-.2c.7-1.1,1.4-2.6,1.9-4.2.4-1,.6-2,.9-3.1s.5-2.6.7-4.5c0-.4.1-.5.1-.5Z"/>
            <path class="cls-1" d="M85.4,63.4h12c.4,0,.6.1.6.5v10.2c0,.2-.2.5-.6.5h-10v21c0,.2-.2.5-.6.5h-1.4c-.4,0-.6-.1-.6-.5v-31.7c.1-.4.2-.5.6-.5ZM87.4,67.9h8.2v-2.5h-8.2v2.5h0ZM87.4,72.6h8.2v-2.5h-8.2v2.5h0ZM94.1,76.7l2.1.9c.4.1.5.2.5.5s-.1.2-.5.2-.7.1-.9.2c-.7.6-1.4,1.2-2,1.7h12.6c-.2-.1-.5-.4-.6-.5-.6-.5-1-1.1-1.4-1.9,0-.1-.1-.1-.1-.2h-5.1c-.2,0-.4-.2-.4-.6v-1.1c0-.2.1-.5.4-.5h6.5c.4,0,.6.1.6.5,0,.6.1,1.1.4,1.5.2.4.6.7,1.1,1.1.4.2,1,.6,1.7.9.5.1,1.1.2,1.7.4.1,0,.2.1.2.1,0,.1-.1.1-.4.2-.4.4-.7.9-1.1,1.2s-.4.2-.6.2c-.5-.1-1-.2-1.6-.6-.2-.1-.4-.2-.6-.2v6.6c0,.2-.2.4-.6.4h-3.1v2.9c0,1,.6,1.4,1.7,1.4h1.4c.2,0,.4-.1.5-.4s.1-.7.1-1.7,0-.2.1-.2c.6.4,1.2.5,2,.6.2,0,.4.1.4.4-.2,1.5-.5,2.4-.7,2.9-.2.4-.5.6-1.1.6h-3.9c-1.9,0-2.9-.7-2.9-2.1v-4.2h-2.2c0,.6,0,1.2-.1,1.7-.1.6-.4,1.2-.6,1.9-.2.5-.6,1.1-1.2,1.6s-1.4.9-2.1,1.2c-.7.2-1.5.5-2.4.6-.2,0-.4-.1-.4-.4-.4-.4-.6-.9-.9-1.4-.1-.1-.1-.2-.1-.4,1.1-.2,2.1-.4,2.9-.6.6-.2,1-.5,1.4-.7s.6-.5.9-.9c.2-.4.4-.9.5-1.4.1-.4.1-.7.1-1.4h-2.9c-.4,0-.6-.1-.6-.4v-6.6c-.2.2-.6.4-.9.6-.2.1-.5.2-.6.2s-.4-.1-.6-.2c-.5-.2-1-.4-1.4-.6h-.2c0-.1.1-.2.2-.4,1.1-.6,2-1.1,2.6-1.6.9-.6,1.5-1.2,1.9-1.9.1-.2.2-.2.4-.2ZM104.4,85.8v-3.2h-9v3.2h9ZM102.4,63.4h12.1c.5,0,.7.1.7.5v28.6c0,1.2-.5,2.1-1.4,2.7-.9.5-1.9.9-3.2,1-.2,0-.4-.1-.4-.4,0-.5-.4-1.2-.9-2.4,0-.1.1-.2.2-.2,1.5,0,2.2-.1,2.6-.4.2-.2.5-.7.5-1.4v-17h-10.2c-.4,0-.6-.1-.6-.5v-10.2c0-.2.1-.4.5-.4ZM104.4,67.9h8.2v-2.5h-8.2v2.5ZM104.4,72.6h8.2v-2.5h-8.2v2.5Z"/>
            <path class="cls-1" d="M123.1,68.8h11c.2,0,.4.2.4.6v1.1c0,.4-.1.6-.4.6h-11c-.2,0-.4-.1-.4-.6v-1.1c-.1-.5,0-.6.4-.6ZM124.1,84.6h9c.4,0,.6.1.6.4v9.9c0,.2-.1.4-.6.4h-1.4c-.2,0-.4-.1-.4-.4v-1.1h-5.1v1.7c0,.2-.2.5-.6.5h-1.4c-.2,0-.4-.1-.4-.5v-10.4c-.2-.2-.1-.5.2-.5ZM124.7,63.6h8c.2,0,.4.2.4.6v1.1c0,.4-.1.6-.4.6h-8c-.2,0-.4-.2-.4-.6v-1.1c0-.5.1-.6.4-.6ZM124.7,73.9h8c.2,0,.4.2.4.6v1.1c0,.4-.1.6-.4.6h-8c-.2,0-.4-.2-.4-.6v-1.1c0-.4.1-.6.4-.6ZM124.7,79.1h8c.2,0,.4.1.4.5v1.1c0,.4-.1.5-.4.5h-8c-.2,0-.4-.1-.4-.5v-1c0-.4.1-.6.4-.6ZM126,91.4h5.1v-4.7h-5.1v4.7ZM137.6,80.9h15.7c.4,0,.6.1.6.4v10.6c0,.2-.2.4-.6.4h-3.4c.7.4,1.4.7,1.9,1.1.7.4,1.9.7,3.2,1.1.2.1.2.2.2.2,0,.2-.5.7-1.4,1.7h-.4c-2.7-1.1-4.7-2.1-6.1-3-.1-.1-.2-.1-.2-.2s.2-.4.7-.9h-5.4c.9.7,1.4,1.1,1.4,1.2s-.1.2-.4.2c-.5,0-.7,0-.7.1-1.9,1.1-3.9,2-6,2.7-.2,0-.5-.1-.6-.2-.1-.2-.4-.6-.7-.9-.1-.1-.2-.2-.2-.4s.1-.1.2-.2c1.1-.4,2.1-.7,2.9-1.1.9-.4,1.6-.9,2.5-1.5h-3.5c-.4,0-.6-.1-.6-.4v-10.6c.2-.4.5-.5.9-.5ZM136,65.1h8.2v-1.9c0-.1.1-.2.4-.2,1.7,0,2.6.1,2.6.4s-.1.5-.2.5c-.2,0-.2.2-.2.6v.6h8.2c.2,0,.2.1.2.5v.9c0,.4-.1.6-.2.6h-8.2v1.6h6.7c.2,0,.2.1.2.4v.9c0,.4-.1.6-.2.6h-16c-.2,0-.2-.2-.2-.6v-.9c0-.2.1-.4.2-.4h6.9v-1.6h-8.2c-.2,0-.2-.2-.2-.6v-.9c-.1-.2,0-.5.1-.5ZM136.4,71.9h18.4c.4,0,.6.1.6.4v6.7c0,.2-.2.4-.6.4h-18.4c-.4,0-.6-.1-.6-.4v-6.7c0-.2.1-.4.6-.4ZM141.1,77.9v-4.4h-3.1v4.4h3.1ZM139.5,84.3h12.1v-1.7h-12.1v1.7ZM139.5,87.6h12.1v-1.6h-12.1v1.6ZM151.5,90.7v-1.6h-12.1v1.6h12.1ZM147,77.9v-4.4h-3.4v4.4h3.4ZM153,77.9v-4.4h-3.5v4.4h3.5Z"/>
          </g>
          <g>
            <path class="cls-4" d="M374.8,27.4h14.5l-1.5,7.2h-14.5l1.5-7.2Z"/>
            <path class="cls-1" d="M391.2,44.8l8-38.1h28.2l-1.4,6.4h-20.4l-1.9,8.6h19.7l-1.4,6.4h-19.7l-2.4,10.4h22.1l-1.4,6.4h-29.6Z"/>
            <path class="cls-4" d="M432.5,17.2h7.1l-.7,3.6c1.7-1.5,3.4-2.6,5-3.2,1.5-.6,3.1-1,4.9-1s4,.6,5.4,2c1.2,1.2,2,3,2,5.1s-.2,2.7-.9,5.5l-3.2,15.6h-7.5l3.2-15.6c.5-2.4.7-3.7.7-4.1,0-1-.2-1.7-.9-2.2s-1.4-.9-2.4-.9-2.2.5-3.6,1.4-2.4,2.1-3.1,3.6c-.5,1.1-1.1,3.2-1.9,6.6l-2.4,11.4h-7.5l5.7-27.7Z"/>
            <path class="cls-4" d="M458.8,46.3l7.9,1.1c0,.7.1,1.4.4,1.7s.6.7,1.2,1c.6.2,1.4.4,2.4.4,1.6,0,2.9-.2,3.7-.9.7-.5,1.2-1.2,1.7-2.4.2-.6.6-2.1,1.1-4.4l.2-1.2c-2.6,2.1-5.2,3.2-8,3.2s-4.9-1-6.6-2.9c-1.7-1.9-2.6-4.7-2.6-8.4s.6-6.2,1.7-8.9c1.1-2.7,2.9-4.7,5-6.1s4.2-2.1,6.5-2.1,3.5.5,5,1.5c1.5,1,2.7,2.4,3.5,4.1l1-4.9h7l-4.7,23c-.7,3.7-1.5,6.4-2,7.9-.5,1.6-1.1,2.9-1.9,3.7-.7,1-1.6,1.7-2.6,2.4s-2.2,1.1-3.7,1.4c-1.4.2-3,.4-4.6.4-3.9,0-6.9-.6-8.9-2s-3-3.5-3-6.6c.1-.4.1-.7.2-1.1ZM467.5,32.9c0,2.1.5,3.7,1.4,4.7,1,1.1,2.1,1.6,3.5,1.6s2.5-.5,3.7-1.5c1.2-1,2.1-2.4,2.7-4.2s1-3.6,1-5.2-.5-3.5-1.6-4.7c-1-1.2-2.2-1.7-3.6-1.7s-2.5.5-3.6,1.6c-1.1,1-2,2.7-2.7,4.9-.5,1.7-.7,3.2-.7,4.6Z"/>
            <path class="cls-4" d="M491.6,44.8l8-38.1h7.4l-8,38.1h-7.4Z"/>
            <path class="cls-4" d="M512.3,17.2h7.5l-5.7,27.6h-7.5l5.7-27.6ZM514.4,6.7h7.5l-1.4,6.7h-7.5l1.4-6.7Z"/>
            <path class="cls-4" d="M520.3,37.1l7.2-1.1c.6,1.5,1.4,2.6,2.4,3.2,1,.6,2.2,1,3.9,1s3-.4,4.1-1.1c.7-.5,1.1-1.1,1.1-1.9s-.1-1-.5-1.4c-.4-.4-1.4-.9-3.1-1.4-4.5-1.5-7.2-2.6-8.4-3.5-1.6-1.4-2.5-3.1-2.5-5.2s.9-4.1,2.5-5.6c2.2-2.2,5.6-3.2,10.1-3.2s6.2.6,8,2c1.9,1.2,3,3,3.5,5.2l-6.9,1.2c-.4-1-1-1.7-1.7-2.2-1.1-.6-2.5-1-4-1s-2.6.2-3.4.7c-.6.5-1,1.1-1,1.7s.4,1.2,1,1.7c.4.2,1.9.7,4.1,1.5,3.6,1,6.1,2.1,7.2,3.1,1.7,1.5,2.6,3.1,2.6,5.2s-1.1,4.9-3.2,6.7c-2.2,1.9-5.2,2.9-9.2,2.9s-7.1-.7-9.2-2.2c-2.4-1.7-3.9-3.7-4.6-6.5Z"/>
            <path class="cls-4" d="M558.4,44.8h-7.5l8-38.1h7.5l-2.9,13.6c1.6-1.4,3.2-2.2,4.7-2.9s3-.9,4.6-.9,4,.6,5.2,1.9,2,3,2,5-.2,2.9-.7,5.1l-3.4,16.1h-7.5l3.5-16.5c.4-1.7.5-2.9.5-3.4,0-.9-.2-1.6-.9-2.2-.6-.5-1.4-.9-2.4-.9s-2.5.4-3.6,1.2c-1.5,1.1-2.6,2.5-3.4,4.2-.4.9-1,3.1-1.7,6.5l-2.1,11.1Z"/>
          </g>
        </g>
      </g>
    </g>
  </g>
</svg>