<?xml version="1.0" encoding="UTF-8"?>
<svg xmlns="http://www.w3.org/2000/svg" version="1.1" xmlns:xlink="http://www.w3.org/1999/xlink" viewBox="0 0 1200 420">
  <defs>
    <style>
      .cls-1 {
        clip-path: url(#clippath-6);
      }

      .cls-2 {
        clip-path: url(#clippath-7);
      }

      .cls-3 {
        clip-path: url(#clippath-4);
      }

      .cls-4, .cls-5 {
        fill: #f7e8db;
      }

      .cls-6 {
        fill: #e1b761;
      }

      .cls-7, .cls-8, .cls-9 {
        fill: #fff;
      }

      .cls-10 {
        fill: #f1af41;
      }

      .cls-11, .cls-12 {
        fill: #fffffd;
      }

      .cls-13, .cls-14, .cls-15 {
        fill: none;
      }

      .cls-16 {
        fill: #28737c;
      }

      .cls-17 {
        clip-path: url(#clippath-1);
      }

      .cls-18 {
        isolation: isolate;
      }

      .cls-19 {
        clip-path: url(#clippath-5);
      }

      .cls-20 {
        fill: #8cc2a4;
      }

      .cls-21 {
        clip-path: url(#clippath-8);
      }

      .cls-22 {
        fill: #ebd19c;
      }

      .cls-14, .cls-8, .cls-15, .cls-12 {
        stroke-linecap: round;
        stroke-linejoin: round;
      }

      .cls-14, .cls-9, .cls-15, .cls-5, .cls-12 {
        stroke: #4c4b4c;
      }

      .cls-14, .cls-9, .cls-5 {
        stroke-width: 5.6px;
      }

      .cls-23 {
        clip-path: url(#clippath-3);
      }

      .cls-24 {
        fill: #4c4b4c;
      }

      .cls-8 {
        stroke: #3a3a35;
      }

      .cls-8, .cls-15, .cls-12 {
        stroke-width: 5.6px;
      }

      .cls-9, .cls-5 {
        stroke-miterlimit: 10;
      }

      .cls-25 {
        fill: #56ac9c;
      }

      .cls-26 {
        fill: #78b69f;
      }

      .cls-27 {
        fill: #69b29d;
      }

      .cls-28 {
        clip-path: url(#clippath-2);
      }

      .cls-29 {
        fill: #ed721b;
      }

      .cls-30 {
        fill: #e9cb5b;
      }

      .cls-31 {
        fill: #73beeb;
      }

      .cls-32 {
        fill: #f5bd1d;
      }

      .cls-33 {
        clip-path: url(#clippath);
      }

      .cls-34 {
        fill: #00436d;
      }

      .cls-35 {
        fill: #f1d029;
      }
    </style>
    <clipPath id="clippath">
      <path class="cls-13" d="M1175,162.4c-1.3-71.8-59.9-129.6-132-129.6s-130.7,57.8-132,129.6h0v224.9h264.1v-224.9h0Z"/>
    </clipPath>
    <clipPath id="clippath-1">
      <path class="cls-13" d="M1175,162.4c-1.3-71.8-59.9-129.6-132-129.6s-130.7,57.8-132,129.6h0v224.9h264.1v-224.9h0Z"/>
    </clipPath>
    <clipPath id="clippath-2">
      <path class="cls-13" d="M1175,162.4c-1.3-71.8-59.9-129.6-132-129.6s-130.7,57.8-132,129.6h0v224.9h264.1v-224.9h0Z"/>
    </clipPath>
    <clipPath id="clippath-3">
      <path class="cls-13" d="M1175,162.4c-1.3-71.8-59.9-129.6-132-129.6s-130.7,57.8-132,129.6h0v224.9h264.1v-224.9h0Z"/>
    </clipPath>
    <clipPath id="clippath-4">
      <path class="cls-13" d="M786.8,136.2c-1.3-66.8-60.7-120.6-133.8-120.6s-132.5,53.8-133.8,120.6h0v209.3h2l131.9,60.4,131.9-60.4h2v-209.3h0Z"/>
    </clipPath>
    <clipPath id="clippath-5">
      <path class="cls-13" d="M786.8,136.2c-1.3-66.8-60.7-120.6-133.8-120.6s-132.5,53.8-133.8,120.6h0v209.3h2l131.9,60.4,131.9-60.4h2v-209.3h0Z"/>
    </clipPath>
    <clipPath id="clippath-6">
      <path class="cls-13" d="M786.8,136.2c-1.3-66.8-60.7-120.6-133.8-120.6s-132.5,53.8-133.8,120.6h0v209.3h2l131.9,60.4,131.9-60.4h2v-209.3h0Z"/>
    </clipPath>
    <clipPath id="clippath-7">
      <path class="cls-13" d="M786.8,136.2c-1.3-66.8-60.7-120.6-133.8-120.6s-132.5,53.8-133.8,120.6h0v209.3h2l131.9,60.4,131.9-60.4h2v-209.3h0Z"/>
    </clipPath>
    <clipPath id="clippath-8">
      <path class="cls-13" d="M786.8,135.2c-1.3-67.1-60.7-121.1-133.8-121.1s-132.5,54-133.8,121.1h0v210.1h2l131.9,60.6,131.9-60.6h2v-210.1h0Z"/>
    </clipPath>
  </defs>
  <!-- Generator: Adobe Illustrator 28.7.9, SVG Export Plug-In . SVG Version: 1.2.0 Build 218)  -->
  <g>
    <g id="_圖層_1" data-name="圖層_1">
      <g>
        <g>
          <g>
            <path class="cls-10" d="M1197.8,154.1c-1.6-84.2-70.2-152-154.8-152s-153.3,67.8-154.8,152h0v263.8h309.8V154.1h0Z"/>
            <path class="cls-24" d="M1200,420h-314.1V152C888.7,68,958.7,0,1043,0s154.2,68,156.9,152h0v2.1c0,0,0,265.9,0,265.9h0ZM890.2,415.7h305.6V154.2c-1.6-82.7-70.1-149.9-152.8-149.9s-151.2,67.2-152.7,149.9v2.1c0,0,0,259.5,0,259.5h0Z"/>
          </g>
          <g>
            <g class="cls-33">
              <path class="cls-20" d="M1175,162.4c-1.3-71.8-59.9-129.6-132-129.6s-130.7,57.8-132,129.6h0v224.9h264.1v-224.9h0Z"/>
            </g>
            <g class="cls-17">
              <rect class="cls-26" x="910.9" y="120.4" width="264.1" height="89.4"/>
            </g>
            <g class="cls-28">
              <rect class="cls-27" x="910.9" y="208.3" width="264.1" height="89.4"/>
            </g>
            <g class="cls-23">
              <rect class="cls-25" x="910.9" y="297.8" width="264.1" height="89.4"/>
            </g>
          </g>
          <g>
            <polygon class="cls-32" points="1073.5 143.8 1094.7 146.8 1096.1 167.6 1088.1 197.6 1078.7 208.8 1061.5 204.6 1068.1 152.4 1073.5 143.8"/>
            <g>
              <path class="cls-32" d="M965.8,214.9c0,4.7,3.8,8.5,8.5,8.5h25.7c4.7,0,8.5-3.8,8.5-8.5v-67.3c0-4.7-3.8-8.5-8.5-8.5h-25.7c-4.7,0-8.5,3.8-8.5,8.5v67.3Z"/>
              <path class="cls-29" d="M1000,226.6h-25.7c-6.4,0-11.7-5.2-11.7-11.7v-67.3c0-6.4,5.2-11.7,11.7-11.7h25.7c6.4,0,11.7,5.2,11.7,11.7v67.3c0,6.4-5.2,11.7-11.7,11.7ZM974.3,142.2c-2.9,0-5.3,2.4-5.3,5.3v67.3c0,2.9,2.4,5.3,5.3,5.3h25.7c2.9,0,5.3-2.4,5.3-5.3v-67.3c0-2.9-2.4-5.3-5.3-5.3,0,0-25.7,0-25.7,0Z"/>
            </g>
            <g>
              <g>
                <path class="cls-32" d="M1079,134.9c7.3-10.9,6.2-36.4,6.2-36.4,0-12.5-11.5-12-11.5-12-12,0-11.2,13.8-11.2,13.8-2.9,37.7-54.1,45-54.1,45v67.1c12,7.2,34.5,7.3,34.5,7.3h45.5s11.2-1.1,11.2-9.4c0,0,.5-11.4-11.7-11.4h-14.4"/>
                <path class="cls-29" d="M1042.9,222.8c-1,0-23.5-.1-36.1-7.7-1-.6-1.5-1.6-1.5-2.7v-67.1c0-1.6,1.2-2.9,2.7-3.2.5,0,48.8-7.4,51.4-42.1h0s-.4-7.8,4.3-12.7c2.5-2.7,5.9-4,10.1-4s6.1-.2,10.4,3.9c2.8,2.7,4.3,6.5,4.3,11.3,0,1,1,26.5-6.8,38.2-1,1.5-3,1.9-4.4.9-1.5-1-1.9-3-.9-4.4,5.5-8.3,6-27.7,5.7-34.5,0-3.1-.8-5.3-2.3-6.8-2.3-2.3-5.8-2.2-5.9-2.2-2.5,0-4.2.7-5.5,2-2.4,2.5-2.7,6.9-2.6,8.4-2.7,35.4-43,45.7-54.1,47.9v62.5c11.5,5.8,31.1,6,31.3,6h45.5c-.1,0,8-.9,8-6.2,0-.2,0-3.8-2.2-6.1-1.4-1.4-3.5-2.2-6.4-2.2h-14.4c-1.8,0-3.2-1.4-3.2-3.2s1.4-3.2,3.2-3.2h14.4c4.6,0,8.3,1.4,11,4.2,4.1,4.2,3.9,10,3.9,10.6,0,8.7-9.2,11.9-14.1,12.4h-45.8Z"/>
              </g>
              <g>
                <path class="cls-32" d="M1063.4,136.4h45.5s11.2,1,11.2,9.4c0,0,.5,11.4-11.7,11.4h-16.7"/>
                <path class="cls-29" d="M1108.4,160.4h-16.7c-1.8,0-3.2-1.4-3.2-3.2s1.4-3.2,3.2-3.2h16.7c2.8,0,5-.7,6.4-2.2,2.2-2.3,2.2-5.9,2.2-6,0-5.4-8.2-6.3-8.3-6.3h-45.2c-1.8,0-3.2-1.4-3.2-3.2s1.4-3.2,3.2-3.2h45.5c5.2.5,14.4,3.7,14.4,12.6,0,.5.2,6.2-3.9,10.5-2.7,2.8-6.4,4.2-11,4.2Z"/>
              </g>
              <g>
                <path class="cls-32" d="M1082.9,178h20.4s11.2-1,11.2-9.4c0,0,.5-11.4-11.7-11.4h-11"/>
                <path class="cls-29" d="M1082.9,181.2c-1.8,0-3.2-1.4-3.2-3.2s1.4-3.2,3.2-3.2h20.4c-.1,0,8-.9,8-6.2s0-3.8-2.2-6.1c-1.4-1.4-3.5-2.2-6.4-2.2h-11c-1.8,0-3.2-1.4-3.2-3.2s1.4-3.2,3.2-3.2h11c4.6,0,8.3,1.4,11,4.2,4.1,4.3,3.9,10,3.9,10.6,0,8.7-9.2,12-14.1,12.4h-20.7Z"/>
              </g>
              <g>
                <path class="cls-32" d="M1073.5,198.8h22.9s11.2-1,11.2-9.4c0,0,.5-11.4-11.7-11.4h-13"/>
                <path class="cls-29" d="M1073.5,202c-1.8,0-3.2-1.4-3.2-3.2s1.4-3.2,3.2-3.2h22.9c-.1,0,8-.9,8-6.2,0-.2,0-3.8-2.2-6.1-1.4-1.4-3.5-2.2-6.4-2.2h-13c-1.8,0-3.2-1.4-3.2-3.2s1.4-3.2,3.2-3.2h13c4.7,0,8.3,1.4,11,4.2,4.1,4.3,3.9,10,3.9,10.6,0,8.7-9.2,11.9-14.1,12.4h-23.2Z"/>
              </g>
            </g>
            <path class="cls-29" d="M1056.3,97.5h-15.5c-1.8,0-3.2-1.4-3.2-3.2s1.4-3.2,3.2-3.2h15.5c1.8,0,3.2,1.4,3.2,3.2s-1.4,3.2-3.2,3.2Z"/>
            <path class="cls-29" d="M1060.2,83.6c-.8,0-1.6-.3-2.3-.9l-11-11c-1.2-1.2-1.2-3.3,0-4.5,1.2-1.2,3.3-1.2,4.5,0l11,11c1.2,1.2,1.2,3.3,0,4.5-.6.6-1.4.9-2.3.9Z"/>
            <path class="cls-29" d="M1107.5,97.5h-15.5c-1.8,0-3.2-1.4-3.2-3.2s1.4-3.2,3.2-3.2h15.5c1.8,0,3.2,1.4,3.2,3.2,0,1.8-1.4,3.2-3.2,3.2Z"/>
            <path class="cls-29" d="M1088.1,83.6c-.8,0-1.6-.3-2.3-.9-1.2-1.2-1.2-3.3,0-4.5l11-11c1.2-1.2,3.3-1.2,4.5,0,1.2,1.2,1.2,3.3,0,4.5l-11,11c-.6.6-1.4.9-2.3.9Z"/>
            <path class="cls-29" d="M1074.1,80.2c-1.8,0-3.2-1.4-3.2-3.2v-15.5c0-1.8,1.4-3.2,3.2-3.2s3.2,1.4,3.2,3.2v15.5c0,1.8-1.4,3.2-3.2,3.2Z"/>
            <path class="cls-29" d="M993.5,206c-1.8,0-3.2-1.4-3.2-3.2v-30.5c0-1.8,1.4-3.2,3.2-3.2s3.2,1.4,3.2,3.2v30.5c0,1.8-1.4,3.2-3.2,3.2Z"/>
            <circle class="cls-29" cx="993.5" cy="157.4" r="2.9"/>
          </g>
          <g>
            <path class="cls-5" d="M977.1,347.2h8.6c1.8,0,2.8.5,3.2,1.4.3.6.5,1.5.5,2.7v10.7c0,1-.5,2-1.4,3-2.7,2.8-6.8,4.2-12.3,4.2s-9.1-1.8-12.6-5.5c-3.6-3.7-5.4-8.1-5.4-13.2s1.8-9.5,5.5-13c3.6-3.5,7.9-5.2,12.9-5.2s7.5,1.3,10.9,3.8c.9.6,1.3,1.4,1.3,2.2s-.4,1.7-1.1,2.8c-1.3,1.7-2.4,2.6-3.5,2.6s-1.6-.4-3-1.3c-1.4-.9-3-1.3-4.9-1.3s-4.7.9-6.6,2.6c-1.9,1.7-2.9,4-2.9,6.8s1,5.2,2.9,7.2c1.9,2,4.2,3,6.6,3s3.4-.3,4.8-.9v-5.3h-3.9c-1,0-1.7-.1-2.1-.4-.4-.3-.7-.6-.8-1.1-.1-.5-.2-1.2-.2-2s0-1.6.2-2.1c.1-.5.4-.9.8-1.1.6-.3,1.4-.5,2.3-.5Z"/>
            <path class="cls-5" d="M1023.1,362.7c.5,1.2.7,2,.7,2.5,0,1.2-1,2.3-3,3.1-1,.5-1.9.7-2.5.7s-1.2-.2-1.6-.5c-.4-.3-.7-.6-.9-1-.3-.6-1.6-3.6-3.8-8.8h-1.5c0,.1-6.2.1-6.2.1v5.5c0,.8,0,1.3,0,1.7,0,.4-.2.8-.5,1.3-.5.9-1.7,1.3-3.8,1.3s-3.6-.6-4-1.8c-.2-.6-.3-1.4-.3-2.5v-27.1c0-.7,0-1.3,0-1.7,0-.4.2-.8.5-1.3.5-.9,1.7-1.3,3.8-1.3h10.5c2.9,0,5.7,1,8.3,3.1,1.3,1,2.4,2.4,3.2,4.1.8,1.7,1.3,3.6,1.3,5.8,0,3.7-1.2,6.7-3.7,9.1.7,1.7,1.8,4.3,3.3,7.7ZM1004.4,350.3h6.2c.9,0,1.9-.4,2.8-1.1.9-.7,1.4-1.8,1.4-3.2s-.5-2.5-1.4-3.2-1.9-1.1-2.9-1.1h-6.2s0,8.6,0,8.6Z"/>
            <path class="cls-5" d="M1037.6,360.1h15c.8,0,1.3,0,1.7,0,.4,0,.8.2,1.3.5.9.5,1.3,1.7,1.3,3.8s-.6,3.6-1.8,4c-.6.2-1.4.3-2.5.3h-19.3c-2.3,0-3.6-.6-4-1.9-.2-.5-.3-1.3-.3-2.5v-27.1c0-1.7.3-2.8.9-3.4.6-.6,1.8-.9,3.5-.9h19.2c.8,0,1.3,0,1.7,0,.4,0,.8.2,1.3.5.9.5,1.3,1.7,1.3,3.8s-.6,3.6-1.8,4c-.6.2-1.4.3-2.5.3h-15v4.9h9.7c.8,0,1.3,0,1.7,0,.4,0,.8.2,1.3.5.9.5,1.3,1.7,1.3,3.8s-.6,3.6-1.9,4c-.6.2-1.4.3-2.5.3h-9.6v4.9Z"/>
            <path class="cls-5" d="M1083.2,335.5l13.2,27.2c.6,1.1.8,1.9.8,2.5,0,1.2-.9,2.2-2.8,3.2-1.1.6-2,.8-2.6.8s-1.2-.1-1.6-.4c-.4-.3-.7-.6-.9-.9-.2-.3-.4-.8-.8-1.5l-2.5-5.3h-13.5l-2.5,5.3c-.3.6-.6,1.1-.8,1.4-.2.3-.5.6-.9.9-.4.3-.9.5-1.6.5s-1.5-.3-2.6-.8c-1.9-.9-2.8-2-2.8-3.1s.3-1.4.8-2.5l13.2-27.3c.4-.7.9-1.3,1.6-1.8s1.5-.7,2.3-.7c1.8,0,3.1.9,3.9,2.5ZM1079.3,347.2l-3.2,6.7h6.5l-3.3-6.7Z"/>
            <path class="cls-5" d="M1095.6,332.9h27.1c1,0,1.8.1,2.3.4.5.2.8.6,1,1.1s.2,1.2.2,2,0,1.5-.2,2-.4.9-.8,1.1c-.6.3-1.4.4-2.5.4h-9.3v24.6c0,.7,0,1.3,0,1.7,0,.4-.2.8-.4,1.2-.2.5-.7.8-1.3,1-.6.2-1.4.3-2.4.3s-1.8-.1-2.4-.3c-.6-.2-1-.5-1.3-1-.2-.5-.4-.9-.4-1.3s0-.9,0-1.7v-24.5h-9.4c-1,0-1.8-.1-2.3-.4-.5-.2-.8-.6-1-1.1-.2-.5-.2-1.2-.2-2s0-1.5.2-2,.4-.9.8-1.1c.6-.3,1.4-.4,2.5-.4Z"/>
          </g>
          <g>
            <path class="cls-4" d="M977.1,347.2h8.6c1.8,0,2.8.5,3.2,1.4.3.6.5,1.5.5,2.7v10.7c0,1-.5,2-1.4,3-2.7,2.8-6.8,4.2-12.3,4.2s-9.1-1.8-12.6-5.5c-3.6-3.7-5.4-8.1-5.4-13.2s1.8-9.5,5.5-13c3.6-3.5,7.9-5.2,12.9-5.2s7.5,1.3,10.9,3.8c.9.6,1.3,1.4,1.3,2.2s-.4,1.7-1.1,2.8c-1.3,1.7-2.4,2.6-3.5,2.6s-1.6-.4-3-1.3c-1.4-.9-3-1.3-4.9-1.3s-4.7.9-6.6,2.6c-1.9,1.7-2.9,4-2.9,6.8s1,5.2,2.9,7.2c1.9,2,4.2,3,6.6,3s3.4-.3,4.8-.9v-5.3h-3.9c-1,0-1.7-.1-2.1-.4-.4-.3-.7-.6-.8-1.1-.1-.5-.2-1.2-.2-2s0-1.6.2-2.1c.1-.5.4-.9.8-1.1.6-.3,1.4-.5,2.3-.5Z"/>
            <path class="cls-4" d="M1023.1,362.7c.5,1.2.7,2,.7,2.5,0,1.2-1,2.3-3,3.1-1,.5-1.9.7-2.5.7s-1.2-.2-1.6-.5c-.4-.3-.7-.6-.9-1-.3-.6-1.6-3.6-3.8-8.8h-1.5c0,.1-6.2.1-6.2.1v5.5c0,.8,0,1.3,0,1.7,0,.4-.2.8-.5,1.3-.5.9-1.7,1.3-3.8,1.3s-3.6-.6-4-1.8c-.2-.6-.3-1.4-.3-2.5v-27.1c0-.7,0-1.3,0-1.7,0-.4.2-.8.5-1.3.5-.9,1.7-1.3,3.8-1.3h10.5c2.9,0,5.7,1,8.3,3.1,1.3,1,2.4,2.4,3.2,4.1.8,1.7,1.3,3.6,1.3,5.8,0,3.7-1.2,6.7-3.7,9.1.7,1.7,1.8,4.3,3.3,7.7ZM1004.4,350.3h6.2c.9,0,1.9-.4,2.8-1.1.9-.7,1.4-1.8,1.4-3.2s-.5-2.5-1.4-3.2-1.9-1.1-2.9-1.1h-6.2s0,8.6,0,8.6Z"/>
            <path class="cls-4" d="M1037.6,360.1h15c.8,0,1.3,0,1.7,0,.4,0,.8.2,1.3.5.9.5,1.3,1.7,1.3,3.8s-.6,3.6-1.8,4c-.6.2-1.4.3-2.5.3h-19.3c-2.3,0-3.6-.6-4-1.9-.2-.5-.3-1.3-.3-2.5v-27.1c0-1.7.3-2.8.9-3.4.6-.6,1.8-.9,3.5-.9h19.2c.8,0,1.3,0,1.7,0,.4,0,.8.2,1.3.5.9.5,1.3,1.7,1.3,3.8s-.6,3.6-1.8,4c-.6.2-1.4.3-2.5.3h-15v4.9h9.7c.8,0,1.3,0,1.7,0,.4,0,.8.2,1.3.5.9.5,1.3,1.7,1.3,3.8s-.6,3.6-1.9,4c-.6.2-1.4.3-2.5.3h-9.6v4.9Z"/>
            <path class="cls-4" d="M1083.2,335.5l13.2,27.2c.6,1.1.8,1.9.8,2.5,0,1.2-.9,2.2-2.8,3.2-1.1.6-2,.8-2.6.8s-1.2-.1-1.6-.4c-.4-.3-.7-.6-.9-.9-.2-.3-.4-.8-.8-1.5l-2.5-5.3h-13.5l-2.5,5.3c-.3.6-.6,1.1-.8,1.4-.2.3-.5.6-.9.9-.4.3-.9.5-1.6.5s-1.5-.3-2.6-.8c-1.9-.9-2.8-2-2.8-3.1s.3-1.4.8-2.5l13.2-27.3c.4-.7.9-1.3,1.6-1.8s1.5-.7,2.3-.7c1.8,0,3.1.9,3.9,2.5ZM1079.3,347.2l-3.2,6.7h6.5l-3.3-6.7Z"/>
            <path class="cls-4" d="M1095.6,332.9h27.1c1,0,1.8.1,2.3.4.5.2.8.6,1,1.1s.2,1.2.2,2,0,1.5-.2,2-.4.9-.8,1.1c-.6.3-1.4.4-2.5.4h-9.3v24.6c0,.7,0,1.3,0,1.7,0,.4-.2.8-.4,1.2-.2.5-.7.8-1.3,1-.6.2-1.4.3-2.4.3s-1.8-.1-2.4-.3c-.6-.2-1-.5-1.3-1-.2-.5-.4-.9-.4-1.3s0-.9,0-1.7v-24.5h-9.4c-1,0-1.8-.1-2.3-.4-.5-.2-.8-.6-1-1.1-.2-.5-.2-1.2-.2-2s0-1.5.2-2,.4-.9.8-1.1c.6-.3,1.4-.4,2.5-.4Z"/>
          </g>
          <path class="cls-24" d="M1177.2,389.3h-268.4v-229.1c2.6-71.6,62.3-129.6,134.2-129.6s131.6,57.9,134.1,129.6h0v2.1c0,0,0,227,0,227ZM913,385.1h259.9v-222.7c-1.4-70.3-59.6-127.5-129.9-127.5s-128.6,57.2-129.9,127.5v2.1c0,0,0,220.6,0,220.6Z"/>
          <g>
            <rect class="cls-16" x="889.5" y="242.7" width="307" height="70.4"/>
            <g>
              <g>
                <g>
                  <polygon class="cls-35" points="948.3 268.5 952.2 276.4 961 277.6 954.6 283.8 956.1 292.5 948.3 288.4 940.5 292.5 942 283.8 935.7 277.6 944.4 276.4 948.3 268.5"/>
                  <path class="cls-24" d="M940.5,293.6c-.2,0-.4,0-.6-.2-.3-.2-.5-.6-.4-1l1.4-8.1-5.9-5.8c-.3-.3-.4-.7-.3-1.1s.5-.7.9-.7l8.2-1.2,3.7-7.4c.2-.4.6-.6,1-.6h0c.4,0,.8.2,1,.6l3.7,7.4,8.2,1.2c.4,0,.7.3.9.7.1.4,0,.8-.3,1.1l-5.9,5.8,1.4,8.1c0,.4-.1.8-.4,1-.3.2-.8.3-1.1,0l-7.3-3.8-7.3,3.8c-.2,0-.3.1-.5.1ZM938,278.4l4.8,4.7c.2.2.4.6.3.9l-1.1,6.6,5.9-3.1c.3-.2.7-.2,1,0l5.9,3.1-1.1-6.6c0-.3,0-.7.3-.9l4.8-4.7-6.6-1c-.3,0-.6-.3-.8-.6l-2.9-6-3,6c-.2.3-.5.5-.8.6l-6.6,1Z"/>
                </g>
                <g>
                  <polygon class="cls-35" points="917.1 268.5 921.1 276.4 929.8 277.6 923.5 283.8 925 292.5 917.1 288.4 909.3 292.5 910.8 283.8 904.5 277.6 913.2 276.4 917.1 268.5"/>
                  <path class="cls-24" d="M909.3,293.6c-.2,0-.4,0-.6-.2-.3-.2-.5-.6-.4-1l1.4-8.1-5.9-5.8c-.3-.3-.4-.7-.3-1.1.1-.4.5-.7.9-.7l8.2-1.2,3.6-7.4c.2-.4.5-.6,1-.6h0c.4,0,.8.2,1,.6l3.7,7.4,8.2,1.2c.4,0,.7.3.9.7.1.4,0,.8-.3,1.1l-5.9,5.8,1.4,8.1c0,.4-.1.8-.4,1-.3.2-.8.3-1.1,0l-7.3-3.8-7.3,3.8c-.2,0-.3.1-.5.1ZM917.1,287.3c.2,0,.3,0,.5.1l5.9,3.1-1.1-6.6c0-.3,0-.7.3-.9l4.8-4.7-6.6-1c-.3,0-.6-.3-.8-.6l-3-6-2.9,6c-.2.3-.5.5-.8.6l-6.6,1,4.8,4.7c.2.2.4.6.3.9l-1.1,6.6,5.9-3.1c.2,0,.3-.1.5-.1Z"/>
                </g>
                <g>
                  <polygon class="cls-35" points="979.5 268.5 983.4 276.4 992.1 277.6 985.8 283.8 987.3 292.5 979.5 288.4 971.7 292.5 973.2 283.8 966.8 277.6 975.6 276.4 979.5 268.5"/>
                  <path class="cls-24" d="M971.7,293.6c-.2,0-.4,0-.6-.2-.3-.2-.5-.6-.4-1l1.4-8.1-5.9-5.8c-.3-.3-.4-.7-.3-1.1.1-.4.5-.7.9-.7l8.2-1.2,3.7-7.4c.4-.7,1.5-.7,1.9,0l3.7,7.4,8.2,1.2c.4,0,.7.3.9.7.1.4,0,.8-.3,1.1l-5.9,5.8,1.4,8.1c0,.4,0,.8-.4,1-.3.2-.8.3-1.1,0l-7.3-3.8-7.3,3.8c-.2,0-.3.1-.5.1ZM979.5,287.3c.2,0,.3,0,.5.1l5.9,3.1-1.1-6.6c0-.3,0-.7.3-.9l4.8-4.7-6.6-1c-.3,0-.6-.3-.8-.6l-3-6-3,6c-.2.3-.5.5-.8.6l-6.6,1,4.8,4.7c.2.2.4.6.3.9l-1.1,6.6,5.9-3.1c.1,0,.3-.1.5-.1Z"/>
                </g>
              </g>
              <g>
                <g>
                  <polygon class="cls-35" points="1137.6 268.5 1141.5 276.4 1150.2 277.6 1143.9 283.8 1145.4 292.5 1137.6 288.4 1129.8 292.5 1131.3 283.8 1125 277.6 1133.7 276.4 1137.6 268.5"/>
                  <path class="cls-24" d="M1129.8,293.6c-.2,0-.4,0-.6-.2-.3-.2-.5-.6-.4-1l1.4-8.1-5.9-5.8c-.3-.3-.4-.7-.3-1.1.1-.4.5-.7.9-.7l8.2-1.2,3.7-7.4c.2-.4.6-.6,1-.6h0c.4,0,.8.2,1,.6l3.6,7.4,8.2,1.2c.4,0,.7.3.9.7s0,.8-.3,1.1l-5.9,5.8,1.4,8.1c0,.4,0,.8-.4,1-.3.2-.8.3-1.1,0l-7.3-3.8-7.3,3.8c-.2,0-.3.1-.5.1ZM1127.3,278.4l4.8,4.7c.3.2.4.6.3.9l-1.1,6.6,5.9-3.1c.3-.2.7-.2,1,0l5.9,3.1-1.1-6.6c0-.3,0-.7.3-.9l4.8-4.7-6.6-1c-.3,0-.6-.3-.8-.6l-2.9-6-2.9,6c-.2.3-.5.5-.8.6l-6.6,1Z"/>
                </g>
                <g>
                  <polygon class="cls-35" points="1106.4 268.5 1110.3 276.4 1119.1 277.6 1112.8 283.8 1114.2 292.5 1106.4 288.4 1098.6 292.5 1100.1 283.8 1093.8 277.6 1102.5 276.4 1106.4 268.5"/>
                  <path class="cls-24" d="M1098.6,293.6c-.2,0-.4,0-.6-.2-.3-.2-.5-.6-.4-1l1.4-8.1-5.9-5.8c-.3-.3-.4-.7-.3-1.1.1-.4.5-.7.9-.7l8.2-1.2,3.7-7.4c.4-.7,1.5-.7,1.9,0l3.7,7.4,8.2,1.2c.4,0,.7.3.9.7s0,.8-.3,1.1l-5.9,5.8,1.4,8.1c0,.4-.1.8-.4,1-.3.2-.8.3-1.1,0l-7.3-3.8-7.3,3.8c-.2,0-.3.1-.5.1ZM1106.4,287.3c.2,0,.3,0,.5.1l5.9,3.1-1.1-6.6c0-.3,0-.7.3-.9l4.8-4.7-6.6-1c-.3,0-.6-.3-.8-.6l-3-6-2.9,6c-.2.3-.5.5-.8.6l-6.6,1,4.8,4.7c.3.2.4.6.3.9l-1.1,6.6,5.9-3.1c.1,0,.3-.1.5-.1Z"/>
                </g>
                <g>
                  <polygon class="cls-35" points="1168.8 268.5 1172.7 276.4 1181.4 277.6 1175.1 283.8 1176.6 292.5 1168.8 288.4 1161 292.5 1162.5 283.8 1156.1 277.6 1164.9 276.4 1168.8 268.5"/>
                  <path class="cls-24" d="M1176.6,293.6c-.2,0-.3,0-.5-.1l-7.3-3.8-7.3,3.8c-.4.2-.8.2-1.1,0-.3-.2-.5-.6-.4-1l1.4-8.1-5.9-5.8c-.3-.3-.4-.7-.3-1.1.1-.4.5-.7.9-.7l8.2-1.2,3.7-7.4c.2-.4.5-.6,1-.6h0c.4,0,.8.2,1,.6l3.7,7.4,8.2,1.2c.4,0,.7.3.9.7s0,.8-.3,1.1l-5.9,5.8,1.4,8.1c0,.4-.1.8-.4,1-.2.1-.4.2-.6.2ZM1168.8,287.3c.2,0,.3,0,.5.1l5.9,3.1-1.1-6.6c0-.3,0-.7.3-.9l4.8-4.7-6.6-1c-.3,0-.6-.3-.8-.6l-2.9-6-3,6c-.2.3-.4.5-.8.6l-6.6,1,4.8,4.7c.3.2.4.6.3.9l-1.1,6.6,5.9-3.1c.1,0,.3-.1.5-.1Z"/>
                </g>
              </g>
              <g>
                <g>
                  <path class="cls-5" d="M1027,255.5l18.5,38.1c.8,1.6,1.2,2.7,1.2,3.5,0,1.6-1.3,3.1-4,4.4-1.5.8-2.8,1.2-3.7,1.2s-1.6-.2-2.2-.6c-.6-.4-1-.8-1.2-1.3-.3-.5-.6-1.1-1.1-2l-3.6-7.4h-18.9l-3.6,7.4c-.5.9-.8,1.6-1.1,2-.3.4-.7.8-1.2,1.3-.6.4-1.3.6-2.2.6s-2.1-.4-3.7-1.2c-2.6-1.3-4-2.7-4-4.4s.4-1.9,1.2-3.5l18.5-38.2c.5-1.1,1.3-1.9,2.3-2.5,1-.6,2.1-1,3.3-1,2.5,0,4.3,1.2,5.5,3.5ZM1021.5,271.9l-4.5,9.4h9.1l-4.6-9.4Z"/>
                  <path class="cls-5" d="M1074.5,277.9h5.5c1.6,0,2.8.2,3.5.6.7.4,1.2,1,1.5,1.7.3.8.4,1.8.4,3.1s-.1,2.3-.3,3.1c-.2.8-.6,1.3-1.2,1.6-.8.4-2,.6-3.5.6h-5.9v5.5c0,1.6-.2,2.8-.6,3.5-.4.7-1,1.2-1.7,1.5-.8.2-1.8.4-3.1.4s-2.3-.1-3.1-.4c-.8-.3-1.3-.7-1.6-1.3-.4-.9-.6-2.1-.6-3.8v-5.5h-6c-1.5,0-2.6-.2-3.3-.5-.7-.4-1.1-1-1.4-1.7-.2-.8-.3-1.8-.3-3.1s.1-2.3.4-3.1c.3-.8.7-1.4,1.3-1.7.9-.4,2.1-.6,3.8-.6h5.5v-5.5c0-1.6.2-2.8.5-3.5.4-.7,1-1.2,1.7-1.5.8-.3,1.8-.4,3.1-.4s2.3.1,3.1.4,1.4.7,1.7,1.3c.4.9.6,2.1.6,3.8v5.5h0Z"/>
                </g>
                <g>
                  <path class="cls-4" d="M1027,255.5l18.5,38.1c.8,1.6,1.2,2.7,1.2,3.5,0,1.6-1.3,3.1-4,4.4-1.5.8-2.8,1.2-3.7,1.2s-1.6-.2-2.2-.6c-.6-.4-1-.8-1.2-1.3-.3-.5-.6-1.1-1.1-2l-3.6-7.4h-18.9l-3.6,7.4c-.5.9-.8,1.6-1.1,2-.3.4-.7.8-1.2,1.3-.6.4-1.3.6-2.2.6s-2.1-.4-3.7-1.2c-2.6-1.3-4-2.7-4-4.4s.4-1.9,1.2-3.5l18.5-38.2c.5-1.1,1.3-1.9,2.3-2.5,1-.6,2.1-1,3.3-1,2.5,0,4.3,1.2,5.5,3.5ZM1021.5,271.9l-4.5,9.4h9.1l-4.6-9.4Z"/>
                  <path class="cls-4" d="M1074.5,277.9h5.5c1.6,0,2.8.2,3.5.6.7.4,1.2,1,1.5,1.7.3.8.4,1.8.4,3.1s-.1,2.3-.3,3.1c-.2.8-.6,1.3-1.2,1.6-.8.4-2,.6-3.5.6h-5.9v5.5c0,1.6-.2,2.8-.6,3.5-.4.7-1,1.2-1.7,1.5-.8.2-1.8.4-3.1.4s-2.3-.1-3.1-.4c-.8-.3-1.3-.7-1.6-1.3-.4-.9-.6-2.1-.6-3.8v-5.5h-6c-1.5,0-2.6-.2-3.3-.5-.7-.4-1.1-1-1.4-1.7-.2-.8-.3-1.8-.3-3.1s.1-2.3.4-3.1c.3-.8.7-1.4,1.3-1.7.9-.4,2.1-.6,3.8-.6h5.5v-5.5c0-1.6.2-2.8.5-3.5.4-.7,1-1.2,1.7-1.5.8-.3,1.8-.4,3.1-.4s2.3.1,3.1.4,1.4.7,1.7,1.3c.4.9.6,2.1.6,3.8v5.5h0Z"/>
                </g>
              </g>
            </g>
          </g>
        </g>
        <g>
          <g>
            <circle class="cls-34" cx="210" cy="210" r="207.2"/>
            <path class="cls-24" d="M210,420C94.2,420,0,325.8,0,210S94.2,0,210,0s210,94.2,210,210-94.2,210-210,210ZM210,5.7C97.3,5.7,5.7,97.3,5.7,210s91.7,204.3,204.3,204.3,204.3-91.7,204.3-204.3S322.7,5.7,210,5.7Z"/>
          </g>
          <g>
            <circle class="cls-31" cx="210" cy="210" r="180.6"/>
            <path class="cls-24" d="M210,393.5c-101.2,0-183.5-82.3-183.5-183.5S108.8,26.5,210,26.5s183.5,82.3,183.5,183.5-82.3,183.5-183.5,183.5ZM210,32.2c-98,0-177.8,79.7-177.8,177.8s79.7,177.8,177.8,177.8,177.8-79.7,177.8-177.8S308,32.2,210,32.2Z"/>
          </g>
          <g>
            <g>
              <path class="cls-14" d="M210,221.2"/>
              <path class="cls-14" d="M325,106.1"/>
              <path class="cls-14" d="M210,221.2"/>
              <path class="cls-14" d="M372.7,221.2"/>
              <path class="cls-14" d="M210,221.2"/>
              <path class="cls-14" d="M47.3,221.2"/>
              <path class="cls-14" d="M210,221.2"/>
              <path class="cls-14" d="M95,106.1"/>
            </g>
            <g>
              <path class="cls-24" d="M323.6,193.6c-1.3,0-2.4-.8-2.7-2.1-.4-1.5.5-3.1,2-3.5l43.6-11.7c1.5-.4,3.1.5,3.5,2,.4,1.5-.5,3.1-2,3.5l-43.6,11.7c-.2,0-.5.1-.7.1Z"/>
              <path class="cls-24" d="M350.9,305.3c-.5,0-1-.1-1.4-.4l-46.3-26.7c-1.4-.8-1.8-2.5-1-3.9s2.5-1.8,3.9-1l46.3,26.7c1.4.8,1.8,2.5,1,3.9-.5.9-1.5,1.4-2.5,1.4Z"/>
              <path class="cls-24" d="M52.8,266.1c-1.3,0-2.4-.8-2.7-2.1-.4-1.5.5-3.1,2-3.5l49.1-13.2c1.5-.4,3.1.5,3.5,2,.4,1.5-.5,3.1-2,3.5l-49.1,13.2c-.3,0-.5.1-.7.1Z"/>
              <path class="cls-24" d="M105.7,163.8c-.5,0-1-.1-1.4-.4l-36.6-21.2c-1.4-.8-1.8-2.5-1-3.9.8-1.4,2.5-1.8,3.9-1l36.6,21.2c1.4.8,1.8,2.5,1,3.9-.5.9-1.5,1.4-2.5,1.4Z"/>
            </g>
            <g>
              <path class="cls-24" d="M314.3,163.8c-1,0-1.9-.5-2.5-1.4-.8-1.4-.3-3.1,1-3.9l36.6-21.2c1.4-.8,3.1-.3,3.9,1,.8,1.4.3,3.1-1,3.9l-36.6,21.2c-.4.3-.9.4-1.4.4Z"/>
              <path class="cls-24" d="M367.2,266.1c-.2,0-.5,0-.7-.1l-49.1-13.2c-1.5-.4-2.4-2-2-3.5s2-2.4,3.5-2l49.1,13.2c1.5.4,2.4,2,2,3.5-.3,1.3-1.5,2.1-2.7,2.1Z"/>
              <path class="cls-24" d="M69.1,305.4c-1,0-1.9-.5-2.5-1.4-.8-1.4-.3-3.1,1-3.9l46.3-26.7c1.3-.8,3.1-.3,3.9,1,.8,1.4.3,3.1-1,3.9l-46.3,26.7c-.4.3-.9.4-1.4.4Z"/>
              <path class="cls-24" d="M96.4,193.6c-.2,0-.5,0-.7-.1l-43.6-11.7c-1.5-.4-2.4-2-2-3.5.4-1.5,2-2.4,3.5-2l43.6,11.7c1.5.4,2.4,2,2,3.5-.3,1.3-1.5,2.1-2.7,2.1Z"/>
            </g>
            <g>
              <path class="cls-24" d="M123.1,137.2c-.7,0-1.5-.3-2-.8l-28.2-28.2c-1.1-1.1-1.1-2.9,0-4,1.1-1.1,2.9-1.1,4,0l28.2,28.2c1.1,1.1,1.1,2.9,0,4-.5.6-1.3.8-2,.8Z"/>
              <path class="cls-24" d="M297.8,136.2c-.7,0-1.5-.3-2-.8-1.1-1.1-1.1-2.9,0-4l27.3-27.3c1.1-1.1,2.9-1.1,4,0,1.1,1.1,1.1,2.9,0,4l-27.3,27.3c-.6.5-1.3.8-2,.8Z"/>
              <path class="cls-24" d="M372.7,224h-47.7c-1.6,0-2.8-1.3-2.8-2.8s1.3-2.8,2.8-2.8h47.7c1.6,0,2.8,1.3,2.8,2.8,0,1.6-1.3,2.8-2.8,2.8Z"/>
              <path class="cls-24" d="M95.8,224h-48.5c-1.6,0-2.8-1.3-2.8-2.8s1.3-2.8,2.8-2.8h48.5c1.6,0,2.8,1.3,2.8,2.8,0,1.6-1.3,2.8-2.8,2.8Z"/>
            </g>
          </g>
          <g>
            <path class="cls-9" d="M138.2,350.9c-.4,1.9-.9,3.1-1.4,3.8-1.1,1.5-3.3,1.9-6.5,1.1-1.7-.4-2.9-.8-3.7-1.4-.8-.6-1.3-1.2-1.5-2-.2-.7-.3-1.4-.3-2,.2-1.1,1.2-5.8,3.2-14.2l-1.9-1.2-7.5-5.5-4.9,6.8c-.7.9-1.2,1.6-1.6,2s-1,.8-1.7,1.2c-1.3.7-3.3,0-5.8-1.8-2.8-2-3.9-3.9-3.3-5.8.3-.9.9-2,1.9-3.4l24.1-33.2c.7-.9,1.2-1.6,1.6-2,.4-.4,1-.8,1.7-1.2,1.3-.7,3.3,0,5.8,1.8l12.9,9.4c3.5,2.5,6,6.3,7.5,11.2.7,2.4.8,5,.3,7.9-.5,2.9-1.7,5.6-3.6,8.2-3.3,4.5-7.5,7.1-12.6,7.9-.7,2.8-1.6,6.9-2.7,12.4ZM126.3,318.9l7.7,5.6c1.2.8,2.6,1.2,4.4,1.2,1.8,0,3.3-.9,4.6-2.7,1.3-1.8,1.7-3.5,1.2-5.2-.5-1.7-1.4-3.1-2.6-4l-7.5-5.5-7.7,10.6Z"/>
            <path class="cls-9" d="M168.6,357.7l22.2,5.2c1.1.3,1.9.5,2.5.7.5.2,1.1.6,1.7,1.1,1.1,1,1.3,3,.6,6.1-.8,3.4-2.1,5.1-4.1,5.3-.9,0-2.2,0-3.8-.4l-28.5-6.7c-3.4-.8-5.1-2.2-5.3-4.1-.1-.8,0-2.1.4-3.8l9.4-40c.6-2.4,1.4-4,2.5-4.7s3-.7,5.5-.1l28.3,6.7c1.1.3,1.9.5,2.5.7.5.2,1.1.6,1.7,1.1,1.1,1,1.3,3,.6,6.1-.8,3.4-2.1,5.1-4.1,5.3-.9,0-2.2,0-3.8-.4l-22.1-5.2-1.7,7.3,14.2,3.4c1.1.3,1.9.5,2.5.7.5.2,1.1.6,1.7,1.1,1.1,1,1.3,3,.6,6.1-.8,3.4-2.2,5.1-4.1,5.3-.9.1-2.2,0-3.8-.4l-14.1-3.3-1.7,7.3Z"/>
            <path class="cls-9" d="M237.8,322.7l27.7,36.5c1.1,1.5,1.8,2.6,2,3.4.4,1.7-.7,3.6-3.3,5.6-1.5,1.1-2.7,1.8-3.6,2-.9.2-1.8.1-2.5-.2-.7-.3-1.2-.7-1.6-1.1-.4-.4-.9-1.1-1.6-1.9l-5.3-7.1-20.1,4-2.2,8.6c-.3,1.1-.5,1.8-.7,2.3-.2.5-.5,1-1,1.6-.5.6-1.2,1-2.2,1.1-.9.2-2.3,0-4.1-.4-3.1-.8-4.8-2-5.1-3.8-.2-.8,0-2.1.5-3.9l11.4-44.4c.3-1.2.9-2.3,1.9-3.2,1-.9,2-1.5,3.2-1.7,2.6-.5,4.8.3,6.6,2.6ZM235.4,341.3l-2.8,10.9,9.6-1.9-6.9-8.9Z"/>
            <path class="cls-9" d="M261.4,310.4l10.9-8.2c5.7-4.3,12.2-6.1,19.7-5.3,7.4.8,13.4,4.2,18,10.2,4.6,6,6.4,12.7,5.4,20.2-1,7.5-4.4,13.5-10.4,18.1l-10.7,8.2c-2.4,1.8-4.3,2.5-5.6,1.9-1.1-.5-2.3-1.5-3.6-3.2l-24.9-32.7c-.7-.9-1.2-1.6-1.5-2.1-.3-.5-.5-1.1-.6-2-.3-1.5.9-3.2,3.4-5.1ZM302.4,325.8c.7-3.8-.2-7.3-2.6-10.5-2.4-3.2-5.5-5-9.4-5.4-3.8-.4-7.2.5-10.2,2.7l-5.6,4.3,17,22.2,5.7-4.4c2.8-2.2,4.6-5.1,5.2-9Z"/>
          </g>
          <g>
            <path class="cls-24" d="M204.3,262.1c-.5,0-1,0-1.5-.3-19.6-7.1-54.4-5.7-54.9-5.6h0c-1.5,0-2.6-.5-3.4-1.3-.9-.9-1.4-2.1-1.4-3.3v-78.8c0-2.5,2.1-4.6,4.6-4.6s4.6,2.1,4.6,4.6v74.1c9.8-.2,33.5,0,50.7,5.3,4.6-4.4,17-13.6,41.1-13.6h15v-10.3c0-2.5,2.1-4.6,4.6-4.6s4.6,2.1,4.6,4.6v15c0,2.6-2.1,4.6-4.6,4.6h-19.6c-14.1,0-23.3,3.5-28.5,6.4-5.3,2.9-7.5,5.9-7.5,6-.9,1.2-2.3,1.9-3.7,1.9Z"/>
            <path class="cls-24" d="M211.1,256.2c-1.1,0-2.2-.4-3-1.1-6-5-20-7.8-39.5-7.8s-11.3.3-11.4.4c-1.5,0-2.6-.4-3.5-1.2-1-1-1.5-2.2-1.5-3.4v-80.6c0-2.5,2.1-4.6,4.6-4.6h29.4c10.9,0,18.9,2.9,23.7,8.5,1.4-1.8,3.1-3.3,5.1-4.7,5-3.2,9.9-3.8,9.9-3.8h38.6c2.5,0,4.6,2,4.6,4.6v57.8c0,2.6-2.1,4.6-4.6,4.6s-4.6-2.1-4.6-4.6v-53.1h-33.4c-.6.1-9.9,1.7-11.1,11.8,0,1.5-.1,2.8-.2,3.1-.3,1.5-1.1,2.6-2.3,3.3,2.1.5,3.6,2.3,3.6,4.5v61.8c0,1.8-1,3.4-2.6,4.2-.6.3-1.3.4-2,.4ZM168.7,238.1c11.6,0,27,1,37.7,5.5v-53.8c0-1.8,1-3.3,2.4-4.1-2.3-.6-3.7-2.3-3.7-4.5s0-2.1.2-3c0-1.3-.5-3.7-2.3-5.8-2.9-3.5-8.6-5.3-16.7-5.3h-24.8v71.1c2,0,4.4-.1,7.2-.1Z"/>
            <path class="cls-24" d="M202.3,184.6c-1.1,0-2.2-.4-3-1.1-.5-.4-2.3-1.3-4.3-2h-28.6c-2.5,0-4.6-2.1-4.6-4.6s2.1-4.6,4.6-4.6l30.8.2c1.8.6,6,2.1,8.2,4.1.9.8,1.5,1.9,1.6,3.2,0,1.2-.3,2.4-1.2,3.4-.9,1-2.2,1.6-3.5,1.6Z"/>
            <path class="cls-24" d="M202.3,195.4c-1.1,0-2.2-.4-3-1.1-.4-.4-2.3-1.3-4.3-2h-28.6c-2.5,0-4.6-2.1-4.6-4.6s2.1-4.6,4.6-4.6l30.8.2c.6.2,5.7,1.9,8.2,4.1.9.8,1.5,1.9,1.6,3.2,0,1.2-.3,2.4-1.2,3.4-.9,1-2.2,1.6-3.5,1.6Z"/>
            <path class="cls-24" d="M202.3,206.1c-1.1,0-2.2-.4-3-1.1-.4-.4-2.3-1.3-4.3-2h-28.6c-2.5,0-4.6-2.1-4.6-4.6s2.1-4.6,4.6-4.6l30.9.3c.5.2,5.7,1.9,8.2,4.1.9.8,1.5,2,1.6,3.2,0,1.2-.3,2.4-1.2,3.3-.9,1-2.1,1.5-3.5,1.5Z"/>
            <path class="cls-24" d="M202.3,216.9c-1.1,0-2.2-.4-3.1-1.2-.4-.4-2.3-1.3-4.3-2h-28.6c-2.5,0-4.6-2.1-4.6-4.6s2.1-4.6,4.6-4.6l30.8.2c2.2.8,6.2,2.2,8.3,4.1,1.9,1.7,2.1,4.6.4,6.5-.9,1-2.2,1.6-3.5,1.6Z"/>
            <path class="cls-24" d="M202.3,227.7c-1.1,0-2.2-.4-3-1.1-.4-.4-2.3-1.3-4.3-2h-28.6c-2.5,0-4.6-2.1-4.6-4.6s2.1-4.6,4.6-4.6l30.8.2c.3,0,5.7,1.8,8.3,4.1.9.8,1.5,1.9,1.6,3.2,0,1.2-.3,2.4-1.2,3.4-.9,1-2.1,1.5-3.5,1.5Z"/>
            <path class="cls-24" d="M202.3,238.4c-1.1,0-2.2-.4-3.1-1.2-.4-.4-2.3-1.3-4.3-2h-28.6c-2.5,0-4.6-2.1-4.6-4.6s2.1-4.6,4.6-4.6l30.9.2c1.7.6,6,2.2,8.2,4.1.9.8,1.5,1.9,1.6,3.2,0,1.2-.4,2.5-1.2,3.4-.8,1-2.1,1.5-3.4,1.5Z"/>
            <path class="cls-24" d="M217.3,184.6c-1.3,0-2.6-.6-3.4-1.5-.8-.9-1.2-2.1-1.2-3.4,0-1.2.6-2.4,1.6-3.2,2.1-1.9,6-3.3,8.2-4.1.5-.2,1-.2,1.5-.2h29.4c2.5,0,4.6,2.1,4.6,4.6s-2.1,4.6-4.6,4.6h-28.6c-2,.7-3.9,1.6-4.3,2-.9.8-2,1.2-3.1,1.2Z"/>
            <path class="cls-24" d="M217.3,195.4c-1.3,0-2.6-.6-3.4-1.5-.8-.9-1.2-2.1-1.2-3.4,0-1.2.6-2.4,1.6-3.2,2.1-1.9,6-3.3,8.2-4.1l1.5-.2h29.4c2.5,0,4.6,2.1,4.6,4.6s-2.1,4.6-4.6,4.6h-28.6c-2,.7-3.9,1.6-4.3,2-.9.8-2,1.2-3.1,1.2Z"/>
            <path class="cls-24" d="M217.3,206.2c-1.3,0-2.6-.6-3.4-1.6-.8-.9-1.2-2.1-1.2-3.4,0-1.2.6-2.4,1.6-3.2,2.3-2,6.8-3.6,8.2-4.1l1.5-.2h29.4c2.5,0,4.6,2.1,4.6,4.6s-2.1,4.6-4.6,4.6h-28.6c-2,.7-3.9,1.6-4.3,2-.9.8-2,1.2-3.1,1.2Z"/>
            <path class="cls-24" d="M217.3,217c-1.3,0-2.6-.6-3.5-1.6-.8-.9-1.2-2.1-1.1-3.3,0-1.2.6-2.4,1.6-3.2,2.1-1.8,6-3.3,8.1-4.1.5-.2,1-.2,1.5-.2h29.4c2.5,0,4.6,2.1,4.6,4.6s-2.1,4.6-4.6,4.6h-28.6c-2,.7-3.9,1.6-4.3,2-.9.8-2,1.2-3.1,1.2Z"/>
            <path class="cls-24" d="M217.3,227.8c-1.3,0-2.6-.6-3.5-1.6-.8-.9-1.2-2.1-1.2-3.3s.6-2.4,1.6-3.2c2.5-2.2,7.6-3.9,8.2-4.1l1.4-.2h29.4c2.5,0,4.6,2.1,4.6,4.6s-2.1,4.6-4.6,4.6h-28.6c-2,.7-3.8,1.6-4.3,2-1,.8-2,1.2-3.1,1.2Z"/>
            <path class="cls-24" d="M217.3,238.6c-1.3,0-2.6-.6-3.4-1.5-1.7-1.9-1.5-4.9.4-6.6,2.5-2.2,7.7-3.9,8.2-4.1l1.4-.2h29.4c2.5,0,4.6,2.1,4.6,4.6s-2.1,4.6-4.6,4.6h-28.6c-2,.7-3.9,1.6-4.3,2-1,.8-2,1.2-3.1,1.2Z"/>
            <path class="cls-24" d="M216.6,262.1c-1.4,0-2.7-.6-3.6-1.7l-5.6-7c-1.6-2-1.2-4.9.7-6.5,2-1.6,5-1.2,6.5.7l3.4,4.2c14.2-5,39.4-5.2,49.7-5v-74.1c0-2.5,2.1-4.6,4.6-4.6s4.6,2.1,4.6,4.6v78.8c0,1.3-.5,2.5-1.4,3.3-.9.8-2,1.3-3.2,1.3-.4,0-3.8-.1-8.9-.1-21.3,0-37.7,2-44.8,5.6-.6.3-1.3.5-2,.5Z"/>
          </g>
          <g>
            <g>
              <polygon class="cls-35" points="210 43.5 216.6 56.8 231.3 58.9 220.6 69.3 223.1 83.9 210 77 196.9 83.9 199.4 69.3 188.7 58.9 203.4 56.8 210 43.5"/>
              <path class="cls-24" d="M223.1,85.3c-.2,0-.5,0-.7-.2l-12.5-6.6-12.5,6.6c-.5.3-1.1.2-1.5-.1-.4-.3-.7-.9-.6-1.4l2.4-13.9-10.1-9.8c-.4-.4-.5-.9-.4-1.5.2-.5.6-.9,1.1-1l14-2,6.2-12.6c.2-.5.7-.8,1.3-.8h0c.5,0,1,.3,1.3.8l6.2,12.6,14,2c.5,0,1,.5,1.1,1s0,1.1-.4,1.5l-10.1,9.8,2.4,13.9c0,.5-.1,1.1-.6,1.4-.2.2-.5.3-.8.3ZM191.8,59.9l8.6,8.3c.3.3.5.8.4,1.3l-2,11.8,10.6-5.6c.4-.2.9-.2,1.3,0l10.6,5.6-2-11.8c0-.5,0-.9.4-1.3l8.6-8.3-11.8-1.7c-.5,0-.9-.4-1.1-.8l-5.3-10.7-5.3,10.7c-.2.4-.6.7-1.1.8l-11.8,1.7Z"/>
            </g>
            <g>
              <polygon class="cls-35" points="157.6 66 164.1 79.3 178.8 81.5 168.2 91.8 170.7 106.5 157.6 99.6 144.4 106.5 146.9 91.8 136.3 81.5 151 79.3 157.6 66"/>
              <path class="cls-24" d="M144.4,107.9c-.3,0-.6,0-.8-.3-.4-.3-.7-.9-.6-1.4l2.4-13.9-10.1-9.8c-.4-.4-.5-.9-.4-1.5s.6-.9,1.1-1l14-2,6.2-12.6c.5-1,2.1-1,2.6,0l6.2,12.6,14,2c.5,0,1,.5,1.1,1s0,1.1-.4,1.5l-10.1,9.8,2.4,13.9c0,.5-.1,1.1-.6,1.4-.4.3-1,.4-1.5.1l-12.5-6.6-12.5,6.6c-.2.1-.4.2-.7.2ZM157.6,98.1c.2,0,.5,0,.7.2l10.6,5.6-2-11.8c0-.5,0-.9.4-1.3l8.6-8.3-11.8-1.7c-.5,0-.9-.4-1.1-.8l-5.3-10.7-5.3,10.7c-.2.4-.6.7-1.1.8l-11.8,1.7,8.6,8.3c.3.3.5.8.4,1.3l-2,11.8,10.6-5.6c.2-.1.4-.2.7-.2Z"/>
            </g>
            <g>
              <polygon class="cls-35" points="262.4 66 269 79.3 283.7 81.5 273.1 91.8 275.6 106.5 262.4 99.6 249.3 106.5 251.8 91.8 241.2 81.5 255.9 79.3 262.4 66"/>
              <path class="cls-24" d="M249.3,107.9c-.3,0-.6,0-.8-.3-.4-.3-.7-.9-.6-1.4l2.4-13.9-10.1-9.8c-.4-.4-.5-.9-.4-1.5s.6-.9,1.1-1l13.9-2,6.2-12.6c.2-.5.7-.8,1.3-.8h0c.5,0,1,.3,1.3.8l6.2,12.6,14,2c.5,0,1,.5,1.1,1,.2.5,0,1.1-.4,1.5l-10.1,9.8,2.4,13.9c0,.5-.1,1.1-.6,1.4-.4.3-1,.4-1.5.1l-12.5-6.6-12.5,6.6c-.2.1-.4.2-.7.2ZM262.4,98.1c.2,0,.4,0,.7.2l10.6,5.6-2-11.8c0-.5,0-.9.4-1.3l8.6-8.3-11.8-1.7c-.5,0-.9-.4-1.1-.8l-5.3-10.7-5.3,10.7c-.2.4-.6.7-1.1.8l-11.8,1.7,8.6,8.3c.3.3.5.8.4,1.3l-2,11.8,10.6-5.6c.2-.1.4-.2.7-.2Z"/>
            </g>
          </g>
          <path class="cls-24" d="M210,305.9c-52.9,0-95.9-43-95.9-95.9s43-95.9,95.9-95.9,95.9,43,95.9,95.9-43,95.9-95.9,95.9ZM210,119.8c-49.7,0-90.2,40.5-90.2,90.2s40.5,90.2,90.2,90.2,90.2-40.4,90.2-90.2c0-49.7-40.4-90.2-90.2-90.2Z"/>
          <g>
            <path class="cls-7" d="M204.3,259.3c-.2,0-.4,0-.6-.1-20.3-7.3-55.7-5.8-56-5.8-.5,0-1-.1-1.3-.5s-.5-.8-.5-1.3v-78.8c0-1,.8-1.8,1.8-1.8s1.8.8,1.8,1.8v77c7.6-.2,35.8-.6,54.3,5.6,3.1-3.4,14.6-13.9,40.3-13.9h17.8v-13.2c0-1,.8-1.8,1.8-1.8s1.8.8,1.8,1.8v15c0,1-.8,1.8-1.8,1.8h-19.6c-14.8,0-24.4,3.7-29.9,6.8-5.9,3.3-8.4,6.7-8.4,6.8-.4.5-.9.7-1.5.7Z"/>
            <path class="cls-7" d="M211.1,253.4c-.4,0-.8-.1-1.2-.4-13-11-52.5-8.2-52.9-8.1-.5,0-1-.1-1.3-.5-.4-.4-.6-.8-.6-1.3v-80.6c0-1,.8-1.8,1.8-1.8h29.4c10.2,0,17.5,2.6,21.7,7.7.9,1,1.5,2.1,2.1,3.2,1.7-3.6,4.3-6,6.6-7.5,4.2-2.8,8.4-3.3,8.6-3.3,0,0,.1,0,.2,0h38.2c1,0,1.8.8,1.8,1.8v57.8c0,1-.8,1.8-1.8,1.8s-1.8-.8-1.8-1.8v-56h-36.3c-1.2.2-12.4,2.1-13.9,14.3,0,1.7-.2,2.9-.2,3-.2.9-1,1.5-1.9,1.4-.9,0-1.6-.9-1.6-1.8s0-1.9.1-2.7c0-2.1-.7-5.2-2.9-7.9-3.5-4.2-9.9-6.3-18.9-6.3h-27.6v76.9c7.8-.4,36.5-1.4,50.6,7v-58.4c0-1,.8-1.8,1.8-1.8s1.8.8,1.8,1.8v61.8c0,.7-.4,1.3-1,1.6-.2.1-.5.2-.7.2Z"/>
            <path class="cls-7" d="M202.3,181.8c-.4,0-.8-.1-1.2-.4-1-.9-3.9-2.1-5.7-2.7h-29.1c-1,0-1.8-.8-1.8-1.8s.8-1.8,1.8-1.8h29.4c.2,0,.4,0,.6,0,.5.2,5.2,1.8,7.2,3.5.7.6.8,1.8.2,2.5-.4.4-.9.6-1.3.6Z"/>
            <path class="cls-7" d="M202.3,192.5c-.4,0-.8-.1-1.2-.4-1-.9-3.9-2.1-5.7-2.7h-29.1c-1,0-1.8-.8-1.8-1.8s.8-1.8,1.8-1.8h29.4c.2,0,.4,0,.6,0,.5.2,5.2,1.7,7.2,3.5.7.7.8,1.8.2,2.5-.4.4-.9.6-1.3.6Z"/>
            <path class="cls-7" d="M202.3,203.3c-.4,0-.8-.1-1.2-.4-1-.9-3.9-2.1-5.7-2.7h-29.1c-1,0-1.8-.8-1.8-1.8s.8-1.8,1.8-1.8h29.4c.2,0,.4,0,.6,0,.5.2,5.2,1.8,7.2,3.5.7.7.8,1.8.2,2.5-.4.4-.9.6-1.3.6Z"/>
            <path class="cls-7" d="M202.3,214.1c-.4,0-.8-.1-1.2-.4-1-.9-3.9-2.1-5.7-2.7h-29.1c-1,0-1.8-.8-1.8-1.8s.8-1.8,1.8-1.8h29.4c.2,0,.4,0,.6,0,.5.2,5.2,1.8,7.2,3.5.7.7.8,1.8.2,2.5-.4.4-.9.6-1.3.6Z"/>
            <path class="cls-7" d="M202.3,224.8c-.4,0-.8-.1-1.2-.4-1-.9-3.9-2.1-5.7-2.7h-29.1c-1,0-1.8-.8-1.8-1.8s.8-1.8,1.8-1.8h29.4c.2,0,.4,0,.6,0,.5.2,5.2,1.8,7.2,3.5.7.6.8,1.8.2,2.5-.4.4-.9.6-1.3.6Z"/>
            <path class="cls-7" d="M202.3,235.6c-.4,0-.8-.1-1.2-.4-1-.9-3.9-2.1-5.7-2.7h-29.1c-1,0-1.8-.8-1.8-1.8s.8-1.8,1.8-1.8h29.4c.2,0,.4,0,.6,0,.5.2,5.2,1.8,7.2,3.5.7.6.8,1.8.2,2.5-.4.4-.9.6-1.3.6Z"/>
            <path class="cls-7" d="M217.3,181.8c-.5,0-1-.2-1.3-.6-.7-.7-.6-1.9.2-2.5,2-1.8,6.7-3.3,7.2-3.5.2,0,.4,0,.6,0h29.4c1,0,1.8.8,1.8,1.8s-.8,1.8-1.8,1.8h-29.1c-1.8.6-4.7,1.8-5.7,2.7-.4.3-.8.4-1.2.4Z"/>
            <path class="cls-7" d="M217.3,192.6c-.5,0-1-.2-1.3-.6-.7-.7-.6-1.9.2-2.5,2-1.8,6.7-3.3,7.2-3.5.2,0,.4,0,.6,0h29.4c1,0,1.8.8,1.8,1.8s-.8,1.8-1.8,1.8h-29.1c-1.8.6-4.7,1.8-5.7,2.7-.4.3-.8.4-1.2.4Z"/>
            <path class="cls-7" d="M217.3,203.4c-.5,0-1-.2-1.3-.6-.7-.7-.6-1.9.2-2.5,2-1.8,6.7-3.3,7.2-3.5.2,0,.4,0,.6,0h29.4c1,0,1.8.8,1.8,1.8s-.8,1.8-1.8,1.8h-29.1c-1.8.6-4.7,1.8-5.7,2.7-.4.3-.8.4-1.2.4Z"/>
            <path class="cls-7" d="M217.3,214.1c-.5,0-1-.2-1.3-.6-.7-.7-.6-1.9.2-2.5,2-1.8,6.7-3.3,7.2-3.5.2,0,.4,0,.6,0h29.4c1,0,1.8.8,1.8,1.8s-.8,1.8-1.8,1.8h-29.1c-1.8.6-4.7,1.8-5.7,2.7-.4.3-.8.4-1.2.4Z"/>
            <path class="cls-7" d="M217.3,225c-.5,0-1-.2-1.3-.6-.7-.7-.6-1.9.2-2.5,2-1.8,6.7-3.4,7.2-3.5.2,0,.4,0,.6,0h29.4c1,0,1.8.8,1.8,1.8s-.8,1.8-1.8,1.8h-29.1c-1.8.6-4.7,1.8-5.7,2.7-.4.3-.8.4-1.2.4Z"/>
            <path class="cls-7" d="M217.3,235.8c-.5,0-1-.2-1.3-.6-.7-.8-.6-1.9.2-2.5,2-1.8,6.7-3.3,7.2-3.5.2,0,.4-.1.6-.1h29.4c1,0,1.8.8,1.8,1.8s-.8,1.8-1.8,1.8h-29.1c-1.8.6-4.7,1.8-5.7,2.7-.4.3-.8.4-1.2.4Z"/>
            <path class="cls-7" d="M216.6,259.3c-.5,0-1-.2-1.4-.7l-5.5-7c-.6-.8-.5-1.9.3-2.5.8-.6,1.9-.5,2.5.3l4.7,5.9c14.4-6.1,45.5-5.7,53.5-5.5v-77c0-1,.8-1.8,1.8-1.8s1.8.8,1.8,1.8v78.8c0,.5-.2,1-.6,1.3s-.8.5-1.3.5c-.4,0-40.4-1.5-54.9,5.7-.2.1-.5.2-.8.2Z"/>
          </g>
          <g>
            <path class="cls-32" d="M138.2,350.9c-.4,1.9-.9,3.1-1.4,3.8-1.1,1.5-3.3,1.9-6.5,1.1-1.7-.4-2.9-.8-3.7-1.4-.8-.6-1.3-1.2-1.5-2-.2-.7-.3-1.4-.3-2,.2-1.1,1.2-5.8,3.2-14.2l-1.9-1.2-7.5-5.5-4.9,6.8c-.7.9-1.2,1.6-1.6,2s-1,.8-1.7,1.2c-1.3.7-3.3,0-5.8-1.8-2.8-2-3.9-3.9-3.3-5.8.3-.9.9-2,1.9-3.4l24.1-33.2c.7-.9,1.2-1.6,1.6-2,.4-.4,1-.8,1.7-1.2,1.3-.7,3.3,0,5.8,1.8l12.9,9.4c3.5,2.5,6,6.3,7.5,11.2.7,2.4.8,5,.3,7.9-.5,2.9-1.7,5.6-3.6,8.2-3.3,4.5-7.5,7.1-12.6,7.9-.7,2.8-1.6,6.9-2.7,12.4ZM126.3,318.9l7.7,5.6c1.2.8,2.6,1.2,4.4,1.2,1.8,0,3.3-.9,4.6-2.7,1.3-1.8,1.7-3.5,1.2-5.2-.5-1.7-1.4-3.1-2.6-4l-7.5-5.5-7.7,10.6Z"/>
            <path class="cls-32" d="M168.6,357.7l22.2,5.2c1.1.3,1.9.5,2.5.7.5.2,1.1.6,1.7,1.1,1.1,1,1.3,3,.6,6.1-.8,3.4-2.1,5.1-4.1,5.3-.9,0-2.2,0-3.8-.4l-28.5-6.7c-3.4-.8-5.1-2.2-5.3-4.1-.1-.8,0-2.1.4-3.8l9.4-40c.6-2.4,1.4-4,2.5-4.7s3-.7,5.5-.1l28.3,6.7c1.1.3,1.9.5,2.5.7.5.2,1.1.6,1.7,1.1,1.1,1,1.3,3,.6,6.1-.8,3.4-2.1,5.1-4.1,5.3-.9,0-2.2,0-3.8-.4l-22.1-5.2-1.7,7.3,14.2,3.4c1.1.3,1.9.5,2.5.7.5.2,1.1.6,1.7,1.1,1.1,1,1.3,3,.6,6.1-.8,3.4-2.2,5.1-4.1,5.3-.9.1-2.2,0-3.8-.4l-14.1-3.3-1.7,7.3Z"/>
            <path class="cls-32" d="M237.8,322.7l27.7,36.5c1.1,1.5,1.8,2.6,2,3.4.4,1.7-.7,3.6-3.3,5.6-1.5,1.1-2.7,1.8-3.6,2-.9.2-1.8.1-2.5-.2-.7-.3-1.2-.7-1.6-1.1-.4-.4-.9-1.1-1.6-1.9l-5.3-7.1-20.1,4-2.2,8.6c-.3,1.1-.5,1.8-.7,2.3-.2.5-.5,1-1,1.6-.5.6-1.2,1-2.2,1.1-.9.2-2.3,0-4.1-.4-3.1-.8-4.8-2-5.1-3.8-.2-.8,0-2.1.5-3.9l11.4-44.4c.3-1.2.9-2.3,1.9-3.2,1-.9,2-1.5,3.2-1.7,2.6-.5,4.8.3,6.6,2.6ZM235.4,341.3l-2.8,10.9,9.6-1.9-6.9-8.9Z"/>
            <path class="cls-32" d="M261.4,310.4l10.9-8.2c5.7-4.3,12.2-6.1,19.7-5.3,7.4.8,13.4,4.2,18,10.2,4.6,6,6.4,12.7,5.4,20.2-1,7.5-4.4,13.5-10.4,18.1l-10.7,8.2c-2.4,1.8-4.3,2.5-5.6,1.9-1.1-.5-2.3-1.5-3.6-3.2l-24.9-32.7c-.7-.9-1.2-1.6-1.5-2.1-.3-.5-.5-1.1-.6-2-.3-1.5.9-3.2,3.4-5.1ZM302.4,325.8c.7-3.8-.2-7.3-2.6-10.5-2.4-3.2-5.5-5-9.4-5.4-3.8-.4-7.2.5-10.2,2.7l-5.6,4.3,17,22.2,5.7-4.4c2.8-2.2,4.6-5.1,5.2-9Z"/>
          </g>
        </g>
        <g>
          <g>
            <g class="cls-3">
              <ellipse class="cls-22" cx="652" cy="139" rx="134.4" ry="123.4"/>
            </g>
            <g class="cls-19">
              <ellipse class="cls-30" cx="652" cy="190.4" rx="134.4" ry="123.4"/>
            </g>
            <g class="cls-1">
              <rect class="cls-35" x="519" y="241.8" width="267.8" height="128"/>
            </g>
            <g class="cls-2">
              <ellipse class="cls-35" cx="652" cy="241.8" rx="137.1" ry="125.9"/>
            </g>
          </g>
          <g>
            <path class="cls-24" d="M699.6,213.7h-92.4c-12.7,0-23.1-9.4-23.1-21v-102.9c0-11.6,10.4-21,23.1-21h18.1c3.1,0,5.7,2.5,5.7,5.7s-2.5,5.7-5.7,5.7h-18.1c-6.5,0-11.8,4.4-11.8,9.7v102.9c0,5.4,5.3,9.7,11.8,9.7h92.4c6.5,0,11.8-4.4,11.8-9.7v-102.9c0-5.4-5.3-9.7-11.8-9.7h-18c-3.1,0-5.7-2.5-5.7-5.7s2.5-5.7,5.7-5.7h18c12.7,0,23.1,9.4,23.1,21v102.9c0,11.6-10.4,21-23.1,21ZM589.7,192.7c0,8.5,7.8,15.4,17.4,15.4h92.4-92.4c-9.6,0-17.4-6.9-17.4-15.4ZM681.6,74.4h18c9.6,0,17.4,6.9,17.4,15.4,0-8.5-7.8-15.4-17.4-15.4h-18Z"/>
            <path class="cls-15" d="M588.9,96"/>
            <path class="cls-24" d="M717.1,101.6h-127.3c-3.1,0-5.7-2.5-5.7-5.7s2.5-5.7,5.7-5.7h127.3c3.1,0,5.7,2.5,5.7,5.7s-2.5,5.7-5.7,5.7ZM717.1,96v2.8-2.8h0Z"/>
            <g>
              <g>
                <path class="cls-24" d="M700.8,122.3h-45.9c-3.1,0-5.7-2.5-5.7-5.7s2.5-5.7,5.7-5.7h45.9c3.1,0,5.7,2.5,5.7,5.7s-2.5,5.7-5.7,5.7ZM700.8,116.6v2.8-2.8h0Z"/>
                <path class="cls-24" d="M700.8,131.6h-45.9c-3.1,0-5.7-2.5-5.7-5.7s2.5-5.7,5.7-5.7h45.9c3.1,0,5.7,2.5,5.7,5.7s-2.5,5.7-5.7,5.7ZM700.8,126v2.8-2.8h0Z"/>
                <path class="cls-24" d="M700.8,141h-45.9c-3.1,0-5.7-2.5-5.7-5.7s2.5-5.7,5.7-5.7h45.9c3.1,0,5.7,2.5,5.7,5.7s-2.5,5.7-5.7,5.7ZM700.8,135.3v2.8-2.8h0Z"/>
                <path class="cls-24" d="M700.8,150.3h-45.9c-3.1,0-5.7-2.5-5.7-5.7s2.5-5.7,5.7-5.7h45.9c3.1,0,5.7,2.5,5.7,5.7s-2.5,5.7-5.7,5.7ZM700.8,144.7v2.8-2.8h0Z"/>
              </g>
              <g>
                <path class="cls-24" d="M700.8,168h-45.9c-3.1,0-5.7-2.5-5.7-5.7s2.5-5.7,5.7-5.7h45.9c3.1,0,5.7,2.5,5.7,5.7s-2.5,5.7-5.7,5.7ZM700.8,162.4v2.8-2.8h0Z"/>
                <path class="cls-24" d="M700.8,177.4h-45.9c-3.1,0-5.7-2.5-5.7-5.7s2.5-5.7,5.7-5.7h45.9c3.1,0,5.7,2.5,5.7,5.7s-2.5,5.7-5.7,5.7ZM700.8,171.7v2.8-2.8h0Z"/>
                <path class="cls-24" d="M700.8,186.7h-45.9c-3.1,0-5.7-2.5-5.7-5.7s2.5-5.7,5.7-5.7h45.9c3.1,0,5.7,2.5,5.7,5.7s-2.5,5.7-5.7,5.7ZM700.8,181.1v2.8-2.8h0Z"/>
                <path class="cls-24" d="M700.8,196.1h-45.9c-3.1,0-5.7-2.5-5.7-5.7s2.5-5.7,5.7-5.7h45.9c3.1,0,5.7,2.5,5.7,5.7s-2.5,5.7-5.7,5.7ZM700.8,190.4v2.8-2.8h0Z"/>
              </g>
              <path class="cls-24" d="M623.4,148c-5.3,0-9.9-1.9-13.6-5.7-3.7-3.8-5.5-8.3-5.5-13.6s.5-5.5,1.5-8c1-2.5,2.4-4.6,4.2-6.3,1.7-1.7,3.7-3,6-4,2.3-1,4.6-1.5,7.1-1.5,5.1,0,9.6,1.9,13.4,5.5,3.8,3.7,5.7,8.4,5.7,14s-.3,4.2-1,6.2c.4.3.8.6,1.1.8,1.9,1.4,2.8,2.9,2.8,4.6s-.6,2.8-1.8,4.6c-2.4,3.5-4.8,4.5-9.2,1.5,0,0-.5-.3-1.2-.8-2.8,1.7-5.9,2.6-9.3,2.6ZM623,114.6c-1.7,0-3.2.3-4.8,1-1.6.7-3,1.6-4.2,2.8-1.2,1.2-2.2,2.7-2.9,4.4-.7,1.8-1.1,3.7-1.1,5.8,0,3.8,1.3,6.9,3.9,9.6,2.6,2.7,5.7,4,9.6,4s5.3-.8,7.5-2.6l1.5-1.2,1.7,1c.4.3,1,.6,1.7,1.2.6.4,1,.7,1.1.8.5.3.8.5,1,.6.1-.1.3-.3.5-.6.4-.5.6-.9.7-1.2,0,0-.2-.2-.3-.3l-4.8-3.2,1-2.2c.9-2,1.4-4.1,1.4-6.1,0-4.1-1.3-7.4-4-10-2.7-2.6-5.8-3.9-9.4-3.9ZM623.2,140.1c-2.8,0-5.4-1.1-7.7-3.2-2.3-2.2-3.4-5-3.4-8.4s1.1-6.2,3.4-8.4c4.5-4.3,10.8-4.3,15.3,0,2.3,2.2,3.4,5,3.4,8.5s-1.1,6.3-3.4,8.5c-2.2,2.1-4.8,3.2-7.6,3.2ZM623.1,122.4c-1.4,0-2.5.5-3.7,1.7-1.1,1.1-1.7,2.5-1.7,4.4s.5,3.3,1.7,4.4c2.4,2.3,5.1,2.2,7.5,0,1.1-1.1,1.7-2.5,1.7-4.4s-.5-3.3-1.7-4.4c-1.2-1.1-2.4-1.7-3.7-1.7Z"/>
              <path class="cls-24" d="M635.7,193.6c-1.2,0-2.2-.3-3.1-.9-.7-.5-1.3-1.1-1.6-1.8-.2-.3-.4-.8-.7-1.4l-1.5-3.2h-8.7l-1.5,3.2c-.4.7-.6,1.2-.8,1.5-.4.6-.8,1.1-1.5,1.6-1.7,1.3-3.7,1.5-6.8,0-3.4-1.6-4.1-3.8-4.1-5.4s.3-2,1-3.5l12-24.7c.6-1.2,1.4-2.1,2.5-2.8,3.4-2.2,7.8-.9,9.7,2.8l12,24.7c.7,1.4,1,2.5,1,3.5,0,1.5-.7,3.7-4.1,5.4-1.4.7-2.6,1-3.7,1ZM616.4,180.6h15.8l3.1,6.4c.2.4.3.7.5.9.2,0,.5-.2,1-.4.5-.2.8-.4.9-.6,0-.1-.2-.4-.4-.8l-12-24.8c-.4-.9-.6-1.1-1.6-.5-.2.1-.4.3-.4.5l-12,24.8c-.2.4-.3.7-.4.9.1,0,.4.2.9.4.9.4,1.2.5,1.2.5-.1-.1,0-.5.3-1l3.1-6.3ZM631.8,179.7h-14.9l7.4-15.4,7.5,15.4Z"/>
            </g>
            <path class="cls-24" d="M634.1,86.6c-1.5,0-6.8-.3-10.7-4.1-2.5-2.4-3.9-5.8-3.9-9.6-.4-2.7-.1-11.5,8-15.3.9-.3,4.9-1.6,8.7-1.1,2.7-4.5,8-10.3,17.1-10.3,5.4.1,14.6,2.4,18.1,10,3.6-.2,7,.6,9.6,2.5,4.1,2.8,6.2,7.5,6.3,13.9-1.1,6.7-5,14-12.7,14h-12.2c-2.6,0-4.8-1.8-5.5-4.1-.7,2.4-2.9,4.1-5.4,4.1h-17.4ZM635.7,80.9h-.4,16.2-15.8ZM662.4,80.9h12.2c1.3,0,2.4-.4,3.3-1.1-.9.7-2,1.1-3.3,1.1h-12.2ZM625.2,73.5c.2,2,.9,3.7,2.2,4.9,1.6,1.5,3.6,2.1,5.1,2.3-1.4-.2-3.5-.8-5.1-2.3-1.5-1.5-2-3.3-2.2-4.9ZM634.2,75.3h17.3c2.6,0,4.8,1.8,5.4,4.1.7-2.4,2.9-4.1,5.5-4.1h12.2c.3-.2,1.1-1.9,1.5-3.4-.1-1.9-.6-3.4-1.4-3.9-1.2-.8-4.9-.2-5.6,0-1.6.6-3.7.4-5.2-.7-1.5-1.1-2.4-2.8-2.4-4.6,0-5-8.3-5.2-8.3-5.2-6.1,0-8.6,7.6-8.6,7.7-.5,1.7-1.9,3.1-3.6,3.7-1.8.6-3.7.2-5.2-.9-.6-.4-3-.2-4.1,0-1.3.6-.9,3.7-.9,3.8,0,2.1.4,2.4.5,2.5.6.6,1.8.8,2.5.9h.4ZM637.1,62.4c.8.2,1.4.6,2,1,0,0,.3-.9.9-2.1l-.8,1.7-2.1-.6ZM633.3,62c-1.9.1-3.4.7-3.6.7,0,0,0,0,0,0,.9-.3,2.2-.6,3.7-.8ZM661,53.6c3.4,1.6,6.2,4.4,6.2,9.1.5-.2,1.3-.4,2.2-.6l-1.9.3-.7-2.5c-.8-3.1-3.2-5.1-5.9-6.3ZM653.2,51.8c-5.9,0-9.7,3.6-11.9,7.2,2.1-3.3,5.8-7.2,11.9-7.2.4,0,.8,0,1.2,0-.4,0-.8,0-1.2,0Z"/>
          </g>
          <g class="cls-21">
            <ellipse class="cls-29" cx="653" cy="364" rx="129.6" ry="59.3"/>
          </g>
          <path class="cls-24" d="M653,420c-2,0-4-.4-5.9-1.3l-129.2-59.3c-7.2-.6-12.9-6.7-12.9-14.1v-210.1c0-.6,0-1.2.1-1.7C507.4,59.7,573.4,0,653,0s145.5,59.7,147.9,133.4c0,.6.1,1.2.1,1.8v210.1c0,7.4-5.7,13.4-12.9,14.1l-129.2,59.3c-1.9.9-3.9,1.3-5.9,1.3ZM533.2,335.3l119.7,55,119.7-55v-198.6c0-.4,0-.8,0-1.2-1.2-59.1-54.9-107.2-119.7-107.2s-118.5,48.1-119.7,107.2c0,.4,0,.7,0,1.1v198.7Z"/>
          <g>
            <g>
              <polygon class="cls-35" points="653 326.6 658.2 337.2 670 338.9 661.5 347.2 663.5 358.9 653 353.4 642.5 358.9 644.5 347.2 636 338.9 647.7 337.2 653 326.6"/>
              <path class="cls-24" d="M642.5,360.3c-.3,0-.6,0-.8-.3-.4-.3-.7-.9-.6-1.4l1.9-11-8-7.8c-.4-.4-.5-.9-.4-1.5.2-.5.6-.9,1.1-1l11-1.6,4.9-10c.2-.5.7-.8,1.3-.8h0c.5,0,1,.3,1.3.8l4.9,10,11,1.6c.5,0,1,.4,1.1,1,.2.5,0,1.1-.4,1.5l-8,7.8,1.9,10.9c0,.5-.1,1.1-.6,1.4-.4.3-1,.4-1.5.1l-9.8-5.2-9.8,5.2c-.2.1-.4.2-.6.2ZM639,339.9l6.4,6.3c.3.3.5.8.4,1.2l-1.5,8.9,8-4.2c.4-.2.9-.2,1.3,0l8,4.2-1.5-8.9c0-.5,0-.9.4-1.3l6.4-6.3-8.9-1.3c-.5,0-.9-.4-1.1-.8l-4-8.1-4,8.1c-.2.4-.6.7-1.1.8l-8.9,1.3Z"/>
            </g>
            <g>
              <polygon class="cls-35" points="612.4 326.6 617.7 337.2 629.4 338.9 620.9 347.2 622.9 358.9 612.4 353.4 601.9 358.9 603.9 347.2 595.4 338.9 607.2 337.2 612.4 326.6"/>
              <path class="cls-24" d="M601.9,360.3c-.3,0-.6,0-.8-.3-.4-.3-.7-.9-.6-1.4l1.9-11-8-7.8c-.4-.4-.5-.9-.4-1.5.2-.5.6-.9,1.1-1l11-1.6,4.9-10c.5-1,2.1-1,2.5,0l4.9,10,11,1.6c.5,0,1,.5,1.1,1,.2.5,0,1.1-.4,1.5l-8,7.8,1.9,10.9c0,.5-.1,1.1-.6,1.4-.4.3-1,.4-1.5.1l-9.8-5.2-9.8,5.2c-.2.1-.4.2-.7.2ZM598.5,339.9l6.4,6.3c.3.3.5.8.4,1.2l-1.5,8.9,8-4.2c.4-.2.9-.2,1.3,0l8,4.2-1.5-8.9c0-.5,0-.9.4-1.3l6.4-6.3-8.9-1.3c-.5,0-.9-.4-1.1-.8l-4-8.1-4,8.1c-.2.4-.6.7-1.1.8l-8.9,1.3Z"/>
            </g>
            <g>
              <polygon class="cls-35" points="693.5 326.6 698.8 337.2 710.5 338.9 702 347.2 704 358.9 693.5 353.4 683 358.9 685 347.2 676.5 338.9 688.3 337.2 693.5 326.6"/>
              <path class="cls-24" d="M683,360.3c-.3,0-.6,0-.8-.3-.4-.3-.7-.9-.6-1.4l1.9-10.9-8-7.8c-.4-.4-.5-.9-.4-1.5.2-.5.6-.9,1.1-1l11-1.6,4.9-10c.5-1,2.1-1,2.5,0l4.9,10,11,1.6c.5,0,1,.5,1.1,1,.2.5,0,1.1-.4,1.5l-8,7.8,1.9,10.9c0,.5-.1,1.1-.6,1.4-.4.3-1,.4-1.5.1l-9.9-5.2-9.8,5.2c-.2.1-.4.2-.6.2ZM693.5,352c.2,0,.5,0,.7.2l8,4.2-1.5-8.9c0-.5,0-.9.4-1.3l6.4-6.3-8.9-1.3c-.5,0-.9-.4-1.1-.8l-4-8.1-4,8.1c-.2.4-.6.7-1.1.8l-8.9,1.3,6.4,6.3c.3.3.5.8.4,1.3l-1.5,8.9,8-4.2c.2-.1.4-.2.7-.2Z"/>
            </g>
          </g>
          <g class="cls-18">
            <path class="cls-12" d="M567.7,239h35.7c1.4,0,2.4.2,3,.5.6.3,1.1.8,1.3,1.5s.3,1.6.3,2.7-.1,2-.3,2.7c-.2.7-.6,1.1-1.1,1.4-.8.4-1.9.6-3.3.6h-12.3v32.3c0,1,0,1.7,0,2.2,0,.5-.3,1-.6,1.6s-.9,1.1-1.7,1.3-1.9.4-3.2.4-2.4-.1-3.2-.4c-.8-.3-1.3-.7-1.7-1.3-.3-.6-.5-1.2-.6-1.7,0-.5-.1-1.2-.1-2.2v-32.2h-12.3c-1.4,0-2.4-.2-3-.5-.6-.3-1.1-.8-1.3-1.5-.2-.7-.3-1.6-.3-2.7s.1-2,.3-2.7c.2-.7.6-1.1,1.1-1.4.8-.4,1.9-.6,3.3-.6Z"/>
            <path class="cls-12" d="M626.1,274.7h19.8c1,0,1.7,0,2.2,0,.5,0,1.1.3,1.7.6,1.2.6,1.7,2.3,1.7,5s-.8,4.7-2.4,5.3c-.7.3-1.8.4-3.3.4h-25.4c-3,0-4.7-.8-5.3-2.4-.3-.7-.4-1.8-.4-3.3v-35.7c0-2.2.4-3.7,1.2-4.5.8-.8,2.4-1.2,4.6-1.2h25.3c1,0,1.7,0,2.2.1s1.1.3,1.7.6c1.2.6,1.7,2.3,1.7,5s-.8,4.7-2.4,5.3c-.7.3-1.8.4-3.3.4h-19.7v6.5h12.7c1,0,1.7,0,2.2.1.5,0,1.1.3,1.7.6,1.2.6,1.7,2.3,1.7,5s-.8,4.8-2.4,5.3c-.7.3-1.8.4-3.3.4h-12.6v6.5h0Z"/>
            <path class="cls-12" d="M659.6,279.5c-1.1-1.4-1.7-2.6-1.7-3.7s.9-2.5,2.8-4.3c1.1-1,2.2-1.5,3.4-1.5s2.9,1.1,5,3.2c.6.7,1.5,1.4,2.6,2.1,1.1.7,2.1,1,3.1,1,4,0,6-1.6,6-4.9s-.5-1.8-1.6-2.5c-1.1-.7-2.5-1.1-4.1-1.4-1.6-.3-3.4-.8-5.3-1.4-1.9-.7-3.6-1.4-5.3-2.4-1.6-.9-3-2.3-4.1-4.3-1.1-1.9-1.6-4.3-1.6-7s1.4-7,4.2-9.9c2.8-2.8,6.6-4.2,11.5-4.2s4.9.3,7,1c2.1.7,3.6,1.3,4.4,2l1.6,1.2c1.3,1.2,2,2.3,2,3.1s-.5,2-1.5,3.5c-1.5,2.1-3,3.2-4.5,3.2s-2-.4-3.3-1.3c-.1,0-.4-.3-.7-.6-.4-.3-.7-.6-1-.8-.9-.6-2-.8-3.4-.8s-2.5.3-3.5,1c-.9.7-1.4,1.6-1.4,2.8s.5,2.1,1.6,2.9c1.1.7,2.5,1.2,4.1,1.5,1.6.3,3.4.6,5.3,1.2,1.9.5,3.7,1.2,5.3,2,1.6.8,3,2.1,4.1,4,1.1,1.9,1.6,4.2,1.6,7s-.6,5.2-1.7,7.3c-1.1,2.1-2.6,3.8-4.4,4.9-3.5,2.3-7.2,3.4-11.1,3.4s-3.9-.2-5.7-.7-3.3-1.1-4.4-1.8c-2.3-1.4-3.9-2.7-4.7-4l-.6-.7Z"/>
            <path class="cls-12" d="M699.4,239h35.7c1.4,0,2.4.2,3,.5.6.3,1.1.8,1.3,1.5.2.7.3,1.6.3,2.7s-.1,2-.3,2.7c-.2.7-.6,1.1-1.1,1.4-.8.4-1.9.6-3.3.6h-12.3v32.3c0,1,0,1.7-.1,2.2s-.3,1-.6,1.6c-.3.6-.9,1.1-1.7,1.3-.8.3-1.9.4-3.2.4s-2.4-.1-3.2-.4-1.3-.7-1.7-1.3c-.3-.6-.5-1.2-.6-1.7,0-.5-.1-1.2-.1-2.2v-32.2h-12.3c-1.4,0-2.4-.2-3-.5s-1.1-.8-1.3-1.5c-.2-.7-.3-1.6-.3-2.7s.1-2,.3-2.7c.2-.7.6-1.1,1.1-1.4.8-.4,1.9-.6,3.3-.6Z"/>
          </g>
          <g>
            <path class="cls-7" d="M699.6,210.9h-92.4c-11.2,0-20.3-8.2-20.3-18.2v-102.9c0-10,9.1-18.2,20.3-18.2h18.1c1.6,0,2.8,1.3,2.8,2.8s-1.3,2.8-2.8,2.8h-18.1c-8.1,0-14.6,5.6-14.6,12.5v102.9c0,6.9,6.6,12.5,14.6,12.5h92.4c8.1,0,14.6-5.6,14.6-12.5v-102.9c0-6.9-6.6-12.5-14.6-12.5h-18c-1.6,0-2.8-1.3-2.8-2.8s1.3-2.8,2.8-2.8h18c11.2,0,20.3,8.2,20.3,18.2v102.9c0,10-9.1,18.2-20.3,18.2Z"/>
            <path class="cls-8" d="M588.9,96"/>
            <path class="cls-7" d="M717.1,98.8h-127.3c-1.6,0-2.8-1.3-2.8-2.8s1.3-2.8,2.8-2.8h127.3c1.6,0,2.8,1.3,2.8,2.8s-1.3,2.8-2.8,2.8Z"/>
            <g>
              <g>
                <path class="cls-7" d="M700.8,119.4h-45.9c-1.6,0-2.8-1.3-2.8-2.8s1.3-2.8,2.8-2.8h45.9c1.6,0,2.8,1.3,2.8,2.8s-1.3,2.8-2.8,2.8Z"/>
                <path class="cls-7" d="M700.8,128.8h-45.9c-1.6,0-2.8-1.3-2.8-2.8s1.3-2.8,2.8-2.8h45.9c1.6,0,2.8,1.3,2.8,2.8s-1.3,2.8-2.8,2.8Z"/>
                <path class="cls-7" d="M700.8,138.1h-45.9c-1.6,0-2.8-1.3-2.8-2.8s1.3-2.8,2.8-2.8h45.9c1.6,0,2.8,1.3,2.8,2.8s-1.3,2.8-2.8,2.8Z"/>
                <path class="cls-7" d="M700.8,147.5h-45.9c-1.6,0-2.8-1.3-2.8-2.8s1.3-2.8,2.8-2.8h45.9c1.6,0,2.8,1.3,2.8,2.8s-1.3,2.8-2.8,2.8Z"/>
              </g>
              <g>
                <path class="cls-7" d="M700.8,165.2h-45.9c-1.6,0-2.8-1.3-2.8-2.8s1.3-2.8,2.8-2.8h45.9c1.6,0,2.8,1.3,2.8,2.8s-1.3,2.8-2.8,2.8Z"/>
                <path class="cls-7" d="M700.8,174.6h-45.9c-1.6,0-2.8-1.3-2.8-2.8s1.3-2.8,2.8-2.8h45.9c1.6,0,2.8,1.3,2.8,2.8s-1.3,2.8-2.8,2.8Z"/>
                <path class="cls-7" d="M700.8,183.9h-45.9c-1.6,0-2.8-1.3-2.8-2.8s1.3-2.8,2.8-2.8h45.9c1.6,0,2.8,1.3,2.8,2.8s-1.3,2.8-2.8,2.8Z"/>
                <path class="cls-7" d="M700.8,193.3h-45.9c-1.6,0-2.8-1.3-2.8-2.8s1.3-2.8,2.8-2.8h45.9c1.6,0,2.8,1.3,2.8,2.8s-1.3,2.8-2.8,2.8Z"/>
              </g>
              <path class="cls-7" d="M637.6,135.8c1.4.9,2.3,1.6,2.9,2,1.1.8,1.6,1.6,1.6,2.3s-.4,1.7-1.3,3c-.9,1.3-1.8,1.9-2.7,1.9s-1.4-.4-2.6-1.2c-.1,0-.6-.4-1.2-.8-.7-.5-1.2-.8-1.6-1.1-2.7,2.1-5.8,3.2-9.3,3.2s-8.4-1.6-11.6-4.9c-3.1-3.3-4.7-7.1-4.7-11.6s.4-4.7,1.3-6.9c.9-2.1,2.1-3.9,3.5-5.4s3.2-2.6,5.1-3.4c1.9-.8,3.9-1.2,5.9-1.2,4.4,0,8.2,1.6,11.4,4.7,3.2,3.2,4.8,7.2,4.8,12,0,2.4-.5,4.9-1.6,7.3ZM614.9,128.4c0,2.6.8,4.8,2.5,6.4s3.6,2.5,5.7,2.5,4-.8,5.7-2.4c1.7-1.6,2.5-3.7,2.5-6.4s-.9-4.8-2.6-6.5c-1.7-1.6-3.6-2.4-5.7-2.4s-4,.8-5.7,2.5c-1.7,1.6-2.5,3.8-2.5,6.4Z"/>
              <path class="cls-7" d="M627.9,160.2l12,24.7c.5,1,.8,1.8.8,2.3,0,1.1-.9,2-2.6,2.9-1,.5-1.8.8-2.4.8s-1-.1-1.4-.4c-.4-.3-.6-.5-.8-.8-.2-.3-.4-.7-.7-1.3l-2.3-4.8h-12.3l-2.3,4.8c-.3.6-.5,1-.7,1.3-.2.3-.4.5-.8.8-.4.3-.9.4-1.4.4s-1.4-.2-2.4-.8c-1.7-.8-2.6-1.8-2.6-2.8s.3-1.3.8-2.3l12-24.8c.3-.7.8-1.2,1.5-1.6s1.4-.6,2.1-.6c1.6,0,2.8.8,3.5,2.3ZM624.3,170.8l-2.9,6.1h5.9l-3-6.1Z"/>
            </g>
            <path class="cls-7" d="M634.1,83.7c-1.1,0-5.5-.2-8.7-3.3-2-1.9-3.1-4.7-3.1-7.9h0s-1.3-8.9,6.4-12.5c.8-.3,5-1.6,9-.5,2-4,6.7-10.7,15.6-10.7,5.1.1,14.2,2.5,16.2,10.2,2.8-.4,6.7-.5,9.9,1.8,3.3,2.3,5,6.2,5,11.6-.7,4.5-3.6,11.2-9.9,11.2h-12.2c-1.6,0-2.8-1.3-2.8-2.8s1.3-2.8,2.8-2.8h12.2c3.1,0,4.3-5.9,4.3-6,0-3-1-5.3-2.6-6.5-2.5-1.7-6.8-.8-8.1-.3-.9.3-1.8.2-2.6-.3-.8-.5-1.2-1.4-1.2-2.3,0-7.7-10.7-8.1-11.1-8.1-8.3,0-11.3,9.5-11.4,9.6-.3.9-.9,1.6-1.8,1.9-.9.3-1.8.1-2.6-.4-2.3-1.7-6.6-.4-6.6-.3-3.6,1.7-2.9,6.8-2.9,6.8,0,2.1.5,3.3,1.4,4.2,1.8,1.7,4.9,1.7,4.9,1.7h17.3c1.6,0,2.8,1.3,2.8,2.8s-1.3,2.8-2.8,2.8h-17.2s-.1,0-.2,0Z"/>
          </g>
          <path class="cls-6" d="M653,417.2c-1.6,0-3.2-.3-4.7-1l-133.9-60.6c-4-1.8-6.6-5.9-6.6-10.3v-210.1c0-.5,0-1,.1-1.5C510.1,61.4,574.9,2.8,653,2.8s142.8,58.5,145.1,130.8c0,.5.1,1.1.1,1.6v210.1c0,4.4-2.6,8.5-6.7,10.3l-133.9,60.6c-1.5.7-3.1,1-4.7,1ZM530.4,338l122.6,55.5,122.6-55.5v-201.5c0-.4,0-.7,0-1.1-1.2-60.6-56.2-110-122.5-110s-121.3,49.3-122.5,110c0,.3,0,.7,0,1,0,0,0,201.6,0,201.6Z"/>
          <g class="cls-18">
            <path class="cls-11" d="M567.7,239h35.7c1.4,0,2.4.2,3,.5.6.3,1.1.8,1.3,1.5s.3,1.6.3,2.7-.1,2-.3,2.7c-.2.7-.6,1.1-1.1,1.4-.8.4-1.9.6-3.3.6h-12.3v32.3c0,1,0,1.7,0,2.2,0,.5-.3,1-.6,1.6s-.9,1.1-1.7,1.3-1.9.4-3.2.4-2.4-.1-3.2-.4c-.8-.3-1.3-.7-1.7-1.3-.3-.6-.5-1.2-.6-1.7,0-.5-.1-1.2-.1-2.2v-32.2h-12.3c-1.4,0-2.4-.2-3-.5-.6-.3-1.1-.8-1.3-1.5-.2-.7-.3-1.6-.3-2.7s.1-2,.3-2.7c.2-.7.6-1.1,1.1-1.4.8-.4,1.9-.6,3.3-.6Z"/>
            <path class="cls-11" d="M626.1,274.7h19.8c1,0,1.7,0,2.2,0,.5,0,1.1.3,1.7.6,1.2.6,1.7,2.3,1.7,5s-.8,4.7-2.4,5.3c-.7.3-1.8.4-3.3.4h-25.4c-3,0-4.7-.8-5.3-2.4-.3-.7-.4-1.8-.4-3.3v-35.7c0-2.2.4-3.7,1.2-4.5.8-.8,2.4-1.2,4.6-1.2h25.3c1,0,1.7,0,2.2.1s1.1.3,1.7.6c1.2.6,1.7,2.3,1.7,5s-.8,4.7-2.4,5.3c-.7.3-1.8.4-3.3.4h-19.7v6.5h12.7c1,0,1.7,0,2.2.1.5,0,1.1.3,1.7.6,1.2.6,1.7,2.3,1.7,5s-.8,4.8-2.4,5.3c-.7.3-1.8.4-3.3.4h-12.6v6.5h0Z"/>
            <path class="cls-11" d="M659.6,279.5c-1.1-1.4-1.7-2.6-1.7-3.7s.9-2.5,2.8-4.3c1.1-1,2.2-1.5,3.4-1.5s2.9,1.1,5,3.2c.6.7,1.5,1.4,2.6,2.1,1.1.7,2.1,1,3.1,1,4,0,6-1.6,6-4.9s-.5-1.8-1.6-2.5c-1.1-.7-2.5-1.1-4.1-1.4-1.6-.3-3.4-.8-5.3-1.4-1.9-.7-3.6-1.4-5.3-2.4-1.6-.9-3-2.3-4.1-4.3-1.1-1.9-1.6-4.3-1.6-7s1.4-7,4.2-9.9c2.8-2.8,6.6-4.2,11.5-4.2s4.9.3,7,1c2.1.7,3.6,1.3,4.4,2l1.6,1.2c1.3,1.2,2,2.3,2,3.1s-.5,2-1.5,3.5c-1.5,2.1-3,3.2-4.5,3.2s-2-.4-3.3-1.3c-.1,0-.4-.3-.7-.6-.4-.3-.7-.6-1-.8-.9-.6-2-.8-3.4-.8s-2.5.3-3.5,1c-.9.7-1.4,1.6-1.4,2.8s.5,2.1,1.6,2.9c1.1.7,2.5,1.2,4.1,1.5,1.6.3,3.4.6,5.3,1.2,1.9.5,3.7,1.2,5.3,2,1.6.8,3,2.1,4.1,4,1.1,1.9,1.6,4.2,1.6,7s-.6,5.2-1.7,7.3c-1.1,2.1-2.6,3.8-4.4,4.9-3.5,2.3-7.2,3.4-11.1,3.4s-3.9-.2-5.7-.7-3.3-1.1-4.4-1.8c-2.3-1.4-3.9-2.7-4.7-4l-.6-.7Z"/>
            <path class="cls-11" d="M699.4,239h35.7c1.4,0,2.4.2,3,.5.6.3,1.1.8,1.3,1.5.2.7.3,1.6.3,2.7s-.1,2-.3,2.7c-.2.7-.6,1.1-1.1,1.4-.8.4-1.9.6-3.3.6h-12.3v32.3c0,1,0,1.7-.1,2.2s-.3,1-.6,1.6c-.3.6-.9,1.1-1.7,1.3-.8.3-1.9.4-3.2.4s-2.4-.1-3.2-.4-1.3-.7-1.7-1.3c-.3-.6-.5-1.2-.6-1.7,0-.5-.1-1.2-.1-2.2v-32.2h-12.3c-1.4,0-2.4-.2-3-.5s-1.1-.8-1.3-1.5c-.2-.7-.3-1.6-.3-2.7s.1-2,.3-2.7c.2-.7.6-1.1,1.1-1.4.8-.4,1.9-.6,3.3-.6Z"/>
          </g>
        </g>
      </g>
    </g>
  </g>
</svg>