<?xml version="1.0" encoding="utf-8"?>
<!-- Generator: Adobe Illustrator 26.2.1, SVG Export Plug-In . SVG Version: 6.00 Build 0)  -->
<svg version="1.1" id="圖層_1" xmlns="http://www.w3.org/2000/svg" xmlns:xlink="http://www.w3.org/1999/xlink" x="0px" y="0px"
	 viewBox="0 0 552 150" style="enable-background:new 0 0 552 150;" xml:space="preserve">
<style type="text/css">
	.st0{fill:#FFFFFF;}
	.st1{fill:#0D9A3B;}
	.st2{fill:#00825F;}
	.st3{fill:#129B3B;}
	.st4{fill:#B2CF57;}
	.st5{fill:#DFC44A;}
	.st6{opacity:0.25;fill:#DFC44A;}
</style>
<g>
	<g>
		<g>
			<polygon class="st0" points="0.3,30.9 11.1,28.9 65.2,8.4 77.3,8.8 77.6,15.5 89.4,17.7 89.7,23 101.7,26.6 11.1,45.6 			"/>
			<path class="st1" d="M101.7,139.7c0,5.7-4.6,10.3-10.3,10.3H10.3C4.6,150,0,145.4,0,139.7V45.1c0-5.7,4.6-1.7,10.3-1.7h81.2
				c5.7,0,10.3-4,10.3,1.7V139.7z"/>
			<path class="st1" d="M0.3,30.9l8,8.6c0,0,44.5-11.8,93.4-12.9l0,0v25.3H0L0.3,30.9z"/>
			<path class="st2" d="M11.1,28.9L65.2,8.4L64.8,0C64.8,0,31.5,19.6,11.1,28.9z"/>
			<path class="st3" d="M17.6,30.6c0,0,55.3-14.5,60-15.1l-0.3-6.7C77.3,8.8,27.2,27.2,17.6,30.6z"/>
			<path class="st4" d="M22.1,33.4c0,0,58.2-11,67.6-10.4l-0.2-5.4C89.4,17.7,28.3,30.8,22.1,33.4z"/>
			<g>
				<path class="st5" d="M11.1,62.7c-0.4-1.8,1.1-3.4,1.2-3.9c0.2-1.6,1.3-2.9,2.6-3.9c2.3-1.8,4.5-3.6,6.8-5.5
					c1.5-1.3,2.9-3.1,4.8-3.4c0.4-0.1,1,0,1.4-0.2c0.8-0.3,1.4-1.3,2-1.8c0.9-0.7,1.5-0.7,2.5-0.9c1.7-0.3,3.6-0.8,5.2-1.4
					c1.8-0.6,3.5-1.1,5.4-1.6c2-0.5,4-0.3,6.1-0.4c2.7,0,5.3-0.4,8-0.4c1.3,0,2.6,0.1,3.8,0.3c2.2,0.4,4.1,1.8,6.3,2.3
					c1.3,0.2,2.5,0.4,3.8,0.7c0.7,0.2,1.6,0.2,2.2,0.6c0.8,0.5,1.5,1.1,2.4,1.7c2,1.4,3.5,3.4,5.4,5c1.2,1,2.9,1.7,4.1,2.6
					c0.8,0.6,1.4,1.3,2.4,1.8c1,0.5,2.3,0.7,3.1,1.5c0.8,0.8,1.4,2.1,2,3c0.4,0.7,0.9,1.2,1.2,1.9c0.4,0.7,0.5,1.3,0.9,2
					c0.5,1.2,1,1.7,0.4,2.6c-0.6,0.8-0.2,0.9,0.4,2c0.5,0.8,0.4,1.4,0.7,2.3c0.4,1.3,1.4,2.5,1.7,3.8c0.4,1.3,0.5,2.8,0.7,4.1
					c0.4,2.1,1.1,4.2,1.2,6.3c0,0.4,0.1,1.2,0,1.6c-0.2,0.6-0.9,0.9-1.2,1.5c-0.5,1.2-1.1,2.9-2.1,3.7c-0.6,0.4-0.8,0.1-1.6,0.1
					c-0.7,0-1.2,0.3-1.3,1c-0.3,1.2,0.1,2.8,0,4.1c-0.1,1.7-1.2,3.4-2.5,4.4c-0.7,0.5-1.6,0.5-2.2,1.1c-0.7,0.7-1.2,1.6-2.1,2.1
					c-1,0.6-2.3,1.1-3.5,1.6c-0.8,0.3-1.6,0.8-2.6,0.9c-0.7,0-1.5-0.2-2.2-0.2c-2.2,0.1-3.7,1-6.1,0.4c-0.7-0.2-1.5-0.6-2.1-1
					c-1.2-1-0.9-1.9-1.2-3.2c-0.4-1.7-1.4-3.7-2.4-5c-1.6-2.3,0.4-4.2,0.5-6.4c0.2-2.6-2.2-4-3.5-6c-0.5-0.7-1.1-2-1.1-2.9
					c0-0.7,0.8-1,0.7-1.7c-0.1-1.6-2.4-1-3.3-1.5c-0.5-0.3-0.9-1.1-1.3-1.6c-0.6-0.7-1.3-1.3-1.9-1.8c-0.8-0.6-1.7-0.9-2.7-1.3
					c-0.6-0.3-1.2-0.5-1.9-0.4c-0.9,0.2-2,1.4-2.9,2c-1.1,0.7-2.1,1.6-3.1,2.4c-0.7,0.5-1.3,1.2-1.7,2c-0.4,0.6-0.5,1.5-1.1,2
					c-2,1.6-1.2-1.5-1.5-2.3c-0.2-0.6-0.9-0.3-1.5-0.8c-0.6-0.5-0.6-1.6-1.2-2.1c-0.1-0.1-0.1-0.2-0.2-0.3c-0.8,0.2-1.4,1.7-1.9,2.4
					c-0.4,0.6-1,1.4-1.6,1.9c-0.6,0.4-1.3,0.6-1.9,1c-0.8,0.5-0.9,0.9-1.4,1.7c-0.8,1.3-1.7,0.5-2.8,1.2c-0.5,0.3-0.6,0.8-1.3,1.1
					c-0.7,0.3-1.5-0.2-2.2-0.3c-1.4-0.4-2.8-0.2-4.3,0.1c-2,0.4-3.3,0.4-5.2-0.1c-1.4-0.4-2.8-0.3-4.3-0.4c-2.3-0.1-3-2.5-3-4.6
					c0-1.3,0-2.5-0.1-3.7c-0.1-1-0.4-2-0.4-3c0,0-0.7-1.7,1.6-3.8c2.4-2.1,0.6-0.3-0.2-1.5C9.7,67.4,11.5,64.7,11.1,62.7z"/>
				<path class="st1" d="M52.5,39.1L49,39.2l-1.3,0c-1.6,0-3.2,0-4.9,0.4c-1.9,0.5-3.7,1-5.5,1.6c-1.5,0.5-3.4,1-5.1,1.4l-0.2,0
					c-0.9,0.2-1.6,0.3-2.5,1l-0.9,0.8c-0.3,0.4-0.7,0.8-1,0.9c0,0-0.8,0.1-0.8,0.1l-0.5,0c-1.6,0.2-2.8,1.4-4,2.5l-1.1,1l-6.7,5.5
					c-1.7,1.3-2.7,2.8-2.8,4.3c0-0.1-0.2,0.4-0.2,0.4c-0.4,0.7-1,1.7-1,2.9c0,0.2,0,0.5,0.1,0.8v0c0,0.2,0.1,0.4,0.1,0.6
					c0,0.9-0.3,1.8-0.6,2.6c-0.2,0.7-0.4,1.2-0.4,1.7c0,0.2,0.1,0.4,0.2,0.6c0.1,0.2,0.3,0.3,0.5,0.5c-0.1,0.1-0.2,0.2-0.2,0.2
					c-1.6,1.4-2,2.7-2,3.6C7.9,73,8,73.2,8,73.4c0,0.1,0.2,1.7,0.2,1.7l0.2,1.3c0,0,0.1,3.7,0.1,3.7c0,3.1,1.4,5.1,3.6,5.3l1.2,0.1
					c1,0,2,0.1,3,0.3c1.9,0.5,3.2,0.5,5.5,0.1c1.6-0.3,2.8-0.4,4-0.1l0.5,0.1c0.6,0.2,1.3,0.4,2.1,0.2c0.5-0.2,0.8-0.5,1-0.8
					l0.4-0.4c0.3-0.2,0.6-0.2,1-0.3c0.6,0,1.4-0.1,2-1.1l0.3-0.4c0.3-0.5,0.4-0.7,0.9-1l0.8-0.4L36,81c0.7-0.5,1.3-1.4,1.8-2
					l0.4-0.7c0.2-0.3,0.5-0.9,0.8-1.2c0.1,0.2,0.3,0.4,0.4,0.7c0.2,0.4,0.4,1,0.8,1.3c0.4,0.3,0.8,0.4,1.1,0.5l0.2,0.1
					c0,0.1,0,0.4,0,0.6c0,0.1,0,0.4,0,0.5c0,0.8,0.1,1.7,0.7,2c0.6,0.3,1.3-0.1,1.7-0.5c0.5-0.4,0.8-1,1-1.6l0.3-0.7
					c0.4-0.6,0.9-1.3,1.6-1.8c0,0,3.1-2.4,3.1-2.4l0.9-0.7c0.6-0.5,1.3-1.1,1.7-1.2c0.5-0.1,0.9,0.1,1.4,0.3l0.8,0.4
					c0.6,0.3,1.2,0.5,1.7,0.9c0.7,0.5,1.3,1.1,1.8,1.7l0.3,0.5c0.3,0.5,0.6,1,1.2,1.2c0.4,0.2,0.9,0.2,1.4,0.3
					c1.2,0.1,1.5,0.2,1.6,0.7c0,0,0,0,0,0c0,0.1-0.1,0.2-0.2,0.4c-0.2,0.3-0.5,0.7-0.5,1.2c0,0,0,0,0,0c0,1.1,0.8,2.5,1.2,3.2
					l1.5,1.8c1,1.2,1.9,2.2,1.9,3.6c0,0.1,0,0.2,0,0.2c0,0.7-0.3,1.3-0.6,2c-0.3,0.8-0.6,1.7-0.6,2.6c0,0.7,0.2,1.5,0.8,2.2
					c0.8,1.1,1.9,3.1,2.3,4.8l0.1,0.9c0.1,0.9,0.2,1.7,1.3,2.6c0.6,0.5,1.6,1,2.4,1.1c1.6,0.4,2.8,0.1,4.1-0.1
					c0.7-0.1,1.4-0.3,2.2-0.3l0.9,0.1l1.3,0.1c0.8-0.1,1.5-0.4,2.1-0.7l0.6-0.3c0,0,0.1-0.1,0.1-0.1c1.2-0.5,2.4-1,3.4-1.6
					c0.6-0.4,1-0.9,1.5-1.4l0.7-0.8c0.2-0.2,0.6-0.3,0.9-0.5l1.2-0.6c1.5-1.1,2.6-3,2.7-4.9l0-1.8c-0.1-0.8-0.1-1.6,0-2.2
					c0.1-0.4,0.2-0.5,0.7-0.5l0.6,0.1c0.4,0.1,0.8,0.2,1.4-0.3c0.9-0.7,1.5-2,1.9-3.1l0.4-0.8l0.4-0.5c0.3-0.3,0.6-0.6,0.7-1
					c0.1-0.2,0.1-0.5,0.1-0.8c0-0.2,0-0.5,0-0.7l0-0.3c-0.1-1.3-0.4-2.7-0.7-4l-0.5-2.3L99,76.2c-0.1-0.9-0.2-1.9-0.5-2.8
					c-0.2-0.7-0.6-1.4-0.9-2l-0.8-1.8l-0.2-0.8c-0.1-0.5-0.2-1-0.6-1.6l-0.4-0.6c0,0-0.3-0.4-0.3-0.4c0,0,0.2-0.3,0.2-0.3
					c0.3-0.5,0.4-0.9,0.4-1.2c0-0.5-0.2-1-0.5-1.5l-0.3-0.5l-0.3-0.8l-0.5-1.3l-0.8-1.3l-0.5-0.7l-0.6-1C92,57,91.6,56.2,91,55.6
					c-0.6-0.6-1.5-0.9-2.2-1.2l-1-0.4c-0.6-0.3-1.1-0.7-1.6-1.2l-0.6-0.5c-0.6-0.5-1.3-0.9-2.1-1.3c-0.7-0.4-1.5-0.8-2-1.3
					c-0.8-0.7-1.5-1.4-2.2-2.2c-1-1-2-2.1-3.2-2.9c0,0-1.1-0.8-1.1-0.8l-1.3-0.9c-0.6-0.4-1.3-0.5-1.9-0.6l-0.5-0.1l-2.3-0.4
					l-1.5-0.3c-1.1-0.2-2-0.6-3.1-1.1c-1-0.5-2.1-0.9-3.2-1.2c-1.3-0.3-2.7-0.3-3.9-0.3C55.6,38.9,54,39,52.5,39.1z M49.1,40.5
					l3.5-0.2c1.5-0.1,3-0.2,4.5-0.2c1.2,0,2.5,0.1,3.7,0.3c1,0.2,1.9,0.6,2.9,1.1c1.1,0.5,2.1,1,3.4,1.2l1.6,0.3l2.2,0.4
					c0,0,0.6,0.1,0.6,0.1c0.5,0.1,1,0.2,1.4,0.4l1.2,0.9l1.2,0.8c1.1,0.7,2,1.7,3,2.7c0.7,0.8,1.5,1.6,2.3,2.3
					c0.7,0.6,1.5,1,2.2,1.4c0.7,0.4,1.4,0.8,1.9,1.2c0,0,0.6,0.5,0.6,0.5c0.6,0.5,1.1,1,1.9,1.4c0,0,1.2,0.5,1.2,0.5
					c0.7,0.2,1.3,0.5,1.7,0.9c0.5,0.5,0.9,1.2,1.3,1.9l0.6,1l0.5,0.7l0.7,1.1l0.5,1.1l0.4,0.9l0.3,0.6c0.4,0.8,0.4,0.9,0.1,1.4
					c-0.7,1-0.4,1.4,0.1,2.2l0.4,0.5c0.3,0.4,0.3,0.8,0.4,1.2l0.2,1c0,0,0.9,2,0.9,2c0.3,0.6,0.6,1.2,0.8,1.8
					c0.2,0.8,0.4,1.7,0.5,2.6l0.2,1.4l0.5,2.4c0.3,1.3,0.6,2.6,0.7,3.8l0,0.4c0,0.3,0.1,0.8,0,0.9c-0.1,0.2-0.2,0.4-0.4,0.5L98,86.7
					l-0.4,0.9c-0.4,1-0.9,2.1-1.5,2.6c0,0-0.1,0.1-0.1,0.1l-0.2,0l-0.9-0.1c-1.1,0-1.7,0.5-2,1.5c-0.2,0.8-0.1,1.7-0.1,2.6l0,1.7
					c-0.1,1.5-1,3-2.2,3.9l-0.9,0.4c-0.4,0.2-0.9,0.3-1.4,0.7c0,0-0.9,0.9-0.9,0.9c-0.4,0.4-0.7,0.8-1.1,1.1c-1,0.6-2.1,1.1-3.3,1.5
					l-0.1,0.1c0,0-0.7,0.3-0.7,0.3c-0.6,0.3-1.1,0.5-1.7,0.6l-1-0.1l-1.1-0.1c-0.9,0-1.6,0.2-2.4,0.3c-1.1,0.2-2.2,0.4-3.5,0.1
					c-0.6-0.1-1.4-0.5-1.8-0.9c-0.7-0.6-0.7-1-0.8-1.8l-0.2-1.1c-0.4-1.9-1.6-4-2.5-5.3c-0.9-1.2-0.5-2.3,0-3.6
					c0.3-0.8,0.6-1.5,0.6-2.4c0.1-2.1-1.1-3.4-2.3-4.8l-1.4-1.7c-0.5-0.7-1-1.9-1-2.5c0-0.1,0.1-0.2,0.2-0.5
					c0.2-0.3,0.5-0.7,0.5-1.3c-0.1-1.6-1.8-1.8-2.7-1.9c-0.4,0-0.8-0.1-1-0.2c-0.2-0.1-0.4-0.5-0.6-0.8l-0.5-0.6
					c-0.6-0.7-1.3-1.4-2-1.9c-0.6-0.5-1.3-0.8-2-1l-0.8-0.4c-0.7-0.3-1.4-0.6-2.3-0.4c-0.8,0.2-1.6,0.9-2.3,1.5L49,74.8l-3.1,2.4
					c-0.8,0.6-1.5,1.4-1.9,2.2l-0.4,0.8c-0.2,0.4-0.3,0.8-0.5,1c-0.1,0.1-0.2,0.2-0.3,0.2c0-0.2,0-0.5,0-0.7c0-0.1,0-0.4,0-0.5
					c0-0.4,0-0.8-0.1-1c-0.3-0.7-0.8-0.8-1.2-0.9c-0.2,0-0.4-0.1-0.5-0.2c-0.2-0.2-0.3-0.5-0.4-0.8c-0.2-0.4-0.4-0.9-0.8-1.3
					c0,0,0.1,0.1,0.1,0.2l-0.2-0.3c-0.1-0.2-0.4-0.4-0.7-0.3c-0.9,0.2-1.5,1.2-1.9,2.1l-0.3,0.6c-0.4,0.6-0.9,1.3-1.5,1.7l-1,0.5
					l-0.9,0.5c-0.8,0.4-1,0.9-1.3,1.5l-0.2,0.4c-0.3,0.5-0.5,0.5-1,0.5c-0.4,0-1,0.1-1.6,0.5l-0.7,0.6c-0.2,0.2-0.3,0.3-0.5,0.4
					c-0.4,0.1-0.8,0-1.3-0.2l-0.5-0.2c-1.6-0.4-3.1-0.2-4.6,0.1c-2,0.4-3.2,0.4-4.9-0.1c-1.1-0.3-2.1-0.3-3.3-0.4l-1.1-0.1
					c-2.3-0.1-2.4-3.3-2.4-4l-0.1-3.8l-0.2-1.4l-0.2-1.6c0,0,0-0.2,0-0.2c0-0.1-0.5-1.3,1.5-3l0.7-0.6c0.5-0.5,0.8-0.7,0.6-1.2
					c-0.1-0.2-0.3-0.4-0.8-0.4c-0.3,0-0.5,0-0.6-0.2c0-0.1,0.2-0.7,0.4-1.2c0.4-1.2,0.9-2.6,0.6-3.9v0c-0.2-1,0.4-2.1,0.8-2.8
					l0.4-0.9c0.1-1.4,1.4-2.7,2.3-3.4L22,50c0,0,1.2-1.1,1.2-1.1c1-1,2.1-2,3.3-2.2l0.4,0l1.2-0.2c0.6-0.2,1.1-0.8,1.5-1.2l0.7-0.7
					c0.7-0.5,1.1-0.6,2-0.7l0.3,0c1.9-0.4,3.7-0.9,5.3-1.4c1.8-0.6,3.5-1.1,5.4-1.6c1.5-0.4,3-0.4,4.5-0.3L49.1,40.5z"/>
				<path class="st6" d="M11.1,62.7c-0.4-1.8,1.1-3.4,1.2-3.9c0.2-1.6,1.3-2.9,2.6-3.9c2.3-1.8,4.5-3.6,6.8-5.5
					c1.5-1.3,2.9-3.1,4.8-3.4c0.4-0.1,1,0,1.4-0.2c0.8-0.3,1.4-1.3,2-1.8c0.9-0.7,1.5-0.7,2.5-0.9c1.7-0.3,3.6-0.8,5.2-1.4
					c1.8-0.6,3.5-1.1,5.4-1.6c2-0.5,4-0.3,6.1-0.4c2.7,0,5.3-0.4,8-0.4c1.3,0,2.6,0.1,3.8,0.3c2.2,0.4,4.1,1.8,6.3,2.3
					c1.3,0.2,2.5,0.4,3.8,0.7c0.7,0.2,1.6,0.2,2.2,0.6c0.8,0.5,1.5,1.1,2.4,1.7c2,1.4,3.5,3.4,5.4,5c1.2,1,2.9,1.7,4.1,2.6
					c0.8,0.6,1.4,1.3,2.4,1.8c1,0.5,2.3,0.7,3.1,1.5c0.8,0.8,1.4,2.1,2,3c0.4,0.7,0.9,1.2,1.2,1.9c0.4,0.7,0.5,1.3,0.9,2
					c0.5,1.2,1,1.7,0.4,2.6c-0.6,0.8-0.2,0.9,0.4,2c0.5,0.8,0.4,1.4,0.7,2.3c0.4,1.3,1.4,2.5,1.7,3.8c0.4,1.3,0.5,2.8,0.7,4.1
					c0.4,2.1,1.1,4.2,1.2,6.3c0,0.4,0.1,1.2,0,1.6c-0.2,0.6-0.9,0.9-1.2,1.5c-0.5,1.2-1.1,2.9-2.1,3.7c-0.6,0.4-0.8,0.1-1.6,0.1
					c-0.7,0-1.2,0.3-1.3,1c-0.3,1.2,0.1,2.8,0,4.1c-0.1,1.7-1.2,3.4-2.5,4.4c-0.7,0.5-1.6,0.5-2.2,1.1c-0.7,0.7-1.2,1.6-2.1,2.1
					c-1,0.6-2.3,1.1-3.5,1.6c-0.8,0.3-1.6,0.8-2.6,0.9c-0.7,0-1.5-0.2-2.2-0.2c-2.2,0.1-3.7,1-6.1,0.4c-0.7-0.2-1.5-0.6-2.1-1
					c-1.2-1-0.9-1.9-1.2-3.2c-0.4-1.7-1.4-3.7-2.4-5c-1.6-2.3,0.4-4.2,0.5-6.4c0.2-2.6-2.2-4-3.5-6c-0.5-0.7-1.1-2-1.1-2.9
					c0-0.7,0.8-1,0.7-1.7c-0.1-1.6-2.4-1-3.3-1.5c-0.5-0.3-0.9-1.1-1.3-1.6c-0.6-0.7-1.3-1.3-1.9-1.8c-0.8-0.6-1.7-0.9-2.7-1.3
					c-0.6-0.3-1.2-0.5-1.9-0.4c-0.9,0.2-2,1.4-2.9,2c-1.1,0.7-2.1,1.6-3.1,2.4c-0.7,0.5-1.3,1.2-1.7,2c-0.4,0.6-0.5,1.5-1.1,2
					c-2,1.6-1.2-1.5-1.5-2.3c-0.2-0.6-0.9-0.3-1.5-0.8c-0.6-0.5-0.6-1.6-1.2-2.1c-0.1-0.1-0.1-0.2-0.2-0.3c-0.8,0.2-1.4,1.7-1.9,2.4
					c-0.4,0.6-1,1.4-1.6,1.9c-0.6,0.4-1.3,0.6-1.9,1c-0.8,0.5-0.9,0.9-1.4,1.7c-0.8,1.3-1.7,0.5-2.8,1.2c-0.5,0.3-0.6,0.8-1.3,1.1
					c-0.7,0.3-1.5-0.2-2.2-0.3c-1.4-0.4-2.8-0.2-4.3,0.1c-2,0.4-3.3,0.4-5.2-0.1c-1.4-0.4-2.8-0.3-4.3-0.4c-2.3-0.1-3-2.5-3-4.6
					c0-1.3,0-2.5-0.1-3.7c-0.1-1-0.4-2-0.4-3c0,0-0.7-1.7,1.6-3.8c2.4-2.1,0.6-0.3-0.2-1.5C9.7,67.4,11.5,64.7,11.1,62.7z"/>
				<path class="st1" d="M52.5,39.1L49,39.2l-1.3,0c-1.6,0-3.2,0-4.9,0.4c-1.9,0.5-3.7,1-5.5,1.6c-1.5,0.5-3.4,1-5.1,1.4l-0.2,0
					c-0.9,0.2-1.6,0.3-2.5,1l-0.9,0.8c-0.3,0.4-0.7,0.8-1,0.9c0,0-0.8,0.1-0.8,0.1l-0.5,0c-1.6,0.2-2.8,1.4-4,2.5l-1.1,1l-6.7,5.5
					c-1.7,1.3-2.7,2.8-2.8,4.3c0-0.1-0.2,0.4-0.2,0.4c-0.4,0.7-1,1.7-1,2.9c0,0.2,0,0.5,0.1,0.8v0c0,0.2,0.1,0.4,0.1,0.6
					c0,0.9-0.3,1.8-0.6,2.6c-0.2,0.7-0.4,1.2-0.4,1.7c0,0.2,0.1,0.4,0.2,0.6c0.1,0.2,0.3,0.3,0.5,0.5c-0.1,0.1-0.2,0.2-0.2,0.2
					c-1.6,1.4-2,2.7-2,3.6C7.9,73,8,73.2,8,73.4c0,0.1,0.2,1.7,0.2,1.7l0.2,1.3c0,0,0.1,3.7,0.1,3.7c0,3.1,1.4,5.1,3.6,5.3l1.2,0.1
					c1,0,2,0.1,3,0.3c1.9,0.5,3.2,0.5,5.5,0.1c1.6-0.3,2.8-0.4,4-0.1l0.5,0.1c0.6,0.2,1.3,0.4,2.1,0.2c0.5-0.2,0.8-0.5,1-0.8
					l0.4-0.4c0.3-0.2,0.6-0.2,1-0.3c0.6,0,1.4-0.1,2-1.1l0.3-0.4c0.3-0.5,0.4-0.7,0.9-1l0.8-0.4L36,81c0.7-0.5,1.3-1.4,1.8-2
					l0.4-0.7c0.2-0.3,0.5-0.9,0.8-1.2c0.1,0.2,0.3,0.4,0.4,0.7c0.2,0.4,0.4,1,0.8,1.3c0.4,0.3,0.8,0.4,1.1,0.5l0.2,0.1
					c0,0.1,0,0.4,0,0.6c0,0.1,0,0.4,0,0.5c0,0.8,0.1,1.7,0.7,2c0.6,0.3,1.3-0.1,1.7-0.5c0.5-0.4,0.8-1,1-1.6l0.3-0.7
					c0.4-0.6,0.9-1.3,1.6-1.8c0,0,3.1-2.4,3.1-2.4l0.9-0.7c0.6-0.5,1.3-1.1,1.7-1.2c0.5-0.1,0.9,0.1,1.4,0.3l0.8,0.4
					c0.6,0.3,1.2,0.5,1.7,0.9c0.7,0.5,1.3,1.1,1.8,1.7l0.3,0.5c0.3,0.5,0.6,1,1.2,1.2c0.4,0.2,0.9,0.2,1.4,0.3
					c1.2,0.1,1.5,0.2,1.6,0.7c0,0,0,0,0,0c0,0.1-0.1,0.2-0.2,0.4c-0.2,0.3-0.5,0.7-0.5,1.2c0,0,0,0,0,0c0,1.1,0.8,2.5,1.2,3.2
					l1.5,1.8c1,1.2,1.9,2.2,1.9,3.6c0,0.1,0,0.2,0,0.2c0,0.7-0.3,1.3-0.6,2c-0.3,0.8-0.6,1.7-0.6,2.6c0,0.7,0.2,1.5,0.8,2.2
					c0.8,1.1,1.9,3.1,2.3,4.8l0.1,0.9c0.1,0.9,0.2,1.7,1.3,2.6c0.6,0.5,1.6,1,2.4,1.1c1.6,0.4,2.8,0.1,4.1-0.1
					c0.7-0.1,1.4-0.3,2.2-0.3l0.9,0.1l1.3,0.1c0.8-0.1,1.5-0.4,2.1-0.7l0.6-0.3c0,0,0.1-0.1,0.1-0.1c1.2-0.5,2.4-1,3.4-1.6
					c0.6-0.4,1-0.9,1.5-1.4l0.7-0.8c0.2-0.2,0.6-0.3,0.9-0.5l1.2-0.6c1.5-1.1,2.6-3,2.7-4.9l0-1.8c-0.1-0.8-0.1-1.6,0-2.2
					c0.1-0.4,0.2-0.5,0.7-0.5l0.6,0.1c0.4,0.1,0.8,0.2,1.4-0.3c0.9-0.7,1.5-2,1.9-3.1l0.4-0.8l0.4-0.5c0.3-0.3,0.6-0.6,0.7-1
					c0.1-0.2,0.1-0.5,0.1-0.8c0-0.2,0-0.5,0-0.7l0-0.3c-0.1-1.3-0.4-2.7-0.7-4l-0.5-2.3L99,76.2c-0.1-0.9-0.2-1.9-0.5-2.8
					c-0.2-0.7-0.6-1.4-0.9-2l-0.8-1.8l-0.2-0.8c-0.1-0.5-0.2-1-0.6-1.6l-0.4-0.6c0,0-0.3-0.4-0.3-0.4c0,0,0.2-0.3,0.2-0.3
					c0.3-0.5,0.4-0.9,0.4-1.2c0-0.5-0.2-1-0.5-1.5l-0.3-0.5l-0.3-0.8l-0.5-1.3l-0.8-1.3l-0.5-0.7l-0.6-1C92,57,91.6,56.2,91,55.6
					c-0.6-0.6-1.5-0.9-2.2-1.2l-1-0.4c-0.6-0.3-1.1-0.7-1.6-1.2l-0.6-0.5c-0.6-0.5-1.3-0.9-2.1-1.3c-0.7-0.4-1.5-0.8-2-1.3
					c-0.8-0.7-1.5-1.4-2.2-2.2c-1-1-2-2.1-3.2-2.9c0,0-1.1-0.8-1.1-0.8l-1.3-0.9c-0.6-0.4-1.3-0.5-1.9-0.6l-0.5-0.1l-2.3-0.4
					l-1.5-0.3c-1.1-0.2-2-0.6-3.1-1.1c-1-0.5-2.1-0.9-3.2-1.2c-1.3-0.3-2.7-0.3-3.9-0.3C55.6,38.9,54,39,52.5,39.1z M49.1,40.5
					l3.5-0.2c1.5-0.1,3-0.2,4.5-0.2c1.2,0,2.5,0.1,3.7,0.3c1,0.2,1.9,0.6,2.9,1.1c1.1,0.5,2.1,1,3.4,1.2l1.6,0.3l2.2,0.4
					c0,0,0.6,0.1,0.6,0.1c0.5,0.1,1,0.2,1.4,0.4l1.2,0.9l1.2,0.8c1.1,0.7,2,1.7,3,2.7c0.7,0.8,1.5,1.6,2.3,2.3
					c0.7,0.6,1.5,1,2.2,1.4c0.7,0.4,1.4,0.8,1.9,1.2c0,0,0.6,0.5,0.6,0.5c0.6,0.5,1.1,1,1.9,1.4c0,0,1.2,0.5,1.2,0.5
					c0.7,0.2,1.3,0.5,1.7,0.9c0.5,0.5,0.9,1.2,1.3,1.9l0.6,1l0.5,0.7l0.7,1.1l0.5,1.1l0.4,0.9l0.3,0.6c0.4,0.8,0.4,0.9,0.1,1.4
					c-0.7,1-0.4,1.4,0.1,2.2l0.4,0.5c0.3,0.4,0.3,0.8,0.4,1.2l0.2,1c0,0,0.9,2,0.9,2c0.3,0.6,0.6,1.2,0.8,1.8
					c0.2,0.8,0.4,1.7,0.5,2.6l0.2,1.4l0.5,2.4c0.3,1.3,0.6,2.6,0.7,3.8l0,0.4c0,0.3,0.1,0.8,0,0.9c-0.1,0.2-0.2,0.4-0.4,0.5L98,86.7
					l-0.4,0.9c-0.4,1-0.9,2.1-1.5,2.6c0,0-0.1,0.1-0.1,0.1l-0.2,0l-0.9-0.1c-1.1,0-1.7,0.5-2,1.5c-0.2,0.8-0.1,1.7-0.1,2.6l0,1.7
					c-0.1,1.5-1,3-2.2,3.9l-0.9,0.4c-0.4,0.2-0.9,0.3-1.4,0.7c0,0-0.9,0.9-0.9,0.9c-0.4,0.4-0.7,0.8-1.1,1.1c-1,0.6-2.1,1.1-3.3,1.5
					l-0.1,0.1c0,0-0.7,0.3-0.7,0.3c-0.6,0.3-1.1,0.5-1.7,0.6l-1-0.1l-1.1-0.1c-0.9,0-1.6,0.2-2.4,0.3c-1.1,0.2-2.2,0.4-3.5,0.1
					c-0.6-0.1-1.4-0.5-1.8-0.9c-0.7-0.6-0.7-1-0.8-1.8l-0.2-1.1c-0.4-1.9-1.6-4-2.5-5.3c-0.9-1.2-0.5-2.3,0-3.6
					c0.3-0.8,0.6-1.5,0.6-2.4c0.1-2.1-1.1-3.4-2.3-4.8l-1.4-1.7c-0.5-0.7-1-1.9-1-2.5c0-0.1,0.1-0.2,0.2-0.5
					c0.2-0.3,0.5-0.7,0.5-1.3c-0.1-1.6-1.8-1.8-2.7-1.9c-0.4,0-0.8-0.1-1-0.2c-0.2-0.1-0.4-0.5-0.6-0.8l-0.5-0.6
					c-0.6-0.7-1.3-1.4-2-1.9c-0.6-0.5-1.3-0.8-2-1l-0.8-0.4c-0.7-0.3-1.4-0.6-2.3-0.4c-0.8,0.2-1.6,0.9-2.3,1.5L49,74.8l-3.1,2.4
					c-0.8,0.6-1.5,1.4-1.9,2.2l-0.4,0.8c-0.2,0.4-0.3,0.8-0.5,1c-0.1,0.1-0.2,0.2-0.3,0.2c0-0.2,0-0.5,0-0.7c0-0.1,0-0.4,0-0.5
					c0-0.4,0-0.8-0.1-1c-0.3-0.7-0.8-0.8-1.2-0.9c-0.2,0-0.4-0.1-0.5-0.2c-0.2-0.2-0.3-0.5-0.4-0.8c-0.2-0.4-0.4-0.9-0.8-1.3
					c0,0,0.1,0.1,0.1,0.2l-0.2-0.3c-0.1-0.2-0.4-0.4-0.7-0.3c-0.9,0.2-1.5,1.2-1.9,2.1l-0.3,0.6c-0.4,0.6-0.9,1.3-1.5,1.7l-1,0.5
					l-0.9,0.5c-0.8,0.4-1,0.9-1.3,1.5l-0.2,0.4c-0.3,0.5-0.5,0.5-1,0.5c-0.4,0-1,0.1-1.6,0.5l-0.7,0.6c-0.2,0.2-0.3,0.3-0.5,0.4
					c-0.4,0.1-0.8,0-1.3-0.2l-0.5-0.2c-1.6-0.4-3.1-0.2-4.6,0.1c-2,0.4-3.2,0.4-4.9-0.1c-1.1-0.3-2.1-0.3-3.3-0.4l-1.1-0.1
					c-2.3-0.1-2.4-3.3-2.4-4l-0.1-3.8l-0.2-1.4l-0.2-1.6c0,0,0-0.2,0-0.2c0-0.1-0.5-1.3,1.5-3l0.7-0.6c0.5-0.5,0.8-0.7,0.6-1.2
					c-0.1-0.2-0.3-0.4-0.8-0.4c-0.3,0-0.5,0-0.6-0.2c0-0.1,0.2-0.7,0.4-1.2c0.4-1.2,0.9-2.6,0.6-3.9v0c-0.2-1,0.4-2.1,0.8-2.8
					l0.4-0.9c0.1-1.4,1.4-2.7,2.3-3.4L22,50c0,0,1.2-1.1,1.2-1.1c1-1,2.1-2,3.3-2.2l0.4,0l1.2-0.2c0.6-0.2,1.1-0.8,1.5-1.2l0.7-0.7
					c0.7-0.5,1.1-0.6,2-0.7l0.3,0c1.9-0.4,3.7-0.9,5.3-1.4c1.8-0.6,3.5-1.1,5.4-1.6c1.5-0.4,3-0.4,4.5-0.3L49.1,40.5z"/>
				<path class="st1" d="M30.2,55.9c-5.7,1.1-10.3,6.8-9.6,12.1c0.2,1.4,0.6,2.8,0.9,4.1c0.6,2.1,1.1,4,1,6.3
					c-0.2,2.9-1.8,4.1-4.1,5.7l-1.4,1l0.5,0.7l1.4-1c2.3-1.6,4.3-3,4.5-6.4c0.2-2.4-0.4-4.5-1-6.6c-0.4-1.3-0.7-2.6-0.9-3.9
					c-0.6-4.9,3.6-10.2,8.9-11.2c2.1-0.4,5.5-0.6,6.7,0.6c0.4,0.4,0.5,0.9,0.4,1.5l0.8,0.2c0.2-0.9,0-1.7-0.6-2.3
					C35.8,54.8,30.5,55.8,30.2,55.9z"/>
				<path class="st1" d="M33.4,52.3c-0.7,1.2-0.9,2.5-0.5,3.6l0.8-0.3c-0.4-1.2,0-2.2,0.4-2.9c0.8-1.4,2.2-2.5,3.7-2.8l-0.2-0.8
					C36,49.5,34.3,50.7,33.4,52.3z"/>
				<path class="st1" d="M29.8,75.3l0.2,0.4c1.1,2,3.2,5.6,5.5,5.3l-0.1-0.9c-1.8,0.2-3.8-3.4-4.6-4.9l-0.2-0.4
					c-1.9-3.3-2.3-6.3-2.3-10.5l-0.9,0C27.4,68.7,27.8,71.7,29.8,75.3z"/>
				<path class="st1" d="M43.3,52.7c1.2,0.7,1.8,2,1.9,3.6c0.1,2.1-1,4.3-2.6,5.5c-2.3,1.7-5.9,0.7-8.6-0.7l-0.4,0.8
					c2.9,1.6,6.9,2.6,9.5,0.7c1.9-1.4,3-3.8,3-6.2c-0.1-1.9-0.9-3.4-2.3-4.3L43.3,52.7z"/>
				<path class="st1" d="M42.8,63c0.2,0,0.3,0.1,0.4,0.3c0.3,0.5,0.2,1.3-0.1,1.8c-0.5,0.9-1.4,1.2-2.4,1.6l-1.5,0.6
					c-2.1,1.2-3.7,3.5-4.1,5.8c-0.4,2-0.1,3.6,0.7,4.6c0.3,0.4,0.6,0.6,0.9,0.7l0.8,0.5l0.6-0.7l-0.9-0.6c-0.3-0.1-0.4-0.2-0.7-0.5
					c-0.7-0.8-0.9-2.2-0.5-3.9c0.4-2.1,1.9-4.2,3.7-5.2c0,0,1.3-0.6,1.3-0.6c1-0.4,2.2-0.8,2.8-2c0.4-0.7,0.5-1.9,0.1-2.6
					c-0.2-0.4-0.6-0.7-1.1-0.7L42.8,63z"/>
				<path class="st1" d="M14,55.3c0.4,0.7,0.7,1.6,1,2.7c0.6,2.2,1.4,4.6,3.3,5.6c1,0.5,2.3,0.6,3.7,0.1l-0.3-0.8
					c-1.2,0.4-2.2,0.4-3.1-0.1c-1.6-0.8-2.2-3.1-2.8-5.1c-0.3-1.1-0.6-2.1-1-2.8L14,55.3z"/>
				<path class="st1" d="M17.8,74c0,0.9-0.4,1.8-1.3,2.4c-2.1,1.5-5.9,1.8-7.4,1.2l-0.3,0.8c1.7,0.6,5.8,0.4,8.2-1.3
					c1.1-0.8,1.7-1.9,1.7-3.2L17.8,74z"/>
				<path class="st1" d="M14.5,77.7l0.8-0.3c-1-3.4-0.4-9.7,2.9-12.3l-0.5-0.7C13.9,67.4,13.4,74.1,14.5,77.7z"/>
				<path class="st1" d="M47.4,46.9c0.1,2.2,1.6,3.9,3.1,5.5c0.8,0.9,1.6,1.8,2.2,2.7c0,0,0.1,0.1,0.1,0.1c1,1.7,2,3.5,2.6,5.4
					c0.5,1.7,0.5,3.4,0.4,5.2l0,1.5c0,2-0.5,5.5-2.3,5.7l0.1,0.9c3-0.2,3.1-5.5,3.1-6.5c0,0,0-1.5,0-1.5c0-1.8,0.1-3.6-0.5-5.4
					c-0.6-2-1.6-3.8-2.6-5.6l-0.1-0.1c-0.6-1-1.5-2-2.3-2.9c-1.4-1.6-2.8-3-2.9-4.9c-0.1-2.1,1.3-5.7,2.6-6.9l-0.6-0.6
					C48.6,40.8,47.3,44.8,47.4,46.9z"/>
				<path class="st1" d="M47.5,46.9l0.6,0.6c1.6-1.8,5.5-4.1,8-3.5c1,0.2,1.7,0.9,2,2.1c0,0,0.2,1.3,0.2,1.3
					c0.1,1.2,0.2,2.5,1.8,3.3c1,0.5,2.7,0.3,3.9,0.1c2.8-0.6,3.2-2.4,3.8-4.6L66.9,46c-0.6,2.2-0.9,3.4-3.1,3.9
					c-1.5,0.3-2.7,0.3-3.3,0c-1.1-0.6-1.2-1.5-1.3-2.6l-0.2-1.4c-0.4-1.5-1.3-2.4-2.6-2.7C53.4,42.5,49.2,45,47.5,46.9z"/>
				<path class="st1" d="M60,64.1c-1,0.4-1.9,0.4-3,0.3l-0.7,0l0,0.9l0.7,0c1.1,0,2.2,0.1,3.3-0.4c2.2-0.9,4.7-3.7,4.7-6.3l-0.9,0
					C64.2,60.8,62,63.3,60,64.1z"/>
				<path class="st1" d="M64.9,59.1c2.9,0.4,5.1-0.5,6.6-2.7l-0.7-0.5c-1.3,1.9-3.3,2.7-5.8,2.3c-1.7-0.2-4.2-2.1-4.1-4.1L60,54.1
					C59.9,56.7,62.9,58.8,64.9,59.1z"/>
				<path class="st1" d="M45.5,71.4c0.4,2.1,1.5,4.4,3.1,4.4l0-0.9c-0.9,0-1.9-1.7-2.3-3.7c-0.3-1.7-0.2-3.6,0.8-4l-0.3-0.8
					C45.3,67.1,45.2,69.5,45.5,71.4z"/>
				<path class="st1" d="M74.4,44.8l-0.2,6.1c0.1,2.8,1.2,4.2,2.9,6.3l0.3,0.3c1.7,2.2,3.1,6.3,2.5,9.3c-0.3,1.4-1,2.4-2,3
					c-1,0.6-2.5,0.4-4,0.1l-1.6-0.2c-2.8-0.2-4.6,0.4-6.2,2.2c-0.6,0.7-1.3,1.2-2,1.7c-1.8,1.5-3.6,2.9-2.3,5.8l0.8-0.3
					c-1-2.3,0.2-3.3,2.1-4.7c0.6-0.5,1.4-1.1,2-1.8c1.5-1.6,3-2.1,5.5-1.9l1.5,0.2c1.5,0.2,3.2,0.5,4.5-0.2c1.3-0.7,2.1-2,2.5-3.6
					c0.7-3.4-0.9-7.7-2.7-10l-0.3-0.3c-1.6-2.1-2.6-3.3-2.7-5.8l0.2-6.1L74.4,44.8z"/>
				<path class="st1" d="M80.7,66.7c6.6,0.9,11.2,5.8,11,11.9l0.9,0c0.1-6.6-4.7-11.8-11.8-12.8L80.7,66.7z"/>
				<path class="st1" d="M89.4,80.5c-0.4,0.8-0.8,1.6-1.5,2.2l0.6,0.6c0.9-0.8,1.3-1.7,1.7-2.5c0.7-1.4,1.1-2.4,3.4-2.1
					c1.7,0.2,2.1,0.5,2.8,2l0.4,0.9c0.5,1.2,1.1,3,2.9,2.9l0-0.9c-1,0-1.5-0.9-2-2.3l-0.4-1c-0.9-1.8-1.5-2.2-3.5-2.5
					C90.8,77.6,90.1,79.1,89.4,80.5z"/>
				<path class="st1" d="M70.8,70.9c1.4,0.2,2.5,1,3.7,1.9l0.3,0.3c3.2,2.3,3.6,4.6,3.2,8c-0.2,1.9-0.7,4.2-2.4,5.9l-1.1,1
					c-0.8,0.7-1.6,1.3-2.1,2.7c-0.6,1.7-2.9,11.3-0.6,14.7c0.5,0.8,1.2,1.2,2.1,1.2l0-0.9c-0.6,0-1-0.3-1.4-0.8
					c-2-2.9,0-12,0.7-13.9c0.4-1.2,1.1-1.7,1.9-2.4l1.1-1c1.9-1.9,2.4-4.3,2.7-6.4c0.4-3.5,0-6.2-3.5-8.8L75,72.1
					c-1.2-0.9-2.5-1.8-4.1-2L70.8,70.9z"/>
				<path class="st1" d="M85.6,87.1c0.3,0.4,0.4,0.7,0.3,1c-0.2,0.7-1.6,1.3-2.8,1.7c-0.9,0.3-1.6,0.6-2,1c-1.4,1.4-1,4.6-0.9,6.4
					c0.2,1.5,0.9,6.2,2.5,7.9l0.6-0.6c-1.3-1.3-2.1-5.6-2.3-7.4c-0.2-1.5-0.5-4.6,0.6-5.7c0.3-0.3,1-0.6,1.7-0.8
					c1.4-0.6,2.9-1.2,3.3-2.3c0.2-0.5,0-1.1-0.4-1.7L85.6,87.1z"/>
				<path class="st1" d="M82.2,81l0.3,1.3c0.4,1.8,0.7,3.4,2.9,4.7c2.9,1.6,5.9,1.8,8,0.6L93,86.8c-1.9,1.1-4.6,0.9-7.2-0.6
					c-1.9-1.1-2.2-2.3-2.5-4.1l-0.3-1.3L82.2,81z"/>
				<path class="st1" d="M75.7,87.3l0.3-0.8c-3.3-1.1-4.7-5.5-4.5-8.3L70.6,78C70.4,81,71.8,86,75.7,87.3z"/>
				<path class="st1" d="M82.5,55.9c0.1,1.3-0.3,3-1.3,3.9c-0.6,0.5-1.2,0.6-2,0.4L79,61c1.1,0.3,2,0.1,2.8-0.6
					c1.3-1.1,1.7-3.2,1.6-4.6L82.5,55.9z"/>
				<path class="st1" d="M72.5,63.5c0,1.2-0.1,2.4,0.9,3.6c1.1,1.3,3.4,3.4,5.2,2.8l-0.3-0.8c-1.2,0.4-3.3-1.4-4.3-2.6
					c-0.8-1-0.8-1.9-0.7-3.1l0-0.6l-0.9,0L72.5,63.5z"/>
				<path class="st1" d="M73.5,95.5c2.2,3.3,4.4,3.8,7.8,4.3l0.1-0.9c-3.5-0.5-5.2-1-7.2-3.9L73.5,95.5z"/>
			</g>
			<g>
				<path class="st0" d="M34.3,101c0,3-0.6,5.4-1.8,7.3c-1.2,1.8-2.9,2.7-5.2,2.7v-3.3c2.3,0,3.5-2.2,3.5-6.7h-3.5v-7h7V101z"/>
				<path class="st0" d="M60.4,101c0,3-0.6,5.4-1.8,7.3c-1.2,1.8-2.9,2.7-5.2,2.7v-3.3c2.3,0,3.5-2.2,3.5-6.7h-3.5v-7h7V101z"/>
				<path class="st0" d="M44.1,128.5c-1.2-0.7-9.7-5.6-9.7-5.6l-1.3,2.2l10.3,6c0.4,0.2,1,0.2,1.4,0l13.8-9l-1.4-2.2
					C57.2,119.9,45.3,127.7,44.1,128.5z"/>
			</g>
		</g>
		<g>
			<path class="st0" d="M18.8,142.2l1-0.1c0,0.4,0.1,0.7,0.3,0.9c0.2,0.2,0.4,0.4,0.8,0.6c0.3,0.2,0.7,0.2,1.2,0.2
				c0.4,0,0.7-0.1,1-0.2c0.3-0.1,0.5-0.3,0.7-0.5c0.1-0.2,0.2-0.4,0.2-0.7c0-0.2-0.1-0.5-0.2-0.6c-0.1-0.2-0.4-0.3-0.7-0.5
				c-0.2-0.1-0.7-0.2-1.4-0.4c-0.7-0.2-1.2-0.3-1.5-0.5c-0.4-0.2-0.6-0.4-0.8-0.7c-0.2-0.3-0.3-0.6-0.3-1c0-0.4,0.1-0.8,0.3-1.1
				c0.2-0.3,0.5-0.6,1-0.8c0.4-0.2,0.9-0.3,1.4-0.3c0.6,0,1.1,0.1,1.5,0.3c0.4,0.2,0.8,0.5,1,0.8c0.2,0.4,0.4,0.8,0.4,1.2l-1,0.1
				c-0.1-0.5-0.2-0.8-0.5-1.1c-0.3-0.2-0.7-0.4-1.3-0.4c-0.6,0-1.1,0.1-1.3,0.3c-0.3,0.2-0.4,0.5-0.4,0.8c0,0.3,0.1,0.5,0.3,0.7
				c0.2,0.2,0.7,0.4,1.5,0.5c0.8,0.2,1.4,0.4,1.7,0.5c0.4,0.2,0.8,0.5,1,0.8c0.2,0.3,0.3,0.7,0.3,1.1c0,0.4-0.1,0.8-0.4,1.2
				c-0.2,0.4-0.6,0.6-1,0.8c-0.4,0.2-0.9,0.3-1.5,0.3c-0.7,0-1.3-0.1-1.7-0.3c-0.5-0.2-0.8-0.5-1.1-0.9
				C18.9,143.2,18.8,142.8,18.8,142.2z"/>
			<path class="st0" d="M26.2,144.7v-5.6H27v0.8c0.2-0.3,0.4-0.5,0.7-0.7c0.3-0.2,0.6-0.2,1-0.2c0.4,0,0.8,0.1,1,0.3
				c0.3,0.2,0.5,0.4,0.6,0.7c0.4-0.7,1-1,1.7-1c0.6,0,1,0.2,1.3,0.5c0.3,0.3,0.4,0.8,0.4,1.4v3.8h-0.9v-3.5c0-0.4,0-0.7-0.1-0.8
				c-0.1-0.2-0.2-0.3-0.3-0.4c-0.2-0.1-0.4-0.2-0.6-0.2c-0.4,0-0.7,0.1-1,0.4c-0.3,0.3-0.4,0.7-0.4,1.3v3.2h-0.9v-3.6
				c0-0.4-0.1-0.7-0.2-0.9c-0.2-0.2-0.4-0.3-0.8-0.3c-0.3,0-0.5,0.1-0.7,0.2c-0.2,0.1-0.4,0.3-0.5,0.6c-0.1,0.3-0.2,0.7-0.2,1.2v2.9
				H26.2z"/>
			<path class="st0" d="M38.8,144c-0.3,0.3-0.7,0.5-1,0.6c-0.3,0.1-0.7,0.2-1.1,0.2c-0.6,0-1.1-0.2-1.4-0.4
				c-0.3-0.3-0.5-0.7-0.5-1.1c0-0.3,0.1-0.5,0.2-0.7c0.1-0.2,0.3-0.4,0.5-0.5c0.2-0.1,0.4-0.2,0.7-0.3c0.2,0,0.5-0.1,0.8-0.1
				c0.8-0.1,1.3-0.2,1.7-0.3c0-0.1,0-0.2,0-0.2c0-0.4-0.1-0.7-0.3-0.8c-0.2-0.2-0.6-0.3-1.1-0.3c-0.4,0-0.8,0.1-1,0.2
				c-0.2,0.2-0.4,0.4-0.5,0.8l-0.9-0.1c0.1-0.4,0.2-0.7,0.4-1c0.2-0.2,0.5-0.4,0.8-0.6c0.4-0.1,0.8-0.2,1.3-0.2
				c0.5,0,0.9,0.1,1.2,0.2c0.3,0.1,0.5,0.3,0.7,0.4c0.1,0.2,0.2,0.4,0.3,0.6c0,0.2,0,0.5,0,0.9v1.3c0,0.9,0,1.4,0.1,1.7
				c0,0.2,0.1,0.5,0.2,0.7h-1C38.9,144.5,38.8,144.3,38.8,144z M38.7,141.9c-0.3,0.1-0.9,0.3-1.5,0.4c-0.4,0.1-0.7,0.1-0.8,0.2
				c-0.2,0.1-0.3,0.2-0.4,0.3c-0.1,0.1-0.1,0.3-0.1,0.4c0,0.3,0.1,0.5,0.3,0.6c0.2,0.2,0.5,0.3,0.8,0.3c0.4,0,0.7-0.1,1-0.2
				c0.3-0.2,0.5-0.4,0.6-0.7c0.1-0.2,0.2-0.5,0.2-0.9L38.7,141.9z"/>
			<path class="st0" d="M41.1,144.7v-5.6H42v0.9c0.2-0.4,0.4-0.7,0.6-0.8c0.2-0.1,0.4-0.2,0.6-0.2c0.3,0,0.6,0.1,1,0.3l-0.3,0.9
				c-0.2-0.1-0.5-0.2-0.7-0.2c-0.2,0-0.4,0.1-0.6,0.2c-0.2,0.1-0.3,0.3-0.4,0.5c-0.1,0.3-0.2,0.7-0.2,1.1v2.9H41.1z"/>
			<path class="st0" d="M46.8,143.9l0.1,0.8c-0.3,0.1-0.5,0.1-0.7,0.1c-0.3,0-0.6-0.1-0.8-0.2c-0.2-0.1-0.3-0.2-0.4-0.4
				c-0.1-0.2-0.1-0.5-0.1-1.1v-3.2h-0.7v-0.7h0.7v-1.4l0.9-0.6v1.9h1v0.7h-1v3.3c0,0.3,0,0.4,0.1,0.5c0,0.1,0.1,0.1,0.2,0.2
				c0.1,0,0.2,0.1,0.3,0.1C46.5,143.9,46.6,143.9,46.8,143.9z"/>
			<path class="st0" d="M50.8,144.7V137h3.4c0.7,0,1.2,0.1,1.6,0.2c0.4,0.1,0.6,0.4,0.9,0.7c0.2,0.4,0.3,0.7,0.3,1.2
				c0,0.5-0.2,1-0.5,1.4c-0.4,0.4-0.9,0.6-1.6,0.7c0.3,0.1,0.5,0.3,0.6,0.4c0.3,0.3,0.6,0.6,0.8,1l1.3,2.1h-1.3l-1-1.6
				c-0.3-0.5-0.5-0.8-0.7-1.1c-0.2-0.2-0.4-0.4-0.5-0.5c-0.2-0.1-0.3-0.2-0.5-0.2c-0.1,0-0.3,0-0.6,0h-1.2v3.4H50.8z M51.9,140.4H54
				c0.5,0,0.8,0,1.1-0.1c0.3-0.1,0.5-0.3,0.6-0.5c0.1-0.2,0.2-0.4,0.2-0.7c0-0.4-0.1-0.7-0.4-0.9c-0.3-0.2-0.7-0.4-1.3-0.4h-2.4
				V140.4z"/>
			<path class="st0" d="M62.3,142.9l1,0.1c-0.2,0.6-0.4,1-0.9,1.3c-0.4,0.3-0.9,0.5-1.6,0.5c-0.8,0-1.5-0.3-1.9-0.8
				c-0.5-0.5-0.7-1.2-0.7-2.1c0-0.9,0.2-1.7,0.7-2.2c0.5-0.5,1.1-0.8,1.9-0.8c0.7,0,1.4,0.3,1.8,0.8c0.5,0.5,0.7,1.2,0.7,2.1
				c0,0.1,0,0.1,0,0.3h-4.2c0,0.6,0.2,1.1,0.5,1.4c0.3,0.3,0.7,0.5,1.2,0.5c0.3,0,0.6-0.1,0.9-0.3C61.9,143.6,62.1,143.3,62.3,142.9
				z M59.2,141.4h3.1c0-0.5-0.2-0.8-0.4-1c-0.3-0.4-0.7-0.5-1.2-0.5c-0.4,0-0.8,0.1-1.1,0.4C59.4,140.5,59.2,140.9,59.2,141.4z"/>
			<path class="st0" d="M68.1,144c-0.3,0.3-0.7,0.5-1,0.6c-0.3,0.1-0.7,0.2-1.1,0.2c-0.6,0-1.1-0.2-1.4-0.4
				c-0.3-0.3-0.5-0.7-0.5-1.1c0-0.3,0.1-0.5,0.2-0.7c0.1-0.2,0.3-0.4,0.5-0.5c0.2-0.1,0.4-0.2,0.7-0.3c0.2,0,0.5-0.1,0.8-0.1
				c0.8-0.1,1.3-0.2,1.7-0.3c0-0.1,0-0.2,0-0.2c0-0.4-0.1-0.7-0.3-0.8c-0.2-0.2-0.6-0.3-1.1-0.3c-0.4,0-0.8,0.1-1,0.2
				c-0.2,0.2-0.4,0.4-0.5,0.8l-0.9-0.1c0.1-0.4,0.2-0.7,0.4-1c0.2-0.2,0.5-0.4,0.8-0.6c0.4-0.1,0.8-0.2,1.3-0.2
				c0.5,0,0.9,0.1,1.2,0.2c0.3,0.1,0.5,0.3,0.7,0.4c0.1,0.2,0.2,0.4,0.3,0.6c0,0.2,0,0.5,0,0.9v1.3c0,0.9,0,1.4,0.1,1.7
				c0,0.2,0.1,0.5,0.2,0.7h-1C68.2,144.5,68.1,144.3,68.1,144z M68,141.9c-0.3,0.1-0.9,0.3-1.5,0.4c-0.4,0.1-0.7,0.1-0.8,0.2
				c-0.2,0.1-0.3,0.2-0.4,0.3c-0.1,0.1-0.1,0.3-0.1,0.4c0,0.3,0.1,0.5,0.3,0.6c0.2,0.2,0.5,0.3,0.8,0.3c0.4,0,0.7-0.1,1-0.2
				c0.3-0.2,0.5-0.4,0.6-0.7c0.1-0.2,0.2-0.5,0.2-0.9L68,141.9z"/>
			<path class="st0" d="M74.1,144.7V144c-0.4,0.6-0.9,0.8-1.6,0.8c-0.4,0-0.9-0.1-1.2-0.4c-0.4-0.2-0.7-0.6-0.9-1
				c-0.2-0.4-0.3-0.9-0.3-1.5c0-0.6,0.1-1.1,0.3-1.5c0.2-0.5,0.5-0.8,0.8-1c0.4-0.2,0.8-0.4,1.2-0.4c0.3,0,0.6,0.1,0.9,0.2
				c0.3,0.1,0.5,0.3,0.6,0.6V137h0.9v7.7H74.1z M71.1,141.9c0,0.7,0.2,1.2,0.5,1.6c0.3,0.4,0.7,0.5,1.1,0.5c0.4,0,0.8-0.2,1.1-0.5
				c0.3-0.3,0.4-0.9,0.4-1.5c0-0.8-0.1-1.3-0.4-1.7c-0.3-0.4-0.7-0.5-1.1-0.5c-0.4,0-0.8,0.2-1.1,0.5
				C71.2,140.7,71.1,141.2,71.1,141.9z"/>
			<path class="st0" d="M76.4,138.1V137h0.9v1.1H76.4z M76.4,144.7v-5.6h0.9v5.6H76.4z"/>
			<path class="st0" d="M78.8,144.7v-5.6h0.8v0.8c0.4-0.6,1-0.9,1.8-0.9c0.3,0,0.6,0.1,0.9,0.2c0.3,0.1,0.5,0.3,0.6,0.5
				c0.1,0.2,0.2,0.4,0.3,0.7c0,0.2,0.1,0.5,0.1,0.9v3.4h-0.9v-3.4c0-0.4,0-0.7-0.1-0.9c-0.1-0.2-0.2-0.3-0.4-0.5
				c-0.2-0.1-0.4-0.2-0.7-0.2c-0.4,0-0.7,0.1-1,0.4c-0.3,0.3-0.4,0.7-0.4,1.5v3H78.8z"/>
			<path class="st0" d="M84.6,145.2l0.9,0.1c0,0.3,0.1,0.5,0.3,0.6c0.2,0.2,0.6,0.3,1,0.3c0.4,0,0.8-0.1,1-0.3
				c0.2-0.2,0.4-0.4,0.5-0.7c0-0.2,0.1-0.6,0.1-1.2c-0.4,0.5-0.9,0.7-1.6,0.7c-0.8,0-1.4-0.3-1.8-0.8c-0.4-0.6-0.6-1.2-0.6-2
				c0-0.5,0.1-1,0.3-1.5c0.2-0.5,0.5-0.8,0.8-1c0.4-0.2,0.8-0.4,1.3-0.4c0.7,0,1.2,0.3,1.6,0.8v-0.7h0.8v4.8c0,0.9-0.1,1.5-0.3,1.8
				c-0.2,0.4-0.5,0.6-0.8,0.9c-0.4,0.2-0.9,0.3-1.4,0.3c-0.7,0-1.2-0.1-1.6-0.5C84.8,146.2,84.6,145.8,84.6,145.2z M85.4,141.8
				c0,0.7,0.1,1.3,0.4,1.6c0.3,0.3,0.7,0.5,1.1,0.5c0.4,0,0.8-0.2,1.1-0.5c0.3-0.3,0.4-0.9,0.4-1.6c0-0.7-0.2-1.2-0.5-1.5
				c-0.3-0.3-0.7-0.5-1.1-0.5c-0.4,0-0.8,0.2-1.1,0.5C85.6,140.7,85.4,141.2,85.4,141.8z"/>
		</g>
	</g>
	<g>
		<path class="st0" d="M146,75.6c-1.5-1.3-5.9-4.4-8.5-6c-1.6,3-4.5,6-10.2,8.5c-0.3-0.5-1-1.3-1.5-1.7c7.1-2.9,9.7-6.5,10.6-9.9
			h-10.3v-2.1h10.7c0.1-0.8,0.1-1.5,0.1-2.2v-3.3h-5.2c-1,1.8-2.2,3.5-3.3,4.8c-0.4-0.2-1.4-0.9-2-1.2c2.5-2.6,4.5-6.2,5.7-10.1
			l2.2,0.5c-0.4,1.3-1,2.7-1.5,3.9H147v2.1h-7.8v3.3c0,0.7,0,1.4-0.1,2.2h9.3v2.1h-9.6c-0.1,0.5-0.3,1-0.4,1.5
			c2.1,1.1,7.9,4.8,9.3,5.9L146,75.6z M133.6,77.2h29.3v19.9h-2.4v-1.8h-24.5v1.9h-2.3V77.2z M135.9,79.3v5.9h24.5v-5.9H135.9z
			 M160.4,93.2v-6h-24.5v6H160.4z M167.1,56.6v16.2h-16.5V56.6H167.1z M164.7,58.8h-11.8v11.8h11.8V58.8z"/>
		<path class="st0" d="M180.1,94.5c3.3-1.8,5.6-5.1,6.9-8.1l2.1,0.7c-1.5,3.2-3.6,6.7-7.1,8.8L180.1,94.5z M216.6,77.8h-35.8V76
			h35.8v-3.8h-31.2v-1.9h33.6V76h5.7v1.8h-5.7v5.7h-33.9v-1.9h31.5V77.8z M190.3,66.7h-8.8v-1.8h8.8v-3.1h-7.4V60h7.4v-2.9H182v-1.8
			h8.3v-2.9h2.2v2.9h8.3v1.8h-8.3V60h7.6v1.8h-7.6v3.1h8.8v1.8h-8.8v2.9h-2.2V66.7z M209.1,94.5c2.2,0,2.6-0.5,2.8-4.9
			c0.5,0.3,1.5,0.7,2.1,0.8c-0.3,5.1-1.1,6.3-4.8,6.3h-10.8c-4.5,0-5.7-0.6-5.7-3.6V86h2.3v7.1c0,1.2,0.5,1.4,3.4,1.4H209.1z
			 M198.8,83.8c3,1.1,6.6,3.2,8.3,5l-1.5,1.6c-1.7-1.8-5.3-3.9-8.3-5.2L198.8,83.8z M211.7,66.7h-9.2v-1.8h9.2v-3.1H204v-1.9h7.7
			v-2.8h-8.8v-1.8h8.8v-2.9h2.3v2.9h9.2v1.8h-9.2v2.8h8.4v1.9h-8.4v3.1h9.9v1.8h-9.9v2.9h-2.3V66.7z M216.1,86
			c3.6,2.3,7.3,5.8,9,8.4l-1.9,1.3c-1.6-2.6-5.4-6.1-8.9-8.5L216.1,86z"/>
		<path class="st0" d="M279.5,93.2v2.3h-44.7v-2.3h21.6v-7.6h-16.4v-2.3h16.4v-6.5h2.4v6.5h15.4v2.3h-15.4v7.6H279.5z M244.9,66.6
			c-0.5,4.3-2.2,9-7.2,12.5c-0.3-0.5-1.1-1.4-1.6-1.7c4.6-3.1,6.1-7,6.6-10.8h-6.5v-2.2h6.7v-0.8v-6.9h-5.1v-2.2h22.2v2.2h-5.3v7.7
			h6.2v2.2h-6.2v11.3h-2.3V66.6H244.9z M245.1,64.4h7.3v-7.7h-7.3v7V64.4z M266.8,71.6h-2.2V55.1h2.2V71.6z M276.2,75.2
			c0,1.7-0.4,2.4-1.6,2.8c-1.3,0.4-3.6,0.4-7.2,0.4c-0.1-0.6-0.4-1.6-0.8-2.3c3.2,0.1,5.6,0.1,6.4,0c0.8,0,1-0.2,1-0.9V52.5h2.3
			V75.2z"/>
		<path class="st0" d="M293.8,67.9v29.3h-2.3V54.4H309v13.5H293.8z M293.8,56.3v3.8h12.9v-3.8H293.8z M306.7,66v-4h-12.9v4H306.7z
			 M308.9,69.8c-2.4,3.2-6.8,6.4-10.8,8.3c-0.3-0.4-1-1.1-1.4-1.4c3.8-1.8,8.1-4.8,10.2-7.5L308.9,69.8z M321.5,93
			c1,0,1.2-0.4,1.3-3.7c0.5,0.4,1.3,0.7,1.9,0.8c-0.2,3.9-0.9,4.8-3,4.8h-5c-2.7,0-3.4-0.5-3.4-3v-6.7h-5
			c-0.8,5.5-3.4,8.6-10.1,10.3c-0.2-0.5-0.9-1.4-1.3-1.7c6.2-1.5,8.5-4.1,9.3-8.6h-3.9v-9.4h18v9.4h-4.9V92c0,0.9,0.2,1,1.4,1H321.5
			z M304.4,83.5h13.8v-5.8h-13.8V83.5z M324.2,78.3c-2.2-2.3-6.7-5.8-10.6-8l1.5-1.1c3.8,2.3,8.3,5.6,10.7,7.9L324.2,78.3z
			 M332.1,93.4c0,1.7-0.3,2.4-1.4,2.8c-1.1,0.4-3.1,0.4-6,0.4c-0.1-0.6-0.5-1.7-0.8-2.3c2.4,0.1,4.5,0.1,5.1,0
			c0.7,0,0.9-0.2,0.9-0.9V67.8h-15.7V54.5h17.9V93.4z M316.5,56.4v3.8h13.3v-3.8H316.5z M329.8,66v-3.9h-13.3V66H329.8z"/>
		<path class="st0" d="M359.3,62.7h-15.7v-2.1h15.7V62.7z M345.4,73.7h12.8v2h-12.8V73.7z M345.7,69.2v-2.1h12.4v2.1H345.7z
			 M358.1,94.3h-10.3v2.4h-2.1V80.3h12.4V94.3z M347.8,82.4v9.9h8.2v-9.9H347.8z M352.4,59.8c-0.7-1.7-2.6-4.4-4.2-6.2l2-0.8
			c1.7,1.9,3.5,4.4,4.4,6.1L352.4,59.8z M371.2,91.9c-2.9,2.1-7.4,4.2-11.2,5.5c-0.4-0.5-1.1-1.3-1.6-1.7c3.8-1.1,8.3-3.2,10.5-5
			L371.2,91.9z M372.9,57.3H361v-1.9h11.9v-3.1h2.3v3.1H388v1.9h-12.7v2.8h11.4v1.8h-23.9v-1.8h10.2V57.3z M387.6,73.8h-26.2v-9.5
			h26.2V73.8z M362.8,90.3V75.9h23.4v14.4H362.8z M363.5,72.1h5.7v-6h-5.7V72.1z M365,80.2h19v-2.5h-19V80.2z M365,84.3h19v-2.5h-19
			V84.3z M365,88.5h19v-2.6h-19V88.5z M371,66.1v6h6.6v-6H371z M378.5,90.6c3.8,1.7,8,3.7,10.6,5.2l-1.5,1.7
			c-2.6-1.5-6.6-3.7-10.4-5.5L378.5,90.6z M385.5,66.1h-5.9v6h5.9V66.1z"/>
		<path class="st0" d="M409.4,65.3c-1.6,7.1-4.6,15.9-9.3,21.4c-0.5-0.4-1.5-1-2.2-1.3c4.7-5.4,7.5-13.8,8.9-20.6L409.4,65.3z
			 M422.2,53.1v40.4c0,2.2-0.6,3-2.1,3.4c-1.5,0.4-4.4,0.4-8.9,0.4c-0.2-0.7-0.6-1.8-1-2.5c3.9,0.1,7.3,0,8.3,0c1,0,1.3-0.3,1.3-1.3
			V53.1H422.2z M434,64.5c4.5,6.9,8.7,16,10,21.9l-2.5,1c-1.2-5.8-5.4-15-9.8-22L434,64.5z"/>
		<path class="st0" d="M467,56.8v40.5h-2.2v-9.6c-4.2,0.6-8.3,1.4-11.6,2l-0.5-2.2L456,87V56.8h-2.9v-2.2h16.2v2.2H467z M464.8,56.8
			h-6.7v8h6.7V56.8z M464.8,67h-6.7v8.2h6.7V67z M458.1,86.6c2.1-0.3,4.4-0.7,6.7-1.1v-8.2h-6.7V86.6z M480.3,67.5
			c1,2.6,2.2,6,2.7,8l-1.8,0.6c-0.2-0.7-0.5-1.7-0.8-2.8c-9,1-10.3,1.3-11,1.6c0-0.5-0.4-1.6-0.7-2.3c0.8-0.1,1.8-1.1,2.9-2.5
			c0.7-0.8,2.4-2.9,4.2-5.6c-4.4,0.3-5.3,0.5-5.8,0.7c-0.1-0.5-0.4-1.7-0.6-2.3c0.6-0.1,1.2-0.7,1.9-1.7c0.7-1,3.3-4.8,4.7-8.5
			l2,0.9c-1.6,3.4-3.6,6.8-5.6,9.3l4.7-0.2c0.9-1.3,1.7-2.8,2.5-4.3l1.8,1c-2.8,4.7-5.9,9.3-9,12.8l7.6-0.7
			c-0.4-1.2-0.8-2.6-1.3-3.7L480.3,67.5z M479.2,76.6h2.1v7.8c0,4.6-1.3,9.9-8.3,13.4c-0.2-0.5-1-1.4-1.4-1.7
			c5.2-2.5,6.9-5.8,7.4-9.1h-7.2V76.6h2.1v8.1h5.3v-0.3V76.6z M496.3,75.8c-0.2-0.7-0.6-1.7-1-2.8c-9.2,1.1-10.5,1.3-11.2,1.7
			c-0.1-0.5-0.4-1.7-0.7-2.3c0.8-0.1,1.7-1.1,2.7-2.4c0.7-0.8,2.2-2.9,3.8-5.5c-4.5,0.3-5.4,0.5-5.9,0.7c-0.1-0.5-0.4-1.7-0.7-2.3
			c0.7-0.1,1.3-0.7,1.9-1.6c0.7-1,3.2-4.8,4.5-8.4l2,0.9c-1.6,3.3-3.5,6.5-5.3,9l4.6-0.2c0.7-1.3,1.4-2.7,2-4l1.9,1
			c-2.4,4.5-5.2,9-8.1,12.4l7.7-0.8c-0.5-1.3-1.1-2.7-1.6-3.9l1.7-0.5c1.2,2.7,2.7,6.3,3.4,8.3L496.3,75.8z M493,77h2.1v11.7H493
			v-1.9h-5.3v10.6h-2.2V76.5h2.2v8.1h5.3V77z"/>
		<path class="st0" d="M552,93.6v2.2h-44.5v-2.2h5.8V81h33.3v12.6H552z M512.6,76.4h-2.2V54.6h15.2v18.9h-12.9V76.4z M512.6,56.7
			v6.3h10.7v-6.3H512.6z M523.3,71.5v-6.3h-10.7v6.3H523.3z M515.5,93.6h8V83.1h-8V93.6z M532.6,70.7c-0.7,3.2-2.4,6.5-5.7,9
			c-0.3-0.5-1.2-1.3-1.7-1.7c5.1-3.9,5.9-9.2,5.9-13.7V53.9h18V76c0,1.5-0.3,2.2-1.5,2.6c-1.2,0.4-3.5,0.4-6.9,0.4
			c-0.1-0.7-0.6-1.5-0.9-2.2c3,0.1,5.4,0,6.1,0c0.7,0,0.9-0.2,0.9-0.9v-5.3H532.6z M525.8,83.1v10.6h8V83.1H525.8z M546.7,68.7v-5.5
			h-13.4v1.1c0,1.3,0,2.9-0.3,4.4H546.7z M533.3,56v5.3h13.4V56H533.3z M536,83.1v10.6h8.1V83.1H536z"/>
	</g>
</g>
</svg>
