<?xml version="1.0" encoding="utf-8"?>
<!-- Generator: Adobe Illustrator 26.5.3, SVG Export Plug-In . SVG Version: 6.00 Build 0)  -->
<svg version="1.1" id="圖層_1" xmlns="http://www.w3.org/2000/svg" xmlns:xlink="http://www.w3.org/1999/xlink" x="0px" y="0px"
	 viewBox="0 0 300 116.3" style="enable-background:new 0 0 300 116.3;" xml:space="preserve">
<style type="text/css">
	.st0{fill-rule:evenodd;clip-rule:evenodd;}
</style>
<g>
	<g>
		<path class="st0" d="M219.3,13.9c17-4,28.5-10.8,41-6c4.1,13.3-12.1,15.7-10.4,26.7c-0.1,2.9-23.4,2.6-31.4,2.8l2.1-2.9
			c13.4-1.2,24-11.1,28.4-21.1c-7.9,0-21.2,5-29.6,4.5L219.3,13.9z"/>
		<path class="st0" d="M220.1,37.2c17,12.5,35.4,22.5,54.6,33c5.6,3,6,3.5-9,6c-29-5.6-30.6-22.3-47-33
			c-4.7,11.4-6.1,36.5-22.1,31.7l-3-1.5l3-2.2c7.9-5.9,21.8-25.4,16-58.7c0,0-0.2-4.2,0.7-4s7.7,2.4,7.9,4.9
			C221.7,18.9,220.9,35.2,220.1,37.2z"/>
	</g>
	<g>
		<g>
			<path d="M14,109.4l2.5,0.6c-0.5,2-1.4,3.6-2.8,4.6c-1.3,1.1-3,1.6-4.9,1.6c-2,0-3.6-0.4-4.9-1.2c-1.3-0.8-2.2-2-2.9-3.6
				s-1-3.2-1-5c0-1.9,0.4-3.6,1.1-5.1c0.7-1.4,1.8-2.5,3.2-3.3c1.3-0.6,2.9-1,4.5-1c1.9,0,3.4,0.5,4.7,1.4s2.2,2.3,2.7,4l-2.4,0.6
				c-0.4-1.4-1.1-2.3-1.9-3c-0.8-0.6-1.9-0.9-3.1-0.9c-1.4,0-2.6,0.3-3.6,1s-1.6,1.6-2,2.8c-0.4,1.2-0.6,2.3-0.6,3.6
				c0,1.6,0.2,3,0.7,4.1c0.5,1.2,1.2,2.1,2.2,2.6c1,0.6,2,0.9,3.2,0.9c1.4,0,2.6-0.4,3.5-1.2C13,112.2,13.7,111,14,109.4z"/>
			<path d="M19.2,116V97.3h2.3v6.7c1.1-1.2,2.4-1.9,4-1.9c1,0,1.9,0.2,2.6,0.6s1.3,0.9,1.6,1.6c0.3,0.7,0.5,1.7,0.5,3v8.6h-2.3v-8.6
				c0-1.1-0.2-2-0.7-2.5S26,104,25.1,104c-0.7,0-1.3,0.2-1.9,0.5c-0.6,0.4-1,0.8-1.3,1.4s-0.4,1.4-0.4,2.5v7.4h-2.3V116z"/>
			<path d="M33.7,100v-2.6H36v2.6H33.7z M33.7,116v-13.5H36V116H33.7z"/>
			<path d="M39.5,116v-13.5h2.1v1.9c1-1.5,2.4-2.2,4.3-2.2c0.8,0,1.6,0.1,2.2,0.4s1.2,0.7,1.5,1.1c0.3,0.5,0.6,1,0.7,1.7
				c0.1,0.4,0.1,1.2,0.1,2.2v8.3h-2.3v-8.2c0-0.9-0.1-1.6-0.3-2.1s-0.5-0.8-0.9-1.1c-0.5-0.3-1-0.4-1.6-0.4c-1,0-1.8,0.3-2.5,0.9
				s-1.1,1.8-1.1,3.5v7.4L39.5,116L39.5,116z"/>
			<path d="M63.2,111.6l2.4,0.3c-0.4,1.4-1.1,2.5-2.1,3.2c-1,0.8-2.3,1.1-3.9,1.1c-2,0-3.5-0.6-4.7-1.8c-1.2-1.2-1.7-2.9-1.7-5.1
				c0-2.3,0.6-4,1.8-5.3s2.7-1.9,4.5-1.9s3.3,0.6,4.4,1.8c1.1,1.2,1.7,3,1.7,5.2c0,0.1,0,0.3,0,0.6h-10c0.1,1.5,0.5,2.6,1.3,3.4
				s1.7,1.2,2.8,1.2c0.8,0,1.6-0.2,2.1-0.7C62.4,113.3,62.8,112.6,63.2,111.6z M55.7,107.9h7.5c-0.1-1.1-0.4-2-0.9-2.6
				c-0.7-0.9-1.7-1.3-2.8-1.3s-1.9,0.4-2.6,1.1C56.2,105.8,55.8,106.8,55.7,107.9z"/>
			<path d="M67.5,111.9l2.3-0.4c0.1,0.9,0.5,1.6,1.1,2.1s1.4,0.7,2.4,0.7c1.1,0,1.8-0.2,2.3-0.6s0.8-0.9,0.8-1.5
				c0-0.5-0.2-0.9-0.7-1.2c-0.3-0.2-1.1-0.5-2.3-0.8c-1.7-0.4-2.8-0.8-3.5-1.1c-0.6-0.3-1.1-0.7-1.5-1.3c-0.3-0.5-0.5-1.1-0.5-1.8
				c0-0.6,0.1-1.2,0.4-1.7s0.7-0.9,1.1-1.3c0.4-0.3,0.8-0.5,1.5-0.7c0.6-0.2,1.3-0.3,2-0.3c1.1,0,2,0.2,2.8,0.5s1.4,0.7,1.8,1.2
				s0.6,1.2,0.8,2.1l-2.2,0.3c-0.1-0.7-0.4-1.2-0.9-1.6s-1.2-0.6-2.1-0.6c-1.1,0-1.8,0.2-2.2,0.5c-0.4,0.3-0.7,0.8-0.7,1.2
				c0,0.3,0.1,0.6,0.3,0.8c0.2,0.2,0.5,0.4,0.9,0.6c0.2,0.1,0.9,0.3,2,0.6c1.6,0.4,2.7,0.8,3.4,1.1c0.6,0.3,1.1,0.7,1.5,1.2
				s0.5,1.2,0.5,2s-0.2,1.5-0.7,2.2c-0.4,0.7-1.1,1.2-1.9,1.6s-1.8,0.6-2.8,0.6c-1.8,0-3.1-0.4-4-1.1
				C68.4,114.5,67.8,113.4,67.5,111.9z"/>
			<path d="M90.7,111.6l2.4,0.3c-0.4,1.4-1.1,2.5-2.1,3.2c-1,0.8-2.3,1.1-3.9,1.1c-2,0-3.5-0.6-4.7-1.8c-1.2-1.2-1.7-2.9-1.7-5.1
				c0-2.3,0.6-4,1.8-5.3s2.7-1.9,4.6-1.9c1.8,0,3.3,0.6,4.4,1.8c1.1,1.2,1.7,3,1.7,5.2c0,0.1,0,0.3,0,0.6H83
				c0.1,1.5,0.5,2.6,1.3,3.4s1.7,1.2,2.8,1.2c0.8,0,1.6-0.2,2.1-0.7C89.9,113.3,90.3,112.6,90.7,111.6z M83.2,107.9h7.5
				c-0.1-1.1-0.4-2-0.9-2.6c-0.7-0.9-1.7-1.3-2.8-1.3c-1.1,0-1.9,0.4-2.7,1.1C83.6,105.8,83.2,106.8,83.2,107.9z"/>
			<path d="M116.7,109.4l2.5,0.6c-0.5,2-1.4,3.6-2.8,4.6c-1.3,1.1-3,1.6-4.9,1.6c-2,0-3.6-0.4-4.9-1.2c-1.3-0.8-2.2-2-2.9-3.6
				c-0.7-1.6-1-3.2-1-5c0-1.9,0.4-3.6,1.1-5.1c0.7-1.4,1.8-2.5,3.2-3.3c1.4-0.7,2.9-1.1,4.5-1.1c1.9,0,3.4,0.5,4.7,1.4
				c1.3,0.9,2.2,2.3,2.7,4l-2.4,0.6c-0.4-1.4-1.1-2.3-1.9-3c-0.8-0.6-1.9-0.9-3.1-0.9c-1.4,0-2.6,0.3-3.6,1s-1.6,1.6-2,2.8
				c-0.4,1.2-0.6,2.3-0.6,3.6c0,1.6,0.2,3,0.7,4.1c0.5,1.2,1.2,2.1,2.2,2.6c1,0.6,2,0.9,3.2,0.9c1.4,0,2.6-0.4,3.5-1.2
				C115.8,112.2,116.4,111,116.7,109.4z"/>
			<path d="M121.9,116V97.3h2.3v6.7c1.1-1.2,2.4-1.9,4-1.9c1,0,1.9,0.2,2.6,0.6c0.7,0.4,1.3,0.9,1.6,1.6s0.5,1.7,0.5,3v8.6h-2.3
				v-8.6c0-1.1-0.2-2-0.7-2.5s-1.2-0.8-2.1-0.8c-0.7,0-1.3,0.2-1.9,0.5c-0.6,0.4-1,0.8-1.3,1.4s-0.4,1.4-0.4,2.5v7.4h-2.3V116z"/>
			<path d="M145.2,114.3c-0.8,0.7-1.7,1.2-2.4,1.5c-0.8,0.3-1.6,0.4-2.5,0.4c-1.5,0-2.6-0.4-3.4-1.1c-0.8-0.7-1.2-1.7-1.2-2.8
				c0-0.7,0.2-1.3,0.5-1.8s0.7-1,1.2-1.3s1-0.6,1.6-0.8c0.4-0.1,1.1-0.2,2-0.3c1.8-0.2,3.2-0.5,4.1-0.8c0-0.3,0-0.5,0-0.6
				c0-0.9-0.2-1.6-0.6-2c-0.6-0.5-1.5-0.8-2.6-0.8s-1.9,0.2-2.4,0.6s-0.9,1-1.1,2l-2.2-0.3c0.2-1,0.5-1.7,1-2.3c0.5-0.6,1.1-1,2-1.4
				c0.9-0.3,1.9-0.5,3.1-0.5c1.2,0,2.1,0.1,2.8,0.4s1.3,0.6,1.6,1s0.6,0.9,0.7,1.6c0.1,0.4,0.1,1.1,0.1,2.1v3.1c0,2.1,0,3.5,0.1,4
				c0.1,0.6,0.3,1.1,0.6,1.6h-2.4C145.5,115.5,145.3,114.9,145.2,114.3z M145,109.2c-0.8,0.3-2.1,0.6-3.7,0.9
				c-0.9,0.1-1.6,0.3-2,0.5s-0.7,0.4-0.9,0.7s-0.3,0.7-0.3,1.1c0,0.6,0.2,1.1,0.7,1.5s1.1,0.6,2,0.6s1.7-0.2,2.4-0.6
				s1.2-0.9,1.5-1.6c0.2-0.5,0.4-1.3,0.4-2.3L145,109.2L145,109.2z"/>
			<path d="M150.9,116v-13.5h2.1v2c0.5-1,1-1.6,1.5-1.9c0.4-0.3,0.9-0.5,1.5-0.5c0.8,0,1.6,0.2,2.4,0.7l-0.8,2.1
				c-0.6-0.3-1.1-0.5-1.7-0.5c-0.5,0-0.9,0.2-1.3,0.5c-0.4,0.3-0.7,0.7-0.9,1.3c-0.3,0.8-0.4,1.7-0.4,2.7v7.1
				C153.3,116,150.9,116,150.9,116z"/>
			<path d="M168.4,114.3c-0.8,0.7-1.7,1.2-2.4,1.5c-0.8,0.3-1.6,0.4-2.5,0.4c-1.5,0-2.6-0.4-3.4-1.1c-0.8-0.7-1.2-1.7-1.2-2.8
				c0-0.7,0.1-1.3,0.5-1.8c0.3-0.5,0.7-1,1.2-1.3s1-0.6,1.6-0.8c0.4-0.1,1.1-0.2,2-0.3c1.8-0.2,3.2-0.5,4.1-0.8c0-0.3,0-0.5,0-0.6
				c0-0.9-0.2-1.6-0.6-2c-0.6-0.5-1.5-0.8-2.6-0.8s-1.9,0.2-2.4,0.6s-0.9,1-1.1,2l-2.2-0.3c0.2-1,0.5-1.7,1-2.3c0.5-0.6,1.1-1,2-1.4
				c0.9-0.3,1.9-0.5,3.1-0.5c1.2,0,2.1,0.1,2.8,0.4s1.3,0.6,1.6,1s0.6,0.9,0.7,1.6c0.1,0.4,0.1,1.1,0.1,2.1v3.1c0,2.1,0,3.5,0.1,4
				c0.1,0.6,0.3,1.1,0.6,1.6H169C168.6,115.5,168.4,114.9,168.4,114.3z M168.2,109.2c-0.8,0.3-2.1,0.6-3.7,0.9
				c-0.9,0.1-1.6,0.3-2,0.5s-0.7,0.4-0.9,0.7c-0.2,0.3-0.3,0.7-0.3,1.1c0,0.6,0.2,1.1,0.7,1.5s1.1,0.6,2,0.6s1.7-0.2,2.4-0.6
				s1.2-0.9,1.5-1.6c0.2-0.5,0.4-1.3,0.4-2.3L168.2,109.2L168.2,109.2z"/>
			<path d="M182.9,111l2.3,0.3c-0.2,1.6-0.9,2.8-1.9,3.6c-1,0.9-2.3,1.3-3.7,1.3c-1.8,0-3.3-0.6-4.5-1.8c-1.1-1.2-1.7-2.9-1.7-5.2
				c0-1.5,0.2-2.7,0.7-3.8c0.5-1.1,1.2-1.9,2.2-2.5c1-0.5,2.1-0.8,3.2-0.8c1.5,0,2.7,0.4,3.6,1.1c0.9,0.7,1.5,1.8,1.8,3.2l-2.2,0.3
				c-0.2-0.9-0.6-1.6-1.1-2c-0.5-0.5-1.2-0.7-2-0.7c-1.2,0-2.1,0.4-2.8,1.2c-0.7,0.8-1.1,2.1-1.1,3.9s0.3,3.1,1,4
				c0.7,0.8,1.6,1.2,2.7,1.2c0.9,0,1.6-0.3,2.2-0.8C182.3,113,182.7,112.2,182.9,111z"/>
			<path d="M192.1,113.9l0.3,2c-0.6,0.1-1.2,0.2-1.7,0.2c-0.8,0-1.5-0.1-1.9-0.4c-0.5-0.3-0.8-0.6-1-1s-0.3-1.3-0.3-2.7v-7.8h-1.7
				v-1.8h1.7v-3.3l2.3-1.4v4.7h2.3v1.8h-2.3v7.9c0,0.7,0,1.1,0.1,1.3c0.1,0.2,0.2,0.3,0.4,0.4s0.4,0.2,0.8,0.2
				C191.3,114,191.6,114,192.1,113.9z"/>
			<path d="M203.5,111.6l2.4,0.3c-0.4,1.4-1.1,2.5-2.1,3.2c-1,0.8-2.3,1.1-3.9,1.1c-2,0-3.5-0.6-4.7-1.8c-1.2-1.2-1.7-2.9-1.7-5.1
				c0-2.3,0.6-4,1.8-5.3s2.7-1.9,4.6-1.9c1.8,0,3.3,0.6,4.4,1.8c1.1,1.2,1.7,3,1.7,5.2c0,0.1,0,0.3,0,0.6h-10.1
				c0.1,1.5,0.5,2.6,1.3,3.4s1.7,1.2,2.8,1.2c0.8,0,1.6-0.2,2.1-0.7C202.7,113.3,203.2,112.6,203.5,111.6z M196,107.9h7.5
				c-0.1-1.1-0.4-2-0.9-2.6c-0.7-0.9-1.7-1.3-2.8-1.3s-1.9,0.4-2.6,1.1C196.5,105.8,196.1,106.8,196,107.9z"/>
			<path d="M208.7,116v-13.5h2.1v2c0.5-1,1-1.6,1.5-1.9c0.4-0.3,0.9-0.5,1.5-0.5c0.8,0,1.6,0.2,2.4,0.7l-0.8,2.1
				c-0.6-0.3-1.1-0.5-1.7-0.5c-0.5,0-0.9,0.2-1.3,0.5c-0.4,0.3-0.7,0.7-0.9,1.3c-0.3,0.8-0.4,1.7-0.4,2.7v7.1
				C211.1,116,208.7,116,208.7,116z"/>
			<path d="M216.5,111.9l2.3-0.4c0.1,0.9,0.5,1.6,1.1,2.1s1.4,0.7,2.4,0.7c1.1,0,1.8-0.2,2.3-0.6s0.8-0.9,0.8-1.5
				c0-0.5-0.2-0.9-0.7-1.2c-0.3-0.2-1.1-0.5-2.3-0.8c-1.7-0.4-2.8-0.8-3.5-1.1c-0.6-0.3-1.1-0.7-1.5-1.3c-0.3-0.5-0.5-1.1-0.5-1.8
				c0-0.6,0.1-1.2,0.4-1.7c0.3-0.5,0.6-0.9,1.1-1.3c0.4-0.3,0.8-0.5,1.5-0.7c0.6-0.2,1.3-0.3,2-0.3c1.1,0,2,0.2,2.8,0.5
				s1.4,0.7,1.8,1.2c0.4,0.5,0.6,1.2,0.8,2.1l-2.2,0.3c-0.1-0.7-0.4-1.2-0.9-1.6s-1.2-0.6-2.1-0.6c-1.1,0-1.8,0.2-2.2,0.5
				s-0.7,0.8-0.7,1.2c0,0.3,0.1,0.6,0.3,0.8c0.2,0.2,0.5,0.4,0.9,0.6c0.2,0.1,0.9,0.3,2,0.6c1.6,0.4,2.7,0.8,3.4,1.1
				c0.6,0.3,1.1,0.7,1.5,1.2s0.5,1.2,0.5,2s-0.2,1.5-0.7,2.2c-0.4,0.7-1.1,1.2-1.9,1.6c-0.8,0.4-1.8,0.6-2.8,0.6
				c-1.8,0-3.1-0.4-4-1.1C217.4,114.5,216.8,113.4,216.5,111.9z"/>
			<path d="M237.1,110l2.3-0.2c0.1,0.9,0.4,1.7,0.8,2.3c0.4,0.6,1,1.1,1.9,1.4c0.8,0.4,1.8,0.6,2.9,0.6c0.9,0,1.8-0.1,2.5-0.4
				s1.3-0.7,1.6-1.2s0.5-1,0.5-1.6s-0.2-1.1-0.5-1.5s-0.9-0.8-1.7-1.1c-0.5-0.2-1.6-0.5-3.3-0.9s-2.9-0.8-3.6-1.2
				c-0.9-0.5-1.6-1-2-1.7s-0.7-1.5-0.7-2.3c0-0.9,0.3-1.8,0.8-2.6c0.5-0.8,1.3-1.4,2.3-1.9c1-0.4,2.2-0.6,3.4-0.6
				c1.4,0,2.6,0.2,3.7,0.7c1.1,0.4,1.9,1.1,2.4,2c0.6,0.9,0.9,1.8,0.9,2.9l-2.4,0.2c-0.1-1.2-0.6-2.1-1.3-2.7s-1.8-0.9-3.2-0.9
				c-1.5,0-2.6,0.3-3.3,0.8s-1,1.2-1,2c0,0.7,0.2,1.2,0.7,1.7c0.5,0.4,1.7,0.9,3.7,1.3c2,0.5,3.4,0.8,4.1,1.2
				c1.1,0.5,1.9,1.1,2.4,1.9s0.8,1.7,0.8,2.6c0,1-0.3,1.9-0.9,2.8c-0.6,0.9-1.4,1.6-2.4,2c-1.1,0.5-2.3,0.7-3.6,0.7
				c-1.7,0-3.1-0.2-4.2-0.7s-2-1.2-2.7-2.2C237.5,112.4,237.2,111.2,237.1,110z"/>
			<path d="M263.9,111l2.3,0.3c-0.2,1.6-0.9,2.8-1.9,3.6c-1,0.9-2.3,1.3-3.7,1.3c-1.8,0-3.3-0.6-4.5-1.8c-1.1-1.2-1.7-2.9-1.7-5.2
				c0-1.5,0.2-2.7,0.7-3.8c0.5-1.1,1.2-1.9,2.2-2.5c1-0.5,2.1-0.8,3.2-0.8c1.5,0,2.7,0.4,3.6,1.1s1.5,1.8,1.8,3.2l-2.2,0.3
				c-0.2-0.9-0.6-1.6-1.1-2c-0.5-0.5-1.2-0.7-2-0.7c-1.2,0-2.1,0.4-2.8,1.2c-0.7,0.8-1.1,2.1-1.1,3.9s0.3,3.1,1,4
				c0.7,0.8,1.6,1.2,2.7,1.2c0.9,0,1.6-0.3,2.2-0.8C263.3,113,263.7,112.2,263.9,111z"/>
			<path d="M276.9,114.3c-0.8,0.7-1.7,1.2-2.4,1.5c-0.8,0.3-1.6,0.4-2.5,0.4c-1.5,0-2.6-0.4-3.4-1.1s-1.2-1.7-1.2-2.8
				c0-0.7,0.1-1.3,0.5-1.8c0.3-0.5,0.7-1,1.2-1.3s1-0.6,1.6-0.8c0.4-0.1,1.1-0.2,2-0.3c1.8-0.2,3.2-0.5,4.1-0.8c0-0.3,0-0.5,0-0.6
				c0-0.9-0.2-1.6-0.6-2c-0.6-0.5-1.5-0.8-2.6-0.8s-1.9,0.2-2.4,0.6s-0.9,1-1.1,2l-2.2-0.3c0.2-1,0.5-1.7,1-2.3c0.5-0.6,1.1-1,2-1.4
				c0.9-0.3,1.9-0.5,3.1-0.5s2.1,0.1,2.8,0.4c0.7,0.3,1.3,0.6,1.6,1c0.3,0.4,0.6,0.9,0.7,1.6c0.1,0.4,0.1,1.1,0.1,2.1v3.1
				c0,2.1,0,3.5,0.1,4c0.1,0.6,0.3,1.1,0.6,1.6h-2.4C277.1,115.5,276.9,114.9,276.9,114.3z M276.7,109.2c-0.8,0.3-2.1,0.6-3.7,0.9
				c-0.9,0.1-1.6,0.3-2,0.5s-0.7,0.4-0.9,0.7c-0.2,0.3-0.3,0.7-0.3,1.1c0,0.6,0.2,1.1,0.7,1.5s1.1,0.6,2,0.6s1.7-0.2,2.4-0.6
				c0.7-0.4,1.2-0.9,1.5-1.6c0.2-0.5,0.4-1.3,0.4-2.3v-0.8H276.7z"/>
			<path d="M282.5,116V97.3h2.3V116H282.5z"/>
			<path d="M297.6,111.6l2.4,0.3c-0.4,1.4-1.1,2.5-2.1,3.2c-1,0.8-2.3,1.1-3.9,1.1c-2,0-3.5-0.6-4.7-1.8c-1.2-1.2-1.7-2.9-1.7-5.1
				c0-2.3,0.6-4,1.8-5.3s2.7-1.9,4.6-1.9c1.8,0,3.3,0.6,4.4,1.8c1.1,1.2,1.7,3,1.7,5.2c0,0.1,0,0.3,0,0.6H290
				c0.1,1.5,0.5,2.6,1.3,3.4s1.7,1.2,2.8,1.2c0.8,0,1.6-0.2,2.1-0.7C296.7,113.3,297.2,112.6,297.6,111.6z M290,107.9h7.5
				c-0.1-1.1-0.4-2-0.9-2.6c-0.7-0.9-1.7-1.3-2.8-1.3c-1.1,0-1.9,0.4-2.6,1.1C290.5,105.8,290.1,106.8,290,107.9z"/>
		</g>
	</g>
	<g>
		<path class="st0" d="M67.2,63.9c8.9,1.7,19.6,6.3,16.2,14.8C81.7,79.2,68.9,70.7,67.2,63.9z"/>
		<path class="st0" d="M42.9,27.6c-1.1,1.7,1.6,3,2.8,3c0.5,0,0.3-3,1.1-3.5c2.1-1.5,13.5-8,18.6-10.1c4.5-1.8,8.4-4,11-5.6
			c6.8-4.3,0.7-10.3-5-11.2c-8.9-1.3-15.3,9.2-21.8,11.6c-2.2-1.9-3.5-4.8-6.9-5.6c-0.3,6.6,3.7,12.9,8.9,15.8
			C47.7,24.8,44,25.9,42.9,27.6z M55.7,19.2C53,11.6,65.5-2.9,71.1,7.1C68,13,61.5,15.8,55.7,19.2z"/>
		<g>
			<path class="st0" d="M31,13.8c1.5-6.2-3-10.7-9.2-12.3c-2.2,3.9,2.4,7.3,2.2,11.7C23.9,14.1,30,17.9,31,13.8z"/>
			<path class="st0" d="M25.8,63.6c5.7-3.2,6.3-7.5,11.8-10.7c-7.5,7.3-5.1,17.4-12.6,23.5C16.4,69,16,50,20.7,35.6
				c1.5-4.4,6.3-0.8,6.3-0.8C25.4,44.4,22,53.4,25.8,63.6z"/>
		</g>
		<path d="M80.3,26.5c-7.9-0.2-30,6.4-30,6.4c-2.8,1.2-4.7,6.8-5.4,10.1s1.4,3.9,3.5,4c2.2,0.1,27.2-5.2,32.5-6.4
			c2-0.4,5.8-6.4,5.6-8.5C86.4,30,81.4,26.5,80.3,26.5z M73.6,35.7c-2.5,1.1-20.9,5.9-20.9,4.4c0.1-1.5,1.3-4.9,2.2-5.2
			c0,0,11.5-2.4,14.3-3.1C73.4,30.8,76.1,34.6,73.6,35.7z"/>
		<path class="st0" d="M42.7,51.9c0,0,43-12.2,40.3,0.5c-0.1,0.4-3.7-1-7.1-1.1s-31,5.4-31.6,5.3C41.9,55.8,40.5,51.9,42.7,51.9z"/>
		<path class="st0" d="M40.8,61.4c0,0,44.2-12,43.5-0.9c-0.1,2-6.5-1.9-12-0.9s-21.8,6.6-25.4,6.5C43.2,66,39,63.6,40.8,61.4z"/>
		<path class="st0" d="M60.1,24.7c0,0,1.4,17.5-0.1,26c-2.1,11.2-16.3,25.9-19.3,27.2c-3.1,1.3,6.6,0,12.9-4.1
			c13.9-9.1,14.7-36.3,14.2-51C67.7,20.4,59.3,24.3,60.1,24.7z"/>
		<path class="st0" d="M46.6,27.9c0,0,11.3-4.9,14.3-5.8c2.7-0.8,15.1-5.4,20.3-4.1c3.1,0.8,7.2,4.1,6.7,5.3
			c-0.4,1.1-1.9,0.1-6.3,0.1c-13.1-0.2-35.4,8.5-36.3,7C42.8,26.6,44.5,29.3,46.6,27.9z"/>
		<g>
			<path d="M150.7,48.4c-1.4-6.3,7.4-6.7,6.6-15.5c-7.1-1.7-21.6-2.9-23.2,4.4c5.5,0,11,0,16.6,0c-2.1,3.4-4.7,6.3-6.6,9.9
				c0.5,4.7,5.2,5.1,6.6,8.8c-7.4,4.4-16.1,7.4-18.8,16.6c10.8,12.6,30.7-1.6,32-15.5c4.9,0.1,9.8,0.2,9.9-4.4
				C163.3,49.1,152.9,58.3,150.7,48.4z M140.8,73.8c0.4-8.3,10.6-12,15.5-12.2C157.7,67.5,146.8,75.5,140.8,73.8z"/>
			<path d="M168.4,8.7C155,5,130.5,23.8,120.9,24.1c6.9-9.7,23.7-9.5,27.6-22.1c-3.8-2.2-12.8-1.4-15.5,1.1
				c-0.3,4.8,4.5,4.3,5.5,7.7c-9.2,6.3-25.4,11.3-26.5,22.1c14.9-9.1,35.7-12.1,54.1-17.7c1.1,1.5,3,2.2,3.3,4.4
				c0.5,4.5-2.3,5.8-4.4,7.7C182.2,33.5,177.8,11.2,168.4,8.7z"/>
		</g>
	</g>
</g>
</svg>
