<?xml version="1.0" encoding="utf-8"?>
<!-- Generator: Adobe Illustrator 26.5.3, SVG Export Plug-In . SVG Version: 6.00 Build 0)  -->
<svg version="1.1" id="圖層_1" xmlns="http://www.w3.org/2000/svg" xmlns:xlink="http://www.w3.org/1999/xlink" x="0px" y="0px"
	 viewBox="0 0 1200 1200" style="enable-background:new 0 0 1200 1200;" xml:space="preserve">
<style type="text/css">
	.st0{fill:#3D8138;}
	.st1{fill:#183E20;}
</style>
<g>
	<g>
		<path class="st0" d="M1086.9,490.8l81.7-69.9C1092.6,179.3,866.8,4,600,4c-84.4,0-164.7,17.6-237.5,49.2l7.3,105.6l-88-62.9
			C114.9,201.6,4,387.8,4,600c0,257.2,162.9,476.3,391.2,559.9L503,1001.5l57.3,193.2c13.1,0.9,26.4,1.4,39.8,1.4
			c329.2,0,596-266.8,596-596c0-31.8-2.5-63-7.3-93.5L1086.9,490.8z"/>
		<path class="st1" d="M600,1200c-12.9,0-26.3-0.5-40-1.4c-1.7-0.1-3.1-1.2-3.5-2.8l-54.9-185.1l-103.1,151.4
			c-1,1.5-2.9,2.1-4.7,1.5c-56.9-20.8-110.2-50.1-158.5-87.1c-47.8-36.6-89.7-80.1-124.6-129.1C38.3,845.5,0,725.4,0,600
			c0-103,26.6-204.7,76.8-293.9c48.7-86.5,118.9-160.3,202.9-213.5c1.4-0.9,3.1-0.8,4.4,0.1l81.2,58l-6.7-97.2
			c-0.1-1.7,0.8-3.2,2.4-3.9C436.6,16.7,517,0,600,0c65.7,0,130.3,10.6,192,31.4c59.6,20.1,115.6,49.5,166.2,87.3
			c50.1,37.3,93.9,82.1,130.2,132.9c36.8,51.5,65,108.1,84,168.2c0.5,1.5,0,3.2-1.2,4.2l-75.1,64.3l93.2,14.4
			c1.7,0.3,3.1,1.6,3.3,3.3c4.9,31,7.4,62.7,7.4,94.1c0,81-15.9,159.6-47.2,233.5c-30.2,71.4-73.5,135.6-128.6,190.7
			c-55.1,55.1-119.3,98.4-190.7,128.6C759.6,1184.1,681,1200,600,1200z M563.3,1190.9c12.6,0.8,24.9,1.2,36.7,1.2
			c326.5,0,592.1-265.6,592.1-592.1c0-30-2.3-60.3-6.8-90l-98.9-15.2c-1.5-0.2-2.8-1.3-3.2-2.8c-0.4-1.5,0.1-3.1,1.2-4.1l79.7-68.2
			C1085.4,173.3,859,7.9,600,7.9c-81,0-159.5,16.1-233.3,47.8l7.1,102.8c0.1,1.5-0.7,3-2,3.7c-1.3,0.8-3,0.7-4.2-0.2l-85.9-61.3
			C110.2,210.3,7.9,396.7,7.9,600c0,246.6,154.8,469.2,385.6,555.1l106.1-155.8c0.9-1.3,2.4-1.9,3.9-1.7c1.5,0.2,2.8,1.3,3.2,2.8
			L563.3,1190.9z"/>
	</g>
</g>
</svg>
