<?xml version="1.0" encoding="UTF-8"?>
<svg xmlns="http://www.w3.org/2000/svg" version="1.1" viewBox="0 0 42.6 389.6">
  <defs>
    <style>
      .cls-1 {
        fill: #b7dbe5;
      }
    </style>
  </defs>
  <!-- Generator: Adobe Illustrator 28.7.9, SVG Export Plug-In . SVG Version: 1.2.0 Build 218)  -->
  <g>
    <g id="_圖層_1" data-name="圖層_1">
      <g>
        <path class="cls-1" d="M6.2,9.5c-2.5,0-4.6-2.1-4.6-4.7S3.6,0,6.2,0s4.6,2.1,4.6,4.7-2.1,4.7-4.6,4.7Z"/>
        <path class="cls-1" d="M6.2,47.5c-2.5,0-4.6-2.1-4.6-4.7s2.1-4.7,4.6-4.7,4.6,2.1,4.6,4.7-2.1,4.7-4.6,4.7Z"/>
        <path class="cls-1" d="M6.2,85.4c-2.5,0-4.6-2.1-4.6-4.7s2.1-4.7,4.6-4.7,4.6,2.1,4.6,4.7-2.1,4.7-4.6,4.7Z"/>
        <path class="cls-1" d="M6.2,123.4c-2.5,0-4.6-2.1-4.6-4.7s2.1-4.7,4.6-4.7,4.6,2.1,4.6,4.7-2.1,4.7-4.6,4.7Z"/>
        <path class="cls-1" d="M6.2,161.3c-2.5,0-4.6-2.1-4.6-4.7s2.1-4.7,4.6-4.7,4.6,2.1,4.6,4.7-2.1,4.7-4.6,4.7Z"/>
        <path class="cls-1" d="M38,9.5c-2.5,0-4.6-2.1-4.6-4.7S35.5,0,38,0s4.6,2.1,4.6,4.7-2.1,4.7-4.6,4.7Z"/>
        <path class="cls-1" d="M38,47.5c-2.5,0-4.6-2.1-4.6-4.7s2.1-4.7,4.6-4.7,4.6,2.1,4.6,4.7-2.1,4.7-4.6,4.7Z"/>
        <path class="cls-1" d="M38,85.4c-2.5,0-4.6-2.1-4.6-4.7s2.1-4.7,4.6-4.7,4.6,2.1,4.6,4.7-2.1,4.7-4.6,4.7Z"/>
        <path class="cls-1" d="M38,123.4c-2.5,0-4.6-2.1-4.6-4.7s2.1-4.7,4.6-4.7,4.6,2.1,4.6,4.7-2.1,4.7-4.6,4.7Z"/>
        <path class="cls-1" d="M38,161.3c-2.5,0-4.6-2.1-4.6-4.7s2.1-4.7,4.6-4.7,4.6,2.1,4.6,4.7-2.1,4.7-4.6,4.7Z"/>
        <path class="cls-1" d="M4.6,199.8C2.1,199.8,0,197.6,0,195s2.1-4.7,4.6-4.7,4.6,2.1,4.6,4.7-2.1,4.7-4.6,4.7Z"/>
        <path class="cls-1" d="M4.6,237.7C2.1,237.7,0,235.6,0,233s2.1-4.7,4.6-4.7,4.6,2.1,4.6,4.7-2.1,4.7-4.6,4.7Z"/>
        <path class="cls-1" d="M4.6,275.7C2.1,275.7,0,273.6,0,270.9s2.1-4.7,4.6-4.7,4.6,2.1,4.6,4.7-2.1,4.7-4.6,4.7Z"/>
        <path class="cls-1" d="M4.6,313.6C2.1,313.6,0,311.5,0,308.9s2.1-4.7,4.6-4.7,4.6,2.1,4.6,4.7-2.1,4.7-4.6,4.7Z"/>
        <path class="cls-1" d="M4.6,351.6C2.1,351.6,0,349.5,0,346.9s2.1-4.7,4.6-4.7,4.6,2.1,4.6,4.7-2.1,4.7-4.6,4.7Z"/>
        <path class="cls-1" d="M4.6,389.6C2.1,389.6,0,387.4,0,384.8s2.1-4.7,4.6-4.7,4.6,2.1,4.6,4.7-2.1,4.7-4.6,4.7Z"/>
        <path class="cls-1" d="M36.5,199.8c-2.5,0-4.6-2.1-4.6-4.7s2.1-4.7,4.6-4.7,4.6,2.1,4.6,4.7-2.1,4.7-4.6,4.7Z"/>
        <path class="cls-1" d="M36.5,237.7c-2.5,0-4.6-2.1-4.6-4.7s2.1-4.7,4.6-4.7,4.6,2.1,4.6,4.7-2.1,4.7-4.6,4.7Z"/>
        <path class="cls-1" d="M36.5,275.7c-2.5,0-4.6-2.1-4.6-4.7s2.1-4.7,4.6-4.7,4.6,2.1,4.6,4.7-2.1,4.7-4.6,4.7Z"/>
        <path class="cls-1" d="M36.5,313.6c-2.5,0-4.6-2.1-4.6-4.7s2.1-4.7,4.6-4.7,4.6,2.1,4.6,4.7-2.1,4.7-4.6,4.7Z"/>
        <path class="cls-1" d="M36.5,351.6c-2.5,0-4.6-2.1-4.6-4.7s2.1-4.7,4.6-4.7,4.6,2.1,4.6,4.7-2.1,4.7-4.6,4.7Z"/>
        <path class="cls-1" d="M36.5,389.6c-2.5,0-4.6-2.1-4.6-4.7s2.1-4.7,4.6-4.7,4.6,2.1,4.6,4.7-2.1,4.7-4.6,4.7Z"/>
      </g>
    </g>
  </g>
</svg>