<?xml version="1.0" encoding="UTF-8"?>
<svg xmlns="http://www.w3.org/2000/svg" version="1.1" viewBox="0 0 80 265.7">
  <defs>
    <style>
      .cls-1 {
        fill: #b7dbe5;
      }
    </style>
  </defs>
  <!-- Generator: Adobe Illustrator 28.7.9, SVG Export Plug-In . SVG Version: 1.2.0 Build 218)  -->
  <g>
    <g id="_圖層_1" data-name="圖層_1">
      <g>
        <path class="cls-1" d="M80,8.9C65.1.8,47.9-2.7,31.3,2.4,21,5.6,11.6,12,5.8,21.3.6,29.7-1.2,40.2.8,49.9c0,0,0,.2,0,.2.2,3.2.6,6.4,1,9.6.9,6.5,2.1,13.1,3.2,19.5,2.4,13.6,5.1,27.2,7.7,40.8,1.3,6.9,2.6,13.7,3.9,20.6,1.2,6.2,2.3,12.5,3.8,18.6,1.4,5.6,3.3,11.2,6.5,16,3.1,4.7,7.4,8.4,12.5,10.8,10.5,5,22.6,4.2,33.3,0,2.5-1,4.9-2.1,7.2-3.3V8.9Z"/>
        <circle class="cls-1" cx="32.9" cy="241.3" r="24.4" transform="translate(-195.3 156.3) rotate(-61.8)"/>
      </g>
    </g>
  </g>
</svg>