<?xml version="1.0" encoding="UTF-8"?>
<svg xmlns="http://www.w3.org/2000/svg" version="1.1" viewBox="0 0 100 103.8">
  <defs>
    <style>
      .cls-1 {
        fill: #fff;
      }
    </style>
  </defs>
  <!-- Generator: Adobe Illustrator 28.7.9, SVG Export Plug-In . SVG Version: 1.2.0 Build 218)  -->
  <g>
    <g id="_圖層_1" data-name="圖層_1">
      <g>
        <polygon class="cls-1" points="32.4 20.8 20.9 20.8 20.9 32.4 11.5 32.4 11.5 20.8 0 20.8 0 11.5 11.5 11.5 11.5 0 20.9 0 20.9 11.5 32.4 11.5 32.4 20.8"/>
        <polygon class="cls-1" points="57.3 20.8 45.8 20.8 45.8 11.5 57.3 11.5 57.3 0 66.7 0 66.7 11.5 78.2 11.5 78.2 20.8 66.7 20.8 66.7 32.4 57.3 32.4 57.3 20.8"/>
        <polygon class="cls-1" points="89.6 48.8 100 48.8 100 58.2 89.6 58.2 89.6 69.7 80.3 69.7 80.3 58.2 68.7 58.2 68.7 48.8 80.3 48.8 80.3 37.3 89.6 37.3 89.6 48.8"/>
        <rect class="cls-1" x="91.6" y="11.5" width="8.4" height="9.3"/>
        <polygon class="cls-1" points="55.3 58.2 43.8 58.2 43.8 69.7 34.4 69.7 34.4 58.2 22.9 58.2 22.9 48.8 34.4 48.8 34.4 37.3 43.8 37.3 43.8 48.8 55.3 48.8 55.3 58.2"/>
        <polygon class="cls-1" points="66.7 82.9 78.2 82.9 78.2 92.2 66.7 92.2 66.7 103.8 57.3 103.8 57.3 92.2 45.8 92.2 45.8 82.9 57.3 82.9 57.3 71.4 66.7 71.4 66.7 82.9"/>
      </g>
    </g>
  </g>
</svg>