<?xml version="1.0" encoding="UTF-8"?>
<svg xmlns="http://www.w3.org/2000/svg" version="1.1" viewBox="0 0 100 350.3">
  <defs>
    <style>
      .cls-1 {
        fill: #fff6ee;
      }
    </style>
  </defs>
  <!-- Generator: Adobe Illustrator 28.7.9, SVG Export Plug-In . SVG Version: 1.2.0 Build 218)  -->
  <g>
    <g id="_圖層_1" data-name="圖層_1">
      <g>
        <g>
          <path class="cls-1" d="M.9,78.1c6.7,6.5,17.2,6.5,23.9,0,7.2-7,18.4-7,25.6,0,6.7,6.5,17.2,6.5,23.9,0,7.2-7,18.4-7,25.6,0l.3.3-.9.9-.3-.3c-6.7-6.5-17.2-6.5-23.9,0-3.6,3.5-8.2,5.2-12.8,5.2s-9.2-1.7-12.8-5.2c-6.7-6.5-17.2-6.5-23.9,0-3.5,3.4-8,5.2-12.8,5.2s-9.3-1.9-12.8-5.2"/>
          <path class="cls-1" d="M.9,63.5c6.7,6.5,17.2,6.5,23.9,0,7.2-7,18.4-7,25.6,0,6.7,6.5,17.2,6.5,23.9,0,7.2-7,18.4-7,25.6,0l.3.3-.9.9-.3-.3c-6.7-6.5-17.2-6.5-23.9,0-7.2,7-18.4,7-25.6,0-6.7-6.5-17.2-6.5-23.9,0-3.5,3.4-8,5.2-12.8,5.2s-9.3-1.9-12.8-5.2"/>
          <path class="cls-1" d="M.9,49c6.7,6.5,17.2,6.5,23.9,0,7.2-7,18.4-7,25.6,0,6.7,6.5,17.2,6.5,23.9,0,7.2-7,18.4-7,25.6,0l.3.3-.9.9-.3-.3c-6.7-6.5-17.2-6.5-23.9,0-3.6,3.5-8.2,5.2-12.8,5.2s-9.2-1.7-12.8-5.2c-6.7-6.5-17.2-6.5-23.9,0-3.5,3.4-8,5.2-12.8,5.2s-9.3-1.9-12.8-5.2"/>
          <path class="cls-1" d="M.9,5.2c6.7,6.5,17.2,6.5,23.9,0,7.2-7,18.4-7,25.6,0,6.7,6.5,17.2,6.5,23.9,0,7.2-7,18.4-7,25.6,0l.3.3-.9.9-.3-.3c-6.7-6.5-17.2-6.5-23.9,0-7.2,7-18.4,7-25.6,0C42.7-.4,32.3-.4,25.6,6.1c-3.5,3.4-8,5.2-12.8,5.2S3.5,9.5,0,6.1"/>
          <path class="cls-1" d="M.9,19.8c6.7,6.5,17.2,6.5,23.9,0,7.2-7,18.4-7,25.6,0,6.7,6.5,17.2,6.5,23.9,0,7.2-7,18.4-7,25.6,0l.3.3-.9.9-.3-.3c-6.7-6.5-17.2-6.5-23.9,0-7.2,7-18.4,7-25.6,0-6.7-6.5-17.2-6.5-23.9,0-3.5,3.4-8,5.2-12.8,5.2s-9.3-1.9-12.8-5.2"/>
          <path class="cls-1" d="M.9,34.4c6.7,6.5,17.2,6.5,23.9,0,7.2-7,18.4-7,25.6,0,6.7,6.5,17.2,6.5,23.9,0,7.2-7,18.4-7,25.6,0l.3.2-.9.9-.3-.3c-6.7-6.5-17.2-6.5-23.9,0-3.6,3.5-8.2,5.2-12.8,5.2s-9.2-1.7-12.8-5.2c-6.7-6.5-17.2-6.5-23.9,0-3.5,3.4-8,5.2-12.8,5.2s-9.3-1.9-12.8-5.2"/>
          <path class="cls-1" d="M.9,166.9c6.7,6.5,17.2,6.5,23.9,0,7.2-7,18.4-7,25.6,0,6.7,6.5,17.2,6.5,23.9,0,7.2-7,18.4-7,25.6,0l.3.3-.9.9-.3-.3c-6.7-6.5-17.2-6.5-23.9,0-3.6,3.5-8.2,5.2-12.8,5.2s-9.2-1.7-12.8-5.2c-6.7-6.5-17.2-6.5-23.9,0-3.5,3.4-8,5.2-12.8,5.2s-9.3-1.9-12.8-5.2"/>
          <path class="cls-1" d="M.9,152.3c6.7,6.5,17.2,6.5,23.9,0,7.2-7,18.4-7,25.6,0,6.7,6.5,17.2,6.5,23.9,0,7.2-7,18.4-7,25.6,0l.3.3-.9.9-.3-.3c-6.7-6.5-17.2-6.5-23.9,0-7.2,7-18.4,7-25.6,0-6.7-6.5-17.2-6.5-23.9,0-3.5,3.4-8,5.2-12.8,5.2s-9.3-1.9-12.8-5.2"/>
          <path class="cls-1" d="M.9,137.8c6.7,6.5,17.2,6.5,23.9,0,7.2-7,18.4-7,25.6,0,6.7,6.5,17.2,6.5,23.9,0,7.2-7,18.4-7,25.6,0l.3.3-.9.9-.3-.3c-6.7-6.5-17.2-6.5-23.9,0-3.6,3.5-8.2,5.2-12.8,5.2s-9.2-1.7-12.8-5.2c-6.7-6.5-17.2-6.5-23.9,0-3.5,3.4-8,5.2-12.8,5.2s-9.3-1.9-12.8-5.2"/>
          <path class="cls-1" d="M.9,94c6.7,6.5,17.2,6.5,23.9,0,7.2-7,18.4-7,25.6,0,6.7,6.5,17.2,6.5,23.9,0,7.2-7,18.4-7,25.6,0l.3.3-.9.9-.3-.3c-6.7-6.5-17.2-6.5-23.9,0-7.2,7-18.4,7-25.6,0-6.7-6.5-17.2-6.5-23.9,0-3.5,3.4-8,5.2-12.8,5.2s-9.3-1.9-12.8-5.2"/>
          <path class="cls-1" d="M.9,108.6c6.7,6.5,17.2,6.5,23.9,0,7.2-7,18.4-7,25.6,0,6.7,6.5,17.2,6.5,23.9,0,7.2-7,18.4-7,25.6,0l.3.3-.9.9-.3-.3c-6.7-6.5-17.2-6.5-23.9,0-7.2,7-18.4,7-25.6,0-6.7-6.5-17.2-6.5-23.9,0-3.5,3.4-8,5.2-12.8,5.2s-9.3-1.9-12.8-5.2"/>
          <path class="cls-1" d="M.9,123.2c6.7,6.5,17.2,6.5,23.9,0,7.2-7,18.4-7,25.6,0,6.7,6.5,17.2,6.5,23.9,0,7.2-7,18.4-7,25.6,0l.3.2-.9.9-.3-.3c-6.7-6.5-17.2-6.5-23.9,0-3.6,3.5-8.2,5.2-12.8,5.2s-9.2-1.7-12.8-5.2c-6.7-6.5-17.2-6.5-23.9,0-3.5,3.4-8,5.2-12.8,5.2s-9.3-1.9-12.8-5.2"/>
        </g>
        <g>
          <path class="cls-1" d="M.9,255.4c6.7,6.5,17.2,6.5,23.9,0,7.2-7,18.4-7,25.6,0,6.7,6.5,17.2,6.5,23.9,0,7.2-7,18.4-7,25.6,0l.3.3-.9.9-.3-.3c-6.7-6.5-17.2-6.5-23.9,0-3.6,3.5-8.2,5.2-12.8,5.2s-9.2-1.7-12.8-5.2c-6.7-6.5-17.2-6.5-23.9,0-3.5,3.4-8,5.2-12.8,5.2s-9.3-1.9-12.8-5.2"/>
          <path class="cls-1" d="M.9,240.8c6.7,6.5,17.2,6.5,23.9,0,7.2-7,18.4-7,25.6,0,6.7,6.5,17.2,6.5,23.9,0,7.2-7,18.4-7,25.6,0l.3.3-.9.9-.3-.3c-6.7-6.5-17.2-6.5-23.9,0-7.2,7-18.4,7-25.6,0-6.7-6.5-17.2-6.5-23.9,0-3.5,3.4-8,5.2-12.8,5.2s-9.3-1.9-12.8-5.2"/>
          <path class="cls-1" d="M.9,226.2c6.7,6.5,17.2,6.5,23.9,0,7.2-7,18.4-7,25.6,0,6.7,6.5,17.2,6.5,23.9,0,7.2-7,18.4-7,25.6,0l.3.3-.9.9-.3-.3c-6.7-6.5-17.2-6.5-23.9,0-3.6,3.5-8.2,5.2-12.8,5.2s-9.2-1.7-12.8-5.2c-6.7-6.5-17.2-6.5-23.9,0-3.5,3.4-8,5.2-12.8,5.2s-9.3-1.9-12.8-5.2"/>
          <path class="cls-1" d="M.9,182.5c6.7,6.5,17.2,6.5,23.9,0,7.2-7,18.4-7,25.6,0,6.7,6.5,17.2,6.5,23.9,0,7.2-7,18.4-7,25.6,0l.3.3-.9.9-.3-.3c-6.7-6.5-17.2-6.5-23.9,0-7.2,7-18.4,7-25.6,0-6.7-6.5-17.2-6.5-23.9,0-3.5,3.4-8,5.2-12.8,5.2s-9.3-1.9-12.8-5.2"/>
          <path class="cls-1" d="M.9,197.1c6.7,6.5,17.2,6.5,23.9,0,7.2-7,18.4-7,25.6,0,6.7,6.5,17.2,6.5,23.9,0,7.2-7,18.4-7,25.6,0l.3.3-.9.9-.3-.3c-6.7-6.5-17.2-6.5-23.9,0-7.2,7-18.4,7-25.6,0-6.7-6.5-17.2-6.5-23.9,0-3.5,3.4-8,5.2-12.8,5.2s-9.3-1.9-12.8-5.2"/>
          <path class="cls-1" d="M.9,211.6c6.7,6.5,17.2,6.5,23.9,0,7.2-7,18.4-7,25.6,0,6.7,6.5,17.2,6.5,23.9,0,7.2-7,18.4-7,25.6,0l.3.2-.9.9-.3-.3c-6.7-6.5-17.2-6.5-23.9,0-3.6,3.5-8.2,5.2-12.8,5.2s-9.2-1.7-12.8-5.2c-6.7-6.5-17.2-6.5-23.9,0-3.5,3.4-8,5.2-12.8,5.2s-9.3-1.9-12.8-5.2"/>
          <path class="cls-1" d="M.9,344.2c6.7,6.5,17.2,6.5,23.9,0,7.2-7,18.4-7,25.6,0,6.7,6.5,17.2,6.5,23.9,0,7.2-7,18.4-7,25.6,0l.3.3-.9.9-.3-.3c-6.7-6.5-17.2-6.5-23.9,0-3.6,3.5-8.2,5.2-12.8,5.2s-9.2-1.7-12.8-5.2c-6.7-6.5-17.2-6.5-23.9,0-3.5,3.4-8,5.2-12.8,5.2s-9.3-1.9-12.8-5.2"/>
          <path class="cls-1" d="M.9,329.6c6.7,6.5,17.2,6.5,23.9,0,7.2-7,18.4-7,25.6,0,6.7,6.5,17.2,6.5,23.9,0,7.2-7,18.4-7,25.6,0l.3.3-.9.9-.3-.3c-6.7-6.5-17.2-6.5-23.9,0-7.2,7-18.4,7-25.6,0-6.7-6.5-17.2-6.5-23.9,0-3.5,3.4-8,5.2-12.8,5.2s-9.3-1.9-12.8-5.2"/>
          <path class="cls-1" d="M.9,315c6.7,6.5,17.2,6.5,23.9,0,7.2-7,18.4-7,25.6,0,6.7,6.5,17.2,6.5,23.9,0,7.2-7,18.4-7,25.6,0l.3.3-.9.9-.3-.3c-6.7-6.5-17.2-6.5-23.9,0-3.6,3.5-8.2,5.2-12.8,5.2s-9.2-1.7-12.8-5.2c-6.7-6.5-17.2-6.5-23.9,0-3.5,3.4-8,5.2-12.8,5.2s-9.3-1.9-12.8-5.2"/>
          <path class="cls-1" d="M.9,271.3c6.7,6.5,17.2,6.5,23.9,0,7.2-7,18.4-7,25.6,0,6.7,6.5,17.2,6.5,23.9,0,7.2-7,18.4-7,25.6,0l.3.3-.9.9-.3-.3c-6.7-6.5-17.2-6.5-23.9,0-7.2,7-18.4,7-25.6,0-6.7-6.5-17.2-6.5-23.9,0-3.5,3.4-8,5.2-12.8,5.2s-9.3-1.9-12.8-5.2"/>
          <path class="cls-1" d="M.9,285.9c6.7,6.5,17.2,6.5,23.9,0,7.2-7,18.4-7,25.6,0,6.7,6.5,17.2,6.5,23.9,0,7.2-7,18.4-7,25.6,0l.3.3-.9.9-.3-.3c-6.7-6.5-17.2-6.5-23.9,0-7.2,7-18.4,7-25.6,0-6.7-6.5-17.2-6.5-23.9,0-3.5,3.4-8,5.2-12.8,5.2s-9.3-1.9-12.8-5.2"/>
          <path class="cls-1" d="M.9,300.4c6.7,6.5,17.2,6.5,23.9,0,7.2-7,18.4-7,25.6,0,6.7,6.5,17.2,6.5,23.9,0,7.2-7,18.4-7,25.6,0l.3.2-.9.9-.3-.3c-6.7-6.5-17.2-6.5-23.9,0-3.6,3.5-8.2,5.2-12.8,5.2s-9.2-1.7-12.8-5.2c-6.7-6.5-17.2-6.5-23.9,0-3.5,3.4-8,5.2-12.8,5.2s-9.3-1.9-12.8-5.2"/>
        </g>
      </g>
    </g>
  </g>
</svg>