<?xml version="1.0" encoding="utf-8"?>
<!-- Generator: Adobe Illustrator 26.5.3, SVG Export Plug-In . SVG Version: 6.00 Build 0)  -->
<svg version="1.1" id="圖層_1" xmlns="http://www.w3.org/2000/svg" xmlns:xlink="http://www.w3.org/1999/xlink" x="0px" y="0px"
	 viewBox="0 0 640 457.8" style="enable-background:new 0 0 640 457.8;" xml:space="preserve">
<style type="text/css">
	.st0{fill:#FFFFFF;}
</style>
<path class="st0" d="M533.6,5.4C598.5,58.2,640,138.7,640,228.9s-41.5,170.8-106.4,223.5c-10.3,8.4-25.4,6.8-33.8-3.5
	s-6.8-25.4,3.5-33.8c54.2-44,88.7-111,88.7-186.2S557.5,86.7,503.3,42.6c-10.3-8.4-11.8-23.5-3.5-33.8S523.3-3,533.6,5.3V5.4z
	 M473.1,79.9c43.2,35.2,70.9,88.9,70.9,149s-27.7,113.8-70.9,149c-10.3,8.4-25.4,6.8-33.8-3.5c-8.4-10.3-6.8-25.4,3.5-33.8
	C475.3,314.2,496,274,496,228.9s-20.7-85.3-53.2-111.8c-10.3-8.4-11.8-23.5-3.5-33.8s23.5-11.8,33.8-3.5L473.1,79.9z M412.6,154.4
	c21.5,17.6,35.4,44.4,35.4,74.5s-13.9,56.9-35.4,74.5c-10.3,8.4-25.4,6.8-33.8-3.5c-8.4-10.3-6.8-25.4,3.5-33.8
	c10.8-8.8,17.7-22.2,17.7-37.2c0-15-6.9-28.4-17.7-37.3c-10.3-8.4-11.8-23.5-3.5-33.8c8.3-10.3,23.5-11.8,33.8-3.5L412.6,154.4z
	 M301.1,7.7c11.5,5.2,18.9,16.6,18.9,29.2v384c0,12.6-7.4,24-18.9,29.2s-25,3.1-34.4-5.3L131.8,324.9H64c-35.3,0-64-28.7-64-64v-64
	c0-35.3,28.7-64,64-64h67.8L266.7,13C276.1,4.6,289.6,2.6,301.1,7.7z"/>
</svg>
