<?xml version="1.0" encoding="utf-8"?>
<!-- Generator: Adobe Illustrator 26.2.1, SVG Export Plug-In . SVG Version: 6.00 Build 0)  -->
<svg version="1.1" id="圖層_1" xmlns="http://www.w3.org/2000/svg" xmlns:xlink="http://www.w3.org/1999/xlink" x="0px" y="0px"
	 viewBox="0 0 75 75" style="enable-background:new 0 0 75 75;" xml:space="preserve">
<style type="text/css">
	.st0{fill:#EC6C00;}
</style>
<g>
	<path class="st0" d="M72.5,76.5c-0.7,0-1.3-0.3-1.8-0.8L0.7,2.7c-1-1-0.9-2.6,0.1-3.5c1-1,2.6-0.9,3.5,0.1l70,73.1
		c1,1,0.9,2.6-0.1,3.5C73.7,76.3,73.1,76.5,72.5,76.5z"/>
	<path class="st0" d="M2.5,76.5c-0.6,0-1.2-0.2-1.7-0.7c-1-1-1-2.5-0.1-3.5l70-73.1c1-1,2.5-1,3.5-0.1c1,1,1,2.5,0.1,3.5l-70,73.1
		C3.8,76.3,3.2,76.5,2.5,76.5z"/>
</g>
</svg>
