<?xml version="1.0" encoding="utf-8"?>
<!-- Generator: Adobe Illustrator 26.2.1, SVG Export Plug-In . SVG Version: 6.00 Build 0)  -->
<svg version="1.1" id="圖層_1" xmlns="http://www.w3.org/2000/svg" xmlns:xlink="http://www.w3.org/1999/xlink" x="0px" y="0px"
	 viewBox="0 0 75 75" style="enable-background:new 0 0 75 75;" xml:space="preserve">
<style type="text/css">
	.st0{fill:#EC6C00;}
</style>
<g>
	<g>
		<polygon class="st0" points="37.2,11.2 17.8,27.8 17.8,27.7 4,27.7 4,33.8 4,41.2 4,47.3 17.8,47.3 17.8,47.2 37.2,63.8 
			42.2,63.8 42.2,41.2 42.2,33.8 42.2,11.2 		"/>
		<path class="st0" d="M42.2,66.3h-5c-0.6,0-1.2-0.2-1.6-0.6L17,49.8H4c-1.4,0-2.5-1.1-2.5-2.5V27.7c0-1.4,1.1-2.5,2.5-2.5h13
			L35.6,9.3c0.5-0.4,1-0.6,1.6-0.6h5c1.4,0,2.5,1.1,2.5,2.5v52.6C44.7,65.2,43.6,66.3,42.2,66.3z M38.1,61.3h1.6V13.7h-1.6l-18.6,16
			c-0.6,0.5-1.5,0.7-2.2,0.5H6.5v14.6h10.9c0.7-0.1,1.5,0,2.1,0.5L38.1,61.3z"/>
	</g>
	<path class="st0" d="M52.4,51c-0.6,0-1.2-0.2-1.7-0.7c-1-1-1-2.5-0.1-3.5c8.8-9.2,0.4-18.2,0-18.6c-1-1-0.9-2.6,0.1-3.5
		c1-1,2.6-0.9,3.5,0.1c4.2,4.4,9.6,15.4,0,25.5C53.8,50.7,53.1,51,52.4,51z"/>
	<path class="st0" d="M62.2,60.7c-0.6,0-1.2-0.2-1.7-0.7c-1-1-1-2.5-0.1-3.5c17.9-18.8,0.7-37.2,0-37.9c-1-1-0.9-2.6,0.1-3.5
		c1-1,2.6-0.9,3.5,0.1c0.2,0.2,21.2,22.6,0,44.8C63.5,60.4,62.9,60.7,62.2,60.7z"/>
</g>
<path class="st0" d="M72.5,59.6c-0.4,0-0.8-0.1-1.2-0.3l-70-39.2c-1.2-0.7-1.6-2.2-1-3.4c0.7-1.2,2.2-1.6,3.4-1l70,39.2
	c1.2,0.7,1.6,2.2,1,3.4C74.2,59.1,73.4,59.6,72.5,59.6z"/>
</svg>
