<?xml version="1.0" encoding="utf-8"?>
<!-- Generator: Adobe Illustrator 26.2.1, SVG Export Plug-In . SVG Version: 6.00 Build 0)  -->
<svg version="1.1" id="圖層_1" xmlns="http://www.w3.org/2000/svg" xmlns:xlink="http://www.w3.org/1999/xlink" x="0px" y="0px"
	 viewBox="0 0 75 75" style="enable-background:new 0 0 75 75;" xml:space="preserve">
<style type="text/css">
	.st0{fill:#EC6C00;}
</style>
<g>
	<g>
		<circle class="st0" cx="38.3" cy="21.1" r="2.8"/>
	</g>
	<g>
		<path class="st0" d="M22.3,37.7l-0.8,2.7c0,0,7.9,0,10.5,0c0,2.5,0,9.1,0,9.1s12.5,0,15.7,0C47.2,52,45,56.8,35,59l-1.7,0.4V61
			c0,1.7,0.2,7.6,2.8,9.9L36,70.8c0.1,0.1,2.9,3.4,8.5,4.2l0.1,0h18.3v-4.2c0,0-17.5,0-17.9,0c-3.9-0.6-5.8-2.7-5.8-2.8L39.1,68
			L39,67.9c-0.7-0.6-1.1-3-1.3-5.3C50.7,59,52,50.8,52,48c0-0.6-0.1-0.9-0.1-1l-0.3-1.8c0,0-12.4,0-15.5,0c0-2.5,0-9.1,0-9.1
			s-6.2,0-9,0c1.3-4.3,7.1-23.3,7.1-23.3l-4-1.2L22.3,37.7z"/>
	</g>
	<g>
		<path class="st0" d="M57.3,15.9C57.3,15.8,57.3,15.8,57.3,15.9c-0.1-0.1-0.1-0.2-0.2-0.2L57.3,15.9z"/>
	</g>
	<g>
		<path class="st0" d="M61,11.8c-0.3-0.1-0.6-0.1-0.9-0.2l-0.1,0H30.3v4.2c0,0,28.8,0,29.2,0c0.7,0.1,1.4,0.3,2,0.5
			C61.6,14.8,61.3,13.3,61,11.8z"/>
	</g>
	<g>
		<path class="st0" d="M24.4,66.3c-0.6,0-1.3-0.2-1.8-0.7c-3.7-3.6-5.4-7.4-5-11.1c0.5-5.4,5.2-8.5,5.4-8.7c1.2-0.8,2.7-0.4,3.5,0.7
			c0.8,1.1,0.4,2.7-0.7,3.5c-0.1,0.1-2.9,2-3.2,5c-0.2,2.2,1,4.6,3.5,7.1c1,1,1,2.6,0,3.5C25.7,66.1,25,66.3,24.4,66.3z"/>
		<path class="st0" d="M17.6,69.8c-0.6,0-1.3-0.2-1.8-0.7c-5-5-7.3-10-6.8-15.1c0.7-7.2,7-11.4,7.2-11.6c1.2-0.8,2.7-0.4,3.5,0.7
			c0.8,1.1,0.4,2.7-0.7,3.5c-0.1,0.1-4.6,3.2-5,8c-0.3,3.5,1.5,7.2,5.4,11c1,1,1,2.6,0,3.5C18.9,69.5,18.2,69.8,17.6,69.8z"/>
		<path class="st0" d="M11.2,75c-0.6,0-1.3-0.2-1.8-0.7c-7.1-7-10.3-14.1-9.6-21.1c1-10,9.6-15.8,10-16.1c1.2-0.8,2.7-0.4,3.5,0.7
			c0.8,1.1,0.4,2.7-0.7,3.5c-0.1,0.1-7.1,4.8-7.8,12.4C4.3,59.2,7,64.9,13,70.7c1,1,1,2.6,0,3.5C12.5,74.8,11.8,75,11.2,75z"/>
	</g>
	<g>
		<polygon class="st0" points="28.6,16 20.5,1 72.7,0 72.8,4 27.2,4.9 32.2,14.1 		"/>
	</g>
</g>
</svg>
