<?xml version="1.0" encoding="utf-8"?>
<!-- Generator: Adobe Illustrator 26.2.1, SVG Export Plug-In . SVG Version: 6.00 Build 0)  -->
<svg version="1.1" id="圖層_1" xmlns="http://www.w3.org/2000/svg" xmlns:xlink="http://www.w3.org/1999/xlink" x="0px" y="0px"
	 viewBox="0 0 75 75" style="enable-background:new 0 0 75 75;" xml:space="preserve">
<style type="text/css">
	.st0{fill:#EC6C00;}
</style>
<g>
	<path class="st0" d="M72.5,73.8H48.3c-1.4,0-2.5-1.1-2.5-2.5s1.1-2.5,2.5-2.5H70V46.5c0-1.4,1.1-2.5,2.5-2.5s2.5,1.1,2.5,2.5v24.7
		C75,72.6,73.9,73.8,72.5,73.8z"/>
	<path class="st0" d="M26.7,73.8H2.5c-1.4,0-2.5-1.1-2.5-2.5V46.5C0,45.1,1.1,44,2.5,44S5,45.1,5,46.5v22.2h21.7
		c1.4,0,2.5,1.1,2.5,2.5S28.1,73.8,26.7,73.8z"/>
	<path class="st0" d="M2.5,31C1.1,31,0,29.9,0,28.5V3.7c0-1.4,1.1-2.5,2.5-2.5h24.2c1.4,0,2.5,1.1,2.5,2.5s-1.1,2.5-2.5,2.5H5v22.2
		C5,29.9,3.9,31,2.5,31z"/>
	<path class="st0" d="M72.5,31c-1.4,0-2.5-1.1-2.5-2.5V6.2H48.3c-1.4,0-2.5-1.1-2.5-2.5s1.1-2.5,2.5-2.5h24.2c1.4,0,2.5,1.1,2.5,2.5
		v24.7C75,29.9,73.9,31,72.5,31z"/>
</g>
</svg>
