<?xml version="1.0" encoding="utf-8"?>
<!-- Generator: Adobe Illustrator 26.2.1, SVG Export Plug-In . SVG Version: 6.00 Build 0)  -->
<svg version="1.1" id="圖層_1" xmlns="http://www.w3.org/2000/svg" xmlns:xlink="http://www.w3.org/1999/xlink" x="0px" y="0px"
	 viewBox="0 0 75 75" style="enable-background:new 0 0 75 75;" xml:space="preserve">
<style type="text/css">
	.st0{fill:#EC6C00;}
</style>
<g>
	<g>
		<polygon class="st0" points="37.2,10.2 17.1,27.4 17.1,27.3 2.7,27.3 2.7,33.6 2.7,41.4 2.7,47.7 17.1,47.7 17.1,47.6 37.2,64.8 
			42.4,64.8 42.4,41.4 42.4,33.6 42.4,10.2 		"/>
		<path class="st0" d="M42.4,67.4h-5.2c-0.6,0-1.2-0.2-1.7-0.6L16.2,50.3H2.7c-1.4,0-2.6-1.2-2.6-2.6V27.3c0-1.4,1.2-2.6,2.6-2.6
			h13.5L35.5,8.2c0.5-0.4,1.1-0.6,1.7-0.6h5.2c1.4,0,2.6,1.2,2.6,2.6v54.6C45,66.2,43.8,67.4,42.4,67.4z M38.1,62.2h1.7V12.8h-1.7
			L18.8,29.4c-0.6,0.6-1.5,0.7-2.3,0.5H5.3v15.2h11.3c0.8-0.1,1.6,0,2.2,0.5L38.1,62.2z"/>
	</g>
	<path class="st0" d="M53,51.5c-0.6,0-1.3-0.2-1.8-0.7c-1-1-1.1-2.6-0.1-3.7c9.1-9.6,0.4-18.9,0-19.3c-1-1-1-2.7,0.1-3.7
		c1-1,2.7-1,3.7,0.1c4.4,4.6,10,15.9,0,26.4C54.4,51.3,53.7,51.5,53,51.5z"/>
	<path class="st0" d="M63.2,61.6c-0.6,0-1.3-0.2-1.8-0.7c-1-1-1.1-2.6-0.1-3.7c18.6-19.5,0.8-38.6,0-39.4c-1-1-1-2.7,0.1-3.7
		c1-1,2.7-1,3.7,0.1c0.2,0.2,22,23.4,0,46.5C64.5,61.3,63.8,61.6,63.2,61.6z"/>
</g>
</svg>
