<?xml version="1.0" encoding="utf-8"?>
<!-- Generator: Adobe Illustrator 26.5.3, SVG Export Plug-In . SVG Version: 6.00 Build 0)  -->
<svg version="1.1" id="圖層_1" xmlns="http://www.w3.org/2000/svg" xmlns:xlink="http://www.w3.org/1999/xlink" x="0px" y="0px"
	 viewBox="0 0 75 75" style="enable-background:new 0 0 75 75;" xml:space="preserve">
<style type="text/css">
	.st0{fill:#808080;}
</style>
<g>
	<path class="st0" d="M37.5,1.2C16.8,1.2,0,17.5,0,37.4c0,9.2,3.5,17.8,9.9,24.5l-6.3,7.8C3,70.5,3,71.6,3.4,72.5
		c0.4,0.8,1.3,1.3,2.2,1.3c0.1,0,0.2,0,0.3,0l19.2-2.2c4,1.3,8.1,2,12.4,2c5.3,0,10.4-1,15.2-3.1c1.3-0.5,1.9-2,1.3-3.3
		s-2-1.9-3.3-1.3c-4.2,1.8-8.6,2.7-13.2,2.7c-3.9,0-7.7-0.6-11.3-1.9c-0.4-0.2-0.9-0.2-1.3-0.1c-0.1,0-0.1,0-0.2,0l-13.3,1.5
		l3.9-4.8c0,0,0.1-0.1,0.1-0.1c0.1-0.1,0.1-0.1,0.1-0.2c0-0.1,0.1-0.1,0.1-0.2c0-0.1,0.1-0.2,0.1-0.2c0-0.1,0-0.2,0.1-0.2
		c0-0.1,0-0.2,0-0.2c0-0.1,0-0.2,0-0.2c0-0.1,0-0.2,0-0.2c0-0.1,0-0.2,0-0.2c0-0.1,0-0.2,0-0.2c0-0.1,0-0.1-0.1-0.2
		c0-0.1-0.1-0.2-0.1-0.2c0-0.1-0.1-0.1-0.1-0.2c0-0.1-0.1-0.1-0.1-0.2s-0.1-0.1-0.2-0.2c0,0-0.1-0.1-0.1-0.1C8.6,54,5,46,5,37.4
		C5,20.2,19.6,6.2,37.5,6.2S70,20.2,70,37.4c0,6.5-2.1,12.7-5.9,18c-0.8,1.1-0.6,2.7,0.5,3.5c1.1,0.8,2.7,0.6,3.5-0.5
		c4.5-6.1,6.9-13.4,6.9-20.9C75,17.5,58.2,1.2,37.5,1.2z"/>
	<g>
		<path class="st0" d="M54.2,28.7H20.8c-1.4,0-2.5-1.1-2.5-2.5s1.1-2.5,2.5-2.5h33.3c1.4,0,2.5,1.1,2.5,2.5S55.5,28.7,54.2,28.7z"/>
		<path class="st0" d="M54.2,39.9H20.8c-1.4,0-2.5-1.1-2.5-2.5s1.1-2.5,2.5-2.5h33.3c1.4,0,2.5,1.1,2.5,2.5
			C56.7,38.8,55.5,39.9,54.2,39.9z"/>
		<path class="st0" d="M41.5,51.3H20.8c-1.4,0-2.5-1.1-2.5-2.5c0-1.4,1.1-2.5,2.5-2.5h20.7c1.4,0,2.5,1.1,2.5,2.5
			C44,50.2,42.9,51.3,41.5,51.3z"/>
	</g>
</g>
<path class="st0" d="M73.1,75c-0.5,0-1-0.2-1.4-0.6L0.6,3.3c-0.8-0.8-0.8-2,0-2.7c0.8-0.8,2-0.8,2.7,0l71.1,71.1
	c0.8,0.8,0.8,2,0,2.7C74.1,74.8,73.6,75,73.1,75z"/>
</svg>
