<?xml version="1.0" encoding="utf-8"?>
<!-- Generator: Adobe Illustrator 26.5.0, SVG Export Plug-In . SVG Version: 6.00 Build 0)  -->
<svg version="1.1" id="圖層_1" xmlns="http://www.w3.org/2000/svg" xmlns:xlink="http://www.w3.org/1999/xlink" x="0px" y="0px"
	 viewBox="0 0 75 75" style="enable-background:new 0 0 75 75;" xml:space="preserve">
<style type="text/css">
	.st0{fill:#93C980;}
	.st1{fill:#3F9979;}
	.st2{opacity:0.3;}
	.st3{fill:#F2A306;}
	.st4{fill:none;}
	.st5{opacity:0.4;}
	.st6{fill:#FFFFFF;}
	.st7{fill:#F5F5F5;}
</style>
<g>
	<path class="st0" d="M75,37.5C75,58.2,58.2,75,37.5,75S0,58.2,0,37.5S16.8,0,37.5,0S75,16.8,75,37.5"/>
	<path class="st1" d="M69.5,37.5c0,17.7-14.3,32-32,32s-32-14.3-32-32s14.3-32,32-32S69.5,19.8,69.5,37.5"/>
	<g class="st2">
		<g>
			<path class="st3" d="M37.5,64.8c-16.9,0-30.6-13.1-31.8-29.6c-0.1,0.8-0.1,1.5-0.1,2.3c0,17.7,14.3,32,32,32s32-14.3,32-32
				c0-0.8-0.1-1.6-0.1-2.3C68.2,51.7,54.4,64.8,37.5,64.8"/>
			<rect x="5.5" y="35.2" class="st4" width="63.9" height="34.3"/>
		</g>
	</g>
	<g class="st5">
		<g>
			<path class="st6" d="M37.5,3.3c20.2,0,36.6,15.9,37.4,35.9c0-0.5,0.1-1.1,0.1-1.6C75,16.8,58.2,0,37.5,0S0,16.8,0,37.5
				c0,0.6,0.1,1.1,0.1,1.6C0.9,19.2,17.3,3.3,37.5,3.3"/>
			<rect class="st4" width="75" height="39.1"/>
		</g>
	</g>
	<g>
		<path class="st7" d="M-22.7,24.4c0,0,9.7-4.5,14.3,6.9c3.9-0.4,3.8-0.4,3.8-0.4l-5.2,11.9l-8.9-10.4L-15,32l1.2-0.1
			C-13.9,31.9-15,25.6-22.7,24.4z"/>
		<path class="st7" d="M-27.6,53.5c0,0-9,5.2-14.5-5.5c-3.7,0.7-3.6,0.7-3.6,0.7l4.1-11.9l9.4,9.4l-3.4,0.7l-1.1,0.2
			C-36.7,46.9-35.2,53-27.6,53.5z"/>
		<g>
			<rect x="-36" y="27.6" class="st7" width="20" height="0.8"/>
			<rect x="-36" y="30.3" class="st7" width="20" height="0.8"/>
			<rect x="-36" y="33" class="st7" width="20" height="0.8"/>
			<rect x="-36" y="35.7" class="st7" width="20" height="0.8"/>
			<rect x="-36" y="38.3" class="st7" width="20" height="0.8"/>
			<rect x="-36" y="41" class="st7" width="20" height="0.8"/>
			<rect x="-36" y="43.7" class="st7" width="7.7" height="0.8"/>
			<g>
				<path class="st7" d="M-14.2,43.9v-18c0-0.5-0.4-0.9-0.9-0.9h-22.1c-0.5,0-0.9,0.4-0.9,0.9v23.2c0,0.5,0.4,0.9,0.9,0.9h16.9
					l0.4-0.4l0.3-0.3l4.6-4.6l0.4-0.4L-14.2,43.9L-14.2,43.9L-14.2,43.9L-14.2,43.9z M-19.7,43.9c-0.3,0-0.5,0.2-0.5,0.5v4.9h-16.9
					c-0.1,0-0.2-0.1-0.2-0.2V25.9c0-0.1,0.1-0.2,0.2-0.2H-15c0.1,0,0.2,0.1,0.2,0.2v18H-19.7z"/>
				<path class="st7" d="M-20.2,50.3h-16.9c-0.7,0-1.2-0.5-1.2-1.2V25.9c0-0.7,0.5-1.2,1.2-1.2H-15c0.7,0,1.2,0.5,1.2,1.2v17.9
					c0,0.1,0,0.2-0.1,0.3l-6.1,6.1C-20.1,50.3-20.1,50.3-20.2,50.3z M-37.2,25.2c-0.4,0-0.6,0.3-0.6,0.6V49c0,0.4,0.3,0.6,0.6,0.6
					h16.8l0.2-0.2l0,0h-16.9c-0.3,0-0.5-0.2-0.5-0.5v-23c0-0.3,0.2-0.5,0.5-0.5H-15c0.3,0,0.5,0.2,0.5,0.5v18V44l0.2-0.2V25.9
					c0-0.4-0.3-0.6-0.6-0.6L-37.2,25.2L-37.2,25.2z M-19.7,44.2c-0.1,0-0.2,0.1-0.2,0.2v4.9l0,0l5.1-5.2h-0.1L-19.7,44.2L-19.7,44.2
					z M-37.1,49h16.6v-4.6c0-0.4,0.4-0.8,0.8-0.8h4.5V26h-21.9V49z"/>
			</g>
		</g>
	</g>
	<g>
		<g>
			<path class="st6" d="M45.2,32.3c-6.3,0-11.4,5.1-11.4,11.4s5.1,11.4,11.4,11.4S56.6,50,56.6,43.7H45.2V32.3z"/>
			<path class="st6" d="M60.1,41.9H47V28.8h0.8C54.6,28.8,60,34.3,60,41C60.1,41.1,60.1,41.9,60.1,41.9z M48.7,40.2h9.7
				c-0.4-5.2-4.5-9.3-9.7-9.7V40.2z"/>
		</g>
		<g>
			<rect x="23.5" y="23.1" class="st7" width="16.2" height="0.8"/>
			<rect x="23.5" y="26" class="st7" width="16.2" height="0.8"/>
			<rect x="23.5" y="28.9" class="st7" width="16.2" height="0.8"/>
			<rect x="23.5" y="31.8" class="st7" width="16.2" height="0.8"/>
			<rect x="23.5" y="34.7" class="st7" width="16.2" height="0.8"/>
			<rect x="23.5" y="37.6" class="st7" width="16.2" height="0.8"/>
			<rect x="23.5" y="40.5" class="st7" width="8.4" height="0.8"/>
			<g>
				<path class="st7" d="M41.7,40.7V21.2c0-0.6-0.5-1-1-1H22.2c-0.6,0-1,0.4-1,1v25.2c0,0.6,0.4,1,1,1h12.9l0.4-0.5l0.3-0.3l5-5
					l0.4-0.4L41.7,40.7L41.7,40.7L41.7,40.7z M35.7,40.7c-0.3,0-0.5,0.2-0.5,0.5v5.3h-13c-0.1,0-0.2-0.1-0.2-0.2V21.2
					c0-0.1,0.1-0.2,0.2-0.2h18.5c0.1,0,0.2,0.1,0.2,0.2v19.5H35.7z"/>
				<path class="st7" d="M35.2,47.7h-13c-0.7,0-1.3-0.6-1.3-1.3V21.2c0-0.7,0.6-1.3,1.3-1.3h18.5c0.7,0,1.3,0.6,1.3,1.3v19.4
					c0,0.1,0,0.2-0.1,0.3l-6.6,6.7C35.3,47.7,35.2,47.7,35.2,47.7z M22.2,20.5c-0.4,0-0.7,0.3-0.7,0.7v25.2c0,0.4,0.3,0.7,0.7,0.7
					H35l0.2-0.2l0,0h-13c-0.3,0-0.5-0.2-0.5-0.5V21.2c0-0.3,0.2-0.5,0.5-0.5h18.5c0.3,0,0.5,0.2,0.5,0.5v19.5v0.1l0.2-0.2V21.2
					c0-0.4-0.3-0.7-0.7-0.7H22.2L22.2,20.5z M35.7,41c-0.1,0-0.2,0.1-0.2,0.2v5.3l0,0L41,41h-0.1H35.7z M22.4,46.3h12.5v-5
					c0-0.5,0.4-0.9,0.9-0.9h4.9V21.3H22.4V46.3z"/>
			</g>
		</g>
	</g>
</g>
</svg>
